M48
;DRILL file {KiCad 4.0.7-e2-6376~58~ubuntu16.04.1} date Fri Apr 13 07:59:51 2018
;FORMAT={-:-/ absolute / metric / decimal}
FMAT,2
METRIC,TZ
T1C0.635
T2C0.762
T3C1.000
T4C1.500
T5C1.700
%
G90
G05
M71
T1
X107.27Y-125.5
X108.22Y-114.38
X112.67Y-94.17
X114.27Y-117.81
X114.64Y-119.15
X115.6Y-75.77
X116.41Y-76.73
X116.8Y-104.14
X117.64Y-108.6
X118.91Y-100.29
X118.97Y-88.59
X120.14Y-98.
X120.27Y-105.38
X120.89Y-95.27
X122.09Y-101.79
X122.26Y-99.27
X122.92Y-93.25
X123.49Y-74.02
X124.08Y-105.73
X124.74Y-110.61
X125.67Y-80.59
X125.705Y-111.675
X125.82Y-108.28
X126.59Y-102.58
X127.96Y-102.56
X130.96Y-106.65
X131.01Y-109.1
X131.07Y-111.17
X141.24Y-106.79
X145.82Y-97.9
X146.41Y-90.02
X146.81Y-92.08
X147.16Y-97.92
X147.24Y-96.17
X147.38Y-93.76
X148.43Y-103.53
X149.09Y-92.1
X149.31Y-85.05
X149.95Y-89.7
X150.6Y-93.48
X150.85Y-102.09
X150.88Y-99.57
X151.14Y-90.04
X151.38Y-112.15
X151.57Y-84.43
X151.93Y-118.72
X152.36Y-89.37
X154.31Y-91.77
X158.43Y-122.92
X159.2Y-124.33
X159.62Y-118.6
X162.32Y-106.47
T2
X115.02Y-79.02
X115.02Y-81.02
X115.02Y-83.02
X115.02Y-85.02
X115.02Y-92.25
X115.02Y-94.25
X115.02Y-96.25
X115.02Y-98.25
X115.02Y-105.47
X115.02Y-107.47
X115.02Y-109.47
X115.02Y-111.47
T3
X108.75Y-121.65
X108.75Y-124.19
X111.29Y-121.65
X111.29Y-124.19
X113.83Y-121.65
X113.83Y-124.19
X115.32Y-68.58
X115.32Y-71.12
X116.37Y-121.65
X116.37Y-124.19
X117.86Y-68.58
X117.86Y-71.12
X118.91Y-121.65
X118.91Y-124.19
X119.06Y-115.02
X119.06Y-117.56
X119.28Y-79.27
X119.28Y-81.81
X119.28Y-84.35
X120.4Y-68.58
X120.4Y-71.12
X121.45Y-121.65
X121.45Y-124.19
X121.82Y-79.27
X121.82Y-81.81
X121.82Y-84.35
X122.94Y-68.58
X122.94Y-71.12
X123.99Y-121.65
X123.99Y-124.19
X124.46Y-116.84
X124.47Y-114.3
X125.48Y-68.58
X125.48Y-71.12
X126.53Y-121.65
X126.53Y-124.19
X127.Y-116.84
X127.01Y-114.3
X128.02Y-68.58
X128.02Y-71.12
X129.07Y-121.65
X129.07Y-124.19
X129.54Y-116.84
X129.55Y-114.3
X129.62Y-76.12
X129.62Y-78.66
X129.62Y-81.2
X129.62Y-83.74
X129.62Y-86.28
X129.62Y-88.82
X130.56Y-68.58
X130.56Y-71.12
X131.61Y-121.65
X131.61Y-124.19
X132.08Y-116.84
X132.09Y-114.3
X132.16Y-76.12
X132.16Y-78.66
X132.16Y-81.2
X132.16Y-83.74
X132.16Y-86.28
X132.16Y-88.82
X133.1Y-68.58
X133.1Y-71.12
X133.79Y-107.94
X134.15Y-121.65
X134.15Y-124.19
X134.62Y-116.84
X134.63Y-114.3
X134.7Y-76.12
X134.7Y-78.66
X134.7Y-81.2
X134.7Y-83.74
X134.7Y-86.28
X134.7Y-88.82
X135.64Y-68.58
X135.64Y-71.12
X136.33Y-107.94
X136.69Y-121.65
X136.69Y-124.19
X137.16Y-116.84
X137.17Y-114.3
X137.24Y-76.12
X137.24Y-78.66
X137.24Y-81.2
X137.24Y-83.74
X137.24Y-86.28
X137.24Y-88.82
X138.18Y-68.58
X138.18Y-71.12
X138.87Y-107.94
X139.23Y-121.65
X139.23Y-124.19
X139.7Y-116.84
X139.71Y-114.3
X139.78Y-76.12
X139.78Y-78.66
X139.78Y-81.2
X139.78Y-83.74
X139.78Y-86.28
X139.78Y-88.82
X141.77Y-121.65
X141.77Y-124.19
X142.24Y-68.58
X142.24Y-71.13
X142.24Y-116.84
X142.25Y-114.3
X142.32Y-76.12
X142.32Y-78.66
X142.32Y-81.2
X142.32Y-83.74
X142.32Y-86.28
X142.32Y-88.82
X144.31Y-121.65
X144.31Y-124.19
X144.78Y-68.58
X144.78Y-71.13
X146.85Y-121.65
X146.85Y-124.19
X147.32Y-68.58
X147.32Y-71.13
X147.32Y-114.3
X147.32Y-116.84
X149.39Y-121.65
X149.39Y-124.19
X149.86Y-68.58
X149.86Y-71.13
X149.86Y-114.3
X149.86Y-116.84
X151.93Y-121.65
X151.93Y-124.19
X152.4Y-68.58
X152.4Y-71.13
X152.4Y-114.3
X152.4Y-116.84
X154.47Y-121.65
X154.47Y-124.19
X154.94Y-68.58
X154.94Y-71.13
X154.94Y-114.3
X154.94Y-116.84
X157.01Y-121.65
X157.01Y-124.19
X157.48Y-68.58
X157.48Y-71.13
X157.48Y-114.3
X157.48Y-116.84
X160.02Y-68.58
X160.02Y-71.13
X160.02Y-114.3
X160.02Y-116.84
X160.19Y-88.96
X160.19Y-91.5
X160.19Y-94.04
X162.73Y-88.96
X162.73Y-91.5
X162.73Y-94.04
T4
X160.77Y-101.25
T5
X158.23Y-98.71
X158.23Y-103.79
X163.31Y-98.71
X163.31Y-103.79
T0
M30
