G04 #@! TF.FileFunction,Paste,Top*
%FSLAX46Y46*%
G04 Gerber Fmt 4.6, Leading zero omitted, Abs format (unit mm)*
G04 Created by KiCad (PCBNEW 4.0.7-e2-6376~58~ubuntu16.04.1) date Fri Apr 13 07:59:41 2018*
%MOMM*%
%LPD*%
G01*
G04 APERTURE LIST*
%ADD10C,0.150000*%
%ADD11R,0.900000X0.500000*%
%ADD12R,0.797560X0.797560*%
%ADD13R,0.740000X2.400000*%
%ADD14R,0.500000X0.900000*%
%ADD15R,0.650000X1.060000*%
%ADD16R,0.800000X0.900000*%
%ADD17O,1.016000X2.032000*%
%ADD18O,2.032000X1.016000*%
G04 APERTURE END LIST*
D10*
D11*
X118910000Y-98180000D03*
X118910000Y-99680000D03*
D12*
X124860000Y-81350700D03*
X124860000Y-82849300D03*
X126520000Y-81350700D03*
X126520000Y-82849300D03*
D13*
X123770000Y-107470000D03*
X123770000Y-111370000D03*
X122500000Y-107470000D03*
X122500000Y-111370000D03*
X121230000Y-107470000D03*
X121230000Y-111370000D03*
X119960000Y-107470000D03*
X119960000Y-111370000D03*
X118690000Y-107470000D03*
X118690000Y-111370000D03*
D14*
X149090000Y-89670000D03*
X147590000Y-89670000D03*
D11*
X119730000Y-96070000D03*
X119730000Y-94570000D03*
X124860000Y-84960000D03*
X124860000Y-86460000D03*
X126530000Y-84950000D03*
X126530000Y-86450000D03*
X152810000Y-92580000D03*
X152810000Y-91080000D03*
D15*
X120820000Y-89790000D03*
X119870000Y-89790000D03*
X118920000Y-89790000D03*
X118920000Y-91990000D03*
X120820000Y-91990000D03*
D16*
X148340000Y-85140000D03*
X147390000Y-87140000D03*
X149290000Y-87140000D03*
D15*
X154100000Y-85500000D03*
X153150000Y-85500000D03*
X152200000Y-85500000D03*
X152200000Y-87700000D03*
X154100000Y-87700000D03*
D17*
X126310000Y-104650000D03*
X127580000Y-104650000D03*
X130120000Y-104650000D03*
X128850000Y-104650000D03*
X133930000Y-104650000D03*
X135200000Y-104650000D03*
X132660000Y-104650000D03*
X131390000Y-104650000D03*
X141550000Y-104650000D03*
X142820000Y-104650000D03*
X145360000Y-104650000D03*
X144090000Y-104650000D03*
X139010000Y-104650000D03*
X140280000Y-104650000D03*
X140280000Y-91950000D03*
X139010000Y-91950000D03*
X144090000Y-91950000D03*
X145360000Y-91950000D03*
X142820000Y-91950000D03*
X141550000Y-91950000D03*
X131390000Y-91950000D03*
X132660000Y-91950000D03*
X135200000Y-91950000D03*
X133930000Y-91950000D03*
X128850000Y-91950000D03*
X130120000Y-91950000D03*
X127580000Y-91950000D03*
X126310000Y-91950000D03*
D18*
X149170000Y-98300000D03*
X149170000Y-97030000D03*
X149170000Y-95760000D03*
X149170000Y-94490000D03*
X149170000Y-99570000D03*
X149170000Y-100840000D03*
X149170000Y-102110000D03*
X123770000Y-102110000D03*
X123770000Y-100840000D03*
X123770000Y-99570000D03*
X123770000Y-94490000D03*
X123770000Y-95760000D03*
X123770000Y-97030000D03*
X123770000Y-98300000D03*
D11*
X118910000Y-102410000D03*
X118910000Y-100910000D03*
X157440000Y-108690000D03*
X157440000Y-110190000D03*
X159440000Y-108690000D03*
X159440000Y-110190000D03*
M02*
