G04 #@! TF.FileFunction,Copper,L1,Top,Signal*
%FSLAX46Y46*%
G04 Gerber Fmt 4.6, Leading zero omitted, Abs format (unit mm)*
G04 Created by KiCad (PCBNEW 4.0.7-e2-6376~58~ubuntu16.04.1) date Fri Apr 13 07:59:41 2018*
%MOMM*%
%LPD*%
G01*
G04 APERTURE LIST*
%ADD10C,0.150000*%
%ADD11R,0.900000X0.500000*%
%ADD12R,0.797560X0.797560*%
%ADD13C,0.800000*%
%ADD14R,0.740000X2.400000*%
%ADD15R,0.500000X0.900000*%
%ADD16R,0.650000X1.060000*%
%ADD17R,0.800000X0.900000*%
%ADD18C,2.200000*%
%ADD19C,2.000000*%
%ADD20O,1.016000X2.032000*%
%ADD21O,2.032000X1.016000*%
%ADD22R,1.700000X1.700000*%
%ADD23O,1.700000X1.700000*%
%ADD24C,1.700000*%
%ADD25R,1.524000X1.524000*%
%ADD26C,1.524000*%
%ADD27C,0.889000*%
%ADD28C,0.250000*%
%ADD29C,0.500000*%
%ADD30C,0.203200*%
%ADD31C,0.900000*%
%ADD32C,0.254000*%
G04 APERTURE END LIST*
D10*
D11*
X118910000Y-98180000D03*
X118910000Y-99680000D03*
D12*
X124860000Y-81350700D03*
X124860000Y-82849300D03*
X126520000Y-81350700D03*
X126520000Y-82849300D03*
D13*
X104050000Y-117690000D03*
X162720000Y-68840000D03*
D14*
X123770000Y-107470000D03*
X123770000Y-111370000D03*
X122500000Y-107470000D03*
X122500000Y-111370000D03*
X121230000Y-107470000D03*
X121230000Y-111370000D03*
X119960000Y-107470000D03*
X119960000Y-111370000D03*
X118690000Y-107470000D03*
X118690000Y-111370000D03*
D15*
X149090000Y-89670000D03*
X147590000Y-89670000D03*
D11*
X119730000Y-96070000D03*
X119730000Y-94570000D03*
X124860000Y-84960000D03*
X124860000Y-86460000D03*
X126530000Y-84950000D03*
X126530000Y-86450000D03*
X152810000Y-92580000D03*
X152810000Y-91080000D03*
D16*
X120820000Y-89790000D03*
X119870000Y-89790000D03*
X118920000Y-89790000D03*
X118920000Y-91990000D03*
X120820000Y-91990000D03*
D17*
X148340000Y-85140000D03*
X147390000Y-87140000D03*
X149290000Y-87140000D03*
D16*
X154100000Y-85500000D03*
X153150000Y-85500000D03*
X152200000Y-85500000D03*
X152200000Y-87700000D03*
X154100000Y-87700000D03*
D18*
X158230000Y-103790000D03*
X158230000Y-98710000D03*
X163310000Y-98710000D03*
X163310000Y-103790000D03*
D19*
X160770000Y-101250000D03*
D20*
X126310000Y-104650000D03*
X127580000Y-104650000D03*
X130120000Y-104650000D03*
X128850000Y-104650000D03*
X133930000Y-104650000D03*
X135200000Y-104650000D03*
X132660000Y-104650000D03*
X131390000Y-104650000D03*
X141550000Y-104650000D03*
X142820000Y-104650000D03*
X145360000Y-104650000D03*
X144090000Y-104650000D03*
X139010000Y-104650000D03*
X140280000Y-104650000D03*
X140280000Y-91950000D03*
X139010000Y-91950000D03*
X144090000Y-91950000D03*
X145360000Y-91950000D03*
X142820000Y-91950000D03*
X141550000Y-91950000D03*
X131390000Y-91950000D03*
X132660000Y-91950000D03*
X135200000Y-91950000D03*
X133930000Y-91950000D03*
X128850000Y-91950000D03*
X130120000Y-91950000D03*
X127580000Y-91950000D03*
X126310000Y-91950000D03*
D21*
X149170000Y-98300000D03*
X149170000Y-97030000D03*
X149170000Y-95760000D03*
X149170000Y-94490000D03*
X149170000Y-99570000D03*
X149170000Y-100840000D03*
X149170000Y-102110000D03*
X123770000Y-102110000D03*
X123770000Y-100840000D03*
X123770000Y-99570000D03*
X123770000Y-94490000D03*
X123770000Y-95760000D03*
X123770000Y-97030000D03*
X123770000Y-98300000D03*
D22*
X124460000Y-116840000D03*
D23*
X127000000Y-116840000D03*
X129540000Y-116840000D03*
X132080000Y-116840000D03*
X134620000Y-116840000D03*
X137160000Y-116840000D03*
X139700000Y-116840000D03*
X142240000Y-116840000D03*
D22*
X147320000Y-116840000D03*
D23*
X149860000Y-116840000D03*
X152400000Y-116840000D03*
X154940000Y-116840000D03*
X157480000Y-116840000D03*
X160020000Y-116840000D03*
D22*
X138180000Y-68580000D03*
D23*
X135640000Y-68580000D03*
X133100000Y-68580000D03*
X130560000Y-68580000D03*
X128020000Y-68580000D03*
X125480000Y-68580000D03*
X122940000Y-68580000D03*
X120400000Y-68580000D03*
X117860000Y-68580000D03*
X115320000Y-68580000D03*
D22*
X160020000Y-68580000D03*
D23*
X157480000Y-68580000D03*
X154940000Y-68580000D03*
X152400000Y-68580000D03*
X149860000Y-68580000D03*
X147320000Y-68580000D03*
X144780000Y-68580000D03*
X142240000Y-68580000D03*
D22*
X121820000Y-84350000D03*
D23*
X119280000Y-84350000D03*
X121820000Y-81810000D03*
X119280000Y-81810000D03*
X121820000Y-79270000D03*
X119280000Y-79270000D03*
D22*
X119060000Y-115020000D03*
D23*
X119060000Y-117560000D03*
D22*
X160190000Y-88960000D03*
D23*
X162730000Y-88960000D03*
X160190000Y-91500000D03*
X162730000Y-91500000D03*
X160190000Y-94040000D03*
X162730000Y-94040000D03*
D11*
X118910000Y-102410000D03*
X118910000Y-100910000D03*
D22*
X138870000Y-107940000D03*
D23*
X136330000Y-107940000D03*
X133790000Y-107940000D03*
D24*
X124470000Y-114300000D03*
D23*
X127010000Y-114300000D03*
X129550000Y-114300000D03*
X132090000Y-114300000D03*
X134630000Y-114300000D03*
X137170000Y-114300000D03*
X139710000Y-114300000D03*
X142250000Y-114300000D03*
D24*
X147320000Y-114300000D03*
D23*
X149860000Y-114300000D03*
X152400000Y-114300000D03*
X154940000Y-114300000D03*
X157480000Y-114300000D03*
X160020000Y-114300000D03*
D24*
X138180000Y-71120000D03*
D23*
X135640000Y-71120000D03*
X133100000Y-71120000D03*
X130560000Y-71120000D03*
X128020000Y-71120000D03*
X125480000Y-71120000D03*
X122940000Y-71120000D03*
X120400000Y-71120000D03*
X117860000Y-71120000D03*
X115320000Y-71120000D03*
D24*
X160020000Y-71130000D03*
D23*
X157480000Y-71130000D03*
X154940000Y-71130000D03*
X152400000Y-71130000D03*
X149860000Y-71130000D03*
X147320000Y-71130000D03*
X144780000Y-71130000D03*
X142240000Y-71130000D03*
X132160000Y-88820000D03*
X129620000Y-88820000D03*
X132160000Y-86280000D03*
X129620000Y-86280000D03*
X132160000Y-83740000D03*
D24*
X129620000Y-83740000D03*
X134700000Y-83740000D03*
D23*
X137240000Y-83740000D03*
X134700000Y-86280000D03*
X137240000Y-86280000D03*
X134700000Y-88820000D03*
X137240000Y-88820000D03*
X142320000Y-88820000D03*
X139780000Y-88820000D03*
X142320000Y-86280000D03*
X139780000Y-86280000D03*
X142320000Y-83740000D03*
D24*
X139780000Y-83740000D03*
X139780000Y-76120000D03*
D23*
X142320000Y-76120000D03*
X139780000Y-78660000D03*
X142320000Y-78660000D03*
X139780000Y-81200000D03*
X142320000Y-81200000D03*
X137240000Y-81200000D03*
X134700000Y-81200000D03*
X137240000Y-78660000D03*
X134700000Y-78660000D03*
X137240000Y-76120000D03*
D24*
X134700000Y-76120000D03*
X129620000Y-76120000D03*
D23*
X132160000Y-76120000D03*
X129620000Y-78660000D03*
X132160000Y-78660000D03*
X129620000Y-81200000D03*
X132160000Y-81200000D03*
D11*
X157440000Y-108690000D03*
X157440000Y-110190000D03*
X159440000Y-108690000D03*
X159440000Y-110190000D03*
D25*
X115020000Y-105470000D03*
D26*
X115020000Y-107470000D03*
X115020000Y-109470000D03*
X115020000Y-111470000D03*
D25*
X115020000Y-92250000D03*
D26*
X115020000Y-94250000D03*
X115020000Y-96250000D03*
X115020000Y-98250000D03*
D25*
X115020000Y-79020000D03*
D26*
X115020000Y-81020000D03*
X115020000Y-83020000D03*
X115020000Y-85020000D03*
D23*
X157010000Y-124190000D03*
D22*
X157010000Y-121650000D03*
D23*
X154470000Y-124190000D03*
X154470000Y-121650000D03*
X151930000Y-124190000D03*
X151930000Y-121650000D03*
X149390000Y-124190000D03*
X149390000Y-121650000D03*
X146850000Y-124190000D03*
X146850000Y-121650000D03*
X144310000Y-124190000D03*
X144310000Y-121650000D03*
X141770000Y-124190000D03*
X141770000Y-121650000D03*
X139230000Y-124190000D03*
X139230000Y-121650000D03*
X136690000Y-124190000D03*
X136690000Y-121650000D03*
X134150000Y-124190000D03*
X134150000Y-121650000D03*
X131610000Y-124190000D03*
X131610000Y-121650000D03*
X129070000Y-124190000D03*
X129070000Y-121650000D03*
X126530000Y-124190000D03*
X126530000Y-121650000D03*
X123990000Y-124190000D03*
X123990000Y-121650000D03*
X121450000Y-124190000D03*
X121450000Y-121650000D03*
X118910000Y-124190000D03*
X118910000Y-121650000D03*
X116370000Y-124190000D03*
X116370000Y-121650000D03*
X113830000Y-124190000D03*
X113830000Y-121650000D03*
X111290000Y-124190000D03*
X111290000Y-121650000D03*
X108750000Y-124190000D03*
X108750000Y-121650000D03*
D27*
X151570000Y-84430000D03*
X149310000Y-85050000D03*
X125670000Y-80590000D03*
X122090000Y-101790000D03*
X122920000Y-93250000D03*
X150600000Y-93480000D03*
X150850000Y-102090000D03*
X150880000Y-99570000D03*
X118970000Y-88590000D03*
X124080000Y-105730000D03*
X127960000Y-102560000D03*
X118910000Y-100290000D03*
X147380000Y-93760000D03*
X149090000Y-92100000D03*
X149950000Y-89700000D03*
X145820000Y-97900000D03*
X141240000Y-106790000D03*
X120890000Y-95270000D03*
X120140000Y-98000000D03*
X124740000Y-110610000D03*
X117640000Y-108600000D03*
X131070000Y-111170000D03*
X130960000Y-106650000D03*
X131010000Y-109100000D03*
X122260000Y-99270000D03*
X125705000Y-111675000D03*
X125820000Y-108280000D03*
X126590000Y-102580000D03*
X120270000Y-105380000D03*
X152360000Y-89370000D03*
X154310000Y-91770000D03*
X162320000Y-106470000D03*
X159200000Y-124330000D03*
X158430000Y-122920000D03*
X159620000Y-118600000D03*
X123490000Y-74020000D03*
X151140000Y-90040000D03*
X148430000Y-103530000D03*
X151380000Y-112150000D03*
X146410000Y-90020000D03*
X146810000Y-92080000D03*
X147240000Y-96170000D03*
X147160000Y-97920000D03*
X116800000Y-104140000D03*
X151930000Y-118720000D03*
X114270000Y-117810000D03*
X114640000Y-119150000D03*
X112670000Y-94170000D03*
X115600000Y-75770000D03*
X107270000Y-125500000D03*
X108220000Y-114380000D03*
X116410000Y-76730000D03*
D28*
X152200000Y-85500000D02*
X152200000Y-85060000D01*
X152200000Y-85060000D02*
X151570000Y-84430000D01*
X148340000Y-85140000D02*
X149220000Y-85140000D01*
X149220000Y-85140000D02*
X149310000Y-85050000D01*
X125650000Y-81350700D02*
X125650000Y-80610000D01*
X125650000Y-80610000D02*
X125670000Y-80590000D01*
X124860000Y-81350700D02*
X125650000Y-81350700D01*
X125650000Y-81350700D02*
X126520000Y-81350700D01*
D29*
X123770000Y-102110000D02*
X122410000Y-102110000D01*
X122410000Y-102110000D02*
X122090000Y-101790000D01*
X123770000Y-94490000D02*
X123770000Y-94100000D01*
X123770000Y-94100000D02*
X122920000Y-93250000D01*
X149170000Y-94490000D02*
X149590000Y-94490000D01*
X149590000Y-94490000D02*
X150600000Y-93480000D01*
X149170000Y-102110000D02*
X150830000Y-102110000D01*
X150830000Y-102110000D02*
X150850000Y-102090000D01*
X149170000Y-99570000D02*
X150880000Y-99570000D01*
X118920000Y-89790000D02*
X118920000Y-88640000D01*
X118920000Y-88640000D02*
X118970000Y-88590000D01*
X123770000Y-107470000D02*
X123770000Y-106040000D01*
X123770000Y-106040000D02*
X124080000Y-105730000D01*
X139710000Y-116830000D02*
X139700000Y-116840000D01*
D28*
X136690000Y-121650000D02*
X137980000Y-120360000D01*
X155730000Y-122930000D02*
X157010000Y-121650000D01*
X153650000Y-122930000D02*
X155730000Y-122930000D01*
X153200000Y-122480000D02*
X153650000Y-122930000D01*
X153200000Y-121060000D02*
X153200000Y-122480000D01*
X152500000Y-120360000D02*
X153200000Y-121060000D01*
X137980000Y-120360000D02*
X152500000Y-120360000D01*
X136430000Y-103610000D02*
X136430000Y-103600000D01*
X127960000Y-102560000D02*
X128040000Y-102640000D01*
X128040000Y-102640000D02*
X135470000Y-102640000D01*
X136430000Y-105640000D02*
X136430000Y-103610000D01*
X136430000Y-105640000D02*
X134130000Y-107940000D01*
X136430000Y-103600000D02*
X135470000Y-102640000D01*
X133790000Y-107940000D02*
X134130000Y-107940000D01*
X136690000Y-121650000D02*
X136750000Y-121650000D01*
D29*
X149040000Y-92100000D02*
X149090000Y-92100000D01*
X147380000Y-93760000D02*
X149040000Y-92100000D01*
X149920000Y-89670000D02*
X149090000Y-89670000D01*
X149950000Y-89700000D02*
X149920000Y-89670000D01*
X149030000Y-92100000D02*
X149090000Y-92100000D01*
X141240000Y-106790000D02*
X145750000Y-106790000D01*
X145820000Y-98190000D02*
X145820000Y-97900000D01*
X146560998Y-98930998D02*
X145820000Y-98190000D01*
X146560998Y-105979002D02*
X146560998Y-98930998D01*
X145750000Y-106790000D02*
X146560998Y-105979002D01*
X141240000Y-106790000D02*
X141380000Y-106650000D01*
X133790000Y-107940000D02*
X133790000Y-110460000D01*
X132090000Y-112160000D02*
X132090000Y-114300000D01*
X133790000Y-110460000D02*
X132090000Y-112160000D01*
D28*
X118910000Y-99680000D02*
X118910000Y-100290000D01*
X118910000Y-100290000D02*
X118910000Y-100910000D01*
D29*
X132090000Y-114300000D02*
X132090000Y-116830000D01*
X132090000Y-116830000D02*
X132080000Y-116840000D01*
D28*
X124860000Y-84960000D02*
X124860000Y-82849300D01*
X126520000Y-82849300D02*
X126520000Y-84940000D01*
X126520000Y-84940000D02*
X126530000Y-84950000D01*
D29*
X120540000Y-99050000D02*
X120540000Y-98400000D01*
X118690000Y-105540000D02*
X120540000Y-103690000D01*
X120540000Y-103690000D02*
X120540000Y-99050000D01*
X118690000Y-107470000D02*
X118690000Y-105540000D01*
X120190000Y-94570000D02*
X119730000Y-94570000D01*
X120890000Y-95270000D02*
X120190000Y-94570000D01*
X120540000Y-98400000D02*
X120140000Y-98000000D01*
X120820000Y-91990000D02*
X123900000Y-91990000D01*
X145360000Y-93370000D02*
X145360000Y-91950000D01*
X144880000Y-93850000D02*
X145360000Y-93370000D01*
X125760000Y-93850000D02*
X144880000Y-93850000D01*
X123900000Y-91990000D02*
X125760000Y-93850000D01*
X118690000Y-107470000D02*
X118070000Y-107470000D01*
X117640000Y-107900000D02*
X117640000Y-108600000D01*
X118070000Y-107470000D02*
X117640000Y-107900000D01*
D28*
X123770000Y-111370000D02*
X123980000Y-111370000D01*
D29*
X123980000Y-111370000D02*
X124740000Y-110610000D01*
D28*
X117640000Y-108600000D02*
X117680000Y-108560000D01*
X119730000Y-94570000D02*
X119780000Y-94570000D01*
D29*
X119780000Y-94570000D02*
X120820000Y-93530000D01*
X120820000Y-93530000D02*
X120820000Y-91990000D01*
X149170000Y-95760000D02*
X150770000Y-95760000D01*
X151710000Y-94820000D02*
X151710000Y-91080000D01*
X150770000Y-95760000D02*
X151710000Y-94820000D01*
X147590000Y-89670000D02*
X147590000Y-87340000D01*
X147590000Y-87340000D02*
X147390000Y-87140000D01*
X147570000Y-91080000D02*
X147570000Y-89690000D01*
X147570000Y-89690000D02*
X147590000Y-89670000D01*
X152810000Y-91080000D02*
X151710000Y-91080000D01*
X151710000Y-91080000D02*
X151070000Y-91080000D01*
X151070000Y-91080000D02*
X147570000Y-91080000D01*
X147570000Y-91080000D02*
X146230000Y-91080000D01*
X146230000Y-91080000D02*
X145360000Y-91950000D01*
X152810000Y-91080000D02*
X152810000Y-90690000D01*
X154100000Y-89400000D02*
X154100000Y-87700000D01*
X152810000Y-90690000D02*
X154100000Y-89400000D01*
D28*
X122530000Y-109130000D02*
X122530000Y-107500000D01*
X122530000Y-107500000D02*
X122500000Y-107470000D01*
X118420000Y-109130000D02*
X122530000Y-109130000D01*
X122530000Y-109130000D02*
X129780000Y-109130000D01*
X129780000Y-109130000D02*
X132660000Y-106250000D01*
X132660000Y-104650000D02*
X132660000Y-106250000D01*
X117550000Y-110000000D02*
X118420000Y-109130000D01*
X117550000Y-113530000D02*
X117550000Y-110000000D01*
X117550000Y-113530000D02*
X119040000Y-115020000D01*
X122510000Y-107480000D02*
X122500000Y-107470000D01*
X119060000Y-115020000D02*
X119040000Y-115020000D01*
X122880000Y-109710000D02*
X127800000Y-109710000D01*
X122500000Y-110090000D02*
X122880000Y-109710000D01*
X122500000Y-111370000D02*
X122500000Y-110090000D01*
X129260000Y-111170000D02*
X131070000Y-111170000D01*
X127800000Y-109710000D02*
X129260000Y-111170000D01*
X131070000Y-111170000D02*
X131010000Y-111110000D01*
X131010000Y-111110000D02*
X131010000Y-109100000D01*
X131570000Y-106040000D02*
X131570000Y-104830000D01*
X130960000Y-106650000D02*
X131570000Y-106040000D01*
X131570000Y-104830000D02*
X131390000Y-104650000D01*
X121230000Y-100810000D02*
X123740000Y-100810000D01*
X123740000Y-100810000D02*
X123770000Y-100840000D01*
X121230000Y-102210000D02*
X121230000Y-100810000D01*
X121230000Y-100810000D02*
X121230000Y-97900000D01*
X121230000Y-107470000D02*
X121230000Y-102210000D01*
X119730000Y-96400000D02*
X119730000Y-96070000D01*
X121230000Y-97900000D02*
X119730000Y-96400000D01*
X118920000Y-91990000D02*
X118920000Y-92880000D01*
X119150000Y-96070000D02*
X119730000Y-96070000D01*
X118520000Y-95440000D02*
X119150000Y-96070000D01*
X118520000Y-93280000D02*
X118520000Y-95440000D01*
X118920000Y-92880000D02*
X118520000Y-93280000D01*
X122260000Y-99270000D02*
X122560000Y-99570000D01*
X122560000Y-99570000D02*
X123770000Y-99570000D01*
X125110000Y-107570000D02*
X125110000Y-103160000D01*
X125110000Y-103160000D02*
X125690000Y-102580000D01*
X125690000Y-102580000D02*
X125690000Y-100210000D01*
X125690000Y-100210000D02*
X125050000Y-99570000D01*
X123770000Y-99570000D02*
X125050000Y-99570000D01*
X125820000Y-108280000D02*
X125110000Y-107570000D01*
X121230000Y-111370000D02*
X121230000Y-112590000D01*
X124410000Y-112970000D02*
X125705000Y-111675000D01*
X125705000Y-111675000D02*
X125710000Y-111670000D01*
X121610000Y-112970000D02*
X124410000Y-112970000D01*
X121230000Y-112590000D02*
X121610000Y-112970000D01*
X119960000Y-107470000D02*
X119960000Y-105690000D01*
X132140000Y-97030000D02*
X149170000Y-97030000D01*
X126590000Y-102580000D02*
X132140000Y-97030000D01*
X119960000Y-105690000D02*
X120270000Y-105380000D01*
X152810000Y-92580000D02*
X153500000Y-92580000D01*
X152200000Y-89210000D02*
X152200000Y-87700000D01*
D29*
X152360000Y-89370000D02*
X152200000Y-89210000D01*
D28*
X153500000Y-92580000D02*
X154310000Y-91770000D01*
X149170000Y-97030000D02*
X150850000Y-97030000D01*
X152810000Y-95070000D02*
X152810000Y-92580000D01*
X150850000Y-97030000D02*
X152810000Y-95070000D01*
X157480000Y-71130000D02*
X157480000Y-82880000D01*
X161530000Y-86930000D02*
X157480000Y-82880000D01*
X163190000Y-86930000D02*
X161530000Y-86930000D01*
X164820000Y-88560000D02*
X163190000Y-86930000D01*
X164820000Y-105010000D02*
X164820000Y-88560000D01*
X164250000Y-105580000D02*
X164820000Y-105010000D01*
X163210000Y-105580000D02*
X164250000Y-105580000D01*
X162320000Y-106470000D02*
X163210000Y-105580000D01*
X157600000Y-125930000D02*
X159200000Y-124330000D01*
X147950000Y-125930000D02*
X157600000Y-125930000D01*
X147950000Y-125930000D02*
X146850000Y-124830000D01*
X146850000Y-124190000D02*
X146850000Y-124830000D01*
X121820000Y-84350000D02*
X122480000Y-84350000D01*
X122480000Y-84350000D02*
X123830000Y-83000000D01*
X123830000Y-83000000D02*
X123830000Y-76920000D01*
X123830000Y-76920000D02*
X127030000Y-73720000D01*
X127030000Y-73720000D02*
X138480000Y-73720000D01*
X138480000Y-73720000D02*
X140450000Y-71750000D01*
X140450000Y-71750000D02*
X140450000Y-68090000D01*
X140450000Y-68090000D02*
X142030000Y-66510000D01*
X142030000Y-66510000D02*
X155410000Y-66510000D01*
X155410000Y-66510000D02*
X157480000Y-68580000D01*
X157480000Y-68580000D02*
X157480000Y-71130000D01*
X158430000Y-122530000D02*
X158430000Y-122920000D01*
X159720000Y-121240000D02*
X158430000Y-122530000D01*
X159720000Y-118700000D02*
X159720000Y-121240000D01*
X159620000Y-118600000D02*
X159720000Y-118700000D01*
X160020000Y-68580000D02*
X160020000Y-71130000D01*
D30*
X160020000Y-68580000D02*
X160274000Y-68580000D01*
D28*
X121820000Y-81810000D02*
X121820000Y-81850000D01*
X121820000Y-81850000D02*
X120540000Y-83130000D01*
X120540000Y-83130000D02*
X120540000Y-87760000D01*
X120540000Y-87760000D02*
X119870000Y-88430000D01*
X119870000Y-88430000D02*
X119870000Y-89790000D01*
X121820000Y-79270000D02*
X121820000Y-75690000D01*
X121820000Y-75690000D02*
X123490000Y-74020000D01*
X135640000Y-68580000D02*
X135640000Y-71120000D01*
X119280000Y-79270000D02*
X119280000Y-75940000D01*
X138180000Y-72180000D02*
X138180000Y-71120000D01*
X137230000Y-73130000D02*
X138180000Y-72180000D01*
X122090000Y-73130000D02*
X137230000Y-73130000D01*
X119280000Y-75940000D02*
X122090000Y-73130000D01*
X138180000Y-68580000D02*
X138180000Y-71120000D01*
X126310000Y-91950000D02*
X126310000Y-90360000D01*
X124860000Y-88910000D02*
X124860000Y-86460000D01*
X126310000Y-90360000D02*
X124860000Y-88910000D01*
X126310000Y-91950000D02*
X126190000Y-91950000D01*
X126530000Y-86450000D02*
X126530000Y-89140000D01*
X127580000Y-90190000D02*
X127580000Y-91950000D01*
X126530000Y-89140000D02*
X127580000Y-90190000D01*
X151140000Y-88650000D02*
X151140000Y-90040000D01*
X149630000Y-87140000D02*
X151140000Y-88650000D01*
X152400000Y-107500000D02*
X152400000Y-114300000D01*
X148430000Y-103530000D02*
X152400000Y-107500000D01*
X149290000Y-87140000D02*
X149630000Y-87140000D01*
X152400000Y-114300000D02*
X152400000Y-116840000D01*
X144550000Y-83450000D02*
X152030000Y-83450000D01*
X153150000Y-84570000D02*
X153150000Y-85500000D01*
X152030000Y-83450000D02*
X153150000Y-84570000D01*
X151380000Y-112150000D02*
X151380000Y-107770000D01*
X144550000Y-88160000D02*
X144550000Y-83450000D01*
X144550000Y-83450000D02*
X144550000Y-79120000D01*
X146410000Y-90020000D02*
X144550000Y-88160000D01*
X146540000Y-95470000D02*
X146540000Y-92150000D01*
X147240000Y-96170000D02*
X146540000Y-95470000D01*
X147190000Y-103580000D02*
X147190000Y-97970000D01*
X151380000Y-107770000D02*
X147190000Y-103580000D01*
X142240000Y-73350000D02*
X142240000Y-71130000D01*
X144550000Y-75660000D02*
X142240000Y-73350000D01*
X144550000Y-79130000D02*
X144550000Y-79120000D01*
X144550000Y-79120000D02*
X144550000Y-75660000D01*
X142240000Y-68580000D02*
X142240000Y-71130000D01*
D31*
X149170000Y-100840000D02*
X154590000Y-100840000D01*
X155000000Y-101250000D02*
X160770000Y-101250000D01*
X154590000Y-100840000D02*
X155000000Y-101250000D01*
D29*
X116580000Y-96220000D02*
X115050000Y-96220000D01*
X115050000Y-96220000D02*
X115020000Y-96250000D01*
X116580000Y-83910000D02*
X115690000Y-83020000D01*
X116580000Y-103920000D02*
X116580000Y-96220000D01*
X116580000Y-96220000D02*
X116580000Y-83910000D01*
X116800000Y-104140000D02*
X116580000Y-103920000D01*
X115690000Y-83020000D02*
X115020000Y-83020000D01*
X138870000Y-107940000D02*
X138870000Y-109130000D01*
X134630000Y-113370000D02*
X134630000Y-114300000D01*
X138870000Y-109130000D02*
X134630000Y-113370000D01*
X134630000Y-114300000D02*
X134630000Y-116830000D01*
X134630000Y-116830000D02*
X134620000Y-116840000D01*
D28*
X151930000Y-118720000D02*
X151930000Y-119295998D01*
X121704002Y-119295998D02*
X121620000Y-119295998D01*
X156230000Y-118190000D02*
X156230000Y-118260000D01*
X156230000Y-108260000D02*
X156230000Y-118190000D01*
X156760000Y-107730000D02*
X156230000Y-108260000D01*
X158510000Y-107730000D02*
X156760000Y-107730000D01*
X159440000Y-108660000D02*
X158510000Y-107730000D01*
X155194002Y-119295998D02*
X151930000Y-119295998D01*
X151930000Y-119295998D02*
X121704002Y-119295998D01*
X156230000Y-118260000D02*
X155194002Y-119295998D01*
X114690000Y-117810000D02*
X114270000Y-117810000D01*
X116755998Y-119875998D02*
X114690000Y-117810000D01*
X121040000Y-119875998D02*
X116755998Y-119875998D01*
X121620000Y-119295998D02*
X121040000Y-119875998D01*
X159440000Y-108690000D02*
X159440000Y-108660000D01*
X115320000Y-71120000D02*
X115320000Y-72850000D01*
X117320000Y-100820000D02*
X118910000Y-102410000D01*
X117320000Y-74850000D02*
X117320000Y-100820000D01*
X115320000Y-72850000D02*
X117320000Y-74850000D01*
X118910000Y-102410000D02*
X118910000Y-103550000D01*
X116990000Y-105470000D02*
X115020000Y-105470000D01*
X118910000Y-103550000D02*
X116990000Y-105470000D01*
X115320000Y-68580000D02*
X115320000Y-71120000D01*
X154470000Y-119800000D02*
X154470000Y-121650000D01*
X117070000Y-120380000D02*
X116440000Y-120380000D01*
X121460000Y-120380000D02*
X117070000Y-120380000D01*
X122040000Y-119800000D02*
X121460000Y-120380000D01*
X157180000Y-119800000D02*
X154470000Y-119800000D01*
X154470000Y-119800000D02*
X122040000Y-119800000D01*
X158720000Y-118260000D02*
X157180000Y-119800000D01*
X158720000Y-113400000D02*
X158720000Y-118260000D01*
X158340000Y-113020000D02*
X158720000Y-113400000D01*
X158340000Y-109640000D02*
X158340000Y-113020000D01*
X157440000Y-108740000D02*
X158340000Y-109640000D01*
X115210000Y-119150000D02*
X114640000Y-119150000D01*
X116440000Y-120380000D02*
X115210000Y-119150000D01*
X157440000Y-108690000D02*
X157440000Y-108740000D01*
X117860000Y-71120000D02*
X117860000Y-96590000D01*
X118910000Y-97640000D02*
X118910000Y-98180000D01*
X117860000Y-96590000D02*
X118910000Y-97640000D01*
X118910000Y-98180000D02*
X119140000Y-98180000D01*
X115820000Y-107470000D02*
X115020000Y-107470000D01*
X119800000Y-103490000D02*
X115820000Y-107470000D01*
X119800000Y-98840000D02*
X119800000Y-103490000D01*
X119140000Y-98180000D02*
X119800000Y-98840000D01*
X117860000Y-68580000D02*
X117860000Y-71120000D01*
X147320000Y-116840000D02*
X147320000Y-117140000D01*
X147320000Y-117140000D02*
X146220000Y-118240000D01*
X113540000Y-93730000D02*
X115020000Y-92250000D01*
X113540000Y-115110000D02*
X113540000Y-93730000D01*
X117280000Y-118850000D02*
X113540000Y-115110000D01*
X120450000Y-118850000D02*
X117280000Y-118850000D01*
X121060000Y-118240000D02*
X120450000Y-118850000D01*
X146220000Y-118240000D02*
X121060000Y-118240000D01*
X147320000Y-114300000D02*
X147320000Y-116840000D01*
X149860000Y-116840000D02*
X149860000Y-117710000D01*
X112900000Y-94400000D02*
X112670000Y-94170000D01*
X112900000Y-115230000D02*
X112900000Y-94400000D01*
X117030000Y-119360000D02*
X112900000Y-115230000D01*
X120790000Y-119360000D02*
X117030000Y-119360000D01*
X121380000Y-118770000D02*
X120790000Y-119360000D01*
X148800000Y-118770000D02*
X121380000Y-118770000D01*
X149860000Y-117710000D02*
X148800000Y-118770000D01*
X149860000Y-114300000D02*
X149860000Y-116840000D01*
X107320000Y-84580000D02*
X107320000Y-83560000D01*
X107320000Y-117680000D02*
X107320000Y-84580000D01*
X110030000Y-120390000D02*
X107320000Y-117680000D01*
X110030000Y-122190000D02*
X110030000Y-120390000D01*
X110800000Y-122960000D02*
X110030000Y-122190000D01*
X143080000Y-122960000D02*
X110800000Y-122960000D01*
X144310000Y-121730000D02*
X143080000Y-122960000D01*
X111860000Y-79020000D02*
X115020000Y-79020000D01*
X107320000Y-83560000D02*
X111860000Y-79020000D01*
X144310000Y-121650000D02*
X144310000Y-121730000D01*
X115020000Y-79020000D02*
X115020000Y-76350000D01*
X115020000Y-76350000D02*
X115600000Y-75770000D01*
X147320000Y-68580000D02*
X147320000Y-71130000D01*
X115020000Y-81020000D02*
X110730000Y-81020000D01*
X142630000Y-125870000D02*
X144310000Y-124190000D01*
X107640000Y-125870000D02*
X142630000Y-125870000D01*
X107270000Y-125500000D02*
X107640000Y-125870000D01*
X107920000Y-114080000D02*
X108220000Y-114380000D01*
X107920000Y-83830000D02*
X107920000Y-114080000D01*
X110730000Y-81020000D02*
X107920000Y-83830000D01*
X116410000Y-80080000D02*
X116410000Y-76730000D01*
X115470000Y-81020000D02*
X116410000Y-80080000D01*
X115020000Y-81020000D02*
X115470000Y-81020000D01*
X144780000Y-68580000D02*
X144780000Y-71130000D01*
X124460000Y-116840000D02*
X124460000Y-114310000D01*
D29*
X124460000Y-114310000D02*
X124470000Y-114300000D01*
D28*
X127000000Y-116840000D02*
X127000000Y-114310000D01*
D29*
X127000000Y-114310000D02*
X127010000Y-114300000D01*
D28*
X129550000Y-114300000D02*
X129550000Y-116830000D01*
D29*
X129550000Y-116830000D02*
X129540000Y-116840000D01*
D28*
X142250000Y-114300000D02*
X142250000Y-116830000D01*
D29*
X142250000Y-116830000D02*
X142240000Y-116840000D01*
D28*
X154940000Y-114300000D02*
X154940000Y-116840000D01*
X157480000Y-114300000D02*
X157480000Y-110230000D01*
D29*
X157480000Y-110230000D02*
X157440000Y-110190000D01*
D28*
X157480000Y-114300000D02*
X157480000Y-116840000D01*
X159440000Y-110190000D02*
X159440000Y-113720000D01*
D29*
X159440000Y-113720000D02*
X160020000Y-114300000D01*
D28*
X160020000Y-114300000D02*
X160020000Y-116840000D01*
X133100000Y-68580000D02*
X133100000Y-71120000D01*
X130560000Y-68580000D02*
X130560000Y-71120000D01*
X128020000Y-68580000D02*
X128020000Y-71120000D01*
X125480000Y-68580000D02*
X125480000Y-71120000D01*
X122940000Y-68580000D02*
X122940000Y-71120000D01*
X120400000Y-68580000D02*
X120400000Y-71120000D01*
X154940000Y-68580000D02*
X154940000Y-71130000D01*
X152400000Y-68580000D02*
X152400000Y-71130000D01*
X149860000Y-68580000D02*
X149860000Y-71130000D01*
D32*
G36*
X157184737Y-97485132D02*
X158230000Y-98530395D01*
X159275263Y-97485132D01*
X159176000Y-97237000D01*
X162364000Y-97237000D01*
X162264737Y-97485132D01*
X163310000Y-98530395D01*
X163324143Y-98516253D01*
X163503748Y-98695858D01*
X163489605Y-98710000D01*
X163503748Y-98724143D01*
X163324143Y-98903748D01*
X163310000Y-98889605D01*
X162264737Y-99934868D01*
X162375641Y-100212099D01*
X163021593Y-100455323D01*
X163711453Y-100432836D01*
X164244359Y-100212099D01*
X164355262Y-99934870D01*
X164403000Y-99982608D01*
X164403000Y-102517392D01*
X164355262Y-102565130D01*
X164244359Y-102287901D01*
X163598407Y-102044677D01*
X162908547Y-102067164D01*
X162375641Y-102287901D01*
X162264737Y-102565132D01*
X163310000Y-103610395D01*
X163324143Y-103596253D01*
X163503748Y-103775858D01*
X163489605Y-103790000D01*
X163503748Y-103804143D01*
X163324143Y-103983748D01*
X163310000Y-103969605D01*
X163295858Y-103983748D01*
X163116253Y-103804143D01*
X163130395Y-103790000D01*
X162085132Y-102744737D01*
X161807901Y-102855641D01*
X161564677Y-103501593D01*
X161587164Y-104191453D01*
X161807901Y-104724359D01*
X162085130Y-104835262D01*
X161971090Y-104949302D01*
X162052894Y-105031106D01*
X159488571Y-105029641D01*
X159568910Y-104949302D01*
X159454870Y-104835262D01*
X159732099Y-104724359D01*
X159975323Y-104078407D01*
X159952836Y-103388547D01*
X159732099Y-102855641D01*
X159454868Y-102744737D01*
X158409605Y-103790000D01*
X158423748Y-103804143D01*
X158244143Y-103983748D01*
X158230000Y-103969605D01*
X158215858Y-103983748D01*
X158036253Y-103804143D01*
X158050395Y-103790000D01*
X157005132Y-102744737D01*
X156727901Y-102855641D01*
X156484677Y-103501593D01*
X156507164Y-104191453D01*
X156727901Y-104724359D01*
X157005130Y-104835262D01*
X156891090Y-104949302D01*
X156969990Y-105028202D01*
X150514242Y-105024515D01*
X149166372Y-103676645D01*
X149166628Y-103384144D01*
X149054738Y-103113351D01*
X149043000Y-103101592D01*
X149043000Y-102237000D01*
X149297000Y-102237000D01*
X149297000Y-103253000D01*
X149805000Y-103253000D01*
X150232740Y-103117394D01*
X150576026Y-102828421D01*
X150705389Y-102565132D01*
X157184737Y-102565132D01*
X158230000Y-103610395D01*
X159275263Y-102565132D01*
X159164359Y-102287901D01*
X158518407Y-102044677D01*
X157828547Y-102067164D01*
X157295641Y-102287901D01*
X157184737Y-102565132D01*
X150705389Y-102565132D01*
X150780071Y-102413134D01*
X150654022Y-102237000D01*
X149297000Y-102237000D01*
X149043000Y-102237000D01*
X149023000Y-102237000D01*
X149023000Y-101983000D01*
X149043000Y-101983000D01*
X149043000Y-101963000D01*
X149297000Y-101963000D01*
X149297000Y-101983000D01*
X150654022Y-101983000D01*
X150780071Y-101806866D01*
X150669586Y-101582000D01*
X154282653Y-101582000D01*
X154475327Y-101774674D01*
X154716049Y-101935519D01*
X155000000Y-101992000D01*
X159685135Y-101992000D01*
X160037185Y-102344666D01*
X160511878Y-102541775D01*
X161025867Y-102542224D01*
X161500903Y-102345943D01*
X161864666Y-101982815D01*
X162061775Y-101508122D01*
X162062224Y-100994133D01*
X161865943Y-100519097D01*
X161502815Y-100155334D01*
X161028122Y-99958225D01*
X160514133Y-99957776D01*
X160039097Y-100154057D01*
X159684535Y-100508000D01*
X155307346Y-100508000D01*
X155114673Y-100315327D01*
X154873951Y-100154481D01*
X154590000Y-100098000D01*
X150669586Y-100098000D01*
X150749738Y-99934868D01*
X157184737Y-99934868D01*
X157295641Y-100212099D01*
X157941593Y-100455323D01*
X158631453Y-100432836D01*
X159164359Y-100212099D01*
X159275263Y-99934868D01*
X158230000Y-98889605D01*
X157184737Y-99934868D01*
X150749738Y-99934868D01*
X150780071Y-99873134D01*
X150654022Y-99697000D01*
X149297000Y-99697000D01*
X149297000Y-99717000D01*
X149043000Y-99717000D01*
X149043000Y-99697000D01*
X149023000Y-99697000D01*
X149023000Y-99443000D01*
X149043000Y-99443000D01*
X149043000Y-99423000D01*
X149297000Y-99423000D01*
X149297000Y-99443000D01*
X150654022Y-99443000D01*
X150780071Y-99266866D01*
X150576026Y-98851579D01*
X150385756Y-98691413D01*
X150442729Y-98606147D01*
X150479438Y-98421593D01*
X156484677Y-98421593D01*
X156507164Y-99111453D01*
X156727901Y-99644359D01*
X157005132Y-99755263D01*
X158050395Y-98710000D01*
X158409605Y-98710000D01*
X159454868Y-99755263D01*
X159732099Y-99644359D01*
X159975323Y-98998407D01*
X159956521Y-98421593D01*
X161564677Y-98421593D01*
X161587164Y-99111453D01*
X161807901Y-99644359D01*
X162085132Y-99755263D01*
X163130395Y-98710000D01*
X162085132Y-97664737D01*
X161807901Y-97775641D01*
X161564677Y-98421593D01*
X159956521Y-98421593D01*
X159952836Y-98308547D01*
X159732099Y-97775641D01*
X159454868Y-97664737D01*
X158409605Y-98710000D01*
X158050395Y-98710000D01*
X157005132Y-97664737D01*
X156727901Y-97775641D01*
X156484677Y-98421593D01*
X150479438Y-98421593D01*
X150503625Y-98300000D01*
X150442729Y-97993853D01*
X150269310Y-97734315D01*
X150165574Y-97665000D01*
X150269310Y-97595685D01*
X150368659Y-97447000D01*
X150849995Y-97447000D01*
X150850000Y-97447001D01*
X151009579Y-97415258D01*
X151144864Y-97324864D01*
X151232728Y-97237000D01*
X157284000Y-97237000D01*
X157184737Y-97485132D01*
X157184737Y-97485132D01*
G37*
X157184737Y-97485132D02*
X158230000Y-98530395D01*
X159275263Y-97485132D01*
X159176000Y-97237000D01*
X162364000Y-97237000D01*
X162264737Y-97485132D01*
X163310000Y-98530395D01*
X163324143Y-98516253D01*
X163503748Y-98695858D01*
X163489605Y-98710000D01*
X163503748Y-98724143D01*
X163324143Y-98903748D01*
X163310000Y-98889605D01*
X162264737Y-99934868D01*
X162375641Y-100212099D01*
X163021593Y-100455323D01*
X163711453Y-100432836D01*
X164244359Y-100212099D01*
X164355262Y-99934870D01*
X164403000Y-99982608D01*
X164403000Y-102517392D01*
X164355262Y-102565130D01*
X164244359Y-102287901D01*
X163598407Y-102044677D01*
X162908547Y-102067164D01*
X162375641Y-102287901D01*
X162264737Y-102565132D01*
X163310000Y-103610395D01*
X163324143Y-103596253D01*
X163503748Y-103775858D01*
X163489605Y-103790000D01*
X163503748Y-103804143D01*
X163324143Y-103983748D01*
X163310000Y-103969605D01*
X163295858Y-103983748D01*
X163116253Y-103804143D01*
X163130395Y-103790000D01*
X162085132Y-102744737D01*
X161807901Y-102855641D01*
X161564677Y-103501593D01*
X161587164Y-104191453D01*
X161807901Y-104724359D01*
X162085130Y-104835262D01*
X161971090Y-104949302D01*
X162052894Y-105031106D01*
X159488571Y-105029641D01*
X159568910Y-104949302D01*
X159454870Y-104835262D01*
X159732099Y-104724359D01*
X159975323Y-104078407D01*
X159952836Y-103388547D01*
X159732099Y-102855641D01*
X159454868Y-102744737D01*
X158409605Y-103790000D01*
X158423748Y-103804143D01*
X158244143Y-103983748D01*
X158230000Y-103969605D01*
X158215858Y-103983748D01*
X158036253Y-103804143D01*
X158050395Y-103790000D01*
X157005132Y-102744737D01*
X156727901Y-102855641D01*
X156484677Y-103501593D01*
X156507164Y-104191453D01*
X156727901Y-104724359D01*
X157005130Y-104835262D01*
X156891090Y-104949302D01*
X156969990Y-105028202D01*
X150514242Y-105024515D01*
X149166372Y-103676645D01*
X149166628Y-103384144D01*
X149054738Y-103113351D01*
X149043000Y-103101592D01*
X149043000Y-102237000D01*
X149297000Y-102237000D01*
X149297000Y-103253000D01*
X149805000Y-103253000D01*
X150232740Y-103117394D01*
X150576026Y-102828421D01*
X150705389Y-102565132D01*
X157184737Y-102565132D01*
X158230000Y-103610395D01*
X159275263Y-102565132D01*
X159164359Y-102287901D01*
X158518407Y-102044677D01*
X157828547Y-102067164D01*
X157295641Y-102287901D01*
X157184737Y-102565132D01*
X150705389Y-102565132D01*
X150780071Y-102413134D01*
X150654022Y-102237000D01*
X149297000Y-102237000D01*
X149043000Y-102237000D01*
X149023000Y-102237000D01*
X149023000Y-101983000D01*
X149043000Y-101983000D01*
X149043000Y-101963000D01*
X149297000Y-101963000D01*
X149297000Y-101983000D01*
X150654022Y-101983000D01*
X150780071Y-101806866D01*
X150669586Y-101582000D01*
X154282653Y-101582000D01*
X154475327Y-101774674D01*
X154716049Y-101935519D01*
X155000000Y-101992000D01*
X159685135Y-101992000D01*
X160037185Y-102344666D01*
X160511878Y-102541775D01*
X161025867Y-102542224D01*
X161500903Y-102345943D01*
X161864666Y-101982815D01*
X162061775Y-101508122D01*
X162062224Y-100994133D01*
X161865943Y-100519097D01*
X161502815Y-100155334D01*
X161028122Y-99958225D01*
X160514133Y-99957776D01*
X160039097Y-100154057D01*
X159684535Y-100508000D01*
X155307346Y-100508000D01*
X155114673Y-100315327D01*
X154873951Y-100154481D01*
X154590000Y-100098000D01*
X150669586Y-100098000D01*
X150749738Y-99934868D01*
X157184737Y-99934868D01*
X157295641Y-100212099D01*
X157941593Y-100455323D01*
X158631453Y-100432836D01*
X159164359Y-100212099D01*
X159275263Y-99934868D01*
X158230000Y-98889605D01*
X157184737Y-99934868D01*
X150749738Y-99934868D01*
X150780071Y-99873134D01*
X150654022Y-99697000D01*
X149297000Y-99697000D01*
X149297000Y-99717000D01*
X149043000Y-99717000D01*
X149043000Y-99697000D01*
X149023000Y-99697000D01*
X149023000Y-99443000D01*
X149043000Y-99443000D01*
X149043000Y-99423000D01*
X149297000Y-99423000D01*
X149297000Y-99443000D01*
X150654022Y-99443000D01*
X150780071Y-99266866D01*
X150576026Y-98851579D01*
X150385756Y-98691413D01*
X150442729Y-98606147D01*
X150479438Y-98421593D01*
X156484677Y-98421593D01*
X156507164Y-99111453D01*
X156727901Y-99644359D01*
X157005132Y-99755263D01*
X158050395Y-98710000D01*
X158409605Y-98710000D01*
X159454868Y-99755263D01*
X159732099Y-99644359D01*
X159975323Y-98998407D01*
X159956521Y-98421593D01*
X161564677Y-98421593D01*
X161587164Y-99111453D01*
X161807901Y-99644359D01*
X162085132Y-99755263D01*
X163130395Y-98710000D01*
X162085132Y-97664737D01*
X161807901Y-97775641D01*
X161564677Y-98421593D01*
X159956521Y-98421593D01*
X159952836Y-98308547D01*
X159732099Y-97775641D01*
X159454868Y-97664737D01*
X158409605Y-98710000D01*
X158050395Y-98710000D01*
X157005132Y-97664737D01*
X156727901Y-97775641D01*
X156484677Y-98421593D01*
X150479438Y-98421593D01*
X150503625Y-98300000D01*
X150442729Y-97993853D01*
X150269310Y-97734315D01*
X150165574Y-97665000D01*
X150269310Y-97595685D01*
X150368659Y-97447000D01*
X150849995Y-97447000D01*
X150850000Y-97447001D01*
X151009579Y-97415258D01*
X151144864Y-97324864D01*
X151232728Y-97237000D01*
X157284000Y-97237000D01*
X157184737Y-97485132D01*
M02*
