G04 #@! TF.FileFunction,Soldermask,Top*
%FSLAX46Y46*%
G04 Gerber Fmt 4.6, Leading zero omitted, Abs format (unit mm)*
G04 Created by KiCad (PCBNEW 4.0.7-e2-6376~58~ubuntu16.04.1) date Fri Apr 13 07:59:41 2018*
%MOMM*%
%LPD*%
G01*
G04 APERTURE LIST*
%ADD10C,0.150000*%
%ADD11R,1.408000X1.008000*%
%ADD12R,1.305560X1.305560*%
%ADD13C,1.308000*%
%ADD14R,1.248000X2.908000*%
%ADD15R,1.008000X1.408000*%
%ADD16R,1.158000X1.568000*%
%ADD17R,1.308000X1.408000*%
%ADD18C,2.708000*%
%ADD19C,2.508000*%
%ADD20O,1.524000X2.540000*%
%ADD21O,2.540000X1.524000*%
%ADD22R,2.208000X2.208000*%
%ADD23O,2.208000X2.208000*%
%ADD24C,2.208000*%
%ADD25C,3.258000*%
%ADD26C,3.608000*%
%ADD27R,2.032000X2.032000*%
%ADD28C,2.032000*%
G04 APERTURE END LIST*
D10*
D11*
X118910000Y-98180000D03*
X118910000Y-99680000D03*
D12*
X124860000Y-81350700D03*
X124860000Y-82849300D03*
X126520000Y-81350700D03*
X126520000Y-82849300D03*
D13*
X104050000Y-117690000D03*
X162720000Y-68840000D03*
D14*
X123770000Y-107470000D03*
X123770000Y-111370000D03*
X122500000Y-107470000D03*
X122500000Y-111370000D03*
X121230000Y-107470000D03*
X121230000Y-111370000D03*
X119960000Y-107470000D03*
X119960000Y-111370000D03*
X118690000Y-107470000D03*
X118690000Y-111370000D03*
D15*
X149090000Y-89670000D03*
X147590000Y-89670000D03*
D11*
X119730000Y-96070000D03*
X119730000Y-94570000D03*
X124860000Y-84960000D03*
X124860000Y-86460000D03*
X126530000Y-84950000D03*
X126530000Y-86450000D03*
X152810000Y-92580000D03*
X152810000Y-91080000D03*
D16*
X120820000Y-89790000D03*
X119870000Y-89790000D03*
X118920000Y-89790000D03*
X118920000Y-91990000D03*
X120820000Y-91990000D03*
D17*
X148340000Y-85140000D03*
X147390000Y-87140000D03*
X149290000Y-87140000D03*
D16*
X154100000Y-85500000D03*
X153150000Y-85500000D03*
X152200000Y-85500000D03*
X152200000Y-87700000D03*
X154100000Y-87700000D03*
D18*
X158230000Y-103790000D03*
X158230000Y-98710000D03*
X163310000Y-98710000D03*
X163310000Y-103790000D03*
D19*
X160770000Y-101250000D03*
D20*
X126310000Y-104650000D03*
X127580000Y-104650000D03*
X130120000Y-104650000D03*
X128850000Y-104650000D03*
X133930000Y-104650000D03*
X135200000Y-104650000D03*
X132660000Y-104650000D03*
X131390000Y-104650000D03*
X141550000Y-104650000D03*
X142820000Y-104650000D03*
X145360000Y-104650000D03*
X144090000Y-104650000D03*
X139010000Y-104650000D03*
X140280000Y-104650000D03*
X140280000Y-91950000D03*
X139010000Y-91950000D03*
X144090000Y-91950000D03*
X145360000Y-91950000D03*
X142820000Y-91950000D03*
X141550000Y-91950000D03*
X131390000Y-91950000D03*
X132660000Y-91950000D03*
X135200000Y-91950000D03*
X133930000Y-91950000D03*
X128850000Y-91950000D03*
X130120000Y-91950000D03*
X127580000Y-91950000D03*
X126310000Y-91950000D03*
D21*
X149170000Y-98300000D03*
X149170000Y-97030000D03*
X149170000Y-95760000D03*
X149170000Y-94490000D03*
X149170000Y-99570000D03*
X149170000Y-100840000D03*
X149170000Y-102110000D03*
X123770000Y-102110000D03*
X123770000Y-100840000D03*
X123770000Y-99570000D03*
X123770000Y-94490000D03*
X123770000Y-95760000D03*
X123770000Y-97030000D03*
X123770000Y-98300000D03*
D22*
X124460000Y-116840000D03*
D23*
X127000000Y-116840000D03*
X129540000Y-116840000D03*
X132080000Y-116840000D03*
X134620000Y-116840000D03*
X137160000Y-116840000D03*
X139700000Y-116840000D03*
X142240000Y-116840000D03*
D22*
X147320000Y-116840000D03*
D23*
X149860000Y-116840000D03*
X152400000Y-116840000D03*
X154940000Y-116840000D03*
X157480000Y-116840000D03*
X160020000Y-116840000D03*
D22*
X138180000Y-68580000D03*
D23*
X135640000Y-68580000D03*
X133100000Y-68580000D03*
X130560000Y-68580000D03*
X128020000Y-68580000D03*
X125480000Y-68580000D03*
X122940000Y-68580000D03*
X120400000Y-68580000D03*
X117860000Y-68580000D03*
X115320000Y-68580000D03*
D22*
X160020000Y-68580000D03*
D23*
X157480000Y-68580000D03*
X154940000Y-68580000D03*
X152400000Y-68580000D03*
X149860000Y-68580000D03*
X147320000Y-68580000D03*
X144780000Y-68580000D03*
X142240000Y-68580000D03*
D22*
X121820000Y-84350000D03*
D23*
X119280000Y-84350000D03*
X121820000Y-81810000D03*
X119280000Y-81810000D03*
X121820000Y-79270000D03*
X119280000Y-79270000D03*
D22*
X119060000Y-115020000D03*
D23*
X119060000Y-117560000D03*
D22*
X160190000Y-88960000D03*
D23*
X162730000Y-88960000D03*
X160190000Y-91500000D03*
X162730000Y-91500000D03*
X160190000Y-94040000D03*
X162730000Y-94040000D03*
D11*
X118910000Y-102410000D03*
X118910000Y-100910000D03*
D22*
X138870000Y-107940000D03*
D23*
X136330000Y-107940000D03*
X133790000Y-107940000D03*
D24*
X124470000Y-114300000D03*
D23*
X127010000Y-114300000D03*
X129550000Y-114300000D03*
X132090000Y-114300000D03*
X134630000Y-114300000D03*
X137170000Y-114300000D03*
X139710000Y-114300000D03*
X142250000Y-114300000D03*
D24*
X147320000Y-114300000D03*
D23*
X149860000Y-114300000D03*
X152400000Y-114300000D03*
X154940000Y-114300000D03*
X157480000Y-114300000D03*
X160020000Y-114300000D03*
D24*
X138180000Y-71120000D03*
D23*
X135640000Y-71120000D03*
X133100000Y-71120000D03*
X130560000Y-71120000D03*
X128020000Y-71120000D03*
X125480000Y-71120000D03*
X122940000Y-71120000D03*
X120400000Y-71120000D03*
X117860000Y-71120000D03*
X115320000Y-71120000D03*
D24*
X160020000Y-71130000D03*
D23*
X157480000Y-71130000D03*
X154940000Y-71130000D03*
X152400000Y-71130000D03*
X149860000Y-71130000D03*
X147320000Y-71130000D03*
X144780000Y-71130000D03*
X142240000Y-71130000D03*
D25*
X103870000Y-122920000D03*
X161880000Y-122920000D03*
X161860000Y-73920000D03*
X103870000Y-73910000D03*
D26*
X162590000Y-83830000D03*
X162590000Y-111770000D03*
X110490000Y-116850000D03*
X111790000Y-68590000D03*
D23*
X132160000Y-88820000D03*
X129620000Y-88820000D03*
X132160000Y-86280000D03*
X129620000Y-86280000D03*
X132160000Y-83740000D03*
D24*
X129620000Y-83740000D03*
X134700000Y-83740000D03*
D23*
X137240000Y-83740000D03*
X134700000Y-86280000D03*
X137240000Y-86280000D03*
X134700000Y-88820000D03*
X137240000Y-88820000D03*
X142320000Y-88820000D03*
X139780000Y-88820000D03*
X142320000Y-86280000D03*
X139780000Y-86280000D03*
X142320000Y-83740000D03*
D24*
X139780000Y-83740000D03*
X139780000Y-76120000D03*
D23*
X142320000Y-76120000D03*
X139780000Y-78660000D03*
X142320000Y-78660000D03*
X139780000Y-81200000D03*
X142320000Y-81200000D03*
X137240000Y-81200000D03*
X134700000Y-81200000D03*
X137240000Y-78660000D03*
X134700000Y-78660000D03*
X137240000Y-76120000D03*
D24*
X134700000Y-76120000D03*
X129620000Y-76120000D03*
D23*
X132160000Y-76120000D03*
X129620000Y-78660000D03*
X132160000Y-78660000D03*
X129620000Y-81200000D03*
X132160000Y-81200000D03*
D11*
X157440000Y-108690000D03*
X157440000Y-110190000D03*
X159440000Y-108690000D03*
X159440000Y-110190000D03*
D27*
X115020000Y-105470000D03*
D28*
X115020000Y-107470000D03*
X115020000Y-109470000D03*
X115020000Y-111470000D03*
D27*
X115020000Y-92250000D03*
D28*
X115020000Y-94250000D03*
X115020000Y-96250000D03*
X115020000Y-98250000D03*
D27*
X115020000Y-79020000D03*
D28*
X115020000Y-81020000D03*
X115020000Y-83020000D03*
X115020000Y-85020000D03*
D23*
X157010000Y-124190000D03*
D22*
X157010000Y-121650000D03*
D23*
X154470000Y-124190000D03*
X154470000Y-121650000D03*
X151930000Y-124190000D03*
X151930000Y-121650000D03*
X149390000Y-124190000D03*
X149390000Y-121650000D03*
X146850000Y-124190000D03*
X146850000Y-121650000D03*
X144310000Y-124190000D03*
X144310000Y-121650000D03*
X141770000Y-124190000D03*
X141770000Y-121650000D03*
X139230000Y-124190000D03*
X139230000Y-121650000D03*
X136690000Y-124190000D03*
X136690000Y-121650000D03*
X134150000Y-124190000D03*
X134150000Y-121650000D03*
X131610000Y-124190000D03*
X131610000Y-121650000D03*
X129070000Y-124190000D03*
X129070000Y-121650000D03*
X126530000Y-124190000D03*
X126530000Y-121650000D03*
X123990000Y-124190000D03*
X123990000Y-121650000D03*
X121450000Y-124190000D03*
X121450000Y-121650000D03*
X118910000Y-124190000D03*
X118910000Y-121650000D03*
X116370000Y-124190000D03*
X116370000Y-121650000D03*
X113830000Y-124190000D03*
X113830000Y-121650000D03*
X111290000Y-124190000D03*
X111290000Y-121650000D03*
X108750000Y-124190000D03*
X108750000Y-121650000D03*
M02*
