G04 #@! TF.GenerationSoftware,KiCad,Pcbnew,5.0.1-33cea8e~68~ubuntu16.04.1*
G04 #@! TF.CreationDate,2018-11-26T08:07:25+01:00*
G04 #@! TF.ProjectId,wize-shield,77697A652D736869656C642E6B696361,RevA*
G04 #@! TF.SameCoordinates,Original*
G04 #@! TF.FileFunction,Other,Fab,Top*
%FSLAX46Y46*%
G04 Gerber Fmt 4.6, Leading zero omitted, Abs format (unit mm)*
G04 Created by KiCad (PCBNEW 5.0.1-33cea8e~68~ubuntu16.04.1) date Mon 26 Nov 2018 08:07:25 AM CET*
%MOMM*%
%LPD*%
G01*
G04 APERTURE LIST*
%ADD10C,0.100000*%
%ADD11C,0.050000*%
%ADD12C,0.150000*%
G04 APERTURE END LIST*
D10*
G04 #@! TO.C,J13*
X117055000Y-117930000D02*
X116420000Y-117295000D01*
X121500000Y-117930000D02*
X117055000Y-117930000D01*
X121500000Y-115390000D02*
X121500000Y-117930000D01*
X116420000Y-115390000D02*
X121500000Y-115390000D01*
X116420000Y-117295000D02*
X116420000Y-115390000D01*
D11*
G04 #@! TO.C,U2*
X119693000Y-92928400D02*
X122004400Y-92928400D01*
X122004400Y-92928400D02*
X145397800Y-92928400D01*
X145397800Y-92928400D02*
X145397800Y-105857000D01*
X145397800Y-105857000D02*
X119667600Y-105857000D01*
X119667600Y-105857000D02*
X119667600Y-92928400D01*
G04 #@! TO.C,R7*
X147032600Y-102884600D02*
X148607400Y-102884600D01*
X147032600Y-105450000D02*
X147032600Y-102884600D01*
X148607400Y-105450000D02*
X147032600Y-105450000D01*
X148607400Y-102884600D02*
X148607400Y-105450000D01*
D10*
G04 #@! TO.C,J6*
X115285000Y-90010000D02*
X117190000Y-90010000D01*
X117190000Y-90010000D02*
X117190000Y-97630000D01*
X117190000Y-97630000D02*
X114650000Y-97630000D01*
X114650000Y-97630000D02*
X114650000Y-90645000D01*
X114650000Y-90645000D02*
X115285000Y-90010000D01*
G04 #@! TO.C,J17*
X156105000Y-75645000D02*
X156105000Y-77550000D01*
X156105000Y-77550000D02*
X138325000Y-77550000D01*
X138325000Y-77550000D02*
X138325000Y-75010000D01*
X138325000Y-75010000D02*
X155470000Y-75010000D01*
X155470000Y-75010000D02*
X156105000Y-75645000D01*
D11*
G04 #@! TO.C,R10*
X151207400Y-102884600D02*
X151207400Y-105450000D01*
X151207400Y-105450000D02*
X149632600Y-105450000D01*
X149632600Y-105450000D02*
X149632600Y-102884600D01*
X149632600Y-102884600D02*
X151207400Y-102884600D01*
D10*
G04 #@! TO.C,J14*
X156105000Y-78345000D02*
X156105000Y-80250000D01*
X156105000Y-80250000D02*
X138325000Y-80250000D01*
X138325000Y-80250000D02*
X138325000Y-77710000D01*
X138325000Y-77710000D02*
X155470000Y-77710000D01*
X155470000Y-77710000D02*
X156105000Y-78345000D01*
G04 #@! TO.C,J19*
X114650000Y-103845000D02*
X115285000Y-103210000D01*
X114650000Y-110830000D02*
X114650000Y-103845000D01*
X117190000Y-110830000D02*
X114650000Y-110830000D01*
X117190000Y-103210000D02*
X117190000Y-110830000D01*
X115285000Y-103210000D02*
X117190000Y-103210000D01*
G04 #@! TO.C,J20*
X115285000Y-76810000D02*
X117190000Y-76810000D01*
X117190000Y-76810000D02*
X117190000Y-84430000D01*
X117190000Y-84430000D02*
X114650000Y-84430000D01*
X114650000Y-84430000D02*
X114650000Y-77445000D01*
X114650000Y-77445000D02*
X115285000Y-76810000D01*
G04 #@! TO.C,J18*
X155470000Y-72310000D02*
X156105000Y-72945000D01*
X138325000Y-72310000D02*
X155470000Y-72310000D01*
X138325000Y-74850000D02*
X138325000Y-72310000D01*
X156105000Y-74850000D02*
X138325000Y-74850000D01*
X156105000Y-72945000D02*
X156105000Y-74850000D01*
D11*
G04 #@! TO.C,R8*
X150415400Y-102667400D02*
X147850000Y-102667400D01*
X147850000Y-102667400D02*
X147850000Y-101092600D01*
X147850000Y-101092600D02*
X150415400Y-101092600D01*
X150415400Y-101092600D02*
X150415400Y-102667400D01*
D10*
G04 #@! TO.C,U1*
X136920000Y-108880000D02*
X137570000Y-109530000D01*
X137570000Y-110680000D02*
X137570000Y-109530000D01*
X136920000Y-108880000D02*
X134470000Y-108880000D01*
X134470000Y-110680000D02*
X134470000Y-108880000D01*
X137570000Y-110680000D02*
X134470000Y-110680000D01*
G04 #@! TO.C,U4*
X153630000Y-94470000D02*
X152980000Y-95120000D01*
X151830000Y-95120000D02*
X152980000Y-95120000D01*
X153630000Y-94470000D02*
X153630000Y-92020000D01*
X151830000Y-92020000D02*
X153630000Y-92020000D01*
X151830000Y-95120000D02*
X151830000Y-92020000D01*
G04 #@! TO.C,J12*
X160190000Y-87690000D02*
X164000000Y-87690000D01*
X164000000Y-87690000D02*
X164000000Y-95310000D01*
X164000000Y-95310000D02*
X158920000Y-95310000D01*
X158920000Y-95310000D02*
X158920000Y-88960000D01*
X158920000Y-88960000D02*
X160190000Y-87690000D01*
G04 #@! TO.C,J5*
X162800000Y-98900000D02*
X163820000Y-98900000D01*
X163940000Y-98780000D02*
X163940000Y-105120000D01*
X157600000Y-105120000D02*
X163940000Y-105120000D01*
X157600000Y-98780000D02*
X157600000Y-105120000D01*
X157600000Y-98780000D02*
X163940000Y-98780000D01*
X158740000Y-98900000D02*
X158740000Y-99920000D01*
X157720000Y-99920000D02*
X158740000Y-99920000D01*
X158740000Y-103980000D02*
X158740000Y-105000000D01*
X157720000Y-103980000D02*
X158740000Y-103980000D01*
X162800000Y-98900000D02*
X162800000Y-99920000D01*
X162800000Y-99920000D02*
X163820000Y-99920000D01*
X163820000Y-103980000D02*
X162800000Y-103980000D01*
X162800000Y-103980000D02*
X162800000Y-105000000D01*
X163820000Y-98900000D02*
X163820000Y-99920000D01*
X157720000Y-98900000D02*
X157720000Y-99920000D01*
X157720000Y-98900000D02*
X158740000Y-98900000D01*
X157720000Y-105000000D02*
X158740000Y-105000000D01*
X157720000Y-105000000D02*
X157720000Y-103980000D01*
X163820000Y-103980000D02*
X163820000Y-105000000D01*
X162800000Y-105000000D02*
X163820000Y-105000000D01*
X162810000Y-101950000D02*
G75*
G03X162810000Y-101950000I-2040000J0D01*
G01*
X161405000Y-101950000D02*
G75*
G03X161405000Y-101950000I-635000J0D01*
G01*
D11*
G04 #@! TO.C,U3*
X152280200Y-85032200D02*
X152280200Y-87953200D01*
X152280200Y-87953200D02*
X154159800Y-87953200D01*
X154159800Y-87953200D02*
X154159800Y-85032200D01*
X154159800Y-85032200D02*
X152280200Y-85032200D01*
D10*
G04 #@! TO.C,J9*
X108640000Y-86580000D02*
X108640000Y-85780000D01*
X108640000Y-85780000D02*
X107040000Y-85780000D01*
X107040000Y-85780000D02*
X107040000Y-75480000D01*
X107040000Y-75480000D02*
X108640000Y-75480000D01*
X108640000Y-75480000D02*
X108640000Y-74680000D01*
X101040000Y-86580000D02*
X101040000Y-74680000D01*
X108640000Y-86580000D02*
X101040000Y-86580000D01*
X108640000Y-74680000D02*
X101040000Y-74680000D01*
X107040000Y-84130000D02*
X106332893Y-83630000D01*
X106332893Y-83630000D02*
X107040000Y-83130000D01*
G04 #@! TO.C,J8*
X108640000Y-99810000D02*
X108640000Y-99010000D01*
X108640000Y-99010000D02*
X107040000Y-99010000D01*
X107040000Y-99010000D02*
X107040000Y-88710000D01*
X107040000Y-88710000D02*
X108640000Y-88710000D01*
X108640000Y-88710000D02*
X108640000Y-87910000D01*
X101040000Y-99810000D02*
X101040000Y-87910000D01*
X108640000Y-99810000D02*
X101040000Y-99810000D01*
X108640000Y-87910000D02*
X101040000Y-87910000D01*
X107040000Y-97360000D02*
X106332893Y-96860000D01*
X106332893Y-96860000D02*
X107040000Y-96360000D01*
G04 #@! TO.C,J7*
X108640000Y-113030000D02*
X108640000Y-112230000D01*
X108640000Y-112230000D02*
X107040000Y-112230000D01*
X107040000Y-112230000D02*
X107040000Y-101930000D01*
X107040000Y-101930000D02*
X108640000Y-101930000D01*
X108640000Y-101930000D02*
X108640000Y-101130000D01*
X101040000Y-113030000D02*
X101040000Y-101130000D01*
X108640000Y-113030000D02*
X101040000Y-113030000D01*
X108640000Y-101130000D02*
X101040000Y-101130000D01*
X107040000Y-110580000D02*
X106332893Y-110080000D01*
X106332893Y-110080000D02*
X107040000Y-109580000D01*
D11*
G04 #@! TO.C,R6*
X120832600Y-111575400D02*
X120832600Y-109010000D01*
X120832600Y-109010000D02*
X122407400Y-109010000D01*
X122407400Y-109010000D02*
X122407400Y-111575400D01*
X122407400Y-111575400D02*
X120832600Y-111575400D01*
G04 #@! TO.C,L1*
X148677400Y-92664600D02*
X148677400Y-95230000D01*
X148677400Y-95230000D02*
X147102600Y-95230000D01*
X147102600Y-95230000D02*
X147102600Y-92664600D01*
X147102600Y-92664600D02*
X148677400Y-92664600D01*
G04 #@! TO.C,R1*
X138932600Y-111675400D02*
X138932600Y-109110000D01*
X138932600Y-109110000D02*
X140507400Y-109110000D01*
X140507400Y-109110000D02*
X140507400Y-111675400D01*
X140507400Y-111675400D02*
X138932600Y-111675400D01*
G04 #@! TO.C,R2*
X119117400Y-79164600D02*
X119117400Y-81730000D01*
X119117400Y-81730000D02*
X117542600Y-81730000D01*
X117542600Y-81730000D02*
X117542600Y-79164600D01*
X117542600Y-79164600D02*
X119117400Y-79164600D01*
G04 #@! TO.C,R3*
X120807400Y-79154600D02*
X120807400Y-81720000D01*
X120807400Y-81720000D02*
X119232600Y-81720000D01*
X119232600Y-81720000D02*
X119232600Y-79154600D01*
X119232600Y-79154600D02*
X120807400Y-79154600D01*
G04 #@! TO.C,R4*
X150487400Y-92664600D02*
X150487400Y-95230000D01*
X150487400Y-95230000D02*
X148912600Y-95230000D01*
X148912600Y-95230000D02*
X148912600Y-92664600D01*
X148912600Y-92664600D02*
X150487400Y-92664600D01*
G04 #@! TO.C,R5*
X118932600Y-111575400D02*
X118932600Y-109010000D01*
X118932600Y-109010000D02*
X120507400Y-109010000D01*
X120507400Y-109010000D02*
X120507400Y-111575400D01*
X120507400Y-111575400D02*
X118932600Y-111575400D01*
G04 #@! TO.C,R9*
X156335400Y-102737400D02*
X153770000Y-102737400D01*
X153770000Y-102737400D02*
X153770000Y-101162600D01*
X153770000Y-101162600D02*
X156335400Y-101162600D01*
X156335400Y-101162600D02*
X156335400Y-102737400D01*
G04 #@! TO.C,J4*
X155462400Y-104481200D02*
X155462400Y-104913000D01*
X155462400Y-104913000D02*
X155462400Y-104963800D01*
X155462400Y-104963800D02*
X152541400Y-104963800D01*
X152541400Y-104963800D02*
X152541400Y-104481200D01*
X152541400Y-102601600D02*
X152541400Y-104481200D01*
X152541400Y-102601600D02*
X155462400Y-102601600D01*
X155462400Y-104481200D02*
X155462400Y-102601600D01*
G04 #@! TD*
G04 #@! TO.C,J13*
D12*
X118393333Y-116276666D02*
X118393333Y-116776666D01*
X118360000Y-116876666D01*
X118293333Y-116943333D01*
X118193333Y-116976666D01*
X118126666Y-116976666D01*
X119093333Y-116976666D02*
X118693333Y-116976666D01*
X118893333Y-116976666D02*
X118893333Y-116276666D01*
X118826666Y-116376666D01*
X118760000Y-116443333D01*
X118693333Y-116476666D01*
X119326666Y-116276666D02*
X119760000Y-116276666D01*
X119526666Y-116543333D01*
X119626666Y-116543333D01*
X119693333Y-116576666D01*
X119726666Y-116610000D01*
X119760000Y-116676666D01*
X119760000Y-116843333D01*
X119726666Y-116910000D01*
X119693333Y-116943333D01*
X119626666Y-116976666D01*
X119426666Y-116976666D01*
X119360000Y-116943333D01*
X119326666Y-116910000D01*
G04 #@! TO.C,U2*
X131986666Y-98996666D02*
X131986666Y-99563333D01*
X132020000Y-99630000D01*
X132053333Y-99663333D01*
X132120000Y-99696666D01*
X132253333Y-99696666D01*
X132320000Y-99663333D01*
X132353333Y-99630000D01*
X132386666Y-99563333D01*
X132386666Y-98996666D01*
X132686666Y-99063333D02*
X132720000Y-99030000D01*
X132786666Y-98996666D01*
X132953333Y-98996666D01*
X133020000Y-99030000D01*
X133053333Y-99063333D01*
X133086666Y-99130000D01*
X133086666Y-99196666D01*
X133053333Y-99296666D01*
X132653333Y-99696666D01*
X133086666Y-99696666D01*
G04 #@! TO.C,R7*
X148085866Y-104271266D02*
X147752533Y-104504600D01*
X148085866Y-104671266D02*
X147385866Y-104671266D01*
X147385866Y-104404600D01*
X147419200Y-104337933D01*
X147452533Y-104304600D01*
X147519200Y-104271266D01*
X147619200Y-104271266D01*
X147685866Y-104304600D01*
X147719200Y-104337933D01*
X147752533Y-104404600D01*
X147752533Y-104671266D01*
X147385866Y-104037933D02*
X147385866Y-103571266D01*
X148085866Y-103871266D01*
G04 #@! TO.C,J6*
X112181904Y-99047142D02*
X112134285Y-99094761D01*
X111991428Y-99142380D01*
X111896190Y-99142380D01*
X111753333Y-99094761D01*
X111658095Y-98999523D01*
X111610476Y-98904285D01*
X111562857Y-98713809D01*
X111562857Y-98570952D01*
X111610476Y-98380476D01*
X111658095Y-98285238D01*
X111753333Y-98190000D01*
X111896190Y-98142380D01*
X111991428Y-98142380D01*
X112134285Y-98190000D01*
X112181904Y-98237619D01*
X112753333Y-99142380D02*
X112658095Y-99094761D01*
X112610476Y-99047142D01*
X112562857Y-98951904D01*
X112562857Y-98666190D01*
X112610476Y-98570952D01*
X112658095Y-98523333D01*
X112753333Y-98475714D01*
X112896190Y-98475714D01*
X112991428Y-98523333D01*
X113039047Y-98570952D01*
X113086666Y-98666190D01*
X113086666Y-98951904D01*
X113039047Y-99047142D01*
X112991428Y-99094761D01*
X112896190Y-99142380D01*
X112753333Y-99142380D01*
X113515238Y-98475714D02*
X113515238Y-99142380D01*
X113515238Y-98570952D02*
X113562857Y-98523333D01*
X113658095Y-98475714D01*
X113800952Y-98475714D01*
X113896190Y-98523333D01*
X113943809Y-98618571D01*
X113943809Y-99142380D01*
X114420000Y-98475714D02*
X114420000Y-99142380D01*
X114420000Y-98570952D02*
X114467619Y-98523333D01*
X114562857Y-98475714D01*
X114705714Y-98475714D01*
X114800952Y-98523333D01*
X114848571Y-98618571D01*
X114848571Y-99142380D01*
X115086666Y-99237619D02*
X115848571Y-99237619D01*
X116277142Y-98142380D02*
X116372380Y-98142380D01*
X116467619Y-98190000D01*
X116515238Y-98237619D01*
X116562857Y-98332857D01*
X116610476Y-98523333D01*
X116610476Y-98761428D01*
X116562857Y-98951904D01*
X116515238Y-99047142D01*
X116467619Y-99094761D01*
X116372380Y-99142380D01*
X116277142Y-99142380D01*
X116181904Y-99094761D01*
X116134285Y-99047142D01*
X116086666Y-98951904D01*
X116039047Y-98761428D01*
X116039047Y-98523333D01*
X116086666Y-98332857D01*
X116134285Y-98237619D01*
X116181904Y-98190000D01*
X116277142Y-98142380D01*
X117562857Y-99142380D02*
X116991428Y-99142380D01*
X117277142Y-99142380D02*
X117277142Y-98142380D01*
X117181904Y-98285238D01*
X117086666Y-98380476D01*
X116991428Y-98428095D01*
X117896190Y-99142380D02*
X118420000Y-98475714D01*
X117896190Y-98475714D02*
X118420000Y-99142380D01*
X118991428Y-98142380D02*
X119086666Y-98142380D01*
X119181904Y-98190000D01*
X119229523Y-98237619D01*
X119277142Y-98332857D01*
X119324761Y-98523333D01*
X119324761Y-98761428D01*
X119277142Y-98951904D01*
X119229523Y-99047142D01*
X119181904Y-99094761D01*
X119086666Y-99142380D01*
X118991428Y-99142380D01*
X118896190Y-99094761D01*
X118848571Y-99047142D01*
X118800952Y-98951904D01*
X118753333Y-98761428D01*
X118753333Y-98523333D01*
X118800952Y-98332857D01*
X118848571Y-98237619D01*
X118896190Y-98190000D01*
X118991428Y-98142380D01*
X119658095Y-98142380D02*
X120277142Y-98142380D01*
X119943809Y-98523333D01*
X120086666Y-98523333D01*
X120181904Y-98570952D01*
X120229523Y-98618571D01*
X120277142Y-98713809D01*
X120277142Y-98951904D01*
X120229523Y-99047142D01*
X120181904Y-99094761D01*
X120086666Y-99142380D01*
X119800952Y-99142380D01*
X119705714Y-99094761D01*
X119658095Y-99047142D01*
X115397780Y-94178733D02*
X116112066Y-94178733D01*
X116254923Y-94226352D01*
X116350161Y-94321590D01*
X116397780Y-94464447D01*
X116397780Y-94559685D01*
X115397780Y-93273971D02*
X115397780Y-93464447D01*
X115445400Y-93559685D01*
X115493019Y-93607304D01*
X115635876Y-93702542D01*
X115826352Y-93750161D01*
X116207304Y-93750161D01*
X116302542Y-93702542D01*
X116350161Y-93654923D01*
X116397780Y-93559685D01*
X116397780Y-93369209D01*
X116350161Y-93273971D01*
X116302542Y-93226352D01*
X116207304Y-93178733D01*
X115969209Y-93178733D01*
X115873971Y-93226352D01*
X115826352Y-93273971D01*
X115778733Y-93369209D01*
X115778733Y-93559685D01*
X115826352Y-93654923D01*
X115873971Y-93702542D01*
X115969209Y-93750161D01*
G04 #@! TO.C,J17*
X137622142Y-80018095D02*
X137669761Y-80065714D01*
X137717380Y-80208571D01*
X137717380Y-80303809D01*
X137669761Y-80446666D01*
X137574523Y-80541904D01*
X137479285Y-80589523D01*
X137288809Y-80637142D01*
X137145952Y-80637142D01*
X136955476Y-80589523D01*
X136860238Y-80541904D01*
X136765000Y-80446666D01*
X136717380Y-80303809D01*
X136717380Y-80208571D01*
X136765000Y-80065714D01*
X136812619Y-80018095D01*
X137717380Y-79446666D02*
X137669761Y-79541904D01*
X137622142Y-79589523D01*
X137526904Y-79637142D01*
X137241190Y-79637142D01*
X137145952Y-79589523D01*
X137098333Y-79541904D01*
X137050714Y-79446666D01*
X137050714Y-79303809D01*
X137098333Y-79208571D01*
X137145952Y-79160952D01*
X137241190Y-79113333D01*
X137526904Y-79113333D01*
X137622142Y-79160952D01*
X137669761Y-79208571D01*
X137717380Y-79303809D01*
X137717380Y-79446666D01*
X137050714Y-78684761D02*
X137717380Y-78684761D01*
X137145952Y-78684761D02*
X137098333Y-78637142D01*
X137050714Y-78541904D01*
X137050714Y-78399047D01*
X137098333Y-78303809D01*
X137193571Y-78256190D01*
X137717380Y-78256190D01*
X137050714Y-77780000D02*
X137717380Y-77780000D01*
X137145952Y-77780000D02*
X137098333Y-77732380D01*
X137050714Y-77637142D01*
X137050714Y-77494285D01*
X137098333Y-77399047D01*
X137193571Y-77351428D01*
X137717380Y-77351428D01*
X137812619Y-77113333D02*
X137812619Y-76351428D01*
X136717380Y-75922857D02*
X136717380Y-75827619D01*
X136765000Y-75732380D01*
X136812619Y-75684761D01*
X136907857Y-75637142D01*
X137098333Y-75589523D01*
X137336428Y-75589523D01*
X137526904Y-75637142D01*
X137622142Y-75684761D01*
X137669761Y-75732380D01*
X137717380Y-75827619D01*
X137717380Y-75922857D01*
X137669761Y-76018095D01*
X137622142Y-76065714D01*
X137526904Y-76113333D01*
X137336428Y-76160952D01*
X137098333Y-76160952D01*
X136907857Y-76113333D01*
X136812619Y-76065714D01*
X136765000Y-76018095D01*
X136717380Y-75922857D01*
X137717380Y-74637142D02*
X137717380Y-75208571D01*
X137717380Y-74922857D02*
X136717380Y-74922857D01*
X136860238Y-75018095D01*
X136955476Y-75113333D01*
X137003095Y-75208571D01*
X137717380Y-74303809D02*
X137050714Y-73780000D01*
X137050714Y-74303809D02*
X137717380Y-73780000D01*
X136717380Y-73208571D02*
X136717380Y-73113333D01*
X136765000Y-73018095D01*
X136812619Y-72970476D01*
X136907857Y-72922857D01*
X137098333Y-72875238D01*
X137336428Y-72875238D01*
X137526904Y-72922857D01*
X137622142Y-72970476D01*
X137669761Y-73018095D01*
X137717380Y-73113333D01*
X137717380Y-73208571D01*
X137669761Y-73303809D01*
X137622142Y-73351428D01*
X137526904Y-73399047D01*
X137336428Y-73446666D01*
X137098333Y-73446666D01*
X136907857Y-73399047D01*
X136812619Y-73351428D01*
X136765000Y-73303809D01*
X136717380Y-73208571D01*
X136717380Y-72541904D02*
X136717380Y-71875238D01*
X137717380Y-72303809D01*
X146405476Y-75732380D02*
X146405476Y-76446666D01*
X146357857Y-76589523D01*
X146262619Y-76684761D01*
X146119761Y-76732380D01*
X146024523Y-76732380D01*
X147405476Y-76732380D02*
X146834047Y-76732380D01*
X147119761Y-76732380D02*
X147119761Y-75732380D01*
X147024523Y-75875238D01*
X146929285Y-75970476D01*
X146834047Y-76018095D01*
X147738809Y-75732380D02*
X148405476Y-75732380D01*
X147976904Y-76732380D01*
G04 #@! TO.C,R10*
X150685866Y-104604600D02*
X150352533Y-104837933D01*
X150685866Y-105004600D02*
X149985866Y-105004600D01*
X149985866Y-104737933D01*
X150019200Y-104671266D01*
X150052533Y-104637933D01*
X150119200Y-104604600D01*
X150219200Y-104604600D01*
X150285866Y-104637933D01*
X150319200Y-104671266D01*
X150352533Y-104737933D01*
X150352533Y-105004600D01*
X150685866Y-103937933D02*
X150685866Y-104337933D01*
X150685866Y-104137933D02*
X149985866Y-104137933D01*
X150085866Y-104204600D01*
X150152533Y-104271266D01*
X150185866Y-104337933D01*
X149985866Y-103504600D02*
X149985866Y-103437933D01*
X150019200Y-103371266D01*
X150052533Y-103337933D01*
X150119200Y-103304600D01*
X150252533Y-103271266D01*
X150419200Y-103271266D01*
X150552533Y-103304600D01*
X150619200Y-103337933D01*
X150652533Y-103371266D01*
X150685866Y-103437933D01*
X150685866Y-103504600D01*
X150652533Y-103571266D01*
X150619200Y-103604600D01*
X150552533Y-103637933D01*
X150419200Y-103671266D01*
X150252533Y-103671266D01*
X150119200Y-103637933D01*
X150052533Y-103604600D01*
X150019200Y-103571266D01*
X149985866Y-103504600D01*
G04 #@! TO.C,J14*
X137622142Y-82718095D02*
X137669761Y-82765714D01*
X137717380Y-82908571D01*
X137717380Y-83003809D01*
X137669761Y-83146666D01*
X137574523Y-83241904D01*
X137479285Y-83289523D01*
X137288809Y-83337142D01*
X137145952Y-83337142D01*
X136955476Y-83289523D01*
X136860238Y-83241904D01*
X136765000Y-83146666D01*
X136717380Y-83003809D01*
X136717380Y-82908571D01*
X136765000Y-82765714D01*
X136812619Y-82718095D01*
X137717380Y-82146666D02*
X137669761Y-82241904D01*
X137622142Y-82289523D01*
X137526904Y-82337142D01*
X137241190Y-82337142D01*
X137145952Y-82289523D01*
X137098333Y-82241904D01*
X137050714Y-82146666D01*
X137050714Y-82003809D01*
X137098333Y-81908571D01*
X137145952Y-81860952D01*
X137241190Y-81813333D01*
X137526904Y-81813333D01*
X137622142Y-81860952D01*
X137669761Y-81908571D01*
X137717380Y-82003809D01*
X137717380Y-82146666D01*
X137050714Y-81384761D02*
X137717380Y-81384761D01*
X137145952Y-81384761D02*
X137098333Y-81337142D01*
X137050714Y-81241904D01*
X137050714Y-81099047D01*
X137098333Y-81003809D01*
X137193571Y-80956190D01*
X137717380Y-80956190D01*
X137050714Y-80480000D02*
X137717380Y-80480000D01*
X137145952Y-80480000D02*
X137098333Y-80432380D01*
X137050714Y-80337142D01*
X137050714Y-80194285D01*
X137098333Y-80099047D01*
X137193571Y-80051428D01*
X137717380Y-80051428D01*
X137812619Y-79813333D02*
X137812619Y-79051428D01*
X136717380Y-78622857D02*
X136717380Y-78527619D01*
X136765000Y-78432380D01*
X136812619Y-78384761D01*
X136907857Y-78337142D01*
X137098333Y-78289523D01*
X137336428Y-78289523D01*
X137526904Y-78337142D01*
X137622142Y-78384761D01*
X137669761Y-78432380D01*
X137717380Y-78527619D01*
X137717380Y-78622857D01*
X137669761Y-78718095D01*
X137622142Y-78765714D01*
X137526904Y-78813333D01*
X137336428Y-78860952D01*
X137098333Y-78860952D01*
X136907857Y-78813333D01*
X136812619Y-78765714D01*
X136765000Y-78718095D01*
X136717380Y-78622857D01*
X137717380Y-77337142D02*
X137717380Y-77908571D01*
X137717380Y-77622857D02*
X136717380Y-77622857D01*
X136860238Y-77718095D01*
X136955476Y-77813333D01*
X137003095Y-77908571D01*
X137717380Y-77003809D02*
X137050714Y-76480000D01*
X137050714Y-77003809D02*
X137717380Y-76480000D01*
X136717380Y-75908571D02*
X136717380Y-75813333D01*
X136765000Y-75718095D01*
X136812619Y-75670476D01*
X136907857Y-75622857D01*
X137098333Y-75575238D01*
X137336428Y-75575238D01*
X137526904Y-75622857D01*
X137622142Y-75670476D01*
X137669761Y-75718095D01*
X137717380Y-75813333D01*
X137717380Y-75908571D01*
X137669761Y-76003809D01*
X137622142Y-76051428D01*
X137526904Y-76099047D01*
X137336428Y-76146666D01*
X137098333Y-76146666D01*
X136907857Y-76099047D01*
X136812619Y-76051428D01*
X136765000Y-76003809D01*
X136717380Y-75908571D01*
X136717380Y-75241904D02*
X136717380Y-74575238D01*
X137717380Y-75003809D01*
X146405476Y-78432380D02*
X146405476Y-79146666D01*
X146357857Y-79289523D01*
X146262619Y-79384761D01*
X146119761Y-79432380D01*
X146024523Y-79432380D01*
X147405476Y-79432380D02*
X146834047Y-79432380D01*
X147119761Y-79432380D02*
X147119761Y-78432380D01*
X147024523Y-78575238D01*
X146929285Y-78670476D01*
X146834047Y-78718095D01*
X148262619Y-78765714D02*
X148262619Y-79432380D01*
X148024523Y-78384761D02*
X147786428Y-79099047D01*
X148405476Y-79099047D01*
G04 #@! TO.C,J19*
X112181904Y-112247142D02*
X112134285Y-112294761D01*
X111991428Y-112342380D01*
X111896190Y-112342380D01*
X111753333Y-112294761D01*
X111658095Y-112199523D01*
X111610476Y-112104285D01*
X111562857Y-111913809D01*
X111562857Y-111770952D01*
X111610476Y-111580476D01*
X111658095Y-111485238D01*
X111753333Y-111390000D01*
X111896190Y-111342380D01*
X111991428Y-111342380D01*
X112134285Y-111390000D01*
X112181904Y-111437619D01*
X112753333Y-112342380D02*
X112658095Y-112294761D01*
X112610476Y-112247142D01*
X112562857Y-112151904D01*
X112562857Y-111866190D01*
X112610476Y-111770952D01*
X112658095Y-111723333D01*
X112753333Y-111675714D01*
X112896190Y-111675714D01*
X112991428Y-111723333D01*
X113039047Y-111770952D01*
X113086666Y-111866190D01*
X113086666Y-112151904D01*
X113039047Y-112247142D01*
X112991428Y-112294761D01*
X112896190Y-112342380D01*
X112753333Y-112342380D01*
X113515238Y-111675714D02*
X113515238Y-112342380D01*
X113515238Y-111770952D02*
X113562857Y-111723333D01*
X113658095Y-111675714D01*
X113800952Y-111675714D01*
X113896190Y-111723333D01*
X113943809Y-111818571D01*
X113943809Y-112342380D01*
X114420000Y-111675714D02*
X114420000Y-112342380D01*
X114420000Y-111770952D02*
X114467619Y-111723333D01*
X114562857Y-111675714D01*
X114705714Y-111675714D01*
X114800952Y-111723333D01*
X114848571Y-111818571D01*
X114848571Y-112342380D01*
X115086666Y-112437619D02*
X115848571Y-112437619D01*
X116277142Y-111342380D02*
X116372380Y-111342380D01*
X116467619Y-111390000D01*
X116515238Y-111437619D01*
X116562857Y-111532857D01*
X116610476Y-111723333D01*
X116610476Y-111961428D01*
X116562857Y-112151904D01*
X116515238Y-112247142D01*
X116467619Y-112294761D01*
X116372380Y-112342380D01*
X116277142Y-112342380D01*
X116181904Y-112294761D01*
X116134285Y-112247142D01*
X116086666Y-112151904D01*
X116039047Y-111961428D01*
X116039047Y-111723333D01*
X116086666Y-111532857D01*
X116134285Y-111437619D01*
X116181904Y-111390000D01*
X116277142Y-111342380D01*
X117562857Y-112342380D02*
X116991428Y-112342380D01*
X117277142Y-112342380D02*
X117277142Y-111342380D01*
X117181904Y-111485238D01*
X117086666Y-111580476D01*
X116991428Y-111628095D01*
X117896190Y-112342380D02*
X118420000Y-111675714D01*
X117896190Y-111675714D02*
X118420000Y-112342380D01*
X118991428Y-111342380D02*
X119086666Y-111342380D01*
X119181904Y-111390000D01*
X119229523Y-111437619D01*
X119277142Y-111532857D01*
X119324761Y-111723333D01*
X119324761Y-111961428D01*
X119277142Y-112151904D01*
X119229523Y-112247142D01*
X119181904Y-112294761D01*
X119086666Y-112342380D01*
X118991428Y-112342380D01*
X118896190Y-112294761D01*
X118848571Y-112247142D01*
X118800952Y-112151904D01*
X118753333Y-111961428D01*
X118753333Y-111723333D01*
X118800952Y-111532857D01*
X118848571Y-111437619D01*
X118896190Y-111390000D01*
X118991428Y-111342380D01*
X119658095Y-111342380D02*
X120277142Y-111342380D01*
X119943809Y-111723333D01*
X120086666Y-111723333D01*
X120181904Y-111770952D01*
X120229523Y-111818571D01*
X120277142Y-111913809D01*
X120277142Y-112151904D01*
X120229523Y-112247142D01*
X120181904Y-112294761D01*
X120086666Y-112342380D01*
X119800952Y-112342380D01*
X119705714Y-112294761D01*
X119658095Y-112247142D01*
X115397780Y-107854923D02*
X116112066Y-107854923D01*
X116254923Y-107902542D01*
X116350161Y-107997780D01*
X116397780Y-108140638D01*
X116397780Y-108235876D01*
X116397780Y-106854923D02*
X116397780Y-107426352D01*
X116397780Y-107140638D02*
X115397780Y-107140638D01*
X115540638Y-107235876D01*
X115635876Y-107331114D01*
X115683495Y-107426352D01*
X116397780Y-106378733D02*
X116397780Y-106188257D01*
X116350161Y-106093019D01*
X116302542Y-106045400D01*
X116159685Y-105950161D01*
X115969209Y-105902542D01*
X115588257Y-105902542D01*
X115493019Y-105950161D01*
X115445400Y-105997780D01*
X115397780Y-106093019D01*
X115397780Y-106283495D01*
X115445400Y-106378733D01*
X115493019Y-106426352D01*
X115588257Y-106473971D01*
X115826352Y-106473971D01*
X115921590Y-106426352D01*
X115969209Y-106378733D01*
X116016828Y-106283495D01*
X116016828Y-106093019D01*
X115969209Y-105997780D01*
X115921590Y-105950161D01*
X115826352Y-105902542D01*
G04 #@! TO.C,J20*
X112181904Y-85847142D02*
X112134285Y-85894761D01*
X111991428Y-85942380D01*
X111896190Y-85942380D01*
X111753333Y-85894761D01*
X111658095Y-85799523D01*
X111610476Y-85704285D01*
X111562857Y-85513809D01*
X111562857Y-85370952D01*
X111610476Y-85180476D01*
X111658095Y-85085238D01*
X111753333Y-84990000D01*
X111896190Y-84942380D01*
X111991428Y-84942380D01*
X112134285Y-84990000D01*
X112181904Y-85037619D01*
X112753333Y-85942380D02*
X112658095Y-85894761D01*
X112610476Y-85847142D01*
X112562857Y-85751904D01*
X112562857Y-85466190D01*
X112610476Y-85370952D01*
X112658095Y-85323333D01*
X112753333Y-85275714D01*
X112896190Y-85275714D01*
X112991428Y-85323333D01*
X113039047Y-85370952D01*
X113086666Y-85466190D01*
X113086666Y-85751904D01*
X113039047Y-85847142D01*
X112991428Y-85894761D01*
X112896190Y-85942380D01*
X112753333Y-85942380D01*
X113515238Y-85275714D02*
X113515238Y-85942380D01*
X113515238Y-85370952D02*
X113562857Y-85323333D01*
X113658095Y-85275714D01*
X113800952Y-85275714D01*
X113896190Y-85323333D01*
X113943809Y-85418571D01*
X113943809Y-85942380D01*
X114420000Y-85275714D02*
X114420000Y-85942380D01*
X114420000Y-85370952D02*
X114467619Y-85323333D01*
X114562857Y-85275714D01*
X114705714Y-85275714D01*
X114800952Y-85323333D01*
X114848571Y-85418571D01*
X114848571Y-85942380D01*
X115086666Y-86037619D02*
X115848571Y-86037619D01*
X116277142Y-84942380D02*
X116372380Y-84942380D01*
X116467619Y-84990000D01*
X116515238Y-85037619D01*
X116562857Y-85132857D01*
X116610476Y-85323333D01*
X116610476Y-85561428D01*
X116562857Y-85751904D01*
X116515238Y-85847142D01*
X116467619Y-85894761D01*
X116372380Y-85942380D01*
X116277142Y-85942380D01*
X116181904Y-85894761D01*
X116134285Y-85847142D01*
X116086666Y-85751904D01*
X116039047Y-85561428D01*
X116039047Y-85323333D01*
X116086666Y-85132857D01*
X116134285Y-85037619D01*
X116181904Y-84990000D01*
X116277142Y-84942380D01*
X117562857Y-85942380D02*
X116991428Y-85942380D01*
X117277142Y-85942380D02*
X117277142Y-84942380D01*
X117181904Y-85085238D01*
X117086666Y-85180476D01*
X116991428Y-85228095D01*
X117896190Y-85942380D02*
X118420000Y-85275714D01*
X117896190Y-85275714D02*
X118420000Y-85942380D01*
X118991428Y-84942380D02*
X119086666Y-84942380D01*
X119181904Y-84990000D01*
X119229523Y-85037619D01*
X119277142Y-85132857D01*
X119324761Y-85323333D01*
X119324761Y-85561428D01*
X119277142Y-85751904D01*
X119229523Y-85847142D01*
X119181904Y-85894761D01*
X119086666Y-85942380D01*
X118991428Y-85942380D01*
X118896190Y-85894761D01*
X118848571Y-85847142D01*
X118800952Y-85751904D01*
X118753333Y-85561428D01*
X118753333Y-85323333D01*
X118800952Y-85132857D01*
X118848571Y-85037619D01*
X118896190Y-84990000D01*
X118991428Y-84942380D01*
X119658095Y-84942380D02*
X120277142Y-84942380D01*
X119943809Y-85323333D01*
X120086666Y-85323333D01*
X120181904Y-85370952D01*
X120229523Y-85418571D01*
X120277142Y-85513809D01*
X120277142Y-85751904D01*
X120229523Y-85847142D01*
X120181904Y-85894761D01*
X120086666Y-85942380D01*
X119800952Y-85942380D01*
X119705714Y-85894761D01*
X119658095Y-85847142D01*
X115397780Y-81454923D02*
X116112066Y-81454923D01*
X116254923Y-81502542D01*
X116350161Y-81597780D01*
X116397780Y-81740638D01*
X116397780Y-81835876D01*
X115493019Y-81026352D02*
X115445400Y-80978733D01*
X115397780Y-80883495D01*
X115397780Y-80645400D01*
X115445400Y-80550161D01*
X115493019Y-80502542D01*
X115588257Y-80454923D01*
X115683495Y-80454923D01*
X115826352Y-80502542D01*
X116397780Y-81073971D01*
X116397780Y-80454923D01*
X115397780Y-79835876D02*
X115397780Y-79740638D01*
X115445400Y-79645400D01*
X115493019Y-79597780D01*
X115588257Y-79550161D01*
X115778733Y-79502542D01*
X116016828Y-79502542D01*
X116207304Y-79550161D01*
X116302542Y-79597780D01*
X116350161Y-79645400D01*
X116397780Y-79740638D01*
X116397780Y-79835876D01*
X116350161Y-79931114D01*
X116302542Y-79978733D01*
X116207304Y-80026352D01*
X116016828Y-80073971D01*
X115778733Y-80073971D01*
X115588257Y-80026352D01*
X115493019Y-79978733D01*
X115445400Y-79931114D01*
X115397780Y-79835876D01*
G04 #@! TO.C,J18*
X137622142Y-77318095D02*
X137669761Y-77365714D01*
X137717380Y-77508571D01*
X137717380Y-77603809D01*
X137669761Y-77746666D01*
X137574523Y-77841904D01*
X137479285Y-77889523D01*
X137288809Y-77937142D01*
X137145952Y-77937142D01*
X136955476Y-77889523D01*
X136860238Y-77841904D01*
X136765000Y-77746666D01*
X136717380Y-77603809D01*
X136717380Y-77508571D01*
X136765000Y-77365714D01*
X136812619Y-77318095D01*
X137717380Y-76746666D02*
X137669761Y-76841904D01*
X137622142Y-76889523D01*
X137526904Y-76937142D01*
X137241190Y-76937142D01*
X137145952Y-76889523D01*
X137098333Y-76841904D01*
X137050714Y-76746666D01*
X137050714Y-76603809D01*
X137098333Y-76508571D01*
X137145952Y-76460952D01*
X137241190Y-76413333D01*
X137526904Y-76413333D01*
X137622142Y-76460952D01*
X137669761Y-76508571D01*
X137717380Y-76603809D01*
X137717380Y-76746666D01*
X137050714Y-75984761D02*
X137717380Y-75984761D01*
X137145952Y-75984761D02*
X137098333Y-75937142D01*
X137050714Y-75841904D01*
X137050714Y-75699047D01*
X137098333Y-75603809D01*
X137193571Y-75556190D01*
X137717380Y-75556190D01*
X137050714Y-75080000D02*
X137717380Y-75080000D01*
X137145952Y-75080000D02*
X137098333Y-75032380D01*
X137050714Y-74937142D01*
X137050714Y-74794285D01*
X137098333Y-74699047D01*
X137193571Y-74651428D01*
X137717380Y-74651428D01*
X137812619Y-74413333D02*
X137812619Y-73651428D01*
X136717380Y-73222857D02*
X136717380Y-73127619D01*
X136765000Y-73032380D01*
X136812619Y-72984761D01*
X136907857Y-72937142D01*
X137098333Y-72889523D01*
X137336428Y-72889523D01*
X137526904Y-72937142D01*
X137622142Y-72984761D01*
X137669761Y-73032380D01*
X137717380Y-73127619D01*
X137717380Y-73222857D01*
X137669761Y-73318095D01*
X137622142Y-73365714D01*
X137526904Y-73413333D01*
X137336428Y-73460952D01*
X137098333Y-73460952D01*
X136907857Y-73413333D01*
X136812619Y-73365714D01*
X136765000Y-73318095D01*
X136717380Y-73222857D01*
X137717380Y-71937142D02*
X137717380Y-72508571D01*
X137717380Y-72222857D02*
X136717380Y-72222857D01*
X136860238Y-72318095D01*
X136955476Y-72413333D01*
X137003095Y-72508571D01*
X137717380Y-71603809D02*
X137050714Y-71080000D01*
X137050714Y-71603809D02*
X137717380Y-71080000D01*
X136717380Y-70508571D02*
X136717380Y-70413333D01*
X136765000Y-70318095D01*
X136812619Y-70270476D01*
X136907857Y-70222857D01*
X137098333Y-70175238D01*
X137336428Y-70175238D01*
X137526904Y-70222857D01*
X137622142Y-70270476D01*
X137669761Y-70318095D01*
X137717380Y-70413333D01*
X137717380Y-70508571D01*
X137669761Y-70603809D01*
X137622142Y-70651428D01*
X137526904Y-70699047D01*
X137336428Y-70746666D01*
X137098333Y-70746666D01*
X136907857Y-70699047D01*
X136812619Y-70651428D01*
X136765000Y-70603809D01*
X136717380Y-70508571D01*
X136717380Y-69841904D02*
X136717380Y-69175238D01*
X137717380Y-69603809D01*
X146405476Y-73032380D02*
X146405476Y-73746666D01*
X146357857Y-73889523D01*
X146262619Y-73984761D01*
X146119761Y-74032380D01*
X146024523Y-74032380D01*
X147405476Y-74032380D02*
X146834047Y-74032380D01*
X147119761Y-74032380D02*
X147119761Y-73032380D01*
X147024523Y-73175238D01*
X146929285Y-73270476D01*
X146834047Y-73318095D01*
X147976904Y-73460952D02*
X147881666Y-73413333D01*
X147834047Y-73365714D01*
X147786428Y-73270476D01*
X147786428Y-73222857D01*
X147834047Y-73127619D01*
X147881666Y-73080000D01*
X147976904Y-73032380D01*
X148167380Y-73032380D01*
X148262619Y-73080000D01*
X148310238Y-73127619D01*
X148357857Y-73222857D01*
X148357857Y-73270476D01*
X148310238Y-73365714D01*
X148262619Y-73413333D01*
X148167380Y-73460952D01*
X147976904Y-73460952D01*
X147881666Y-73508571D01*
X147834047Y-73556190D01*
X147786428Y-73651428D01*
X147786428Y-73841904D01*
X147834047Y-73937142D01*
X147881666Y-73984761D01*
X147976904Y-74032380D01*
X148167380Y-74032380D01*
X148262619Y-73984761D01*
X148310238Y-73937142D01*
X148357857Y-73841904D01*
X148357857Y-73651428D01*
X148310238Y-73556190D01*
X148262619Y-73508571D01*
X148167380Y-73460952D01*
G04 #@! TO.C,R8*
X149028733Y-102145866D02*
X148795400Y-101812533D01*
X148628733Y-102145866D02*
X148628733Y-101445866D01*
X148895400Y-101445866D01*
X148962066Y-101479200D01*
X148995400Y-101512533D01*
X149028733Y-101579200D01*
X149028733Y-101679200D01*
X148995400Y-101745866D01*
X148962066Y-101779200D01*
X148895400Y-101812533D01*
X148628733Y-101812533D01*
X149428733Y-101745866D02*
X149362066Y-101712533D01*
X149328733Y-101679200D01*
X149295400Y-101612533D01*
X149295400Y-101579200D01*
X149328733Y-101512533D01*
X149362066Y-101479200D01*
X149428733Y-101445866D01*
X149562066Y-101445866D01*
X149628733Y-101479200D01*
X149662066Y-101512533D01*
X149695400Y-101579200D01*
X149695400Y-101612533D01*
X149662066Y-101679200D01*
X149628733Y-101712533D01*
X149562066Y-101745866D01*
X149428733Y-101745866D01*
X149362066Y-101779200D01*
X149328733Y-101812533D01*
X149295400Y-101879200D01*
X149295400Y-102012533D01*
X149328733Y-102079200D01*
X149362066Y-102112533D01*
X149428733Y-102145866D01*
X149562066Y-102145866D01*
X149628733Y-102112533D01*
X149662066Y-102079200D01*
X149695400Y-102012533D01*
X149695400Y-101879200D01*
X149662066Y-101812533D01*
X149628733Y-101779200D01*
X149562066Y-101745866D01*
G04 #@! TO.C,JP16*
X159084761Y-118596190D02*
X159132380Y-118453333D01*
X159132380Y-118215238D01*
X159084761Y-118120000D01*
X159037142Y-118072380D01*
X158941904Y-118024761D01*
X158846666Y-118024761D01*
X158751428Y-118072380D01*
X158703809Y-118120000D01*
X158656190Y-118215238D01*
X158608571Y-118405714D01*
X158560952Y-118500952D01*
X158513333Y-118548571D01*
X158418095Y-118596190D01*
X158322857Y-118596190D01*
X158227619Y-118548571D01*
X158180000Y-118500952D01*
X158132380Y-118405714D01*
X158132380Y-118167619D01*
X158180000Y-118024761D01*
X159132380Y-117453333D02*
X159084761Y-117548571D01*
X159037142Y-117596190D01*
X158941904Y-117643809D01*
X158656190Y-117643809D01*
X158560952Y-117596190D01*
X158513333Y-117548571D01*
X158465714Y-117453333D01*
X158465714Y-117310476D01*
X158513333Y-117215238D01*
X158560952Y-117167619D01*
X158656190Y-117120000D01*
X158941904Y-117120000D01*
X159037142Y-117167619D01*
X159084761Y-117215238D01*
X159132380Y-117310476D01*
X159132380Y-117453333D01*
X159132380Y-116548571D02*
X159084761Y-116643809D01*
X158989523Y-116691428D01*
X158132380Y-116691428D01*
X159132380Y-115739047D02*
X158132380Y-115739047D01*
X159084761Y-115739047D02*
X159132380Y-115834285D01*
X159132380Y-116024761D01*
X159084761Y-116120000D01*
X159037142Y-116167619D01*
X158941904Y-116215238D01*
X158656190Y-116215238D01*
X158560952Y-116167619D01*
X158513333Y-116120000D01*
X158465714Y-116024761D01*
X158465714Y-115834285D01*
X158513333Y-115739047D01*
X159084761Y-114881904D02*
X159132380Y-114977142D01*
X159132380Y-115167619D01*
X159084761Y-115262857D01*
X158989523Y-115310476D01*
X158608571Y-115310476D01*
X158513333Y-115262857D01*
X158465714Y-115167619D01*
X158465714Y-114977142D01*
X158513333Y-114881904D01*
X158608571Y-114834285D01*
X158703809Y-114834285D01*
X158799047Y-115310476D01*
X159132380Y-114405714D02*
X158465714Y-114405714D01*
X158656190Y-114405714D02*
X158560952Y-114358095D01*
X158513333Y-114310476D01*
X158465714Y-114215238D01*
X158465714Y-114120000D01*
X158132380Y-113500952D02*
X158846666Y-113500952D01*
X158989523Y-113548571D01*
X159084761Y-113643809D01*
X159132380Y-113786666D01*
X159132380Y-113881904D01*
X158465714Y-112596190D02*
X159132380Y-112596190D01*
X158465714Y-113024761D02*
X158989523Y-113024761D01*
X159084761Y-112977142D01*
X159132380Y-112881904D01*
X159132380Y-112739047D01*
X159084761Y-112643809D01*
X159037142Y-112596190D01*
X159132380Y-112120000D02*
X158465714Y-112120000D01*
X158560952Y-112120000D02*
X158513333Y-112072380D01*
X158465714Y-111977142D01*
X158465714Y-111834285D01*
X158513333Y-111739047D01*
X158608571Y-111691428D01*
X159132380Y-111691428D01*
X158608571Y-111691428D02*
X158513333Y-111643809D01*
X158465714Y-111548571D01*
X158465714Y-111405714D01*
X158513333Y-111310476D01*
X158608571Y-111262857D01*
X159132380Y-111262857D01*
X158465714Y-110786666D02*
X159465714Y-110786666D01*
X158513333Y-110786666D02*
X158465714Y-110691428D01*
X158465714Y-110500952D01*
X158513333Y-110405714D01*
X158560952Y-110358095D01*
X158656190Y-110310476D01*
X158941904Y-110310476D01*
X159037142Y-110358095D01*
X159084761Y-110405714D01*
X159132380Y-110500952D01*
X159132380Y-110691428D01*
X159084761Y-110786666D01*
X159084761Y-109500952D02*
X159132380Y-109596190D01*
X159132380Y-109786666D01*
X159084761Y-109881904D01*
X158989523Y-109929523D01*
X158608571Y-109929523D01*
X158513333Y-109881904D01*
X158465714Y-109786666D01*
X158465714Y-109596190D01*
X158513333Y-109500952D01*
X158608571Y-109453333D01*
X158703809Y-109453333D01*
X158799047Y-109929523D01*
X159132380Y-109024761D02*
X158465714Y-109024761D01*
X158656190Y-109024761D02*
X158560952Y-108977142D01*
X158513333Y-108929523D01*
X158465714Y-108834285D01*
X158465714Y-108739047D01*
X159227619Y-108643809D02*
X159227619Y-107881904D01*
X158227619Y-107691428D02*
X158180000Y-107643809D01*
X158132380Y-107548571D01*
X158132380Y-107310476D01*
X158180000Y-107215238D01*
X158227619Y-107167619D01*
X158322857Y-107120000D01*
X158418095Y-107120000D01*
X158560952Y-107167619D01*
X159132380Y-107739047D01*
X159132380Y-107120000D01*
X159227619Y-106929523D02*
X159227619Y-106167619D01*
X158132380Y-105739047D02*
X158132380Y-105548571D01*
X158180000Y-105453333D01*
X158275238Y-105358095D01*
X158465714Y-105310476D01*
X158799047Y-105310476D01*
X158989523Y-105358095D01*
X159084761Y-105453333D01*
X159132380Y-105548571D01*
X159132380Y-105739047D01*
X159084761Y-105834285D01*
X158989523Y-105929523D01*
X158799047Y-105977142D01*
X158465714Y-105977142D01*
X158275238Y-105929523D01*
X158180000Y-105834285D01*
X158132380Y-105739047D01*
X158465714Y-104881904D02*
X159465714Y-104881904D01*
X158513333Y-104881904D02*
X158465714Y-104786666D01*
X158465714Y-104596190D01*
X158513333Y-104500952D01*
X158560952Y-104453333D01*
X158656190Y-104405714D01*
X158941904Y-104405714D01*
X159037142Y-104453333D01*
X159084761Y-104500952D01*
X159132380Y-104596190D01*
X159132380Y-104786666D01*
X159084761Y-104881904D01*
X159084761Y-103596190D02*
X159132380Y-103691428D01*
X159132380Y-103881904D01*
X159084761Y-103977142D01*
X158989523Y-104024761D01*
X158608571Y-104024761D01*
X158513333Y-103977142D01*
X158465714Y-103881904D01*
X158465714Y-103691428D01*
X158513333Y-103596190D01*
X158608571Y-103548571D01*
X158703809Y-103548571D01*
X158799047Y-104024761D01*
X158465714Y-103120000D02*
X159132380Y-103120000D01*
X158560952Y-103120000D02*
X158513333Y-103072380D01*
X158465714Y-102977142D01*
X158465714Y-102834285D01*
X158513333Y-102739047D01*
X158608571Y-102691428D01*
X159132380Y-102691428D01*
G04 #@! TO.C,U1*
X135486666Y-109396666D02*
X135486666Y-109963333D01*
X135520000Y-110030000D01*
X135553333Y-110063333D01*
X135620000Y-110096666D01*
X135753333Y-110096666D01*
X135820000Y-110063333D01*
X135853333Y-110030000D01*
X135886666Y-109963333D01*
X135886666Y-109396666D01*
X136586666Y-110096666D02*
X136186666Y-110096666D01*
X136386666Y-110096666D02*
X136386666Y-109396666D01*
X136320000Y-109496666D01*
X136253333Y-109563333D01*
X136186666Y-109596666D01*
G04 #@! TO.C,U4*
X152346666Y-94103333D02*
X152913333Y-94103333D01*
X152980000Y-94070000D01*
X153013333Y-94036666D01*
X153046666Y-93970000D01*
X153046666Y-93836666D01*
X153013333Y-93770000D01*
X152980000Y-93736666D01*
X152913333Y-93703333D01*
X152346666Y-93703333D01*
X152580000Y-93070000D02*
X153046666Y-93070000D01*
X152313333Y-93236666D02*
X152813333Y-93403333D01*
X152813333Y-92970000D01*
G04 #@! TO.C,J12*
X161076666Y-92066666D02*
X161576666Y-92066666D01*
X161676666Y-92100000D01*
X161743333Y-92166666D01*
X161776666Y-92266666D01*
X161776666Y-92333333D01*
X161776666Y-91366666D02*
X161776666Y-91766666D01*
X161776666Y-91566666D02*
X161076666Y-91566666D01*
X161176666Y-91633333D01*
X161243333Y-91700000D01*
X161276666Y-91766666D01*
X161143333Y-91100000D02*
X161110000Y-91066666D01*
X161076666Y-91000000D01*
X161076666Y-90833333D01*
X161110000Y-90766666D01*
X161143333Y-90733333D01*
X161210000Y-90700000D01*
X161276666Y-90700000D01*
X161376666Y-90733333D01*
X161776666Y-91133333D01*
X161776666Y-90700000D01*
G04 #@! TO.C,J5*
X160536666Y-99016666D02*
X160536666Y-99516666D01*
X160503333Y-99616666D01*
X160436666Y-99683333D01*
X160336666Y-99716666D01*
X160270000Y-99716666D01*
X161203333Y-99016666D02*
X160870000Y-99016666D01*
X160836666Y-99350000D01*
X160870000Y-99316666D01*
X160936666Y-99283333D01*
X161103333Y-99283333D01*
X161170000Y-99316666D01*
X161203333Y-99350000D01*
X161236666Y-99416666D01*
X161236666Y-99583333D01*
X161203333Y-99650000D01*
X161170000Y-99683333D01*
X161103333Y-99716666D01*
X160936666Y-99716666D01*
X160870000Y-99683333D01*
X160836666Y-99650000D01*
G04 #@! TO.C,U3*
X152686666Y-86316666D02*
X152686666Y-86883333D01*
X152720000Y-86950000D01*
X152753333Y-86983333D01*
X152820000Y-87016666D01*
X152953333Y-87016666D01*
X153020000Y-86983333D01*
X153053333Y-86950000D01*
X153086666Y-86883333D01*
X153086666Y-86316666D01*
X153353333Y-86316666D02*
X153786666Y-86316666D01*
X153553333Y-86583333D01*
X153653333Y-86583333D01*
X153720000Y-86616666D01*
X153753333Y-86650000D01*
X153786666Y-86716666D01*
X153786666Y-86883333D01*
X153753333Y-86950000D01*
X153720000Y-86983333D01*
X153653333Y-87016666D01*
X153453333Y-87016666D01*
X153386666Y-86983333D01*
X153353333Y-86950000D01*
G04 #@! TO.C,J9*
X103556666Y-80863333D02*
X104056666Y-80863333D01*
X104156666Y-80896666D01*
X104223333Y-80963333D01*
X104256666Y-81063333D01*
X104256666Y-81130000D01*
X104256666Y-80496666D02*
X104256666Y-80363333D01*
X104223333Y-80296666D01*
X104190000Y-80263333D01*
X104090000Y-80196666D01*
X103956666Y-80163333D01*
X103690000Y-80163333D01*
X103623333Y-80196666D01*
X103590000Y-80230000D01*
X103556666Y-80296666D01*
X103556666Y-80430000D01*
X103590000Y-80496666D01*
X103623333Y-80530000D01*
X103690000Y-80563333D01*
X103856666Y-80563333D01*
X103923333Y-80530000D01*
X103956666Y-80496666D01*
X103990000Y-80430000D01*
X103990000Y-80296666D01*
X103956666Y-80230000D01*
X103923333Y-80196666D01*
X103856666Y-80163333D01*
G04 #@! TO.C,J8*
X103556666Y-94093333D02*
X104056666Y-94093333D01*
X104156666Y-94126666D01*
X104223333Y-94193333D01*
X104256666Y-94293333D01*
X104256666Y-94360000D01*
X103856666Y-93660000D02*
X103823333Y-93726666D01*
X103790000Y-93760000D01*
X103723333Y-93793333D01*
X103690000Y-93793333D01*
X103623333Y-93760000D01*
X103590000Y-93726666D01*
X103556666Y-93660000D01*
X103556666Y-93526666D01*
X103590000Y-93460000D01*
X103623333Y-93426666D01*
X103690000Y-93393333D01*
X103723333Y-93393333D01*
X103790000Y-93426666D01*
X103823333Y-93460000D01*
X103856666Y-93526666D01*
X103856666Y-93660000D01*
X103890000Y-93726666D01*
X103923333Y-93760000D01*
X103990000Y-93793333D01*
X104123333Y-93793333D01*
X104190000Y-93760000D01*
X104223333Y-93726666D01*
X104256666Y-93660000D01*
X104256666Y-93526666D01*
X104223333Y-93460000D01*
X104190000Y-93426666D01*
X104123333Y-93393333D01*
X103990000Y-93393333D01*
X103923333Y-93426666D01*
X103890000Y-93460000D01*
X103856666Y-93526666D01*
G04 #@! TO.C,J7*
X103556666Y-107313333D02*
X104056666Y-107313333D01*
X104156666Y-107346666D01*
X104223333Y-107413333D01*
X104256666Y-107513333D01*
X104256666Y-107580000D01*
X103556666Y-107046666D02*
X103556666Y-106580000D01*
X104256666Y-106880000D01*
G04 #@! TO.C,R6*
X121987466Y-110422066D02*
X121654133Y-110655400D01*
X121987466Y-110822066D02*
X121287466Y-110822066D01*
X121287466Y-110555400D01*
X121320800Y-110488733D01*
X121354133Y-110455400D01*
X121420800Y-110422066D01*
X121520800Y-110422066D01*
X121587466Y-110455400D01*
X121620800Y-110488733D01*
X121654133Y-110555400D01*
X121654133Y-110822066D01*
X121287466Y-109822066D02*
X121287466Y-109955400D01*
X121320800Y-110022066D01*
X121354133Y-110055400D01*
X121454133Y-110122066D01*
X121587466Y-110155400D01*
X121854133Y-110155400D01*
X121920800Y-110122066D01*
X121954133Y-110088733D01*
X121987466Y-110022066D01*
X121987466Y-109888733D01*
X121954133Y-109822066D01*
X121920800Y-109788733D01*
X121854133Y-109755400D01*
X121687466Y-109755400D01*
X121620800Y-109788733D01*
X121587466Y-109822066D01*
X121554133Y-109888733D01*
X121554133Y-110022066D01*
X121587466Y-110088733D01*
X121620800Y-110122066D01*
X121687466Y-110155400D01*
G04 #@! TO.C,L1*
X148155866Y-94051266D02*
X148155866Y-94384600D01*
X147455866Y-94384600D01*
X148155866Y-93451266D02*
X148155866Y-93851266D01*
X148155866Y-93651266D02*
X147455866Y-93651266D01*
X147555866Y-93717933D01*
X147622533Y-93784600D01*
X147655866Y-93851266D01*
G04 #@! TO.C,R1*
X140087466Y-110522066D02*
X139754133Y-110755400D01*
X140087466Y-110922066D02*
X139387466Y-110922066D01*
X139387466Y-110655400D01*
X139420800Y-110588733D01*
X139454133Y-110555400D01*
X139520800Y-110522066D01*
X139620800Y-110522066D01*
X139687466Y-110555400D01*
X139720800Y-110588733D01*
X139754133Y-110655400D01*
X139754133Y-110922066D01*
X140087466Y-109855400D02*
X140087466Y-110255400D01*
X140087466Y-110055400D02*
X139387466Y-110055400D01*
X139487466Y-110122066D01*
X139554133Y-110188733D01*
X139587466Y-110255400D01*
G04 #@! TO.C,R2*
X118595866Y-80551266D02*
X118262533Y-80784600D01*
X118595866Y-80951266D02*
X117895866Y-80951266D01*
X117895866Y-80684600D01*
X117929200Y-80617933D01*
X117962533Y-80584600D01*
X118029200Y-80551266D01*
X118129200Y-80551266D01*
X118195866Y-80584600D01*
X118229200Y-80617933D01*
X118262533Y-80684600D01*
X118262533Y-80951266D01*
X117962533Y-80284600D02*
X117929200Y-80251266D01*
X117895866Y-80184600D01*
X117895866Y-80017933D01*
X117929200Y-79951266D01*
X117962533Y-79917933D01*
X118029200Y-79884600D01*
X118095866Y-79884600D01*
X118195866Y-79917933D01*
X118595866Y-80317933D01*
X118595866Y-79884600D01*
G04 #@! TO.C,R3*
X120285866Y-80541266D02*
X119952533Y-80774600D01*
X120285866Y-80941266D02*
X119585866Y-80941266D01*
X119585866Y-80674600D01*
X119619200Y-80607933D01*
X119652533Y-80574600D01*
X119719200Y-80541266D01*
X119819200Y-80541266D01*
X119885866Y-80574600D01*
X119919200Y-80607933D01*
X119952533Y-80674600D01*
X119952533Y-80941266D01*
X119585866Y-80307933D02*
X119585866Y-79874600D01*
X119852533Y-80107933D01*
X119852533Y-80007933D01*
X119885866Y-79941266D01*
X119919200Y-79907933D01*
X119985866Y-79874600D01*
X120152533Y-79874600D01*
X120219200Y-79907933D01*
X120252533Y-79941266D01*
X120285866Y-80007933D01*
X120285866Y-80207933D01*
X120252533Y-80274600D01*
X120219200Y-80307933D01*
G04 #@! TO.C,R4*
X149965866Y-94051266D02*
X149632533Y-94284600D01*
X149965866Y-94451266D02*
X149265866Y-94451266D01*
X149265866Y-94184600D01*
X149299200Y-94117933D01*
X149332533Y-94084600D01*
X149399200Y-94051266D01*
X149499200Y-94051266D01*
X149565866Y-94084600D01*
X149599200Y-94117933D01*
X149632533Y-94184600D01*
X149632533Y-94451266D01*
X149499200Y-93451266D02*
X149965866Y-93451266D01*
X149232533Y-93617933D02*
X149732533Y-93784600D01*
X149732533Y-93351266D01*
G04 #@! TO.C,R5*
X120087466Y-110422066D02*
X119754133Y-110655400D01*
X120087466Y-110822066D02*
X119387466Y-110822066D01*
X119387466Y-110555400D01*
X119420800Y-110488733D01*
X119454133Y-110455400D01*
X119520800Y-110422066D01*
X119620800Y-110422066D01*
X119687466Y-110455400D01*
X119720800Y-110488733D01*
X119754133Y-110555400D01*
X119754133Y-110822066D01*
X119387466Y-109788733D02*
X119387466Y-110122066D01*
X119720800Y-110155400D01*
X119687466Y-110122066D01*
X119654133Y-110055400D01*
X119654133Y-109888733D01*
X119687466Y-109822066D01*
X119720800Y-109788733D01*
X119787466Y-109755400D01*
X119954133Y-109755400D01*
X120020800Y-109788733D01*
X120054133Y-109822066D01*
X120087466Y-109888733D01*
X120087466Y-110055400D01*
X120054133Y-110122066D01*
X120020800Y-110155400D01*
G04 #@! TO.C,JP15*
X156584761Y-118596190D02*
X156632380Y-118453333D01*
X156632380Y-118215238D01*
X156584761Y-118120000D01*
X156537142Y-118072380D01*
X156441904Y-118024761D01*
X156346666Y-118024761D01*
X156251428Y-118072380D01*
X156203809Y-118120000D01*
X156156190Y-118215238D01*
X156108571Y-118405714D01*
X156060952Y-118500952D01*
X156013333Y-118548571D01*
X155918095Y-118596190D01*
X155822857Y-118596190D01*
X155727619Y-118548571D01*
X155680000Y-118500952D01*
X155632380Y-118405714D01*
X155632380Y-118167619D01*
X155680000Y-118024761D01*
X156632380Y-117453333D02*
X156584761Y-117548571D01*
X156537142Y-117596190D01*
X156441904Y-117643809D01*
X156156190Y-117643809D01*
X156060952Y-117596190D01*
X156013333Y-117548571D01*
X155965714Y-117453333D01*
X155965714Y-117310476D01*
X156013333Y-117215238D01*
X156060952Y-117167619D01*
X156156190Y-117120000D01*
X156441904Y-117120000D01*
X156537142Y-117167619D01*
X156584761Y-117215238D01*
X156632380Y-117310476D01*
X156632380Y-117453333D01*
X156632380Y-116548571D02*
X156584761Y-116643809D01*
X156489523Y-116691428D01*
X155632380Y-116691428D01*
X156632380Y-115739047D02*
X155632380Y-115739047D01*
X156584761Y-115739047D02*
X156632380Y-115834285D01*
X156632380Y-116024761D01*
X156584761Y-116120000D01*
X156537142Y-116167619D01*
X156441904Y-116215238D01*
X156156190Y-116215238D01*
X156060952Y-116167619D01*
X156013333Y-116120000D01*
X155965714Y-116024761D01*
X155965714Y-115834285D01*
X156013333Y-115739047D01*
X156584761Y-114881904D02*
X156632380Y-114977142D01*
X156632380Y-115167619D01*
X156584761Y-115262857D01*
X156489523Y-115310476D01*
X156108571Y-115310476D01*
X156013333Y-115262857D01*
X155965714Y-115167619D01*
X155965714Y-114977142D01*
X156013333Y-114881904D01*
X156108571Y-114834285D01*
X156203809Y-114834285D01*
X156299047Y-115310476D01*
X156632380Y-114405714D02*
X155965714Y-114405714D01*
X156156190Y-114405714D02*
X156060952Y-114358095D01*
X156013333Y-114310476D01*
X155965714Y-114215238D01*
X155965714Y-114120000D01*
X155632380Y-113500952D02*
X156346666Y-113500952D01*
X156489523Y-113548571D01*
X156584761Y-113643809D01*
X156632380Y-113786666D01*
X156632380Y-113881904D01*
X155965714Y-112596190D02*
X156632380Y-112596190D01*
X155965714Y-113024761D02*
X156489523Y-113024761D01*
X156584761Y-112977142D01*
X156632380Y-112881904D01*
X156632380Y-112739047D01*
X156584761Y-112643809D01*
X156537142Y-112596190D01*
X156632380Y-112120000D02*
X155965714Y-112120000D01*
X156060952Y-112120000D02*
X156013333Y-112072380D01*
X155965714Y-111977142D01*
X155965714Y-111834285D01*
X156013333Y-111739047D01*
X156108571Y-111691428D01*
X156632380Y-111691428D01*
X156108571Y-111691428D02*
X156013333Y-111643809D01*
X155965714Y-111548571D01*
X155965714Y-111405714D01*
X156013333Y-111310476D01*
X156108571Y-111262857D01*
X156632380Y-111262857D01*
X155965714Y-110786666D02*
X156965714Y-110786666D01*
X156013333Y-110786666D02*
X155965714Y-110691428D01*
X155965714Y-110500952D01*
X156013333Y-110405714D01*
X156060952Y-110358095D01*
X156156190Y-110310476D01*
X156441904Y-110310476D01*
X156537142Y-110358095D01*
X156584761Y-110405714D01*
X156632380Y-110500952D01*
X156632380Y-110691428D01*
X156584761Y-110786666D01*
X156584761Y-109500952D02*
X156632380Y-109596190D01*
X156632380Y-109786666D01*
X156584761Y-109881904D01*
X156489523Y-109929523D01*
X156108571Y-109929523D01*
X156013333Y-109881904D01*
X155965714Y-109786666D01*
X155965714Y-109596190D01*
X156013333Y-109500952D01*
X156108571Y-109453333D01*
X156203809Y-109453333D01*
X156299047Y-109929523D01*
X156632380Y-109024761D02*
X155965714Y-109024761D01*
X156156190Y-109024761D02*
X156060952Y-108977142D01*
X156013333Y-108929523D01*
X155965714Y-108834285D01*
X155965714Y-108739047D01*
X156727619Y-108643809D02*
X156727619Y-107881904D01*
X155727619Y-107691428D02*
X155680000Y-107643809D01*
X155632380Y-107548571D01*
X155632380Y-107310476D01*
X155680000Y-107215238D01*
X155727619Y-107167619D01*
X155822857Y-107120000D01*
X155918095Y-107120000D01*
X156060952Y-107167619D01*
X156632380Y-107739047D01*
X156632380Y-107120000D01*
X156727619Y-106929523D02*
X156727619Y-106167619D01*
X155632380Y-105739047D02*
X155632380Y-105548571D01*
X155680000Y-105453333D01*
X155775238Y-105358095D01*
X155965714Y-105310476D01*
X156299047Y-105310476D01*
X156489523Y-105358095D01*
X156584761Y-105453333D01*
X156632380Y-105548571D01*
X156632380Y-105739047D01*
X156584761Y-105834285D01*
X156489523Y-105929523D01*
X156299047Y-105977142D01*
X155965714Y-105977142D01*
X155775238Y-105929523D01*
X155680000Y-105834285D01*
X155632380Y-105739047D01*
X155965714Y-104881904D02*
X156965714Y-104881904D01*
X156013333Y-104881904D02*
X155965714Y-104786666D01*
X155965714Y-104596190D01*
X156013333Y-104500952D01*
X156060952Y-104453333D01*
X156156190Y-104405714D01*
X156441904Y-104405714D01*
X156537142Y-104453333D01*
X156584761Y-104500952D01*
X156632380Y-104596190D01*
X156632380Y-104786666D01*
X156584761Y-104881904D01*
X156584761Y-103596190D02*
X156632380Y-103691428D01*
X156632380Y-103881904D01*
X156584761Y-103977142D01*
X156489523Y-104024761D01*
X156108571Y-104024761D01*
X156013333Y-103977142D01*
X155965714Y-103881904D01*
X155965714Y-103691428D01*
X156013333Y-103596190D01*
X156108571Y-103548571D01*
X156203809Y-103548571D01*
X156299047Y-104024761D01*
X155965714Y-103120000D02*
X156632380Y-103120000D01*
X156060952Y-103120000D02*
X156013333Y-103072380D01*
X155965714Y-102977142D01*
X155965714Y-102834285D01*
X156013333Y-102739047D01*
X156108571Y-102691428D01*
X156632380Y-102691428D01*
G04 #@! TO.C,R9*
X154948733Y-102215866D02*
X154715400Y-101882533D01*
X154548733Y-102215866D02*
X154548733Y-101515866D01*
X154815400Y-101515866D01*
X154882066Y-101549200D01*
X154915400Y-101582533D01*
X154948733Y-101649200D01*
X154948733Y-101749200D01*
X154915400Y-101815866D01*
X154882066Y-101849200D01*
X154815400Y-101882533D01*
X154548733Y-101882533D01*
X155282066Y-102215866D02*
X155415400Y-102215866D01*
X155482066Y-102182533D01*
X155515400Y-102149200D01*
X155582066Y-102049200D01*
X155615400Y-101915866D01*
X155615400Y-101649200D01*
X155582066Y-101582533D01*
X155548733Y-101549200D01*
X155482066Y-101515866D01*
X155348733Y-101515866D01*
X155282066Y-101549200D01*
X155248733Y-101582533D01*
X155215400Y-101649200D01*
X155215400Y-101815866D01*
X155248733Y-101882533D01*
X155282066Y-101915866D01*
X155348733Y-101949200D01*
X155482066Y-101949200D01*
X155548733Y-101915866D01*
X155582066Y-101882533D01*
X155615400Y-101815866D01*
G04 #@! TO.C,D2*
X120356666Y-77816666D02*
X119656666Y-77816666D01*
X119656666Y-77650000D01*
X119690000Y-77550000D01*
X119756666Y-77483333D01*
X119823333Y-77450000D01*
X119956666Y-77416666D01*
X120056666Y-77416666D01*
X120190000Y-77450000D01*
X120256666Y-77483333D01*
X120323333Y-77550000D01*
X120356666Y-77650000D01*
X120356666Y-77816666D01*
X119723333Y-77150000D02*
X119690000Y-77116666D01*
X119656666Y-77050000D01*
X119656666Y-76883333D01*
X119690000Y-76816666D01*
X119723333Y-76783333D01*
X119790000Y-76750000D01*
X119856666Y-76750000D01*
X119956666Y-76783333D01*
X120356666Y-77183333D01*
X120356666Y-76750000D01*
G04 #@! TO.C,D1*
X118666666Y-77826666D02*
X117966666Y-77826666D01*
X117966666Y-77660000D01*
X118000000Y-77560000D01*
X118066666Y-77493333D01*
X118133333Y-77460000D01*
X118266666Y-77426666D01*
X118366666Y-77426666D01*
X118500000Y-77460000D01*
X118566666Y-77493333D01*
X118633333Y-77560000D01*
X118666666Y-77660000D01*
X118666666Y-77826666D01*
X118666666Y-76760000D02*
X118666666Y-77160000D01*
X118666666Y-76960000D02*
X117966666Y-76960000D01*
X118066666Y-77026666D01*
X118133333Y-77093333D01*
X118166666Y-77160000D01*
G04 #@! TO.C,J4*
X153705066Y-103767666D02*
X153705066Y-104267666D01*
X153671733Y-104367666D01*
X153605066Y-104434333D01*
X153505066Y-104467666D01*
X153438400Y-104467666D01*
X154338400Y-104001000D02*
X154338400Y-104467666D01*
X154171733Y-103734333D02*
X154005066Y-104234333D01*
X154438400Y-104234333D01*
G04 #@! TD*
M02*
