M48
;DRILL file {KiCad 5.0.1-33cea8e~68~ubuntu16.04.1} date Mon 26 Nov 2018 08:07:30 AM CET
;FORMAT={-:-/ absolute / metric / decimal}
FMAT,2
METRIC,TZ
T1C0.635
T2C0.762
T3C1.000
T4C1.500
T5C1.700
%
G90
G05
M71
T1
X112.22Y-78.68
X112.52Y-75.78
X113.12Y-72.18
X113.72Y-71.18
X118.22Y-75.58
X118.695Y-94.18
X119.02Y-111.73
X119.32Y-104.18
X119.52Y-107.68
X121.12Y-95.78
X121.195Y-105.205
X122.27Y-117.73
X122.52Y-107.68
X123.82Y-107.68
X126.52Y-111.08
X126.72Y-115.18
X126.82Y-107.38
X127.62Y-111.055
X128.02Y-107.38
X131.495Y-94.805
X132.32Y-97.38
X132.37Y-110.855
X132.62Y-98.88
X133.62Y-90.98
X133.72Y-98.88
X133.92Y-92.88
X133.92Y-97.38
X134.045Y-110.88
X134.42Y-94.78
X134.42Y-108.08
X136.02Y-85.48
X136.12Y-82.18
X136.32Y-110.63
X140.195Y-94.73
X140.22Y-67.18
X142.72Y-99.08
X142.845Y-92.105
X142.98Y-96.84
X143.72Y-100.68
X143.72Y-103.08
X145.22Y-94.48
X147.42Y-96.78
X147.42Y-97.68
X147.42Y-98.48
X147.42Y-99.28
X147.42Y-100.08
X147.52Y-105.58
X147.52Y-106.38
X147.52Y-107.18
X147.92Y-107.88
X148.12Y-96.28
X148.72Y-107.88
X148.92Y-96.28
X149.62Y-107.88
X149.72Y-96.28
X150.48Y-107.93
X150.52Y-96.28
X151.33Y-96.26
X151.38Y-107.94
X151.92Y-87.48
X152.24Y-96.25
X152.28Y-107.93
X152.44Y-112.55
X153.13Y-96.25
X153.18Y-107.93
X153.85Y-91.84
X154.02Y-96.26
X154.07Y-107.93
X154.91Y-96.26
X154.96Y-107.93
X155.81Y-96.26
X155.83Y-107.94
X156.7Y-96.25
X156.72Y-107.93
X157.59Y-96.25
X157.62Y-107.93
X158.48Y-96.26
X158.51Y-107.93
X159.36Y-96.26
X159.4Y-107.93
X160.23Y-109.83
X160.26Y-96.26
X160.29Y-107.94
X161.15Y-96.26
X161.18Y-107.93
X161.69Y-79.35
X162.04Y-96.26
X162.08Y-107.93
X162.93Y-96.26
X162.97Y-107.93
X163.82Y-96.26
X163.86Y-107.94
T2
X109.29Y-77.63
X109.29Y-79.63
X109.29Y-81.63
X109.29Y-83.63
X109.29Y-90.86
X109.29Y-92.86
X109.29Y-94.86
X109.29Y-96.86
X109.29Y-104.08
X109.29Y-106.08
X109.29Y-108.08
X109.29Y-110.08
T3
X115.92Y-91.28
X115.92Y-93.82
X115.92Y-96.36
X115.32Y-68.58
X117.86Y-68.58
X120.4Y-68.58
X122.94Y-68.58
X125.48Y-68.58
X128.02Y-68.58
X130.56Y-68.58
X133.1Y-68.58
X135.64Y-68.58
X138.18Y-68.58
X139.595Y-73.58
X142.135Y-73.58
X144.675Y-73.58
X147.215Y-73.58
X149.755Y-73.58
X152.295Y-73.58
X154.835Y-73.58
X142.24Y-68.58
X144.78Y-68.58
X147.32Y-68.58
X149.86Y-68.58
X152.4Y-68.58
X154.94Y-68.58
X157.48Y-68.58
X160.02Y-68.58
X115.92Y-104.48
X115.92Y-107.02
X115.92Y-109.56
X124.46Y-116.84
X127.Y-116.84
X129.54Y-116.84
X132.08Y-116.84
X134.62Y-116.84
X137.16Y-116.84
X139.7Y-116.84
X142.24Y-116.84
X115.92Y-78.08
X115.92Y-80.62
X115.92Y-83.16
X139.595Y-78.98
X142.135Y-78.98
X144.675Y-78.98
X147.215Y-78.98
X149.755Y-78.98
X152.295Y-78.98
X154.835Y-78.98
X139.595Y-76.28
X142.135Y-76.28
X144.675Y-76.28
X147.215Y-76.28
X149.755Y-76.28
X152.295Y-76.28
X154.835Y-76.28
X147.32Y-116.84
X149.86Y-116.84
X152.4Y-116.84
X154.94Y-116.84
X157.48Y-116.84
X160.02Y-116.84
X160.19Y-88.96
X160.19Y-91.5
X160.19Y-94.04
X162.73Y-88.96
X162.73Y-91.5
X162.73Y-94.04
X117.69Y-116.66
X120.23Y-116.66
T4
X160.77Y-101.95
T5
X158.23Y-99.41
X158.23Y-104.49
X163.31Y-99.41
X163.31Y-104.49
T0
M30
