G04 #@! TF.GenerationSoftware,KiCad,Pcbnew,5.0.1-33cea8e~68~ubuntu16.04.1*
G04 #@! TF.CreationDate,2018-11-26T08:07:25+01:00*
G04 #@! TF.ProjectId,wize-shield,77697A652D736869656C642E6B696361,RevA*
G04 #@! TF.SameCoordinates,Original*
G04 #@! TF.FileFunction,Legend,Top*
G04 #@! TF.FilePolarity,Positive*
%FSLAX46Y46*%
G04 Gerber Fmt 4.6, Leading zero omitted, Abs format (unit mm)*
G04 Created by KiCad (PCBNEW 5.0.1-33cea8e~68~ubuntu16.04.1) date Mon 26 Nov 2018 08:07:25 AM CET*
%MOMM*%
%LPD*%
G01*
G04 APERTURE LIST*
%ADD10C,0.200000*%
%ADD11C,0.150000*%
%ADD12C,0.120000*%
%ADD13C,0.050000*%
%ADD14C,0.010000*%
G04 APERTURE END LIST*
D10*
X114591428Y-101851428D02*
X115200952Y-101851428D01*
X114896190Y-102232380D02*
X114896190Y-101470476D01*
X115962857Y-101232380D02*
X115581904Y-101232380D01*
X115543809Y-101708571D01*
X115581904Y-101660952D01*
X115658095Y-101613333D01*
X115848571Y-101613333D01*
X115924761Y-101660952D01*
X115962857Y-101708571D01*
X116000952Y-101803809D01*
X116000952Y-102041904D01*
X115962857Y-102137142D01*
X115924761Y-102184761D01*
X115848571Y-102232380D01*
X115658095Y-102232380D01*
X115581904Y-102184761D01*
X115543809Y-102137142D01*
X116229523Y-101232380D02*
X116496190Y-102232380D01*
X116762857Y-101232380D01*
X114520000Y-86151428D02*
X115129523Y-86151428D01*
X114824761Y-86532380D02*
X114824761Y-85770476D01*
X115434285Y-85532380D02*
X115929523Y-85532380D01*
X115662857Y-85913333D01*
X115777142Y-85913333D01*
X115853333Y-85960952D01*
X115891428Y-86008571D01*
X115929523Y-86103809D01*
X115929523Y-86341904D01*
X115891428Y-86437142D01*
X115853333Y-86484761D01*
X115777142Y-86532380D01*
X115548571Y-86532380D01*
X115472380Y-86484761D01*
X115434285Y-86437142D01*
X116272380Y-86437142D02*
X116310476Y-86484761D01*
X116272380Y-86532380D01*
X116234285Y-86484761D01*
X116272380Y-86437142D01*
X116272380Y-86532380D01*
X116577142Y-85532380D02*
X117072380Y-85532380D01*
X116805714Y-85913333D01*
X116920000Y-85913333D01*
X116996190Y-85960952D01*
X117034285Y-86008571D01*
X117072380Y-86103809D01*
X117072380Y-86341904D01*
X117034285Y-86437142D01*
X116996190Y-86484761D01*
X116920000Y-86532380D01*
X116691428Y-86532380D01*
X116615238Y-86484761D01*
X116577142Y-86437142D01*
X117300952Y-85532380D02*
X117567619Y-86532380D01*
X117834285Y-85532380D01*
X114420000Y-99351428D02*
X115029523Y-99351428D01*
X114724761Y-99732380D02*
X114724761Y-98970476D01*
X115334285Y-98732380D02*
X115829523Y-98732380D01*
X115562857Y-99113333D01*
X115677142Y-99113333D01*
X115753333Y-99160952D01*
X115791428Y-99208571D01*
X115829523Y-99303809D01*
X115829523Y-99541904D01*
X115791428Y-99637142D01*
X115753333Y-99684761D01*
X115677142Y-99732380D01*
X115448571Y-99732380D01*
X115372380Y-99684761D01*
X115334285Y-99637142D01*
X116172380Y-99637142D02*
X116210476Y-99684761D01*
X116172380Y-99732380D01*
X116134285Y-99684761D01*
X116172380Y-99637142D01*
X116172380Y-99732380D01*
X116477142Y-98732380D02*
X116972380Y-98732380D01*
X116705714Y-99113333D01*
X116820000Y-99113333D01*
X116896190Y-99160952D01*
X116934285Y-99208571D01*
X116972380Y-99303809D01*
X116972380Y-99541904D01*
X116934285Y-99637142D01*
X116896190Y-99684761D01*
X116820000Y-99732380D01*
X116591428Y-99732380D01*
X116515238Y-99684761D01*
X116477142Y-99637142D01*
X117200952Y-98732380D02*
X117467619Y-99732380D01*
X117734285Y-98732380D01*
X114591428Y-75451428D02*
X115200952Y-75451428D01*
X114896190Y-75832380D02*
X114896190Y-75070476D01*
X115962857Y-74832380D02*
X115581904Y-74832380D01*
X115543809Y-75308571D01*
X115581904Y-75260952D01*
X115658095Y-75213333D01*
X115848571Y-75213333D01*
X115924761Y-75260952D01*
X115962857Y-75308571D01*
X116000952Y-75403809D01*
X116000952Y-75641904D01*
X115962857Y-75737142D01*
X115924761Y-75784761D01*
X115848571Y-75832380D01*
X115658095Y-75832380D01*
X115581904Y-75784761D01*
X115543809Y-75737142D01*
X116229523Y-74832380D02*
X116496190Y-75832380D01*
X116762857Y-74832380D01*
D11*
X148120000Y-91380000D02*
X158320000Y-91380000D01*
D10*
X114591428Y-88651428D02*
X115200952Y-88651428D01*
X114896190Y-89032380D02*
X114896190Y-88270476D01*
X115962857Y-88032380D02*
X115581904Y-88032380D01*
X115543809Y-88508571D01*
X115581904Y-88460952D01*
X115658095Y-88413333D01*
X115848571Y-88413333D01*
X115924761Y-88460952D01*
X115962857Y-88508571D01*
X116000952Y-88603809D01*
X116000952Y-88841904D01*
X115962857Y-88937142D01*
X115924761Y-88984761D01*
X115848571Y-89032380D01*
X115658095Y-89032380D01*
X115581904Y-88984761D01*
X115543809Y-88937142D01*
X116229523Y-88032380D02*
X116496190Y-89032380D01*
X116762857Y-88032380D01*
D11*
X148120000Y-82280000D02*
X148120000Y-91380000D01*
X158320000Y-82280000D02*
X158320000Y-91380000D01*
X148120000Y-82280000D02*
X158320000Y-82280000D01*
X154840000Y-101020000D02*
X155050000Y-100810000D01*
X154840000Y-101020000D02*
X154630000Y-100810000D01*
X154840000Y-101010000D02*
X154840000Y-97930000D01*
D10*
X151331428Y-97360000D02*
X151760000Y-97360000D01*
X151245714Y-97617142D02*
X151545714Y-96717142D01*
X151845714Y-97617142D01*
X152145714Y-97617142D02*
X152145714Y-96717142D01*
X152660000Y-97617142D01*
X152660000Y-96717142D01*
X152960000Y-96717142D02*
X153474285Y-96717142D01*
X153217142Y-97617142D02*
X153217142Y-96717142D01*
X153774285Y-97145714D02*
X154074285Y-97145714D01*
X154202857Y-97617142D02*
X153774285Y-97617142D01*
X153774285Y-96717142D01*
X154202857Y-96717142D01*
X154588571Y-97617142D02*
X154588571Y-96717142D01*
X155102857Y-97617142D01*
X155102857Y-96717142D01*
X155531428Y-97617142D02*
X155531428Y-96717142D01*
X156045714Y-97617142D01*
X156045714Y-96717142D01*
X156431428Y-97360000D02*
X156860000Y-97360000D01*
X156345714Y-97617142D02*
X156645714Y-96717142D01*
X156945714Y-97617142D01*
X157888571Y-97574285D02*
X158017142Y-97617142D01*
X158231428Y-97617142D01*
X158317142Y-97574285D01*
X158360000Y-97531428D01*
X158402857Y-97445714D01*
X158402857Y-97360000D01*
X158360000Y-97274285D01*
X158317142Y-97231428D01*
X158231428Y-97188571D01*
X158060000Y-97145714D01*
X157974285Y-97102857D01*
X157931428Y-97060000D01*
X157888571Y-96974285D01*
X157888571Y-96888571D01*
X157931428Y-96802857D01*
X157974285Y-96760000D01*
X158060000Y-96717142D01*
X158274285Y-96717142D01*
X158402857Y-96760000D01*
X158788571Y-97145714D02*
X159088571Y-97145714D01*
X159217142Y-97617142D02*
X158788571Y-97617142D01*
X158788571Y-96717142D01*
X159217142Y-96717142D01*
X160031428Y-97617142D02*
X159602857Y-97617142D01*
X159602857Y-96717142D01*
X160331428Y-97145714D02*
X160631428Y-97145714D01*
X160760000Y-97617142D02*
X160331428Y-97617142D01*
X160331428Y-96717142D01*
X160760000Y-96717142D01*
X161660000Y-97531428D02*
X161617142Y-97574285D01*
X161488571Y-97617142D01*
X161402857Y-97617142D01*
X161274285Y-97574285D01*
X161188571Y-97488571D01*
X161145714Y-97402857D01*
X161102857Y-97231428D01*
X161102857Y-97102857D01*
X161145714Y-96931428D01*
X161188571Y-96845714D01*
X161274285Y-96760000D01*
X161402857Y-96717142D01*
X161488571Y-96717142D01*
X161617142Y-96760000D01*
X161660000Y-96802857D01*
X161917142Y-96717142D02*
X162431428Y-96717142D01*
X162174285Y-97617142D02*
X162174285Y-96717142D01*
X162902857Y-96717142D02*
X163074285Y-96717142D01*
X163160000Y-96760000D01*
X163245714Y-96845714D01*
X163288571Y-97017142D01*
X163288571Y-97317142D01*
X163245714Y-97488571D01*
X163160000Y-97574285D01*
X163074285Y-97617142D01*
X162902857Y-97617142D01*
X162817142Y-97574285D01*
X162731428Y-97488571D01*
X162688571Y-97317142D01*
X162688571Y-97017142D01*
X162731428Y-96845714D01*
X162817142Y-96760000D01*
X162902857Y-96717142D01*
X164188571Y-97617142D02*
X163888571Y-97188571D01*
X163674285Y-97617142D02*
X163674285Y-96717142D01*
X164017142Y-96717142D01*
X164102857Y-96760000D01*
X164145714Y-96802857D01*
X164188571Y-96888571D01*
X164188571Y-97017142D01*
X164145714Y-97102857D01*
X164102857Y-97145714D01*
X164017142Y-97188571D01*
X163674285Y-97188571D01*
X159314761Y-111580476D02*
X159362380Y-111437619D01*
X159362380Y-111199523D01*
X159314761Y-111104285D01*
X159267142Y-111056666D01*
X159171904Y-111009047D01*
X159076666Y-111009047D01*
X158981428Y-111056666D01*
X158933809Y-111104285D01*
X158886190Y-111199523D01*
X158838571Y-111390000D01*
X158790952Y-111485238D01*
X158743333Y-111532857D01*
X158648095Y-111580476D01*
X158552857Y-111580476D01*
X158457619Y-111532857D01*
X158410000Y-111485238D01*
X158362380Y-111390000D01*
X158362380Y-111151904D01*
X158410000Y-111009047D01*
X159267142Y-110009047D02*
X159314761Y-110056666D01*
X159362380Y-110199523D01*
X159362380Y-110294761D01*
X159314761Y-110437619D01*
X159219523Y-110532857D01*
X159124285Y-110580476D01*
X158933809Y-110628095D01*
X158790952Y-110628095D01*
X158600476Y-110580476D01*
X158505238Y-110532857D01*
X158410000Y-110437619D01*
X158362380Y-110294761D01*
X158362380Y-110199523D01*
X158410000Y-110056666D01*
X158457619Y-110009047D01*
X159362380Y-109104285D02*
X159362380Y-109580476D01*
X158362380Y-109580476D01*
X152564761Y-111634285D02*
X152612380Y-111491428D01*
X152612380Y-111253333D01*
X152564761Y-111158095D01*
X152517142Y-111110476D01*
X152421904Y-111062857D01*
X152326666Y-111062857D01*
X152231428Y-111110476D01*
X152183809Y-111158095D01*
X152136190Y-111253333D01*
X152088571Y-111443809D01*
X152040952Y-111539047D01*
X151993333Y-111586666D01*
X151898095Y-111634285D01*
X151802857Y-111634285D01*
X151707619Y-111586666D01*
X151660000Y-111539047D01*
X151612380Y-111443809D01*
X151612380Y-111205714D01*
X151660000Y-111062857D01*
X152612380Y-110634285D02*
X151612380Y-110634285D01*
X151612380Y-110396190D01*
X151660000Y-110253333D01*
X151755238Y-110158095D01*
X151850476Y-110110476D01*
X152040952Y-110062857D01*
X152183809Y-110062857D01*
X152374285Y-110110476D01*
X152469523Y-110158095D01*
X152564761Y-110253333D01*
X152612380Y-110396190D01*
X152612380Y-110634285D01*
X152326666Y-109681904D02*
X152326666Y-109205714D01*
X152612380Y-109777142D02*
X151612380Y-109443809D01*
X152612380Y-109110476D01*
D11*
X117780000Y-77130000D02*
X117780000Y-77110000D01*
X117780000Y-77130000D02*
X117780000Y-77160000D01*
X120570000Y-77120000D02*
X120570000Y-77160000D01*
D10*
X116739047Y-114832380D02*
X116739047Y-113832380D01*
X116977142Y-113832380D01*
X117120000Y-113880000D01*
X117215238Y-113975238D01*
X117262857Y-114070476D01*
X117310476Y-114260952D01*
X117310476Y-114403809D01*
X117262857Y-114594285D01*
X117215238Y-114689523D01*
X117120000Y-114784761D01*
X116977142Y-114832380D01*
X116739047Y-114832380D01*
X118310476Y-114737142D02*
X118262857Y-114784761D01*
X118120000Y-114832380D01*
X118024761Y-114832380D01*
X117881904Y-114784761D01*
X117786666Y-114689523D01*
X117739047Y-114594285D01*
X117691428Y-114403809D01*
X117691428Y-114260952D01*
X117739047Y-114070476D01*
X117786666Y-113975238D01*
X117881904Y-113880000D01*
X118024761Y-113832380D01*
X118120000Y-113832380D01*
X118262857Y-113880000D01*
X118310476Y-113927619D01*
X118739047Y-114451428D02*
X119500952Y-114451428D01*
X119977142Y-114832380D02*
X119977142Y-113832380D01*
X120215238Y-113832380D01*
X120358095Y-113880000D01*
X120453333Y-113975238D01*
X120500952Y-114070476D01*
X120548571Y-114260952D01*
X120548571Y-114403809D01*
X120500952Y-114594285D01*
X120453333Y-114689523D01*
X120358095Y-114784761D01*
X120215238Y-114832380D01*
X119977142Y-114832380D01*
X120977142Y-114832380D02*
X120977142Y-113832380D01*
X121215238Y-113832380D01*
X121358095Y-113880000D01*
X121453333Y-113975238D01*
X121500952Y-114070476D01*
X121548571Y-114260952D01*
X121548571Y-114403809D01*
X121500952Y-114594285D01*
X121453333Y-114689523D01*
X121358095Y-114784761D01*
X121215238Y-114832380D01*
X120977142Y-114832380D01*
X137872380Y-74175238D02*
X137396190Y-74508571D01*
X137872380Y-74746666D02*
X136872380Y-74746666D01*
X136872380Y-74365714D01*
X136920000Y-74270476D01*
X136967619Y-74222857D01*
X137062857Y-74175238D01*
X137205714Y-74175238D01*
X137300952Y-74222857D01*
X137348571Y-74270476D01*
X137396190Y-74365714D01*
X137396190Y-74746666D01*
X137872380Y-73841904D02*
X137205714Y-73318095D01*
X137205714Y-73841904D02*
X137872380Y-73318095D01*
X137872380Y-72937142D02*
X136872380Y-72937142D01*
X136872380Y-72699047D01*
X136920000Y-72556190D01*
X137015238Y-72460952D01*
X137110476Y-72413333D01*
X137300952Y-72365714D01*
X137443809Y-72365714D01*
X137634285Y-72413333D01*
X137729523Y-72460952D01*
X137824761Y-72556190D01*
X137872380Y-72699047D01*
X137872380Y-72937142D01*
X136872380Y-80170476D02*
X136872380Y-79599047D01*
X137872380Y-79884761D02*
X136872380Y-79884761D01*
X137872380Y-79360952D02*
X137205714Y-78837142D01*
X137205714Y-79360952D02*
X137872380Y-78837142D01*
X137872380Y-78456190D02*
X136872380Y-78456190D01*
X136872380Y-78218095D01*
X136920000Y-78075238D01*
X137015238Y-77980000D01*
X137110476Y-77932380D01*
X137300952Y-77884761D01*
X137443809Y-77884761D01*
X137634285Y-77932380D01*
X137729523Y-77980000D01*
X137824761Y-78075238D01*
X137872380Y-78218095D01*
X137872380Y-78456190D01*
X138648571Y-81732380D02*
X138648571Y-80732380D01*
X138839047Y-80732380D01*
X138953333Y-80780000D01*
X139029523Y-80875238D01*
X139067619Y-80970476D01*
X139105714Y-81160952D01*
X139105714Y-81303809D01*
X139067619Y-81494285D01*
X139029523Y-81589523D01*
X138953333Y-81684761D01*
X138839047Y-81732380D01*
X138648571Y-81732380D01*
X139867619Y-81732380D02*
X139410476Y-81732380D01*
X139639047Y-81732380D02*
X139639047Y-80732380D01*
X139562857Y-80875238D01*
X139486666Y-80970476D01*
X139410476Y-81018095D01*
X140629523Y-81732380D02*
X140172380Y-81732380D01*
X140400952Y-81732380D02*
X140400952Y-80732380D01*
X140324761Y-80875238D01*
X140248571Y-80970476D01*
X140172380Y-81018095D01*
X141248571Y-81732380D02*
X141248571Y-80732380D01*
X141439047Y-80732380D01*
X141553333Y-80780000D01*
X141629523Y-80875238D01*
X141667619Y-80970476D01*
X141705714Y-81160952D01*
X141705714Y-81303809D01*
X141667619Y-81494285D01*
X141629523Y-81589523D01*
X141553333Y-81684761D01*
X141439047Y-81732380D01*
X141248571Y-81732380D01*
X142467619Y-81732380D02*
X142010476Y-81732380D01*
X142239047Y-81732380D02*
X142239047Y-80732380D01*
X142162857Y-80875238D01*
X142086666Y-80970476D01*
X142010476Y-81018095D01*
X142962857Y-80732380D02*
X143039047Y-80732380D01*
X143115238Y-80780000D01*
X143153333Y-80827619D01*
X143191428Y-80922857D01*
X143229523Y-81113333D01*
X143229523Y-81351428D01*
X143191428Y-81541904D01*
X143153333Y-81637142D01*
X143115238Y-81684761D01*
X143039047Y-81732380D01*
X142962857Y-81732380D01*
X142886666Y-81684761D01*
X142848571Y-81637142D01*
X142810476Y-81541904D01*
X142772380Y-81351428D01*
X142772380Y-81113333D01*
X142810476Y-80922857D01*
X142848571Y-80827619D01*
X142886666Y-80780000D01*
X142962857Y-80732380D01*
X144091904Y-81732380D02*
X144091904Y-80732380D01*
X144330000Y-80732380D01*
X144472857Y-80780000D01*
X144568095Y-80875238D01*
X144615714Y-80970476D01*
X144663333Y-81160952D01*
X144663333Y-81303809D01*
X144615714Y-81494285D01*
X144568095Y-81589523D01*
X144472857Y-81684761D01*
X144330000Y-81732380D01*
X144091904Y-81732380D01*
X145520476Y-81065714D02*
X145520476Y-81732380D01*
X145282380Y-80684761D02*
X145044285Y-81399047D01*
X145663333Y-81399047D01*
X146591904Y-81732380D02*
X146591904Y-80732380D01*
X146830000Y-80732380D01*
X146972857Y-80780000D01*
X147068095Y-80875238D01*
X147115714Y-80970476D01*
X147163333Y-81160952D01*
X147163333Y-81303809D01*
X147115714Y-81494285D01*
X147068095Y-81589523D01*
X146972857Y-81684761D01*
X146830000Y-81732380D01*
X146591904Y-81732380D01*
X147496666Y-80732380D02*
X148115714Y-80732380D01*
X147782380Y-81113333D01*
X147925238Y-81113333D01*
X148020476Y-81160952D01*
X148068095Y-81208571D01*
X148115714Y-81303809D01*
X148115714Y-81541904D01*
X148068095Y-81637142D01*
X148020476Y-81684761D01*
X147925238Y-81732380D01*
X147639523Y-81732380D01*
X147544285Y-81684761D01*
X147496666Y-81637142D01*
X149091904Y-81732380D02*
X149091904Y-80732380D01*
X149330000Y-80732380D01*
X149472857Y-80780000D01*
X149568095Y-80875238D01*
X149615714Y-80970476D01*
X149663333Y-81160952D01*
X149663333Y-81303809D01*
X149615714Y-81494285D01*
X149568095Y-81589523D01*
X149472857Y-81684761D01*
X149330000Y-81732380D01*
X149091904Y-81732380D01*
X150044285Y-80827619D02*
X150091904Y-80780000D01*
X150187142Y-80732380D01*
X150425238Y-80732380D01*
X150520476Y-80780000D01*
X150568095Y-80827619D01*
X150615714Y-80922857D01*
X150615714Y-81018095D01*
X150568095Y-81160952D01*
X149996666Y-81732380D01*
X150615714Y-81732380D01*
X151591904Y-81732380D02*
X151591904Y-80732380D01*
X151830000Y-80732380D01*
X151972857Y-80780000D01*
X152068095Y-80875238D01*
X152115714Y-80970476D01*
X152163333Y-81160952D01*
X152163333Y-81303809D01*
X152115714Y-81494285D01*
X152068095Y-81589523D01*
X151972857Y-81684761D01*
X151830000Y-81732380D01*
X151591904Y-81732380D01*
X153115714Y-81732380D02*
X152544285Y-81732380D01*
X152830000Y-81732380D02*
X152830000Y-80732380D01*
X152734761Y-80875238D01*
X152639523Y-80970476D01*
X152544285Y-81018095D01*
X154096904Y-81732380D02*
X154096904Y-80732380D01*
X154335000Y-80732380D01*
X154477857Y-80780000D01*
X154573095Y-80875238D01*
X154620714Y-80970476D01*
X154668333Y-81160952D01*
X154668333Y-81303809D01*
X154620714Y-81494285D01*
X154573095Y-81589523D01*
X154477857Y-81684761D01*
X154335000Y-81732380D01*
X154096904Y-81732380D01*
X155287380Y-80732380D02*
X155382619Y-80732380D01*
X155477857Y-80780000D01*
X155525476Y-80827619D01*
X155573095Y-80922857D01*
X155620714Y-81113333D01*
X155620714Y-81351428D01*
X155573095Y-81541904D01*
X155525476Y-81637142D01*
X155477857Y-81684761D01*
X155382619Y-81732380D01*
X155287380Y-81732380D01*
X155192142Y-81684761D01*
X155144523Y-81637142D01*
X155096904Y-81541904D01*
X155049285Y-81351428D01*
X155049285Y-81113333D01*
X155096904Y-80922857D01*
X155144523Y-80827619D01*
X155192142Y-80780000D01*
X155287380Y-80732380D01*
X99072380Y-108056190D02*
X98072380Y-108056190D01*
X98167619Y-107627619D02*
X98120000Y-107580000D01*
X98072380Y-107484761D01*
X98072380Y-107246666D01*
X98120000Y-107151428D01*
X98167619Y-107103809D01*
X98262857Y-107056190D01*
X98358095Y-107056190D01*
X98500952Y-107103809D01*
X99072380Y-107675238D01*
X99072380Y-107056190D01*
X98977142Y-106056190D02*
X99024761Y-106103809D01*
X99072380Y-106246666D01*
X99072380Y-106341904D01*
X99024761Y-106484761D01*
X98929523Y-106580000D01*
X98834285Y-106627619D01*
X98643809Y-106675238D01*
X98500952Y-106675238D01*
X98310476Y-106627619D01*
X98215238Y-106580000D01*
X98120000Y-106484761D01*
X98072380Y-106341904D01*
X98072380Y-106246666D01*
X98120000Y-106103809D01*
X98167619Y-106056190D01*
X98786666Y-96479047D02*
X98786666Y-96002857D01*
X99072380Y-96574285D02*
X98072380Y-96240952D01*
X99072380Y-95907619D01*
X99072380Y-95574285D02*
X98072380Y-95574285D01*
X99072380Y-95002857D01*
X98072380Y-95002857D01*
X98786666Y-94574285D02*
X98786666Y-94098095D01*
X99072380Y-94669523D02*
X98072380Y-94336190D01*
X99072380Y-94002857D01*
X99072380Y-93193333D02*
X99072380Y-93669523D01*
X98072380Y-93669523D01*
X98072380Y-92669523D02*
X98072380Y-92479047D01*
X98120000Y-92383809D01*
X98215238Y-92288571D01*
X98405714Y-92240952D01*
X98739047Y-92240952D01*
X98929523Y-92288571D01*
X99024761Y-92383809D01*
X99072380Y-92479047D01*
X99072380Y-92669523D01*
X99024761Y-92764761D01*
X98929523Y-92860000D01*
X98739047Y-92907619D01*
X98405714Y-92907619D01*
X98215238Y-92860000D01*
X98120000Y-92764761D01*
X98072380Y-92669523D01*
X98120000Y-91288571D02*
X98072380Y-91383809D01*
X98072380Y-91526666D01*
X98120000Y-91669523D01*
X98215238Y-91764761D01*
X98310476Y-91812380D01*
X98500952Y-91860000D01*
X98643809Y-91860000D01*
X98834285Y-91812380D01*
X98929523Y-91764761D01*
X99024761Y-91669523D01*
X99072380Y-91526666D01*
X99072380Y-91431428D01*
X99024761Y-91288571D01*
X98977142Y-91240952D01*
X98643809Y-91240952D01*
X98643809Y-91431428D01*
D11*
X97160000Y-87250000D02*
X99700000Y-87250000D01*
X97160000Y-100470000D02*
X99700000Y-100470000D01*
X99700000Y-113690000D02*
X97150000Y-113690000D01*
X116650000Y-113680000D02*
X116650000Y-113690000D01*
X97150000Y-74040000D02*
X97150000Y-113690000D01*
X97160000Y-74030000D02*
X99700000Y-74030000D01*
D10*
X99072380Y-83132380D02*
X98072380Y-83132380D01*
X98072380Y-82894285D01*
X98120000Y-82751428D01*
X98215238Y-82656190D01*
X98310476Y-82608571D01*
X98500952Y-82560952D01*
X98643809Y-82560952D01*
X98834285Y-82608571D01*
X98929523Y-82656190D01*
X99024761Y-82751428D01*
X99072380Y-82894285D01*
X99072380Y-83132380D01*
X99072380Y-82132380D02*
X98072380Y-82132380D01*
X98120000Y-81132380D02*
X98072380Y-81227619D01*
X98072380Y-81370476D01*
X98120000Y-81513333D01*
X98215238Y-81608571D01*
X98310476Y-81656190D01*
X98500952Y-81703809D01*
X98643809Y-81703809D01*
X98834285Y-81656190D01*
X98929523Y-81608571D01*
X99024761Y-81513333D01*
X99072380Y-81370476D01*
X99072380Y-81275238D01*
X99024761Y-81132380D01*
X98977142Y-81084761D01*
X98643809Y-81084761D01*
X98643809Y-81275238D01*
X99072380Y-80656190D02*
X98072380Y-80656190D01*
X98072380Y-80322857D02*
X98072380Y-79751428D01*
X99072380Y-80037142D02*
X98072380Y-80037142D01*
X98786666Y-79465714D02*
X98786666Y-78989523D01*
X99072380Y-79560952D02*
X98072380Y-79227619D01*
X99072380Y-78894285D01*
X99072380Y-78084761D02*
X99072380Y-78560952D01*
X98072380Y-78560952D01*
D11*
X99700000Y-100470000D02*
X114110000Y-100470000D01*
X99700000Y-87250000D02*
X114110000Y-87250000D01*
X99700000Y-113690000D02*
X99700000Y-74030000D01*
X114110000Y-113690000D02*
X99700000Y-113690000D01*
X114110000Y-74030000D02*
X114110000Y-113690000D01*
X99700000Y-74030000D02*
X114110000Y-74030000D01*
D10*
X110890476Y-108484761D02*
X111033333Y-108532380D01*
X111271428Y-108532380D01*
X111366666Y-108484761D01*
X111414285Y-108437142D01*
X111461904Y-108341904D01*
X111461904Y-108246666D01*
X111414285Y-108151428D01*
X111366666Y-108103809D01*
X111271428Y-108056190D01*
X111080952Y-108008571D01*
X110985714Y-107960952D01*
X110938095Y-107913333D01*
X110890476Y-107818095D01*
X110890476Y-107722857D01*
X110938095Y-107627619D01*
X110985714Y-107580000D01*
X111080952Y-107532380D01*
X111319047Y-107532380D01*
X111461904Y-107580000D01*
X111890476Y-108532380D02*
X111890476Y-107532380D01*
X112128571Y-107532380D01*
X112271428Y-107580000D01*
X112366666Y-107675238D01*
X112414285Y-107770476D01*
X112461904Y-107960952D01*
X112461904Y-108103809D01*
X112414285Y-108294285D01*
X112366666Y-108389523D01*
X112271428Y-108484761D01*
X112128571Y-108532380D01*
X111890476Y-108532380D01*
X112842857Y-108246666D02*
X113319047Y-108246666D01*
X112747619Y-108532380D02*
X113080952Y-107532380D01*
X113414285Y-108532380D01*
X110890476Y-110484761D02*
X111033333Y-110532380D01*
X111271428Y-110532380D01*
X111366666Y-110484761D01*
X111414285Y-110437142D01*
X111461904Y-110341904D01*
X111461904Y-110246666D01*
X111414285Y-110151428D01*
X111366666Y-110103809D01*
X111271428Y-110056190D01*
X111080952Y-110008571D01*
X110985714Y-109960952D01*
X110938095Y-109913333D01*
X110890476Y-109818095D01*
X110890476Y-109722857D01*
X110938095Y-109627619D01*
X110985714Y-109580000D01*
X111080952Y-109532380D01*
X111319047Y-109532380D01*
X111461904Y-109580000D01*
X112461904Y-110437142D02*
X112414285Y-110484761D01*
X112271428Y-110532380D01*
X112176190Y-110532380D01*
X112033333Y-110484761D01*
X111938095Y-110389523D01*
X111890476Y-110294285D01*
X111842857Y-110103809D01*
X111842857Y-109960952D01*
X111890476Y-109770476D01*
X111938095Y-109675238D01*
X112033333Y-109580000D01*
X112176190Y-109532380D01*
X112271428Y-109532380D01*
X112414285Y-109580000D01*
X112461904Y-109627619D01*
X113366666Y-110532380D02*
X112890476Y-110532380D01*
X112890476Y-109532380D01*
X110938095Y-106532380D02*
X110938095Y-105532380D01*
X111319047Y-105532380D01*
X111414285Y-105580000D01*
X111461904Y-105627619D01*
X111509523Y-105722857D01*
X111509523Y-105865714D01*
X111461904Y-105960952D01*
X111414285Y-106008571D01*
X111319047Y-106056190D01*
X110938095Y-106056190D01*
X111842857Y-105532380D02*
X112080952Y-106532380D01*
X112271428Y-105818095D01*
X112461904Y-106532380D01*
X112700000Y-105532380D01*
X113652380Y-106532380D02*
X113319047Y-106056190D01*
X113080952Y-106532380D02*
X113080952Y-105532380D01*
X113461904Y-105532380D01*
X113557142Y-105580000D01*
X113604761Y-105627619D01*
X113652380Y-105722857D01*
X113652380Y-105865714D01*
X113604761Y-105960952D01*
X113557142Y-106008571D01*
X113461904Y-106056190D01*
X113080952Y-106056190D01*
X111461904Y-103580000D02*
X111366666Y-103532380D01*
X111223809Y-103532380D01*
X111080952Y-103580000D01*
X110985714Y-103675238D01*
X110938095Y-103770476D01*
X110890476Y-103960952D01*
X110890476Y-104103809D01*
X110938095Y-104294285D01*
X110985714Y-104389523D01*
X111080952Y-104484761D01*
X111223809Y-104532380D01*
X111319047Y-104532380D01*
X111461904Y-104484761D01*
X111509523Y-104437142D01*
X111509523Y-104103809D01*
X111319047Y-104103809D01*
X111938095Y-104532380D02*
X111938095Y-103532380D01*
X112509523Y-104532380D01*
X112509523Y-103532380D01*
X112985714Y-104532380D02*
X112985714Y-103532380D01*
X113223809Y-103532380D01*
X113366666Y-103580000D01*
X113461904Y-103675238D01*
X113509523Y-103770476D01*
X113557142Y-103960952D01*
X113557142Y-104103809D01*
X113509523Y-104294285D01*
X113461904Y-104389523D01*
X113366666Y-104484761D01*
X113223809Y-104532380D01*
X112985714Y-104532380D01*
X111471904Y-90360000D02*
X111376666Y-90312380D01*
X111233809Y-90312380D01*
X111090952Y-90360000D01*
X110995714Y-90455238D01*
X110948095Y-90550476D01*
X110900476Y-90740952D01*
X110900476Y-90883809D01*
X110948095Y-91074285D01*
X110995714Y-91169523D01*
X111090952Y-91264761D01*
X111233809Y-91312380D01*
X111329047Y-91312380D01*
X111471904Y-91264761D01*
X111519523Y-91217142D01*
X111519523Y-90883809D01*
X111329047Y-90883809D01*
X111948095Y-91312380D02*
X111948095Y-90312380D01*
X112519523Y-91312380D01*
X112519523Y-90312380D01*
X112995714Y-91312380D02*
X112995714Y-90312380D01*
X113233809Y-90312380D01*
X113376666Y-90360000D01*
X113471904Y-90455238D01*
X113519523Y-90550476D01*
X113567142Y-90740952D01*
X113567142Y-90883809D01*
X113519523Y-91074285D01*
X113471904Y-91169523D01*
X113376666Y-91264761D01*
X113233809Y-91312380D01*
X112995714Y-91312380D01*
X110948095Y-93312380D02*
X110948095Y-92312380D01*
X111329047Y-92312380D01*
X111424285Y-92360000D01*
X111471904Y-92407619D01*
X111519523Y-92502857D01*
X111519523Y-92645714D01*
X111471904Y-92740952D01*
X111424285Y-92788571D01*
X111329047Y-92836190D01*
X110948095Y-92836190D01*
X111852857Y-92312380D02*
X112090952Y-93312380D01*
X112281428Y-92598095D01*
X112471904Y-93312380D01*
X112710000Y-92312380D01*
X113662380Y-93312380D02*
X113329047Y-92836190D01*
X113090952Y-93312380D02*
X113090952Y-92312380D01*
X113471904Y-92312380D01*
X113567142Y-92360000D01*
X113614761Y-92407619D01*
X113662380Y-92502857D01*
X113662380Y-92645714D01*
X113614761Y-92740952D01*
X113567142Y-92788571D01*
X113471904Y-92836190D01*
X113090952Y-92836190D01*
X110900476Y-97026666D02*
X111376666Y-97026666D01*
X110805238Y-97312380D02*
X111138571Y-96312380D01*
X111471904Y-97312380D01*
X111995714Y-96312380D02*
X112090952Y-96312380D01*
X112186190Y-96360000D01*
X112233809Y-96407619D01*
X112281428Y-96502857D01*
X112329047Y-96693333D01*
X112329047Y-96931428D01*
X112281428Y-97121904D01*
X112233809Y-97217142D01*
X112186190Y-97264761D01*
X112090952Y-97312380D01*
X111995714Y-97312380D01*
X111900476Y-97264761D01*
X111852857Y-97217142D01*
X111805238Y-97121904D01*
X111757619Y-96931428D01*
X111757619Y-96693333D01*
X111805238Y-96502857D01*
X111852857Y-96407619D01*
X111900476Y-96360000D01*
X111995714Y-96312380D01*
X110900476Y-95026666D02*
X111376666Y-95026666D01*
X110805238Y-95312380D02*
X111138571Y-94312380D01*
X111471904Y-95312380D01*
X112329047Y-95312380D02*
X111757619Y-95312380D01*
X112043333Y-95312380D02*
X112043333Y-94312380D01*
X111948095Y-94455238D01*
X111852857Y-94550476D01*
X111757619Y-94598095D01*
X110948095Y-82082380D02*
X110948095Y-81082380D01*
X111186190Y-81082380D01*
X111329047Y-81130000D01*
X111424285Y-81225238D01*
X111471904Y-81320476D01*
X111519523Y-81510952D01*
X111519523Y-81653809D01*
X111471904Y-81844285D01*
X111424285Y-81939523D01*
X111329047Y-82034761D01*
X111186190Y-82082380D01*
X110948095Y-82082380D01*
X112376666Y-81082380D02*
X112186190Y-81082380D01*
X112090952Y-81130000D01*
X112043333Y-81177619D01*
X111948095Y-81320476D01*
X111900476Y-81510952D01*
X111900476Y-81891904D01*
X111948095Y-81987142D01*
X111995714Y-82034761D01*
X112090952Y-82082380D01*
X112281428Y-82082380D01*
X112376666Y-82034761D01*
X112424285Y-81987142D01*
X112471904Y-81891904D01*
X112471904Y-81653809D01*
X112424285Y-81558571D01*
X112376666Y-81510952D01*
X112281428Y-81463333D01*
X112090952Y-81463333D01*
X111995714Y-81510952D01*
X111948095Y-81558571D01*
X111900476Y-81653809D01*
X110948095Y-84082380D02*
X110948095Y-83082380D01*
X111186190Y-83082380D01*
X111329047Y-83130000D01*
X111424285Y-83225238D01*
X111471904Y-83320476D01*
X111519523Y-83510952D01*
X111519523Y-83653809D01*
X111471904Y-83844285D01*
X111424285Y-83939523D01*
X111329047Y-84034761D01*
X111186190Y-84082380D01*
X110948095Y-84082380D01*
X112424285Y-83082380D02*
X111948095Y-83082380D01*
X111900476Y-83558571D01*
X111948095Y-83510952D01*
X112043333Y-83463333D01*
X112281428Y-83463333D01*
X112376666Y-83510952D01*
X112424285Y-83558571D01*
X112471904Y-83653809D01*
X112471904Y-83891904D01*
X112424285Y-83987142D01*
X112376666Y-84034761D01*
X112281428Y-84082380D01*
X112043333Y-84082380D01*
X111948095Y-84034761D01*
X111900476Y-83987142D01*
X110948095Y-80082380D02*
X110948095Y-79082380D01*
X111329047Y-79082380D01*
X111424285Y-79130000D01*
X111471904Y-79177619D01*
X111519523Y-79272857D01*
X111519523Y-79415714D01*
X111471904Y-79510952D01*
X111424285Y-79558571D01*
X111329047Y-79606190D01*
X110948095Y-79606190D01*
X111852857Y-79082380D02*
X112090952Y-80082380D01*
X112281428Y-79368095D01*
X112471904Y-80082380D01*
X112710000Y-79082380D01*
X113662380Y-80082380D02*
X113329047Y-79606190D01*
X113090952Y-80082380D02*
X113090952Y-79082380D01*
X113471904Y-79082380D01*
X113567142Y-79130000D01*
X113614761Y-79177619D01*
X113662380Y-79272857D01*
X113662380Y-79415714D01*
X113614761Y-79510952D01*
X113567142Y-79558571D01*
X113471904Y-79606190D01*
X113090952Y-79606190D01*
X111471904Y-77130000D02*
X111376666Y-77082380D01*
X111233809Y-77082380D01*
X111090952Y-77130000D01*
X110995714Y-77225238D01*
X110948095Y-77320476D01*
X110900476Y-77510952D01*
X110900476Y-77653809D01*
X110948095Y-77844285D01*
X110995714Y-77939523D01*
X111090952Y-78034761D01*
X111233809Y-78082380D01*
X111329047Y-78082380D01*
X111471904Y-78034761D01*
X111519523Y-77987142D01*
X111519523Y-77653809D01*
X111329047Y-77653809D01*
X111948095Y-78082380D02*
X111948095Y-77082380D01*
X112519523Y-78082380D01*
X112519523Y-77082380D01*
X112995714Y-78082380D02*
X112995714Y-77082380D01*
X113233809Y-77082380D01*
X113376666Y-77130000D01*
X113471904Y-77225238D01*
X113519523Y-77320476D01*
X113567142Y-77510952D01*
X113567142Y-77653809D01*
X113519523Y-77844285D01*
X113471904Y-77939523D01*
X113376666Y-78034761D01*
X113233809Y-78082380D01*
X112995714Y-78082380D01*
D11*
X159970000Y-72430000D02*
X160190000Y-72210000D01*
X159970000Y-72430000D02*
X159760000Y-72220000D01*
X159970000Y-72440000D02*
X159970000Y-71740000D01*
X157420000Y-71790000D02*
X157420000Y-72490000D01*
X157420000Y-71800000D02*
X157630000Y-72010000D01*
X157420000Y-71800000D02*
X157200000Y-72020000D01*
D10*
X114420000Y-112451428D02*
X115029523Y-112451428D01*
X114724761Y-112832380D02*
X114724761Y-112070476D01*
X115334285Y-111832380D02*
X115829523Y-111832380D01*
X115562857Y-112213333D01*
X115677142Y-112213333D01*
X115753333Y-112260952D01*
X115791428Y-112308571D01*
X115829523Y-112403809D01*
X115829523Y-112641904D01*
X115791428Y-112737142D01*
X115753333Y-112784761D01*
X115677142Y-112832380D01*
X115448571Y-112832380D01*
X115372380Y-112784761D01*
X115334285Y-112737142D01*
X116172380Y-112737142D02*
X116210476Y-112784761D01*
X116172380Y-112832380D01*
X116134285Y-112784761D01*
X116172380Y-112737142D01*
X116172380Y-112832380D01*
X116477142Y-111832380D02*
X116972380Y-111832380D01*
X116705714Y-112213333D01*
X116820000Y-112213333D01*
X116896190Y-112260952D01*
X116934285Y-112308571D01*
X116972380Y-112403809D01*
X116972380Y-112641904D01*
X116934285Y-112737142D01*
X116896190Y-112784761D01*
X116820000Y-112832380D01*
X116591428Y-112832380D01*
X116515238Y-112784761D01*
X116477142Y-112737142D01*
X117200952Y-111832380D02*
X117467619Y-112832380D01*
X117734285Y-111832380D01*
X160993809Y-87372380D02*
X160993809Y-86372380D01*
X162041428Y-87277142D02*
X161993809Y-87324761D01*
X161850952Y-87372380D01*
X161755714Y-87372380D01*
X161612857Y-87324761D01*
X161517619Y-87229523D01*
X161470000Y-87134285D01*
X161422380Y-86943809D01*
X161422380Y-86800952D01*
X161470000Y-86610476D01*
X161517619Y-86515238D01*
X161612857Y-86420000D01*
X161755714Y-86372380D01*
X161850952Y-86372380D01*
X161993809Y-86420000D01*
X162041428Y-86467619D01*
X162422380Y-87324761D02*
X162565238Y-87372380D01*
X162803333Y-87372380D01*
X162898571Y-87324761D01*
X162946190Y-87277142D01*
X162993809Y-87181904D01*
X162993809Y-87086666D01*
X162946190Y-86991428D01*
X162898571Y-86943809D01*
X162803333Y-86896190D01*
X162612857Y-86848571D01*
X162517619Y-86800952D01*
X162470000Y-86753333D01*
X162422380Y-86658095D01*
X162422380Y-86562857D01*
X162470000Y-86467619D01*
X162517619Y-86420000D01*
X162612857Y-86372380D01*
X162850952Y-86372380D01*
X162993809Y-86420000D01*
X163422380Y-87372380D02*
X163422380Y-86372380D01*
X163803333Y-86372380D01*
X163898571Y-86420000D01*
X163946190Y-86467619D01*
X163993809Y-86562857D01*
X163993809Y-86705714D01*
X163946190Y-86800952D01*
X163898571Y-86848571D01*
X163803333Y-86896190D01*
X163422380Y-86896190D01*
X158742380Y-85179523D02*
X158742380Y-84608095D01*
X159742380Y-84893809D02*
X158742380Y-84893809D01*
X159218571Y-84274761D02*
X159218571Y-83941428D01*
X159742380Y-83798571D02*
X159742380Y-84274761D01*
X158742380Y-84274761D01*
X158742380Y-83798571D01*
X159742380Y-83370000D02*
X158742380Y-83370000D01*
X159456666Y-83036666D01*
X158742380Y-82703333D01*
X159742380Y-82703333D01*
X159742380Y-82227142D02*
X158742380Y-82227142D01*
X158742380Y-81846190D01*
X158790000Y-81750952D01*
X158837619Y-81703333D01*
X158932857Y-81655714D01*
X159075714Y-81655714D01*
X159170952Y-81703333D01*
X159218571Y-81750952D01*
X159266190Y-81846190D01*
X159266190Y-82227142D01*
X154347142Y-106426666D02*
X154823333Y-106426666D01*
X154251904Y-106712380D02*
X154585238Y-105712380D01*
X154918571Y-106712380D01*
X155251904Y-106712380D02*
X155251904Y-105712380D01*
X155823333Y-106712380D01*
X155823333Y-105712380D01*
X156156666Y-105712380D02*
X156728095Y-105712380D01*
X156442380Y-106712380D02*
X156442380Y-105712380D01*
X97340952Y-68852380D02*
X97340952Y-67852380D01*
X97579047Y-67852380D01*
X97721904Y-67900000D01*
X97817142Y-67995238D01*
X97864761Y-68090476D01*
X97912380Y-68280952D01*
X97912380Y-68423809D01*
X97864761Y-68614285D01*
X97817142Y-68709523D01*
X97721904Y-68804761D01*
X97579047Y-68852380D01*
X97340952Y-68852380D01*
X98721904Y-68804761D02*
X98626666Y-68852380D01*
X98436190Y-68852380D01*
X98340952Y-68804761D01*
X98293333Y-68709523D01*
X98293333Y-68328571D01*
X98340952Y-68233333D01*
X98436190Y-68185714D01*
X98626666Y-68185714D01*
X98721904Y-68233333D01*
X98769523Y-68328571D01*
X98769523Y-68423809D01*
X98293333Y-68519047D01*
X99150476Y-68804761D02*
X99245714Y-68852380D01*
X99436190Y-68852380D01*
X99531428Y-68804761D01*
X99579047Y-68709523D01*
X99579047Y-68661904D01*
X99531428Y-68566666D01*
X99436190Y-68519047D01*
X99293333Y-68519047D01*
X99198095Y-68471428D01*
X99150476Y-68376190D01*
X99150476Y-68328571D01*
X99198095Y-68233333D01*
X99293333Y-68185714D01*
X99436190Y-68185714D01*
X99531428Y-68233333D01*
X100007619Y-68852380D02*
X100007619Y-68185714D01*
X100007619Y-67852380D02*
X99960000Y-67900000D01*
X100007619Y-67947619D01*
X100055238Y-67900000D01*
X100007619Y-67852380D01*
X100007619Y-67947619D01*
X100912380Y-68185714D02*
X100912380Y-68995238D01*
X100864761Y-69090476D01*
X100817142Y-69138095D01*
X100721904Y-69185714D01*
X100579047Y-69185714D01*
X100483809Y-69138095D01*
X100912380Y-68804761D02*
X100817142Y-68852380D01*
X100626666Y-68852380D01*
X100531428Y-68804761D01*
X100483809Y-68757142D01*
X100436190Y-68661904D01*
X100436190Y-68376190D01*
X100483809Y-68280952D01*
X100531428Y-68233333D01*
X100626666Y-68185714D01*
X100817142Y-68185714D01*
X100912380Y-68233333D01*
X101388571Y-68185714D02*
X101388571Y-68852380D01*
X101388571Y-68280952D02*
X101436190Y-68233333D01*
X101531428Y-68185714D01*
X101674285Y-68185714D01*
X101769523Y-68233333D01*
X101817142Y-68328571D01*
X101817142Y-68852380D01*
X102674285Y-68804761D02*
X102579047Y-68852380D01*
X102388571Y-68852380D01*
X102293333Y-68804761D01*
X102245714Y-68709523D01*
X102245714Y-68328571D01*
X102293333Y-68233333D01*
X102388571Y-68185714D01*
X102579047Y-68185714D01*
X102674285Y-68233333D01*
X102721904Y-68328571D01*
X102721904Y-68423809D01*
X102245714Y-68519047D01*
X103579047Y-68852380D02*
X103579047Y-67852380D01*
X103579047Y-68804761D02*
X103483809Y-68852380D01*
X103293333Y-68852380D01*
X103198095Y-68804761D01*
X103150476Y-68757142D01*
X103102857Y-68661904D01*
X103102857Y-68376190D01*
X103150476Y-68280952D01*
X103198095Y-68233333D01*
X103293333Y-68185714D01*
X103483809Y-68185714D01*
X103579047Y-68233333D01*
X100007619Y-70552380D02*
X100007619Y-69885714D01*
X100007619Y-69552380D02*
X99960000Y-69600000D01*
X100007619Y-69647619D01*
X100055238Y-69600000D01*
X100007619Y-69552380D01*
X100007619Y-69647619D01*
X100483809Y-69885714D02*
X100483809Y-70552380D01*
X100483809Y-69980952D02*
X100531428Y-69933333D01*
X100626666Y-69885714D01*
X100769523Y-69885714D01*
X100864761Y-69933333D01*
X100912380Y-70028571D01*
X100912380Y-70552380D01*
X99507619Y-71728571D02*
X99650476Y-71776190D01*
X99698095Y-71823809D01*
X99745714Y-71919047D01*
X99745714Y-72061904D01*
X99698095Y-72157142D01*
X99650476Y-72204761D01*
X99555238Y-72252380D01*
X99174285Y-72252380D01*
X99174285Y-71252380D01*
X99507619Y-71252380D01*
X99602857Y-71300000D01*
X99650476Y-71347619D01*
X99698095Y-71442857D01*
X99698095Y-71538095D01*
X99650476Y-71633333D01*
X99602857Y-71680952D01*
X99507619Y-71728571D01*
X99174285Y-71728571D01*
X100745714Y-72157142D02*
X100698095Y-72204761D01*
X100555238Y-72252380D01*
X100460000Y-72252380D01*
X100317142Y-72204761D01*
X100221904Y-72109523D01*
X100174285Y-72014285D01*
X100126666Y-71823809D01*
X100126666Y-71680952D01*
X100174285Y-71490476D01*
X100221904Y-71395238D01*
X100317142Y-71300000D01*
X100460000Y-71252380D01*
X100555238Y-71252380D01*
X100698095Y-71300000D01*
X100745714Y-71347619D01*
X101174285Y-72252380D02*
X101174285Y-71252380D01*
X101745714Y-72252380D01*
X101745714Y-71252380D01*
X160472380Y-73896666D02*
X159996190Y-74230000D01*
X160472380Y-74468095D02*
X159472380Y-74468095D01*
X159472380Y-74087142D01*
X159520000Y-73991904D01*
X159567619Y-73944285D01*
X159662857Y-73896666D01*
X159805714Y-73896666D01*
X159900952Y-73944285D01*
X159948571Y-73991904D01*
X159996190Y-74087142D01*
X159996190Y-74468095D01*
X159472380Y-73563333D02*
X160472380Y-72896666D01*
X159472380Y-72896666D02*
X160472380Y-73563333D01*
X156922380Y-74491904D02*
X156922380Y-73920476D01*
X157922380Y-74206190D02*
X156922380Y-74206190D01*
X156922380Y-73682380D02*
X157922380Y-73015714D01*
X156922380Y-73015714D02*
X157922380Y-73682380D01*
X121791428Y-83232380D02*
X121458095Y-82756190D01*
X121220000Y-83232380D02*
X121220000Y-82232380D01*
X121600952Y-82232380D01*
X121696190Y-82280000D01*
X121743809Y-82327619D01*
X121791428Y-82422857D01*
X121791428Y-82565714D01*
X121743809Y-82660952D01*
X121696190Y-82708571D01*
X121600952Y-82756190D01*
X121220000Y-82756190D01*
X122600952Y-83184761D02*
X122505714Y-83232380D01*
X122315238Y-83232380D01*
X122220000Y-83184761D01*
X122172380Y-83089523D01*
X122172380Y-82708571D01*
X122220000Y-82613333D01*
X122315238Y-82565714D01*
X122505714Y-82565714D01*
X122600952Y-82613333D01*
X122648571Y-82708571D01*
X122648571Y-82803809D01*
X122172380Y-82899047D01*
X122981904Y-82565714D02*
X123220000Y-83232380D01*
X123458095Y-82565714D01*
X123791428Y-82946666D02*
X124267619Y-82946666D01*
X123696190Y-83232380D02*
X124029523Y-82232380D01*
X124362857Y-83232380D01*
X115724761Y-72940476D02*
X115772380Y-72797619D01*
X115772380Y-72559523D01*
X115724761Y-72464285D01*
X115677142Y-72416666D01*
X115581904Y-72369047D01*
X115486666Y-72369047D01*
X115391428Y-72416666D01*
X115343809Y-72464285D01*
X115296190Y-72559523D01*
X115248571Y-72750000D01*
X115200952Y-72845238D01*
X115153333Y-72892857D01*
X115058095Y-72940476D01*
X114962857Y-72940476D01*
X114867619Y-72892857D01*
X114820000Y-72845238D01*
X114772380Y-72750000D01*
X114772380Y-72511904D01*
X114820000Y-72369047D01*
X115677142Y-71369047D02*
X115724761Y-71416666D01*
X115772380Y-71559523D01*
X115772380Y-71654761D01*
X115724761Y-71797619D01*
X115629523Y-71892857D01*
X115534285Y-71940476D01*
X115343809Y-71988095D01*
X115200952Y-71988095D01*
X115010476Y-71940476D01*
X114915238Y-71892857D01*
X114820000Y-71797619D01*
X114772380Y-71654761D01*
X114772380Y-71559523D01*
X114820000Y-71416666D01*
X114867619Y-71369047D01*
X115772380Y-70464285D02*
X115772380Y-70940476D01*
X114772380Y-70940476D01*
X118274761Y-73004285D02*
X118322380Y-72861428D01*
X118322380Y-72623333D01*
X118274761Y-72528095D01*
X118227142Y-72480476D01*
X118131904Y-72432857D01*
X118036666Y-72432857D01*
X117941428Y-72480476D01*
X117893809Y-72528095D01*
X117846190Y-72623333D01*
X117798571Y-72813809D01*
X117750952Y-72909047D01*
X117703333Y-72956666D01*
X117608095Y-73004285D01*
X117512857Y-73004285D01*
X117417619Y-72956666D01*
X117370000Y-72909047D01*
X117322380Y-72813809D01*
X117322380Y-72575714D01*
X117370000Y-72432857D01*
X118322380Y-72004285D02*
X117322380Y-72004285D01*
X117322380Y-71766190D01*
X117370000Y-71623333D01*
X117465238Y-71528095D01*
X117560476Y-71480476D01*
X117750952Y-71432857D01*
X117893809Y-71432857D01*
X118084285Y-71480476D01*
X118179523Y-71528095D01*
X118274761Y-71623333D01*
X118322380Y-71766190D01*
X118322380Y-72004285D01*
X118036666Y-71051904D02*
X118036666Y-70575714D01*
X118322380Y-71147142D02*
X117322380Y-70813809D01*
X118322380Y-70480476D01*
X159335476Y-71159523D02*
X159335476Y-71040476D01*
X159395000Y-70921428D01*
X159454523Y-70861904D01*
X159573571Y-70802380D01*
X159811666Y-70742857D01*
X160109285Y-70742857D01*
X160347380Y-70802380D01*
X160466428Y-70861904D01*
X160525952Y-70921428D01*
X160585476Y-71040476D01*
X160585476Y-71159523D01*
X160525952Y-71278571D01*
X160466428Y-71338095D01*
X160347380Y-71397619D01*
X160109285Y-71457142D01*
X159811666Y-71457142D01*
X159573571Y-71397619D01*
X159454523Y-71338095D01*
X159395000Y-71278571D01*
X159335476Y-71159523D01*
X158045476Y-70742857D02*
X158045476Y-71457142D01*
X158045476Y-71100000D02*
X156795476Y-71100000D01*
X156974047Y-71219047D01*
X157093095Y-71338095D01*
X157152619Y-71457142D01*
X154374523Y-71457142D02*
X154315000Y-71397619D01*
X154255476Y-71278571D01*
X154255476Y-70980952D01*
X154315000Y-70861904D01*
X154374523Y-70802380D01*
X154493571Y-70742857D01*
X154612619Y-70742857D01*
X154791190Y-70802380D01*
X155505476Y-71516666D01*
X155505476Y-70742857D01*
X151715476Y-71516666D02*
X151715476Y-70742857D01*
X152191666Y-71159523D01*
X152191666Y-70980952D01*
X152251190Y-70861904D01*
X152310714Y-70802380D01*
X152429761Y-70742857D01*
X152727380Y-70742857D01*
X152846428Y-70802380D01*
X152905952Y-70861904D01*
X152965476Y-70980952D01*
X152965476Y-71338095D01*
X152905952Y-71457142D01*
X152846428Y-71516666D01*
X149592142Y-70861904D02*
X150425476Y-70861904D01*
X149115952Y-71159523D02*
X150008809Y-71457142D01*
X150008809Y-70683333D01*
X146635476Y-70802380D02*
X146635476Y-71397619D01*
X147230714Y-71457142D01*
X147171190Y-71397619D01*
X147111666Y-71278571D01*
X147111666Y-70980952D01*
X147171190Y-70861904D01*
X147230714Y-70802380D01*
X147349761Y-70742857D01*
X147647380Y-70742857D01*
X147766428Y-70802380D01*
X147825952Y-70861904D01*
X147885476Y-70980952D01*
X147885476Y-71278571D01*
X147825952Y-71397619D01*
X147766428Y-71457142D01*
X144095476Y-70861904D02*
X144095476Y-71100000D01*
X144155000Y-71219047D01*
X144214523Y-71278571D01*
X144393095Y-71397619D01*
X144631190Y-71457142D01*
X145107380Y-71457142D01*
X145226428Y-71397619D01*
X145285952Y-71338095D01*
X145345476Y-71219047D01*
X145345476Y-70980952D01*
X145285952Y-70861904D01*
X145226428Y-70802380D01*
X145107380Y-70742857D01*
X144809761Y-70742857D01*
X144690714Y-70802380D01*
X144631190Y-70861904D01*
X144571666Y-70980952D01*
X144571666Y-71219047D01*
X144631190Y-71338095D01*
X144690714Y-71397619D01*
X144809761Y-71457142D01*
X141555476Y-71516666D02*
X141555476Y-70683333D01*
X142805476Y-71219047D01*
X138031190Y-71199047D02*
X137971666Y-71318095D01*
X137912142Y-71377619D01*
X137793095Y-71437142D01*
X137733571Y-71437142D01*
X137614523Y-71377619D01*
X137555000Y-71318095D01*
X137495476Y-71199047D01*
X137495476Y-70960952D01*
X137555000Y-70841904D01*
X137614523Y-70782380D01*
X137733571Y-70722857D01*
X137793095Y-70722857D01*
X137912142Y-70782380D01*
X137971666Y-70841904D01*
X138031190Y-70960952D01*
X138031190Y-71199047D01*
X138090714Y-71318095D01*
X138150238Y-71377619D01*
X138269285Y-71437142D01*
X138507380Y-71437142D01*
X138626428Y-71377619D01*
X138685952Y-71318095D01*
X138745476Y-71199047D01*
X138745476Y-70960952D01*
X138685952Y-70841904D01*
X138626428Y-70782380D01*
X138507380Y-70722857D01*
X138269285Y-70722857D01*
X138150238Y-70782380D01*
X138090714Y-70841904D01*
X138031190Y-70960952D01*
X136215476Y-71318095D02*
X136215476Y-71080000D01*
X136155952Y-70960952D01*
X136096428Y-70901428D01*
X135917857Y-70782380D01*
X135679761Y-70722857D01*
X135203571Y-70722857D01*
X135084523Y-70782380D01*
X135025000Y-70841904D01*
X134965476Y-70960952D01*
X134965476Y-71199047D01*
X135025000Y-71318095D01*
X135084523Y-71377619D01*
X135203571Y-71437142D01*
X135501190Y-71437142D01*
X135620238Y-71377619D01*
X135679761Y-71318095D01*
X135739285Y-71199047D01*
X135739285Y-70960952D01*
X135679761Y-70841904D01*
X135620238Y-70782380D01*
X135501190Y-70722857D01*
X133665476Y-71648095D02*
X133665476Y-72362380D01*
X133665476Y-72005238D02*
X132415476Y-72005238D01*
X132594047Y-72124285D01*
X132713095Y-72243333D01*
X132772619Y-72362380D01*
X132415476Y-70874285D02*
X132415476Y-70755238D01*
X132475000Y-70636190D01*
X132534523Y-70576666D01*
X132653571Y-70517142D01*
X132891666Y-70457619D01*
X133189285Y-70457619D01*
X133427380Y-70517142D01*
X133546428Y-70576666D01*
X133605952Y-70636190D01*
X133665476Y-70755238D01*
X133665476Y-70874285D01*
X133605952Y-70993333D01*
X133546428Y-71052857D01*
X133427380Y-71112380D01*
X133189285Y-71171904D01*
X132891666Y-71171904D01*
X132653571Y-71112380D01*
X132534523Y-71052857D01*
X132475000Y-70993333D01*
X132415476Y-70874285D01*
X131125476Y-71648095D02*
X131125476Y-72362380D01*
X131125476Y-72005238D02*
X129875476Y-72005238D01*
X130054047Y-72124285D01*
X130173095Y-72243333D01*
X130232619Y-72362380D01*
X131125476Y-70457619D02*
X131125476Y-71171904D01*
X131125476Y-70814761D02*
X129875476Y-70814761D01*
X130054047Y-70933809D01*
X130173095Y-71052857D01*
X130232619Y-71171904D01*
X128585476Y-71648095D02*
X128585476Y-72362380D01*
X128585476Y-72005238D02*
X127335476Y-72005238D01*
X127514047Y-72124285D01*
X127633095Y-72243333D01*
X127692619Y-72362380D01*
X127454523Y-71171904D02*
X127395000Y-71112380D01*
X127335476Y-70993333D01*
X127335476Y-70695714D01*
X127395000Y-70576666D01*
X127454523Y-70517142D01*
X127573571Y-70457619D01*
X127692619Y-70457619D01*
X127871190Y-70517142D01*
X128585476Y-71231428D01*
X128585476Y-70457619D01*
X126055476Y-71648095D02*
X126055476Y-72362380D01*
X126055476Y-72005238D02*
X124805476Y-72005238D01*
X124984047Y-72124285D01*
X125103095Y-72243333D01*
X125162619Y-72362380D01*
X124805476Y-71231428D02*
X124805476Y-70457619D01*
X125281666Y-70874285D01*
X125281666Y-70695714D01*
X125341190Y-70576666D01*
X125400714Y-70517142D01*
X125519761Y-70457619D01*
X125817380Y-70457619D01*
X125936428Y-70517142D01*
X125995952Y-70576666D01*
X126055476Y-70695714D01*
X126055476Y-71052857D01*
X125995952Y-71171904D01*
X125936428Y-71231428D01*
X122440000Y-72561904D02*
X122392380Y-72657142D01*
X122392380Y-72800000D01*
X122440000Y-72942857D01*
X122535238Y-73038095D01*
X122630476Y-73085714D01*
X122820952Y-73133333D01*
X122963809Y-73133333D01*
X123154285Y-73085714D01*
X123249523Y-73038095D01*
X123344761Y-72942857D01*
X123392380Y-72800000D01*
X123392380Y-72704761D01*
X123344761Y-72561904D01*
X123297142Y-72514285D01*
X122963809Y-72514285D01*
X122963809Y-72704761D01*
X123392380Y-72085714D02*
X122392380Y-72085714D01*
X123392380Y-71514285D01*
X122392380Y-71514285D01*
X123392380Y-71038095D02*
X122392380Y-71038095D01*
X122392380Y-70800000D01*
X122440000Y-70657142D01*
X122535238Y-70561904D01*
X122630476Y-70514285D01*
X122820952Y-70466666D01*
X122963809Y-70466666D01*
X123154285Y-70514285D01*
X123249523Y-70561904D01*
X123344761Y-70657142D01*
X123392380Y-70800000D01*
X123392380Y-71038095D01*
X120566666Y-73719047D02*
X120566666Y-73242857D01*
X120852380Y-73814285D02*
X119852380Y-73480952D01*
X120852380Y-73147619D01*
X120852380Y-72242857D02*
X120376190Y-72576190D01*
X120852380Y-72814285D02*
X119852380Y-72814285D01*
X119852380Y-72433333D01*
X119900000Y-72338095D01*
X119947619Y-72290476D01*
X120042857Y-72242857D01*
X120185714Y-72242857D01*
X120280952Y-72290476D01*
X120328571Y-72338095D01*
X120376190Y-72433333D01*
X120376190Y-72814285D01*
X120328571Y-71814285D02*
X120328571Y-71480952D01*
X120852380Y-71338095D02*
X120852380Y-71814285D01*
X119852380Y-71814285D01*
X119852380Y-71338095D01*
X120328571Y-70576190D02*
X120328571Y-70909523D01*
X120852380Y-70909523D02*
X119852380Y-70909523D01*
X119852380Y-70433333D01*
X160228333Y-114862857D02*
X160228333Y-114267619D01*
X160585476Y-114981904D02*
X159335476Y-114565238D01*
X160585476Y-114148571D01*
X159335476Y-113136666D02*
X159335476Y-113731904D01*
X159930714Y-113791428D01*
X159871190Y-113731904D01*
X159811666Y-113612857D01*
X159811666Y-113315238D01*
X159871190Y-113196190D01*
X159930714Y-113136666D01*
X160049761Y-113077142D01*
X160347380Y-113077142D01*
X160466428Y-113136666D01*
X160525952Y-113196190D01*
X160585476Y-113315238D01*
X160585476Y-113612857D01*
X160525952Y-113731904D01*
X160466428Y-113791428D01*
X157688333Y-114852857D02*
X157688333Y-114257619D01*
X158045476Y-114971904D02*
X156795476Y-114555238D01*
X158045476Y-114138571D01*
X157212142Y-113186190D02*
X158045476Y-113186190D01*
X156735952Y-113483809D02*
X157628809Y-113781428D01*
X157628809Y-113007619D01*
X155148333Y-114852857D02*
X155148333Y-114257619D01*
X155505476Y-114971904D02*
X154255476Y-114555238D01*
X155505476Y-114138571D01*
X154255476Y-113840952D02*
X154255476Y-113067142D01*
X154731666Y-113483809D01*
X154731666Y-113305238D01*
X154791190Y-113186190D01*
X154850714Y-113126666D01*
X154969761Y-113067142D01*
X155267380Y-113067142D01*
X155386428Y-113126666D01*
X155445952Y-113186190D01*
X155505476Y-113305238D01*
X155505476Y-113662380D01*
X155445952Y-113781428D01*
X155386428Y-113840952D01*
X152608333Y-114852857D02*
X152608333Y-114257619D01*
X152965476Y-114971904D02*
X151715476Y-114555238D01*
X152965476Y-114138571D01*
X151834523Y-113781428D02*
X151775000Y-113721904D01*
X151715476Y-113602857D01*
X151715476Y-113305238D01*
X151775000Y-113186190D01*
X151834523Y-113126666D01*
X151953571Y-113067142D01*
X152072619Y-113067142D01*
X152251190Y-113126666D01*
X152965476Y-113840952D01*
X152965476Y-113067142D01*
X150068333Y-114852857D02*
X150068333Y-114257619D01*
X150425476Y-114971904D02*
X149175476Y-114555238D01*
X150425476Y-114138571D01*
X150425476Y-113067142D02*
X150425476Y-113781428D01*
X150425476Y-113424285D02*
X149175476Y-113424285D01*
X149354047Y-113543333D01*
X149473095Y-113662380D01*
X149532619Y-113781428D01*
X147528333Y-114852857D02*
X147528333Y-114257619D01*
X147885476Y-114971904D02*
X146635476Y-114555238D01*
X147885476Y-114138571D01*
X146635476Y-113483809D02*
X146635476Y-113364761D01*
X146695000Y-113245714D01*
X146754523Y-113186190D01*
X146873571Y-113126666D01*
X147111666Y-113067142D01*
X147409285Y-113067142D01*
X147647380Y-113126666D01*
X147766428Y-113186190D01*
X147825952Y-113245714D01*
X147885476Y-113364761D01*
X147885476Y-113483809D01*
X147825952Y-113602857D01*
X147766428Y-113662380D01*
X147647380Y-113721904D01*
X147409285Y-113781428D01*
X147111666Y-113781428D01*
X146873571Y-113721904D01*
X146754523Y-113662380D01*
X146695000Y-113602857D01*
X146635476Y-113483809D01*
X141702380Y-114973809D02*
X142702380Y-114640476D01*
X141702380Y-114307142D01*
X142702380Y-113973809D02*
X142035714Y-113973809D01*
X141702380Y-113973809D02*
X141750000Y-114021428D01*
X141797619Y-113973809D01*
X141750000Y-113926190D01*
X141702380Y-113973809D01*
X141797619Y-113973809D01*
X142035714Y-113497619D02*
X142702380Y-113497619D01*
X142130952Y-113497619D02*
X142083333Y-113450000D01*
X142035714Y-113354761D01*
X142035714Y-113211904D01*
X142083333Y-113116666D01*
X142178571Y-113069047D01*
X142702380Y-113069047D01*
X139210000Y-114401904D02*
X139162380Y-114497142D01*
X139162380Y-114640000D01*
X139210000Y-114782857D01*
X139305238Y-114878095D01*
X139400476Y-114925714D01*
X139590952Y-114973333D01*
X139733809Y-114973333D01*
X139924285Y-114925714D01*
X140019523Y-114878095D01*
X140114761Y-114782857D01*
X140162380Y-114640000D01*
X140162380Y-114544761D01*
X140114761Y-114401904D01*
X140067142Y-114354285D01*
X139733809Y-114354285D01*
X139733809Y-114544761D01*
X140162380Y-113925714D02*
X139162380Y-113925714D01*
X140162380Y-113354285D01*
X139162380Y-113354285D01*
X140162380Y-112878095D02*
X139162380Y-112878095D01*
X139162380Y-112640000D01*
X139210000Y-112497142D01*
X139305238Y-112401904D01*
X139400476Y-112354285D01*
X139590952Y-112306666D01*
X139733809Y-112306666D01*
X139924285Y-112354285D01*
X140019523Y-112401904D01*
X140114761Y-112497142D01*
X140162380Y-112640000D01*
X140162380Y-112878095D01*
X136660000Y-114401904D02*
X136612380Y-114497142D01*
X136612380Y-114640000D01*
X136660000Y-114782857D01*
X136755238Y-114878095D01*
X136850476Y-114925714D01*
X137040952Y-114973333D01*
X137183809Y-114973333D01*
X137374285Y-114925714D01*
X137469523Y-114878095D01*
X137564761Y-114782857D01*
X137612380Y-114640000D01*
X137612380Y-114544761D01*
X137564761Y-114401904D01*
X137517142Y-114354285D01*
X137183809Y-114354285D01*
X137183809Y-114544761D01*
X137612380Y-113925714D02*
X136612380Y-113925714D01*
X137612380Y-113354285D01*
X136612380Y-113354285D01*
X137612380Y-112878095D02*
X136612380Y-112878095D01*
X136612380Y-112640000D01*
X136660000Y-112497142D01*
X136755238Y-112401904D01*
X136850476Y-112354285D01*
X137040952Y-112306666D01*
X137183809Y-112306666D01*
X137374285Y-112354285D01*
X137469523Y-112401904D01*
X137564761Y-112497142D01*
X137612380Y-112640000D01*
X137612380Y-112878095D01*
X134082380Y-114470476D02*
X134082380Y-114946666D01*
X134558571Y-114994285D01*
X134510952Y-114946666D01*
X134463333Y-114851428D01*
X134463333Y-114613333D01*
X134510952Y-114518095D01*
X134558571Y-114470476D01*
X134653809Y-114422857D01*
X134891904Y-114422857D01*
X134987142Y-114470476D01*
X135034761Y-114518095D01*
X135082380Y-114613333D01*
X135082380Y-114851428D01*
X135034761Y-114946666D01*
X134987142Y-114994285D01*
X134082380Y-114137142D02*
X135082380Y-113803809D01*
X134082380Y-113470476D01*
X131542380Y-115006190D02*
X131542380Y-114387142D01*
X131923333Y-114720476D01*
X131923333Y-114577619D01*
X131970952Y-114482380D01*
X132018571Y-114434761D01*
X132113809Y-114387142D01*
X132351904Y-114387142D01*
X132447142Y-114434761D01*
X132494761Y-114482380D01*
X132542380Y-114577619D01*
X132542380Y-114863333D01*
X132494761Y-114958571D01*
X132447142Y-115006190D01*
X132447142Y-113958571D02*
X132494761Y-113910952D01*
X132542380Y-113958571D01*
X132494761Y-114006190D01*
X132447142Y-113958571D01*
X132542380Y-113958571D01*
X131542380Y-113577619D02*
X131542380Y-112958571D01*
X131923333Y-113291904D01*
X131923333Y-113149047D01*
X131970952Y-113053809D01*
X132018571Y-113006190D01*
X132113809Y-112958571D01*
X132351904Y-112958571D01*
X132447142Y-113006190D01*
X132494761Y-113053809D01*
X132542380Y-113149047D01*
X132542380Y-113434761D01*
X132494761Y-113530000D01*
X132447142Y-113577619D01*
X131542380Y-112672857D02*
X132542380Y-112339523D01*
X131542380Y-112006190D01*
X130012380Y-114482380D02*
X129536190Y-114815714D01*
X130012380Y-115053809D02*
X129012380Y-115053809D01*
X129012380Y-114672857D01*
X129060000Y-114577619D01*
X129107619Y-114530000D01*
X129202857Y-114482380D01*
X129345714Y-114482380D01*
X129440952Y-114530000D01*
X129488571Y-114577619D01*
X129536190Y-114672857D01*
X129536190Y-115053809D01*
X129488571Y-114053809D02*
X129488571Y-113720476D01*
X130012380Y-113577619D02*
X130012380Y-114053809D01*
X129012380Y-114053809D01*
X129012380Y-113577619D01*
X129964761Y-113196666D02*
X130012380Y-113053809D01*
X130012380Y-112815714D01*
X129964761Y-112720476D01*
X129917142Y-112672857D01*
X129821904Y-112625238D01*
X129726666Y-112625238D01*
X129631428Y-112672857D01*
X129583809Y-112720476D01*
X129536190Y-112815714D01*
X129488571Y-113006190D01*
X129440952Y-113101428D01*
X129393333Y-113149047D01*
X129298095Y-113196666D01*
X129202857Y-113196666D01*
X129107619Y-113149047D01*
X129060000Y-113101428D01*
X129012380Y-113006190D01*
X129012380Y-112768095D01*
X129060000Y-112625238D01*
X129488571Y-112196666D02*
X129488571Y-111863333D01*
X130012380Y-111720476D02*
X130012380Y-112196666D01*
X129012380Y-112196666D01*
X129012380Y-111720476D01*
X129012380Y-111434761D02*
X129012380Y-110863333D01*
X130012380Y-111149047D02*
X129012380Y-111149047D01*
X127462380Y-115024761D02*
X126462380Y-115024761D01*
X126462380Y-114358095D02*
X126462380Y-114167619D01*
X126510000Y-114072380D01*
X126605238Y-113977142D01*
X126795714Y-113929523D01*
X127129047Y-113929523D01*
X127319523Y-113977142D01*
X127414761Y-114072380D01*
X127462380Y-114167619D01*
X127462380Y-114358095D01*
X127414761Y-114453333D01*
X127319523Y-114548571D01*
X127129047Y-114596190D01*
X126795714Y-114596190D01*
X126605238Y-114548571D01*
X126510000Y-114453333D01*
X126462380Y-114358095D01*
X127462380Y-112929523D02*
X126986190Y-113262857D01*
X127462380Y-113500952D02*
X126462380Y-113500952D01*
X126462380Y-113120000D01*
X126510000Y-113024761D01*
X126557619Y-112977142D01*
X126652857Y-112929523D01*
X126795714Y-112929523D01*
X126890952Y-112977142D01*
X126938571Y-113024761D01*
X126986190Y-113120000D01*
X126986190Y-113500952D01*
X126938571Y-112500952D02*
X126938571Y-112167619D01*
X127462380Y-112024761D02*
X127462380Y-112500952D01*
X126462380Y-112500952D01*
X126462380Y-112024761D01*
X126938571Y-111262857D02*
X126938571Y-111596190D01*
X127462380Y-111596190D02*
X126462380Y-111596190D01*
X126462380Y-111120000D01*
D12*
G04 #@! TO.C,J13*
X116360000Y-117990000D02*
X116360000Y-116660000D01*
X117690000Y-117990000D02*
X116360000Y-117990000D01*
X118960000Y-117990000D02*
X118960000Y-115330000D01*
X118960000Y-115330000D02*
X121560000Y-115330000D01*
X118960000Y-117990000D02*
X121560000Y-117990000D01*
X121560000Y-117990000D02*
X121560000Y-115330000D01*
D13*
G04 #@! TO.C,U2*
X120543566Y-93766600D02*
G75*
G03X120543566Y-93766600I-240966J0D01*
G01*
X145270800Y-94985800D02*
X145270800Y-93030000D01*
X145270800Y-93030000D02*
X141994200Y-93030000D01*
X141968800Y-105730000D02*
X145270800Y-105730000D01*
X145270800Y-105730000D02*
X145270800Y-103774200D01*
X131808800Y-105730000D02*
X134475800Y-105730000D01*
X131808800Y-93030000D02*
X134475800Y-93030000D01*
X119769200Y-105730000D02*
X121775800Y-105730000D01*
X119769200Y-103774200D02*
X119769200Y-105730000D01*
X119769200Y-93030000D02*
X121750400Y-93030000D01*
X119769200Y-94960400D02*
X119769200Y-93030000D01*
D11*
G04 #@! TO.C,R7*
X148495000Y-103680000D02*
X148495000Y-104680000D01*
X147145000Y-104680000D02*
X147145000Y-103680000D01*
D12*
G04 #@! TO.C,J6*
X114590000Y-97690000D02*
X117250000Y-97690000D01*
X114590000Y-92550000D02*
X114590000Y-97690000D01*
X117250000Y-92550000D02*
X117250000Y-97690000D01*
X114590000Y-92550000D02*
X117250000Y-92550000D01*
X114590000Y-91280000D02*
X114590000Y-89950000D01*
X114590000Y-89950000D02*
X115920000Y-89950000D01*
G04 #@! TO.C,J17*
X138265000Y-74950000D02*
X138265000Y-77610000D01*
X153565000Y-74950000D02*
X138265000Y-74950000D01*
X153565000Y-77610000D02*
X138265000Y-77610000D01*
X153565000Y-74950000D02*
X153565000Y-77610000D01*
X154835000Y-74950000D02*
X156165000Y-74950000D01*
X156165000Y-74950000D02*
X156165000Y-76280000D01*
D11*
G04 #@! TO.C,R10*
X149745000Y-104680000D02*
X149745000Y-103680000D01*
X151095000Y-103680000D02*
X151095000Y-104680000D01*
D12*
G04 #@! TO.C,J14*
X138265000Y-77650000D02*
X138265000Y-80310000D01*
X153565000Y-77650000D02*
X138265000Y-77650000D01*
X153565000Y-80310000D02*
X138265000Y-80310000D01*
X153565000Y-77650000D02*
X153565000Y-80310000D01*
X154835000Y-77650000D02*
X156165000Y-77650000D01*
X156165000Y-77650000D02*
X156165000Y-78980000D01*
G04 #@! TO.C,J19*
X114590000Y-103150000D02*
X115920000Y-103150000D01*
X114590000Y-104480000D02*
X114590000Y-103150000D01*
X114590000Y-105750000D02*
X117250000Y-105750000D01*
X117250000Y-105750000D02*
X117250000Y-110890000D01*
X114590000Y-105750000D02*
X114590000Y-110890000D01*
X114590000Y-110890000D02*
X117250000Y-110890000D01*
G04 #@! TO.C,J20*
X114590000Y-84490000D02*
X117250000Y-84490000D01*
X114590000Y-79350000D02*
X114590000Y-84490000D01*
X117250000Y-79350000D02*
X117250000Y-84490000D01*
X114590000Y-79350000D02*
X117250000Y-79350000D01*
X114590000Y-78080000D02*
X114590000Y-76750000D01*
X114590000Y-76750000D02*
X115920000Y-76750000D01*
G04 #@! TO.C,J18*
X156165000Y-72250000D02*
X156165000Y-73580000D01*
X154835000Y-72250000D02*
X156165000Y-72250000D01*
X153565000Y-72250000D02*
X153565000Y-74910000D01*
X153565000Y-74910000D02*
X138265000Y-74910000D01*
X153565000Y-72250000D02*
X138265000Y-72250000D01*
X138265000Y-72250000D02*
X138265000Y-74910000D01*
D11*
G04 #@! TO.C,R8*
X148620000Y-101205000D02*
X149620000Y-101205000D01*
X149620000Y-102555000D02*
X148620000Y-102555000D01*
D12*
G04 #@! TO.C,JP16*
X157780000Y-112020000D02*
X155780000Y-112020000D01*
X157780000Y-109220000D02*
X157780000Y-112020000D01*
X155780000Y-109220000D02*
X157780000Y-109220000D01*
X155780000Y-112020000D02*
X155780000Y-109220000D01*
G04 #@! TO.C,U1*
X134410000Y-108880000D02*
X134410000Y-110680000D01*
X137630000Y-110680000D02*
X137630000Y-108230000D01*
G04 #@! TO.C,U4*
X153630000Y-91960000D02*
X151830000Y-91960000D01*
X151830000Y-95180000D02*
X154280000Y-95180000D01*
G04 #@! TO.C,J12*
X158860000Y-95370000D02*
X164060000Y-95370000D01*
X158860000Y-90230000D02*
X158860000Y-95370000D01*
X164060000Y-87630000D02*
X164060000Y-95370000D01*
X158860000Y-90230000D02*
X161460000Y-90230000D01*
X161460000Y-90230000D02*
X161460000Y-87630000D01*
X161460000Y-87630000D02*
X164060000Y-87630000D01*
X158860000Y-88960000D02*
X158860000Y-87630000D01*
X158860000Y-87630000D02*
X160190000Y-87630000D01*
G04 #@! TO.C,J5*
X159770000Y-98650000D02*
X161770000Y-98650000D01*
X159770000Y-105250000D02*
X161770000Y-105250000D01*
X164070000Y-100950000D02*
X164070000Y-102950000D01*
X157470000Y-100950000D02*
X157470000Y-102950000D01*
D11*
G04 #@! TO.C,U3*
X153470000Y-85030000D02*
X152970000Y-85030000D01*
X153470000Y-87930000D02*
X153470000Y-85030000D01*
X152970000Y-87930000D02*
X153470000Y-87930000D01*
X152970000Y-85030000D02*
X152970000Y-87930000D01*
D12*
G04 #@! TO.C,J9*
X104500000Y-86690000D02*
X108750000Y-86690000D01*
X108750000Y-86690000D02*
X108750000Y-85670000D01*
X108750000Y-85670000D02*
X107150000Y-85670000D01*
X107150000Y-85670000D02*
X107150000Y-84390000D01*
X107150000Y-84390000D02*
X110040000Y-84390000D01*
X104500000Y-74570000D02*
X108750000Y-74570000D01*
X108750000Y-74570000D02*
X108750000Y-75590000D01*
X108750000Y-75590000D02*
X107150000Y-75590000D01*
X107150000Y-75590000D02*
X107150000Y-76870000D01*
X99837800Y-84970000D02*
X99837800Y-76290000D01*
G04 #@! TO.C,J8*
X104500000Y-99920000D02*
X108750000Y-99920000D01*
X108750000Y-99920000D02*
X108750000Y-98900000D01*
X108750000Y-98900000D02*
X107150000Y-98900000D01*
X107150000Y-98900000D02*
X107150000Y-97620000D01*
X107150000Y-97620000D02*
X110040000Y-97620000D01*
X104500000Y-87800000D02*
X108750000Y-87800000D01*
X108750000Y-87800000D02*
X108750000Y-88820000D01*
X108750000Y-88820000D02*
X107150000Y-88820000D01*
X107150000Y-88820000D02*
X107150000Y-90100000D01*
X99837800Y-98200000D02*
X99837800Y-89520000D01*
G04 #@! TO.C,J7*
X104500000Y-113140000D02*
X108750000Y-113140000D01*
X108750000Y-113140000D02*
X108750000Y-112120000D01*
X108750000Y-112120000D02*
X107150000Y-112120000D01*
X107150000Y-112120000D02*
X107150000Y-110840000D01*
X107150000Y-110840000D02*
X110040000Y-110840000D01*
X104500000Y-101020000D02*
X108750000Y-101020000D01*
X108750000Y-101020000D02*
X108750000Y-102040000D01*
X108750000Y-102040000D02*
X107150000Y-102040000D01*
X107150000Y-102040000D02*
X107150000Y-103320000D01*
X99837800Y-111420000D02*
X99837800Y-102740000D01*
D11*
G04 #@! TO.C,R6*
X122295000Y-109780000D02*
X122295000Y-110780000D01*
X120945000Y-110780000D02*
X120945000Y-109780000D01*
G04 #@! TO.C,L1*
X147215000Y-94460000D02*
X147215000Y-93460000D01*
X148565000Y-93460000D02*
X148565000Y-94460000D01*
G04 #@! TO.C,R1*
X140395000Y-109880000D02*
X140395000Y-110880000D01*
X139045000Y-110880000D02*
X139045000Y-109880000D01*
G04 #@! TO.C,R2*
X117655000Y-80960000D02*
X117655000Y-79960000D01*
X119005000Y-79960000D02*
X119005000Y-80960000D01*
G04 #@! TO.C,R3*
X119345000Y-80950000D02*
X119345000Y-79950000D01*
X120695000Y-79950000D02*
X120695000Y-80950000D01*
G04 #@! TO.C,R4*
X149025000Y-94460000D02*
X149025000Y-93460000D01*
X150375000Y-93460000D02*
X150375000Y-94460000D01*
G04 #@! TO.C,R5*
X120395000Y-109780000D02*
X120395000Y-110780000D01*
X119045000Y-110780000D02*
X119045000Y-109780000D01*
D12*
G04 #@! TO.C,JP15*
X155280000Y-112020000D02*
X153280000Y-112020000D01*
X155280000Y-109220000D02*
X155280000Y-112020000D01*
X153280000Y-109220000D02*
X155280000Y-109220000D01*
X153280000Y-112020000D02*
X153280000Y-109220000D01*
D14*
G04 #@! TO.C,G2*
G36*
X136373685Y-81623158D02*
X121133685Y-81623158D01*
X121133685Y-74404211D01*
X136373685Y-74404211D01*
X136373685Y-81623158D01*
X136373685Y-81623158D01*
G37*
X136373685Y-81623158D02*
X121133685Y-81623158D01*
X121133685Y-74404211D01*
X136373685Y-74404211D01*
X136373685Y-81623158D01*
G04 #@! TO.C,G3*
G36*
X104637590Y-71610625D02*
X104711664Y-71673231D01*
X104758724Y-71789716D01*
X104772857Y-71929208D01*
X104756357Y-72098630D01*
X104705195Y-72205366D01*
X104616875Y-72251777D01*
X104488905Y-72240230D01*
X104455357Y-72230203D01*
X104411470Y-72219758D01*
X104387030Y-72234524D01*
X104376356Y-72288980D01*
X104373765Y-72397602D01*
X104373714Y-72438245D01*
X104373714Y-72673094D01*
X104512359Y-72654498D01*
X104626751Y-72651583D01*
X104703355Y-72685450D01*
X104748741Y-72765500D01*
X104769480Y-72901138D01*
X104772857Y-73027306D01*
X104769960Y-73170071D01*
X104759499Y-73253588D01*
X104738815Y-73291014D01*
X104718429Y-73296857D01*
X104686660Y-73279981D01*
X104669697Y-73220235D01*
X104664079Y-73103942D01*
X104664000Y-73081735D01*
X104649955Y-72923434D01*
X104610743Y-72811695D01*
X104550752Y-72756913D01*
X104525337Y-72753127D01*
X104457084Y-72778241D01*
X104411881Y-72855351D01*
X104385864Y-72992601D01*
X104380437Y-73058516D01*
X104366331Y-73198524D01*
X104344648Y-73274996D01*
X104315059Y-73296857D01*
X104298582Y-73285552D01*
X104286003Y-73246377D01*
X104276845Y-73171443D01*
X104270633Y-73052861D01*
X104266892Y-72882743D01*
X104265147Y-72653199D01*
X104264857Y-72463746D01*
X104264857Y-71973393D01*
X104390696Y-71973393D01*
X104407910Y-72039503D01*
X104464807Y-72117563D01*
X104538822Y-72133210D01*
X104609437Y-72086081D01*
X104634983Y-72043538D01*
X104658915Y-71933458D01*
X104637178Y-71835018D01*
X104578187Y-71769537D01*
X104521007Y-71754714D01*
X104442652Y-71785587D01*
X104396603Y-71865054D01*
X104390696Y-71973393D01*
X104264857Y-71973393D01*
X104264857Y-71630636D01*
X104364643Y-71633462D01*
X104471494Y-71626034D01*
X104542717Y-71610504D01*
X104637590Y-71610625D01*
X104637590Y-71610625D01*
G37*
X104637590Y-71610625D02*
X104711664Y-71673231D01*
X104758724Y-71789716D01*
X104772857Y-71929208D01*
X104756357Y-72098630D01*
X104705195Y-72205366D01*
X104616875Y-72251777D01*
X104488905Y-72240230D01*
X104455357Y-72230203D01*
X104411470Y-72219758D01*
X104387030Y-72234524D01*
X104376356Y-72288980D01*
X104373765Y-72397602D01*
X104373714Y-72438245D01*
X104373714Y-72673094D01*
X104512359Y-72654498D01*
X104626751Y-72651583D01*
X104703355Y-72685450D01*
X104748741Y-72765500D01*
X104769480Y-72901138D01*
X104772857Y-73027306D01*
X104769960Y-73170071D01*
X104759499Y-73253588D01*
X104738815Y-73291014D01*
X104718429Y-73296857D01*
X104686660Y-73279981D01*
X104669697Y-73220235D01*
X104664079Y-73103942D01*
X104664000Y-73081735D01*
X104649955Y-72923434D01*
X104610743Y-72811695D01*
X104550752Y-72756913D01*
X104525337Y-72753127D01*
X104457084Y-72778241D01*
X104411881Y-72855351D01*
X104385864Y-72992601D01*
X104380437Y-73058516D01*
X104366331Y-73198524D01*
X104344648Y-73274996D01*
X104315059Y-73296857D01*
X104298582Y-73285552D01*
X104286003Y-73246377D01*
X104276845Y-73171443D01*
X104270633Y-73052861D01*
X104266892Y-72882743D01*
X104265147Y-72653199D01*
X104264857Y-72463746D01*
X104264857Y-71973393D01*
X104390696Y-71973393D01*
X104407910Y-72039503D01*
X104464807Y-72117563D01*
X104538822Y-72133210D01*
X104609437Y-72086081D01*
X104634983Y-72043538D01*
X104658915Y-71933458D01*
X104637178Y-71835018D01*
X104578187Y-71769537D01*
X104521007Y-71754714D01*
X104442652Y-71785587D01*
X104396603Y-71865054D01*
X104390696Y-71973393D01*
X104264857Y-71973393D01*
X104264857Y-71630636D01*
X104364643Y-71633462D01*
X104471494Y-71626034D01*
X104542717Y-71610504D01*
X104637590Y-71610625D01*
G36*
X105273696Y-72668131D02*
X105332694Y-72700735D01*
X105366431Y-72761517D01*
X105384635Y-72868188D01*
X105389714Y-73020895D01*
X105389714Y-73284035D01*
X105194611Y-73289169D01*
X105060760Y-73284627D01*
X104977258Y-73259067D01*
X104940611Y-73229222D01*
X104887562Y-73129986D01*
X104896721Y-73044447D01*
X105007732Y-73044447D01*
X105007863Y-73101444D01*
X105054055Y-73157439D01*
X105123921Y-73187320D01*
X105135714Y-73188000D01*
X105212354Y-73161830D01*
X105243252Y-73135161D01*
X105270064Y-73068923D01*
X105232012Y-73023452D01*
X105135714Y-73006571D01*
X105052343Y-73018497D01*
X105007732Y-73044447D01*
X104896721Y-73044447D01*
X104897782Y-73034540D01*
X104962561Y-72955929D01*
X105073190Y-72907199D01*
X105161931Y-72897714D01*
X105251003Y-72889479D01*
X105276953Y-72858020D01*
X105248039Y-72793210D01*
X105247648Y-72792591D01*
X105191228Y-72758915D01*
X105085582Y-72762988D01*
X104989903Y-72765869D01*
X104932506Y-72744393D01*
X104926089Y-72707215D01*
X104958709Y-72676499D01*
X105048285Y-72649026D01*
X105164777Y-72646982D01*
X105273696Y-72668131D01*
X105273696Y-72668131D01*
G37*
X105273696Y-72668131D02*
X105332694Y-72700735D01*
X105366431Y-72761517D01*
X105384635Y-72868188D01*
X105389714Y-73020895D01*
X105389714Y-73284035D01*
X105194611Y-73289169D01*
X105060760Y-73284627D01*
X104977258Y-73259067D01*
X104940611Y-73229222D01*
X104887562Y-73129986D01*
X104896721Y-73044447D01*
X105007732Y-73044447D01*
X105007863Y-73101444D01*
X105054055Y-73157439D01*
X105123921Y-73187320D01*
X105135714Y-73188000D01*
X105212354Y-73161830D01*
X105243252Y-73135161D01*
X105270064Y-73068923D01*
X105232012Y-73023452D01*
X105135714Y-73006571D01*
X105052343Y-73018497D01*
X105007732Y-73044447D01*
X104896721Y-73044447D01*
X104897782Y-73034540D01*
X104962561Y-72955929D01*
X105073190Y-72907199D01*
X105161931Y-72897714D01*
X105251003Y-72889479D01*
X105276953Y-72858020D01*
X105248039Y-72793210D01*
X105247648Y-72792591D01*
X105191228Y-72758915D01*
X105085582Y-72762988D01*
X104989903Y-72765869D01*
X104932506Y-72744393D01*
X104926089Y-72707215D01*
X104958709Y-72676499D01*
X105048285Y-72649026D01*
X105164777Y-72646982D01*
X105273696Y-72668131D01*
G36*
X105836085Y-72651876D02*
X105918627Y-72660260D01*
X105942504Y-72667113D01*
X105954316Y-72702778D01*
X105922415Y-72743617D01*
X105870250Y-72767315D01*
X105840171Y-72764498D01*
X105762666Y-72763916D01*
X105710448Y-72831024D01*
X105683739Y-72965406D01*
X105680000Y-73065443D01*
X105677652Y-73191624D01*
X105667229Y-73261466D01*
X105643659Y-73291136D01*
X105607429Y-73296857D01*
X105572799Y-73291349D01*
X105551349Y-73265568D01*
X105539959Y-73205633D01*
X105535512Y-73097659D01*
X105534857Y-72973769D01*
X105534857Y-72650680D01*
X105723028Y-72649223D01*
X105836085Y-72651876D01*
X105836085Y-72651876D01*
G37*
X105836085Y-72651876D02*
X105918627Y-72660260D01*
X105942504Y-72667113D01*
X105954316Y-72702778D01*
X105922415Y-72743617D01*
X105870250Y-72767315D01*
X105840171Y-72764498D01*
X105762666Y-72763916D01*
X105710448Y-72831024D01*
X105683739Y-72965406D01*
X105680000Y-73065443D01*
X105677652Y-73191624D01*
X105667229Y-73261466D01*
X105643659Y-73291136D01*
X105607429Y-73296857D01*
X105572799Y-73291349D01*
X105551349Y-73265568D01*
X105539959Y-73205633D01*
X105535512Y-73097659D01*
X105534857Y-72973769D01*
X105534857Y-72650680D01*
X105723028Y-72649223D01*
X105836085Y-72651876D01*
G36*
X106472117Y-72393845D02*
X106492510Y-72414098D01*
X106505064Y-72462261D01*
X106511666Y-72550124D01*
X106514203Y-72689475D01*
X106514572Y-72843286D01*
X106513911Y-73031519D01*
X106510670Y-73158972D01*
X106502964Y-73237436D01*
X106488906Y-73278699D01*
X106466610Y-73294550D01*
X106442000Y-73296857D01*
X106383090Y-73278667D01*
X106369429Y-73253314D01*
X106358719Y-73228069D01*
X106325886Y-73253314D01*
X106244815Y-73291045D01*
X106142960Y-73288876D01*
X106087552Y-73266536D01*
X106033226Y-73194766D01*
X106000356Y-73078166D01*
X105991942Y-72968681D01*
X106115429Y-72968681D01*
X106123575Y-73080222D01*
X106155996Y-73134864D01*
X106224662Y-73147231D01*
X106259214Y-73144309D01*
X106316813Y-73129800D01*
X106343642Y-73090135D01*
X106351108Y-73004243D01*
X106351286Y-72974240D01*
X106337323Y-72846755D01*
X106293840Y-72778764D01*
X106290827Y-72776773D01*
X106215791Y-72761226D01*
X106155659Y-72807073D01*
X106120500Y-72903298D01*
X106115429Y-72968681D01*
X105991942Y-72968681D01*
X105989853Y-72941509D01*
X106002627Y-72809570D01*
X106039589Y-72707120D01*
X106065835Y-72675987D01*
X106137406Y-72652077D01*
X106241801Y-72654727D01*
X106242736Y-72654878D01*
X106369429Y-72675437D01*
X106369429Y-72532576D01*
X106375724Y-72438532D01*
X106401069Y-72397377D01*
X106442000Y-72389714D01*
X106472117Y-72393845D01*
X106472117Y-72393845D01*
G37*
X106472117Y-72393845D02*
X106492510Y-72414098D01*
X106505064Y-72462261D01*
X106511666Y-72550124D01*
X106514203Y-72689475D01*
X106514572Y-72843286D01*
X106513911Y-73031519D01*
X106510670Y-73158972D01*
X106502964Y-73237436D01*
X106488906Y-73278699D01*
X106466610Y-73294550D01*
X106442000Y-73296857D01*
X106383090Y-73278667D01*
X106369429Y-73253314D01*
X106358719Y-73228069D01*
X106325886Y-73253314D01*
X106244815Y-73291045D01*
X106142960Y-73288876D01*
X106087552Y-73266536D01*
X106033226Y-73194766D01*
X106000356Y-73078166D01*
X105991942Y-72968681D01*
X106115429Y-72968681D01*
X106123575Y-73080222D01*
X106155996Y-73134864D01*
X106224662Y-73147231D01*
X106259214Y-73144309D01*
X106316813Y-73129800D01*
X106343642Y-73090135D01*
X106351108Y-73004243D01*
X106351286Y-72974240D01*
X106337323Y-72846755D01*
X106293840Y-72778764D01*
X106290827Y-72776773D01*
X106215791Y-72761226D01*
X106155659Y-72807073D01*
X106120500Y-72903298D01*
X106115429Y-72968681D01*
X105991942Y-72968681D01*
X105989853Y-72941509D01*
X106002627Y-72809570D01*
X106039589Y-72707120D01*
X106065835Y-72675987D01*
X106137406Y-72652077D01*
X106241801Y-72654727D01*
X106242736Y-72654878D01*
X106369429Y-72675437D01*
X106369429Y-72532576D01*
X106375724Y-72438532D01*
X106401069Y-72397377D01*
X106442000Y-72389714D01*
X106472117Y-72393845D01*
G36*
X107478976Y-72658539D02*
X107476615Y-72714693D01*
X107475172Y-72719344D01*
X107396662Y-72958734D01*
X107332795Y-73131067D01*
X107280178Y-73239583D01*
X107235416Y-73287520D01*
X107195115Y-73278116D01*
X107155883Y-73214611D01*
X107114324Y-73100241D01*
X107105576Y-73072014D01*
X107035978Y-72843286D01*
X106965775Y-73060664D01*
X106913293Y-73201252D01*
X106865712Y-73274255D01*
X106819161Y-73278787D01*
X106769772Y-73213961D01*
X106713675Y-73078890D01*
X106685710Y-72996488D01*
X106634345Y-72837713D01*
X106604059Y-72735554D01*
X106593729Y-72677533D01*
X106602230Y-72651173D01*
X106628437Y-72643999D01*
X106653919Y-72643714D01*
X106698805Y-72662247D01*
X106735048Y-72726813D01*
X106768572Y-72843286D01*
X106798393Y-72951570D01*
X106825715Y-73024048D01*
X106840312Y-73042857D01*
X106863125Y-73011246D01*
X106897583Y-72929418D01*
X106927085Y-72843286D01*
X106970282Y-72731653D01*
X107013877Y-72660234D01*
X107039419Y-72643714D01*
X107076699Y-72676765D01*
X107121559Y-72766208D01*
X107158362Y-72870500D01*
X107227880Y-73097286D01*
X107293293Y-72870500D01*
X107335402Y-72741655D01*
X107373416Y-72670916D01*
X107415376Y-72644842D01*
X107428941Y-72643714D01*
X107478976Y-72658539D01*
X107478976Y-72658539D01*
G37*
X107478976Y-72658539D02*
X107476615Y-72714693D01*
X107475172Y-72719344D01*
X107396662Y-72958734D01*
X107332795Y-73131067D01*
X107280178Y-73239583D01*
X107235416Y-73287520D01*
X107195115Y-73278116D01*
X107155883Y-73214611D01*
X107114324Y-73100241D01*
X107105576Y-73072014D01*
X107035978Y-72843286D01*
X106965775Y-73060664D01*
X106913293Y-73201252D01*
X106865712Y-73274255D01*
X106819161Y-73278787D01*
X106769772Y-73213961D01*
X106713675Y-73078890D01*
X106685710Y-72996488D01*
X106634345Y-72837713D01*
X106604059Y-72735554D01*
X106593729Y-72677533D01*
X106602230Y-72651173D01*
X106628437Y-72643999D01*
X106653919Y-72643714D01*
X106698805Y-72662247D01*
X106735048Y-72726813D01*
X106768572Y-72843286D01*
X106798393Y-72951570D01*
X106825715Y-73024048D01*
X106840312Y-73042857D01*
X106863125Y-73011246D01*
X106897583Y-72929418D01*
X106927085Y-72843286D01*
X106970282Y-72731653D01*
X107013877Y-72660234D01*
X107039419Y-72643714D01*
X107076699Y-72676765D01*
X107121559Y-72766208D01*
X107158362Y-72870500D01*
X107227880Y-73097286D01*
X107293293Y-72870500D01*
X107335402Y-72741655D01*
X107373416Y-72670916D01*
X107415376Y-72644842D01*
X107428941Y-72643714D01*
X107478976Y-72658539D01*
G36*
X107879059Y-72656364D02*
X107963055Y-72698126D01*
X108012859Y-72785759D01*
X108035340Y-72928804D01*
X108038572Y-73046158D01*
X108038572Y-73287312D01*
X107841826Y-73289079D01*
X107719050Y-73282031D01*
X107619585Y-73262064D01*
X107583290Y-73245665D01*
X107533586Y-73170093D01*
X107525238Y-73069178D01*
X107526830Y-73064662D01*
X107651145Y-73064662D01*
X107654027Y-73131759D01*
X107708376Y-73172963D01*
X107794702Y-73177593D01*
X107836032Y-73165975D01*
X107884456Y-73115466D01*
X107893429Y-73075261D01*
X107864385Y-73026198D01*
X107796572Y-73004420D01*
X107718969Y-73011193D01*
X107660555Y-73047787D01*
X107651145Y-73064662D01*
X107526830Y-73064662D01*
X107557780Y-72976884D01*
X107587400Y-72945901D01*
X107669473Y-72912002D01*
X107774998Y-72897716D01*
X107776025Y-72897714D01*
X107859660Y-72889929D01*
X107887888Y-72860392D01*
X107886178Y-72834214D01*
X107856667Y-72790363D01*
X107780313Y-72772267D01*
X107729303Y-72770714D01*
X107628698Y-72761621D01*
X107587481Y-72731521D01*
X107585000Y-72716286D01*
X107610093Y-72678393D01*
X107692102Y-72656699D01*
X107754003Y-72650934D01*
X107879059Y-72656364D01*
X107879059Y-72656364D01*
G37*
X107879059Y-72656364D02*
X107963055Y-72698126D01*
X108012859Y-72785759D01*
X108035340Y-72928804D01*
X108038572Y-73046158D01*
X108038572Y-73287312D01*
X107841826Y-73289079D01*
X107719050Y-73282031D01*
X107619585Y-73262064D01*
X107583290Y-73245665D01*
X107533586Y-73170093D01*
X107525238Y-73069178D01*
X107526830Y-73064662D01*
X107651145Y-73064662D01*
X107654027Y-73131759D01*
X107708376Y-73172963D01*
X107794702Y-73177593D01*
X107836032Y-73165975D01*
X107884456Y-73115466D01*
X107893429Y-73075261D01*
X107864385Y-73026198D01*
X107796572Y-73004420D01*
X107718969Y-73011193D01*
X107660555Y-73047787D01*
X107651145Y-73064662D01*
X107526830Y-73064662D01*
X107557780Y-72976884D01*
X107587400Y-72945901D01*
X107669473Y-72912002D01*
X107774998Y-72897716D01*
X107776025Y-72897714D01*
X107859660Y-72889929D01*
X107887888Y-72860392D01*
X107886178Y-72834214D01*
X107856667Y-72790363D01*
X107780313Y-72772267D01*
X107729303Y-72770714D01*
X107628698Y-72761621D01*
X107587481Y-72731521D01*
X107585000Y-72716286D01*
X107610093Y-72678393D01*
X107692102Y-72656699D01*
X107754003Y-72650934D01*
X107879059Y-72656364D01*
G36*
X108501398Y-72651222D02*
X108560200Y-72662169D01*
X108577578Y-72688702D01*
X108575743Y-72708310D01*
X108531785Y-72759746D01*
X108462050Y-72772434D01*
X108378435Y-72787781D01*
X108326748Y-72838494D01*
X108300479Y-72936745D01*
X108293127Y-73088214D01*
X108288253Y-73211721D01*
X108272074Y-73276699D01*
X108240998Y-73296781D01*
X108238143Y-73296857D01*
X108211363Y-73283981D01*
X108194782Y-73237029D01*
X108186277Y-73143513D01*
X108183725Y-72990947D01*
X108183715Y-72976697D01*
X108183715Y-72656536D01*
X108385736Y-72651221D01*
X108501398Y-72651222D01*
X108501398Y-72651222D01*
G37*
X108501398Y-72651222D02*
X108560200Y-72662169D01*
X108577578Y-72688702D01*
X108575743Y-72708310D01*
X108531785Y-72759746D01*
X108462050Y-72772434D01*
X108378435Y-72787781D01*
X108326748Y-72838494D01*
X108300479Y-72936745D01*
X108293127Y-73088214D01*
X108288253Y-73211721D01*
X108272074Y-73276699D01*
X108240998Y-73296781D01*
X108238143Y-73296857D01*
X108211363Y-73283981D01*
X108194782Y-73237029D01*
X108186277Y-73143513D01*
X108183725Y-72990947D01*
X108183715Y-72976697D01*
X108183715Y-72656536D01*
X108385736Y-72651221D01*
X108501398Y-72651222D01*
G36*
X109016261Y-72674550D02*
X109105308Y-72766188D01*
X109149391Y-72891024D01*
X109172500Y-73006571D01*
X108968393Y-73006571D01*
X108845685Y-73011477D01*
X108781997Y-73028457D01*
X108764286Y-73059723D01*
X108795158Y-73123413D01*
X108867584Y-73163049D01*
X108951277Y-73164856D01*
X108974884Y-73155523D01*
X109061295Y-73141437D01*
X109092813Y-73154936D01*
X109123068Y-73187811D01*
X109096012Y-73226225D01*
X109074851Y-73243118D01*
X108955378Y-73292638D01*
X108825570Y-73280460D01*
X108709306Y-73208884D01*
X108708208Y-73207792D01*
X108636634Y-73094895D01*
X108615743Y-72965809D01*
X108639117Y-72842147D01*
X108764286Y-72842147D01*
X108789673Y-72882469D01*
X108872671Y-72897388D01*
X108894310Y-72897714D01*
X108984942Y-72887393D01*
X109010849Y-72857758D01*
X109010079Y-72854949D01*
X108962748Y-72791669D01*
X108890490Y-72762071D01*
X108818222Y-72767452D01*
X108770859Y-72809110D01*
X108764286Y-72842147D01*
X108639117Y-72842147D01*
X108639812Y-72838472D01*
X108703113Y-72730817D01*
X108799920Y-72660781D01*
X108888296Y-72643714D01*
X109016261Y-72674550D01*
X109016261Y-72674550D01*
G37*
X109016261Y-72674550D02*
X109105308Y-72766188D01*
X109149391Y-72891024D01*
X109172500Y-73006571D01*
X108968393Y-73006571D01*
X108845685Y-73011477D01*
X108781997Y-73028457D01*
X108764286Y-73059723D01*
X108795158Y-73123413D01*
X108867584Y-73163049D01*
X108951277Y-73164856D01*
X108974884Y-73155523D01*
X109061295Y-73141437D01*
X109092813Y-73154936D01*
X109123068Y-73187811D01*
X109096012Y-73226225D01*
X109074851Y-73243118D01*
X108955378Y-73292638D01*
X108825570Y-73280460D01*
X108709306Y-73208884D01*
X108708208Y-73207792D01*
X108636634Y-73094895D01*
X108615743Y-72965809D01*
X108639117Y-72842147D01*
X108764286Y-72842147D01*
X108789673Y-72882469D01*
X108872671Y-72897388D01*
X108894310Y-72897714D01*
X108984942Y-72887393D01*
X109010849Y-72857758D01*
X109010079Y-72854949D01*
X108962748Y-72791669D01*
X108890490Y-72762071D01*
X108818222Y-72767452D01*
X108770859Y-72809110D01*
X108764286Y-72842147D01*
X108639117Y-72842147D01*
X108639812Y-72838472D01*
X108703113Y-72730817D01*
X108799920Y-72660781D01*
X108888296Y-72643714D01*
X109016261Y-72674550D01*
G36*
X104010228Y-71635883D02*
X104094524Y-71709069D01*
X104140954Y-71840467D01*
X104143725Y-71856414D01*
X104142829Y-72018899D01*
X104088609Y-72146576D01*
X103989712Y-72229405D01*
X103854784Y-72257344D01*
X103802534Y-72252604D01*
X103704043Y-72202651D01*
X103638126Y-72096675D01*
X103611888Y-71946605D01*
X103611715Y-71932089D01*
X103612927Y-71924286D01*
X103750601Y-71924286D01*
X103754217Y-72025772D01*
X103773440Y-72096903D01*
X103773513Y-72097022D01*
X103831522Y-72132213D01*
X103911269Y-72124873D01*
X103972470Y-72083818D01*
X103997967Y-72015256D01*
X104005301Y-71913232D01*
X104004127Y-71893318D01*
X103988103Y-71798785D01*
X103951615Y-71754819D01*
X103906887Y-71742571D01*
X103825728Y-71746729D01*
X103785329Y-71766156D01*
X103761376Y-71826421D01*
X103750601Y-71924286D01*
X103612927Y-71924286D01*
X103636312Y-71773752D01*
X103708411Y-71667800D01*
X103825472Y-71617254D01*
X103879701Y-71613200D01*
X104010228Y-71635883D01*
X104010228Y-71635883D01*
G37*
X104010228Y-71635883D02*
X104094524Y-71709069D01*
X104140954Y-71840467D01*
X104143725Y-71856414D01*
X104142829Y-72018899D01*
X104088609Y-72146576D01*
X103989712Y-72229405D01*
X103854784Y-72257344D01*
X103802534Y-72252604D01*
X103704043Y-72202651D01*
X103638126Y-72096675D01*
X103611888Y-71946605D01*
X103611715Y-71932089D01*
X103612927Y-71924286D01*
X103750601Y-71924286D01*
X103754217Y-72025772D01*
X103773440Y-72096903D01*
X103773513Y-72097022D01*
X103831522Y-72132213D01*
X103911269Y-72124873D01*
X103972470Y-72083818D01*
X103997967Y-72015256D01*
X104005301Y-71913232D01*
X104004127Y-71893318D01*
X103988103Y-71798785D01*
X103951615Y-71754819D01*
X103906887Y-71742571D01*
X103825728Y-71746729D01*
X103785329Y-71766156D01*
X103761376Y-71826421D01*
X103750601Y-71924286D01*
X103612927Y-71924286D01*
X103636312Y-71773752D01*
X103708411Y-71667800D01*
X103825472Y-71617254D01*
X103879701Y-71613200D01*
X104010228Y-71635883D01*
G36*
X105294023Y-71666568D02*
X105294107Y-71666634D01*
X105369509Y-71755736D01*
X105389714Y-71866205D01*
X105389714Y-71990571D01*
X105188866Y-71990571D01*
X105075471Y-71992255D01*
X105020683Y-72001769D01*
X105010545Y-72025807D01*
X105029043Y-72067227D01*
X105068340Y-72116542D01*
X105129392Y-72130335D01*
X105209558Y-72121577D01*
X105313132Y-72116093D01*
X105369464Y-72135508D01*
X105368742Y-72174175D01*
X105343958Y-72198933D01*
X105234820Y-72246574D01*
X105097381Y-72255402D01*
X105072534Y-72252312D01*
X104978189Y-72204858D01*
X104913227Y-72109400D01*
X104881172Y-71985742D01*
X104885549Y-71853686D01*
X104899591Y-71815471D01*
X105006501Y-71815471D01*
X105008427Y-71857021D01*
X105078608Y-71879018D01*
X105135714Y-71881714D01*
X105239215Y-71872638D01*
X105273843Y-71845691D01*
X105272650Y-71838949D01*
X105218887Y-71769215D01*
X105136937Y-71741354D01*
X105074374Y-71757492D01*
X105006501Y-71815471D01*
X104899591Y-71815471D01*
X104929881Y-71733038D01*
X104970779Y-71680493D01*
X105075040Y-71606603D01*
X105178611Y-71602140D01*
X105294023Y-71666568D01*
X105294023Y-71666568D01*
G37*
X105294023Y-71666568D02*
X105294107Y-71666634D01*
X105369509Y-71755736D01*
X105389714Y-71866205D01*
X105389714Y-71990571D01*
X105188866Y-71990571D01*
X105075471Y-71992255D01*
X105020683Y-72001769D01*
X105010545Y-72025807D01*
X105029043Y-72067227D01*
X105068340Y-72116542D01*
X105129392Y-72130335D01*
X105209558Y-72121577D01*
X105313132Y-72116093D01*
X105369464Y-72135508D01*
X105368742Y-72174175D01*
X105343958Y-72198933D01*
X105234820Y-72246574D01*
X105097381Y-72255402D01*
X105072534Y-72252312D01*
X104978189Y-72204858D01*
X104913227Y-72109400D01*
X104881172Y-71985742D01*
X104885549Y-71853686D01*
X104899591Y-71815471D01*
X105006501Y-71815471D01*
X105008427Y-71857021D01*
X105078608Y-71879018D01*
X105135714Y-71881714D01*
X105239215Y-71872638D01*
X105273843Y-71845691D01*
X105272650Y-71838949D01*
X105218887Y-71769215D01*
X105136937Y-71741354D01*
X105074374Y-71757492D01*
X105006501Y-71815471D01*
X104899591Y-71815471D01*
X104929881Y-71733038D01*
X104970779Y-71680493D01*
X105075040Y-71606603D01*
X105178611Y-71602140D01*
X105294023Y-71666568D01*
G36*
X106757283Y-71615674D02*
X106845136Y-71642433D01*
X106892769Y-71687231D01*
X106895572Y-71702592D01*
X106873292Y-71737251D01*
X106798177Y-71745363D01*
X106760451Y-71742914D01*
X106661471Y-71741160D01*
X106592734Y-71752108D01*
X106586332Y-71755215D01*
X106566370Y-71794558D01*
X106599218Y-71838394D01*
X106667703Y-71872024D01*
X106734137Y-71881714D01*
X106847568Y-71908850D01*
X106923006Y-71978387D01*
X106948734Y-72072522D01*
X106919679Y-72163591D01*
X106849974Y-72216033D01*
X106738236Y-72246057D01*
X106613114Y-72247704D01*
X106561715Y-72238041D01*
X106456880Y-72198480D01*
X106422991Y-72153400D01*
X106457312Y-72101778D01*
X106511006Y-72080124D01*
X106531626Y-72097667D01*
X106580679Y-72123415D01*
X106669066Y-72135571D01*
X106679999Y-72135714D01*
X106766628Y-72127289D01*
X106801127Y-72094555D01*
X106804857Y-72063143D01*
X106786070Y-72008420D01*
X106718140Y-71990791D01*
X106704074Y-71990571D01*
X106580904Y-71966750D01*
X106494332Y-71905842D01*
X106450846Y-71823681D01*
X106456934Y-71736102D01*
X106519084Y-71658937D01*
X106558652Y-71635686D01*
X106653644Y-71611808D01*
X106757283Y-71615674D01*
X106757283Y-71615674D01*
G37*
X106757283Y-71615674D02*
X106845136Y-71642433D01*
X106892769Y-71687231D01*
X106895572Y-71702592D01*
X106873292Y-71737251D01*
X106798177Y-71745363D01*
X106760451Y-71742914D01*
X106661471Y-71741160D01*
X106592734Y-71752108D01*
X106586332Y-71755215D01*
X106566370Y-71794558D01*
X106599218Y-71838394D01*
X106667703Y-71872024D01*
X106734137Y-71881714D01*
X106847568Y-71908850D01*
X106923006Y-71978387D01*
X106948734Y-72072522D01*
X106919679Y-72163591D01*
X106849974Y-72216033D01*
X106738236Y-72246057D01*
X106613114Y-72247704D01*
X106561715Y-72238041D01*
X106456880Y-72198480D01*
X106422991Y-72153400D01*
X106457312Y-72101778D01*
X106511006Y-72080124D01*
X106531626Y-72097667D01*
X106580679Y-72123415D01*
X106669066Y-72135571D01*
X106679999Y-72135714D01*
X106766628Y-72127289D01*
X106801127Y-72094555D01*
X106804857Y-72063143D01*
X106786070Y-72008420D01*
X106718140Y-71990791D01*
X106704074Y-71990571D01*
X106580904Y-71966750D01*
X106494332Y-71905842D01*
X106450846Y-71823681D01*
X106456934Y-71736102D01*
X106519084Y-71658937D01*
X106558652Y-71635686D01*
X106653644Y-71611808D01*
X106757283Y-71615674D01*
G36*
X108156339Y-71640774D02*
X108172967Y-71688344D01*
X108181362Y-71783011D01*
X108183714Y-71937362D01*
X108183715Y-71940375D01*
X108182750Y-72090688D01*
X108177547Y-72181701D01*
X108164638Y-72226681D01*
X108140558Y-72238894D01*
X108107249Y-72233039D01*
X108010789Y-72229592D01*
X107951125Y-72243329D01*
X107847320Y-72251305D01*
X107800805Y-72234980D01*
X107738395Y-72193048D01*
X107701112Y-72139258D01*
X107682623Y-72055179D01*
X107676592Y-71922381D01*
X107676270Y-71872643D01*
X107679346Y-71737551D01*
X107691318Y-71661302D01*
X107715152Y-71630411D01*
X107730143Y-71627714D01*
X107766254Y-71649379D01*
X107782524Y-71722838D01*
X107784572Y-71788638D01*
X107798505Y-71959289D01*
X107838432Y-72075945D01*
X107901548Y-72131790D01*
X107927540Y-72135714D01*
X108006147Y-72103881D01*
X108054952Y-72007688D01*
X108074429Y-71846093D01*
X108074857Y-71811528D01*
X108080543Y-71696600D01*
X108100270Y-71640032D01*
X108129286Y-71627714D01*
X108156339Y-71640774D01*
X108156339Y-71640774D01*
G37*
X108156339Y-71640774D02*
X108172967Y-71688344D01*
X108181362Y-71783011D01*
X108183714Y-71937362D01*
X108183715Y-71940375D01*
X108182750Y-72090688D01*
X108177547Y-72181701D01*
X108164638Y-72226681D01*
X108140558Y-72238894D01*
X108107249Y-72233039D01*
X108010789Y-72229592D01*
X107951125Y-72243329D01*
X107847320Y-72251305D01*
X107800805Y-72234980D01*
X107738395Y-72193048D01*
X107701112Y-72139258D01*
X107682623Y-72055179D01*
X107676592Y-71922381D01*
X107676270Y-71872643D01*
X107679346Y-71737551D01*
X107691318Y-71661302D01*
X107715152Y-71630411D01*
X107730143Y-71627714D01*
X107766254Y-71649379D01*
X107782524Y-71722838D01*
X107784572Y-71788638D01*
X107798505Y-71959289D01*
X107838432Y-72075945D01*
X107901548Y-72131790D01*
X107927540Y-72135714D01*
X108006147Y-72103881D01*
X108054952Y-72007688D01*
X108074429Y-71846093D01*
X108074857Y-71811528D01*
X108080543Y-71696600D01*
X108100270Y-71640032D01*
X108129286Y-71627714D01*
X108156339Y-71640774D01*
G36*
X109149711Y-71629177D02*
X109151737Y-71629843D01*
X109238792Y-71672463D01*
X109256799Y-71713424D01*
X109208915Y-71743797D01*
X109107579Y-71754714D01*
X109004397Y-71765608D01*
X108941603Y-71808209D01*
X108913464Y-71850319D01*
X108880189Y-71924672D01*
X108889100Y-71985191D01*
X108923760Y-72044275D01*
X108980009Y-72111043D01*
X109046067Y-72128194D01*
X109109272Y-72119914D01*
X109203171Y-72114955D01*
X109253509Y-72136737D01*
X109248498Y-72177357D01*
X109226529Y-72198541D01*
X109120255Y-72250925D01*
X108994832Y-72247518D01*
X108960854Y-72239375D01*
X108856108Y-72178542D01*
X108790717Y-72075582D01*
X108765465Y-71949840D01*
X108781138Y-71820665D01*
X108838520Y-71707402D01*
X108936145Y-71630410D01*
X109033954Y-71606993D01*
X109149711Y-71629177D01*
X109149711Y-71629177D01*
G37*
X109149711Y-71629177D02*
X109151737Y-71629843D01*
X109238792Y-71672463D01*
X109256799Y-71713424D01*
X109208915Y-71743797D01*
X109107579Y-71754714D01*
X109004397Y-71765608D01*
X108941603Y-71808209D01*
X108913464Y-71850319D01*
X108880189Y-71924672D01*
X108889100Y-71985191D01*
X108923760Y-72044275D01*
X108980009Y-72111043D01*
X109046067Y-72128194D01*
X109109272Y-72119914D01*
X109203171Y-72114955D01*
X109253509Y-72136737D01*
X109248498Y-72177357D01*
X109226529Y-72198541D01*
X109120255Y-72250925D01*
X108994832Y-72247518D01*
X108960854Y-72239375D01*
X108856108Y-72178542D01*
X108790717Y-72075582D01*
X108765465Y-71949840D01*
X108781138Y-71820665D01*
X108838520Y-71707402D01*
X108936145Y-71630410D01*
X109033954Y-71606993D01*
X109149711Y-71629177D01*
G36*
X109696734Y-71623150D02*
X109781402Y-71702603D01*
X109839202Y-71806222D01*
X109852857Y-71880065D01*
X109849630Y-71943238D01*
X109828040Y-71976118D01*
X109770222Y-71988599D01*
X109658311Y-71990571D01*
X109653286Y-71990571D01*
X109543985Y-71995807D01*
X109471496Y-72009313D01*
X109453714Y-72022414D01*
X109485339Y-72081998D01*
X109562446Y-72120680D01*
X109658388Y-72125534D01*
X109664156Y-72124469D01*
X109758329Y-72118026D01*
X109819080Y-72136051D01*
X109831434Y-72171036D01*
X109809218Y-72197176D01*
X109696981Y-72247439D01*
X109564472Y-72255093D01*
X109544429Y-72251775D01*
X109434938Y-72206169D01*
X109370754Y-72117152D01*
X109345723Y-71974899D01*
X109344857Y-71933153D01*
X109349151Y-71841221D01*
X109457685Y-71841221D01*
X109482796Y-71872420D01*
X109569744Y-71881642D01*
X109583375Y-71881714D01*
X109670299Y-71874635D01*
X109701809Y-71847534D01*
X109700933Y-71818214D01*
X109659880Y-71765138D01*
X109585206Y-71741818D01*
X109512015Y-71754688D01*
X109485588Y-71778754D01*
X109457685Y-71841221D01*
X109349151Y-71841221D01*
X109350496Y-71812442D01*
X109373864Y-71736885D01*
X109424633Y-71679512D01*
X109440465Y-71666634D01*
X109527355Y-71613977D01*
X109604114Y-71591441D01*
X109605400Y-71591429D01*
X109696734Y-71623150D01*
X109696734Y-71623150D01*
G37*
X109696734Y-71623150D02*
X109781402Y-71702603D01*
X109839202Y-71806222D01*
X109852857Y-71880065D01*
X109849630Y-71943238D01*
X109828040Y-71976118D01*
X109770222Y-71988599D01*
X109658311Y-71990571D01*
X109653286Y-71990571D01*
X109543985Y-71995807D01*
X109471496Y-72009313D01*
X109453714Y-72022414D01*
X109485339Y-72081998D01*
X109562446Y-72120680D01*
X109658388Y-72125534D01*
X109664156Y-72124469D01*
X109758329Y-72118026D01*
X109819080Y-72136051D01*
X109831434Y-72171036D01*
X109809218Y-72197176D01*
X109696981Y-72247439D01*
X109564472Y-72255093D01*
X109544429Y-72251775D01*
X109434938Y-72206169D01*
X109370754Y-72117152D01*
X109345723Y-71974899D01*
X109344857Y-71933153D01*
X109349151Y-71841221D01*
X109457685Y-71841221D01*
X109482796Y-71872420D01*
X109569744Y-71881642D01*
X109583375Y-71881714D01*
X109670299Y-71874635D01*
X109701809Y-71847534D01*
X109700933Y-71818214D01*
X109659880Y-71765138D01*
X109585206Y-71741818D01*
X109512015Y-71754688D01*
X109485588Y-71778754D01*
X109457685Y-71841221D01*
X109349151Y-71841221D01*
X109350496Y-71812442D01*
X109373864Y-71736885D01*
X109424633Y-71679512D01*
X109440465Y-71666634D01*
X109527355Y-71613977D01*
X109604114Y-71591441D01*
X109605400Y-71591429D01*
X109696734Y-71623150D01*
G36*
X105948442Y-71654092D02*
X106015087Y-71714789D01*
X106028737Y-71769463D01*
X106038542Y-71873714D01*
X106042302Y-71999643D01*
X106040509Y-72130211D01*
X106031294Y-72204037D01*
X106010018Y-72236896D01*
X105972043Y-72244565D01*
X105970286Y-72244571D01*
X105931086Y-72237254D01*
X105909191Y-72204635D01*
X105899702Y-72130711D01*
X105897715Y-72007575D01*
X105893570Y-71871343D01*
X105878770Y-71791795D01*
X105849763Y-71753395D01*
X105838354Y-71747801D01*
X105753625Y-71740586D01*
X105694970Y-71796097D01*
X105660664Y-71916859D01*
X105651054Y-72021558D01*
X105639736Y-72153033D01*
X105619671Y-72223564D01*
X105587607Y-72244571D01*
X105587554Y-72244571D01*
X105561118Y-72230103D01*
X105544903Y-72178578D01*
X105536844Y-72077818D01*
X105534857Y-71933862D01*
X105536419Y-71782893D01*
X105542981Y-71691085D01*
X105557363Y-71645060D01*
X105582381Y-71631438D01*
X105598357Y-71632387D01*
X105684038Y-71628462D01*
X105742130Y-71614515D01*
X105842539Y-71612424D01*
X105948442Y-71654092D01*
X105948442Y-71654092D01*
G37*
X105948442Y-71654092D02*
X106015087Y-71714789D01*
X106028737Y-71769463D01*
X106038542Y-71873714D01*
X106042302Y-71999643D01*
X106040509Y-72130211D01*
X106031294Y-72204037D01*
X106010018Y-72236896D01*
X105972043Y-72244565D01*
X105970286Y-72244571D01*
X105931086Y-72237254D01*
X105909191Y-72204635D01*
X105899702Y-72130711D01*
X105897715Y-72007575D01*
X105893570Y-71871343D01*
X105878770Y-71791795D01*
X105849763Y-71753395D01*
X105838354Y-71747801D01*
X105753625Y-71740586D01*
X105694970Y-71796097D01*
X105660664Y-71916859D01*
X105651054Y-72021558D01*
X105639736Y-72153033D01*
X105619671Y-72223564D01*
X105587607Y-72244571D01*
X105587554Y-72244571D01*
X105561118Y-72230103D01*
X105544903Y-72178578D01*
X105536844Y-72077818D01*
X105534857Y-71933862D01*
X105536419Y-71782893D01*
X105542981Y-71691085D01*
X105557363Y-71645060D01*
X105582381Y-71631438D01*
X105598357Y-71632387D01*
X105684038Y-71628462D01*
X105742130Y-71614515D01*
X105842539Y-71612424D01*
X105948442Y-71654092D01*
G36*
X107421846Y-71635281D02*
X107507277Y-71706870D01*
X107551748Y-71830693D01*
X107558059Y-72001082D01*
X107511240Y-72139557D01*
X107473497Y-72187605D01*
X107393015Y-72228806D01*
X107281985Y-72243301D01*
X107172480Y-72230977D01*
X107096574Y-72191721D01*
X107094144Y-72188939D01*
X107062953Y-72120485D01*
X107038047Y-72012581D01*
X107036280Y-71998883D01*
X107171625Y-71998883D01*
X107179613Y-72076316D01*
X107182301Y-72085101D01*
X107231998Y-72127396D01*
X107313881Y-72130285D01*
X107378711Y-72104348D01*
X107410708Y-72043168D01*
X107415520Y-71922188D01*
X107414997Y-71914404D01*
X107404085Y-71815313D01*
X107380280Y-71768920D01*
X107328633Y-71755379D01*
X107294714Y-71754714D01*
X107223254Y-71761684D01*
X107189575Y-71796637D01*
X107175556Y-71880636D01*
X107174368Y-71894601D01*
X107171625Y-71998883D01*
X107036280Y-71998883D01*
X107031491Y-71961772D01*
X107038987Y-71797849D01*
X107096356Y-71684142D01*
X107201682Y-71623272D01*
X107286649Y-71613200D01*
X107421846Y-71635281D01*
X107421846Y-71635281D01*
G37*
X107421846Y-71635281D02*
X107507277Y-71706870D01*
X107551748Y-71830693D01*
X107558059Y-72001082D01*
X107511240Y-72139557D01*
X107473497Y-72187605D01*
X107393015Y-72228806D01*
X107281985Y-72243301D01*
X107172480Y-72230977D01*
X107096574Y-72191721D01*
X107094144Y-72188939D01*
X107062953Y-72120485D01*
X107038047Y-72012581D01*
X107036280Y-71998883D01*
X107171625Y-71998883D01*
X107179613Y-72076316D01*
X107182301Y-72085101D01*
X107231998Y-72127396D01*
X107313881Y-72130285D01*
X107378711Y-72104348D01*
X107410708Y-72043168D01*
X107415520Y-71922188D01*
X107414997Y-71914404D01*
X107404085Y-71815313D01*
X107380280Y-71768920D01*
X107328633Y-71755379D01*
X107294714Y-71754714D01*
X107223254Y-71761684D01*
X107189575Y-71796637D01*
X107175556Y-71880636D01*
X107174368Y-71894601D01*
X107171625Y-71998883D01*
X107036280Y-71998883D01*
X107031491Y-71961772D01*
X107038987Y-71797849D01*
X107096356Y-71684142D01*
X107201682Y-71623272D01*
X107286649Y-71613200D01*
X107421846Y-71635281D01*
G36*
X108727697Y-71625731D02*
X108757041Y-71670579D01*
X108728214Y-71714828D01*
X108654621Y-71745921D01*
X108591735Y-71753094D01*
X108538845Y-71757424D01*
X108508127Y-71779062D01*
X108492327Y-71834218D01*
X108484192Y-71939104D01*
X108481414Y-71999643D01*
X108473230Y-72130821D01*
X108459667Y-72204988D01*
X108435536Y-72237704D01*
X108399771Y-72244571D01*
X108365284Y-72238444D01*
X108344203Y-72210639D01*
X108333284Y-72147024D01*
X108329285Y-72033464D01*
X108328857Y-71935566D01*
X108328857Y-71626561D01*
X108428643Y-71630260D01*
X108532572Y-71625118D01*
X108601000Y-71612222D01*
X108685920Y-71609960D01*
X108727697Y-71625731D01*
X108727697Y-71625731D01*
G37*
X108727697Y-71625731D02*
X108757041Y-71670579D01*
X108728214Y-71714828D01*
X108654621Y-71745921D01*
X108591735Y-71753094D01*
X108538845Y-71757424D01*
X108508127Y-71779062D01*
X108492327Y-71834218D01*
X108484192Y-71939104D01*
X108481414Y-71999643D01*
X108473230Y-72130821D01*
X108459667Y-72204988D01*
X108435536Y-72237704D01*
X108399771Y-72244571D01*
X108365284Y-72238444D01*
X108344203Y-72210639D01*
X108333284Y-72147024D01*
X108329285Y-72033464D01*
X108328857Y-71935566D01*
X108328857Y-71626561D01*
X108428643Y-71630260D01*
X108532572Y-71625118D01*
X108601000Y-71612222D01*
X108685920Y-71609960D01*
X108727697Y-71625731D01*
G36*
X107128278Y-67049982D02*
X107152973Y-67189096D01*
X107176797Y-67301480D01*
X107195353Y-67366856D01*
X107198316Y-67372956D01*
X107242371Y-67405720D01*
X107333687Y-67453143D01*
X107439857Y-67499662D01*
X107657572Y-67587946D01*
X107919004Y-67412545D01*
X108039955Y-67333420D01*
X108138289Y-67272847D01*
X108198475Y-67240244D01*
X108208314Y-67237143D01*
X108244972Y-67261075D01*
X108319079Y-67325005D01*
X108417257Y-67417131D01*
X108461777Y-67460724D01*
X108687363Y-67684305D01*
X108501439Y-67950596D01*
X108315515Y-68216886D01*
X108400290Y-68425515D01*
X108449952Y-68542338D01*
X108492778Y-68633728D01*
X108515372Y-68673609D01*
X108563928Y-68698891D01*
X108663710Y-68728802D01*
X108794162Y-68757294D01*
X108809197Y-68760028D01*
X108944271Y-68785280D01*
X109053689Y-68807899D01*
X109115525Y-68823325D01*
X109118072Y-68824230D01*
X109136755Y-68864119D01*
X109151215Y-68955006D01*
X109160916Y-69077244D01*
X109165322Y-69211185D01*
X109163897Y-69337182D01*
X109156107Y-69435586D01*
X109141415Y-69486751D01*
X109136214Y-69489915D01*
X109090145Y-69498351D01*
X108991940Y-69518041D01*
X108860456Y-69545186D01*
X108821148Y-69553415D01*
X108533295Y-69613857D01*
X108430808Y-69864954D01*
X108328322Y-70116051D01*
X108508016Y-70375987D01*
X108687709Y-70635923D01*
X108461950Y-70859676D01*
X108357750Y-70960048D01*
X108272167Y-71037119D01*
X108218540Y-71079098D01*
X108208813Y-71083429D01*
X108167760Y-71064496D01*
X108083259Y-71014255D01*
X107971644Y-70942543D01*
X107941030Y-70922152D01*
X107819649Y-70842484D01*
X107740171Y-70798599D01*
X107684904Y-70784862D01*
X107636158Y-70795640D01*
X107599257Y-70813295D01*
X107518035Y-70850296D01*
X107464965Y-70865714D01*
X107464926Y-70865714D01*
X107442292Y-70834305D01*
X107399024Y-70749443D01*
X107341132Y-70625180D01*
X107274629Y-70475567D01*
X107205524Y-70314655D01*
X107139829Y-70156494D01*
X107083555Y-70015136D01*
X107042713Y-69904631D01*
X107023314Y-69839031D01*
X107022517Y-69831571D01*
X107048691Y-69789017D01*
X107114806Y-69723313D01*
X107153410Y-69690891D01*
X107300220Y-69533006D01*
X107386370Y-69351725D01*
X107414149Y-69159758D01*
X107385849Y-68969817D01*
X107303761Y-68794611D01*
X107170175Y-68646853D01*
X106987382Y-68539251D01*
X106942912Y-68522931D01*
X106735120Y-68487746D01*
X106539294Y-68516022D01*
X106365048Y-68598687D01*
X106221995Y-68726670D01*
X106119750Y-68890898D01*
X106067926Y-69082300D01*
X106076138Y-69291803D01*
X106085138Y-69332347D01*
X106137356Y-69469353D01*
X106229279Y-69595539D01*
X106298194Y-69665560D01*
X106467925Y-69826711D01*
X106258244Y-70336190D01*
X106182777Y-70514257D01*
X106113900Y-70666999D01*
X106057367Y-70782383D01*
X106018929Y-70848377D01*
X106008262Y-70859103D01*
X105951904Y-70850422D01*
X105874249Y-70811135D01*
X105825515Y-70782615D01*
X105781966Y-70775164D01*
X105726778Y-70794031D01*
X105643127Y-70844467D01*
X105536346Y-70916580D01*
X105418880Y-70994161D01*
X105323015Y-71052538D01*
X105265277Y-71081801D01*
X105258156Y-71083429D01*
X105218418Y-71059241D01*
X105142928Y-70994975D01*
X105046015Y-70903070D01*
X105016650Y-70873733D01*
X104920358Y-70773369D01*
X104847815Y-70691937D01*
X104811263Y-70643377D01*
X104809143Y-70637441D01*
X104827970Y-70596861D01*
X104878056Y-70512265D01*
X104949806Y-70399618D01*
X104975111Y-70361251D01*
X105141080Y-70111658D01*
X105037931Y-69862758D01*
X104934783Y-69613857D01*
X104645177Y-69553415D01*
X104507431Y-69524969D01*
X104397779Y-69502888D01*
X104335017Y-69490938D01*
X104328357Y-69489915D01*
X104316321Y-69454924D01*
X104307009Y-69363829D01*
X104301792Y-69233085D01*
X104301143Y-69162731D01*
X104300799Y-69011417D01*
X104305436Y-68947717D01*
X104446286Y-68947717D01*
X104446286Y-69401724D01*
X105008714Y-69505000D01*
X105112797Y-69719932D01*
X105193720Y-69902896D01*
X105233241Y-70045182D01*
X105231091Y-70165898D01*
X105187002Y-70284151D01*
X105103026Y-70415815D01*
X104952803Y-70625599D01*
X105106242Y-70781942D01*
X105190459Y-70864679D01*
X105253874Y-70921308D01*
X105279341Y-70938170D01*
X105317036Y-70919431D01*
X105397994Y-70870168D01*
X105505443Y-70800628D01*
X105516714Y-70793143D01*
X105670575Y-70699478D01*
X105779506Y-70654835D01*
X105850185Y-70657211D01*
X105879572Y-70684286D01*
X105923094Y-70719134D01*
X105932453Y-70720571D01*
X105955345Y-70689523D01*
X105998470Y-70606804D01*
X106054934Y-70488056D01*
X106117842Y-70348919D01*
X106180301Y-70205033D01*
X106235414Y-70072038D01*
X106276289Y-69965576D01*
X106296030Y-69901285D01*
X106296857Y-69893908D01*
X106272591Y-69852238D01*
X106211710Y-69784262D01*
X106183425Y-69756717D01*
X106041394Y-69578523D01*
X105960200Y-69378021D01*
X105936869Y-69167469D01*
X105968427Y-68959125D01*
X106051900Y-68765248D01*
X106184315Y-68598095D01*
X106362698Y-68469924D01*
X106509908Y-68410949D01*
X106739209Y-68376108D01*
X106949571Y-68403150D01*
X107135789Y-68482697D01*
X107292657Y-68605372D01*
X107414969Y-68761797D01*
X107497519Y-68942595D01*
X107535102Y-69138387D01*
X107522512Y-69339797D01*
X107454543Y-69537447D01*
X107325989Y-69721960D01*
X107269132Y-69778597D01*
X107159505Y-69878726D01*
X107332539Y-70301365D01*
X107408348Y-70481578D01*
X107464874Y-70602329D01*
X107507258Y-70672494D01*
X107540640Y-70700950D01*
X107563429Y-70700028D01*
X107648839Y-70671322D01*
X107722988Y-70669875D01*
X107807310Y-70700632D01*
X107923241Y-70768538D01*
X107958558Y-70791177D01*
X108071973Y-70862239D01*
X108161907Y-70914446D01*
X108211126Y-70937868D01*
X108213860Y-70938286D01*
X108252568Y-70914308D01*
X108322920Y-70852562D01*
X108381425Y-70795048D01*
X108521293Y-70651811D01*
X108370647Y-70420590D01*
X108297469Y-70299039D01*
X108243907Y-70192469D01*
X108220324Y-70121795D01*
X108220000Y-70116512D01*
X108233673Y-70046653D01*
X108268751Y-69935352D01*
X108316326Y-69805826D01*
X108367487Y-69681290D01*
X108413326Y-69584960D01*
X108439533Y-69544464D01*
X108488177Y-69521946D01*
X108588583Y-69492023D01*
X108721133Y-69460371D01*
X108753851Y-69453496D01*
X109036429Y-69395636D01*
X109047119Y-69173446D01*
X109057809Y-68951255D01*
X108920119Y-68925931D01*
X108727249Y-68890485D01*
X108591712Y-68861817D01*
X108499844Y-68831677D01*
X108437979Y-68791815D01*
X108392452Y-68733981D01*
X108349598Y-68649927D01*
X108306908Y-68555738D01*
X108249528Y-68424860D01*
X108206395Y-68317021D01*
X108184868Y-68250931D01*
X108183715Y-68242544D01*
X108203197Y-68194416D01*
X108254986Y-68104324D01*
X108329092Y-67989279D01*
X108353596Y-67953291D01*
X108523477Y-67706902D01*
X108366731Y-67547189D01*
X108209984Y-67387476D01*
X107970451Y-67548167D01*
X107846976Y-67624707D01*
X107737557Y-67681455D01*
X107662589Y-67708062D01*
X107653726Y-67708857D01*
X107567960Y-67693341D01*
X107445451Y-67653923D01*
X107313254Y-67601293D01*
X107198422Y-67546145D01*
X107131429Y-67502430D01*
X107098673Y-67444546D01*
X107061547Y-67336433D01*
X107027183Y-67199516D01*
X107021688Y-67172692D01*
X106966375Y-66892428D01*
X106752911Y-66881376D01*
X106619560Y-66879157D01*
X106539697Y-66899500D01*
X106495726Y-66957123D01*
X106470049Y-67066747D01*
X106461412Y-67125217D01*
X106433519Y-67296626D01*
X106399316Y-67413169D01*
X106346968Y-67492342D01*
X106264636Y-67551640D01*
X106140485Y-67608558D01*
X106132057Y-67612030D01*
X106001278Y-67661064D01*
X105886995Y-67695761D01*
X105815353Y-67708466D01*
X105747830Y-67688170D01*
X105643059Y-67634853D01*
X105521680Y-67559257D01*
X105499929Y-67544300D01*
X105265430Y-67380525D01*
X104947074Y-67698881D01*
X105119613Y-67958356D01*
X105200300Y-68083694D01*
X105248461Y-68180622D01*
X105264182Y-68268046D01*
X105247550Y-68364871D01*
X105198653Y-68490002D01*
X105122814Y-68651443D01*
X105078023Y-68735523D01*
X105028962Y-68793677D01*
X104959603Y-68834707D01*
X104853920Y-68867415D01*
X104695885Y-68900602D01*
X104654929Y-68908384D01*
X104446286Y-68947717D01*
X104305436Y-68947717D01*
X104308058Y-68911714D01*
X104335357Y-68850215D01*
X104395136Y-68813512D01*
X104499832Y-68788199D01*
X104661882Y-68760868D01*
X104676202Y-68758447D01*
X104824684Y-68725548D01*
X104927489Y-68676685D01*
X105000980Y-68596541D01*
X105061520Y-68469797D01*
X105099304Y-68362378D01*
X105120972Y-68289636D01*
X105125038Y-68231753D01*
X105105732Y-68169756D01*
X105057284Y-68084674D01*
X104978076Y-67963779D01*
X104900744Y-67844269D01*
X104842024Y-67747403D01*
X104811440Y-67689127D01*
X104809143Y-67680942D01*
X104833984Y-67640597D01*
X104898216Y-67567693D01*
X104986399Y-67477213D01*
X105083096Y-67384140D01*
X105172869Y-67303461D01*
X105240280Y-67250158D01*
X105266389Y-67237143D01*
X105312349Y-67256715D01*
X105399928Y-67308563D01*
X105511977Y-67382381D01*
X105537480Y-67400037D01*
X105655860Y-67477747D01*
X105757261Y-67535418D01*
X105822808Y-67562504D01*
X105829699Y-67563323D01*
X105893502Y-67549466D01*
X105997153Y-67513242D01*
X106086372Y-67476287D01*
X106284060Y-67388860D01*
X106331520Y-67122502D01*
X106356883Y-66986743D01*
X106379599Y-66876608D01*
X106395151Y-66813860D01*
X106396230Y-66810786D01*
X106434505Y-66786616D01*
X106531208Y-66771851D01*
X106692391Y-66765709D01*
X106747773Y-66765429D01*
X107082067Y-66765429D01*
X107128278Y-67049982D01*
X107128278Y-67049982D01*
G37*
X107128278Y-67049982D02*
X107152973Y-67189096D01*
X107176797Y-67301480D01*
X107195353Y-67366856D01*
X107198316Y-67372956D01*
X107242371Y-67405720D01*
X107333687Y-67453143D01*
X107439857Y-67499662D01*
X107657572Y-67587946D01*
X107919004Y-67412545D01*
X108039955Y-67333420D01*
X108138289Y-67272847D01*
X108198475Y-67240244D01*
X108208314Y-67237143D01*
X108244972Y-67261075D01*
X108319079Y-67325005D01*
X108417257Y-67417131D01*
X108461777Y-67460724D01*
X108687363Y-67684305D01*
X108501439Y-67950596D01*
X108315515Y-68216886D01*
X108400290Y-68425515D01*
X108449952Y-68542338D01*
X108492778Y-68633728D01*
X108515372Y-68673609D01*
X108563928Y-68698891D01*
X108663710Y-68728802D01*
X108794162Y-68757294D01*
X108809197Y-68760028D01*
X108944271Y-68785280D01*
X109053689Y-68807899D01*
X109115525Y-68823325D01*
X109118072Y-68824230D01*
X109136755Y-68864119D01*
X109151215Y-68955006D01*
X109160916Y-69077244D01*
X109165322Y-69211185D01*
X109163897Y-69337182D01*
X109156107Y-69435586D01*
X109141415Y-69486751D01*
X109136214Y-69489915D01*
X109090145Y-69498351D01*
X108991940Y-69518041D01*
X108860456Y-69545186D01*
X108821148Y-69553415D01*
X108533295Y-69613857D01*
X108430808Y-69864954D01*
X108328322Y-70116051D01*
X108508016Y-70375987D01*
X108687709Y-70635923D01*
X108461950Y-70859676D01*
X108357750Y-70960048D01*
X108272167Y-71037119D01*
X108218540Y-71079098D01*
X108208813Y-71083429D01*
X108167760Y-71064496D01*
X108083259Y-71014255D01*
X107971644Y-70942543D01*
X107941030Y-70922152D01*
X107819649Y-70842484D01*
X107740171Y-70798599D01*
X107684904Y-70784862D01*
X107636158Y-70795640D01*
X107599257Y-70813295D01*
X107518035Y-70850296D01*
X107464965Y-70865714D01*
X107464926Y-70865714D01*
X107442292Y-70834305D01*
X107399024Y-70749443D01*
X107341132Y-70625180D01*
X107274629Y-70475567D01*
X107205524Y-70314655D01*
X107139829Y-70156494D01*
X107083555Y-70015136D01*
X107042713Y-69904631D01*
X107023314Y-69839031D01*
X107022517Y-69831571D01*
X107048691Y-69789017D01*
X107114806Y-69723313D01*
X107153410Y-69690891D01*
X107300220Y-69533006D01*
X107386370Y-69351725D01*
X107414149Y-69159758D01*
X107385849Y-68969817D01*
X107303761Y-68794611D01*
X107170175Y-68646853D01*
X106987382Y-68539251D01*
X106942912Y-68522931D01*
X106735120Y-68487746D01*
X106539294Y-68516022D01*
X106365048Y-68598687D01*
X106221995Y-68726670D01*
X106119750Y-68890898D01*
X106067926Y-69082300D01*
X106076138Y-69291803D01*
X106085138Y-69332347D01*
X106137356Y-69469353D01*
X106229279Y-69595539D01*
X106298194Y-69665560D01*
X106467925Y-69826711D01*
X106258244Y-70336190D01*
X106182777Y-70514257D01*
X106113900Y-70666999D01*
X106057367Y-70782383D01*
X106018929Y-70848377D01*
X106008262Y-70859103D01*
X105951904Y-70850422D01*
X105874249Y-70811135D01*
X105825515Y-70782615D01*
X105781966Y-70775164D01*
X105726778Y-70794031D01*
X105643127Y-70844467D01*
X105536346Y-70916580D01*
X105418880Y-70994161D01*
X105323015Y-71052538D01*
X105265277Y-71081801D01*
X105258156Y-71083429D01*
X105218418Y-71059241D01*
X105142928Y-70994975D01*
X105046015Y-70903070D01*
X105016650Y-70873733D01*
X104920358Y-70773369D01*
X104847815Y-70691937D01*
X104811263Y-70643377D01*
X104809143Y-70637441D01*
X104827970Y-70596861D01*
X104878056Y-70512265D01*
X104949806Y-70399618D01*
X104975111Y-70361251D01*
X105141080Y-70111658D01*
X105037931Y-69862758D01*
X104934783Y-69613857D01*
X104645177Y-69553415D01*
X104507431Y-69524969D01*
X104397779Y-69502888D01*
X104335017Y-69490938D01*
X104328357Y-69489915D01*
X104316321Y-69454924D01*
X104307009Y-69363829D01*
X104301792Y-69233085D01*
X104301143Y-69162731D01*
X104300799Y-69011417D01*
X104305436Y-68947717D01*
X104446286Y-68947717D01*
X104446286Y-69401724D01*
X105008714Y-69505000D01*
X105112797Y-69719932D01*
X105193720Y-69902896D01*
X105233241Y-70045182D01*
X105231091Y-70165898D01*
X105187002Y-70284151D01*
X105103026Y-70415815D01*
X104952803Y-70625599D01*
X105106242Y-70781942D01*
X105190459Y-70864679D01*
X105253874Y-70921308D01*
X105279341Y-70938170D01*
X105317036Y-70919431D01*
X105397994Y-70870168D01*
X105505443Y-70800628D01*
X105516714Y-70793143D01*
X105670575Y-70699478D01*
X105779506Y-70654835D01*
X105850185Y-70657211D01*
X105879572Y-70684286D01*
X105923094Y-70719134D01*
X105932453Y-70720571D01*
X105955345Y-70689523D01*
X105998470Y-70606804D01*
X106054934Y-70488056D01*
X106117842Y-70348919D01*
X106180301Y-70205033D01*
X106235414Y-70072038D01*
X106276289Y-69965576D01*
X106296030Y-69901285D01*
X106296857Y-69893908D01*
X106272591Y-69852238D01*
X106211710Y-69784262D01*
X106183425Y-69756717D01*
X106041394Y-69578523D01*
X105960200Y-69378021D01*
X105936869Y-69167469D01*
X105968427Y-68959125D01*
X106051900Y-68765248D01*
X106184315Y-68598095D01*
X106362698Y-68469924D01*
X106509908Y-68410949D01*
X106739209Y-68376108D01*
X106949571Y-68403150D01*
X107135789Y-68482697D01*
X107292657Y-68605372D01*
X107414969Y-68761797D01*
X107497519Y-68942595D01*
X107535102Y-69138387D01*
X107522512Y-69339797D01*
X107454543Y-69537447D01*
X107325989Y-69721960D01*
X107269132Y-69778597D01*
X107159505Y-69878726D01*
X107332539Y-70301365D01*
X107408348Y-70481578D01*
X107464874Y-70602329D01*
X107507258Y-70672494D01*
X107540640Y-70700950D01*
X107563429Y-70700028D01*
X107648839Y-70671322D01*
X107722988Y-70669875D01*
X107807310Y-70700632D01*
X107923241Y-70768538D01*
X107958558Y-70791177D01*
X108071973Y-70862239D01*
X108161907Y-70914446D01*
X108211126Y-70937868D01*
X108213860Y-70938286D01*
X108252568Y-70914308D01*
X108322920Y-70852562D01*
X108381425Y-70795048D01*
X108521293Y-70651811D01*
X108370647Y-70420590D01*
X108297469Y-70299039D01*
X108243907Y-70192469D01*
X108220324Y-70121795D01*
X108220000Y-70116512D01*
X108233673Y-70046653D01*
X108268751Y-69935352D01*
X108316326Y-69805826D01*
X108367487Y-69681290D01*
X108413326Y-69584960D01*
X108439533Y-69544464D01*
X108488177Y-69521946D01*
X108588583Y-69492023D01*
X108721133Y-69460371D01*
X108753851Y-69453496D01*
X109036429Y-69395636D01*
X109047119Y-69173446D01*
X109057809Y-68951255D01*
X108920119Y-68925931D01*
X108727249Y-68890485D01*
X108591712Y-68861817D01*
X108499844Y-68831677D01*
X108437979Y-68791815D01*
X108392452Y-68733981D01*
X108349598Y-68649927D01*
X108306908Y-68555738D01*
X108249528Y-68424860D01*
X108206395Y-68317021D01*
X108184868Y-68250931D01*
X108183715Y-68242544D01*
X108203197Y-68194416D01*
X108254986Y-68104324D01*
X108329092Y-67989279D01*
X108353596Y-67953291D01*
X108523477Y-67706902D01*
X108366731Y-67547189D01*
X108209984Y-67387476D01*
X107970451Y-67548167D01*
X107846976Y-67624707D01*
X107737557Y-67681455D01*
X107662589Y-67708062D01*
X107653726Y-67708857D01*
X107567960Y-67693341D01*
X107445451Y-67653923D01*
X107313254Y-67601293D01*
X107198422Y-67546145D01*
X107131429Y-67502430D01*
X107098673Y-67444546D01*
X107061547Y-67336433D01*
X107027183Y-67199516D01*
X107021688Y-67172692D01*
X106966375Y-66892428D01*
X106752911Y-66881376D01*
X106619560Y-66879157D01*
X106539697Y-66899500D01*
X106495726Y-66957123D01*
X106470049Y-67066747D01*
X106461412Y-67125217D01*
X106433519Y-67296626D01*
X106399316Y-67413169D01*
X106346968Y-67492342D01*
X106264636Y-67551640D01*
X106140485Y-67608558D01*
X106132057Y-67612030D01*
X106001278Y-67661064D01*
X105886995Y-67695761D01*
X105815353Y-67708466D01*
X105747830Y-67688170D01*
X105643059Y-67634853D01*
X105521680Y-67559257D01*
X105499929Y-67544300D01*
X105265430Y-67380525D01*
X104947074Y-67698881D01*
X105119613Y-67958356D01*
X105200300Y-68083694D01*
X105248461Y-68180622D01*
X105264182Y-68268046D01*
X105247550Y-68364871D01*
X105198653Y-68490002D01*
X105122814Y-68651443D01*
X105078023Y-68735523D01*
X105028962Y-68793677D01*
X104959603Y-68834707D01*
X104853920Y-68867415D01*
X104695885Y-68900602D01*
X104654929Y-68908384D01*
X104446286Y-68947717D01*
X104305436Y-68947717D01*
X104308058Y-68911714D01*
X104335357Y-68850215D01*
X104395136Y-68813512D01*
X104499832Y-68788199D01*
X104661882Y-68760868D01*
X104676202Y-68758447D01*
X104824684Y-68725548D01*
X104927489Y-68676685D01*
X105000980Y-68596541D01*
X105061520Y-68469797D01*
X105099304Y-68362378D01*
X105120972Y-68289636D01*
X105125038Y-68231753D01*
X105105732Y-68169756D01*
X105057284Y-68084674D01*
X104978076Y-67963779D01*
X104900744Y-67844269D01*
X104842024Y-67747403D01*
X104811440Y-67689127D01*
X104809143Y-67680942D01*
X104833984Y-67640597D01*
X104898216Y-67567693D01*
X104986399Y-67477213D01*
X105083096Y-67384140D01*
X105172869Y-67303461D01*
X105240280Y-67250158D01*
X105266389Y-67237143D01*
X105312349Y-67256715D01*
X105399928Y-67308563D01*
X105511977Y-67382381D01*
X105537480Y-67400037D01*
X105655860Y-67477747D01*
X105757261Y-67535418D01*
X105822808Y-67562504D01*
X105829699Y-67563323D01*
X105893502Y-67549466D01*
X105997153Y-67513242D01*
X106086372Y-67476287D01*
X106284060Y-67388860D01*
X106331520Y-67122502D01*
X106356883Y-66986743D01*
X106379599Y-66876608D01*
X106395151Y-66813860D01*
X106396230Y-66810786D01*
X106434505Y-66786616D01*
X106531208Y-66771851D01*
X106692391Y-66765709D01*
X106747773Y-66765429D01*
X107082067Y-66765429D01*
X107128278Y-67049982D01*
G04 #@! TO.C,G4*
G36*
X105355199Y-114583441D02*
X105534350Y-114610785D01*
X105588000Y-114623533D01*
X105877865Y-114723601D01*
X106144993Y-114862376D01*
X106386300Y-115036774D01*
X106598702Y-115243710D01*
X106779115Y-115480100D01*
X106924453Y-115742860D01*
X107031632Y-116028905D01*
X107046467Y-116082000D01*
X107078873Y-116250391D01*
X107096474Y-116444947D01*
X107099254Y-116649574D01*
X107087191Y-116848177D01*
X107060269Y-117024662D01*
X107047646Y-117077066D01*
X106945334Y-117371283D01*
X106805269Y-117640578D01*
X106629928Y-117882409D01*
X106421788Y-118094235D01*
X106183328Y-118273515D01*
X105917024Y-118417708D01*
X105641031Y-118519722D01*
X105467491Y-118558606D01*
X105269418Y-118583156D01*
X105064189Y-118592492D01*
X104869185Y-118585735D01*
X104722091Y-118566223D01*
X104424939Y-118485241D01*
X104148481Y-118363979D01*
X103895786Y-118204847D01*
X103669923Y-118010251D01*
X103473962Y-117782600D01*
X103310972Y-117524300D01*
X103257878Y-117417660D01*
X103190626Y-117262507D01*
X103142573Y-117123383D01*
X103110928Y-116986528D01*
X103092901Y-116838184D01*
X103085699Y-116664595D01*
X103085274Y-116566909D01*
X103085903Y-116509656D01*
X103314304Y-116509656D01*
X103317966Y-116721791D01*
X103341623Y-116922283D01*
X103367999Y-117038966D01*
X103467716Y-117310442D01*
X103605150Y-117557882D01*
X103776891Y-117778251D01*
X103979529Y-117968513D01*
X104209654Y-118125633D01*
X104463857Y-118246576D01*
X104738728Y-118328305D01*
X104837004Y-118346736D01*
X104962551Y-118357616D01*
X105115299Y-118356961D01*
X105278043Y-118345922D01*
X105433578Y-118325649D01*
X105560952Y-118298341D01*
X105827325Y-118200556D01*
X106081115Y-118058881D01*
X106268977Y-117918662D01*
X106338044Y-117860932D01*
X106188826Y-117710375D01*
X106112288Y-117635995D01*
X106056430Y-117590321D01*
X106011812Y-117567054D01*
X105968992Y-117559895D01*
X105963153Y-117559819D01*
X105859309Y-117543174D01*
X105751298Y-117499704D01*
X105663361Y-117439237D01*
X105611091Y-117390132D01*
X105611091Y-117463430D01*
X105608868Y-117506811D01*
X105594251Y-117528442D01*
X105555318Y-117535892D01*
X105495637Y-117536728D01*
X105380182Y-117536728D01*
X105380182Y-116945777D01*
X105281350Y-116857290D01*
X105599546Y-116857290D01*
X105849901Y-117093100D01*
X105938629Y-117175723D01*
X106015703Y-117245703D01*
X106074852Y-117297486D01*
X106109808Y-117325518D01*
X106116082Y-117328909D01*
X106144883Y-117316953D01*
X106183535Y-117292747D01*
X106245647Y-117224850D01*
X106295547Y-117123117D01*
X106330793Y-116998849D01*
X106348946Y-116863344D01*
X106347565Y-116727905D01*
X106328844Y-116619914D01*
X106278606Y-116502054D01*
X106202760Y-116409089D01*
X106109157Y-116345487D01*
X106005647Y-116315716D01*
X105900083Y-116324244D01*
X105846626Y-116345484D01*
X105736525Y-116428004D01*
X105658420Y-116542212D01*
X105614356Y-116684644D01*
X105606461Y-116752509D01*
X105599546Y-116857290D01*
X105281350Y-116857290D01*
X105055300Y-116654903D01*
X104957968Y-116696146D01*
X104909742Y-116712539D01*
X104848036Y-116724907D01*
X104765145Y-116734038D01*
X104653366Y-116740718D01*
X104504996Y-116745736D01*
X104462319Y-116746798D01*
X104064000Y-116756206D01*
X104064000Y-117536728D01*
X103810000Y-117536728D01*
X103810000Y-115851091D01*
X104064000Y-115851091D01*
X104064000Y-116520728D01*
X104397315Y-116520728D01*
X104521661Y-116519201D01*
X104633689Y-116515010D01*
X104723220Y-116508739D01*
X104780078Y-116500972D01*
X104789861Y-116498208D01*
X104832435Y-116476041D01*
X104846863Y-116457799D01*
X104829968Y-116437210D01*
X104784304Y-116390668D01*
X104715201Y-116323364D01*
X104627991Y-116240488D01*
X104528003Y-116147232D01*
X104526130Y-116145500D01*
X104409920Y-116039132D01*
X104321383Y-115961046D01*
X104255186Y-115907221D01*
X104205998Y-115873637D01*
X104168489Y-115856270D01*
X104163871Y-115855504D01*
X104525603Y-115855504D01*
X104525819Y-115855720D01*
X104546148Y-115874462D01*
X104593379Y-115918479D01*
X104660738Y-115981444D01*
X104741449Y-116057031D01*
X104752008Y-116066929D01*
X104834419Y-116141652D01*
X104905763Y-116201610D01*
X104959022Y-116241239D01*
X104987176Y-116254976D01*
X104988690Y-116254531D01*
X105005652Y-116223298D01*
X105010728Y-116183805D01*
X104992330Y-116088295D01*
X104943729Y-115990649D01*
X104885958Y-115921411D01*
X104839970Y-115887959D01*
X104782488Y-115868116D01*
X104698249Y-115857218D01*
X104669391Y-115855232D01*
X104593719Y-115851838D01*
X104542214Y-115851941D01*
X104525603Y-115855504D01*
X104163871Y-115855504D01*
X104137326Y-115851102D01*
X104135813Y-115851091D01*
X104064000Y-115851091D01*
X103810000Y-115851091D01*
X103810000Y-115620182D01*
X103957918Y-115620182D01*
X103867728Y-115527819D01*
X103812909Y-115476794D01*
X103767293Y-115443250D01*
X103747732Y-115435455D01*
X103709578Y-115455895D01*
X103659822Y-115512183D01*
X103602652Y-115596769D01*
X103542260Y-115702103D01*
X103482834Y-115820634D01*
X103428566Y-115944813D01*
X103383643Y-116067089D01*
X103367036Y-116121451D01*
X103330654Y-116303627D01*
X103314304Y-116509656D01*
X103085903Y-116509656D01*
X103086821Y-116426186D01*
X103091138Y-116318988D01*
X103099705Y-116232678D01*
X103114005Y-116154619D01*
X103135520Y-116072173D01*
X103148346Y-116028970D01*
X103260541Y-115734881D01*
X103409151Y-115467885D01*
X103569718Y-115259063D01*
X103893177Y-115259063D01*
X104082852Y-115436904D01*
X104272528Y-115614744D01*
X104566582Y-115624575D01*
X104704825Y-115630881D01*
X104807221Y-115640107D01*
X104884080Y-115653718D01*
X104945716Y-115673180D01*
X104964546Y-115681170D01*
X105074286Y-115749786D01*
X105166409Y-115843685D01*
X105228726Y-115949514D01*
X105240248Y-115983233D01*
X105260239Y-116099972D01*
X105262241Y-116226586D01*
X105246796Y-116342755D01*
X105229131Y-116399588D01*
X105193534Y-116484783D01*
X105273771Y-116560483D01*
X105323341Y-116604886D01*
X105358571Y-116632121D01*
X105367095Y-116636182D01*
X105370893Y-116614189D01*
X105374257Y-116552597D01*
X105377020Y-116457991D01*
X105379011Y-116336952D01*
X105380061Y-116196064D01*
X105380182Y-116126975D01*
X105380182Y-115617769D01*
X105501409Y-115624748D01*
X105622637Y-115631728D01*
X105629060Y-115949124D01*
X105635484Y-116266521D01*
X105729888Y-116204047D01*
X105841055Y-116154061D01*
X105973993Y-116130197D01*
X106111401Y-116133959D01*
X106222182Y-116161279D01*
X106349552Y-116233843D01*
X106452502Y-116342589D01*
X106528602Y-116483087D01*
X106575419Y-116650910D01*
X106590560Y-116832455D01*
X106578704Y-117011285D01*
X106540640Y-117160255D01*
X106472620Y-117289860D01*
X106391753Y-117389161D01*
X106279005Y-117508375D01*
X106378002Y-117591372D01*
X106434102Y-117636881D01*
X106474954Y-117667200D01*
X106488546Y-117674776D01*
X106506642Y-117657491D01*
X106541503Y-117612357D01*
X106574348Y-117565547D01*
X106709406Y-117325586D01*
X106802447Y-117066529D01*
X106853491Y-116788304D01*
X106864250Y-116578455D01*
X106847172Y-116306623D01*
X106793920Y-116057716D01*
X106701947Y-115822999D01*
X106583121Y-115615396D01*
X106405865Y-115384948D01*
X106200758Y-115191058D01*
X105967120Y-115033246D01*
X105704270Y-114911033D01*
X105484091Y-114841546D01*
X105356412Y-114818976D01*
X105200043Y-114807193D01*
X105031178Y-114806116D01*
X104866009Y-114815661D01*
X104720732Y-114835746D01*
X104675909Y-114845669D01*
X104509970Y-114897963D01*
X104337115Y-114970520D01*
X104174054Y-115055375D01*
X104037495Y-115144560D01*
X104018998Y-115158877D01*
X103893177Y-115259063D01*
X103569718Y-115259063D01*
X103591953Y-115230146D01*
X103806723Y-115023829D01*
X104051238Y-114851100D01*
X104323274Y-114714124D01*
X104592935Y-114622355D01*
X104758161Y-114590345D01*
X104951010Y-114573202D01*
X105155388Y-114570907D01*
X105355199Y-114583441D01*
X105355199Y-114583441D01*
G37*
X105355199Y-114583441D02*
X105534350Y-114610785D01*
X105588000Y-114623533D01*
X105877865Y-114723601D01*
X106144993Y-114862376D01*
X106386300Y-115036774D01*
X106598702Y-115243710D01*
X106779115Y-115480100D01*
X106924453Y-115742860D01*
X107031632Y-116028905D01*
X107046467Y-116082000D01*
X107078873Y-116250391D01*
X107096474Y-116444947D01*
X107099254Y-116649574D01*
X107087191Y-116848177D01*
X107060269Y-117024662D01*
X107047646Y-117077066D01*
X106945334Y-117371283D01*
X106805269Y-117640578D01*
X106629928Y-117882409D01*
X106421788Y-118094235D01*
X106183328Y-118273515D01*
X105917024Y-118417708D01*
X105641031Y-118519722D01*
X105467491Y-118558606D01*
X105269418Y-118583156D01*
X105064189Y-118592492D01*
X104869185Y-118585735D01*
X104722091Y-118566223D01*
X104424939Y-118485241D01*
X104148481Y-118363979D01*
X103895786Y-118204847D01*
X103669923Y-118010251D01*
X103473962Y-117782600D01*
X103310972Y-117524300D01*
X103257878Y-117417660D01*
X103190626Y-117262507D01*
X103142573Y-117123383D01*
X103110928Y-116986528D01*
X103092901Y-116838184D01*
X103085699Y-116664595D01*
X103085274Y-116566909D01*
X103085903Y-116509656D01*
X103314304Y-116509656D01*
X103317966Y-116721791D01*
X103341623Y-116922283D01*
X103367999Y-117038966D01*
X103467716Y-117310442D01*
X103605150Y-117557882D01*
X103776891Y-117778251D01*
X103979529Y-117968513D01*
X104209654Y-118125633D01*
X104463857Y-118246576D01*
X104738728Y-118328305D01*
X104837004Y-118346736D01*
X104962551Y-118357616D01*
X105115299Y-118356961D01*
X105278043Y-118345922D01*
X105433578Y-118325649D01*
X105560952Y-118298341D01*
X105827325Y-118200556D01*
X106081115Y-118058881D01*
X106268977Y-117918662D01*
X106338044Y-117860932D01*
X106188826Y-117710375D01*
X106112288Y-117635995D01*
X106056430Y-117590321D01*
X106011812Y-117567054D01*
X105968992Y-117559895D01*
X105963153Y-117559819D01*
X105859309Y-117543174D01*
X105751298Y-117499704D01*
X105663361Y-117439237D01*
X105611091Y-117390132D01*
X105611091Y-117463430D01*
X105608868Y-117506811D01*
X105594251Y-117528442D01*
X105555318Y-117535892D01*
X105495637Y-117536728D01*
X105380182Y-117536728D01*
X105380182Y-116945777D01*
X105281350Y-116857290D01*
X105599546Y-116857290D01*
X105849901Y-117093100D01*
X105938629Y-117175723D01*
X106015703Y-117245703D01*
X106074852Y-117297486D01*
X106109808Y-117325518D01*
X106116082Y-117328909D01*
X106144883Y-117316953D01*
X106183535Y-117292747D01*
X106245647Y-117224850D01*
X106295547Y-117123117D01*
X106330793Y-116998849D01*
X106348946Y-116863344D01*
X106347565Y-116727905D01*
X106328844Y-116619914D01*
X106278606Y-116502054D01*
X106202760Y-116409089D01*
X106109157Y-116345487D01*
X106005647Y-116315716D01*
X105900083Y-116324244D01*
X105846626Y-116345484D01*
X105736525Y-116428004D01*
X105658420Y-116542212D01*
X105614356Y-116684644D01*
X105606461Y-116752509D01*
X105599546Y-116857290D01*
X105281350Y-116857290D01*
X105055300Y-116654903D01*
X104957968Y-116696146D01*
X104909742Y-116712539D01*
X104848036Y-116724907D01*
X104765145Y-116734038D01*
X104653366Y-116740718D01*
X104504996Y-116745736D01*
X104462319Y-116746798D01*
X104064000Y-116756206D01*
X104064000Y-117536728D01*
X103810000Y-117536728D01*
X103810000Y-115851091D01*
X104064000Y-115851091D01*
X104064000Y-116520728D01*
X104397315Y-116520728D01*
X104521661Y-116519201D01*
X104633689Y-116515010D01*
X104723220Y-116508739D01*
X104780078Y-116500972D01*
X104789861Y-116498208D01*
X104832435Y-116476041D01*
X104846863Y-116457799D01*
X104829968Y-116437210D01*
X104784304Y-116390668D01*
X104715201Y-116323364D01*
X104627991Y-116240488D01*
X104528003Y-116147232D01*
X104526130Y-116145500D01*
X104409920Y-116039132D01*
X104321383Y-115961046D01*
X104255186Y-115907221D01*
X104205998Y-115873637D01*
X104168489Y-115856270D01*
X104163871Y-115855504D01*
X104525603Y-115855504D01*
X104525819Y-115855720D01*
X104546148Y-115874462D01*
X104593379Y-115918479D01*
X104660738Y-115981444D01*
X104741449Y-116057031D01*
X104752008Y-116066929D01*
X104834419Y-116141652D01*
X104905763Y-116201610D01*
X104959022Y-116241239D01*
X104987176Y-116254976D01*
X104988690Y-116254531D01*
X105005652Y-116223298D01*
X105010728Y-116183805D01*
X104992330Y-116088295D01*
X104943729Y-115990649D01*
X104885958Y-115921411D01*
X104839970Y-115887959D01*
X104782488Y-115868116D01*
X104698249Y-115857218D01*
X104669391Y-115855232D01*
X104593719Y-115851838D01*
X104542214Y-115851941D01*
X104525603Y-115855504D01*
X104163871Y-115855504D01*
X104137326Y-115851102D01*
X104135813Y-115851091D01*
X104064000Y-115851091D01*
X103810000Y-115851091D01*
X103810000Y-115620182D01*
X103957918Y-115620182D01*
X103867728Y-115527819D01*
X103812909Y-115476794D01*
X103767293Y-115443250D01*
X103747732Y-115435455D01*
X103709578Y-115455895D01*
X103659822Y-115512183D01*
X103602652Y-115596769D01*
X103542260Y-115702103D01*
X103482834Y-115820634D01*
X103428566Y-115944813D01*
X103383643Y-116067089D01*
X103367036Y-116121451D01*
X103330654Y-116303627D01*
X103314304Y-116509656D01*
X103085903Y-116509656D01*
X103086821Y-116426186D01*
X103091138Y-116318988D01*
X103099705Y-116232678D01*
X103114005Y-116154619D01*
X103135520Y-116072173D01*
X103148346Y-116028970D01*
X103260541Y-115734881D01*
X103409151Y-115467885D01*
X103569718Y-115259063D01*
X103893177Y-115259063D01*
X104082852Y-115436904D01*
X104272528Y-115614744D01*
X104566582Y-115624575D01*
X104704825Y-115630881D01*
X104807221Y-115640107D01*
X104884080Y-115653718D01*
X104945716Y-115673180D01*
X104964546Y-115681170D01*
X105074286Y-115749786D01*
X105166409Y-115843685D01*
X105228726Y-115949514D01*
X105240248Y-115983233D01*
X105260239Y-116099972D01*
X105262241Y-116226586D01*
X105246796Y-116342755D01*
X105229131Y-116399588D01*
X105193534Y-116484783D01*
X105273771Y-116560483D01*
X105323341Y-116604886D01*
X105358571Y-116632121D01*
X105367095Y-116636182D01*
X105370893Y-116614189D01*
X105374257Y-116552597D01*
X105377020Y-116457991D01*
X105379011Y-116336952D01*
X105380061Y-116196064D01*
X105380182Y-116126975D01*
X105380182Y-115617769D01*
X105501409Y-115624748D01*
X105622637Y-115631728D01*
X105629060Y-115949124D01*
X105635484Y-116266521D01*
X105729888Y-116204047D01*
X105841055Y-116154061D01*
X105973993Y-116130197D01*
X106111401Y-116133959D01*
X106222182Y-116161279D01*
X106349552Y-116233843D01*
X106452502Y-116342589D01*
X106528602Y-116483087D01*
X106575419Y-116650910D01*
X106590560Y-116832455D01*
X106578704Y-117011285D01*
X106540640Y-117160255D01*
X106472620Y-117289860D01*
X106391753Y-117389161D01*
X106279005Y-117508375D01*
X106378002Y-117591372D01*
X106434102Y-117636881D01*
X106474954Y-117667200D01*
X106488546Y-117674776D01*
X106506642Y-117657491D01*
X106541503Y-117612357D01*
X106574348Y-117565547D01*
X106709406Y-117325586D01*
X106802447Y-117066529D01*
X106853491Y-116788304D01*
X106864250Y-116578455D01*
X106847172Y-116306623D01*
X106793920Y-116057716D01*
X106701947Y-115822999D01*
X106583121Y-115615396D01*
X106405865Y-115384948D01*
X106200758Y-115191058D01*
X105967120Y-115033246D01*
X105704270Y-114911033D01*
X105484091Y-114841546D01*
X105356412Y-114818976D01*
X105200043Y-114807193D01*
X105031178Y-114806116D01*
X104866009Y-114815661D01*
X104720732Y-114835746D01*
X104675909Y-114845669D01*
X104509970Y-114897963D01*
X104337115Y-114970520D01*
X104174054Y-115055375D01*
X104037495Y-115144560D01*
X104018998Y-115158877D01*
X103893177Y-115259063D01*
X103569718Y-115259063D01*
X103591953Y-115230146D01*
X103806723Y-115023829D01*
X104051238Y-114851100D01*
X104323274Y-114714124D01*
X104592935Y-114622355D01*
X104758161Y-114590345D01*
X104951010Y-114573202D01*
X105155388Y-114570907D01*
X105355199Y-114583441D01*
G04 #@! TO.C,G1*
G36*
X137807596Y-86483193D02*
X138115158Y-86533156D01*
X138382020Y-86621833D01*
X138622205Y-86755727D01*
X138849734Y-86941338D01*
X138898891Y-86989165D01*
X139094402Y-87213745D01*
X139242034Y-87453148D01*
X139347423Y-87719691D01*
X139416205Y-88025693D01*
X139434447Y-88159437D01*
X139455569Y-88342000D01*
X136339500Y-88342000D01*
X136339500Y-88465655D01*
X136359498Y-88631233D01*
X136413890Y-88820179D01*
X136494271Y-89008949D01*
X136592236Y-89174001D01*
X136592537Y-89174422D01*
X136777914Y-89381698D01*
X136997516Y-89539634D01*
X137243656Y-89646592D01*
X137508652Y-89700940D01*
X137784818Y-89701041D01*
X138064469Y-89645261D01*
X138320447Y-89542051D01*
X138458475Y-89452410D01*
X138606466Y-89324715D01*
X138745178Y-89177297D01*
X138849166Y-89038292D01*
X138948443Y-88883583D01*
X139137580Y-88979060D01*
X139326718Y-89074536D01*
X139238046Y-89239169D01*
X139134890Y-89394338D01*
X138992935Y-89559150D01*
X138830390Y-89715277D01*
X138665465Y-89844390D01*
X138589071Y-89892372D01*
X138332720Y-90005866D01*
X138041191Y-90080773D01*
X137731351Y-90114887D01*
X137420071Y-90105998D01*
X137209796Y-90072887D01*
X136911495Y-89976275D01*
X136640647Y-89822878D01*
X136399380Y-89614143D01*
X136226480Y-89404627D01*
X136056860Y-89119072D01*
X135943462Y-88823133D01*
X135883271Y-88522381D01*
X135873270Y-88222390D01*
X135906357Y-87961000D01*
X136366970Y-87961000D01*
X138949883Y-87961000D01*
X138928573Y-87873687D01*
X138834714Y-87615383D01*
X138690942Y-87391183D01*
X138503376Y-87205319D01*
X138278138Y-87062022D01*
X138021348Y-86965521D01*
X137739127Y-86920049D01*
X137548441Y-86919653D01*
X137270780Y-86965562D01*
X137019298Y-87067224D01*
X136799921Y-87220694D01*
X136618574Y-87422029D01*
X136505237Y-87614123D01*
X136453038Y-87727113D01*
X136410566Y-87826314D01*
X136387243Y-87889562D01*
X136366970Y-87961000D01*
X135906357Y-87961000D01*
X135910442Y-87928734D01*
X135991773Y-87646985D01*
X136114245Y-87382715D01*
X136274842Y-87141499D01*
X136470549Y-86928909D01*
X136698348Y-86750519D01*
X136955225Y-86611900D01*
X137238162Y-86518627D01*
X137544143Y-86476271D01*
X137807596Y-86483193D01*
X137807596Y-86483193D01*
G37*
X137807596Y-86483193D02*
X138115158Y-86533156D01*
X138382020Y-86621833D01*
X138622205Y-86755727D01*
X138849734Y-86941338D01*
X138898891Y-86989165D01*
X139094402Y-87213745D01*
X139242034Y-87453148D01*
X139347423Y-87719691D01*
X139416205Y-88025693D01*
X139434447Y-88159437D01*
X139455569Y-88342000D01*
X136339500Y-88342000D01*
X136339500Y-88465655D01*
X136359498Y-88631233D01*
X136413890Y-88820179D01*
X136494271Y-89008949D01*
X136592236Y-89174001D01*
X136592537Y-89174422D01*
X136777914Y-89381698D01*
X136997516Y-89539634D01*
X137243656Y-89646592D01*
X137508652Y-89700940D01*
X137784818Y-89701041D01*
X138064469Y-89645261D01*
X138320447Y-89542051D01*
X138458475Y-89452410D01*
X138606466Y-89324715D01*
X138745178Y-89177297D01*
X138849166Y-89038292D01*
X138948443Y-88883583D01*
X139137580Y-88979060D01*
X139326718Y-89074536D01*
X139238046Y-89239169D01*
X139134890Y-89394338D01*
X138992935Y-89559150D01*
X138830390Y-89715277D01*
X138665465Y-89844390D01*
X138589071Y-89892372D01*
X138332720Y-90005866D01*
X138041191Y-90080773D01*
X137731351Y-90114887D01*
X137420071Y-90105998D01*
X137209796Y-90072887D01*
X136911495Y-89976275D01*
X136640647Y-89822878D01*
X136399380Y-89614143D01*
X136226480Y-89404627D01*
X136056860Y-89119072D01*
X135943462Y-88823133D01*
X135883271Y-88522381D01*
X135873270Y-88222390D01*
X135906357Y-87961000D01*
X136366970Y-87961000D01*
X138949883Y-87961000D01*
X138928573Y-87873687D01*
X138834714Y-87615383D01*
X138690942Y-87391183D01*
X138503376Y-87205319D01*
X138278138Y-87062022D01*
X138021348Y-86965521D01*
X137739127Y-86920049D01*
X137548441Y-86919653D01*
X137270780Y-86965562D01*
X137019298Y-87067224D01*
X136799921Y-87220694D01*
X136618574Y-87422029D01*
X136505237Y-87614123D01*
X136453038Y-87727113D01*
X136410566Y-87826314D01*
X136387243Y-87889562D01*
X136366970Y-87961000D01*
X135906357Y-87961000D01*
X135910442Y-87928734D01*
X135991773Y-87646985D01*
X136114245Y-87382715D01*
X136274842Y-87141499D01*
X136470549Y-86928909D01*
X136698348Y-86750519D01*
X136955225Y-86611900D01*
X137238162Y-86518627D01*
X137544143Y-86476271D01*
X137807596Y-86483193D01*
G36*
X120179558Y-85364684D02*
X120200695Y-85387538D01*
X120229504Y-85429944D01*
X120267707Y-85495390D01*
X120317027Y-85587365D01*
X120379188Y-85709358D01*
X120455911Y-85864857D01*
X120548920Y-86057351D01*
X120659938Y-86290329D01*
X120790686Y-86567279D01*
X120942888Y-86891690D01*
X121118267Y-87267051D01*
X121304793Y-87667312D01*
X121472306Y-88027064D01*
X121632125Y-88370226D01*
X121782218Y-88692438D01*
X121920551Y-88989339D01*
X122045091Y-89256567D01*
X122153805Y-89489760D01*
X122244661Y-89684558D01*
X122315625Y-89836599D01*
X122364665Y-89941521D01*
X122389747Y-89994965D01*
X122392609Y-90000937D01*
X122369430Y-90011984D01*
X122296878Y-90020307D01*
X122189066Y-90024505D01*
X122153143Y-90024750D01*
X121901289Y-90024750D01*
X121540082Y-89262978D01*
X121178875Y-88501207D01*
X120161399Y-88500978D01*
X119143923Y-88500750D01*
X118783067Y-89262750D01*
X118422212Y-90024750D01*
X117891119Y-90024750D01*
X117943467Y-89923519D01*
X117965873Y-89877733D01*
X118012663Y-89780202D01*
X118081145Y-89636619D01*
X118168625Y-89452679D01*
X118272413Y-89234073D01*
X118389815Y-88986495D01*
X118518139Y-88715638D01*
X118654694Y-88427196D01*
X118796785Y-88126862D01*
X118853559Y-88006786D01*
X119385000Y-88006786D01*
X119415318Y-88011675D01*
X119500548Y-88016047D01*
X119632102Y-88019706D01*
X119801392Y-88022457D01*
X119999831Y-88024105D01*
X120162875Y-88024500D01*
X120377561Y-88023830D01*
X120569548Y-88021950D01*
X120730249Y-88019046D01*
X120851077Y-88015310D01*
X120923443Y-88010931D01*
X120940750Y-88007333D01*
X120927981Y-87974783D01*
X120892399Y-87894510D01*
X120838084Y-87775214D01*
X120769121Y-87625591D01*
X120689591Y-87454341D01*
X120603578Y-87270160D01*
X120515164Y-87081748D01*
X120428431Y-86897802D01*
X120347464Y-86727021D01*
X120276343Y-86578101D01*
X120219153Y-86459742D01*
X120179976Y-86380642D01*
X120162894Y-86349498D01*
X120162533Y-86349381D01*
X120145707Y-86382058D01*
X120106512Y-86462952D01*
X120049094Y-86583223D01*
X119977601Y-86734032D01*
X119896179Y-86906538D01*
X119808977Y-87091901D01*
X119720140Y-87281281D01*
X119633816Y-87465839D01*
X119554152Y-87636734D01*
X119485295Y-87785126D01*
X119431393Y-87902176D01*
X119396591Y-87979044D01*
X119385000Y-88006786D01*
X118853559Y-88006786D01*
X118941722Y-87820328D01*
X119086811Y-87513289D01*
X119229361Y-87211437D01*
X119366679Y-86920465D01*
X119496072Y-86646068D01*
X119614849Y-86393937D01*
X119720317Y-86169766D01*
X119809783Y-85979249D01*
X119880555Y-85828078D01*
X119903642Y-85778580D01*
X119984593Y-85608318D01*
X120045978Y-85488910D01*
X120092619Y-85412578D01*
X120129334Y-85371545D01*
X120160945Y-85358033D01*
X120164371Y-85357893D01*
X120179558Y-85364684D01*
X120179558Y-85364684D01*
G37*
X120179558Y-85364684D02*
X120200695Y-85387538D01*
X120229504Y-85429944D01*
X120267707Y-85495390D01*
X120317027Y-85587365D01*
X120379188Y-85709358D01*
X120455911Y-85864857D01*
X120548920Y-86057351D01*
X120659938Y-86290329D01*
X120790686Y-86567279D01*
X120942888Y-86891690D01*
X121118267Y-87267051D01*
X121304793Y-87667312D01*
X121472306Y-88027064D01*
X121632125Y-88370226D01*
X121782218Y-88692438D01*
X121920551Y-88989339D01*
X122045091Y-89256567D01*
X122153805Y-89489760D01*
X122244661Y-89684558D01*
X122315625Y-89836599D01*
X122364665Y-89941521D01*
X122389747Y-89994965D01*
X122392609Y-90000937D01*
X122369430Y-90011984D01*
X122296878Y-90020307D01*
X122189066Y-90024505D01*
X122153143Y-90024750D01*
X121901289Y-90024750D01*
X121540082Y-89262978D01*
X121178875Y-88501207D01*
X120161399Y-88500978D01*
X119143923Y-88500750D01*
X118783067Y-89262750D01*
X118422212Y-90024750D01*
X117891119Y-90024750D01*
X117943467Y-89923519D01*
X117965873Y-89877733D01*
X118012663Y-89780202D01*
X118081145Y-89636619D01*
X118168625Y-89452679D01*
X118272413Y-89234073D01*
X118389815Y-88986495D01*
X118518139Y-88715638D01*
X118654694Y-88427196D01*
X118796785Y-88126862D01*
X118853559Y-88006786D01*
X119385000Y-88006786D01*
X119415318Y-88011675D01*
X119500548Y-88016047D01*
X119632102Y-88019706D01*
X119801392Y-88022457D01*
X119999831Y-88024105D01*
X120162875Y-88024500D01*
X120377561Y-88023830D01*
X120569548Y-88021950D01*
X120730249Y-88019046D01*
X120851077Y-88015310D01*
X120923443Y-88010931D01*
X120940750Y-88007333D01*
X120927981Y-87974783D01*
X120892399Y-87894510D01*
X120838084Y-87775214D01*
X120769121Y-87625591D01*
X120689591Y-87454341D01*
X120603578Y-87270160D01*
X120515164Y-87081748D01*
X120428431Y-86897802D01*
X120347464Y-86727021D01*
X120276343Y-86578101D01*
X120219153Y-86459742D01*
X120179976Y-86380642D01*
X120162894Y-86349498D01*
X120162533Y-86349381D01*
X120145707Y-86382058D01*
X120106512Y-86462952D01*
X120049094Y-86583223D01*
X119977601Y-86734032D01*
X119896179Y-86906538D01*
X119808977Y-87091901D01*
X119720140Y-87281281D01*
X119633816Y-87465839D01*
X119554152Y-87636734D01*
X119485295Y-87785126D01*
X119431393Y-87902176D01*
X119396591Y-87979044D01*
X119385000Y-88006786D01*
X118853559Y-88006786D01*
X118941722Y-87820328D01*
X119086811Y-87513289D01*
X119229361Y-87211437D01*
X119366679Y-86920465D01*
X119496072Y-86646068D01*
X119614849Y-86393937D01*
X119720317Y-86169766D01*
X119809783Y-85979249D01*
X119880555Y-85828078D01*
X119903642Y-85778580D01*
X119984593Y-85608318D01*
X120045978Y-85488910D01*
X120092619Y-85412578D01*
X120129334Y-85371545D01*
X120160945Y-85358033D01*
X120164371Y-85357893D01*
X120179558Y-85364684D01*
G36*
X123449000Y-90024750D02*
X123004500Y-90024750D01*
X123004500Y-85230500D01*
X123449000Y-85230500D01*
X123449000Y-90024750D01*
X123449000Y-90024750D01*
G37*
X123449000Y-90024750D02*
X123004500Y-90024750D01*
X123004500Y-85230500D01*
X123449000Y-85230500D01*
X123449000Y-90024750D01*
G36*
X124750750Y-90024750D02*
X124306250Y-90024750D01*
X124306250Y-85230500D01*
X124750750Y-85230500D01*
X124750750Y-90024750D01*
X124750750Y-90024750D01*
G37*
X124750750Y-90024750D02*
X124306250Y-90024750D01*
X124306250Y-85230500D01*
X124750750Y-85230500D01*
X124750750Y-90024750D01*
G36*
X130455577Y-87689851D02*
X130324558Y-88145384D01*
X130209578Y-88542864D01*
X130109673Y-88885423D01*
X130023879Y-89176188D01*
X129951232Y-89418289D01*
X129890769Y-89614856D01*
X129841526Y-89769018D01*
X129802540Y-89883904D01*
X129772846Y-89962644D01*
X129751482Y-90008368D01*
X129737482Y-90024204D01*
X129736688Y-90024274D01*
X129717679Y-90004181D01*
X129684057Y-89942580D01*
X129634846Y-89837138D01*
X129569070Y-89685521D01*
X129485751Y-89485395D01*
X129383915Y-89234425D01*
X129262585Y-88930280D01*
X129120785Y-88570623D01*
X129006260Y-88278024D01*
X128882816Y-87962647D01*
X128765943Y-87665585D01*
X128657709Y-87391998D01*
X128560185Y-87147047D01*
X128475442Y-86935892D01*
X128405549Y-86763691D01*
X128352577Y-86635607D01*
X128318596Y-86556798D01*
X128305875Y-86532250D01*
X128291054Y-86560907D01*
X128254927Y-86643453D01*
X128199599Y-86774752D01*
X128127176Y-86949665D01*
X128039761Y-87163056D01*
X127939461Y-87409786D01*
X127828380Y-87684719D01*
X127708624Y-87982717D01*
X127590489Y-88278109D01*
X127427714Y-88684526D01*
X127286651Y-89033386D01*
X127166520Y-89326518D01*
X127066541Y-89565748D01*
X126985936Y-89752905D01*
X126923925Y-89889816D01*
X126879729Y-89978309D01*
X126852569Y-90020211D01*
X126845923Y-90024359D01*
X126826696Y-90007845D01*
X126800174Y-89955074D01*
X126764867Y-89861594D01*
X126719287Y-89722955D01*
X126661945Y-89534705D01*
X126591353Y-89292393D01*
X126535473Y-89096062D01*
X126466529Y-88852091D01*
X126384109Y-88560336D01*
X126291978Y-88234131D01*
X126193899Y-87886806D01*
X126093638Y-87531694D01*
X125994959Y-87182126D01*
X125901628Y-86851434D01*
X125892192Y-86818000D01*
X125812267Y-86534904D01*
X125737243Y-86269424D01*
X125668963Y-86028066D01*
X125609272Y-85817339D01*
X125560015Y-85643750D01*
X125523036Y-85513809D01*
X125500179Y-85434022D01*
X125493627Y-85411680D01*
X125490188Y-85383216D01*
X125509938Y-85367123D01*
X125564736Y-85360919D01*
X125666441Y-85362122D01*
X125721185Y-85364055D01*
X125966528Y-85373375D01*
X126422394Y-86992625D01*
X126509788Y-87302697D01*
X126592383Y-87595059D01*
X126668514Y-87863864D01*
X126736516Y-88103268D01*
X126794725Y-88307425D01*
X126841477Y-88470489D01*
X126875106Y-88586615D01*
X126893947Y-88649957D01*
X126897084Y-88659500D01*
X126911969Y-88639942D01*
X126948002Y-88566046D01*
X127003167Y-88442597D01*
X127075451Y-88274382D01*
X127162837Y-88066186D01*
X127263311Y-87822795D01*
X127374857Y-87548997D01*
X127495461Y-87249576D01*
X127582199Y-87032312D01*
X127731925Y-86657019D01*
X127860409Y-86337445D01*
X127969179Y-86070031D01*
X128059766Y-85851221D01*
X128133698Y-85677456D01*
X128192505Y-85545179D01*
X128237718Y-85450832D01*
X128270864Y-85390857D01*
X128293474Y-85361697D01*
X128302224Y-85357499D01*
X128319462Y-85370558D01*
X128346098Y-85412145D01*
X128383668Y-85485875D01*
X128433711Y-85595363D01*
X128497765Y-85744223D01*
X128577367Y-85936071D01*
X128674054Y-86174522D01*
X128789365Y-86463191D01*
X128924838Y-86805692D01*
X129005763Y-87011359D01*
X129126609Y-87318348D01*
X129240769Y-87607223D01*
X129346102Y-87872645D01*
X129440468Y-88109274D01*
X129521727Y-88311771D01*
X129587739Y-88474797D01*
X129636363Y-88593013D01*
X129665460Y-88661078D01*
X129673011Y-88676000D01*
X129684787Y-88648456D01*
X129712295Y-88565341D01*
X129753883Y-88432155D01*
X129807903Y-88254402D01*
X129872704Y-88037585D01*
X129946638Y-87787206D01*
X130028054Y-87508768D01*
X130115302Y-87207773D01*
X130166478Y-87030077D01*
X130642502Y-85373375D01*
X130884077Y-85364163D01*
X131125653Y-85354952D01*
X130455577Y-87689851D01*
X130455577Y-87689851D01*
G37*
X130455577Y-87689851D02*
X130324558Y-88145384D01*
X130209578Y-88542864D01*
X130109673Y-88885423D01*
X130023879Y-89176188D01*
X129951232Y-89418289D01*
X129890769Y-89614856D01*
X129841526Y-89769018D01*
X129802540Y-89883904D01*
X129772846Y-89962644D01*
X129751482Y-90008368D01*
X129737482Y-90024204D01*
X129736688Y-90024274D01*
X129717679Y-90004181D01*
X129684057Y-89942580D01*
X129634846Y-89837138D01*
X129569070Y-89685521D01*
X129485751Y-89485395D01*
X129383915Y-89234425D01*
X129262585Y-88930280D01*
X129120785Y-88570623D01*
X129006260Y-88278024D01*
X128882816Y-87962647D01*
X128765943Y-87665585D01*
X128657709Y-87391998D01*
X128560185Y-87147047D01*
X128475442Y-86935892D01*
X128405549Y-86763691D01*
X128352577Y-86635607D01*
X128318596Y-86556798D01*
X128305875Y-86532250D01*
X128291054Y-86560907D01*
X128254927Y-86643453D01*
X128199599Y-86774752D01*
X128127176Y-86949665D01*
X128039761Y-87163056D01*
X127939461Y-87409786D01*
X127828380Y-87684719D01*
X127708624Y-87982717D01*
X127590489Y-88278109D01*
X127427714Y-88684526D01*
X127286651Y-89033386D01*
X127166520Y-89326518D01*
X127066541Y-89565748D01*
X126985936Y-89752905D01*
X126923925Y-89889816D01*
X126879729Y-89978309D01*
X126852569Y-90020211D01*
X126845923Y-90024359D01*
X126826696Y-90007845D01*
X126800174Y-89955074D01*
X126764867Y-89861594D01*
X126719287Y-89722955D01*
X126661945Y-89534705D01*
X126591353Y-89292393D01*
X126535473Y-89096062D01*
X126466529Y-88852091D01*
X126384109Y-88560336D01*
X126291978Y-88234131D01*
X126193899Y-87886806D01*
X126093638Y-87531694D01*
X125994959Y-87182126D01*
X125901628Y-86851434D01*
X125892192Y-86818000D01*
X125812267Y-86534904D01*
X125737243Y-86269424D01*
X125668963Y-86028066D01*
X125609272Y-85817339D01*
X125560015Y-85643750D01*
X125523036Y-85513809D01*
X125500179Y-85434022D01*
X125493627Y-85411680D01*
X125490188Y-85383216D01*
X125509938Y-85367123D01*
X125564736Y-85360919D01*
X125666441Y-85362122D01*
X125721185Y-85364055D01*
X125966528Y-85373375D01*
X126422394Y-86992625D01*
X126509788Y-87302697D01*
X126592383Y-87595059D01*
X126668514Y-87863864D01*
X126736516Y-88103268D01*
X126794725Y-88307425D01*
X126841477Y-88470489D01*
X126875106Y-88586615D01*
X126893947Y-88649957D01*
X126897084Y-88659500D01*
X126911969Y-88639942D01*
X126948002Y-88566046D01*
X127003167Y-88442597D01*
X127075451Y-88274382D01*
X127162837Y-88066186D01*
X127263311Y-87822795D01*
X127374857Y-87548997D01*
X127495461Y-87249576D01*
X127582199Y-87032312D01*
X127731925Y-86657019D01*
X127860409Y-86337445D01*
X127969179Y-86070031D01*
X128059766Y-85851221D01*
X128133698Y-85677456D01*
X128192505Y-85545179D01*
X128237718Y-85450832D01*
X128270864Y-85390857D01*
X128293474Y-85361697D01*
X128302224Y-85357499D01*
X128319462Y-85370558D01*
X128346098Y-85412145D01*
X128383668Y-85485875D01*
X128433711Y-85595363D01*
X128497765Y-85744223D01*
X128577367Y-85936071D01*
X128674054Y-86174522D01*
X128789365Y-86463191D01*
X128924838Y-86805692D01*
X129005763Y-87011359D01*
X129126609Y-87318348D01*
X129240769Y-87607223D01*
X129346102Y-87872645D01*
X129440468Y-88109274D01*
X129521727Y-88311771D01*
X129587739Y-88474797D01*
X129636363Y-88593013D01*
X129665460Y-88661078D01*
X129673011Y-88676000D01*
X129684787Y-88648456D01*
X129712295Y-88565341D01*
X129753883Y-88432155D01*
X129807903Y-88254402D01*
X129872704Y-88037585D01*
X129946638Y-87787206D01*
X130028054Y-87508768D01*
X130115302Y-87207773D01*
X130166478Y-87030077D01*
X130642502Y-85373375D01*
X130884077Y-85364163D01*
X131125653Y-85354952D01*
X130455577Y-87689851D01*
G36*
X132339000Y-90024750D02*
X131894500Y-90024750D01*
X131894500Y-86564000D01*
X132339000Y-86564000D01*
X132339000Y-90024750D01*
X132339000Y-90024750D01*
G37*
X132339000Y-90024750D02*
X131894500Y-90024750D01*
X131894500Y-86564000D01*
X132339000Y-86564000D01*
X132339000Y-90024750D01*
G36*
X134520985Y-86564322D02*
X134777138Y-86565244D01*
X135005739Y-86566694D01*
X135200065Y-86568600D01*
X135353397Y-86570893D01*
X135459012Y-86573501D01*
X135510191Y-86576353D01*
X135514000Y-86577391D01*
X135497387Y-86605855D01*
X135449578Y-86682990D01*
X135373618Y-86803990D01*
X135272551Y-86964048D01*
X135149421Y-87158360D01*
X135007273Y-87382117D01*
X134849151Y-87630514D01*
X134678101Y-87898745D01*
X134543616Y-88109329D01*
X133573232Y-89627875D01*
X134511866Y-89636284D01*
X135450500Y-89644694D01*
X135450500Y-90024750D01*
X132810070Y-90024750D01*
X132883362Y-89905687D01*
X132914353Y-89856304D01*
X132976007Y-89758913D01*
X133064815Y-89619029D01*
X133177269Y-89442164D01*
X133309859Y-89233834D01*
X133459079Y-88999552D01*
X133621418Y-88744833D01*
X133793370Y-88475191D01*
X133854326Y-88379640D01*
X134025962Y-88110369D01*
X134186835Y-87857488D01*
X134333785Y-87626000D01*
X134463650Y-87420909D01*
X134573271Y-87247216D01*
X134659487Y-87109925D01*
X134719136Y-87014039D01*
X134749057Y-86964560D01*
X134752000Y-86958828D01*
X134721589Y-86955247D01*
X134635711Y-86952011D01*
X134502400Y-86949244D01*
X134329688Y-86947072D01*
X134125609Y-86945619D01*
X133898195Y-86945010D01*
X133863000Y-86945000D01*
X132974000Y-86945000D01*
X132974000Y-86564000D01*
X134244000Y-86564000D01*
X134520985Y-86564322D01*
X134520985Y-86564322D01*
G37*
X134520985Y-86564322D02*
X134777138Y-86565244D01*
X135005739Y-86566694D01*
X135200065Y-86568600D01*
X135353397Y-86570893D01*
X135459012Y-86573501D01*
X135510191Y-86576353D01*
X135514000Y-86577391D01*
X135497387Y-86605855D01*
X135449578Y-86682990D01*
X135373618Y-86803990D01*
X135272551Y-86964048D01*
X135149421Y-87158360D01*
X135007273Y-87382117D01*
X134849151Y-87630514D01*
X134678101Y-87898745D01*
X134543616Y-88109329D01*
X133573232Y-89627875D01*
X134511866Y-89636284D01*
X135450500Y-89644694D01*
X135450500Y-90024750D01*
X132810070Y-90024750D01*
X132883362Y-89905687D01*
X132914353Y-89856304D01*
X132976007Y-89758913D01*
X133064815Y-89619029D01*
X133177269Y-89442164D01*
X133309859Y-89233834D01*
X133459079Y-88999552D01*
X133621418Y-88744833D01*
X133793370Y-88475191D01*
X133854326Y-88379640D01*
X134025962Y-88110369D01*
X134186835Y-87857488D01*
X134333785Y-87626000D01*
X134463650Y-87420909D01*
X134573271Y-87247216D01*
X134659487Y-87109925D01*
X134719136Y-87014039D01*
X134749057Y-86964560D01*
X134752000Y-86958828D01*
X134721589Y-86955247D01*
X134635711Y-86952011D01*
X134502400Y-86949244D01*
X134329688Y-86947072D01*
X134125609Y-86945619D01*
X133898195Y-86945010D01*
X133863000Y-86945000D01*
X132974000Y-86945000D01*
X132974000Y-86564000D01*
X134244000Y-86564000D01*
X134520985Y-86564322D01*
G36*
X142641875Y-87084067D02*
X143558581Y-86220783D01*
X144475287Y-85357500D01*
X144794185Y-85357500D01*
X144926013Y-85358635D01*
X145028570Y-85361699D01*
X145089176Y-85366179D01*
X145099854Y-85369878D01*
X145074651Y-85393370D01*
X145007591Y-85455860D01*
X144903275Y-85553060D01*
X144766306Y-85680682D01*
X144601286Y-85834437D01*
X144412818Y-86010037D01*
X144205503Y-86203195D01*
X143991250Y-86402815D01*
X143770344Y-86609190D01*
X143564340Y-86802724D01*
X143377784Y-86979067D01*
X143215223Y-87133868D01*
X143081207Y-87262779D01*
X142980282Y-87361449D01*
X142916997Y-87425529D01*
X142895875Y-87450509D01*
X142917028Y-87478134D01*
X142977817Y-87547532D01*
X143074231Y-87654352D01*
X143202261Y-87794240D01*
X143357900Y-87962847D01*
X143537137Y-88155821D01*
X143735963Y-88368809D01*
X143950371Y-88597460D01*
X144054750Y-88708425D01*
X144275935Y-88943624D01*
X144484224Y-89165669D01*
X144675496Y-89370129D01*
X144845633Y-89552574D01*
X144990512Y-89708573D01*
X145106014Y-89833694D01*
X145188019Y-89923507D01*
X145232406Y-89973580D01*
X145239015Y-89981977D01*
X145239903Y-90002318D01*
X145207277Y-90015248D01*
X145131888Y-90022216D01*
X145004485Y-90024671D01*
X144965937Y-90024750D01*
X144667470Y-90024750D01*
X143654672Y-88948278D01*
X142641875Y-87871807D01*
X142633520Y-88948278D01*
X142625166Y-90024750D01*
X142149750Y-90024750D01*
X142149750Y-85357500D01*
X142387364Y-85357499D01*
X142624979Y-85357499D01*
X142641875Y-87084067D01*
X142641875Y-87084067D01*
G37*
X142641875Y-87084067D02*
X143558581Y-86220783D01*
X144475287Y-85357500D01*
X144794185Y-85357500D01*
X144926013Y-85358635D01*
X145028570Y-85361699D01*
X145089176Y-85366179D01*
X145099854Y-85369878D01*
X145074651Y-85393370D01*
X145007591Y-85455860D01*
X144903275Y-85553060D01*
X144766306Y-85680682D01*
X144601286Y-85834437D01*
X144412818Y-86010037D01*
X144205503Y-86203195D01*
X143991250Y-86402815D01*
X143770344Y-86609190D01*
X143564340Y-86802724D01*
X143377784Y-86979067D01*
X143215223Y-87133868D01*
X143081207Y-87262779D01*
X142980282Y-87361449D01*
X142916997Y-87425529D01*
X142895875Y-87450509D01*
X142917028Y-87478134D01*
X142977817Y-87547532D01*
X143074231Y-87654352D01*
X143202261Y-87794240D01*
X143357900Y-87962847D01*
X143537137Y-88155821D01*
X143735963Y-88368809D01*
X143950371Y-88597460D01*
X144054750Y-88708425D01*
X144275935Y-88943624D01*
X144484224Y-89165669D01*
X144675496Y-89370129D01*
X144845633Y-89552574D01*
X144990512Y-89708573D01*
X145106014Y-89833694D01*
X145188019Y-89923507D01*
X145232406Y-89973580D01*
X145239015Y-89981977D01*
X145239903Y-90002318D01*
X145207277Y-90015248D01*
X145131888Y-90022216D01*
X145004485Y-90024671D01*
X144965937Y-90024750D01*
X144667470Y-90024750D01*
X143654672Y-88948278D01*
X142641875Y-87871807D01*
X142633520Y-88948278D01*
X142625166Y-90024750D01*
X142149750Y-90024750D01*
X142149750Y-85357500D01*
X142387364Y-85357499D01*
X142624979Y-85357499D01*
X142641875Y-87084067D01*
G36*
X147547250Y-85357500D02*
X147547250Y-90024750D01*
X147071000Y-90024750D01*
X147071000Y-85802000D01*
X146718353Y-85802000D01*
X146557491Y-85802021D01*
X146454027Y-85796888D01*
X146401912Y-85778800D01*
X146395098Y-85739960D01*
X146427537Y-85672570D01*
X146493181Y-85568830D01*
X146513268Y-85537558D01*
X146628451Y-85357499D01*
X147087850Y-85357499D01*
X147547250Y-85357500D01*
X147547250Y-85357500D01*
G37*
X147547250Y-85357500D02*
X147547250Y-90024750D01*
X147071000Y-90024750D01*
X147071000Y-85802000D01*
X146718353Y-85802000D01*
X146557491Y-85802021D01*
X146454027Y-85796888D01*
X146401912Y-85778800D01*
X146395098Y-85739960D01*
X146427537Y-85672570D01*
X146493181Y-85568830D01*
X146513268Y-85537558D01*
X146628451Y-85357499D01*
X147087850Y-85357499D01*
X147547250Y-85357500D01*
G36*
X132188629Y-85152023D02*
X132303038Y-85194469D01*
X132399943Y-85276999D01*
X132467526Y-85400561D01*
X132481381Y-85450501D01*
X132478658Y-85567877D01*
X132431520Y-85688429D01*
X132352200Y-85786644D01*
X132304545Y-85819273D01*
X132156758Y-85865895D01*
X132017675Y-85850172D01*
X131891287Y-85772678D01*
X131875450Y-85757550D01*
X131805513Y-85676412D01*
X131774142Y-85599381D01*
X131767500Y-85507831D01*
X131792221Y-85364093D01*
X131858509Y-85255695D01*
X131954549Y-85183584D01*
X132068527Y-85148711D01*
X132188629Y-85152023D01*
X132188629Y-85152023D01*
G37*
X132188629Y-85152023D02*
X132303038Y-85194469D01*
X132399943Y-85276999D01*
X132467526Y-85400561D01*
X132481381Y-85450501D01*
X132478658Y-85567877D01*
X132431520Y-85688429D01*
X132352200Y-85786644D01*
X132304545Y-85819273D01*
X132156758Y-85865895D01*
X132017675Y-85850172D01*
X131891287Y-85772678D01*
X131875450Y-85757550D01*
X131805513Y-85676412D01*
X131774142Y-85599381D01*
X131767500Y-85507831D01*
X131792221Y-85364093D01*
X131858509Y-85255695D01*
X131954549Y-85183584D01*
X132068527Y-85148711D01*
X132188629Y-85152023D01*
D11*
G04 #@! TO.C,R9*
X154540000Y-101275000D02*
X155540000Y-101275000D01*
X155540000Y-102625000D02*
X154540000Y-102625000D01*
G04 #@! TO.C,D2*
X120570000Y-78200000D02*
X120570000Y-76300000D01*
X119470000Y-78200000D02*
X119470000Y-76300000D01*
X119770000Y-78874000D02*
X120270000Y-78874000D01*
X120020000Y-78874000D02*
X119770000Y-78624000D01*
X120270000Y-78624000D02*
X120020000Y-78874000D01*
G04 #@! TO.C,D1*
X118880000Y-78210000D02*
X118880000Y-76310000D01*
X117780000Y-78210000D02*
X117780000Y-76310000D01*
X118080000Y-78884000D02*
X118580000Y-78884000D01*
X118330000Y-78884000D02*
X118080000Y-78634000D01*
X118580000Y-78634000D02*
X118330000Y-78884000D01*
D14*
G04 #@! TO.C,G5*
G36*
X102595428Y-119183286D02*
X99356928Y-119183286D01*
X99356928Y-118357786D01*
X102595428Y-118357786D01*
X102595428Y-119183286D01*
X102595428Y-119183286D01*
G37*
X102595428Y-119183286D02*
X99356928Y-119183286D01*
X99356928Y-118357786D01*
X102595428Y-118357786D01*
X102595428Y-119183286D01*
G36*
X99099499Y-113792269D02*
X99118100Y-113811047D01*
X99147137Y-113841114D01*
X99185658Y-113881465D01*
X99232713Y-113931091D01*
X99287350Y-113988987D01*
X99348618Y-114054147D01*
X99415567Y-114125564D01*
X99487244Y-114202232D01*
X99562698Y-114283144D01*
X99584410Y-114306463D01*
X99660638Y-114388285D01*
X99733257Y-114466083D01*
X99801327Y-114538860D01*
X99863908Y-114605617D01*
X99920059Y-114665355D01*
X99968839Y-114717076D01*
X100009309Y-114759783D01*
X100040528Y-114792476D01*
X100061556Y-114814157D01*
X100071452Y-114823828D01*
X100072105Y-114824244D01*
X100072470Y-114814680D01*
X100071442Y-114790241D01*
X100069208Y-114754124D01*
X100065954Y-114709528D01*
X100063963Y-114684567D01*
X100052751Y-114547785D01*
X100118928Y-114547785D01*
X100119036Y-114581803D01*
X100120137Y-114615887D01*
X100122995Y-114659071D01*
X100127206Y-114707819D01*
X100132368Y-114758593D01*
X100138080Y-114807855D01*
X100143940Y-114852067D01*
X100149544Y-114887692D01*
X100154492Y-114911191D01*
X100157302Y-114918473D01*
X100168096Y-114930972D01*
X100189468Y-114954642D01*
X100220103Y-114988079D01*
X100258685Y-115029878D01*
X100303896Y-115078637D01*
X100354422Y-115132951D01*
X100408945Y-115191416D01*
X100466149Y-115252628D01*
X100524719Y-115315182D01*
X100583337Y-115377675D01*
X100640687Y-115438702D01*
X100695454Y-115496861D01*
X100746320Y-115550745D01*
X100791969Y-115598952D01*
X100831086Y-115640078D01*
X100862353Y-115672718D01*
X100884455Y-115695468D01*
X100896075Y-115706925D01*
X100897514Y-115708031D01*
X100905080Y-115701490D01*
X100923547Y-115683415D01*
X100951324Y-115655428D01*
X100986817Y-115619150D01*
X101028435Y-115576203D01*
X101074584Y-115528207D01*
X101091310Y-115510727D01*
X101279012Y-115314321D01*
X100726714Y-115309523D01*
X100726714Y-115064857D01*
X101398000Y-115064857D01*
X101398472Y-115126089D01*
X101398945Y-115187321D01*
X101543611Y-115037643D01*
X101622519Y-114956000D01*
X101777077Y-114956000D01*
X102005785Y-114956000D01*
X102005785Y-114716227D01*
X101955173Y-114765810D01*
X101925821Y-114795396D01*
X101890379Y-114832343D01*
X101854781Y-114870426D01*
X101840819Y-114885696D01*
X101777077Y-114956000D01*
X101622519Y-114956000D01*
X101688276Y-114887964D01*
X101688281Y-114763232D01*
X101688282Y-114702000D01*
X101751785Y-114702000D01*
X101751785Y-114761499D01*
X101752898Y-114790813D01*
X101755818Y-114810366D01*
X101759921Y-114815971D01*
X101759923Y-114815970D01*
X101769384Y-114807108D01*
X101787147Y-114788140D01*
X101809760Y-114762777D01*
X101815249Y-114756470D01*
X101862438Y-114702000D01*
X101751785Y-114702000D01*
X101688282Y-114702000D01*
X101688285Y-114638500D01*
X101738178Y-114638500D01*
X101770898Y-114636640D01*
X101786530Y-114630958D01*
X101788171Y-114627160D01*
X101789642Y-114611183D01*
X101793132Y-114586511D01*
X101793894Y-114581803D01*
X101799516Y-114547785D01*
X100118928Y-114547785D01*
X100052751Y-114547785D01*
X99864928Y-114547785D01*
X99864928Y-114384500D01*
X100059964Y-114383960D01*
X100064050Y-114376789D01*
X100137071Y-114376789D01*
X100145275Y-114381012D01*
X100166437Y-114383813D01*
X100186964Y-114384500D01*
X100236857Y-114384500D01*
X100236531Y-114314196D01*
X100236334Y-114271718D01*
X100418285Y-114271718D01*
X100418285Y-114384500D01*
X101780025Y-114384500D01*
X101763638Y-114355552D01*
X101749848Y-114335936D01*
X101727128Y-114308460D01*
X101699535Y-114277934D01*
X101688285Y-114266197D01*
X101652024Y-114231477D01*
X101620523Y-114207663D01*
X101588181Y-114190766D01*
X101574893Y-114185474D01*
X101530783Y-114171205D01*
X101475021Y-114156387D01*
X101413982Y-114142519D01*
X101354041Y-114131099D01*
X101323160Y-114126307D01*
X101280071Y-114120317D01*
X101280071Y-114194000D01*
X100735785Y-114194000D01*
X100735785Y-114110913D01*
X100674553Y-114116883D01*
X100638478Y-114120986D01*
X100594899Y-114126808D01*
X100548551Y-114133615D01*
X100504169Y-114140673D01*
X100466488Y-114147246D01*
X100440242Y-114152600D01*
X100434160Y-114154190D01*
X100427485Y-114158068D01*
X100422970Y-114167000D01*
X100420208Y-114184009D01*
X100418791Y-114212120D01*
X100418309Y-114254358D01*
X100418285Y-114271718D01*
X100236334Y-114271718D01*
X100236204Y-114243893D01*
X100213088Y-114271107D01*
X100187324Y-114302599D01*
X100164449Y-114332637D01*
X100147092Y-114357564D01*
X100137886Y-114373723D01*
X100137071Y-114376789D01*
X100064050Y-114376789D01*
X100091714Y-114328250D01*
X100114191Y-114294236D01*
X100144260Y-114255794D01*
X100175926Y-114220520D01*
X100180160Y-114216251D01*
X100236857Y-114159963D01*
X100236857Y-114030714D01*
X100418285Y-114030714D01*
X100418285Y-114063435D01*
X100420271Y-114085459D01*
X100426967Y-114092204D01*
X100430681Y-114091398D01*
X100445097Y-114088006D01*
X100473474Y-114082911D01*
X100511777Y-114076721D01*
X100555973Y-114070047D01*
X100602026Y-114063497D01*
X100645903Y-114057681D01*
X100683569Y-114053207D01*
X100683625Y-114053201D01*
X100735785Y-114047551D01*
X100735785Y-114030714D01*
X100799285Y-114030714D01*
X100799285Y-114130500D01*
X101225643Y-114130500D01*
X101225643Y-114030714D01*
X100799285Y-114030714D01*
X100735785Y-114030714D01*
X100735785Y-113967214D01*
X101280071Y-113967214D01*
X101280071Y-114057106D01*
X101314089Y-114062377D01*
X101406902Y-114077790D01*
X101484024Y-114093207D01*
X101547880Y-114109568D01*
X101600899Y-114127812D01*
X101645506Y-114148878D01*
X101684130Y-114173703D01*
X101719196Y-114203227D01*
X101744447Y-114228831D01*
X101794262Y-114282637D01*
X101818144Y-114252707D01*
X101851994Y-114223698D01*
X101893918Y-114207565D01*
X101939660Y-114203890D01*
X101984965Y-114212258D01*
X102025578Y-114232251D01*
X102057242Y-114263453D01*
X102065410Y-114276920D01*
X102076278Y-114312248D01*
X102079134Y-114354881D01*
X102073953Y-114396038D01*
X102065792Y-114418769D01*
X102042068Y-114451152D01*
X102010302Y-114477170D01*
X101981633Y-114490002D01*
X101965481Y-114499125D01*
X101960465Y-114518748D01*
X101960428Y-114521555D01*
X101959475Y-114536680D01*
X101953604Y-114544475D01*
X101938302Y-114547367D01*
X101911669Y-114547785D01*
X101883390Y-114548387D01*
X101868189Y-114551949D01*
X101861003Y-114561108D01*
X101857241Y-114576134D01*
X101851758Y-114608630D01*
X101852899Y-114627340D01*
X101862665Y-114636023D01*
X101883057Y-114638436D01*
X101890442Y-114638500D01*
X101929313Y-114638500D01*
X102293324Y-114259768D01*
X102360684Y-114189726D01*
X102424967Y-114122965D01*
X102484951Y-114060750D01*
X102539416Y-114004341D01*
X102587142Y-113955002D01*
X102626906Y-113913994D01*
X102657488Y-113882581D01*
X102677668Y-113862024D01*
X102685345Y-113854392D01*
X102713357Y-113827748D01*
X102713052Y-113904285D01*
X102712748Y-113980821D01*
X102391017Y-114314011D01*
X102069285Y-114647202D01*
X102069285Y-115018988D01*
X101944581Y-115021512D01*
X101819876Y-115024036D01*
X101754280Y-115772428D01*
X101744228Y-115887682D01*
X101734695Y-115998101D01*
X101725796Y-116102298D01*
X101717643Y-116198884D01*
X101710352Y-116286470D01*
X101704036Y-116363669D01*
X101698809Y-116429093D01*
X101694786Y-116481353D01*
X101692080Y-116519062D01*
X101690806Y-116540830D01*
X101690752Y-116545451D01*
X101694207Y-116553648D01*
X101704107Y-116568177D01*
X101721082Y-116589746D01*
X101745760Y-116619060D01*
X101778771Y-116656825D01*
X101820746Y-116703746D01*
X101872312Y-116760531D01*
X101934099Y-116827885D01*
X102006737Y-116906514D01*
X102090856Y-116997124D01*
X102150928Y-117061643D01*
X102225126Y-117141358D01*
X102295664Y-117217331D01*
X102361569Y-117288504D01*
X102421871Y-117353819D01*
X102475597Y-117412217D01*
X102521776Y-117462640D01*
X102559436Y-117504028D01*
X102587604Y-117535325D01*
X102605309Y-117555470D01*
X102611575Y-117563381D01*
X102607043Y-117575090D01*
X102592663Y-117593589D01*
X102581817Y-117604861D01*
X102559431Y-117623951D01*
X102544201Y-117629849D01*
X102536475Y-117627315D01*
X102528005Y-117619170D01*
X102508373Y-117598953D01*
X102478743Y-117567902D01*
X102440284Y-117527255D01*
X102394160Y-117478249D01*
X102341538Y-117422124D01*
X102283585Y-117360116D01*
X102221465Y-117293465D01*
X102182040Y-117251071D01*
X102117934Y-117182089D01*
X102057313Y-117116867D01*
X102001343Y-117056661D01*
X101951188Y-117002722D01*
X101908015Y-116956304D01*
X101872989Y-116918660D01*
X101847276Y-116891043D01*
X101832040Y-116874707D01*
X101828400Y-116870828D01*
X101822099Y-116866266D01*
X101821717Y-116873544D01*
X101827326Y-116895033D01*
X101829326Y-116901752D01*
X101841563Y-116972435D01*
X101837137Y-117043076D01*
X101817292Y-117110743D01*
X101783274Y-117172502D01*
X101736327Y-117225421D01*
X101677696Y-117266568D01*
X101673500Y-117268770D01*
X101605773Y-117294181D01*
X101535984Y-117303293D01*
X101466846Y-117297011D01*
X101401073Y-117276240D01*
X101341381Y-117241886D01*
X101290483Y-117194853D01*
X101251095Y-117136047D01*
X101246380Y-117126339D01*
X101224313Y-117078714D01*
X100554357Y-117078714D01*
X100554357Y-117332714D01*
X100309428Y-117332714D01*
X100309428Y-117205714D01*
X100309300Y-117155473D01*
X100308644Y-117120584D01*
X100307056Y-117098257D01*
X100304132Y-117085700D01*
X100299465Y-117080122D01*
X100292652Y-117078735D01*
X100291001Y-117078714D01*
X100274447Y-117073867D01*
X100269141Y-117067375D01*
X100267514Y-117055639D01*
X100264664Y-117028286D01*
X100260819Y-116987781D01*
X100256205Y-116936591D01*
X100251051Y-116877184D01*
X100245583Y-116812025D01*
X100245433Y-116810207D01*
X100225156Y-116564378D01*
X99684967Y-117125439D01*
X99603533Y-117209900D01*
X99525594Y-117290504D01*
X99452080Y-117366304D01*
X99383919Y-117436353D01*
X99322041Y-117499703D01*
X99267373Y-117555408D01*
X99220844Y-117602520D01*
X99183384Y-117640093D01*
X99155922Y-117667180D01*
X99139385Y-117682833D01*
X99134704Y-117686500D01*
X99122910Y-117680449D01*
X99104402Y-117665089D01*
X99094217Y-117655121D01*
X99076366Y-117635327D01*
X99070074Y-117622607D01*
X99073445Y-117611863D01*
X99076563Y-117607619D01*
X99084624Y-117598815D01*
X99104351Y-117577901D01*
X99134824Y-117545838D01*
X99175126Y-117503584D01*
X99224337Y-117452101D01*
X99281538Y-117392347D01*
X99345812Y-117325282D01*
X99416239Y-117251866D01*
X99491901Y-117173058D01*
X99571878Y-117089819D01*
X99651117Y-117007408D01*
X100134383Y-116504966D01*
X100282125Y-116504966D01*
X100300425Y-116721536D01*
X100305836Y-116784722D01*
X100311043Y-116843981D01*
X100315765Y-116896218D01*
X100319719Y-116938338D01*
X100322623Y-116967245D01*
X100323704Y-116976660D01*
X100328683Y-117015214D01*
X101214087Y-117015214D01*
X101215595Y-116996419D01*
X101316445Y-116996419D01*
X101324408Y-117042355D01*
X101345746Y-117089107D01*
X101376991Y-117131895D01*
X101414680Y-117165937D01*
X101453918Y-117186020D01*
X101505008Y-117198471D01*
X101548518Y-117200037D01*
X101591475Y-117190594D01*
X101611178Y-117183261D01*
X101660004Y-117154018D01*
X101698531Y-117111868D01*
X101724639Y-117060099D01*
X101736207Y-117001999D01*
X101736591Y-116988816D01*
X101728315Y-116932178D01*
X101705491Y-116882033D01*
X101670858Y-116840077D01*
X101627157Y-116808006D01*
X101577128Y-116787515D01*
X101523511Y-116780300D01*
X101469046Y-116788057D01*
X101434552Y-116801898D01*
X101389581Y-116834627D01*
X101352942Y-116879736D01*
X101327637Y-116932278D01*
X101316669Y-116987307D01*
X101316445Y-116996419D01*
X101215595Y-116996419D01*
X101218742Y-116957224D01*
X101232995Y-116889064D01*
X101263177Y-116825373D01*
X101307125Y-116769256D01*
X101362678Y-116723816D01*
X101384762Y-116711321D01*
X101670143Y-116711321D01*
X101674678Y-116715857D01*
X101679214Y-116711321D01*
X101674678Y-116706785D01*
X101670143Y-116711321D01*
X101384762Y-116711321D01*
X101393464Y-116706398D01*
X101418261Y-116695538D01*
X101442475Y-116688839D01*
X101471754Y-116685361D01*
X101511742Y-116684162D01*
X101527268Y-116684107D01*
X101567837Y-116683913D01*
X101593613Y-116682810D01*
X101607947Y-116680018D01*
X101614189Y-116674758D01*
X101615688Y-116666249D01*
X101615714Y-116663511D01*
X101611214Y-116653864D01*
X101597417Y-116634946D01*
X101573875Y-116606253D01*
X101540142Y-116567281D01*
X101495770Y-116517524D01*
X101440312Y-116456478D01*
X101373322Y-116383637D01*
X101294351Y-116298498D01*
X101255192Y-116256473D01*
X100894670Y-115870030D01*
X100767603Y-116001036D01*
X100725098Y-116044926D01*
X100673511Y-116098302D01*
X100616322Y-116157556D01*
X100557010Y-116219083D01*
X100499054Y-116279276D01*
X100461330Y-116318504D01*
X100282125Y-116504966D01*
X100134383Y-116504966D01*
X100212912Y-116423322D01*
X100152106Y-115715731D01*
X100099261Y-115100786D01*
X100165916Y-115100786D01*
X100166160Y-115111068D01*
X100167823Y-115137622D01*
X100170755Y-115178643D01*
X100174805Y-115232328D01*
X100179823Y-115296873D01*
X100185660Y-115370474D01*
X100192165Y-115451329D01*
X100199188Y-115537632D01*
X100206578Y-115627581D01*
X100214187Y-115719372D01*
X100221863Y-115811200D01*
X100229457Y-115901263D01*
X100236818Y-115987757D01*
X100243796Y-116068877D01*
X100250242Y-116142821D01*
X100256005Y-116207785D01*
X100260934Y-116261965D01*
X100264881Y-116303556D01*
X100267694Y-116330757D01*
X100269191Y-116341661D01*
X100274807Y-116352178D01*
X100276526Y-116353000D01*
X100283440Y-116346670D01*
X100301582Y-116328578D01*
X100329637Y-116300075D01*
X100366291Y-116262509D01*
X100410229Y-116217229D01*
X100460139Y-116165585D01*
X100514705Y-116108926D01*
X100546685Y-116075634D01*
X100603234Y-116016535D01*
X100655684Y-115961374D01*
X100702737Y-115911541D01*
X100743094Y-115868427D01*
X100775458Y-115833423D01*
X100798530Y-115807921D01*
X100811012Y-115793310D01*
X100811749Y-115792176D01*
X100976178Y-115792176D01*
X100982184Y-115800144D01*
X100999439Y-115820108D01*
X101026802Y-115850811D01*
X101063128Y-115890998D01*
X101107277Y-115939413D01*
X101158104Y-115994801D01*
X101214468Y-116055905D01*
X101275226Y-116121470D01*
X101302750Y-116151078D01*
X101375700Y-116229359D01*
X101437308Y-116295168D01*
X101488484Y-116349414D01*
X101530137Y-116393006D01*
X101563179Y-116426853D01*
X101588517Y-116451865D01*
X101607062Y-116468950D01*
X101619725Y-116479018D01*
X101627414Y-116482977D01*
X101631039Y-116481737D01*
X101631591Y-116479684D01*
X101632711Y-116467237D01*
X101635245Y-116438158D01*
X101639072Y-116393895D01*
X101644065Y-116335892D01*
X101650102Y-116265597D01*
X101657058Y-116184455D01*
X101664809Y-116093912D01*
X101673231Y-115995415D01*
X101682200Y-115890409D01*
X101691592Y-115780342D01*
X101692654Y-115767893D01*
X101702120Y-115657134D01*
X101711222Y-115551116D01*
X101719830Y-115451305D01*
X101727817Y-115359167D01*
X101735055Y-115276168D01*
X101741414Y-115203772D01*
X101746767Y-115143446D01*
X101750986Y-115096657D01*
X101753942Y-115064868D01*
X101755507Y-115049547D01*
X101755581Y-115048982D01*
X101756901Y-115028816D01*
X101750455Y-115020840D01*
X101735340Y-115019528D01*
X101728314Y-115021379D01*
X101717940Y-115027527D01*
X101703282Y-115038887D01*
X101683401Y-115056375D01*
X101657361Y-115080904D01*
X101624224Y-115113389D01*
X101583054Y-115154745D01*
X101532913Y-115205887D01*
X101472864Y-115267729D01*
X101401971Y-115341185D01*
X101343571Y-115401899D01*
X101276832Y-115471486D01*
X101213998Y-115537257D01*
X101156174Y-115598039D01*
X101104463Y-115652659D01*
X101059971Y-115699944D01*
X101023802Y-115738719D01*
X100997061Y-115767812D01*
X100980853Y-115786049D01*
X100976178Y-115792176D01*
X100811749Y-115792176D01*
X100812892Y-115790418D01*
X100806952Y-115781863D01*
X100790059Y-115761900D01*
X100763605Y-115732013D01*
X100728983Y-115693685D01*
X100687585Y-115648401D01*
X100640804Y-115597646D01*
X100590032Y-115542902D01*
X100536662Y-115485655D01*
X100482085Y-115427388D01*
X100427694Y-115369587D01*
X100374881Y-115313733D01*
X100325039Y-115261313D01*
X100279561Y-115213811D01*
X100239838Y-115172709D01*
X100207263Y-115139493D01*
X100183228Y-115115647D01*
X100169125Y-115102654D01*
X100165916Y-115100786D01*
X100099261Y-115100786D01*
X100091299Y-115008140D01*
X99933938Y-114839195D01*
X99896557Y-114799063D01*
X99848699Y-114747683D01*
X99792254Y-114687085D01*
X99729111Y-114619296D01*
X99661159Y-114546346D01*
X99590288Y-114470263D01*
X99518388Y-114393074D01*
X99447347Y-114316809D01*
X99430682Y-114298918D01*
X99084785Y-113927586D01*
X99084785Y-113856686D01*
X99085668Y-113823415D01*
X99088010Y-113798518D01*
X99091352Y-113786335D01*
X99092285Y-113785786D01*
X99099499Y-113792269D01*
X99099499Y-113792269D01*
G37*
X99099499Y-113792269D02*
X99118100Y-113811047D01*
X99147137Y-113841114D01*
X99185658Y-113881465D01*
X99232713Y-113931091D01*
X99287350Y-113988987D01*
X99348618Y-114054147D01*
X99415567Y-114125564D01*
X99487244Y-114202232D01*
X99562698Y-114283144D01*
X99584410Y-114306463D01*
X99660638Y-114388285D01*
X99733257Y-114466083D01*
X99801327Y-114538860D01*
X99863908Y-114605617D01*
X99920059Y-114665355D01*
X99968839Y-114717076D01*
X100009309Y-114759783D01*
X100040528Y-114792476D01*
X100061556Y-114814157D01*
X100071452Y-114823828D01*
X100072105Y-114824244D01*
X100072470Y-114814680D01*
X100071442Y-114790241D01*
X100069208Y-114754124D01*
X100065954Y-114709528D01*
X100063963Y-114684567D01*
X100052751Y-114547785D01*
X100118928Y-114547785D01*
X100119036Y-114581803D01*
X100120137Y-114615887D01*
X100122995Y-114659071D01*
X100127206Y-114707819D01*
X100132368Y-114758593D01*
X100138080Y-114807855D01*
X100143940Y-114852067D01*
X100149544Y-114887692D01*
X100154492Y-114911191D01*
X100157302Y-114918473D01*
X100168096Y-114930972D01*
X100189468Y-114954642D01*
X100220103Y-114988079D01*
X100258685Y-115029878D01*
X100303896Y-115078637D01*
X100354422Y-115132951D01*
X100408945Y-115191416D01*
X100466149Y-115252628D01*
X100524719Y-115315182D01*
X100583337Y-115377675D01*
X100640687Y-115438702D01*
X100695454Y-115496861D01*
X100746320Y-115550745D01*
X100791969Y-115598952D01*
X100831086Y-115640078D01*
X100862353Y-115672718D01*
X100884455Y-115695468D01*
X100896075Y-115706925D01*
X100897514Y-115708031D01*
X100905080Y-115701490D01*
X100923547Y-115683415D01*
X100951324Y-115655428D01*
X100986817Y-115619150D01*
X101028435Y-115576203D01*
X101074584Y-115528207D01*
X101091310Y-115510727D01*
X101279012Y-115314321D01*
X100726714Y-115309523D01*
X100726714Y-115064857D01*
X101398000Y-115064857D01*
X101398472Y-115126089D01*
X101398945Y-115187321D01*
X101543611Y-115037643D01*
X101622519Y-114956000D01*
X101777077Y-114956000D01*
X102005785Y-114956000D01*
X102005785Y-114716227D01*
X101955173Y-114765810D01*
X101925821Y-114795396D01*
X101890379Y-114832343D01*
X101854781Y-114870426D01*
X101840819Y-114885696D01*
X101777077Y-114956000D01*
X101622519Y-114956000D01*
X101688276Y-114887964D01*
X101688281Y-114763232D01*
X101688282Y-114702000D01*
X101751785Y-114702000D01*
X101751785Y-114761499D01*
X101752898Y-114790813D01*
X101755818Y-114810366D01*
X101759921Y-114815971D01*
X101759923Y-114815970D01*
X101769384Y-114807108D01*
X101787147Y-114788140D01*
X101809760Y-114762777D01*
X101815249Y-114756470D01*
X101862438Y-114702000D01*
X101751785Y-114702000D01*
X101688282Y-114702000D01*
X101688285Y-114638500D01*
X101738178Y-114638500D01*
X101770898Y-114636640D01*
X101786530Y-114630958D01*
X101788171Y-114627160D01*
X101789642Y-114611183D01*
X101793132Y-114586511D01*
X101793894Y-114581803D01*
X101799516Y-114547785D01*
X100118928Y-114547785D01*
X100052751Y-114547785D01*
X99864928Y-114547785D01*
X99864928Y-114384500D01*
X100059964Y-114383960D01*
X100064050Y-114376789D01*
X100137071Y-114376789D01*
X100145275Y-114381012D01*
X100166437Y-114383813D01*
X100186964Y-114384500D01*
X100236857Y-114384500D01*
X100236531Y-114314196D01*
X100236334Y-114271718D01*
X100418285Y-114271718D01*
X100418285Y-114384500D01*
X101780025Y-114384500D01*
X101763638Y-114355552D01*
X101749848Y-114335936D01*
X101727128Y-114308460D01*
X101699535Y-114277934D01*
X101688285Y-114266197D01*
X101652024Y-114231477D01*
X101620523Y-114207663D01*
X101588181Y-114190766D01*
X101574893Y-114185474D01*
X101530783Y-114171205D01*
X101475021Y-114156387D01*
X101413982Y-114142519D01*
X101354041Y-114131099D01*
X101323160Y-114126307D01*
X101280071Y-114120317D01*
X101280071Y-114194000D01*
X100735785Y-114194000D01*
X100735785Y-114110913D01*
X100674553Y-114116883D01*
X100638478Y-114120986D01*
X100594899Y-114126808D01*
X100548551Y-114133615D01*
X100504169Y-114140673D01*
X100466488Y-114147246D01*
X100440242Y-114152600D01*
X100434160Y-114154190D01*
X100427485Y-114158068D01*
X100422970Y-114167000D01*
X100420208Y-114184009D01*
X100418791Y-114212120D01*
X100418309Y-114254358D01*
X100418285Y-114271718D01*
X100236334Y-114271718D01*
X100236204Y-114243893D01*
X100213088Y-114271107D01*
X100187324Y-114302599D01*
X100164449Y-114332637D01*
X100147092Y-114357564D01*
X100137886Y-114373723D01*
X100137071Y-114376789D01*
X100064050Y-114376789D01*
X100091714Y-114328250D01*
X100114191Y-114294236D01*
X100144260Y-114255794D01*
X100175926Y-114220520D01*
X100180160Y-114216251D01*
X100236857Y-114159963D01*
X100236857Y-114030714D01*
X100418285Y-114030714D01*
X100418285Y-114063435D01*
X100420271Y-114085459D01*
X100426967Y-114092204D01*
X100430681Y-114091398D01*
X100445097Y-114088006D01*
X100473474Y-114082911D01*
X100511777Y-114076721D01*
X100555973Y-114070047D01*
X100602026Y-114063497D01*
X100645903Y-114057681D01*
X100683569Y-114053207D01*
X100683625Y-114053201D01*
X100735785Y-114047551D01*
X100735785Y-114030714D01*
X100799285Y-114030714D01*
X100799285Y-114130500D01*
X101225643Y-114130500D01*
X101225643Y-114030714D01*
X100799285Y-114030714D01*
X100735785Y-114030714D01*
X100735785Y-113967214D01*
X101280071Y-113967214D01*
X101280071Y-114057106D01*
X101314089Y-114062377D01*
X101406902Y-114077790D01*
X101484024Y-114093207D01*
X101547880Y-114109568D01*
X101600899Y-114127812D01*
X101645506Y-114148878D01*
X101684130Y-114173703D01*
X101719196Y-114203227D01*
X101744447Y-114228831D01*
X101794262Y-114282637D01*
X101818144Y-114252707D01*
X101851994Y-114223698D01*
X101893918Y-114207565D01*
X101939660Y-114203890D01*
X101984965Y-114212258D01*
X102025578Y-114232251D01*
X102057242Y-114263453D01*
X102065410Y-114276920D01*
X102076278Y-114312248D01*
X102079134Y-114354881D01*
X102073953Y-114396038D01*
X102065792Y-114418769D01*
X102042068Y-114451152D01*
X102010302Y-114477170D01*
X101981633Y-114490002D01*
X101965481Y-114499125D01*
X101960465Y-114518748D01*
X101960428Y-114521555D01*
X101959475Y-114536680D01*
X101953604Y-114544475D01*
X101938302Y-114547367D01*
X101911669Y-114547785D01*
X101883390Y-114548387D01*
X101868189Y-114551949D01*
X101861003Y-114561108D01*
X101857241Y-114576134D01*
X101851758Y-114608630D01*
X101852899Y-114627340D01*
X101862665Y-114636023D01*
X101883057Y-114638436D01*
X101890442Y-114638500D01*
X101929313Y-114638500D01*
X102293324Y-114259768D01*
X102360684Y-114189726D01*
X102424967Y-114122965D01*
X102484951Y-114060750D01*
X102539416Y-114004341D01*
X102587142Y-113955002D01*
X102626906Y-113913994D01*
X102657488Y-113882581D01*
X102677668Y-113862024D01*
X102685345Y-113854392D01*
X102713357Y-113827748D01*
X102713052Y-113904285D01*
X102712748Y-113980821D01*
X102391017Y-114314011D01*
X102069285Y-114647202D01*
X102069285Y-115018988D01*
X101944581Y-115021512D01*
X101819876Y-115024036D01*
X101754280Y-115772428D01*
X101744228Y-115887682D01*
X101734695Y-115998101D01*
X101725796Y-116102298D01*
X101717643Y-116198884D01*
X101710352Y-116286470D01*
X101704036Y-116363669D01*
X101698809Y-116429093D01*
X101694786Y-116481353D01*
X101692080Y-116519062D01*
X101690806Y-116540830D01*
X101690752Y-116545451D01*
X101694207Y-116553648D01*
X101704107Y-116568177D01*
X101721082Y-116589746D01*
X101745760Y-116619060D01*
X101778771Y-116656825D01*
X101820746Y-116703746D01*
X101872312Y-116760531D01*
X101934099Y-116827885D01*
X102006737Y-116906514D01*
X102090856Y-116997124D01*
X102150928Y-117061643D01*
X102225126Y-117141358D01*
X102295664Y-117217331D01*
X102361569Y-117288504D01*
X102421871Y-117353819D01*
X102475597Y-117412217D01*
X102521776Y-117462640D01*
X102559436Y-117504028D01*
X102587604Y-117535325D01*
X102605309Y-117555470D01*
X102611575Y-117563381D01*
X102607043Y-117575090D01*
X102592663Y-117593589D01*
X102581817Y-117604861D01*
X102559431Y-117623951D01*
X102544201Y-117629849D01*
X102536475Y-117627315D01*
X102528005Y-117619170D01*
X102508373Y-117598953D01*
X102478743Y-117567902D01*
X102440284Y-117527255D01*
X102394160Y-117478249D01*
X102341538Y-117422124D01*
X102283585Y-117360116D01*
X102221465Y-117293465D01*
X102182040Y-117251071D01*
X102117934Y-117182089D01*
X102057313Y-117116867D01*
X102001343Y-117056661D01*
X101951188Y-117002722D01*
X101908015Y-116956304D01*
X101872989Y-116918660D01*
X101847276Y-116891043D01*
X101832040Y-116874707D01*
X101828400Y-116870828D01*
X101822099Y-116866266D01*
X101821717Y-116873544D01*
X101827326Y-116895033D01*
X101829326Y-116901752D01*
X101841563Y-116972435D01*
X101837137Y-117043076D01*
X101817292Y-117110743D01*
X101783274Y-117172502D01*
X101736327Y-117225421D01*
X101677696Y-117266568D01*
X101673500Y-117268770D01*
X101605773Y-117294181D01*
X101535984Y-117303293D01*
X101466846Y-117297011D01*
X101401073Y-117276240D01*
X101341381Y-117241886D01*
X101290483Y-117194853D01*
X101251095Y-117136047D01*
X101246380Y-117126339D01*
X101224313Y-117078714D01*
X100554357Y-117078714D01*
X100554357Y-117332714D01*
X100309428Y-117332714D01*
X100309428Y-117205714D01*
X100309300Y-117155473D01*
X100308644Y-117120584D01*
X100307056Y-117098257D01*
X100304132Y-117085700D01*
X100299465Y-117080122D01*
X100292652Y-117078735D01*
X100291001Y-117078714D01*
X100274447Y-117073867D01*
X100269141Y-117067375D01*
X100267514Y-117055639D01*
X100264664Y-117028286D01*
X100260819Y-116987781D01*
X100256205Y-116936591D01*
X100251051Y-116877184D01*
X100245583Y-116812025D01*
X100245433Y-116810207D01*
X100225156Y-116564378D01*
X99684967Y-117125439D01*
X99603533Y-117209900D01*
X99525594Y-117290504D01*
X99452080Y-117366304D01*
X99383919Y-117436353D01*
X99322041Y-117499703D01*
X99267373Y-117555408D01*
X99220844Y-117602520D01*
X99183384Y-117640093D01*
X99155922Y-117667180D01*
X99139385Y-117682833D01*
X99134704Y-117686500D01*
X99122910Y-117680449D01*
X99104402Y-117665089D01*
X99094217Y-117655121D01*
X99076366Y-117635327D01*
X99070074Y-117622607D01*
X99073445Y-117611863D01*
X99076563Y-117607619D01*
X99084624Y-117598815D01*
X99104351Y-117577901D01*
X99134824Y-117545838D01*
X99175126Y-117503584D01*
X99224337Y-117452101D01*
X99281538Y-117392347D01*
X99345812Y-117325282D01*
X99416239Y-117251866D01*
X99491901Y-117173058D01*
X99571878Y-117089819D01*
X99651117Y-117007408D01*
X100134383Y-116504966D01*
X100282125Y-116504966D01*
X100300425Y-116721536D01*
X100305836Y-116784722D01*
X100311043Y-116843981D01*
X100315765Y-116896218D01*
X100319719Y-116938338D01*
X100322623Y-116967245D01*
X100323704Y-116976660D01*
X100328683Y-117015214D01*
X101214087Y-117015214D01*
X101215595Y-116996419D01*
X101316445Y-116996419D01*
X101324408Y-117042355D01*
X101345746Y-117089107D01*
X101376991Y-117131895D01*
X101414680Y-117165937D01*
X101453918Y-117186020D01*
X101505008Y-117198471D01*
X101548518Y-117200037D01*
X101591475Y-117190594D01*
X101611178Y-117183261D01*
X101660004Y-117154018D01*
X101698531Y-117111868D01*
X101724639Y-117060099D01*
X101736207Y-117001999D01*
X101736591Y-116988816D01*
X101728315Y-116932178D01*
X101705491Y-116882033D01*
X101670858Y-116840077D01*
X101627157Y-116808006D01*
X101577128Y-116787515D01*
X101523511Y-116780300D01*
X101469046Y-116788057D01*
X101434552Y-116801898D01*
X101389581Y-116834627D01*
X101352942Y-116879736D01*
X101327637Y-116932278D01*
X101316669Y-116987307D01*
X101316445Y-116996419D01*
X101215595Y-116996419D01*
X101218742Y-116957224D01*
X101232995Y-116889064D01*
X101263177Y-116825373D01*
X101307125Y-116769256D01*
X101362678Y-116723816D01*
X101384762Y-116711321D01*
X101670143Y-116711321D01*
X101674678Y-116715857D01*
X101679214Y-116711321D01*
X101674678Y-116706785D01*
X101670143Y-116711321D01*
X101384762Y-116711321D01*
X101393464Y-116706398D01*
X101418261Y-116695538D01*
X101442475Y-116688839D01*
X101471754Y-116685361D01*
X101511742Y-116684162D01*
X101527268Y-116684107D01*
X101567837Y-116683913D01*
X101593613Y-116682810D01*
X101607947Y-116680018D01*
X101614189Y-116674758D01*
X101615688Y-116666249D01*
X101615714Y-116663511D01*
X101611214Y-116653864D01*
X101597417Y-116634946D01*
X101573875Y-116606253D01*
X101540142Y-116567281D01*
X101495770Y-116517524D01*
X101440312Y-116456478D01*
X101373322Y-116383637D01*
X101294351Y-116298498D01*
X101255192Y-116256473D01*
X100894670Y-115870030D01*
X100767603Y-116001036D01*
X100725098Y-116044926D01*
X100673511Y-116098302D01*
X100616322Y-116157556D01*
X100557010Y-116219083D01*
X100499054Y-116279276D01*
X100461330Y-116318504D01*
X100282125Y-116504966D01*
X100134383Y-116504966D01*
X100212912Y-116423322D01*
X100152106Y-115715731D01*
X100099261Y-115100786D01*
X100165916Y-115100786D01*
X100166160Y-115111068D01*
X100167823Y-115137622D01*
X100170755Y-115178643D01*
X100174805Y-115232328D01*
X100179823Y-115296873D01*
X100185660Y-115370474D01*
X100192165Y-115451329D01*
X100199188Y-115537632D01*
X100206578Y-115627581D01*
X100214187Y-115719372D01*
X100221863Y-115811200D01*
X100229457Y-115901263D01*
X100236818Y-115987757D01*
X100243796Y-116068877D01*
X100250242Y-116142821D01*
X100256005Y-116207785D01*
X100260934Y-116261965D01*
X100264881Y-116303556D01*
X100267694Y-116330757D01*
X100269191Y-116341661D01*
X100274807Y-116352178D01*
X100276526Y-116353000D01*
X100283440Y-116346670D01*
X100301582Y-116328578D01*
X100329637Y-116300075D01*
X100366291Y-116262509D01*
X100410229Y-116217229D01*
X100460139Y-116165585D01*
X100514705Y-116108926D01*
X100546685Y-116075634D01*
X100603234Y-116016535D01*
X100655684Y-115961374D01*
X100702737Y-115911541D01*
X100743094Y-115868427D01*
X100775458Y-115833423D01*
X100798530Y-115807921D01*
X100811012Y-115793310D01*
X100811749Y-115792176D01*
X100976178Y-115792176D01*
X100982184Y-115800144D01*
X100999439Y-115820108D01*
X101026802Y-115850811D01*
X101063128Y-115890998D01*
X101107277Y-115939413D01*
X101158104Y-115994801D01*
X101214468Y-116055905D01*
X101275226Y-116121470D01*
X101302750Y-116151078D01*
X101375700Y-116229359D01*
X101437308Y-116295168D01*
X101488484Y-116349414D01*
X101530137Y-116393006D01*
X101563179Y-116426853D01*
X101588517Y-116451865D01*
X101607062Y-116468950D01*
X101619725Y-116479018D01*
X101627414Y-116482977D01*
X101631039Y-116481737D01*
X101631591Y-116479684D01*
X101632711Y-116467237D01*
X101635245Y-116438158D01*
X101639072Y-116393895D01*
X101644065Y-116335892D01*
X101650102Y-116265597D01*
X101657058Y-116184455D01*
X101664809Y-116093912D01*
X101673231Y-115995415D01*
X101682200Y-115890409D01*
X101691592Y-115780342D01*
X101692654Y-115767893D01*
X101702120Y-115657134D01*
X101711222Y-115551116D01*
X101719830Y-115451305D01*
X101727817Y-115359167D01*
X101735055Y-115276168D01*
X101741414Y-115203772D01*
X101746767Y-115143446D01*
X101750986Y-115096657D01*
X101753942Y-115064868D01*
X101755507Y-115049547D01*
X101755581Y-115048982D01*
X101756901Y-115028816D01*
X101750455Y-115020840D01*
X101735340Y-115019528D01*
X101728314Y-115021379D01*
X101717940Y-115027527D01*
X101703282Y-115038887D01*
X101683401Y-115056375D01*
X101657361Y-115080904D01*
X101624224Y-115113389D01*
X101583054Y-115154745D01*
X101532913Y-115205887D01*
X101472864Y-115267729D01*
X101401971Y-115341185D01*
X101343571Y-115401899D01*
X101276832Y-115471486D01*
X101213998Y-115537257D01*
X101156174Y-115598039D01*
X101104463Y-115652659D01*
X101059971Y-115699944D01*
X101023802Y-115738719D01*
X100997061Y-115767812D01*
X100980853Y-115786049D01*
X100976178Y-115792176D01*
X100811749Y-115792176D01*
X100812892Y-115790418D01*
X100806952Y-115781863D01*
X100790059Y-115761900D01*
X100763605Y-115732013D01*
X100728983Y-115693685D01*
X100687585Y-115648401D01*
X100640804Y-115597646D01*
X100590032Y-115542902D01*
X100536662Y-115485655D01*
X100482085Y-115427388D01*
X100427694Y-115369587D01*
X100374881Y-115313733D01*
X100325039Y-115261313D01*
X100279561Y-115213811D01*
X100239838Y-115172709D01*
X100207263Y-115139493D01*
X100183228Y-115115647D01*
X100169125Y-115102654D01*
X100165916Y-115100786D01*
X100099261Y-115100786D01*
X100091299Y-115008140D01*
X99933938Y-114839195D01*
X99896557Y-114799063D01*
X99848699Y-114747683D01*
X99792254Y-114687085D01*
X99729111Y-114619296D01*
X99661159Y-114546346D01*
X99590288Y-114470263D01*
X99518388Y-114393074D01*
X99447347Y-114316809D01*
X99430682Y-114298918D01*
X99084785Y-113927586D01*
X99084785Y-113856686D01*
X99085668Y-113823415D01*
X99088010Y-113798518D01*
X99091352Y-113786335D01*
X99092285Y-113785786D01*
X99099499Y-113792269D01*
G36*
X101564045Y-116874849D02*
X101601550Y-116893428D01*
X101631689Y-116925571D01*
X101632981Y-116927618D01*
X101649356Y-116969749D01*
X101649314Y-117012787D01*
X101633904Y-117052718D01*
X101604172Y-117085530D01*
X101589204Y-117095371D01*
X101546119Y-117112074D01*
X101504731Y-117111560D01*
X101472895Y-117100080D01*
X101439133Y-117074070D01*
X101416878Y-117037667D01*
X101407622Y-116995606D01*
X101412856Y-116952620D01*
X101420541Y-116933836D01*
X101447422Y-116899329D01*
X101482972Y-116877917D01*
X101523183Y-116869718D01*
X101564045Y-116874849D01*
X101564045Y-116874849D01*
G37*
X101564045Y-116874849D02*
X101601550Y-116893428D01*
X101631689Y-116925571D01*
X101632981Y-116927618D01*
X101649356Y-116969749D01*
X101649314Y-117012787D01*
X101633904Y-117052718D01*
X101604172Y-117085530D01*
X101589204Y-117095371D01*
X101546119Y-117112074D01*
X101504731Y-117111560D01*
X101472895Y-117100080D01*
X101439133Y-117074070D01*
X101416878Y-117037667D01*
X101407622Y-116995606D01*
X101412856Y-116952620D01*
X101420541Y-116933836D01*
X101447422Y-116899329D01*
X101482972Y-116877917D01*
X101523183Y-116869718D01*
X101564045Y-116874849D01*
G04 #@! TD*
M02*
