G04 #@! TF.GenerationSoftware,KiCad,Pcbnew,5.0.1-33cea8e~68~ubuntu16.04.1*
G04 #@! TF.CreationDate,2018-11-26T08:07:25+01:00*
G04 #@! TF.ProjectId,wize-shield,77697A652D736869656C642E6B696361,RevA*
G04 #@! TF.SameCoordinates,Original*
G04 #@! TF.FileFunction,Other,Fab,Bot*
%FSLAX46Y46*%
G04 Gerber Fmt 4.6, Leading zero omitted, Abs format (unit mm)*
G04 Created by KiCad (PCBNEW 5.0.1-33cea8e~68~ubuntu16.04.1) date Mon 26 Nov 2018 08:07:25 AM CET*
%MOMM*%
%LPD*%
G01*
G04 APERTURE LIST*
%ADD10C,0.100000*%
%ADD11C,0.150000*%
G04 APERTURE END LIST*
D10*
G04 #@! TO.C,J10*
X139450000Y-69215000D02*
X139450000Y-67310000D01*
X139450000Y-67310000D02*
X114050000Y-67310000D01*
X114050000Y-67310000D02*
X114050000Y-69850000D01*
X114050000Y-69850000D02*
X138815000Y-69850000D01*
X138815000Y-69850000D02*
X139450000Y-69215000D01*
G04 #@! TO.C,J3*
X125695000Y-112885000D02*
X125695000Y-109475000D01*
X119345000Y-109910000D02*
X119345000Y-112885000D01*
X125695000Y-109475000D02*
X119780000Y-109475000D01*
X119780000Y-109475000D02*
X119345000Y-109910000D01*
X119345000Y-112885000D02*
X125695000Y-112885000D01*
X119780000Y-109475000D02*
X119780000Y-108430000D01*
X119780000Y-108430000D02*
X120180000Y-108430000D01*
X120180000Y-108430000D02*
X120180000Y-109475000D01*
X119780000Y-112885000D02*
X119780000Y-113930000D01*
X119780000Y-113930000D02*
X120180000Y-113930000D01*
X120180000Y-113930000D02*
X120180000Y-112885000D01*
X121050000Y-109475000D02*
X121050000Y-108430000D01*
X121050000Y-108430000D02*
X121450000Y-108430000D01*
X121450000Y-108430000D02*
X121450000Y-109475000D01*
X121050000Y-112885000D02*
X121050000Y-113930000D01*
X121050000Y-113930000D02*
X121450000Y-113930000D01*
X121450000Y-113930000D02*
X121450000Y-112885000D01*
X122320000Y-109475000D02*
X122320000Y-108430000D01*
X122320000Y-108430000D02*
X122720000Y-108430000D01*
X122720000Y-108430000D02*
X122720000Y-109475000D01*
X122320000Y-112885000D02*
X122320000Y-113930000D01*
X122320000Y-113930000D02*
X122720000Y-113930000D01*
X122720000Y-113930000D02*
X122720000Y-112885000D01*
X123590000Y-109475000D02*
X123590000Y-108430000D01*
X123590000Y-108430000D02*
X123990000Y-108430000D01*
X123990000Y-108430000D02*
X123990000Y-109475000D01*
X123590000Y-112885000D02*
X123590000Y-113930000D01*
X123590000Y-113930000D02*
X123990000Y-113930000D01*
X123990000Y-113930000D02*
X123990000Y-112885000D01*
X124860000Y-109475000D02*
X124860000Y-108430000D01*
X124860000Y-108430000D02*
X125260000Y-108430000D01*
X125260000Y-108430000D02*
X125260000Y-109475000D01*
X124860000Y-112885000D02*
X124860000Y-113930000D01*
X124860000Y-113930000D02*
X125260000Y-113930000D01*
X125260000Y-113930000D02*
X125260000Y-112885000D01*
G04 #@! TO.C,J11*
X161290000Y-69215000D02*
X161290000Y-67310000D01*
X161290000Y-67310000D02*
X140970000Y-67310000D01*
X140970000Y-67310000D02*
X140970000Y-69850000D01*
X140970000Y-69850000D02*
X160655000Y-69850000D01*
X160655000Y-69850000D02*
X161290000Y-69215000D01*
G04 #@! TO.C,J1*
X123190000Y-116205000D02*
X123190000Y-118110000D01*
X123190000Y-118110000D02*
X143510000Y-118110000D01*
X143510000Y-118110000D02*
X143510000Y-115570000D01*
X143510000Y-115570000D02*
X123825000Y-115570000D01*
X123825000Y-115570000D02*
X123190000Y-116205000D01*
G04 #@! TO.C,J2*
X146050000Y-116205000D02*
X146050000Y-118110000D01*
X146050000Y-118110000D02*
X161290000Y-118110000D01*
X161290000Y-118110000D02*
X161290000Y-115570000D01*
X161290000Y-115570000D02*
X146685000Y-115570000D01*
X146685000Y-115570000D02*
X146050000Y-116205000D01*
G04 #@! TD*
G04 #@! TO.C,J10*
D11*
X127316666Y-68196666D02*
X127316666Y-68696666D01*
X127350000Y-68796666D01*
X127416666Y-68863333D01*
X127516666Y-68896666D01*
X127583333Y-68896666D01*
X126616666Y-68896666D02*
X127016666Y-68896666D01*
X126816666Y-68896666D02*
X126816666Y-68196666D01*
X126883333Y-68296666D01*
X126950000Y-68363333D01*
X127016666Y-68396666D01*
X126183333Y-68196666D02*
X126116666Y-68196666D01*
X126050000Y-68230000D01*
X126016666Y-68263333D01*
X125983333Y-68330000D01*
X125950000Y-68463333D01*
X125950000Y-68630000D01*
X125983333Y-68763333D01*
X126016666Y-68830000D01*
X126050000Y-68863333D01*
X126116666Y-68896666D01*
X126183333Y-68896666D01*
X126250000Y-68863333D01*
X126283333Y-68830000D01*
X126316666Y-68763333D01*
X126350000Y-68630000D01*
X126350000Y-68463333D01*
X126316666Y-68330000D01*
X126283333Y-68263333D01*
X126250000Y-68230000D01*
X126183333Y-68196666D01*
G04 #@! TO.C,J3*
X122753333Y-110796666D02*
X122753333Y-111296666D01*
X122786666Y-111396666D01*
X122853333Y-111463333D01*
X122953333Y-111496666D01*
X123020000Y-111496666D01*
X122486666Y-110796666D02*
X122053333Y-110796666D01*
X122286666Y-111063333D01*
X122186666Y-111063333D01*
X122120000Y-111096666D01*
X122086666Y-111130000D01*
X122053333Y-111196666D01*
X122053333Y-111363333D01*
X122086666Y-111430000D01*
X122120000Y-111463333D01*
X122186666Y-111496666D01*
X122386666Y-111496666D01*
X122453333Y-111463333D01*
X122486666Y-111430000D01*
G04 #@! TO.C,J11*
X151696666Y-68196666D02*
X151696666Y-68696666D01*
X151730000Y-68796666D01*
X151796666Y-68863333D01*
X151896666Y-68896666D01*
X151963333Y-68896666D01*
X150996666Y-68896666D02*
X151396666Y-68896666D01*
X151196666Y-68896666D02*
X151196666Y-68196666D01*
X151263333Y-68296666D01*
X151330000Y-68363333D01*
X151396666Y-68396666D01*
X150330000Y-68896666D02*
X150730000Y-68896666D01*
X150530000Y-68896666D02*
X150530000Y-68196666D01*
X150596666Y-68296666D01*
X150663333Y-68363333D01*
X150730000Y-68396666D01*
G04 #@! TO.C,J1*
X133583333Y-116456666D02*
X133583333Y-116956666D01*
X133616666Y-117056666D01*
X133683333Y-117123333D01*
X133783333Y-117156666D01*
X133850000Y-117156666D01*
X132883333Y-117156666D02*
X133283333Y-117156666D01*
X133083333Y-117156666D02*
X133083333Y-116456666D01*
X133150000Y-116556666D01*
X133216666Y-116623333D01*
X133283333Y-116656666D01*
G04 #@! TO.C,J2*
X153903333Y-116456666D02*
X153903333Y-116956666D01*
X153936666Y-117056666D01*
X154003333Y-117123333D01*
X154103333Y-117156666D01*
X154170000Y-117156666D01*
X153603333Y-116523333D02*
X153570000Y-116490000D01*
X153503333Y-116456666D01*
X153336666Y-116456666D01*
X153270000Y-116490000D01*
X153236666Y-116523333D01*
X153203333Y-116590000D01*
X153203333Y-116656666D01*
X153236666Y-116756666D01*
X153636666Y-117156666D01*
X153203333Y-117156666D01*
G04 #@! TD*
M02*
