G04 #@! TF.GenerationSoftware,KiCad,Pcbnew,5.0.1-33cea8e~68~ubuntu16.04.1*
G04 #@! TF.CreationDate,2018-11-26T08:07:25+01:00*
G04 #@! TF.ProjectId,wize-shield,77697A652D736869656C642E6B696361,RevA*
G04 #@! TF.SameCoordinates,Original*
G04 #@! TF.FileFunction,Paste,Top*
G04 #@! TF.FilePolarity,Positive*
%FSLAX46Y46*%
G04 Gerber Fmt 4.6, Leading zero omitted, Abs format (unit mm)*
G04 Created by KiCad (PCBNEW 5.0.1-33cea8e~68~ubuntu16.04.1) date Mon 26 Nov 2018 08:07:25 AM CET*
%MOMM*%
%LPD*%
G01*
G04 APERTURE LIST*
%ADD10O,1.016000X2.032000*%
%ADD11O,2.032000X1.016000*%
%ADD12R,0.900000X0.500000*%
%ADD13R,0.500000X0.900000*%
%ADD14R,0.650000X1.060000*%
%ADD15R,1.060000X0.650000*%
%ADD16R,0.900000X0.800000*%
%ADD17R,1.100000X1.100000*%
G04 APERTURE END LIST*
D10*
G04 #@! TO.C,U2*
X122360000Y-105730000D03*
X123630000Y-105730000D03*
X126170000Y-105730000D03*
X124900000Y-105730000D03*
X129980000Y-105730000D03*
X131250000Y-105730000D03*
X128710000Y-105730000D03*
X127440000Y-105730000D03*
X137600000Y-105730000D03*
X138870000Y-105730000D03*
X141410000Y-105730000D03*
X140140000Y-105730000D03*
X135060000Y-105730000D03*
X136330000Y-105730000D03*
X136330000Y-93030000D03*
X135060000Y-93030000D03*
X140140000Y-93030000D03*
X141410000Y-93030000D03*
X138870000Y-93030000D03*
X137600000Y-93030000D03*
X127440000Y-93030000D03*
X128710000Y-93030000D03*
X131250000Y-93030000D03*
X129980000Y-93030000D03*
X124900000Y-93030000D03*
X126170000Y-93030000D03*
X123630000Y-93030000D03*
X122360000Y-93030000D03*
D11*
X145220000Y-99380000D03*
X145220000Y-98110000D03*
X145220000Y-96840000D03*
X145220000Y-95570000D03*
X145220000Y-100650000D03*
X145220000Y-101920000D03*
X145220000Y-103190000D03*
X119820000Y-103190000D03*
X119820000Y-101920000D03*
X119820000Y-100650000D03*
X119820000Y-95570000D03*
X119820000Y-96840000D03*
X119820000Y-98110000D03*
X119820000Y-99380000D03*
G04 #@! TD*
D12*
G04 #@! TO.C,R7*
X147820000Y-104930000D03*
X147820000Y-103430000D03*
G04 #@! TD*
G04 #@! TO.C,R10*
X150420000Y-103430000D03*
X150420000Y-104930000D03*
G04 #@! TD*
D13*
G04 #@! TO.C,R8*
X149870000Y-101880000D03*
X148370000Y-101880000D03*
G04 #@! TD*
D14*
G04 #@! TO.C,U1*
X136970000Y-108680000D03*
X136020000Y-108680000D03*
X135070000Y-108680000D03*
X135070000Y-110880000D03*
X136970000Y-110880000D03*
G04 #@! TD*
D15*
G04 #@! TO.C,U4*
X153830000Y-94520000D03*
X153830000Y-93570000D03*
X153830000Y-92620000D03*
X151630000Y-92620000D03*
X151630000Y-94520000D03*
G04 #@! TD*
D16*
G04 #@! TO.C,U3*
X152220000Y-86480000D03*
X154220000Y-87430000D03*
X154220000Y-85530000D03*
G04 #@! TD*
D12*
G04 #@! TO.C,R6*
X121620000Y-111030000D03*
X121620000Y-109530000D03*
G04 #@! TD*
G04 #@! TO.C,L1*
X147890000Y-93210000D03*
X147890000Y-94710000D03*
G04 #@! TD*
G04 #@! TO.C,R1*
X139720000Y-111130000D03*
X139720000Y-109630000D03*
G04 #@! TD*
G04 #@! TO.C,R4*
X149700000Y-93210000D03*
X149700000Y-94710000D03*
G04 #@! TD*
G04 #@! TO.C,R5*
X119720000Y-111030000D03*
X119720000Y-109530000D03*
G04 #@! TD*
D17*
G04 #@! TO.C,R9*
X155790000Y-101950000D03*
X154290000Y-101950000D03*
G04 #@! TD*
M02*
