M48
;DRILL file {KiCad 4.0.7-e2-6376~58~ubuntu16.04.1} date Fri Jul  6 10:04:15 2018
;FORMAT={-:-/ absolute / metric / decimal}
FMAT,2
METRIC,TZ
T1C0.635
T2C0.762
T3C1.000
T4C1.500
T5C1.700
%
G90
G05
M71
T1
X110.11Y-100.17
X111.66Y-109.12
X112.43Y-100.3
X113.29Y-107.14
X113.95Y-74.92
X114.15Y-71.85
X114.58Y-117.68
X114.84Y-74.26
X115.72Y-105.43
X115.74Y-100.16
X116.53Y-71.62
X117.99Y-100.09
X118.52Y-105.29
X118.57Y-91.79
X119.43Y-94.67
X119.47Y-105.78
X120.1Y-96.72
X120.51Y-105.14
X120.66Y-102.47
X120.88Y-96.01
X121.2Y-115.01
X121.34Y-93.68
X121.36Y-103.43
X121.6Y-98.19
X121.74Y-112.8
X122.25Y-104.02
X123.83Y-107.93
X124.05Y-104.3
X124.09Y-114.55
X124.18Y-112.43
X125.09Y-95.92
X125.62Y-109.08
X127.32Y-107.58
X130.93Y-111.05
X131.24Y-107.11
X133.14Y-81.15
X133.34Y-114.57
X133.41Y-112.8
X136.07Y-108.45
X136.58Y-74.22
X137.Y-93.8
X137.Y-95.91
X137.97Y-108.61
X138.14Y-90.26
X138.15Y-95.92
X138.29Y-71.45
X139.09Y-72.26
X139.19Y-89.81
X139.2Y-95.91
X139.55Y-75.43
X141.41Y-76.25
X141.46Y-72.66
X143.39Y-71.16
X143.96Y-72.62
X144.03Y-76.28
X145.95Y-70.59
X146.56Y-72.74
X146.62Y-76.2
X146.69Y-108.71
X148.23Y-108.75
X148.99Y-72.73
X149.18Y-76.35
X149.68Y-104.86
X149.68Y-105.75
X149.68Y-106.64
X149.68Y-107.53
X149.76Y-103.97
X150.48Y-100.54
X150.48Y-107.93
X150.5Y-95.91
X150.79Y-99.71
X150.8Y-97.03
X150.8Y-97.93
X150.8Y-98.82
X151.33Y-96.26
X151.36Y-85.22
X151.38Y-107.94
X151.5Y-72.71
X151.61Y-76.17
X152.24Y-96.25
X152.28Y-107.93
X153.13Y-96.25
X153.18Y-107.93
X154.02Y-96.26
X154.07Y-107.93
X154.91Y-96.26
X154.96Y-107.93
X155.81Y-96.26
X155.83Y-107.94
X156.7Y-96.25
X156.72Y-107.93
X157.41Y-91.84
X157.59Y-96.25
X157.62Y-107.93
X158.48Y-96.26
X158.51Y-107.93
X158.73Y-114.29
X159.36Y-96.26
X159.4Y-107.93
X160.26Y-96.26
X160.29Y-107.94
X161.15Y-96.26
X161.18Y-107.93
X161.28Y-114.64
X161.43Y-118.69
X161.69Y-79.35
X162.04Y-96.26
X162.08Y-107.93
X162.93Y-96.26
X162.97Y-107.93
X163.82Y-96.26
X163.86Y-107.94
T2
X109.29Y-77.63
X109.29Y-79.63
X109.29Y-81.63
X109.29Y-83.63
X109.29Y-90.86
X109.29Y-92.86
X109.29Y-94.86
X109.29Y-96.86
X109.29Y-104.08
X109.29Y-106.08
X109.29Y-108.08
X109.29Y-110.08
T3
X115.32Y-68.58
X117.69Y-116.66
X117.86Y-68.58
X120.23Y-116.66
X120.4Y-68.58
X122.94Y-68.58
X124.46Y-116.84
X125.48Y-68.58
X127.Y-116.84
X128.02Y-68.58
X129.54Y-116.84
X130.56Y-68.58
X132.08Y-116.84
X133.1Y-68.58
X134.62Y-116.84
X135.64Y-68.58
X137.06Y-110.15
X137.16Y-116.84
X138.18Y-68.58
X139.6Y-110.15
X139.7Y-116.84
X142.14Y-110.15
X142.24Y-68.58
X142.24Y-116.84
X144.78Y-68.58
X147.32Y-68.58
X147.32Y-116.84
X149.86Y-68.58
X149.86Y-116.84
X152.4Y-68.58
X152.4Y-116.84
X154.94Y-68.58
X154.94Y-116.84
X157.48Y-68.58
X157.48Y-116.84
X160.02Y-68.58
X160.02Y-116.84
X160.19Y-88.96
X160.19Y-91.5
X160.19Y-94.04
X162.73Y-88.96
X162.73Y-91.5
X162.73Y-94.04
T4
X160.77Y-101.95
T5
X158.23Y-99.41
X158.23Y-104.49
X163.31Y-99.41
X163.31Y-104.49
T0
M30
