G04 #@! TF.FileFunction,Soldermask,Bot*
%FSLAX46Y46*%
G04 Gerber Fmt 4.6, Leading zero omitted, Abs format (unit mm)*
G04 Created by KiCad (PCBNEW 4.0.7-e2-6376~58~ubuntu16.04.1) date Fri Jul  6 10:04:11 2018*
%MOMM*%
%LPD*%
G01*
G04 APERTURE LIST*
%ADD10C,0.150000*%
%ADD11R,2.508000X2.508000*%
%ADD12O,2.508000X2.508000*%
%ADD13C,3.108000*%
%ADD14C,2.808000*%
%ADD15R,2.032000X2.032000*%
%ADD16C,2.032000*%
%ADD17C,3.608000*%
G04 APERTURE END LIST*
D10*
D11*
X138180000Y-68580000D03*
D12*
X135640000Y-68580000D03*
X133100000Y-68580000D03*
X130560000Y-68580000D03*
X128020000Y-68580000D03*
X125480000Y-68580000D03*
X122940000Y-68580000D03*
X120400000Y-68580000D03*
X117860000Y-68580000D03*
X115320000Y-68580000D03*
D11*
X160020000Y-68580000D03*
D12*
X157480000Y-68580000D03*
X154940000Y-68580000D03*
X152400000Y-68580000D03*
X149860000Y-68580000D03*
X147320000Y-68580000D03*
X144780000Y-68580000D03*
X142240000Y-68580000D03*
D11*
X124460000Y-116840000D03*
D12*
X127000000Y-116840000D03*
X129540000Y-116840000D03*
X132080000Y-116840000D03*
X134620000Y-116840000D03*
X137160000Y-116840000D03*
X139700000Y-116840000D03*
X142240000Y-116840000D03*
D11*
X147320000Y-116840000D03*
D12*
X149860000Y-116840000D03*
X152400000Y-116840000D03*
X154940000Y-116840000D03*
X157480000Y-116840000D03*
X160020000Y-116840000D03*
D11*
X117690000Y-116660000D03*
D12*
X120230000Y-116660000D03*
D11*
X160190000Y-88960000D03*
D12*
X162730000Y-88960000D03*
X160190000Y-91500000D03*
X162730000Y-91500000D03*
X160190000Y-94040000D03*
X162730000Y-94040000D03*
D13*
X158230000Y-104490000D03*
X158230000Y-99410000D03*
X163310000Y-99410000D03*
X163310000Y-104490000D03*
D14*
X160770000Y-101950000D03*
D11*
X142140000Y-110150000D03*
D12*
X139600000Y-110150000D03*
X137060000Y-110150000D03*
D15*
X109290000Y-83630000D03*
D16*
X109290000Y-81630000D03*
X109290000Y-79630000D03*
X109290000Y-77630000D03*
D15*
X109290000Y-96860000D03*
D16*
X109290000Y-94860000D03*
X109290000Y-92860000D03*
X109290000Y-90860000D03*
D15*
X109290000Y-110080000D03*
D16*
X109290000Y-108080000D03*
X109290000Y-106080000D03*
X109290000Y-104080000D03*
D17*
X111790000Y-68590000D03*
X110490000Y-116850000D03*
X162590000Y-111770000D03*
X162590000Y-83830000D03*
M02*
