G04 #@! TF.FileFunction,Soldermask,Top*
%FSLAX46Y46*%
G04 Gerber Fmt 4.6, Leading zero omitted, Abs format (unit mm)*
G04 Created by KiCad (PCBNEW 4.0.7-e2-6376~58~ubuntu16.04.1) date Fri Jul  6 10:04:11 2018*
%MOMM*%
%LPD*%
G01*
G04 APERTURE LIST*
%ADD10C,0.150000*%
%ADD11R,1.248000X2.908000*%
%ADD12O,1.524000X2.540000*%
%ADD13O,2.540000X1.524000*%
%ADD14R,1.305560X1.305560*%
%ADD15C,1.308000*%
%ADD16R,1.158000X1.568000*%
%ADD17R,1.568000X1.158000*%
%ADD18R,2.508000X2.508000*%
%ADD19O,2.508000X2.508000*%
%ADD20C,3.108000*%
%ADD21C,2.808000*%
%ADD22R,1.408000X1.308000*%
%ADD23R,2.032000X2.032000*%
%ADD24C,2.032000*%
%ADD25R,1.408000X1.008000*%
%ADD26R,2.008000X1.508000*%
%ADD27R,1.108000X1.008000*%
%ADD28C,3.608000*%
%ADD29R,1.508000X1.508000*%
%ADD30R,1.508000X2.708000*%
%ADD31R,1.608000X1.608000*%
G04 APERTURE END LIST*
D10*
D11*
X123020000Y-107630000D03*
X123020000Y-111530000D03*
X121750000Y-107630000D03*
X121750000Y-111530000D03*
X120480000Y-107630000D03*
X120480000Y-111530000D03*
X119210000Y-107630000D03*
X119210000Y-111530000D03*
X117940000Y-107630000D03*
X117940000Y-111530000D03*
D12*
X126300000Y-105760000D03*
X127570000Y-105760000D03*
X130110000Y-105760000D03*
X128840000Y-105760000D03*
X133920000Y-105760000D03*
X135190000Y-105760000D03*
X132650000Y-105760000D03*
X131380000Y-105760000D03*
X141540000Y-105760000D03*
X142810000Y-105760000D03*
X145350000Y-105760000D03*
X144080000Y-105760000D03*
X139000000Y-105760000D03*
X140270000Y-105760000D03*
X140270000Y-93060000D03*
X139000000Y-93060000D03*
X144080000Y-93060000D03*
X145350000Y-93060000D03*
X142810000Y-93060000D03*
X141540000Y-93060000D03*
X131380000Y-93060000D03*
X132650000Y-93060000D03*
X135190000Y-93060000D03*
X133920000Y-93060000D03*
X128840000Y-93060000D03*
X130110000Y-93060000D03*
X127570000Y-93060000D03*
X126300000Y-93060000D03*
D13*
X149160000Y-99410000D03*
X149160000Y-98140000D03*
X149160000Y-96870000D03*
X149160000Y-95600000D03*
X149160000Y-100680000D03*
X149160000Y-101950000D03*
X149160000Y-103220000D03*
X123760000Y-103220000D03*
X123760000Y-101950000D03*
X123760000Y-100680000D03*
X123760000Y-95600000D03*
X123760000Y-96870000D03*
X123760000Y-98140000D03*
X123760000Y-99410000D03*
D14*
X133930000Y-74260700D03*
X133930000Y-75759300D03*
X135620000Y-74250700D03*
X135620000Y-75749300D03*
D15*
X97920000Y-118190000D03*
X159960000Y-76390000D03*
D16*
X120660000Y-92660000D03*
X119710000Y-92660000D03*
X118760000Y-92660000D03*
X118760000Y-94860000D03*
X120660000Y-94860000D03*
D17*
X157390000Y-94520000D03*
X157390000Y-93570000D03*
X157390000Y-92620000D03*
X155190000Y-92620000D03*
X155190000Y-94520000D03*
D18*
X138180000Y-68580000D03*
D19*
X135640000Y-68580000D03*
X133100000Y-68580000D03*
X130560000Y-68580000D03*
X128020000Y-68580000D03*
X125480000Y-68580000D03*
X122940000Y-68580000D03*
X120400000Y-68580000D03*
X117860000Y-68580000D03*
X115320000Y-68580000D03*
D18*
X160020000Y-68580000D03*
D19*
X157480000Y-68580000D03*
X154940000Y-68580000D03*
X152400000Y-68580000D03*
X149860000Y-68580000D03*
X147320000Y-68580000D03*
X144780000Y-68580000D03*
X142240000Y-68580000D03*
D18*
X124460000Y-116840000D03*
D19*
X127000000Y-116840000D03*
X129540000Y-116840000D03*
X132080000Y-116840000D03*
X134620000Y-116840000D03*
X137160000Y-116840000D03*
X139700000Y-116840000D03*
X142240000Y-116840000D03*
D18*
X147320000Y-116840000D03*
D19*
X149860000Y-116840000D03*
X152400000Y-116840000D03*
X154940000Y-116840000D03*
X157480000Y-116840000D03*
X160020000Y-116840000D03*
D18*
X117690000Y-116660000D03*
D19*
X120230000Y-116660000D03*
D18*
X160190000Y-88960000D03*
D19*
X162730000Y-88960000D03*
X160190000Y-91500000D03*
X162730000Y-91500000D03*
X160190000Y-94040000D03*
X162730000Y-94040000D03*
D20*
X158230000Y-104490000D03*
X158230000Y-99410000D03*
X163310000Y-99410000D03*
X163310000Y-104490000D03*
D21*
X160770000Y-101950000D03*
D18*
X142140000Y-110150000D03*
D19*
X139600000Y-110150000D03*
X137060000Y-110150000D03*
D22*
X151660000Y-86110000D03*
X153660000Y-87060000D03*
X153660000Y-85160000D03*
D23*
X109290000Y-83630000D03*
D24*
X109290000Y-81630000D03*
X109290000Y-79630000D03*
X109290000Y-77630000D03*
D23*
X109290000Y-96860000D03*
D24*
X109290000Y-94860000D03*
X109290000Y-92860000D03*
X109290000Y-90860000D03*
D23*
X109290000Y-110080000D03*
D24*
X109290000Y-108080000D03*
X109290000Y-106080000D03*
X109290000Y-104080000D03*
D25*
X118720000Y-100040000D03*
X118720000Y-101540000D03*
X151450000Y-93210000D03*
X151450000Y-94710000D03*
X118720000Y-98670000D03*
X118720000Y-97170000D03*
X133930000Y-77610000D03*
X133930000Y-79110000D03*
X135620000Y-77600000D03*
X135620000Y-79100000D03*
X153260000Y-93210000D03*
X153260000Y-94710000D03*
X118720000Y-104270000D03*
X118720000Y-102770000D03*
D26*
X152435000Y-73535000D03*
X152435000Y-74835000D03*
X149935000Y-73535000D03*
X149935000Y-74835000D03*
X147435000Y-73535000D03*
X147435000Y-74835000D03*
X144935000Y-73535000D03*
X144935000Y-74835000D03*
X142435000Y-73535000D03*
X142435000Y-74835000D03*
X139935000Y-73535000D03*
X139935000Y-74835000D03*
X154945000Y-76830000D03*
X154945000Y-78130000D03*
X149940000Y-76830000D03*
X149940000Y-78130000D03*
X147440000Y-76830000D03*
X147440000Y-78130000D03*
X144940000Y-76830000D03*
X144940000Y-78130000D03*
X142440000Y-76830000D03*
X142440000Y-78130000D03*
X139930000Y-76830000D03*
X139930000Y-78130000D03*
X156380000Y-109970000D03*
X156380000Y-111270000D03*
X158880000Y-109970000D03*
X158880000Y-111270000D03*
D27*
X154945000Y-74185000D03*
D26*
X154945000Y-73535000D03*
X154945000Y-74835000D03*
D27*
X152440000Y-77480000D03*
D26*
X152440000Y-76830000D03*
X152440000Y-78130000D03*
D28*
X111790000Y-68590000D03*
X110490000Y-116850000D03*
X162590000Y-111770000D03*
X162590000Y-83830000D03*
D29*
X154040000Y-102000000D03*
D30*
X152540000Y-103770000D03*
X155540000Y-103770000D03*
D31*
X155790000Y-101950000D03*
X154290000Y-101950000D03*
M02*
