G04 #@! TF.FileFunction,Other,Fab,Top*
%FSLAX46Y46*%
G04 Gerber Fmt 4.6, Leading zero omitted, Abs format (unit mm)*
G04 Created by KiCad (PCBNEW 4.0.7-e2-6376~58~ubuntu16.04.1) date Fri Jul  6 10:04:11 2018*
%MOMM*%
%LPD*%
G01*
G04 APERTURE LIST*
%ADD10C,0.150000*%
%ADD11C,0.100000*%
%ADD12C,0.050000*%
G04 APERTURE END LIST*
D10*
D11*
X117305000Y-111285000D02*
X117305000Y-107875000D01*
X123655000Y-108310000D02*
X123655000Y-111285000D01*
X117305000Y-107875000D02*
X123220000Y-107875000D01*
X123220000Y-107875000D02*
X123655000Y-108310000D01*
X123655000Y-111285000D02*
X117305000Y-111285000D01*
X123220000Y-107875000D02*
X123220000Y-106830000D01*
X123220000Y-106830000D02*
X122820000Y-106830000D01*
X122820000Y-106830000D02*
X122820000Y-107875000D01*
X123220000Y-111285000D02*
X123220000Y-112330000D01*
X123220000Y-112330000D02*
X122820000Y-112330000D01*
X122820000Y-112330000D02*
X122820000Y-111285000D01*
X121950000Y-107875000D02*
X121950000Y-106830000D01*
X121950000Y-106830000D02*
X121550000Y-106830000D01*
X121550000Y-106830000D02*
X121550000Y-107875000D01*
X121950000Y-111285000D02*
X121950000Y-112330000D01*
X121950000Y-112330000D02*
X121550000Y-112330000D01*
X121550000Y-112330000D02*
X121550000Y-111285000D01*
X120680000Y-107875000D02*
X120680000Y-106830000D01*
X120680000Y-106830000D02*
X120280000Y-106830000D01*
X120280000Y-106830000D02*
X120280000Y-107875000D01*
X120680000Y-111285000D02*
X120680000Y-112330000D01*
X120680000Y-112330000D02*
X120280000Y-112330000D01*
X120280000Y-112330000D02*
X120280000Y-111285000D01*
X119410000Y-107875000D02*
X119410000Y-106830000D01*
X119410000Y-106830000D02*
X119010000Y-106830000D01*
X119010000Y-106830000D02*
X119010000Y-107875000D01*
X119410000Y-111285000D02*
X119410000Y-112330000D01*
X119410000Y-112330000D02*
X119010000Y-112330000D01*
X119010000Y-112330000D02*
X119010000Y-111285000D01*
X118140000Y-107875000D02*
X118140000Y-106830000D01*
X118140000Y-106830000D02*
X117740000Y-106830000D01*
X117740000Y-106830000D02*
X117740000Y-107875000D01*
X118140000Y-111285000D02*
X118140000Y-112330000D01*
X118140000Y-112330000D02*
X117740000Y-112330000D01*
X117740000Y-112330000D02*
X117740000Y-111285000D01*
D12*
X123633000Y-92958400D02*
X125944400Y-92958400D01*
X125944400Y-92958400D02*
X149337800Y-92958400D01*
X149337800Y-92958400D02*
X149337800Y-105887000D01*
X149337800Y-105887000D02*
X123607600Y-105887000D01*
X123607600Y-105887000D02*
X123607600Y-92958400D01*
D11*
X120610000Y-92860000D02*
X121260000Y-93510000D01*
X121260000Y-94660000D02*
X121260000Y-93510000D01*
X120610000Y-92860000D02*
X118160000Y-92860000D01*
X118160000Y-94660000D02*
X118160000Y-92860000D01*
X121260000Y-94660000D02*
X118160000Y-94660000D01*
X157190000Y-94470000D02*
X156540000Y-95120000D01*
X155390000Y-95120000D02*
X156540000Y-95120000D01*
X157190000Y-94470000D02*
X157190000Y-92020000D01*
X155390000Y-92020000D02*
X157190000Y-92020000D01*
X155390000Y-95120000D02*
X155390000Y-92020000D01*
X116420000Y-117295000D02*
X116420000Y-115390000D01*
X116420000Y-115390000D02*
X121500000Y-115390000D01*
X121500000Y-115390000D02*
X121500000Y-117930000D01*
X121500000Y-117930000D02*
X117055000Y-117930000D01*
X117055000Y-117930000D02*
X116420000Y-117295000D01*
X160190000Y-87690000D02*
X164000000Y-87690000D01*
X164000000Y-87690000D02*
X164000000Y-95310000D01*
X164000000Y-95310000D02*
X158920000Y-95310000D01*
X158920000Y-95310000D02*
X158920000Y-88960000D01*
X158920000Y-88960000D02*
X160190000Y-87690000D01*
X162800000Y-98900000D02*
X163820000Y-98900000D01*
X163940000Y-98780000D02*
X163940000Y-105120000D01*
X157600000Y-105120000D02*
X163940000Y-105120000D01*
X157600000Y-98780000D02*
X157600000Y-105120000D01*
X157600000Y-98780000D02*
X163940000Y-98780000D01*
X158740000Y-98900000D02*
X158740000Y-99920000D01*
X157720000Y-99920000D02*
X158740000Y-99920000D01*
X158740000Y-103980000D02*
X158740000Y-105000000D01*
X157720000Y-103980000D02*
X158740000Y-103980000D01*
X162800000Y-98900000D02*
X162800000Y-99920000D01*
X162800000Y-99920000D02*
X163820000Y-99920000D01*
X163820000Y-103980000D02*
X162800000Y-103980000D01*
X162800000Y-103980000D02*
X162800000Y-105000000D01*
X163820000Y-98900000D02*
X163820000Y-99920000D01*
X157720000Y-98900000D02*
X157720000Y-99920000D01*
X157720000Y-98900000D02*
X158740000Y-98900000D01*
X157720000Y-105000000D02*
X158740000Y-105000000D01*
X157720000Y-105000000D02*
X157720000Y-103980000D01*
X163820000Y-103980000D02*
X163820000Y-105000000D01*
X162800000Y-105000000D02*
X163820000Y-105000000D01*
X162810000Y-101950000D02*
G75*
G03X162810000Y-101950000I-2040000J0D01*
G01*
X161405000Y-101950000D02*
G75*
G03X161405000Y-101950000I-635000J0D01*
G01*
X143410000Y-109515000D02*
X143410000Y-111420000D01*
X143410000Y-111420000D02*
X135790000Y-111420000D01*
X135790000Y-111420000D02*
X135790000Y-108880000D01*
X135790000Y-108880000D02*
X142775000Y-108880000D01*
X142775000Y-108880000D02*
X143410000Y-109515000D01*
D12*
X151720200Y-84662200D02*
X151720200Y-87583200D01*
X151720200Y-87583200D02*
X153599800Y-87583200D01*
X153599800Y-87583200D02*
X153599800Y-84662200D01*
X153599800Y-84662200D02*
X151720200Y-84662200D01*
D11*
X108640000Y-86580000D02*
X108640000Y-85780000D01*
X108640000Y-85780000D02*
X107040000Y-85780000D01*
X107040000Y-85780000D02*
X107040000Y-75480000D01*
X107040000Y-75480000D02*
X108640000Y-75480000D01*
X108640000Y-75480000D02*
X108640000Y-74680000D01*
X101040000Y-86580000D02*
X101040000Y-74680000D01*
X108640000Y-86580000D02*
X101040000Y-86580000D01*
X108640000Y-74680000D02*
X101040000Y-74680000D01*
X107040000Y-84130000D02*
X106332893Y-83630000D01*
X106332893Y-83630000D02*
X107040000Y-83130000D01*
X108640000Y-99810000D02*
X108640000Y-99010000D01*
X108640000Y-99010000D02*
X107040000Y-99010000D01*
X107040000Y-99010000D02*
X107040000Y-88710000D01*
X107040000Y-88710000D02*
X108640000Y-88710000D01*
X108640000Y-88710000D02*
X108640000Y-87910000D01*
X101040000Y-99810000D02*
X101040000Y-87910000D01*
X108640000Y-99810000D02*
X101040000Y-99810000D01*
X108640000Y-87910000D02*
X101040000Y-87910000D01*
X107040000Y-97360000D02*
X106332893Y-96860000D01*
X106332893Y-96860000D02*
X107040000Y-96360000D01*
X108640000Y-113030000D02*
X108640000Y-112230000D01*
X108640000Y-112230000D02*
X107040000Y-112230000D01*
X107040000Y-112230000D02*
X107040000Y-101930000D01*
X107040000Y-101930000D02*
X108640000Y-101930000D01*
X108640000Y-101930000D02*
X108640000Y-101130000D01*
X101040000Y-113030000D02*
X101040000Y-101130000D01*
X108640000Y-113030000D02*
X101040000Y-113030000D01*
X108640000Y-101130000D02*
X101040000Y-101130000D01*
X107040000Y-110580000D02*
X106332893Y-110080000D01*
X106332893Y-110080000D02*
X107040000Y-109580000D01*
D12*
X119507400Y-99494600D02*
X119507400Y-102060000D01*
X119507400Y-102060000D02*
X117932600Y-102060000D01*
X117932600Y-102060000D02*
X117932600Y-99494600D01*
X117932600Y-99494600D02*
X119507400Y-99494600D01*
X152237400Y-92664600D02*
X152237400Y-95230000D01*
X152237400Y-95230000D02*
X150662600Y-95230000D01*
X150662600Y-95230000D02*
X150662600Y-92664600D01*
X150662600Y-92664600D02*
X152237400Y-92664600D01*
X117932600Y-99215400D02*
X117932600Y-96650000D01*
X117932600Y-96650000D02*
X119507400Y-96650000D01*
X119507400Y-96650000D02*
X119507400Y-99215400D01*
X119507400Y-99215400D02*
X117932600Y-99215400D01*
X134717400Y-77064600D02*
X134717400Y-79630000D01*
X134717400Y-79630000D02*
X133142600Y-79630000D01*
X133142600Y-79630000D02*
X133142600Y-77064600D01*
X133142600Y-77064600D02*
X134717400Y-77064600D01*
X136407400Y-77054600D02*
X136407400Y-79620000D01*
X136407400Y-79620000D02*
X134832600Y-79620000D01*
X134832600Y-79620000D02*
X134832600Y-77054600D01*
X134832600Y-77054600D02*
X136407400Y-77054600D01*
X154047400Y-92664600D02*
X154047400Y-95230000D01*
X154047400Y-95230000D02*
X152472600Y-95230000D01*
X152472600Y-95230000D02*
X152472600Y-92664600D01*
X152472600Y-92664600D02*
X154047400Y-92664600D01*
X117932600Y-104815400D02*
X117932600Y-102250000D01*
X117932600Y-102250000D02*
X119507400Y-102250000D01*
X119507400Y-102250000D02*
X119507400Y-104815400D01*
X119507400Y-104815400D02*
X117932600Y-104815400D01*
X155462400Y-104481200D02*
X155462400Y-104913000D01*
X155462400Y-104913000D02*
X155462400Y-104963800D01*
X155462400Y-104963800D02*
X152541400Y-104963800D01*
X152541400Y-104963800D02*
X152541400Y-104481200D01*
X152541400Y-102601600D02*
X152541400Y-104481200D01*
X152541400Y-102601600D02*
X155462400Y-102601600D01*
X155462400Y-104481200D02*
X155462400Y-102601600D01*
X156335400Y-102737400D02*
X153770000Y-102737400D01*
X153770000Y-102737400D02*
X153770000Y-101162600D01*
X153770000Y-101162600D02*
X156335400Y-101162600D01*
X156335400Y-101162600D02*
X156335400Y-102737400D01*
D10*
X120246667Y-109196667D02*
X120246667Y-109696667D01*
X120213333Y-109796667D01*
X120146667Y-109863333D01*
X120046667Y-109896667D01*
X119980000Y-109896667D01*
X120513333Y-109196667D02*
X120946666Y-109196667D01*
X120713333Y-109463333D01*
X120813333Y-109463333D01*
X120880000Y-109496667D01*
X120913333Y-109530000D01*
X120946666Y-109596667D01*
X120946666Y-109763333D01*
X120913333Y-109830000D01*
X120880000Y-109863333D01*
X120813333Y-109896667D01*
X120613333Y-109896667D01*
X120546666Y-109863333D01*
X120513333Y-109830000D01*
X135926667Y-99026667D02*
X135926667Y-99593333D01*
X135960000Y-99660000D01*
X135993333Y-99693333D01*
X136060000Y-99726667D01*
X136193333Y-99726667D01*
X136260000Y-99693333D01*
X136293333Y-99660000D01*
X136326667Y-99593333D01*
X136326667Y-99026667D01*
X136626666Y-99093333D02*
X136660000Y-99060000D01*
X136726666Y-99026667D01*
X136893333Y-99026667D01*
X136960000Y-99060000D01*
X136993333Y-99093333D01*
X137026666Y-99160000D01*
X137026666Y-99226667D01*
X136993333Y-99326667D01*
X136593333Y-99726667D01*
X137026666Y-99726667D01*
X119176667Y-93376667D02*
X119176667Y-93943333D01*
X119210000Y-94010000D01*
X119243333Y-94043333D01*
X119310000Y-94076667D01*
X119443333Y-94076667D01*
X119510000Y-94043333D01*
X119543333Y-94010000D01*
X119576667Y-93943333D01*
X119576667Y-93376667D01*
X120276666Y-94076667D02*
X119876666Y-94076667D01*
X120076666Y-94076667D02*
X120076666Y-93376667D01*
X120010000Y-93476667D01*
X119943333Y-93543333D01*
X119876666Y-93576667D01*
X155906667Y-94103333D02*
X156473333Y-94103333D01*
X156540000Y-94070000D01*
X156573333Y-94036667D01*
X156606667Y-93970000D01*
X156606667Y-93836667D01*
X156573333Y-93770000D01*
X156540000Y-93736667D01*
X156473333Y-93703333D01*
X155906667Y-93703333D01*
X156140000Y-93070000D02*
X156606667Y-93070000D01*
X155873333Y-93236667D02*
X156373333Y-93403334D01*
X156373333Y-92970000D01*
X118393334Y-116276667D02*
X118393334Y-116776667D01*
X118360000Y-116876667D01*
X118293334Y-116943333D01*
X118193334Y-116976667D01*
X118126667Y-116976667D01*
X119093333Y-116976667D02*
X118693333Y-116976667D01*
X118893333Y-116976667D02*
X118893333Y-116276667D01*
X118826667Y-116376667D01*
X118760000Y-116443333D01*
X118693333Y-116476667D01*
X119326667Y-116276667D02*
X119760000Y-116276667D01*
X119526667Y-116543333D01*
X119626667Y-116543333D01*
X119693334Y-116576667D01*
X119726667Y-116610000D01*
X119760000Y-116676667D01*
X119760000Y-116843333D01*
X119726667Y-116910000D01*
X119693334Y-116943333D01*
X119626667Y-116976667D01*
X119426667Y-116976667D01*
X119360000Y-116943333D01*
X119326667Y-116910000D01*
X161076667Y-92066666D02*
X161576667Y-92066666D01*
X161676667Y-92100000D01*
X161743333Y-92166666D01*
X161776667Y-92266666D01*
X161776667Y-92333333D01*
X161776667Y-91366667D02*
X161776667Y-91766667D01*
X161776667Y-91566667D02*
X161076667Y-91566667D01*
X161176667Y-91633333D01*
X161243333Y-91700000D01*
X161276667Y-91766667D01*
X161143333Y-91100000D02*
X161110000Y-91066666D01*
X161076667Y-91000000D01*
X161076667Y-90833333D01*
X161110000Y-90766666D01*
X161143333Y-90733333D01*
X161210000Y-90700000D01*
X161276667Y-90700000D01*
X161376667Y-90733333D01*
X161776667Y-91133333D01*
X161776667Y-90700000D01*
X160536667Y-99016667D02*
X160536667Y-99516667D01*
X160503333Y-99616667D01*
X160436667Y-99683333D01*
X160336667Y-99716667D01*
X160270000Y-99716667D01*
X161203333Y-99016667D02*
X160870000Y-99016667D01*
X160836666Y-99350000D01*
X160870000Y-99316667D01*
X160936666Y-99283333D01*
X161103333Y-99283333D01*
X161170000Y-99316667D01*
X161203333Y-99350000D01*
X161236666Y-99416667D01*
X161236666Y-99583333D01*
X161203333Y-99650000D01*
X161170000Y-99683333D01*
X161103333Y-99716667D01*
X160936666Y-99716667D01*
X160870000Y-99683333D01*
X160836666Y-99650000D01*
X139186667Y-109602381D02*
X139186667Y-110316667D01*
X139139047Y-110459524D01*
X139043809Y-110554762D01*
X138900952Y-110602381D01*
X138805714Y-110602381D01*
X140091429Y-109602381D02*
X139900952Y-109602381D01*
X139805714Y-109650000D01*
X139758095Y-109697619D01*
X139662857Y-109840476D01*
X139615238Y-110030952D01*
X139615238Y-110411905D01*
X139662857Y-110507143D01*
X139710476Y-110554762D01*
X139805714Y-110602381D01*
X139996191Y-110602381D01*
X140091429Y-110554762D01*
X140139048Y-110507143D01*
X140186667Y-110411905D01*
X140186667Y-110173810D01*
X140139048Y-110078571D01*
X140091429Y-110030952D01*
X139996191Y-109983333D01*
X139805714Y-109983333D01*
X139710476Y-110030952D01*
X139662857Y-110078571D01*
X139615238Y-110173810D01*
X152126667Y-85946667D02*
X152126667Y-86513333D01*
X152160000Y-86580000D01*
X152193333Y-86613333D01*
X152260000Y-86646667D01*
X152393333Y-86646667D01*
X152460000Y-86613333D01*
X152493333Y-86580000D01*
X152526667Y-86513333D01*
X152526667Y-85946667D01*
X152793333Y-85946667D02*
X153226666Y-85946667D01*
X152993333Y-86213333D01*
X153093333Y-86213333D01*
X153160000Y-86246667D01*
X153193333Y-86280000D01*
X153226666Y-86346667D01*
X153226666Y-86513333D01*
X153193333Y-86580000D01*
X153160000Y-86613333D01*
X153093333Y-86646667D01*
X152893333Y-86646667D01*
X152826666Y-86613333D01*
X152793333Y-86580000D01*
X103556667Y-80863333D02*
X104056667Y-80863333D01*
X104156667Y-80896667D01*
X104223333Y-80963333D01*
X104256667Y-81063333D01*
X104256667Y-81130000D01*
X104256667Y-80496667D02*
X104256667Y-80363334D01*
X104223333Y-80296667D01*
X104190000Y-80263334D01*
X104090000Y-80196667D01*
X103956667Y-80163334D01*
X103690000Y-80163334D01*
X103623333Y-80196667D01*
X103590000Y-80230000D01*
X103556667Y-80296667D01*
X103556667Y-80430000D01*
X103590000Y-80496667D01*
X103623333Y-80530000D01*
X103690000Y-80563334D01*
X103856667Y-80563334D01*
X103923333Y-80530000D01*
X103956667Y-80496667D01*
X103990000Y-80430000D01*
X103990000Y-80296667D01*
X103956667Y-80230000D01*
X103923333Y-80196667D01*
X103856667Y-80163334D01*
X103556667Y-94093333D02*
X104056667Y-94093333D01*
X104156667Y-94126667D01*
X104223333Y-94193333D01*
X104256667Y-94293333D01*
X104256667Y-94360000D01*
X103856667Y-93660000D02*
X103823333Y-93726667D01*
X103790000Y-93760000D01*
X103723333Y-93793334D01*
X103690000Y-93793334D01*
X103623333Y-93760000D01*
X103590000Y-93726667D01*
X103556667Y-93660000D01*
X103556667Y-93526667D01*
X103590000Y-93460000D01*
X103623333Y-93426667D01*
X103690000Y-93393334D01*
X103723333Y-93393334D01*
X103790000Y-93426667D01*
X103823333Y-93460000D01*
X103856667Y-93526667D01*
X103856667Y-93660000D01*
X103890000Y-93726667D01*
X103923333Y-93760000D01*
X103990000Y-93793334D01*
X104123333Y-93793334D01*
X104190000Y-93760000D01*
X104223333Y-93726667D01*
X104256667Y-93660000D01*
X104256667Y-93526667D01*
X104223333Y-93460000D01*
X104190000Y-93426667D01*
X104123333Y-93393334D01*
X103990000Y-93393334D01*
X103923333Y-93426667D01*
X103890000Y-93460000D01*
X103856667Y-93526667D01*
X103556667Y-107313333D02*
X104056667Y-107313333D01*
X104156667Y-107346667D01*
X104223333Y-107413333D01*
X104256667Y-107513333D01*
X104256667Y-107580000D01*
X103556667Y-107046667D02*
X103556667Y-106580000D01*
X104256667Y-106880000D01*
X118985867Y-100881266D02*
X118652533Y-101114600D01*
X118985867Y-101281266D02*
X118285867Y-101281266D01*
X118285867Y-101014600D01*
X118319200Y-100947933D01*
X118352533Y-100914600D01*
X118419200Y-100881266D01*
X118519200Y-100881266D01*
X118585867Y-100914600D01*
X118619200Y-100947933D01*
X118652533Y-101014600D01*
X118652533Y-101281266D01*
X118285867Y-100281266D02*
X118285867Y-100414600D01*
X118319200Y-100481266D01*
X118352533Y-100514600D01*
X118452533Y-100581266D01*
X118585867Y-100614600D01*
X118852533Y-100614600D01*
X118919200Y-100581266D01*
X118952533Y-100547933D01*
X118985867Y-100481266D01*
X118985867Y-100347933D01*
X118952533Y-100281266D01*
X118919200Y-100247933D01*
X118852533Y-100214600D01*
X118685867Y-100214600D01*
X118619200Y-100247933D01*
X118585867Y-100281266D01*
X118552533Y-100347933D01*
X118552533Y-100481266D01*
X118585867Y-100547933D01*
X118619200Y-100581266D01*
X118685867Y-100614600D01*
X151715867Y-94051267D02*
X151715867Y-94384600D01*
X151015867Y-94384600D01*
X151715867Y-93451267D02*
X151715867Y-93851267D01*
X151715867Y-93651267D02*
X151015867Y-93651267D01*
X151115867Y-93717933D01*
X151182533Y-93784600D01*
X151215867Y-93851267D01*
X119087467Y-98062066D02*
X118754133Y-98295400D01*
X119087467Y-98462066D02*
X118387467Y-98462066D01*
X118387467Y-98195400D01*
X118420800Y-98128733D01*
X118454133Y-98095400D01*
X118520800Y-98062066D01*
X118620800Y-98062066D01*
X118687467Y-98095400D01*
X118720800Y-98128733D01*
X118754133Y-98195400D01*
X118754133Y-98462066D01*
X119087467Y-97395400D02*
X119087467Y-97795400D01*
X119087467Y-97595400D02*
X118387467Y-97595400D01*
X118487467Y-97662066D01*
X118554133Y-97728733D01*
X118587467Y-97795400D01*
X134195867Y-78451266D02*
X133862533Y-78684600D01*
X134195867Y-78851266D02*
X133495867Y-78851266D01*
X133495867Y-78584600D01*
X133529200Y-78517933D01*
X133562533Y-78484600D01*
X133629200Y-78451266D01*
X133729200Y-78451266D01*
X133795867Y-78484600D01*
X133829200Y-78517933D01*
X133862533Y-78584600D01*
X133862533Y-78851266D01*
X133562533Y-78184600D02*
X133529200Y-78151266D01*
X133495867Y-78084600D01*
X133495867Y-77917933D01*
X133529200Y-77851266D01*
X133562533Y-77817933D01*
X133629200Y-77784600D01*
X133695867Y-77784600D01*
X133795867Y-77817933D01*
X134195867Y-78217933D01*
X134195867Y-77784600D01*
X135885867Y-78441266D02*
X135552533Y-78674600D01*
X135885867Y-78841266D02*
X135185867Y-78841266D01*
X135185867Y-78574600D01*
X135219200Y-78507933D01*
X135252533Y-78474600D01*
X135319200Y-78441266D01*
X135419200Y-78441266D01*
X135485867Y-78474600D01*
X135519200Y-78507933D01*
X135552533Y-78574600D01*
X135552533Y-78841266D01*
X135185867Y-78207933D02*
X135185867Y-77774600D01*
X135452533Y-78007933D01*
X135452533Y-77907933D01*
X135485867Y-77841266D01*
X135519200Y-77807933D01*
X135585867Y-77774600D01*
X135752533Y-77774600D01*
X135819200Y-77807933D01*
X135852533Y-77841266D01*
X135885867Y-77907933D01*
X135885867Y-78107933D01*
X135852533Y-78174600D01*
X135819200Y-78207933D01*
X153525867Y-94051266D02*
X153192533Y-94284600D01*
X153525867Y-94451266D02*
X152825867Y-94451266D01*
X152825867Y-94184600D01*
X152859200Y-94117933D01*
X152892533Y-94084600D01*
X152959200Y-94051266D01*
X153059200Y-94051266D01*
X153125867Y-94084600D01*
X153159200Y-94117933D01*
X153192533Y-94184600D01*
X153192533Y-94451266D01*
X153059200Y-93451266D02*
X153525867Y-93451266D01*
X152792533Y-93617933D02*
X153292533Y-93784600D01*
X153292533Y-93351266D01*
X119087467Y-103662066D02*
X118754133Y-103895400D01*
X119087467Y-104062066D02*
X118387467Y-104062066D01*
X118387467Y-103795400D01*
X118420800Y-103728733D01*
X118454133Y-103695400D01*
X118520800Y-103662066D01*
X118620800Y-103662066D01*
X118687467Y-103695400D01*
X118720800Y-103728733D01*
X118754133Y-103795400D01*
X118754133Y-104062066D01*
X118387467Y-103028733D02*
X118387467Y-103362066D01*
X118720800Y-103395400D01*
X118687467Y-103362066D01*
X118654133Y-103295400D01*
X118654133Y-103128733D01*
X118687467Y-103062066D01*
X118720800Y-103028733D01*
X118787467Y-102995400D01*
X118954133Y-102995400D01*
X119020800Y-103028733D01*
X119054133Y-103062066D01*
X119087467Y-103128733D01*
X119087467Y-103295400D01*
X119054133Y-103362066D01*
X119020800Y-103395400D01*
X158684762Y-118596192D02*
X158732381Y-118453335D01*
X158732381Y-118215239D01*
X158684762Y-118120001D01*
X158637143Y-118072382D01*
X158541905Y-118024763D01*
X158446667Y-118024763D01*
X158351429Y-118072382D01*
X158303810Y-118120001D01*
X158256190Y-118215239D01*
X158208571Y-118405716D01*
X158160952Y-118500954D01*
X158113333Y-118548573D01*
X158018095Y-118596192D01*
X157922857Y-118596192D01*
X157827619Y-118548573D01*
X157780000Y-118500954D01*
X157732381Y-118405716D01*
X157732381Y-118167620D01*
X157780000Y-118024763D01*
X158732381Y-117453335D02*
X158684762Y-117548573D01*
X158637143Y-117596192D01*
X158541905Y-117643811D01*
X158256190Y-117643811D01*
X158160952Y-117596192D01*
X158113333Y-117548573D01*
X158065714Y-117453335D01*
X158065714Y-117310477D01*
X158113333Y-117215239D01*
X158160952Y-117167620D01*
X158256190Y-117120001D01*
X158541905Y-117120001D01*
X158637143Y-117167620D01*
X158684762Y-117215239D01*
X158732381Y-117310477D01*
X158732381Y-117453335D01*
X158732381Y-116548573D02*
X158684762Y-116643811D01*
X158589524Y-116691430D01*
X157732381Y-116691430D01*
X158732381Y-115739048D02*
X157732381Y-115739048D01*
X158684762Y-115739048D02*
X158732381Y-115834286D01*
X158732381Y-116024763D01*
X158684762Y-116120001D01*
X158637143Y-116167620D01*
X158541905Y-116215239D01*
X158256190Y-116215239D01*
X158160952Y-116167620D01*
X158113333Y-116120001D01*
X158065714Y-116024763D01*
X158065714Y-115834286D01*
X158113333Y-115739048D01*
X158684762Y-114881905D02*
X158732381Y-114977143D01*
X158732381Y-115167620D01*
X158684762Y-115262858D01*
X158589524Y-115310477D01*
X158208571Y-115310477D01*
X158113333Y-115262858D01*
X158065714Y-115167620D01*
X158065714Y-114977143D01*
X158113333Y-114881905D01*
X158208571Y-114834286D01*
X158303810Y-114834286D01*
X158399048Y-115310477D01*
X158732381Y-114405715D02*
X158065714Y-114405715D01*
X158256190Y-114405715D02*
X158160952Y-114358096D01*
X158113333Y-114310477D01*
X158065714Y-114215239D01*
X158065714Y-114120000D01*
X157732381Y-113500952D02*
X158446667Y-113500952D01*
X158589524Y-113548572D01*
X158684762Y-113643810D01*
X158732381Y-113786667D01*
X158732381Y-113881905D01*
X158065714Y-112596190D02*
X158732381Y-112596190D01*
X158065714Y-113024762D02*
X158589524Y-113024762D01*
X158684762Y-112977143D01*
X158732381Y-112881905D01*
X158732381Y-112739047D01*
X158684762Y-112643809D01*
X158637143Y-112596190D01*
X158732381Y-112120000D02*
X158065714Y-112120000D01*
X158160952Y-112120000D02*
X158113333Y-112072381D01*
X158065714Y-111977143D01*
X158065714Y-111834285D01*
X158113333Y-111739047D01*
X158208571Y-111691428D01*
X158732381Y-111691428D01*
X158208571Y-111691428D02*
X158113333Y-111643809D01*
X158065714Y-111548571D01*
X158065714Y-111405714D01*
X158113333Y-111310476D01*
X158208571Y-111262857D01*
X158732381Y-111262857D01*
X158065714Y-110786667D02*
X159065714Y-110786667D01*
X158113333Y-110786667D02*
X158065714Y-110691429D01*
X158065714Y-110500952D01*
X158113333Y-110405714D01*
X158160952Y-110358095D01*
X158256190Y-110310476D01*
X158541905Y-110310476D01*
X158637143Y-110358095D01*
X158684762Y-110405714D01*
X158732381Y-110500952D01*
X158732381Y-110691429D01*
X158684762Y-110786667D01*
X158684762Y-109500952D02*
X158732381Y-109596190D01*
X158732381Y-109786667D01*
X158684762Y-109881905D01*
X158589524Y-109929524D01*
X158208571Y-109929524D01*
X158113333Y-109881905D01*
X158065714Y-109786667D01*
X158065714Y-109596190D01*
X158113333Y-109500952D01*
X158208571Y-109453333D01*
X158303810Y-109453333D01*
X158399048Y-109929524D01*
X158732381Y-109024762D02*
X158065714Y-109024762D01*
X158256190Y-109024762D02*
X158160952Y-108977143D01*
X158113333Y-108929524D01*
X158065714Y-108834286D01*
X158065714Y-108739047D01*
X158827619Y-108643809D02*
X158827619Y-107881904D01*
X157827619Y-107691428D02*
X157780000Y-107643809D01*
X157732381Y-107548571D01*
X157732381Y-107310475D01*
X157780000Y-107215237D01*
X157827619Y-107167618D01*
X157922857Y-107119999D01*
X158018095Y-107119999D01*
X158160952Y-107167618D01*
X158732381Y-107739047D01*
X158732381Y-107119999D01*
X158827619Y-106929523D02*
X158827619Y-106167618D01*
X157732381Y-105739047D02*
X157732381Y-105548570D01*
X157780000Y-105453332D01*
X157875238Y-105358094D01*
X158065714Y-105310475D01*
X158399048Y-105310475D01*
X158589524Y-105358094D01*
X158684762Y-105453332D01*
X158732381Y-105548570D01*
X158732381Y-105739047D01*
X158684762Y-105834285D01*
X158589524Y-105929523D01*
X158399048Y-105977142D01*
X158065714Y-105977142D01*
X157875238Y-105929523D01*
X157780000Y-105834285D01*
X157732381Y-105739047D01*
X158065714Y-104881904D02*
X159065714Y-104881904D01*
X158113333Y-104881904D02*
X158065714Y-104786666D01*
X158065714Y-104596189D01*
X158113333Y-104500951D01*
X158160952Y-104453332D01*
X158256190Y-104405713D01*
X158541905Y-104405713D01*
X158637143Y-104453332D01*
X158684762Y-104500951D01*
X158732381Y-104596189D01*
X158732381Y-104786666D01*
X158684762Y-104881904D01*
X158684762Y-103596189D02*
X158732381Y-103691427D01*
X158732381Y-103881904D01*
X158684762Y-103977142D01*
X158589524Y-104024761D01*
X158208571Y-104024761D01*
X158113333Y-103977142D01*
X158065714Y-103881904D01*
X158065714Y-103691427D01*
X158113333Y-103596189D01*
X158208571Y-103548570D01*
X158303810Y-103548570D01*
X158399048Y-104024761D01*
X158065714Y-103119999D02*
X158732381Y-103119999D01*
X158160952Y-103119999D02*
X158113333Y-103072380D01*
X158065714Y-102977142D01*
X158065714Y-102834284D01*
X158113333Y-102739046D01*
X158208571Y-102691427D01*
X158732381Y-102691427D01*
X161184762Y-118596192D02*
X161232381Y-118453335D01*
X161232381Y-118215239D01*
X161184762Y-118120001D01*
X161137143Y-118072382D01*
X161041905Y-118024763D01*
X160946667Y-118024763D01*
X160851429Y-118072382D01*
X160803810Y-118120001D01*
X160756190Y-118215239D01*
X160708571Y-118405716D01*
X160660952Y-118500954D01*
X160613333Y-118548573D01*
X160518095Y-118596192D01*
X160422857Y-118596192D01*
X160327619Y-118548573D01*
X160280000Y-118500954D01*
X160232381Y-118405716D01*
X160232381Y-118167620D01*
X160280000Y-118024763D01*
X161232381Y-117453335D02*
X161184762Y-117548573D01*
X161137143Y-117596192D01*
X161041905Y-117643811D01*
X160756190Y-117643811D01*
X160660952Y-117596192D01*
X160613333Y-117548573D01*
X160565714Y-117453335D01*
X160565714Y-117310477D01*
X160613333Y-117215239D01*
X160660952Y-117167620D01*
X160756190Y-117120001D01*
X161041905Y-117120001D01*
X161137143Y-117167620D01*
X161184762Y-117215239D01*
X161232381Y-117310477D01*
X161232381Y-117453335D01*
X161232381Y-116548573D02*
X161184762Y-116643811D01*
X161089524Y-116691430D01*
X160232381Y-116691430D01*
X161232381Y-115739048D02*
X160232381Y-115739048D01*
X161184762Y-115739048D02*
X161232381Y-115834286D01*
X161232381Y-116024763D01*
X161184762Y-116120001D01*
X161137143Y-116167620D01*
X161041905Y-116215239D01*
X160756190Y-116215239D01*
X160660952Y-116167620D01*
X160613333Y-116120001D01*
X160565714Y-116024763D01*
X160565714Y-115834286D01*
X160613333Y-115739048D01*
X161184762Y-114881905D02*
X161232381Y-114977143D01*
X161232381Y-115167620D01*
X161184762Y-115262858D01*
X161089524Y-115310477D01*
X160708571Y-115310477D01*
X160613333Y-115262858D01*
X160565714Y-115167620D01*
X160565714Y-114977143D01*
X160613333Y-114881905D01*
X160708571Y-114834286D01*
X160803810Y-114834286D01*
X160899048Y-115310477D01*
X161232381Y-114405715D02*
X160565714Y-114405715D01*
X160756190Y-114405715D02*
X160660952Y-114358096D01*
X160613333Y-114310477D01*
X160565714Y-114215239D01*
X160565714Y-114120000D01*
X160232381Y-113500952D02*
X160946667Y-113500952D01*
X161089524Y-113548572D01*
X161184762Y-113643810D01*
X161232381Y-113786667D01*
X161232381Y-113881905D01*
X160565714Y-112596190D02*
X161232381Y-112596190D01*
X160565714Y-113024762D02*
X161089524Y-113024762D01*
X161184762Y-112977143D01*
X161232381Y-112881905D01*
X161232381Y-112739047D01*
X161184762Y-112643809D01*
X161137143Y-112596190D01*
X161232381Y-112120000D02*
X160565714Y-112120000D01*
X160660952Y-112120000D02*
X160613333Y-112072381D01*
X160565714Y-111977143D01*
X160565714Y-111834285D01*
X160613333Y-111739047D01*
X160708571Y-111691428D01*
X161232381Y-111691428D01*
X160708571Y-111691428D02*
X160613333Y-111643809D01*
X160565714Y-111548571D01*
X160565714Y-111405714D01*
X160613333Y-111310476D01*
X160708571Y-111262857D01*
X161232381Y-111262857D01*
X160565714Y-110786667D02*
X161565714Y-110786667D01*
X160613333Y-110786667D02*
X160565714Y-110691429D01*
X160565714Y-110500952D01*
X160613333Y-110405714D01*
X160660952Y-110358095D01*
X160756190Y-110310476D01*
X161041905Y-110310476D01*
X161137143Y-110358095D01*
X161184762Y-110405714D01*
X161232381Y-110500952D01*
X161232381Y-110691429D01*
X161184762Y-110786667D01*
X161184762Y-109500952D02*
X161232381Y-109596190D01*
X161232381Y-109786667D01*
X161184762Y-109881905D01*
X161089524Y-109929524D01*
X160708571Y-109929524D01*
X160613333Y-109881905D01*
X160565714Y-109786667D01*
X160565714Y-109596190D01*
X160613333Y-109500952D01*
X160708571Y-109453333D01*
X160803810Y-109453333D01*
X160899048Y-109929524D01*
X161232381Y-109024762D02*
X160565714Y-109024762D01*
X160756190Y-109024762D02*
X160660952Y-108977143D01*
X160613333Y-108929524D01*
X160565714Y-108834286D01*
X160565714Y-108739047D01*
X161327619Y-108643809D02*
X161327619Y-107881904D01*
X160327619Y-107691428D02*
X160280000Y-107643809D01*
X160232381Y-107548571D01*
X160232381Y-107310475D01*
X160280000Y-107215237D01*
X160327619Y-107167618D01*
X160422857Y-107119999D01*
X160518095Y-107119999D01*
X160660952Y-107167618D01*
X161232381Y-107739047D01*
X161232381Y-107119999D01*
X161327619Y-106929523D02*
X161327619Y-106167618D01*
X160232381Y-105739047D02*
X160232381Y-105548570D01*
X160280000Y-105453332D01*
X160375238Y-105358094D01*
X160565714Y-105310475D01*
X160899048Y-105310475D01*
X161089524Y-105358094D01*
X161184762Y-105453332D01*
X161232381Y-105548570D01*
X161232381Y-105739047D01*
X161184762Y-105834285D01*
X161089524Y-105929523D01*
X160899048Y-105977142D01*
X160565714Y-105977142D01*
X160375238Y-105929523D01*
X160280000Y-105834285D01*
X160232381Y-105739047D01*
X160565714Y-104881904D02*
X161565714Y-104881904D01*
X160613333Y-104881904D02*
X160565714Y-104786666D01*
X160565714Y-104596189D01*
X160613333Y-104500951D01*
X160660952Y-104453332D01*
X160756190Y-104405713D01*
X161041905Y-104405713D01*
X161137143Y-104453332D01*
X161184762Y-104500951D01*
X161232381Y-104596189D01*
X161232381Y-104786666D01*
X161184762Y-104881904D01*
X161184762Y-103596189D02*
X161232381Y-103691427D01*
X161232381Y-103881904D01*
X161184762Y-103977142D01*
X161089524Y-104024761D01*
X160708571Y-104024761D01*
X160613333Y-103977142D01*
X160565714Y-103881904D01*
X160565714Y-103691427D01*
X160613333Y-103596189D01*
X160708571Y-103548570D01*
X160803810Y-103548570D01*
X160899048Y-104024761D01*
X160565714Y-103119999D02*
X161232381Y-103119999D01*
X160660952Y-103119999D02*
X160613333Y-103072380D01*
X160565714Y-102977142D01*
X160565714Y-102834284D01*
X160613333Y-102739046D01*
X160708571Y-102691427D01*
X161232381Y-102691427D01*
X153705067Y-103767667D02*
X153705067Y-104267667D01*
X153671733Y-104367667D01*
X153605067Y-104434333D01*
X153505067Y-104467667D01*
X153438400Y-104467667D01*
X154338400Y-104001000D02*
X154338400Y-104467667D01*
X154171733Y-103734333D02*
X154005066Y-104234333D01*
X154438400Y-104234333D01*
X154948734Y-102215867D02*
X154715400Y-101882533D01*
X154548734Y-102215867D02*
X154548734Y-101515867D01*
X154815400Y-101515867D01*
X154882067Y-101549200D01*
X154915400Y-101582533D01*
X154948734Y-101649200D01*
X154948734Y-101749200D01*
X154915400Y-101815867D01*
X154882067Y-101849200D01*
X154815400Y-101882533D01*
X154548734Y-101882533D01*
X155282067Y-102215867D02*
X155415400Y-102215867D01*
X155482067Y-102182533D01*
X155515400Y-102149200D01*
X155582067Y-102049200D01*
X155615400Y-101915867D01*
X155615400Y-101649200D01*
X155582067Y-101582533D01*
X155548734Y-101549200D01*
X155482067Y-101515867D01*
X155348734Y-101515867D01*
X155282067Y-101549200D01*
X155248734Y-101582533D01*
X155215400Y-101649200D01*
X155215400Y-101815867D01*
X155248734Y-101882533D01*
X155282067Y-101915867D01*
X155348734Y-101949200D01*
X155482067Y-101949200D01*
X155548734Y-101915867D01*
X155582067Y-101882533D01*
X155615400Y-101815867D01*
M02*
