G04 #@! TF.FileFunction,Copper,L2,Bot,Signal*
%FSLAX46Y46*%
G04 Gerber Fmt 4.6, Leading zero omitted, Abs format (unit mm)*
G04 Created by KiCad (PCBNEW 4.0.7-e2-6376~58~ubuntu16.04.1) date Fri Jul  6 10:04:11 2018*
%MOMM*%
%LPD*%
G01*
G04 APERTURE LIST*
%ADD10C,0.150000*%
%ADD11R,2.000000X2.000000*%
%ADD12O,2.000000X2.000000*%
%ADD13C,2.600000*%
%ADD14C,2.300000*%
%ADD15R,1.524000X1.524000*%
%ADD16C,1.524000*%
%ADD17C,0.889000*%
%ADD18C,0.250000*%
%ADD19C,0.500000*%
%ADD20C,0.254000*%
G04 APERTURE END LIST*
D10*
D11*
X138180000Y-68580000D03*
D12*
X135640000Y-68580000D03*
X133100000Y-68580000D03*
X130560000Y-68580000D03*
X128020000Y-68580000D03*
X125480000Y-68580000D03*
X122940000Y-68580000D03*
X120400000Y-68580000D03*
X117860000Y-68580000D03*
X115320000Y-68580000D03*
D11*
X160020000Y-68580000D03*
D12*
X157480000Y-68580000D03*
X154940000Y-68580000D03*
X152400000Y-68580000D03*
X149860000Y-68580000D03*
X147320000Y-68580000D03*
X144780000Y-68580000D03*
X142240000Y-68580000D03*
D11*
X124460000Y-116840000D03*
D12*
X127000000Y-116840000D03*
X129540000Y-116840000D03*
X132080000Y-116840000D03*
X134620000Y-116840000D03*
X137160000Y-116840000D03*
X139700000Y-116840000D03*
X142240000Y-116840000D03*
D11*
X147320000Y-116840000D03*
D12*
X149860000Y-116840000D03*
X152400000Y-116840000D03*
X154940000Y-116840000D03*
X157480000Y-116840000D03*
X160020000Y-116840000D03*
D11*
X117690000Y-116660000D03*
D12*
X120230000Y-116660000D03*
D11*
X160190000Y-88960000D03*
D12*
X162730000Y-88960000D03*
X160190000Y-91500000D03*
X162730000Y-91500000D03*
X160190000Y-94040000D03*
X162730000Y-94040000D03*
D13*
X158230000Y-104490000D03*
X158230000Y-99410000D03*
X163310000Y-99410000D03*
X163310000Y-104490000D03*
D14*
X160770000Y-101950000D03*
D11*
X142140000Y-110150000D03*
D12*
X139600000Y-110150000D03*
X137060000Y-110150000D03*
D15*
X109290000Y-83630000D03*
D16*
X109290000Y-81630000D03*
X109290000Y-79630000D03*
X109290000Y-77630000D03*
D15*
X109290000Y-96860000D03*
D16*
X109290000Y-94860000D03*
X109290000Y-92860000D03*
X109290000Y-90860000D03*
D15*
X109290000Y-110080000D03*
D16*
X109290000Y-108080000D03*
X109290000Y-106080000D03*
X109290000Y-104080000D03*
D17*
X149760000Y-103970000D03*
X163860000Y-107940000D03*
X162970000Y-107930000D03*
X162080000Y-107930000D03*
X161180000Y-107930000D03*
X160290000Y-107940000D03*
X159400000Y-107930000D03*
X158510000Y-107930000D03*
X157620000Y-107930000D03*
X156720000Y-107930000D03*
X155830000Y-107940000D03*
X154960000Y-107930000D03*
X154070000Y-107930000D03*
X153180000Y-107930000D03*
X152280000Y-107930000D03*
X151380000Y-107940000D03*
X150480000Y-107930000D03*
X149680000Y-107530000D03*
X149680000Y-106640000D03*
X149680000Y-105750000D03*
X149680000Y-104860000D03*
X150480000Y-100540000D03*
X150800000Y-97030000D03*
X150800000Y-97930000D03*
X150800000Y-98820000D03*
X150790000Y-99710000D03*
X150500000Y-95910000D03*
X163820000Y-96260000D03*
X162930000Y-96260000D03*
X162040000Y-96260000D03*
X161150000Y-96260000D03*
X160260000Y-96260000D03*
X159360000Y-96260000D03*
X158480000Y-96260000D03*
X157590000Y-96250000D03*
X156700000Y-96250000D03*
X155810000Y-96260000D03*
X154910000Y-96260000D03*
X154020000Y-96260000D03*
X153130000Y-96250000D03*
X152240000Y-96250000D03*
X151330000Y-96260000D03*
X157410000Y-91840000D03*
X124050000Y-104300000D03*
X123830000Y-107930000D03*
X125090000Y-95920000D03*
X118570000Y-91790000D03*
X151360000Y-85220000D03*
X136580000Y-74220000D03*
X133410000Y-112800000D03*
X133340000Y-114570000D03*
X137000000Y-95910000D03*
X137000000Y-93800000D03*
X124090000Y-114550000D03*
X124180000Y-112430000D03*
X125620000Y-109080000D03*
X127320000Y-107580000D03*
X131240000Y-107110000D03*
X130930000Y-111050000D03*
X121200000Y-115010000D03*
X121740000Y-112800000D03*
X120510000Y-105140000D03*
X121360000Y-103430000D03*
X119430000Y-94670000D03*
X120100000Y-96720000D03*
X120880000Y-96010000D03*
X121340000Y-93680000D03*
X133140000Y-81150000D03*
X139550000Y-75430000D03*
X138140000Y-90260000D03*
X138150000Y-95920000D03*
X119470000Y-105780000D03*
X121600000Y-98190000D03*
X139190000Y-89810000D03*
X139200000Y-95910000D03*
X161690000Y-79350000D03*
X113290000Y-107140000D03*
X111660000Y-109120000D03*
X115720000Y-105430000D03*
X158730000Y-114290000D03*
X161430000Y-118690000D03*
X114580000Y-117680000D03*
X161280000Y-114640000D03*
X113950000Y-74920000D03*
X114150000Y-71850000D03*
X118520000Y-105290000D03*
X117990000Y-100090000D03*
X115740000Y-100160000D03*
X120660000Y-102470000D03*
X148230000Y-108750000D03*
X146690000Y-108710000D03*
X137970000Y-108610000D03*
X136070000Y-108450000D03*
X122250000Y-104020000D03*
X116530000Y-71620000D03*
X114840000Y-74260000D03*
X112430000Y-100300000D03*
X110110000Y-100170000D03*
X138290000Y-71450000D03*
X143390000Y-71160000D03*
X139090000Y-72260000D03*
X145950000Y-70590000D03*
X141410000Y-76250000D03*
X141460000Y-72660000D03*
X151610000Y-76170000D03*
X151500000Y-72710000D03*
X149180000Y-76350000D03*
X148990000Y-72730000D03*
X146620000Y-76200000D03*
X146560000Y-72740000D03*
X143960000Y-72620000D03*
X144030000Y-76280000D03*
D18*
X162980000Y-107940000D02*
X163860000Y-107940000D01*
X162970000Y-107930000D02*
X162980000Y-107940000D01*
X161180000Y-107930000D02*
X162080000Y-107930000D01*
X159410000Y-107940000D02*
X160290000Y-107940000D01*
X159400000Y-107930000D02*
X159410000Y-107940000D01*
X157620000Y-107930000D02*
X158510000Y-107930000D01*
X155840000Y-107930000D02*
X156720000Y-107930000D01*
X155830000Y-107940000D02*
X155840000Y-107930000D01*
X154070000Y-107930000D02*
X154960000Y-107930000D01*
X152280000Y-107930000D02*
X153180000Y-107930000D01*
X150490000Y-107940000D02*
X151380000Y-107940000D01*
X150480000Y-107930000D02*
X150490000Y-107940000D01*
X149680000Y-106640000D02*
X149680000Y-107530000D01*
X149680000Y-104860000D02*
X149680000Y-105750000D01*
X150800000Y-97930000D02*
X150800000Y-97030000D01*
X150800000Y-99700000D02*
X150800000Y-98820000D01*
X150790000Y-99710000D02*
X150800000Y-99700000D01*
X162040000Y-96260000D02*
X162930000Y-96260000D01*
X160260000Y-96260000D02*
X161150000Y-96260000D01*
X158480000Y-96260000D02*
X159360000Y-96260000D01*
X156700000Y-96250000D02*
X157590000Y-96250000D01*
X154910000Y-96260000D02*
X155810000Y-96260000D01*
X153140000Y-96260000D02*
X154020000Y-96260000D01*
X153130000Y-96250000D02*
X153140000Y-96260000D01*
X151340000Y-96250000D02*
X152240000Y-96250000D01*
X151330000Y-96260000D02*
X151340000Y-96250000D01*
X157410000Y-91840000D02*
X157400000Y-91840000D01*
D19*
X133410000Y-114500000D02*
X133410000Y-112800000D01*
X133340000Y-114570000D02*
X133410000Y-114500000D01*
X137000000Y-93800000D02*
X137000000Y-95910000D01*
D18*
X124090000Y-112820000D02*
X124090000Y-112520000D01*
X124090000Y-114550000D02*
X124090000Y-112820000D01*
X124090000Y-112520000D02*
X124180000Y-112430000D01*
X125620000Y-109080000D02*
X127120000Y-107580000D01*
X127120000Y-107580000D02*
X127320000Y-107580000D01*
X131240000Y-107110000D02*
X130930000Y-107420000D01*
X130930000Y-107420000D02*
X130930000Y-111040000D01*
X130930000Y-111050000D02*
X130930000Y-111040000D01*
X121200000Y-115010000D02*
X121740000Y-114470000D01*
X121740000Y-114470000D02*
X121740000Y-112800000D01*
X120510000Y-105140000D02*
X121360000Y-104290000D01*
X121360000Y-104290000D02*
X121360000Y-103430000D01*
X119430000Y-94670000D02*
X120100000Y-95340000D01*
X120100000Y-95340000D02*
X120100000Y-96720000D01*
X120880000Y-96010000D02*
X120630000Y-95760000D01*
X120630000Y-95760000D02*
X120630000Y-94390000D01*
X120630000Y-94390000D02*
X121340000Y-93680000D01*
X133140000Y-81150000D02*
X138860000Y-75430000D01*
X138860000Y-75430000D02*
X139550000Y-75430000D01*
X137620000Y-94500000D02*
X137620000Y-95390000D01*
X137820000Y-94300000D02*
X137620000Y-94500000D01*
X137820000Y-90580000D02*
X137820000Y-94300000D01*
X138140000Y-90260000D02*
X137820000Y-90580000D01*
X137620000Y-95390000D02*
X138150000Y-95920000D01*
X121160000Y-98190000D02*
X121600000Y-98190000D01*
X119470000Y-105780000D02*
X119520000Y-105730000D01*
X119520000Y-105730000D02*
X119520000Y-99830000D01*
X119520000Y-99830000D02*
X121160000Y-98190000D01*
X139050000Y-95520000D02*
X139050000Y-95760000D01*
X139050000Y-95520000D02*
X138360000Y-94830000D01*
X138360000Y-94830000D02*
X138360000Y-91190000D01*
X138360000Y-91190000D02*
X139190000Y-90360000D01*
X139190000Y-90360000D02*
X139190000Y-89810000D01*
X139050000Y-95760000D02*
X139200000Y-95910000D01*
X142240000Y-68580000D02*
X142240000Y-67990000D01*
X142240000Y-67990000D02*
X143680000Y-66550000D01*
X143680000Y-66550000D02*
X160850000Y-66550000D01*
X160850000Y-66550000D02*
X162040000Y-67740000D01*
X162040000Y-67740000D02*
X162040000Y-79000000D01*
X162040000Y-79000000D02*
X161690000Y-79350000D01*
X111660000Y-109120000D02*
X111660000Y-108770000D01*
X111660000Y-108770000D02*
X113290000Y-107140000D01*
X118520000Y-105290000D02*
X115860000Y-105290000D01*
X115860000Y-105290000D02*
X115720000Y-105430000D01*
X160740000Y-114360000D02*
X161000000Y-114360000D01*
X158800000Y-114360000D02*
X158730000Y-114290000D01*
X160740000Y-114360000D02*
X159290000Y-114360000D01*
X160960000Y-118690000D02*
X161430000Y-118690000D01*
X160630000Y-119020000D02*
X160960000Y-118690000D01*
X115920000Y-119020000D02*
X160630000Y-119020000D01*
X114580000Y-117680000D02*
X115920000Y-119020000D01*
X159290000Y-114360000D02*
X158800000Y-114360000D01*
X161000000Y-114360000D02*
X161280000Y-114640000D01*
X113950000Y-72050000D02*
X113950000Y-74920000D01*
X114150000Y-71850000D02*
X113950000Y-72050000D01*
X118520000Y-105290000D02*
X118290000Y-105060000D01*
X116070000Y-100160000D02*
X115740000Y-100160000D01*
X117990000Y-100090000D02*
X117920000Y-100160000D01*
X117920000Y-100160000D02*
X116070000Y-100160000D01*
X121650000Y-102470000D02*
X121710000Y-102470000D01*
X120660000Y-102470000D02*
X121650000Y-102470000D01*
X146730000Y-108750000D02*
X148230000Y-108750000D01*
X146690000Y-108710000D02*
X146730000Y-108750000D01*
X136230000Y-108610000D02*
X137970000Y-108610000D01*
X136070000Y-108450000D02*
X136230000Y-108610000D01*
X122250000Y-103010000D02*
X122250000Y-104020000D01*
X121710000Y-102470000D02*
X122250000Y-103010000D01*
X116530000Y-71620000D02*
X114830000Y-73320000D01*
X114830000Y-73320000D02*
X114830000Y-74250000D01*
X114830000Y-74250000D02*
X114840000Y-74260000D01*
X111800000Y-100170000D02*
X112300000Y-100170000D01*
X112300000Y-100170000D02*
X112430000Y-100300000D01*
X111800000Y-100170000D02*
X110110000Y-100170000D01*
X142820000Y-71450000D02*
X143100000Y-71450000D01*
X142820000Y-71450000D02*
X138290000Y-71450000D01*
X143100000Y-71450000D02*
X143390000Y-71160000D01*
X143730000Y-71920000D02*
X143770000Y-71920000D01*
X139430000Y-71920000D02*
X143730000Y-71920000D01*
X139090000Y-72260000D02*
X139430000Y-71920000D01*
X144640000Y-71900000D02*
X145950000Y-70590000D01*
X143790000Y-71900000D02*
X144640000Y-71900000D01*
X143770000Y-71920000D02*
X143790000Y-71900000D01*
X141410000Y-72710000D02*
X141410000Y-76250000D01*
X141460000Y-72660000D02*
X141410000Y-72710000D01*
X151290000Y-75850000D02*
X151610000Y-76170000D01*
X151290000Y-72920000D02*
X151290000Y-75850000D01*
X151500000Y-72710000D02*
X151290000Y-72920000D01*
X148820000Y-75990000D02*
X149180000Y-76350000D01*
X148820000Y-72900000D02*
X148820000Y-75990000D01*
X148990000Y-72730000D02*
X148820000Y-72900000D01*
X146320000Y-75900000D02*
X146620000Y-76200000D01*
X146320000Y-72980000D02*
X146320000Y-75900000D01*
X146560000Y-72740000D02*
X146320000Y-72980000D01*
X143960000Y-72620000D02*
X143840000Y-72740000D01*
X143840000Y-72740000D02*
X143840000Y-76090000D01*
X143840000Y-76090000D02*
X144030000Y-76280000D01*
D20*
G36*
X110388725Y-66488877D02*
X109691326Y-67185060D01*
X109313431Y-68095133D01*
X109312571Y-69080544D01*
X109688877Y-69991275D01*
X110385060Y-70688674D01*
X111295133Y-71066569D01*
X112280544Y-71067429D01*
X113191275Y-70691123D01*
X113888674Y-69994940D01*
X114215875Y-69206952D01*
X114417025Y-69507993D01*
X114831313Y-69784812D01*
X115320000Y-69882018D01*
X115808687Y-69784812D01*
X116222975Y-69507993D01*
X116499794Y-69093705D01*
X116590000Y-68640209D01*
X116680206Y-69093705D01*
X116957025Y-69507993D01*
X117371313Y-69784812D01*
X117860000Y-69882018D01*
X118348687Y-69784812D01*
X118762975Y-69507993D01*
X119039794Y-69093705D01*
X119130000Y-68640209D01*
X119220206Y-69093705D01*
X119497025Y-69507993D01*
X119911313Y-69784812D01*
X120400000Y-69882018D01*
X120888687Y-69784812D01*
X121302975Y-69507993D01*
X121579794Y-69093705D01*
X121670000Y-68640209D01*
X121760206Y-69093705D01*
X122037025Y-69507993D01*
X122451313Y-69784812D01*
X122940000Y-69882018D01*
X123428687Y-69784812D01*
X123842975Y-69507993D01*
X124119794Y-69093705D01*
X124210000Y-68640209D01*
X124300206Y-69093705D01*
X124577025Y-69507993D01*
X124991313Y-69784812D01*
X125480000Y-69882018D01*
X125968687Y-69784812D01*
X126382975Y-69507993D01*
X126659794Y-69093705D01*
X126750000Y-68640209D01*
X126840206Y-69093705D01*
X127117025Y-69507993D01*
X127531313Y-69784812D01*
X128020000Y-69882018D01*
X128508687Y-69784812D01*
X128922975Y-69507993D01*
X129199794Y-69093705D01*
X129290000Y-68640209D01*
X129380206Y-69093705D01*
X129657025Y-69507993D01*
X130071313Y-69784812D01*
X130560000Y-69882018D01*
X131048687Y-69784812D01*
X131462975Y-69507993D01*
X131739794Y-69093705D01*
X131830000Y-68640209D01*
X131920206Y-69093705D01*
X132197025Y-69507993D01*
X132611313Y-69784812D01*
X133100000Y-69882018D01*
X133588687Y-69784812D01*
X134002975Y-69507993D01*
X134279794Y-69093705D01*
X134370000Y-68640209D01*
X134460206Y-69093705D01*
X134737025Y-69507993D01*
X135151313Y-69784812D01*
X135640000Y-69882018D01*
X136128687Y-69784812D01*
X136542975Y-69507993D01*
X136819794Y-69093705D01*
X136897574Y-68702679D01*
X136897574Y-69580000D01*
X136916889Y-69682650D01*
X136977555Y-69776927D01*
X137070120Y-69840175D01*
X137180000Y-69862426D01*
X139180000Y-69862426D01*
X139282650Y-69843111D01*
X139376927Y-69782445D01*
X139440175Y-69689880D01*
X139462426Y-69580000D01*
X139462426Y-67580000D01*
X139443111Y-67477350D01*
X139382445Y-67383073D01*
X139289880Y-67319825D01*
X139180000Y-67297574D01*
X137180000Y-67297574D01*
X137077350Y-67316889D01*
X136983073Y-67377555D01*
X136919825Y-67470120D01*
X136897574Y-67580000D01*
X136897574Y-68457321D01*
X136819794Y-68066295D01*
X136542975Y-67652007D01*
X136128687Y-67375188D01*
X135640000Y-67277982D01*
X135151313Y-67375188D01*
X134737025Y-67652007D01*
X134460206Y-68066295D01*
X134370000Y-68519791D01*
X134279794Y-68066295D01*
X134002975Y-67652007D01*
X133588687Y-67375188D01*
X133100000Y-67277982D01*
X132611313Y-67375188D01*
X132197025Y-67652007D01*
X131920206Y-68066295D01*
X131830000Y-68519791D01*
X131739794Y-68066295D01*
X131462975Y-67652007D01*
X131048687Y-67375188D01*
X130560000Y-67277982D01*
X130071313Y-67375188D01*
X129657025Y-67652007D01*
X129380206Y-68066295D01*
X129290000Y-68519791D01*
X129199794Y-68066295D01*
X128922975Y-67652007D01*
X128508687Y-67375188D01*
X128020000Y-67277982D01*
X127531313Y-67375188D01*
X127117025Y-67652007D01*
X126840206Y-68066295D01*
X126750000Y-68519791D01*
X126659794Y-68066295D01*
X126382975Y-67652007D01*
X125968687Y-67375188D01*
X125480000Y-67277982D01*
X124991313Y-67375188D01*
X124577025Y-67652007D01*
X124300206Y-68066295D01*
X124210000Y-68519791D01*
X124119794Y-68066295D01*
X123842975Y-67652007D01*
X123428687Y-67375188D01*
X122940000Y-67277982D01*
X122451313Y-67375188D01*
X122037025Y-67652007D01*
X121760206Y-68066295D01*
X121670000Y-68519791D01*
X121579794Y-68066295D01*
X121302975Y-67652007D01*
X120888687Y-67375188D01*
X120400000Y-67277982D01*
X119911313Y-67375188D01*
X119497025Y-67652007D01*
X119220206Y-68066295D01*
X119130000Y-68519791D01*
X119039794Y-68066295D01*
X118762975Y-67652007D01*
X118348687Y-67375188D01*
X117860000Y-67277982D01*
X117371313Y-67375188D01*
X116957025Y-67652007D01*
X116680206Y-68066295D01*
X116590000Y-68519791D01*
X116499794Y-68066295D01*
X116222975Y-67652007D01*
X115808687Y-67375188D01*
X115320000Y-67277982D01*
X114831313Y-67375188D01*
X114417025Y-67652007D01*
X114210351Y-67961316D01*
X113891123Y-67188725D01*
X113194940Y-66491326D01*
X112826959Y-66338527D01*
X143322959Y-66338527D01*
X142359695Y-67301791D01*
X142240000Y-67277982D01*
X141751313Y-67375188D01*
X141337025Y-67652007D01*
X141060206Y-68066295D01*
X140963000Y-68554982D01*
X140963000Y-68605018D01*
X141060206Y-69093705D01*
X141337025Y-69507993D01*
X141751313Y-69784812D01*
X142240000Y-69882018D01*
X142728687Y-69784812D01*
X143142975Y-69507993D01*
X143419794Y-69093705D01*
X143510000Y-68640209D01*
X143600206Y-69093705D01*
X143877025Y-69507993D01*
X144291313Y-69784812D01*
X144780000Y-69882018D01*
X145268687Y-69784812D01*
X145682975Y-69507993D01*
X145959794Y-69093705D01*
X146050000Y-68640209D01*
X146140206Y-69093705D01*
X146417025Y-69507993D01*
X146831313Y-69784812D01*
X147320000Y-69882018D01*
X147808687Y-69784812D01*
X148222975Y-69507993D01*
X148499794Y-69093705D01*
X148590000Y-68640209D01*
X148680206Y-69093705D01*
X148957025Y-69507993D01*
X149371313Y-69784812D01*
X149860000Y-69882018D01*
X150348687Y-69784812D01*
X150762975Y-69507993D01*
X151039794Y-69093705D01*
X151130000Y-68640209D01*
X151220206Y-69093705D01*
X151497025Y-69507993D01*
X151911313Y-69784812D01*
X152400000Y-69882018D01*
X152888687Y-69784812D01*
X153302975Y-69507993D01*
X153579794Y-69093705D01*
X153670000Y-68640209D01*
X153760206Y-69093705D01*
X154037025Y-69507993D01*
X154451313Y-69784812D01*
X154940000Y-69882018D01*
X155428687Y-69784812D01*
X155842975Y-69507993D01*
X156119794Y-69093705D01*
X156210000Y-68640209D01*
X156300206Y-69093705D01*
X156577025Y-69507993D01*
X156991313Y-69784812D01*
X157480000Y-69882018D01*
X157968687Y-69784812D01*
X158382975Y-69507993D01*
X158659794Y-69093705D01*
X158737574Y-68702679D01*
X158737574Y-69580000D01*
X158756889Y-69682650D01*
X158817555Y-69776927D01*
X158910120Y-69840175D01*
X159020000Y-69862426D01*
X161020000Y-69862426D01*
X161122650Y-69843111D01*
X161216927Y-69782445D01*
X161280175Y-69689880D01*
X161302426Y-69580000D01*
X161302426Y-67580000D01*
X161300326Y-67568840D01*
X161638000Y-67906514D01*
X161638000Y-78628454D01*
X161547114Y-78628375D01*
X161281837Y-78737985D01*
X161078699Y-78940769D01*
X160968626Y-79205855D01*
X160968375Y-79492886D01*
X161077985Y-79758163D01*
X161280769Y-79961301D01*
X161545855Y-80071374D01*
X161832886Y-80071625D01*
X162098163Y-79962015D01*
X162301301Y-79759231D01*
X162411374Y-79494145D01*
X162411544Y-79299544D01*
X164733000Y-81677164D01*
X164733000Y-82530075D01*
X164691123Y-82428725D01*
X163994940Y-81731326D01*
X163084867Y-81353431D01*
X162099456Y-81352571D01*
X161188725Y-81728877D01*
X160491326Y-82425060D01*
X160113431Y-83335133D01*
X160112571Y-84320544D01*
X160488877Y-85231275D01*
X161185060Y-85928674D01*
X162095133Y-86306569D01*
X163080544Y-86307429D01*
X163991275Y-85931123D01*
X164688674Y-85234940D01*
X164733000Y-85128191D01*
X164733000Y-98244466D01*
X164679459Y-98220146D01*
X163489605Y-99410000D01*
X164679459Y-100599854D01*
X164733000Y-100575534D01*
X164733000Y-103324466D01*
X164679459Y-103300146D01*
X163489605Y-104490000D01*
X164679459Y-105679854D01*
X164733000Y-105655534D01*
X164733000Y-110470075D01*
X164691123Y-110368725D01*
X163994940Y-109671326D01*
X163084867Y-109293431D01*
X162099456Y-109292571D01*
X161188725Y-109668877D01*
X160491326Y-110365060D01*
X160113431Y-111275133D01*
X160112571Y-112260544D01*
X160488877Y-113171275D01*
X161185060Y-113868674D01*
X161305107Y-113918522D01*
X161137114Y-113918375D01*
X161027821Y-113963534D01*
X161000000Y-113958000D01*
X159373485Y-113958000D01*
X159342015Y-113881837D01*
X159139231Y-113678699D01*
X158874145Y-113568626D01*
X158587114Y-113568375D01*
X158321837Y-113677985D01*
X158118699Y-113880769D01*
X158008626Y-114145855D01*
X158008375Y-114432886D01*
X158117985Y-114698163D01*
X158320769Y-114901301D01*
X158585855Y-115011374D01*
X158872886Y-115011625D01*
X159138163Y-114902015D01*
X159278422Y-114762000D01*
X160558393Y-114762000D01*
X160558375Y-114782886D01*
X160667985Y-115048163D01*
X160870769Y-115251301D01*
X161135855Y-115361374D01*
X161422886Y-115361625D01*
X161688163Y-115252015D01*
X161891301Y-115049231D01*
X162001374Y-114784145D01*
X162001625Y-114497114D01*
X161892015Y-114231837D01*
X161773330Y-114112945D01*
X162095133Y-114246569D01*
X163080544Y-114247429D01*
X163991275Y-113871123D01*
X164688674Y-113174940D01*
X164733000Y-113068191D01*
X164733000Y-114176836D01*
X162346029Y-116621556D01*
X162312248Y-116673443D01*
X162277891Y-116724863D01*
X162277503Y-116726813D01*
X162276417Y-116728481D01*
X162265066Y-116789339D01*
X162253000Y-116850000D01*
X162253000Y-119063000D01*
X162056345Y-119063000D01*
X162151374Y-118834145D01*
X162151625Y-118547114D01*
X162042015Y-118281837D01*
X161839231Y-118078699D01*
X161574145Y-117968626D01*
X161287114Y-117968375D01*
X161021837Y-118077985D01*
X160818699Y-118280769D01*
X160801773Y-118321532D01*
X160675743Y-118405743D01*
X160463486Y-118618000D01*
X116086514Y-118618000D01*
X115298817Y-117830303D01*
X115301374Y-117824145D01*
X115301625Y-117537114D01*
X115192015Y-117271837D01*
X114989231Y-117068699D01*
X114724145Y-116958626D01*
X114437114Y-116958375D01*
X114171837Y-117067985D01*
X113968699Y-117270769D01*
X113858626Y-117535855D01*
X113858375Y-117822886D01*
X113967985Y-118088163D01*
X114170769Y-118291301D01*
X114435855Y-118401374D01*
X114722886Y-118401625D01*
X114730121Y-118398635D01*
X115394486Y-119063000D01*
X111620512Y-119063000D01*
X111891275Y-118951123D01*
X112588674Y-118254940D01*
X112966569Y-117344867D01*
X112967429Y-116359456D01*
X112678420Y-115660000D01*
X116407574Y-115660000D01*
X116407574Y-117660000D01*
X116426889Y-117762650D01*
X116487555Y-117856927D01*
X116580120Y-117920175D01*
X116690000Y-117942426D01*
X118690000Y-117942426D01*
X118792650Y-117923111D01*
X118886927Y-117862445D01*
X118950175Y-117769880D01*
X118972426Y-117660000D01*
X118972426Y-116782679D01*
X119050206Y-117173705D01*
X119327025Y-117587993D01*
X119741313Y-117864812D01*
X120230000Y-117962018D01*
X120718687Y-117864812D01*
X121132975Y-117587993D01*
X121409794Y-117173705D01*
X121507000Y-116685018D01*
X121507000Y-116634982D01*
X121409794Y-116146295D01*
X121205134Y-115840000D01*
X123177574Y-115840000D01*
X123177574Y-117840000D01*
X123196889Y-117942650D01*
X123257555Y-118036927D01*
X123350120Y-118100175D01*
X123460000Y-118122426D01*
X125460000Y-118122426D01*
X125562650Y-118103111D01*
X125656927Y-118042445D01*
X125720175Y-117949880D01*
X125742426Y-117840000D01*
X125742426Y-116962679D01*
X125820206Y-117353705D01*
X126097025Y-117767993D01*
X126511313Y-118044812D01*
X127000000Y-118142018D01*
X127488687Y-118044812D01*
X127902975Y-117767993D01*
X128179794Y-117353705D01*
X128270000Y-116900209D01*
X128360206Y-117353705D01*
X128637025Y-117767993D01*
X129051313Y-118044812D01*
X129540000Y-118142018D01*
X130028687Y-118044812D01*
X130442975Y-117767993D01*
X130719794Y-117353705D01*
X130810000Y-116900209D01*
X130900206Y-117353705D01*
X131177025Y-117767993D01*
X131591313Y-118044812D01*
X132080000Y-118142018D01*
X132568687Y-118044812D01*
X132982975Y-117767993D01*
X133259794Y-117353705D01*
X133350000Y-116900209D01*
X133440206Y-117353705D01*
X133717025Y-117767993D01*
X134131313Y-118044812D01*
X134620000Y-118142018D01*
X135108687Y-118044812D01*
X135522975Y-117767993D01*
X135699934Y-117503156D01*
X135836495Y-117799994D01*
X136304615Y-118233402D01*
X136779566Y-118430124D01*
X137033000Y-118310777D01*
X137033000Y-116967000D01*
X137287000Y-116967000D01*
X137287000Y-118310777D01*
X137540434Y-118430124D01*
X138015385Y-118233402D01*
X138430000Y-117849532D01*
X138844615Y-118233402D01*
X139319566Y-118430124D01*
X139573000Y-118310777D01*
X139573000Y-116967000D01*
X137287000Y-116967000D01*
X137033000Y-116967000D01*
X137013000Y-116967000D01*
X137013000Y-116713000D01*
X137033000Y-116713000D01*
X137033000Y-115369223D01*
X137287000Y-115369223D01*
X137287000Y-116713000D01*
X139573000Y-116713000D01*
X139573000Y-115369223D01*
X139827000Y-115369223D01*
X139827000Y-116713000D01*
X139847000Y-116713000D01*
X139847000Y-116967000D01*
X139827000Y-116967000D01*
X139827000Y-118310777D01*
X140080434Y-118430124D01*
X140555385Y-118233402D01*
X141023505Y-117799994D01*
X141160066Y-117503156D01*
X141337025Y-117767993D01*
X141751313Y-118044812D01*
X142240000Y-118142018D01*
X142728687Y-118044812D01*
X143142975Y-117767993D01*
X143419794Y-117353705D01*
X143517000Y-116865018D01*
X143517000Y-116814982D01*
X143419794Y-116326295D01*
X143142975Y-115912007D01*
X143035210Y-115840000D01*
X146037574Y-115840000D01*
X146037574Y-117840000D01*
X146056889Y-117942650D01*
X146117555Y-118036927D01*
X146210120Y-118100175D01*
X146320000Y-118122426D01*
X148320000Y-118122426D01*
X148422650Y-118103111D01*
X148516927Y-118042445D01*
X148580175Y-117949880D01*
X148602426Y-117840000D01*
X148602426Y-116962679D01*
X148680206Y-117353705D01*
X148957025Y-117767993D01*
X149371313Y-118044812D01*
X149860000Y-118142018D01*
X150348687Y-118044812D01*
X150762975Y-117767993D01*
X151039794Y-117353705D01*
X151130000Y-116900209D01*
X151220206Y-117353705D01*
X151497025Y-117767993D01*
X151911313Y-118044812D01*
X152400000Y-118142018D01*
X152888687Y-118044812D01*
X153302975Y-117767993D01*
X153579794Y-117353705D01*
X153670000Y-116900209D01*
X153760206Y-117353705D01*
X154037025Y-117767993D01*
X154451313Y-118044812D01*
X154940000Y-118142018D01*
X155428687Y-118044812D01*
X155842975Y-117767993D01*
X156119794Y-117353705D01*
X156210000Y-116900209D01*
X156300206Y-117353705D01*
X156577025Y-117767993D01*
X156991313Y-118044812D01*
X157480000Y-118142018D01*
X157968687Y-118044812D01*
X158382975Y-117767993D01*
X158659794Y-117353705D01*
X158750000Y-116900209D01*
X158840206Y-117353705D01*
X159117025Y-117767993D01*
X159531313Y-118044812D01*
X160020000Y-118142018D01*
X160508687Y-118044812D01*
X160922975Y-117767993D01*
X161199794Y-117353705D01*
X161297000Y-116865018D01*
X161297000Y-116814982D01*
X161199794Y-116326295D01*
X160922975Y-115912007D01*
X160508687Y-115635188D01*
X160020000Y-115537982D01*
X159531313Y-115635188D01*
X159117025Y-115912007D01*
X158840206Y-116326295D01*
X158750000Y-116779791D01*
X158659794Y-116326295D01*
X158382975Y-115912007D01*
X157968687Y-115635188D01*
X157480000Y-115537982D01*
X156991313Y-115635188D01*
X156577025Y-115912007D01*
X156300206Y-116326295D01*
X156210000Y-116779791D01*
X156119794Y-116326295D01*
X155842975Y-115912007D01*
X155428687Y-115635188D01*
X154940000Y-115537982D01*
X154451313Y-115635188D01*
X154037025Y-115912007D01*
X153760206Y-116326295D01*
X153670000Y-116779791D01*
X153579794Y-116326295D01*
X153302975Y-115912007D01*
X152888687Y-115635188D01*
X152400000Y-115537982D01*
X151911313Y-115635188D01*
X151497025Y-115912007D01*
X151220206Y-116326295D01*
X151130000Y-116779791D01*
X151039794Y-116326295D01*
X150762975Y-115912007D01*
X150348687Y-115635188D01*
X149860000Y-115537982D01*
X149371313Y-115635188D01*
X148957025Y-115912007D01*
X148680206Y-116326295D01*
X148602426Y-116717321D01*
X148602426Y-115840000D01*
X148583111Y-115737350D01*
X148522445Y-115643073D01*
X148429880Y-115579825D01*
X148320000Y-115557574D01*
X146320000Y-115557574D01*
X146217350Y-115576889D01*
X146123073Y-115637555D01*
X146059825Y-115730120D01*
X146037574Y-115840000D01*
X143035210Y-115840000D01*
X142728687Y-115635188D01*
X142240000Y-115537982D01*
X141751313Y-115635188D01*
X141337025Y-115912007D01*
X141160066Y-116176844D01*
X141023505Y-115880006D01*
X140555385Y-115446598D01*
X140080434Y-115249876D01*
X139827000Y-115369223D01*
X139573000Y-115369223D01*
X139319566Y-115249876D01*
X138844615Y-115446598D01*
X138430000Y-115830468D01*
X138015385Y-115446598D01*
X137540434Y-115249876D01*
X137287000Y-115369223D01*
X137033000Y-115369223D01*
X136779566Y-115249876D01*
X136304615Y-115446598D01*
X135836495Y-115880006D01*
X135699934Y-116176844D01*
X135522975Y-115912007D01*
X135108687Y-115635188D01*
X134620000Y-115537982D01*
X134131313Y-115635188D01*
X133717025Y-115912007D01*
X133440206Y-116326295D01*
X133350000Y-116779791D01*
X133259794Y-116326295D01*
X132982975Y-115912007D01*
X132568687Y-115635188D01*
X132080000Y-115537982D01*
X131591313Y-115635188D01*
X131177025Y-115912007D01*
X130900206Y-116326295D01*
X130810000Y-116779791D01*
X130719794Y-116326295D01*
X130442975Y-115912007D01*
X130028687Y-115635188D01*
X129540000Y-115537982D01*
X129051313Y-115635188D01*
X128637025Y-115912007D01*
X128360206Y-116326295D01*
X128270000Y-116779791D01*
X128179794Y-116326295D01*
X127902975Y-115912007D01*
X127488687Y-115635188D01*
X127000000Y-115537982D01*
X126511313Y-115635188D01*
X126097025Y-115912007D01*
X125820206Y-116326295D01*
X125742426Y-116717321D01*
X125742426Y-115840000D01*
X125723111Y-115737350D01*
X125662445Y-115643073D01*
X125569880Y-115579825D01*
X125460000Y-115557574D01*
X123460000Y-115557574D01*
X123357350Y-115576889D01*
X123263073Y-115637555D01*
X123199825Y-115730120D01*
X123177574Y-115840000D01*
X121205134Y-115840000D01*
X121132975Y-115732007D01*
X121132127Y-115731441D01*
X121342886Y-115731625D01*
X121608163Y-115622015D01*
X121811301Y-115419231D01*
X121921374Y-115154145D01*
X121921625Y-114867114D01*
X121918635Y-114859879D01*
X122024257Y-114754257D01*
X122065264Y-114692886D01*
X123368375Y-114692886D01*
X123477985Y-114958163D01*
X123680769Y-115161301D01*
X123945855Y-115271374D01*
X124232886Y-115271625D01*
X124498163Y-115162015D01*
X124701301Y-114959231D01*
X124803592Y-114712886D01*
X132618375Y-114712886D01*
X132727985Y-114978163D01*
X132930769Y-115181301D01*
X133195855Y-115291374D01*
X133482886Y-115291625D01*
X133748163Y-115182015D01*
X133951301Y-114979231D01*
X134061374Y-114714145D01*
X134061625Y-114427114D01*
X133952015Y-114161837D01*
X133937000Y-114146796D01*
X133937000Y-113293385D01*
X134021301Y-113209231D01*
X134131374Y-112944145D01*
X134131625Y-112657114D01*
X134022015Y-112391837D01*
X133819231Y-112188699D01*
X133554145Y-112078626D01*
X133267114Y-112078375D01*
X133001837Y-112187985D01*
X132798699Y-112390769D01*
X132688626Y-112655855D01*
X132688375Y-112942886D01*
X132797985Y-113208163D01*
X132883000Y-113293326D01*
X132883000Y-114006737D01*
X132728699Y-114160769D01*
X132618626Y-114425855D01*
X132618375Y-114712886D01*
X124803592Y-114712886D01*
X124811374Y-114694145D01*
X124811625Y-114407114D01*
X124702015Y-114141837D01*
X124499231Y-113938699D01*
X124492000Y-113935696D01*
X124492000Y-113081749D01*
X124588163Y-113042015D01*
X124791301Y-112839231D01*
X124901374Y-112574145D01*
X124901625Y-112287114D01*
X124792015Y-112021837D01*
X124589231Y-111818699D01*
X124324145Y-111708626D01*
X124037114Y-111708375D01*
X123771837Y-111817985D01*
X123568699Y-112020769D01*
X123458626Y-112285855D01*
X123458375Y-112572886D01*
X123567985Y-112838163D01*
X123688000Y-112958388D01*
X123688000Y-113935439D01*
X123681837Y-113937985D01*
X123478699Y-114140769D01*
X123368626Y-114405855D01*
X123368375Y-114692886D01*
X122065264Y-114692886D01*
X122111400Y-114623839D01*
X122142000Y-114470000D01*
X122142000Y-113414561D01*
X122148163Y-113412015D01*
X122351301Y-113209231D01*
X122461374Y-112944145D01*
X122461625Y-112657114D01*
X122352015Y-112391837D01*
X122149231Y-112188699D01*
X121884145Y-112078626D01*
X121597114Y-112078375D01*
X121331837Y-112187985D01*
X121128699Y-112390769D01*
X121018626Y-112655855D01*
X121018375Y-112942886D01*
X121127985Y-113208163D01*
X121330769Y-113411301D01*
X121338000Y-113414304D01*
X121338000Y-114288621D01*
X121057114Y-114288375D01*
X120791837Y-114397985D01*
X120588699Y-114600769D01*
X120478626Y-114865855D01*
X120478375Y-115152886D01*
X120587985Y-115418163D01*
X120601720Y-115431922D01*
X120230000Y-115357982D01*
X119741313Y-115455188D01*
X119327025Y-115732007D01*
X119050206Y-116146295D01*
X118972426Y-116537321D01*
X118972426Y-115660000D01*
X118953111Y-115557350D01*
X118892445Y-115463073D01*
X118799880Y-115399825D01*
X118690000Y-115377574D01*
X116690000Y-115377574D01*
X116587350Y-115396889D01*
X116493073Y-115457555D01*
X116429825Y-115550120D01*
X116407574Y-115660000D01*
X112678420Y-115660000D01*
X112591123Y-115448725D01*
X111894940Y-114751326D01*
X110984867Y-114373431D01*
X109999456Y-114372571D01*
X109088725Y-114748877D01*
X108391326Y-115445060D01*
X108013431Y-116355133D01*
X108012571Y-117340544D01*
X108388877Y-118251275D01*
X109085060Y-118948674D01*
X109360388Y-119063000D01*
X96837000Y-119063000D01*
X96837000Y-111192886D01*
X130208375Y-111192886D01*
X130317985Y-111458163D01*
X130520769Y-111661301D01*
X130785855Y-111771374D01*
X131072886Y-111771625D01*
X131338163Y-111662015D01*
X131541301Y-111459231D01*
X131651374Y-111194145D01*
X131651625Y-110907114D01*
X131542015Y-110641837D01*
X131339231Y-110438699D01*
X131332000Y-110435696D01*
X131332000Y-108592886D01*
X135348375Y-108592886D01*
X135457985Y-108858163D01*
X135660769Y-109061301D01*
X135925855Y-109171374D01*
X136212886Y-109171625D01*
X136264091Y-109150467D01*
X136157025Y-109222007D01*
X135880206Y-109636295D01*
X135783000Y-110124982D01*
X135783000Y-110175018D01*
X135880206Y-110663705D01*
X136157025Y-111077993D01*
X136571313Y-111354812D01*
X137060000Y-111452018D01*
X137548687Y-111354812D01*
X137962975Y-111077993D01*
X138239794Y-110663705D01*
X138330000Y-110210209D01*
X138420206Y-110663705D01*
X138697025Y-111077993D01*
X139111313Y-111354812D01*
X139600000Y-111452018D01*
X140088687Y-111354812D01*
X140502975Y-111077993D01*
X140779794Y-110663705D01*
X140857574Y-110272679D01*
X140857574Y-111150000D01*
X140876889Y-111252650D01*
X140937555Y-111346927D01*
X141030120Y-111410175D01*
X141140000Y-111432426D01*
X143140000Y-111432426D01*
X143242650Y-111413111D01*
X143336927Y-111352445D01*
X143400175Y-111259880D01*
X143422426Y-111150000D01*
X143422426Y-109150000D01*
X143403111Y-109047350D01*
X143342445Y-108953073D01*
X143249880Y-108889825D01*
X143140000Y-108867574D01*
X141140000Y-108867574D01*
X141037350Y-108886889D01*
X140943073Y-108947555D01*
X140879825Y-109040120D01*
X140857574Y-109150000D01*
X140857574Y-110027321D01*
X140779794Y-109636295D01*
X140502975Y-109222007D01*
X140088687Y-108945188D01*
X139624655Y-108852886D01*
X145968375Y-108852886D01*
X146077985Y-109118163D01*
X146280769Y-109321301D01*
X146545855Y-109431374D01*
X146832886Y-109431625D01*
X147098163Y-109322015D01*
X147268475Y-109152000D01*
X147615439Y-109152000D01*
X147617985Y-109158163D01*
X147820769Y-109361301D01*
X148085855Y-109471374D01*
X148372886Y-109471625D01*
X148638163Y-109362015D01*
X148841301Y-109159231D01*
X148951374Y-108894145D01*
X148951625Y-108607114D01*
X148842015Y-108341837D01*
X148639231Y-108138699D01*
X148374145Y-108028626D01*
X148087114Y-108028375D01*
X147821837Y-108137985D01*
X147618699Y-108340769D01*
X147615696Y-108348000D01*
X147321089Y-108348000D01*
X147302015Y-108301837D01*
X147099231Y-108098699D01*
X146834145Y-107988626D01*
X146547114Y-107988375D01*
X146281837Y-108097985D01*
X146078699Y-108300769D01*
X145968626Y-108565855D01*
X145968375Y-108852886D01*
X139624655Y-108852886D01*
X139600000Y-108847982D01*
X139111313Y-108945188D01*
X138697025Y-109222007D01*
X138420206Y-109636295D01*
X138330000Y-110089791D01*
X138239794Y-109636295D01*
X138036175Y-109331558D01*
X138112886Y-109331625D01*
X138378163Y-109222015D01*
X138581301Y-109019231D01*
X138691374Y-108754145D01*
X138691625Y-108467114D01*
X138582015Y-108201837D01*
X138379231Y-107998699D01*
X138114145Y-107888626D01*
X137827114Y-107888375D01*
X137561837Y-107997985D01*
X137358699Y-108200769D01*
X137355696Y-108208000D01*
X136750672Y-108208000D01*
X136682015Y-108041837D01*
X136479231Y-107838699D01*
X136214145Y-107728626D01*
X135927114Y-107728375D01*
X135661837Y-107837985D01*
X135458699Y-108040769D01*
X135348626Y-108305855D01*
X135348375Y-108592886D01*
X131332000Y-108592886D01*
X131332000Y-107831581D01*
X131382886Y-107831625D01*
X131648163Y-107722015D01*
X131851301Y-107519231D01*
X131961374Y-107254145D01*
X131961625Y-106967114D01*
X131852015Y-106701837D01*
X131649231Y-106498699D01*
X131384145Y-106388626D01*
X131097114Y-106388375D01*
X130831837Y-106497985D01*
X130628699Y-106700769D01*
X130518626Y-106965855D01*
X130518375Y-107252886D01*
X130547311Y-107322916D01*
X130528000Y-107420000D01*
X130528000Y-110435439D01*
X130521837Y-110437985D01*
X130318699Y-110640769D01*
X130208626Y-110905855D01*
X130208375Y-111192886D01*
X96837000Y-111192886D01*
X96837000Y-109318000D01*
X108245574Y-109318000D01*
X108245574Y-110842000D01*
X108264889Y-110944650D01*
X108325555Y-111038927D01*
X108418120Y-111102175D01*
X108528000Y-111124426D01*
X110052000Y-111124426D01*
X110154650Y-111105111D01*
X110248927Y-111044445D01*
X110312175Y-110951880D01*
X110334426Y-110842000D01*
X110334426Y-109318000D01*
X110324056Y-109262886D01*
X110938375Y-109262886D01*
X111047985Y-109528163D01*
X111250769Y-109731301D01*
X111515855Y-109841374D01*
X111802886Y-109841625D01*
X112068163Y-109732015D01*
X112271301Y-109529231D01*
X112381374Y-109264145D01*
X112381410Y-109222886D01*
X124898375Y-109222886D01*
X125007985Y-109488163D01*
X125210769Y-109691301D01*
X125475855Y-109801374D01*
X125762886Y-109801625D01*
X126028163Y-109692015D01*
X126231301Y-109489231D01*
X126341374Y-109224145D01*
X126341625Y-108937114D01*
X126338635Y-108929879D01*
X127028378Y-108240136D01*
X127175855Y-108301374D01*
X127462886Y-108301625D01*
X127728163Y-108192015D01*
X127931301Y-107989231D01*
X128041374Y-107724145D01*
X128041625Y-107437114D01*
X127932015Y-107171837D01*
X127729231Y-106968699D01*
X127464145Y-106858626D01*
X127177114Y-106858375D01*
X126911837Y-106967985D01*
X126708699Y-107170769D01*
X126598626Y-107435855D01*
X126598541Y-107532945D01*
X125770303Y-108361183D01*
X125764145Y-108358626D01*
X125477114Y-108358375D01*
X125211837Y-108467985D01*
X125008699Y-108670769D01*
X124898626Y-108935855D01*
X124898375Y-109222886D01*
X112381410Y-109222886D01*
X112381625Y-108977114D01*
X112276302Y-108722212D01*
X113139697Y-107858817D01*
X113145855Y-107861374D01*
X113432886Y-107861625D01*
X113698163Y-107752015D01*
X113901301Y-107549231D01*
X114011374Y-107284145D01*
X114011625Y-106997114D01*
X113902015Y-106731837D01*
X113699231Y-106528699D01*
X113434145Y-106418626D01*
X113147114Y-106418375D01*
X112881837Y-106527985D01*
X112678699Y-106730769D01*
X112568626Y-106995855D01*
X112568375Y-107282886D01*
X112571365Y-107290121D01*
X111425086Y-108436400D01*
X111251837Y-108507985D01*
X111048699Y-108710769D01*
X110938626Y-108975855D01*
X110938375Y-109262886D01*
X110324056Y-109262886D01*
X110315111Y-109215350D01*
X110254445Y-109121073D01*
X110161880Y-109057825D01*
X110052000Y-109035574D01*
X109698105Y-109035574D01*
X109877777Y-108961335D01*
X110170308Y-108669315D01*
X110328819Y-108287577D01*
X110329180Y-107874237D01*
X110171335Y-107492223D01*
X109879315Y-107199692D01*
X109590825Y-107079901D01*
X109877777Y-106961335D01*
X110170308Y-106669315D01*
X110328819Y-106287577D01*
X110329180Y-105874237D01*
X110204665Y-105572886D01*
X114998375Y-105572886D01*
X115107985Y-105838163D01*
X115310769Y-106041301D01*
X115575855Y-106151374D01*
X115862886Y-106151625D01*
X116128163Y-106042015D01*
X116331301Y-105839231D01*
X116392436Y-105692000D01*
X117905439Y-105692000D01*
X117907985Y-105698163D01*
X118110769Y-105901301D01*
X118375855Y-106011374D01*
X118662886Y-106011625D01*
X118767227Y-105968512D01*
X118857985Y-106188163D01*
X119060769Y-106391301D01*
X119325855Y-106501374D01*
X119612886Y-106501625D01*
X119878163Y-106392015D01*
X120081301Y-106189231D01*
X120191374Y-105924145D01*
X120191492Y-105788972D01*
X120365855Y-105861374D01*
X120652886Y-105861625D01*
X120658128Y-105859459D01*
X157040146Y-105859459D01*
X157175504Y-106157455D01*
X157893880Y-106434066D01*
X158663427Y-106414710D01*
X159284496Y-106157455D01*
X159419854Y-105859459D01*
X162120146Y-105859459D01*
X162255504Y-106157455D01*
X162973880Y-106434066D01*
X163743427Y-106414710D01*
X164364496Y-106157455D01*
X164499854Y-105859459D01*
X163310000Y-104669605D01*
X162120146Y-105859459D01*
X159419854Y-105859459D01*
X158230000Y-104669605D01*
X157040146Y-105859459D01*
X120658128Y-105859459D01*
X120918163Y-105752015D01*
X121121301Y-105549231D01*
X121231374Y-105284145D01*
X121231625Y-104997114D01*
X121228635Y-104989879D01*
X121644257Y-104574257D01*
X121700219Y-104490505D01*
X121840769Y-104631301D01*
X122105855Y-104741374D01*
X122392886Y-104741625D01*
X122658163Y-104632015D01*
X122861301Y-104429231D01*
X122971374Y-104164145D01*
X122971382Y-104153880D01*
X156285934Y-104153880D01*
X156305290Y-104923427D01*
X156562545Y-105544496D01*
X156860541Y-105679854D01*
X158050395Y-104490000D01*
X158409605Y-104490000D01*
X159599459Y-105679854D01*
X159897455Y-105544496D01*
X160174066Y-104826120D01*
X160157158Y-104153880D01*
X161365934Y-104153880D01*
X161385290Y-104923427D01*
X161642545Y-105544496D01*
X161940541Y-105679854D01*
X163130395Y-104490000D01*
X161940541Y-103300146D01*
X161642545Y-103435504D01*
X161365934Y-104153880D01*
X160157158Y-104153880D01*
X160154710Y-104056573D01*
X159897455Y-103435504D01*
X159599459Y-103300146D01*
X158409605Y-104490000D01*
X158050395Y-104490000D01*
X156860541Y-103300146D01*
X156562545Y-103435504D01*
X156285934Y-104153880D01*
X122971382Y-104153880D01*
X122971625Y-103877114D01*
X122862015Y-103611837D01*
X122659231Y-103408699D01*
X122652000Y-103405696D01*
X122652000Y-103120541D01*
X157040146Y-103120541D01*
X158230000Y-104310395D01*
X159419854Y-103120541D01*
X159284496Y-102822545D01*
X158566120Y-102545934D01*
X157796573Y-102565290D01*
X157175504Y-102822545D01*
X157040146Y-103120541D01*
X122652000Y-103120541D01*
X122652000Y-103010000D01*
X122621400Y-102856161D01*
X122534257Y-102725743D01*
X122041117Y-102232603D01*
X159342752Y-102232603D01*
X159559543Y-102757275D01*
X159960614Y-103159047D01*
X160484907Y-103376752D01*
X161052603Y-103377248D01*
X161577275Y-103160457D01*
X161617260Y-103120541D01*
X162120146Y-103120541D01*
X163310000Y-104310395D01*
X164499854Y-103120541D01*
X164364496Y-102822545D01*
X163646120Y-102545934D01*
X162876573Y-102565290D01*
X162255504Y-102822545D01*
X162120146Y-103120541D01*
X161617260Y-103120541D01*
X161979047Y-102759386D01*
X162196752Y-102235093D01*
X162197248Y-101667397D01*
X161980457Y-101142725D01*
X161617825Y-100779459D01*
X162120146Y-100779459D01*
X162255504Y-101077455D01*
X162973880Y-101354066D01*
X163743427Y-101334710D01*
X164364496Y-101077455D01*
X164499854Y-100779459D01*
X163310000Y-99589605D01*
X162120146Y-100779459D01*
X161617825Y-100779459D01*
X161579386Y-100740953D01*
X161055093Y-100523248D01*
X160487397Y-100522752D01*
X159962725Y-100739543D01*
X159560953Y-101140614D01*
X159343248Y-101664907D01*
X159342752Y-102232603D01*
X122041117Y-102232603D01*
X121994257Y-102185743D01*
X121863839Y-102098600D01*
X121710000Y-102068000D01*
X121274561Y-102068000D01*
X121272015Y-102061837D01*
X121069231Y-101858699D01*
X120804145Y-101748626D01*
X120517114Y-101748375D01*
X120251837Y-101857985D01*
X120048699Y-102060769D01*
X119938626Y-102325855D01*
X119938375Y-102612886D01*
X120047985Y-102878163D01*
X120250769Y-103081301D01*
X120515855Y-103191374D01*
X120677799Y-103191516D01*
X120638626Y-103285855D01*
X120638375Y-103572886D01*
X120747985Y-103838163D01*
X120950769Y-104041301D01*
X120958000Y-104044304D01*
X120958000Y-104123486D01*
X120660303Y-104421183D01*
X120654145Y-104418626D01*
X120367114Y-104418375D01*
X120101837Y-104527985D01*
X119922000Y-104707509D01*
X119922000Y-100779459D01*
X157040146Y-100779459D01*
X157175504Y-101077455D01*
X157893880Y-101354066D01*
X158663427Y-101334710D01*
X159284496Y-101077455D01*
X159419854Y-100779459D01*
X158230000Y-99589605D01*
X157040146Y-100779459D01*
X119922000Y-100779459D01*
X119922000Y-99996514D01*
X120844634Y-99073880D01*
X156285934Y-99073880D01*
X156305290Y-99843427D01*
X156562545Y-100464496D01*
X156860541Y-100599854D01*
X158050395Y-99410000D01*
X158409605Y-99410000D01*
X159599459Y-100599854D01*
X159897455Y-100464496D01*
X160174066Y-99746120D01*
X160157158Y-99073880D01*
X161365934Y-99073880D01*
X161385290Y-99843427D01*
X161642545Y-100464496D01*
X161940541Y-100599854D01*
X163130395Y-99410000D01*
X161940541Y-98220146D01*
X161642545Y-98355504D01*
X161365934Y-99073880D01*
X160157158Y-99073880D01*
X160154710Y-98976573D01*
X159897455Y-98355504D01*
X159599459Y-98220146D01*
X158409605Y-99410000D01*
X158050395Y-99410000D01*
X156860541Y-98220146D01*
X156562545Y-98355504D01*
X156285934Y-99073880D01*
X120844634Y-99073880D01*
X121154023Y-98764491D01*
X121190769Y-98801301D01*
X121455855Y-98911374D01*
X121742886Y-98911625D01*
X122008163Y-98802015D01*
X122211301Y-98599231D01*
X122321374Y-98334145D01*
X122321625Y-98047114D01*
X122318910Y-98040541D01*
X157040146Y-98040541D01*
X158230000Y-99230395D01*
X159419854Y-98040541D01*
X162120146Y-98040541D01*
X163310000Y-99230395D01*
X164499854Y-98040541D01*
X164364496Y-97742545D01*
X163646120Y-97465934D01*
X162876573Y-97485290D01*
X162255504Y-97742545D01*
X162120146Y-98040541D01*
X159419854Y-98040541D01*
X159284496Y-97742545D01*
X158566120Y-97465934D01*
X157796573Y-97485290D01*
X157175504Y-97742545D01*
X157040146Y-98040541D01*
X122318910Y-98040541D01*
X122212015Y-97781837D01*
X122009231Y-97578699D01*
X121744145Y-97468626D01*
X121457114Y-97468375D01*
X121191837Y-97577985D01*
X120988699Y-97780769D01*
X120960253Y-97849275D01*
X120875743Y-97905743D01*
X119235743Y-99545743D01*
X119148600Y-99676161D01*
X119118000Y-99830000D01*
X119118000Y-104867798D01*
X118929231Y-104678699D01*
X118664145Y-104568626D01*
X118377114Y-104568375D01*
X118111837Y-104677985D01*
X118030438Y-104759242D01*
X118005743Y-104775743D01*
X117989386Y-104800222D01*
X117908699Y-104880769D01*
X117905696Y-104888000D01*
X116198411Y-104888000D01*
X116129231Y-104818699D01*
X115864145Y-104708626D01*
X115577114Y-104708375D01*
X115311837Y-104817985D01*
X115108699Y-105020769D01*
X114998626Y-105285855D01*
X114998375Y-105572886D01*
X110204665Y-105572886D01*
X110171335Y-105492223D01*
X109993338Y-105313914D01*
X110021143Y-105302397D01*
X110090608Y-105060213D01*
X109290000Y-104259605D01*
X108489392Y-105060213D01*
X108558857Y-105302397D01*
X108587922Y-105312766D01*
X108409692Y-105490685D01*
X108251181Y-105872423D01*
X108250820Y-106285763D01*
X108408665Y-106667777D01*
X108700685Y-106960308D01*
X108989175Y-107080099D01*
X108702223Y-107198665D01*
X108409692Y-107490685D01*
X108251181Y-107872423D01*
X108250820Y-108285763D01*
X108408665Y-108667777D01*
X108700685Y-108960308D01*
X108881946Y-109035574D01*
X108528000Y-109035574D01*
X108425350Y-109054889D01*
X108331073Y-109115555D01*
X108267825Y-109208120D01*
X108245574Y-109318000D01*
X96837000Y-109318000D01*
X96837000Y-103872302D01*
X107880856Y-103872302D01*
X107908638Y-104427368D01*
X108067603Y-104811143D01*
X108309787Y-104880608D01*
X109110395Y-104080000D01*
X109469605Y-104080000D01*
X110270213Y-104880608D01*
X110512397Y-104811143D01*
X110699144Y-104287698D01*
X110671362Y-103732632D01*
X110512397Y-103348857D01*
X110270213Y-103279392D01*
X109469605Y-104080000D01*
X109110395Y-104080000D01*
X108309787Y-103279392D01*
X108067603Y-103348857D01*
X107880856Y-103872302D01*
X96837000Y-103872302D01*
X96837000Y-103099787D01*
X108489392Y-103099787D01*
X109290000Y-103900395D01*
X110090608Y-103099787D01*
X110021143Y-102857603D01*
X109497698Y-102670856D01*
X108942632Y-102698638D01*
X108558857Y-102857603D01*
X108489392Y-103099787D01*
X96837000Y-103099787D01*
X96837000Y-100312886D01*
X109388375Y-100312886D01*
X109497985Y-100578163D01*
X109700769Y-100781301D01*
X109965855Y-100891374D01*
X110252886Y-100891625D01*
X110518163Y-100782015D01*
X110721301Y-100579231D01*
X110724304Y-100572000D01*
X111761724Y-100572000D01*
X111817985Y-100708163D01*
X112020769Y-100911301D01*
X112285855Y-101021374D01*
X112572886Y-101021625D01*
X112838163Y-100912015D01*
X113041301Y-100709231D01*
X113151374Y-100444145D01*
X113151497Y-100302886D01*
X115018375Y-100302886D01*
X115127985Y-100568163D01*
X115330769Y-100771301D01*
X115595855Y-100881374D01*
X115882886Y-100881625D01*
X116148163Y-100772015D01*
X116351301Y-100569231D01*
X116354304Y-100562000D01*
X117441711Y-100562000D01*
X117580769Y-100701301D01*
X117845855Y-100811374D01*
X118132886Y-100811625D01*
X118398163Y-100702015D01*
X118601301Y-100499231D01*
X118711374Y-100234145D01*
X118711625Y-99947114D01*
X118602015Y-99681837D01*
X118399231Y-99478699D01*
X118134145Y-99368626D01*
X117847114Y-99368375D01*
X117581837Y-99477985D01*
X117378699Y-99680769D01*
X117346630Y-99758000D01*
X116354561Y-99758000D01*
X116352015Y-99751837D01*
X116149231Y-99548699D01*
X115884145Y-99438626D01*
X115597114Y-99438375D01*
X115331837Y-99547985D01*
X115128699Y-99750769D01*
X115018626Y-100015855D01*
X115018375Y-100302886D01*
X113151497Y-100302886D01*
X113151625Y-100157114D01*
X113042015Y-99891837D01*
X112839231Y-99688699D01*
X112574145Y-99578626D01*
X112287114Y-99578375D01*
X112021837Y-99687985D01*
X111941682Y-99768000D01*
X110724561Y-99768000D01*
X110722015Y-99761837D01*
X110519231Y-99558699D01*
X110254145Y-99448626D01*
X109967114Y-99448375D01*
X109701837Y-99557985D01*
X109498699Y-99760769D01*
X109388626Y-100025855D01*
X109388375Y-100312886D01*
X96837000Y-100312886D01*
X96837000Y-96098000D01*
X108245574Y-96098000D01*
X108245574Y-97622000D01*
X108264889Y-97724650D01*
X108325555Y-97818927D01*
X108418120Y-97882175D01*
X108528000Y-97904426D01*
X110052000Y-97904426D01*
X110154650Y-97885111D01*
X110248927Y-97824445D01*
X110312175Y-97731880D01*
X110334426Y-97622000D01*
X110334426Y-96098000D01*
X110315111Y-95995350D01*
X110254445Y-95901073D01*
X110161880Y-95837825D01*
X110052000Y-95815574D01*
X109698105Y-95815574D01*
X109877777Y-95741335D01*
X110170308Y-95449315D01*
X110328819Y-95067577D01*
X110329041Y-94812886D01*
X118708375Y-94812886D01*
X118817985Y-95078163D01*
X119020769Y-95281301D01*
X119285855Y-95391374D01*
X119572886Y-95391625D01*
X119580121Y-95388635D01*
X119698000Y-95506514D01*
X119698000Y-96105439D01*
X119691837Y-96107985D01*
X119488699Y-96310769D01*
X119378626Y-96575855D01*
X119378375Y-96862886D01*
X119487985Y-97128163D01*
X119690769Y-97331301D01*
X119955855Y-97441374D01*
X120242886Y-97441625D01*
X120508163Y-97332015D01*
X120711301Y-97129231D01*
X120821374Y-96864145D01*
X120821490Y-96731449D01*
X121022886Y-96731625D01*
X121288163Y-96622015D01*
X121491301Y-96419231D01*
X121601374Y-96154145D01*
X121601625Y-95867114D01*
X121492015Y-95601837D01*
X121289231Y-95398699D01*
X121032000Y-95291888D01*
X121032000Y-94556514D01*
X121189697Y-94398817D01*
X121195855Y-94401374D01*
X121482886Y-94401625D01*
X121748163Y-94292015D01*
X121951301Y-94089231D01*
X122012068Y-93942886D01*
X136278375Y-93942886D01*
X136387985Y-94208163D01*
X136473000Y-94293326D01*
X136473000Y-95416615D01*
X136388699Y-95500769D01*
X136278626Y-95765855D01*
X136278375Y-96052886D01*
X136387985Y-96318163D01*
X136590769Y-96521301D01*
X136855855Y-96631374D01*
X137142886Y-96631625D01*
X137408163Y-96522015D01*
X137570113Y-96360347D01*
X137740769Y-96531301D01*
X138005855Y-96641374D01*
X138292886Y-96641625D01*
X138558163Y-96532015D01*
X138680026Y-96410365D01*
X138790769Y-96521301D01*
X139055855Y-96631374D01*
X139342886Y-96631625D01*
X139608163Y-96522015D01*
X139811301Y-96319231D01*
X139921374Y-96054145D01*
X139921625Y-95767114D01*
X139812015Y-95501837D01*
X139609231Y-95298699D01*
X139344145Y-95188626D01*
X139287090Y-95188576D01*
X138762000Y-94663486D01*
X138762000Y-91500000D01*
X158887982Y-91500000D01*
X158985188Y-91988687D01*
X159262007Y-92402975D01*
X159676295Y-92679794D01*
X160129791Y-92770000D01*
X159676295Y-92860206D01*
X159262007Y-93137025D01*
X158985188Y-93551313D01*
X158887982Y-94040000D01*
X158985188Y-94528687D01*
X159262007Y-94942975D01*
X159676295Y-95219794D01*
X160164982Y-95317000D01*
X160215018Y-95317000D01*
X160703705Y-95219794D01*
X161117993Y-94942975D01*
X161394812Y-94528687D01*
X161460000Y-94200965D01*
X161525188Y-94528687D01*
X161802007Y-94942975D01*
X162216295Y-95219794D01*
X162704982Y-95317000D01*
X162755018Y-95317000D01*
X163243705Y-95219794D01*
X163657993Y-94942975D01*
X163934812Y-94528687D01*
X164032018Y-94040000D01*
X163934812Y-93551313D01*
X163657993Y-93137025D01*
X163243705Y-92860206D01*
X162790209Y-92770000D01*
X163243705Y-92679794D01*
X163657993Y-92402975D01*
X163934812Y-91988687D01*
X164032018Y-91500000D01*
X163934812Y-91011313D01*
X163657993Y-90597025D01*
X163243705Y-90320206D01*
X162790209Y-90230000D01*
X163243705Y-90139794D01*
X163657993Y-89862975D01*
X163934812Y-89448687D01*
X164032018Y-88960000D01*
X163934812Y-88471313D01*
X163657993Y-88057025D01*
X163243705Y-87780206D01*
X162755018Y-87683000D01*
X162704982Y-87683000D01*
X162216295Y-87780206D01*
X161802007Y-88057025D01*
X161525188Y-88471313D01*
X161472426Y-88736565D01*
X161472426Y-87960000D01*
X161453111Y-87857350D01*
X161392445Y-87763073D01*
X161299880Y-87699825D01*
X161190000Y-87677574D01*
X159190000Y-87677574D01*
X159087350Y-87696889D01*
X158993073Y-87757555D01*
X158929825Y-87850120D01*
X158907574Y-87960000D01*
X158907574Y-89960000D01*
X158926889Y-90062650D01*
X158987555Y-90156927D01*
X159080120Y-90220175D01*
X159190000Y-90242426D01*
X160067321Y-90242426D01*
X159676295Y-90320206D01*
X159262007Y-90597025D01*
X158985188Y-91011313D01*
X158887982Y-91500000D01*
X138762000Y-91500000D01*
X138762000Y-91356514D01*
X139474257Y-90644257D01*
X139561400Y-90513839D01*
X139578008Y-90430343D01*
X139598163Y-90422015D01*
X139801301Y-90219231D01*
X139911374Y-89954145D01*
X139911625Y-89667114D01*
X139802015Y-89401837D01*
X139599231Y-89198699D01*
X139334145Y-89088626D01*
X139047114Y-89088375D01*
X138781837Y-89197985D01*
X138578699Y-89400769D01*
X138486556Y-89622674D01*
X138284145Y-89538626D01*
X137997114Y-89538375D01*
X137731837Y-89647985D01*
X137528699Y-89850769D01*
X137418626Y-90115855D01*
X137418375Y-90402886D01*
X137441903Y-90459829D01*
X137418000Y-90580000D01*
X137418000Y-93197483D01*
X137409231Y-93188699D01*
X137144145Y-93078626D01*
X136857114Y-93078375D01*
X136591837Y-93187985D01*
X136388699Y-93390769D01*
X136278626Y-93655855D01*
X136278375Y-93942886D01*
X122012068Y-93942886D01*
X122061374Y-93824145D01*
X122061625Y-93537114D01*
X121952015Y-93271837D01*
X121749231Y-93068699D01*
X121484145Y-92958626D01*
X121197114Y-92958375D01*
X120931837Y-93067985D01*
X120728699Y-93270769D01*
X120618626Y-93535855D01*
X120618375Y-93822886D01*
X120621365Y-93830121D01*
X120345743Y-94105743D01*
X120258600Y-94236161D01*
X120228000Y-94390000D01*
X120228000Y-94899486D01*
X120148817Y-94820303D01*
X120151374Y-94814145D01*
X120151625Y-94527114D01*
X120042015Y-94261837D01*
X119839231Y-94058699D01*
X119574145Y-93948626D01*
X119287114Y-93948375D01*
X119021837Y-94057985D01*
X118818699Y-94260769D01*
X118708626Y-94525855D01*
X118708375Y-94812886D01*
X110329041Y-94812886D01*
X110329180Y-94654237D01*
X110171335Y-94272223D01*
X109879315Y-93979692D01*
X109590825Y-93859901D01*
X109877777Y-93741335D01*
X110170308Y-93449315D01*
X110328819Y-93067577D01*
X110329180Y-92654237D01*
X110171335Y-92272223D01*
X109993338Y-92093914D01*
X110021143Y-92082397D01*
X110090608Y-91840213D01*
X109290000Y-91039605D01*
X108489392Y-91840213D01*
X108558857Y-92082397D01*
X108587922Y-92092766D01*
X108409692Y-92270685D01*
X108251181Y-92652423D01*
X108250820Y-93065763D01*
X108408665Y-93447777D01*
X108700685Y-93740308D01*
X108989175Y-93860099D01*
X108702223Y-93978665D01*
X108409692Y-94270685D01*
X108251181Y-94652423D01*
X108250820Y-95065763D01*
X108408665Y-95447777D01*
X108700685Y-95740308D01*
X108881946Y-95815574D01*
X108528000Y-95815574D01*
X108425350Y-95834889D01*
X108331073Y-95895555D01*
X108267825Y-95988120D01*
X108245574Y-96098000D01*
X96837000Y-96098000D01*
X96837000Y-90652302D01*
X107880856Y-90652302D01*
X107908638Y-91207368D01*
X108067603Y-91591143D01*
X108309787Y-91660608D01*
X109110395Y-90860000D01*
X109469605Y-90860000D01*
X110270213Y-91660608D01*
X110512397Y-91591143D01*
X110699144Y-91067698D01*
X110671362Y-90512632D01*
X110512397Y-90128857D01*
X110270213Y-90059392D01*
X109469605Y-90860000D01*
X109110395Y-90860000D01*
X108309787Y-90059392D01*
X108067603Y-90128857D01*
X107880856Y-90652302D01*
X96837000Y-90652302D01*
X96837000Y-89879787D01*
X108489392Y-89879787D01*
X109290000Y-90680395D01*
X110090608Y-89879787D01*
X110021143Y-89637603D01*
X109497698Y-89450856D01*
X108942632Y-89478638D01*
X108558857Y-89637603D01*
X108489392Y-89879787D01*
X96837000Y-89879787D01*
X96837000Y-82868000D01*
X108245574Y-82868000D01*
X108245574Y-84392000D01*
X108264889Y-84494650D01*
X108325555Y-84588927D01*
X108418120Y-84652175D01*
X108528000Y-84674426D01*
X110052000Y-84674426D01*
X110154650Y-84655111D01*
X110248927Y-84594445D01*
X110312175Y-84501880D01*
X110334426Y-84392000D01*
X110334426Y-82868000D01*
X110315111Y-82765350D01*
X110254445Y-82671073D01*
X110161880Y-82607825D01*
X110052000Y-82585574D01*
X109698105Y-82585574D01*
X109877777Y-82511335D01*
X110170308Y-82219315D01*
X110328819Y-81837577D01*
X110329180Y-81424237D01*
X110274907Y-81292886D01*
X132418375Y-81292886D01*
X132527985Y-81558163D01*
X132730769Y-81761301D01*
X132995855Y-81871374D01*
X133282886Y-81871625D01*
X133548163Y-81762015D01*
X133751301Y-81559231D01*
X133861374Y-81294145D01*
X133861625Y-81007114D01*
X133858635Y-80999879D01*
X138979132Y-75879382D01*
X139140769Y-76041301D01*
X139405855Y-76151374D01*
X139692886Y-76151625D01*
X139958163Y-76042015D01*
X140161301Y-75839231D01*
X140271374Y-75574145D01*
X140271625Y-75287114D01*
X140162015Y-75021837D01*
X139959231Y-74818699D01*
X139694145Y-74708626D01*
X139407114Y-74708375D01*
X139141837Y-74817985D01*
X138938699Y-75020769D01*
X138935696Y-75028000D01*
X138860000Y-75028000D01*
X138706161Y-75058600D01*
X138575743Y-75145743D01*
X133290303Y-80431183D01*
X133284145Y-80428626D01*
X132997114Y-80428375D01*
X132731837Y-80537985D01*
X132528699Y-80740769D01*
X132418626Y-81005855D01*
X132418375Y-81292886D01*
X110274907Y-81292886D01*
X110171335Y-81042223D01*
X109879315Y-80749692D01*
X109590825Y-80629901D01*
X109877777Y-80511335D01*
X110170308Y-80219315D01*
X110328819Y-79837577D01*
X110329180Y-79424237D01*
X110171335Y-79042223D01*
X109993338Y-78863914D01*
X110021143Y-78852397D01*
X110090608Y-78610213D01*
X109290000Y-77809605D01*
X108489392Y-78610213D01*
X108558857Y-78852397D01*
X108587922Y-78862766D01*
X108409692Y-79040685D01*
X108251181Y-79422423D01*
X108250820Y-79835763D01*
X108408665Y-80217777D01*
X108700685Y-80510308D01*
X108989175Y-80630099D01*
X108702223Y-80748665D01*
X108409692Y-81040685D01*
X108251181Y-81422423D01*
X108250820Y-81835763D01*
X108408665Y-82217777D01*
X108700685Y-82510308D01*
X108881946Y-82585574D01*
X108528000Y-82585574D01*
X108425350Y-82604889D01*
X108331073Y-82665555D01*
X108267825Y-82758120D01*
X108245574Y-82868000D01*
X96837000Y-82868000D01*
X96837000Y-77422302D01*
X107880856Y-77422302D01*
X107908638Y-77977368D01*
X108067603Y-78361143D01*
X108309787Y-78430608D01*
X109110395Y-77630000D01*
X109469605Y-77630000D01*
X110270213Y-78430608D01*
X110512397Y-78361143D01*
X110699144Y-77837698D01*
X110671362Y-77282632D01*
X110512397Y-76898857D01*
X110270213Y-76829392D01*
X109469605Y-77630000D01*
X109110395Y-77630000D01*
X108309787Y-76829392D01*
X108067603Y-76898857D01*
X107880856Y-77422302D01*
X96837000Y-77422302D01*
X96837000Y-76649787D01*
X108489392Y-76649787D01*
X109290000Y-77450395D01*
X110090608Y-76649787D01*
X110021143Y-76407603D01*
X109497698Y-76220856D01*
X108942632Y-76248638D01*
X108558857Y-76407603D01*
X108489392Y-76649787D01*
X96837000Y-76649787D01*
X96837000Y-75062886D01*
X113228375Y-75062886D01*
X113337985Y-75328163D01*
X113540769Y-75531301D01*
X113805855Y-75641374D01*
X114092886Y-75641625D01*
X114358163Y-75532015D01*
X114561301Y-75329231D01*
X114671374Y-75064145D01*
X114671455Y-74971242D01*
X114695855Y-74981374D01*
X114982886Y-74981625D01*
X115248163Y-74872015D01*
X115451301Y-74669231D01*
X115561374Y-74404145D01*
X115561625Y-74117114D01*
X115452015Y-73851837D01*
X115249231Y-73648699D01*
X115232000Y-73641544D01*
X115232000Y-73486514D01*
X116379697Y-72338817D01*
X116385855Y-72341374D01*
X116672886Y-72341625D01*
X116938163Y-72232015D01*
X117141301Y-72029231D01*
X117251374Y-71764145D01*
X117251523Y-71592886D01*
X137568375Y-71592886D01*
X137677985Y-71858163D01*
X137880769Y-72061301D01*
X138145855Y-72171374D01*
X138368577Y-72171569D01*
X138368375Y-72402886D01*
X138477985Y-72668163D01*
X138680769Y-72871301D01*
X138945855Y-72981374D01*
X139232886Y-72981625D01*
X139498163Y-72872015D01*
X139701301Y-72669231D01*
X139811374Y-72404145D01*
X139811446Y-72322000D01*
X140819121Y-72322000D01*
X140738626Y-72515855D01*
X140738375Y-72802886D01*
X140847985Y-73068163D01*
X141008000Y-73228457D01*
X141008000Y-75635439D01*
X141001837Y-75637985D01*
X140798699Y-75840769D01*
X140688626Y-76105855D01*
X140688375Y-76392886D01*
X140797985Y-76658163D01*
X141000769Y-76861301D01*
X141265855Y-76971374D01*
X141552886Y-76971625D01*
X141818163Y-76862015D01*
X142021301Y-76659231D01*
X142131374Y-76394145D01*
X142131625Y-76107114D01*
X142022015Y-75841837D01*
X141819231Y-75638699D01*
X141812000Y-75635696D01*
X141812000Y-73295221D01*
X141868163Y-73272015D01*
X142071301Y-73069231D01*
X142181374Y-72804145D01*
X142181625Y-72517114D01*
X142101006Y-72322000D01*
X143302512Y-72322000D01*
X143238626Y-72475855D01*
X143238375Y-72762886D01*
X143347985Y-73028163D01*
X143438000Y-73118335D01*
X143438000Y-75851502D01*
X143418699Y-75870769D01*
X143308626Y-76135855D01*
X143308375Y-76422886D01*
X143417985Y-76688163D01*
X143620769Y-76891301D01*
X143885855Y-77001374D01*
X144172886Y-77001625D01*
X144438163Y-76892015D01*
X144641301Y-76689231D01*
X144751374Y-76424145D01*
X144751625Y-76137114D01*
X144642015Y-75871837D01*
X144439231Y-75668699D01*
X144242000Y-75586802D01*
X144242000Y-73284144D01*
X144368163Y-73232015D01*
X144571301Y-73029231D01*
X144632068Y-72882886D01*
X145838375Y-72882886D01*
X145918000Y-73075594D01*
X145918000Y-75900000D01*
X145932686Y-75973830D01*
X145898626Y-76055855D01*
X145898375Y-76342886D01*
X146007985Y-76608163D01*
X146210769Y-76811301D01*
X146475855Y-76921374D01*
X146762886Y-76921625D01*
X147028163Y-76812015D01*
X147231301Y-76609231D01*
X147341374Y-76344145D01*
X147341625Y-76057114D01*
X147232015Y-75791837D01*
X147029231Y-75588699D01*
X146764145Y-75478626D01*
X146722000Y-75478589D01*
X146722000Y-73453727D01*
X146968163Y-73352015D01*
X147171301Y-73149231D01*
X147281374Y-72884145D01*
X147281383Y-72872886D01*
X148268375Y-72872886D01*
X148377985Y-73138163D01*
X148418000Y-73178248D01*
X148418000Y-75990000D01*
X148448600Y-76143839D01*
X148470665Y-76176862D01*
X148458626Y-76205855D01*
X148458375Y-76492886D01*
X148567985Y-76758163D01*
X148770769Y-76961301D01*
X149035855Y-77071374D01*
X149322886Y-77071625D01*
X149588163Y-76962015D01*
X149791301Y-76759231D01*
X149901374Y-76494145D01*
X149901625Y-76207114D01*
X149792015Y-75941837D01*
X149589231Y-75738699D01*
X149324145Y-75628626D01*
X149222000Y-75628537D01*
X149222000Y-73414804D01*
X149398163Y-73342015D01*
X149601301Y-73139231D01*
X149711374Y-72874145D01*
X149711392Y-72852886D01*
X150778375Y-72852886D01*
X150887985Y-73118163D01*
X150888000Y-73118178D01*
X150888000Y-75850000D01*
X150911853Y-75969918D01*
X150888626Y-76025855D01*
X150888375Y-76312886D01*
X150997985Y-76578163D01*
X151200769Y-76781301D01*
X151465855Y-76891374D01*
X151752886Y-76891625D01*
X152018163Y-76782015D01*
X152221301Y-76579231D01*
X152331374Y-76314145D01*
X152331625Y-76027114D01*
X152222015Y-75761837D01*
X152019231Y-75558699D01*
X151754145Y-75448626D01*
X151692000Y-75448572D01*
X151692000Y-73411332D01*
X151908163Y-73322015D01*
X152111301Y-73119231D01*
X152221374Y-72854145D01*
X152221625Y-72567114D01*
X152112015Y-72301837D01*
X151909231Y-72098699D01*
X151644145Y-71988626D01*
X151357114Y-71988375D01*
X151091837Y-72097985D01*
X150888699Y-72300769D01*
X150778626Y-72565855D01*
X150778375Y-72852886D01*
X149711392Y-72852886D01*
X149711625Y-72587114D01*
X149602015Y-72321837D01*
X149399231Y-72118699D01*
X149134145Y-72008626D01*
X148847114Y-72008375D01*
X148581837Y-72117985D01*
X148378699Y-72320769D01*
X148268626Y-72585855D01*
X148268375Y-72872886D01*
X147281383Y-72872886D01*
X147281625Y-72597114D01*
X147172015Y-72331837D01*
X146969231Y-72128699D01*
X146704145Y-72018626D01*
X146417114Y-72018375D01*
X146151837Y-72127985D01*
X145948699Y-72330769D01*
X145838626Y-72595855D01*
X145838375Y-72882886D01*
X144632068Y-72882886D01*
X144681374Y-72764145D01*
X144681625Y-72477114D01*
X144609270Y-72302000D01*
X144640000Y-72302000D01*
X144793839Y-72271400D01*
X144924257Y-72184257D01*
X145799697Y-71308817D01*
X145805855Y-71311374D01*
X146092886Y-71311625D01*
X146358163Y-71202015D01*
X146561301Y-70999231D01*
X146671374Y-70734145D01*
X146671625Y-70447114D01*
X146562015Y-70181837D01*
X146359231Y-69978699D01*
X146094145Y-69868626D01*
X145807114Y-69868375D01*
X145541837Y-69977985D01*
X145338699Y-70180769D01*
X145228626Y-70445855D01*
X145228375Y-70732886D01*
X145231365Y-70740121D01*
X144473486Y-71498000D01*
X144030879Y-71498000D01*
X144111374Y-71304145D01*
X144111625Y-71017114D01*
X144002015Y-70751837D01*
X143799231Y-70548699D01*
X143534145Y-70438626D01*
X143247114Y-70438375D01*
X142981837Y-70547985D01*
X142778699Y-70750769D01*
X142668626Y-71015855D01*
X142668598Y-71048000D01*
X138904561Y-71048000D01*
X138902015Y-71041837D01*
X138699231Y-70838699D01*
X138434145Y-70728626D01*
X138147114Y-70728375D01*
X137881837Y-70837985D01*
X137678699Y-71040769D01*
X137568626Y-71305855D01*
X137568375Y-71592886D01*
X117251523Y-71592886D01*
X117251625Y-71477114D01*
X117142015Y-71211837D01*
X116939231Y-71008699D01*
X116674145Y-70898626D01*
X116387114Y-70898375D01*
X116121837Y-71007985D01*
X115918699Y-71210769D01*
X115808626Y-71475855D01*
X115808375Y-71762886D01*
X115811365Y-71770121D01*
X114545743Y-73035743D01*
X114458600Y-73166161D01*
X114428000Y-73320000D01*
X114428000Y-73651815D01*
X114352000Y-73727683D01*
X114352000Y-72547200D01*
X114558163Y-72462015D01*
X114761301Y-72259231D01*
X114871374Y-71994145D01*
X114871625Y-71707114D01*
X114762015Y-71441837D01*
X114559231Y-71238699D01*
X114294145Y-71128626D01*
X114007114Y-71128375D01*
X113741837Y-71237985D01*
X113538699Y-71440769D01*
X113428626Y-71705855D01*
X113428375Y-71992886D01*
X113537985Y-72258163D01*
X113548000Y-72268195D01*
X113548000Y-74305439D01*
X113541837Y-74307985D01*
X113338699Y-74510769D01*
X113228626Y-74775855D01*
X113228375Y-75062886D01*
X96837000Y-75062886D01*
X96837000Y-66338527D01*
X110752600Y-66338527D01*
X110388725Y-66488877D01*
X110388725Y-66488877D01*
G37*
X110388725Y-66488877D02*
X109691326Y-67185060D01*
X109313431Y-68095133D01*
X109312571Y-69080544D01*
X109688877Y-69991275D01*
X110385060Y-70688674D01*
X111295133Y-71066569D01*
X112280544Y-71067429D01*
X113191275Y-70691123D01*
X113888674Y-69994940D01*
X114215875Y-69206952D01*
X114417025Y-69507993D01*
X114831313Y-69784812D01*
X115320000Y-69882018D01*
X115808687Y-69784812D01*
X116222975Y-69507993D01*
X116499794Y-69093705D01*
X116590000Y-68640209D01*
X116680206Y-69093705D01*
X116957025Y-69507993D01*
X117371313Y-69784812D01*
X117860000Y-69882018D01*
X118348687Y-69784812D01*
X118762975Y-69507993D01*
X119039794Y-69093705D01*
X119130000Y-68640209D01*
X119220206Y-69093705D01*
X119497025Y-69507993D01*
X119911313Y-69784812D01*
X120400000Y-69882018D01*
X120888687Y-69784812D01*
X121302975Y-69507993D01*
X121579794Y-69093705D01*
X121670000Y-68640209D01*
X121760206Y-69093705D01*
X122037025Y-69507993D01*
X122451313Y-69784812D01*
X122940000Y-69882018D01*
X123428687Y-69784812D01*
X123842975Y-69507993D01*
X124119794Y-69093705D01*
X124210000Y-68640209D01*
X124300206Y-69093705D01*
X124577025Y-69507993D01*
X124991313Y-69784812D01*
X125480000Y-69882018D01*
X125968687Y-69784812D01*
X126382975Y-69507993D01*
X126659794Y-69093705D01*
X126750000Y-68640209D01*
X126840206Y-69093705D01*
X127117025Y-69507993D01*
X127531313Y-69784812D01*
X128020000Y-69882018D01*
X128508687Y-69784812D01*
X128922975Y-69507993D01*
X129199794Y-69093705D01*
X129290000Y-68640209D01*
X129380206Y-69093705D01*
X129657025Y-69507993D01*
X130071313Y-69784812D01*
X130560000Y-69882018D01*
X131048687Y-69784812D01*
X131462975Y-69507993D01*
X131739794Y-69093705D01*
X131830000Y-68640209D01*
X131920206Y-69093705D01*
X132197025Y-69507993D01*
X132611313Y-69784812D01*
X133100000Y-69882018D01*
X133588687Y-69784812D01*
X134002975Y-69507993D01*
X134279794Y-69093705D01*
X134370000Y-68640209D01*
X134460206Y-69093705D01*
X134737025Y-69507993D01*
X135151313Y-69784812D01*
X135640000Y-69882018D01*
X136128687Y-69784812D01*
X136542975Y-69507993D01*
X136819794Y-69093705D01*
X136897574Y-68702679D01*
X136897574Y-69580000D01*
X136916889Y-69682650D01*
X136977555Y-69776927D01*
X137070120Y-69840175D01*
X137180000Y-69862426D01*
X139180000Y-69862426D01*
X139282650Y-69843111D01*
X139376927Y-69782445D01*
X139440175Y-69689880D01*
X139462426Y-69580000D01*
X139462426Y-67580000D01*
X139443111Y-67477350D01*
X139382445Y-67383073D01*
X139289880Y-67319825D01*
X139180000Y-67297574D01*
X137180000Y-67297574D01*
X137077350Y-67316889D01*
X136983073Y-67377555D01*
X136919825Y-67470120D01*
X136897574Y-67580000D01*
X136897574Y-68457321D01*
X136819794Y-68066295D01*
X136542975Y-67652007D01*
X136128687Y-67375188D01*
X135640000Y-67277982D01*
X135151313Y-67375188D01*
X134737025Y-67652007D01*
X134460206Y-68066295D01*
X134370000Y-68519791D01*
X134279794Y-68066295D01*
X134002975Y-67652007D01*
X133588687Y-67375188D01*
X133100000Y-67277982D01*
X132611313Y-67375188D01*
X132197025Y-67652007D01*
X131920206Y-68066295D01*
X131830000Y-68519791D01*
X131739794Y-68066295D01*
X131462975Y-67652007D01*
X131048687Y-67375188D01*
X130560000Y-67277982D01*
X130071313Y-67375188D01*
X129657025Y-67652007D01*
X129380206Y-68066295D01*
X129290000Y-68519791D01*
X129199794Y-68066295D01*
X128922975Y-67652007D01*
X128508687Y-67375188D01*
X128020000Y-67277982D01*
X127531313Y-67375188D01*
X127117025Y-67652007D01*
X126840206Y-68066295D01*
X126750000Y-68519791D01*
X126659794Y-68066295D01*
X126382975Y-67652007D01*
X125968687Y-67375188D01*
X125480000Y-67277982D01*
X124991313Y-67375188D01*
X124577025Y-67652007D01*
X124300206Y-68066295D01*
X124210000Y-68519791D01*
X124119794Y-68066295D01*
X123842975Y-67652007D01*
X123428687Y-67375188D01*
X122940000Y-67277982D01*
X122451313Y-67375188D01*
X122037025Y-67652007D01*
X121760206Y-68066295D01*
X121670000Y-68519791D01*
X121579794Y-68066295D01*
X121302975Y-67652007D01*
X120888687Y-67375188D01*
X120400000Y-67277982D01*
X119911313Y-67375188D01*
X119497025Y-67652007D01*
X119220206Y-68066295D01*
X119130000Y-68519791D01*
X119039794Y-68066295D01*
X118762975Y-67652007D01*
X118348687Y-67375188D01*
X117860000Y-67277982D01*
X117371313Y-67375188D01*
X116957025Y-67652007D01*
X116680206Y-68066295D01*
X116590000Y-68519791D01*
X116499794Y-68066295D01*
X116222975Y-67652007D01*
X115808687Y-67375188D01*
X115320000Y-67277982D01*
X114831313Y-67375188D01*
X114417025Y-67652007D01*
X114210351Y-67961316D01*
X113891123Y-67188725D01*
X113194940Y-66491326D01*
X112826959Y-66338527D01*
X143322959Y-66338527D01*
X142359695Y-67301791D01*
X142240000Y-67277982D01*
X141751313Y-67375188D01*
X141337025Y-67652007D01*
X141060206Y-68066295D01*
X140963000Y-68554982D01*
X140963000Y-68605018D01*
X141060206Y-69093705D01*
X141337025Y-69507993D01*
X141751313Y-69784812D01*
X142240000Y-69882018D01*
X142728687Y-69784812D01*
X143142975Y-69507993D01*
X143419794Y-69093705D01*
X143510000Y-68640209D01*
X143600206Y-69093705D01*
X143877025Y-69507993D01*
X144291313Y-69784812D01*
X144780000Y-69882018D01*
X145268687Y-69784812D01*
X145682975Y-69507993D01*
X145959794Y-69093705D01*
X146050000Y-68640209D01*
X146140206Y-69093705D01*
X146417025Y-69507993D01*
X146831313Y-69784812D01*
X147320000Y-69882018D01*
X147808687Y-69784812D01*
X148222975Y-69507993D01*
X148499794Y-69093705D01*
X148590000Y-68640209D01*
X148680206Y-69093705D01*
X148957025Y-69507993D01*
X149371313Y-69784812D01*
X149860000Y-69882018D01*
X150348687Y-69784812D01*
X150762975Y-69507993D01*
X151039794Y-69093705D01*
X151130000Y-68640209D01*
X151220206Y-69093705D01*
X151497025Y-69507993D01*
X151911313Y-69784812D01*
X152400000Y-69882018D01*
X152888687Y-69784812D01*
X153302975Y-69507993D01*
X153579794Y-69093705D01*
X153670000Y-68640209D01*
X153760206Y-69093705D01*
X154037025Y-69507993D01*
X154451313Y-69784812D01*
X154940000Y-69882018D01*
X155428687Y-69784812D01*
X155842975Y-69507993D01*
X156119794Y-69093705D01*
X156210000Y-68640209D01*
X156300206Y-69093705D01*
X156577025Y-69507993D01*
X156991313Y-69784812D01*
X157480000Y-69882018D01*
X157968687Y-69784812D01*
X158382975Y-69507993D01*
X158659794Y-69093705D01*
X158737574Y-68702679D01*
X158737574Y-69580000D01*
X158756889Y-69682650D01*
X158817555Y-69776927D01*
X158910120Y-69840175D01*
X159020000Y-69862426D01*
X161020000Y-69862426D01*
X161122650Y-69843111D01*
X161216927Y-69782445D01*
X161280175Y-69689880D01*
X161302426Y-69580000D01*
X161302426Y-67580000D01*
X161300326Y-67568840D01*
X161638000Y-67906514D01*
X161638000Y-78628454D01*
X161547114Y-78628375D01*
X161281837Y-78737985D01*
X161078699Y-78940769D01*
X160968626Y-79205855D01*
X160968375Y-79492886D01*
X161077985Y-79758163D01*
X161280769Y-79961301D01*
X161545855Y-80071374D01*
X161832886Y-80071625D01*
X162098163Y-79962015D01*
X162301301Y-79759231D01*
X162411374Y-79494145D01*
X162411544Y-79299544D01*
X164733000Y-81677164D01*
X164733000Y-82530075D01*
X164691123Y-82428725D01*
X163994940Y-81731326D01*
X163084867Y-81353431D01*
X162099456Y-81352571D01*
X161188725Y-81728877D01*
X160491326Y-82425060D01*
X160113431Y-83335133D01*
X160112571Y-84320544D01*
X160488877Y-85231275D01*
X161185060Y-85928674D01*
X162095133Y-86306569D01*
X163080544Y-86307429D01*
X163991275Y-85931123D01*
X164688674Y-85234940D01*
X164733000Y-85128191D01*
X164733000Y-98244466D01*
X164679459Y-98220146D01*
X163489605Y-99410000D01*
X164679459Y-100599854D01*
X164733000Y-100575534D01*
X164733000Y-103324466D01*
X164679459Y-103300146D01*
X163489605Y-104490000D01*
X164679459Y-105679854D01*
X164733000Y-105655534D01*
X164733000Y-110470075D01*
X164691123Y-110368725D01*
X163994940Y-109671326D01*
X163084867Y-109293431D01*
X162099456Y-109292571D01*
X161188725Y-109668877D01*
X160491326Y-110365060D01*
X160113431Y-111275133D01*
X160112571Y-112260544D01*
X160488877Y-113171275D01*
X161185060Y-113868674D01*
X161305107Y-113918522D01*
X161137114Y-113918375D01*
X161027821Y-113963534D01*
X161000000Y-113958000D01*
X159373485Y-113958000D01*
X159342015Y-113881837D01*
X159139231Y-113678699D01*
X158874145Y-113568626D01*
X158587114Y-113568375D01*
X158321837Y-113677985D01*
X158118699Y-113880769D01*
X158008626Y-114145855D01*
X158008375Y-114432886D01*
X158117985Y-114698163D01*
X158320769Y-114901301D01*
X158585855Y-115011374D01*
X158872886Y-115011625D01*
X159138163Y-114902015D01*
X159278422Y-114762000D01*
X160558393Y-114762000D01*
X160558375Y-114782886D01*
X160667985Y-115048163D01*
X160870769Y-115251301D01*
X161135855Y-115361374D01*
X161422886Y-115361625D01*
X161688163Y-115252015D01*
X161891301Y-115049231D01*
X162001374Y-114784145D01*
X162001625Y-114497114D01*
X161892015Y-114231837D01*
X161773330Y-114112945D01*
X162095133Y-114246569D01*
X163080544Y-114247429D01*
X163991275Y-113871123D01*
X164688674Y-113174940D01*
X164733000Y-113068191D01*
X164733000Y-114176836D01*
X162346029Y-116621556D01*
X162312248Y-116673443D01*
X162277891Y-116724863D01*
X162277503Y-116726813D01*
X162276417Y-116728481D01*
X162265066Y-116789339D01*
X162253000Y-116850000D01*
X162253000Y-119063000D01*
X162056345Y-119063000D01*
X162151374Y-118834145D01*
X162151625Y-118547114D01*
X162042015Y-118281837D01*
X161839231Y-118078699D01*
X161574145Y-117968626D01*
X161287114Y-117968375D01*
X161021837Y-118077985D01*
X160818699Y-118280769D01*
X160801773Y-118321532D01*
X160675743Y-118405743D01*
X160463486Y-118618000D01*
X116086514Y-118618000D01*
X115298817Y-117830303D01*
X115301374Y-117824145D01*
X115301625Y-117537114D01*
X115192015Y-117271837D01*
X114989231Y-117068699D01*
X114724145Y-116958626D01*
X114437114Y-116958375D01*
X114171837Y-117067985D01*
X113968699Y-117270769D01*
X113858626Y-117535855D01*
X113858375Y-117822886D01*
X113967985Y-118088163D01*
X114170769Y-118291301D01*
X114435855Y-118401374D01*
X114722886Y-118401625D01*
X114730121Y-118398635D01*
X115394486Y-119063000D01*
X111620512Y-119063000D01*
X111891275Y-118951123D01*
X112588674Y-118254940D01*
X112966569Y-117344867D01*
X112967429Y-116359456D01*
X112678420Y-115660000D01*
X116407574Y-115660000D01*
X116407574Y-117660000D01*
X116426889Y-117762650D01*
X116487555Y-117856927D01*
X116580120Y-117920175D01*
X116690000Y-117942426D01*
X118690000Y-117942426D01*
X118792650Y-117923111D01*
X118886927Y-117862445D01*
X118950175Y-117769880D01*
X118972426Y-117660000D01*
X118972426Y-116782679D01*
X119050206Y-117173705D01*
X119327025Y-117587993D01*
X119741313Y-117864812D01*
X120230000Y-117962018D01*
X120718687Y-117864812D01*
X121132975Y-117587993D01*
X121409794Y-117173705D01*
X121507000Y-116685018D01*
X121507000Y-116634982D01*
X121409794Y-116146295D01*
X121205134Y-115840000D01*
X123177574Y-115840000D01*
X123177574Y-117840000D01*
X123196889Y-117942650D01*
X123257555Y-118036927D01*
X123350120Y-118100175D01*
X123460000Y-118122426D01*
X125460000Y-118122426D01*
X125562650Y-118103111D01*
X125656927Y-118042445D01*
X125720175Y-117949880D01*
X125742426Y-117840000D01*
X125742426Y-116962679D01*
X125820206Y-117353705D01*
X126097025Y-117767993D01*
X126511313Y-118044812D01*
X127000000Y-118142018D01*
X127488687Y-118044812D01*
X127902975Y-117767993D01*
X128179794Y-117353705D01*
X128270000Y-116900209D01*
X128360206Y-117353705D01*
X128637025Y-117767993D01*
X129051313Y-118044812D01*
X129540000Y-118142018D01*
X130028687Y-118044812D01*
X130442975Y-117767993D01*
X130719794Y-117353705D01*
X130810000Y-116900209D01*
X130900206Y-117353705D01*
X131177025Y-117767993D01*
X131591313Y-118044812D01*
X132080000Y-118142018D01*
X132568687Y-118044812D01*
X132982975Y-117767993D01*
X133259794Y-117353705D01*
X133350000Y-116900209D01*
X133440206Y-117353705D01*
X133717025Y-117767993D01*
X134131313Y-118044812D01*
X134620000Y-118142018D01*
X135108687Y-118044812D01*
X135522975Y-117767993D01*
X135699934Y-117503156D01*
X135836495Y-117799994D01*
X136304615Y-118233402D01*
X136779566Y-118430124D01*
X137033000Y-118310777D01*
X137033000Y-116967000D01*
X137287000Y-116967000D01*
X137287000Y-118310777D01*
X137540434Y-118430124D01*
X138015385Y-118233402D01*
X138430000Y-117849532D01*
X138844615Y-118233402D01*
X139319566Y-118430124D01*
X139573000Y-118310777D01*
X139573000Y-116967000D01*
X137287000Y-116967000D01*
X137033000Y-116967000D01*
X137013000Y-116967000D01*
X137013000Y-116713000D01*
X137033000Y-116713000D01*
X137033000Y-115369223D01*
X137287000Y-115369223D01*
X137287000Y-116713000D01*
X139573000Y-116713000D01*
X139573000Y-115369223D01*
X139827000Y-115369223D01*
X139827000Y-116713000D01*
X139847000Y-116713000D01*
X139847000Y-116967000D01*
X139827000Y-116967000D01*
X139827000Y-118310777D01*
X140080434Y-118430124D01*
X140555385Y-118233402D01*
X141023505Y-117799994D01*
X141160066Y-117503156D01*
X141337025Y-117767993D01*
X141751313Y-118044812D01*
X142240000Y-118142018D01*
X142728687Y-118044812D01*
X143142975Y-117767993D01*
X143419794Y-117353705D01*
X143517000Y-116865018D01*
X143517000Y-116814982D01*
X143419794Y-116326295D01*
X143142975Y-115912007D01*
X143035210Y-115840000D01*
X146037574Y-115840000D01*
X146037574Y-117840000D01*
X146056889Y-117942650D01*
X146117555Y-118036927D01*
X146210120Y-118100175D01*
X146320000Y-118122426D01*
X148320000Y-118122426D01*
X148422650Y-118103111D01*
X148516927Y-118042445D01*
X148580175Y-117949880D01*
X148602426Y-117840000D01*
X148602426Y-116962679D01*
X148680206Y-117353705D01*
X148957025Y-117767993D01*
X149371313Y-118044812D01*
X149860000Y-118142018D01*
X150348687Y-118044812D01*
X150762975Y-117767993D01*
X151039794Y-117353705D01*
X151130000Y-116900209D01*
X151220206Y-117353705D01*
X151497025Y-117767993D01*
X151911313Y-118044812D01*
X152400000Y-118142018D01*
X152888687Y-118044812D01*
X153302975Y-117767993D01*
X153579794Y-117353705D01*
X153670000Y-116900209D01*
X153760206Y-117353705D01*
X154037025Y-117767993D01*
X154451313Y-118044812D01*
X154940000Y-118142018D01*
X155428687Y-118044812D01*
X155842975Y-117767993D01*
X156119794Y-117353705D01*
X156210000Y-116900209D01*
X156300206Y-117353705D01*
X156577025Y-117767993D01*
X156991313Y-118044812D01*
X157480000Y-118142018D01*
X157968687Y-118044812D01*
X158382975Y-117767993D01*
X158659794Y-117353705D01*
X158750000Y-116900209D01*
X158840206Y-117353705D01*
X159117025Y-117767993D01*
X159531313Y-118044812D01*
X160020000Y-118142018D01*
X160508687Y-118044812D01*
X160922975Y-117767993D01*
X161199794Y-117353705D01*
X161297000Y-116865018D01*
X161297000Y-116814982D01*
X161199794Y-116326295D01*
X160922975Y-115912007D01*
X160508687Y-115635188D01*
X160020000Y-115537982D01*
X159531313Y-115635188D01*
X159117025Y-115912007D01*
X158840206Y-116326295D01*
X158750000Y-116779791D01*
X158659794Y-116326295D01*
X158382975Y-115912007D01*
X157968687Y-115635188D01*
X157480000Y-115537982D01*
X156991313Y-115635188D01*
X156577025Y-115912007D01*
X156300206Y-116326295D01*
X156210000Y-116779791D01*
X156119794Y-116326295D01*
X155842975Y-115912007D01*
X155428687Y-115635188D01*
X154940000Y-115537982D01*
X154451313Y-115635188D01*
X154037025Y-115912007D01*
X153760206Y-116326295D01*
X153670000Y-116779791D01*
X153579794Y-116326295D01*
X153302975Y-115912007D01*
X152888687Y-115635188D01*
X152400000Y-115537982D01*
X151911313Y-115635188D01*
X151497025Y-115912007D01*
X151220206Y-116326295D01*
X151130000Y-116779791D01*
X151039794Y-116326295D01*
X150762975Y-115912007D01*
X150348687Y-115635188D01*
X149860000Y-115537982D01*
X149371313Y-115635188D01*
X148957025Y-115912007D01*
X148680206Y-116326295D01*
X148602426Y-116717321D01*
X148602426Y-115840000D01*
X148583111Y-115737350D01*
X148522445Y-115643073D01*
X148429880Y-115579825D01*
X148320000Y-115557574D01*
X146320000Y-115557574D01*
X146217350Y-115576889D01*
X146123073Y-115637555D01*
X146059825Y-115730120D01*
X146037574Y-115840000D01*
X143035210Y-115840000D01*
X142728687Y-115635188D01*
X142240000Y-115537982D01*
X141751313Y-115635188D01*
X141337025Y-115912007D01*
X141160066Y-116176844D01*
X141023505Y-115880006D01*
X140555385Y-115446598D01*
X140080434Y-115249876D01*
X139827000Y-115369223D01*
X139573000Y-115369223D01*
X139319566Y-115249876D01*
X138844615Y-115446598D01*
X138430000Y-115830468D01*
X138015385Y-115446598D01*
X137540434Y-115249876D01*
X137287000Y-115369223D01*
X137033000Y-115369223D01*
X136779566Y-115249876D01*
X136304615Y-115446598D01*
X135836495Y-115880006D01*
X135699934Y-116176844D01*
X135522975Y-115912007D01*
X135108687Y-115635188D01*
X134620000Y-115537982D01*
X134131313Y-115635188D01*
X133717025Y-115912007D01*
X133440206Y-116326295D01*
X133350000Y-116779791D01*
X133259794Y-116326295D01*
X132982975Y-115912007D01*
X132568687Y-115635188D01*
X132080000Y-115537982D01*
X131591313Y-115635188D01*
X131177025Y-115912007D01*
X130900206Y-116326295D01*
X130810000Y-116779791D01*
X130719794Y-116326295D01*
X130442975Y-115912007D01*
X130028687Y-115635188D01*
X129540000Y-115537982D01*
X129051313Y-115635188D01*
X128637025Y-115912007D01*
X128360206Y-116326295D01*
X128270000Y-116779791D01*
X128179794Y-116326295D01*
X127902975Y-115912007D01*
X127488687Y-115635188D01*
X127000000Y-115537982D01*
X126511313Y-115635188D01*
X126097025Y-115912007D01*
X125820206Y-116326295D01*
X125742426Y-116717321D01*
X125742426Y-115840000D01*
X125723111Y-115737350D01*
X125662445Y-115643073D01*
X125569880Y-115579825D01*
X125460000Y-115557574D01*
X123460000Y-115557574D01*
X123357350Y-115576889D01*
X123263073Y-115637555D01*
X123199825Y-115730120D01*
X123177574Y-115840000D01*
X121205134Y-115840000D01*
X121132975Y-115732007D01*
X121132127Y-115731441D01*
X121342886Y-115731625D01*
X121608163Y-115622015D01*
X121811301Y-115419231D01*
X121921374Y-115154145D01*
X121921625Y-114867114D01*
X121918635Y-114859879D01*
X122024257Y-114754257D01*
X122065264Y-114692886D01*
X123368375Y-114692886D01*
X123477985Y-114958163D01*
X123680769Y-115161301D01*
X123945855Y-115271374D01*
X124232886Y-115271625D01*
X124498163Y-115162015D01*
X124701301Y-114959231D01*
X124803592Y-114712886D01*
X132618375Y-114712886D01*
X132727985Y-114978163D01*
X132930769Y-115181301D01*
X133195855Y-115291374D01*
X133482886Y-115291625D01*
X133748163Y-115182015D01*
X133951301Y-114979231D01*
X134061374Y-114714145D01*
X134061625Y-114427114D01*
X133952015Y-114161837D01*
X133937000Y-114146796D01*
X133937000Y-113293385D01*
X134021301Y-113209231D01*
X134131374Y-112944145D01*
X134131625Y-112657114D01*
X134022015Y-112391837D01*
X133819231Y-112188699D01*
X133554145Y-112078626D01*
X133267114Y-112078375D01*
X133001837Y-112187985D01*
X132798699Y-112390769D01*
X132688626Y-112655855D01*
X132688375Y-112942886D01*
X132797985Y-113208163D01*
X132883000Y-113293326D01*
X132883000Y-114006737D01*
X132728699Y-114160769D01*
X132618626Y-114425855D01*
X132618375Y-114712886D01*
X124803592Y-114712886D01*
X124811374Y-114694145D01*
X124811625Y-114407114D01*
X124702015Y-114141837D01*
X124499231Y-113938699D01*
X124492000Y-113935696D01*
X124492000Y-113081749D01*
X124588163Y-113042015D01*
X124791301Y-112839231D01*
X124901374Y-112574145D01*
X124901625Y-112287114D01*
X124792015Y-112021837D01*
X124589231Y-111818699D01*
X124324145Y-111708626D01*
X124037114Y-111708375D01*
X123771837Y-111817985D01*
X123568699Y-112020769D01*
X123458626Y-112285855D01*
X123458375Y-112572886D01*
X123567985Y-112838163D01*
X123688000Y-112958388D01*
X123688000Y-113935439D01*
X123681837Y-113937985D01*
X123478699Y-114140769D01*
X123368626Y-114405855D01*
X123368375Y-114692886D01*
X122065264Y-114692886D01*
X122111400Y-114623839D01*
X122142000Y-114470000D01*
X122142000Y-113414561D01*
X122148163Y-113412015D01*
X122351301Y-113209231D01*
X122461374Y-112944145D01*
X122461625Y-112657114D01*
X122352015Y-112391837D01*
X122149231Y-112188699D01*
X121884145Y-112078626D01*
X121597114Y-112078375D01*
X121331837Y-112187985D01*
X121128699Y-112390769D01*
X121018626Y-112655855D01*
X121018375Y-112942886D01*
X121127985Y-113208163D01*
X121330769Y-113411301D01*
X121338000Y-113414304D01*
X121338000Y-114288621D01*
X121057114Y-114288375D01*
X120791837Y-114397985D01*
X120588699Y-114600769D01*
X120478626Y-114865855D01*
X120478375Y-115152886D01*
X120587985Y-115418163D01*
X120601720Y-115431922D01*
X120230000Y-115357982D01*
X119741313Y-115455188D01*
X119327025Y-115732007D01*
X119050206Y-116146295D01*
X118972426Y-116537321D01*
X118972426Y-115660000D01*
X118953111Y-115557350D01*
X118892445Y-115463073D01*
X118799880Y-115399825D01*
X118690000Y-115377574D01*
X116690000Y-115377574D01*
X116587350Y-115396889D01*
X116493073Y-115457555D01*
X116429825Y-115550120D01*
X116407574Y-115660000D01*
X112678420Y-115660000D01*
X112591123Y-115448725D01*
X111894940Y-114751326D01*
X110984867Y-114373431D01*
X109999456Y-114372571D01*
X109088725Y-114748877D01*
X108391326Y-115445060D01*
X108013431Y-116355133D01*
X108012571Y-117340544D01*
X108388877Y-118251275D01*
X109085060Y-118948674D01*
X109360388Y-119063000D01*
X96837000Y-119063000D01*
X96837000Y-111192886D01*
X130208375Y-111192886D01*
X130317985Y-111458163D01*
X130520769Y-111661301D01*
X130785855Y-111771374D01*
X131072886Y-111771625D01*
X131338163Y-111662015D01*
X131541301Y-111459231D01*
X131651374Y-111194145D01*
X131651625Y-110907114D01*
X131542015Y-110641837D01*
X131339231Y-110438699D01*
X131332000Y-110435696D01*
X131332000Y-108592886D01*
X135348375Y-108592886D01*
X135457985Y-108858163D01*
X135660769Y-109061301D01*
X135925855Y-109171374D01*
X136212886Y-109171625D01*
X136264091Y-109150467D01*
X136157025Y-109222007D01*
X135880206Y-109636295D01*
X135783000Y-110124982D01*
X135783000Y-110175018D01*
X135880206Y-110663705D01*
X136157025Y-111077993D01*
X136571313Y-111354812D01*
X137060000Y-111452018D01*
X137548687Y-111354812D01*
X137962975Y-111077993D01*
X138239794Y-110663705D01*
X138330000Y-110210209D01*
X138420206Y-110663705D01*
X138697025Y-111077993D01*
X139111313Y-111354812D01*
X139600000Y-111452018D01*
X140088687Y-111354812D01*
X140502975Y-111077993D01*
X140779794Y-110663705D01*
X140857574Y-110272679D01*
X140857574Y-111150000D01*
X140876889Y-111252650D01*
X140937555Y-111346927D01*
X141030120Y-111410175D01*
X141140000Y-111432426D01*
X143140000Y-111432426D01*
X143242650Y-111413111D01*
X143336927Y-111352445D01*
X143400175Y-111259880D01*
X143422426Y-111150000D01*
X143422426Y-109150000D01*
X143403111Y-109047350D01*
X143342445Y-108953073D01*
X143249880Y-108889825D01*
X143140000Y-108867574D01*
X141140000Y-108867574D01*
X141037350Y-108886889D01*
X140943073Y-108947555D01*
X140879825Y-109040120D01*
X140857574Y-109150000D01*
X140857574Y-110027321D01*
X140779794Y-109636295D01*
X140502975Y-109222007D01*
X140088687Y-108945188D01*
X139624655Y-108852886D01*
X145968375Y-108852886D01*
X146077985Y-109118163D01*
X146280769Y-109321301D01*
X146545855Y-109431374D01*
X146832886Y-109431625D01*
X147098163Y-109322015D01*
X147268475Y-109152000D01*
X147615439Y-109152000D01*
X147617985Y-109158163D01*
X147820769Y-109361301D01*
X148085855Y-109471374D01*
X148372886Y-109471625D01*
X148638163Y-109362015D01*
X148841301Y-109159231D01*
X148951374Y-108894145D01*
X148951625Y-108607114D01*
X148842015Y-108341837D01*
X148639231Y-108138699D01*
X148374145Y-108028626D01*
X148087114Y-108028375D01*
X147821837Y-108137985D01*
X147618699Y-108340769D01*
X147615696Y-108348000D01*
X147321089Y-108348000D01*
X147302015Y-108301837D01*
X147099231Y-108098699D01*
X146834145Y-107988626D01*
X146547114Y-107988375D01*
X146281837Y-108097985D01*
X146078699Y-108300769D01*
X145968626Y-108565855D01*
X145968375Y-108852886D01*
X139624655Y-108852886D01*
X139600000Y-108847982D01*
X139111313Y-108945188D01*
X138697025Y-109222007D01*
X138420206Y-109636295D01*
X138330000Y-110089791D01*
X138239794Y-109636295D01*
X138036175Y-109331558D01*
X138112886Y-109331625D01*
X138378163Y-109222015D01*
X138581301Y-109019231D01*
X138691374Y-108754145D01*
X138691625Y-108467114D01*
X138582015Y-108201837D01*
X138379231Y-107998699D01*
X138114145Y-107888626D01*
X137827114Y-107888375D01*
X137561837Y-107997985D01*
X137358699Y-108200769D01*
X137355696Y-108208000D01*
X136750672Y-108208000D01*
X136682015Y-108041837D01*
X136479231Y-107838699D01*
X136214145Y-107728626D01*
X135927114Y-107728375D01*
X135661837Y-107837985D01*
X135458699Y-108040769D01*
X135348626Y-108305855D01*
X135348375Y-108592886D01*
X131332000Y-108592886D01*
X131332000Y-107831581D01*
X131382886Y-107831625D01*
X131648163Y-107722015D01*
X131851301Y-107519231D01*
X131961374Y-107254145D01*
X131961625Y-106967114D01*
X131852015Y-106701837D01*
X131649231Y-106498699D01*
X131384145Y-106388626D01*
X131097114Y-106388375D01*
X130831837Y-106497985D01*
X130628699Y-106700769D01*
X130518626Y-106965855D01*
X130518375Y-107252886D01*
X130547311Y-107322916D01*
X130528000Y-107420000D01*
X130528000Y-110435439D01*
X130521837Y-110437985D01*
X130318699Y-110640769D01*
X130208626Y-110905855D01*
X130208375Y-111192886D01*
X96837000Y-111192886D01*
X96837000Y-109318000D01*
X108245574Y-109318000D01*
X108245574Y-110842000D01*
X108264889Y-110944650D01*
X108325555Y-111038927D01*
X108418120Y-111102175D01*
X108528000Y-111124426D01*
X110052000Y-111124426D01*
X110154650Y-111105111D01*
X110248927Y-111044445D01*
X110312175Y-110951880D01*
X110334426Y-110842000D01*
X110334426Y-109318000D01*
X110324056Y-109262886D01*
X110938375Y-109262886D01*
X111047985Y-109528163D01*
X111250769Y-109731301D01*
X111515855Y-109841374D01*
X111802886Y-109841625D01*
X112068163Y-109732015D01*
X112271301Y-109529231D01*
X112381374Y-109264145D01*
X112381410Y-109222886D01*
X124898375Y-109222886D01*
X125007985Y-109488163D01*
X125210769Y-109691301D01*
X125475855Y-109801374D01*
X125762886Y-109801625D01*
X126028163Y-109692015D01*
X126231301Y-109489231D01*
X126341374Y-109224145D01*
X126341625Y-108937114D01*
X126338635Y-108929879D01*
X127028378Y-108240136D01*
X127175855Y-108301374D01*
X127462886Y-108301625D01*
X127728163Y-108192015D01*
X127931301Y-107989231D01*
X128041374Y-107724145D01*
X128041625Y-107437114D01*
X127932015Y-107171837D01*
X127729231Y-106968699D01*
X127464145Y-106858626D01*
X127177114Y-106858375D01*
X126911837Y-106967985D01*
X126708699Y-107170769D01*
X126598626Y-107435855D01*
X126598541Y-107532945D01*
X125770303Y-108361183D01*
X125764145Y-108358626D01*
X125477114Y-108358375D01*
X125211837Y-108467985D01*
X125008699Y-108670769D01*
X124898626Y-108935855D01*
X124898375Y-109222886D01*
X112381410Y-109222886D01*
X112381625Y-108977114D01*
X112276302Y-108722212D01*
X113139697Y-107858817D01*
X113145855Y-107861374D01*
X113432886Y-107861625D01*
X113698163Y-107752015D01*
X113901301Y-107549231D01*
X114011374Y-107284145D01*
X114011625Y-106997114D01*
X113902015Y-106731837D01*
X113699231Y-106528699D01*
X113434145Y-106418626D01*
X113147114Y-106418375D01*
X112881837Y-106527985D01*
X112678699Y-106730769D01*
X112568626Y-106995855D01*
X112568375Y-107282886D01*
X112571365Y-107290121D01*
X111425086Y-108436400D01*
X111251837Y-108507985D01*
X111048699Y-108710769D01*
X110938626Y-108975855D01*
X110938375Y-109262886D01*
X110324056Y-109262886D01*
X110315111Y-109215350D01*
X110254445Y-109121073D01*
X110161880Y-109057825D01*
X110052000Y-109035574D01*
X109698105Y-109035574D01*
X109877777Y-108961335D01*
X110170308Y-108669315D01*
X110328819Y-108287577D01*
X110329180Y-107874237D01*
X110171335Y-107492223D01*
X109879315Y-107199692D01*
X109590825Y-107079901D01*
X109877777Y-106961335D01*
X110170308Y-106669315D01*
X110328819Y-106287577D01*
X110329180Y-105874237D01*
X110204665Y-105572886D01*
X114998375Y-105572886D01*
X115107985Y-105838163D01*
X115310769Y-106041301D01*
X115575855Y-106151374D01*
X115862886Y-106151625D01*
X116128163Y-106042015D01*
X116331301Y-105839231D01*
X116392436Y-105692000D01*
X117905439Y-105692000D01*
X117907985Y-105698163D01*
X118110769Y-105901301D01*
X118375855Y-106011374D01*
X118662886Y-106011625D01*
X118767227Y-105968512D01*
X118857985Y-106188163D01*
X119060769Y-106391301D01*
X119325855Y-106501374D01*
X119612886Y-106501625D01*
X119878163Y-106392015D01*
X120081301Y-106189231D01*
X120191374Y-105924145D01*
X120191492Y-105788972D01*
X120365855Y-105861374D01*
X120652886Y-105861625D01*
X120658128Y-105859459D01*
X157040146Y-105859459D01*
X157175504Y-106157455D01*
X157893880Y-106434066D01*
X158663427Y-106414710D01*
X159284496Y-106157455D01*
X159419854Y-105859459D01*
X162120146Y-105859459D01*
X162255504Y-106157455D01*
X162973880Y-106434066D01*
X163743427Y-106414710D01*
X164364496Y-106157455D01*
X164499854Y-105859459D01*
X163310000Y-104669605D01*
X162120146Y-105859459D01*
X159419854Y-105859459D01*
X158230000Y-104669605D01*
X157040146Y-105859459D01*
X120658128Y-105859459D01*
X120918163Y-105752015D01*
X121121301Y-105549231D01*
X121231374Y-105284145D01*
X121231625Y-104997114D01*
X121228635Y-104989879D01*
X121644257Y-104574257D01*
X121700219Y-104490505D01*
X121840769Y-104631301D01*
X122105855Y-104741374D01*
X122392886Y-104741625D01*
X122658163Y-104632015D01*
X122861301Y-104429231D01*
X122971374Y-104164145D01*
X122971382Y-104153880D01*
X156285934Y-104153880D01*
X156305290Y-104923427D01*
X156562545Y-105544496D01*
X156860541Y-105679854D01*
X158050395Y-104490000D01*
X158409605Y-104490000D01*
X159599459Y-105679854D01*
X159897455Y-105544496D01*
X160174066Y-104826120D01*
X160157158Y-104153880D01*
X161365934Y-104153880D01*
X161385290Y-104923427D01*
X161642545Y-105544496D01*
X161940541Y-105679854D01*
X163130395Y-104490000D01*
X161940541Y-103300146D01*
X161642545Y-103435504D01*
X161365934Y-104153880D01*
X160157158Y-104153880D01*
X160154710Y-104056573D01*
X159897455Y-103435504D01*
X159599459Y-103300146D01*
X158409605Y-104490000D01*
X158050395Y-104490000D01*
X156860541Y-103300146D01*
X156562545Y-103435504D01*
X156285934Y-104153880D01*
X122971382Y-104153880D01*
X122971625Y-103877114D01*
X122862015Y-103611837D01*
X122659231Y-103408699D01*
X122652000Y-103405696D01*
X122652000Y-103120541D01*
X157040146Y-103120541D01*
X158230000Y-104310395D01*
X159419854Y-103120541D01*
X159284496Y-102822545D01*
X158566120Y-102545934D01*
X157796573Y-102565290D01*
X157175504Y-102822545D01*
X157040146Y-103120541D01*
X122652000Y-103120541D01*
X122652000Y-103010000D01*
X122621400Y-102856161D01*
X122534257Y-102725743D01*
X122041117Y-102232603D01*
X159342752Y-102232603D01*
X159559543Y-102757275D01*
X159960614Y-103159047D01*
X160484907Y-103376752D01*
X161052603Y-103377248D01*
X161577275Y-103160457D01*
X161617260Y-103120541D01*
X162120146Y-103120541D01*
X163310000Y-104310395D01*
X164499854Y-103120541D01*
X164364496Y-102822545D01*
X163646120Y-102545934D01*
X162876573Y-102565290D01*
X162255504Y-102822545D01*
X162120146Y-103120541D01*
X161617260Y-103120541D01*
X161979047Y-102759386D01*
X162196752Y-102235093D01*
X162197248Y-101667397D01*
X161980457Y-101142725D01*
X161617825Y-100779459D01*
X162120146Y-100779459D01*
X162255504Y-101077455D01*
X162973880Y-101354066D01*
X163743427Y-101334710D01*
X164364496Y-101077455D01*
X164499854Y-100779459D01*
X163310000Y-99589605D01*
X162120146Y-100779459D01*
X161617825Y-100779459D01*
X161579386Y-100740953D01*
X161055093Y-100523248D01*
X160487397Y-100522752D01*
X159962725Y-100739543D01*
X159560953Y-101140614D01*
X159343248Y-101664907D01*
X159342752Y-102232603D01*
X122041117Y-102232603D01*
X121994257Y-102185743D01*
X121863839Y-102098600D01*
X121710000Y-102068000D01*
X121274561Y-102068000D01*
X121272015Y-102061837D01*
X121069231Y-101858699D01*
X120804145Y-101748626D01*
X120517114Y-101748375D01*
X120251837Y-101857985D01*
X120048699Y-102060769D01*
X119938626Y-102325855D01*
X119938375Y-102612886D01*
X120047985Y-102878163D01*
X120250769Y-103081301D01*
X120515855Y-103191374D01*
X120677799Y-103191516D01*
X120638626Y-103285855D01*
X120638375Y-103572886D01*
X120747985Y-103838163D01*
X120950769Y-104041301D01*
X120958000Y-104044304D01*
X120958000Y-104123486D01*
X120660303Y-104421183D01*
X120654145Y-104418626D01*
X120367114Y-104418375D01*
X120101837Y-104527985D01*
X119922000Y-104707509D01*
X119922000Y-100779459D01*
X157040146Y-100779459D01*
X157175504Y-101077455D01*
X157893880Y-101354066D01*
X158663427Y-101334710D01*
X159284496Y-101077455D01*
X159419854Y-100779459D01*
X158230000Y-99589605D01*
X157040146Y-100779459D01*
X119922000Y-100779459D01*
X119922000Y-99996514D01*
X120844634Y-99073880D01*
X156285934Y-99073880D01*
X156305290Y-99843427D01*
X156562545Y-100464496D01*
X156860541Y-100599854D01*
X158050395Y-99410000D01*
X158409605Y-99410000D01*
X159599459Y-100599854D01*
X159897455Y-100464496D01*
X160174066Y-99746120D01*
X160157158Y-99073880D01*
X161365934Y-99073880D01*
X161385290Y-99843427D01*
X161642545Y-100464496D01*
X161940541Y-100599854D01*
X163130395Y-99410000D01*
X161940541Y-98220146D01*
X161642545Y-98355504D01*
X161365934Y-99073880D01*
X160157158Y-99073880D01*
X160154710Y-98976573D01*
X159897455Y-98355504D01*
X159599459Y-98220146D01*
X158409605Y-99410000D01*
X158050395Y-99410000D01*
X156860541Y-98220146D01*
X156562545Y-98355504D01*
X156285934Y-99073880D01*
X120844634Y-99073880D01*
X121154023Y-98764491D01*
X121190769Y-98801301D01*
X121455855Y-98911374D01*
X121742886Y-98911625D01*
X122008163Y-98802015D01*
X122211301Y-98599231D01*
X122321374Y-98334145D01*
X122321625Y-98047114D01*
X122318910Y-98040541D01*
X157040146Y-98040541D01*
X158230000Y-99230395D01*
X159419854Y-98040541D01*
X162120146Y-98040541D01*
X163310000Y-99230395D01*
X164499854Y-98040541D01*
X164364496Y-97742545D01*
X163646120Y-97465934D01*
X162876573Y-97485290D01*
X162255504Y-97742545D01*
X162120146Y-98040541D01*
X159419854Y-98040541D01*
X159284496Y-97742545D01*
X158566120Y-97465934D01*
X157796573Y-97485290D01*
X157175504Y-97742545D01*
X157040146Y-98040541D01*
X122318910Y-98040541D01*
X122212015Y-97781837D01*
X122009231Y-97578699D01*
X121744145Y-97468626D01*
X121457114Y-97468375D01*
X121191837Y-97577985D01*
X120988699Y-97780769D01*
X120960253Y-97849275D01*
X120875743Y-97905743D01*
X119235743Y-99545743D01*
X119148600Y-99676161D01*
X119118000Y-99830000D01*
X119118000Y-104867798D01*
X118929231Y-104678699D01*
X118664145Y-104568626D01*
X118377114Y-104568375D01*
X118111837Y-104677985D01*
X118030438Y-104759242D01*
X118005743Y-104775743D01*
X117989386Y-104800222D01*
X117908699Y-104880769D01*
X117905696Y-104888000D01*
X116198411Y-104888000D01*
X116129231Y-104818699D01*
X115864145Y-104708626D01*
X115577114Y-104708375D01*
X115311837Y-104817985D01*
X115108699Y-105020769D01*
X114998626Y-105285855D01*
X114998375Y-105572886D01*
X110204665Y-105572886D01*
X110171335Y-105492223D01*
X109993338Y-105313914D01*
X110021143Y-105302397D01*
X110090608Y-105060213D01*
X109290000Y-104259605D01*
X108489392Y-105060213D01*
X108558857Y-105302397D01*
X108587922Y-105312766D01*
X108409692Y-105490685D01*
X108251181Y-105872423D01*
X108250820Y-106285763D01*
X108408665Y-106667777D01*
X108700685Y-106960308D01*
X108989175Y-107080099D01*
X108702223Y-107198665D01*
X108409692Y-107490685D01*
X108251181Y-107872423D01*
X108250820Y-108285763D01*
X108408665Y-108667777D01*
X108700685Y-108960308D01*
X108881946Y-109035574D01*
X108528000Y-109035574D01*
X108425350Y-109054889D01*
X108331073Y-109115555D01*
X108267825Y-109208120D01*
X108245574Y-109318000D01*
X96837000Y-109318000D01*
X96837000Y-103872302D01*
X107880856Y-103872302D01*
X107908638Y-104427368D01*
X108067603Y-104811143D01*
X108309787Y-104880608D01*
X109110395Y-104080000D01*
X109469605Y-104080000D01*
X110270213Y-104880608D01*
X110512397Y-104811143D01*
X110699144Y-104287698D01*
X110671362Y-103732632D01*
X110512397Y-103348857D01*
X110270213Y-103279392D01*
X109469605Y-104080000D01*
X109110395Y-104080000D01*
X108309787Y-103279392D01*
X108067603Y-103348857D01*
X107880856Y-103872302D01*
X96837000Y-103872302D01*
X96837000Y-103099787D01*
X108489392Y-103099787D01*
X109290000Y-103900395D01*
X110090608Y-103099787D01*
X110021143Y-102857603D01*
X109497698Y-102670856D01*
X108942632Y-102698638D01*
X108558857Y-102857603D01*
X108489392Y-103099787D01*
X96837000Y-103099787D01*
X96837000Y-100312886D01*
X109388375Y-100312886D01*
X109497985Y-100578163D01*
X109700769Y-100781301D01*
X109965855Y-100891374D01*
X110252886Y-100891625D01*
X110518163Y-100782015D01*
X110721301Y-100579231D01*
X110724304Y-100572000D01*
X111761724Y-100572000D01*
X111817985Y-100708163D01*
X112020769Y-100911301D01*
X112285855Y-101021374D01*
X112572886Y-101021625D01*
X112838163Y-100912015D01*
X113041301Y-100709231D01*
X113151374Y-100444145D01*
X113151497Y-100302886D01*
X115018375Y-100302886D01*
X115127985Y-100568163D01*
X115330769Y-100771301D01*
X115595855Y-100881374D01*
X115882886Y-100881625D01*
X116148163Y-100772015D01*
X116351301Y-100569231D01*
X116354304Y-100562000D01*
X117441711Y-100562000D01*
X117580769Y-100701301D01*
X117845855Y-100811374D01*
X118132886Y-100811625D01*
X118398163Y-100702015D01*
X118601301Y-100499231D01*
X118711374Y-100234145D01*
X118711625Y-99947114D01*
X118602015Y-99681837D01*
X118399231Y-99478699D01*
X118134145Y-99368626D01*
X117847114Y-99368375D01*
X117581837Y-99477985D01*
X117378699Y-99680769D01*
X117346630Y-99758000D01*
X116354561Y-99758000D01*
X116352015Y-99751837D01*
X116149231Y-99548699D01*
X115884145Y-99438626D01*
X115597114Y-99438375D01*
X115331837Y-99547985D01*
X115128699Y-99750769D01*
X115018626Y-100015855D01*
X115018375Y-100302886D01*
X113151497Y-100302886D01*
X113151625Y-100157114D01*
X113042015Y-99891837D01*
X112839231Y-99688699D01*
X112574145Y-99578626D01*
X112287114Y-99578375D01*
X112021837Y-99687985D01*
X111941682Y-99768000D01*
X110724561Y-99768000D01*
X110722015Y-99761837D01*
X110519231Y-99558699D01*
X110254145Y-99448626D01*
X109967114Y-99448375D01*
X109701837Y-99557985D01*
X109498699Y-99760769D01*
X109388626Y-100025855D01*
X109388375Y-100312886D01*
X96837000Y-100312886D01*
X96837000Y-96098000D01*
X108245574Y-96098000D01*
X108245574Y-97622000D01*
X108264889Y-97724650D01*
X108325555Y-97818927D01*
X108418120Y-97882175D01*
X108528000Y-97904426D01*
X110052000Y-97904426D01*
X110154650Y-97885111D01*
X110248927Y-97824445D01*
X110312175Y-97731880D01*
X110334426Y-97622000D01*
X110334426Y-96098000D01*
X110315111Y-95995350D01*
X110254445Y-95901073D01*
X110161880Y-95837825D01*
X110052000Y-95815574D01*
X109698105Y-95815574D01*
X109877777Y-95741335D01*
X110170308Y-95449315D01*
X110328819Y-95067577D01*
X110329041Y-94812886D01*
X118708375Y-94812886D01*
X118817985Y-95078163D01*
X119020769Y-95281301D01*
X119285855Y-95391374D01*
X119572886Y-95391625D01*
X119580121Y-95388635D01*
X119698000Y-95506514D01*
X119698000Y-96105439D01*
X119691837Y-96107985D01*
X119488699Y-96310769D01*
X119378626Y-96575855D01*
X119378375Y-96862886D01*
X119487985Y-97128163D01*
X119690769Y-97331301D01*
X119955855Y-97441374D01*
X120242886Y-97441625D01*
X120508163Y-97332015D01*
X120711301Y-97129231D01*
X120821374Y-96864145D01*
X120821490Y-96731449D01*
X121022886Y-96731625D01*
X121288163Y-96622015D01*
X121491301Y-96419231D01*
X121601374Y-96154145D01*
X121601625Y-95867114D01*
X121492015Y-95601837D01*
X121289231Y-95398699D01*
X121032000Y-95291888D01*
X121032000Y-94556514D01*
X121189697Y-94398817D01*
X121195855Y-94401374D01*
X121482886Y-94401625D01*
X121748163Y-94292015D01*
X121951301Y-94089231D01*
X122012068Y-93942886D01*
X136278375Y-93942886D01*
X136387985Y-94208163D01*
X136473000Y-94293326D01*
X136473000Y-95416615D01*
X136388699Y-95500769D01*
X136278626Y-95765855D01*
X136278375Y-96052886D01*
X136387985Y-96318163D01*
X136590769Y-96521301D01*
X136855855Y-96631374D01*
X137142886Y-96631625D01*
X137408163Y-96522015D01*
X137570113Y-96360347D01*
X137740769Y-96531301D01*
X138005855Y-96641374D01*
X138292886Y-96641625D01*
X138558163Y-96532015D01*
X138680026Y-96410365D01*
X138790769Y-96521301D01*
X139055855Y-96631374D01*
X139342886Y-96631625D01*
X139608163Y-96522015D01*
X139811301Y-96319231D01*
X139921374Y-96054145D01*
X139921625Y-95767114D01*
X139812015Y-95501837D01*
X139609231Y-95298699D01*
X139344145Y-95188626D01*
X139287090Y-95188576D01*
X138762000Y-94663486D01*
X138762000Y-91500000D01*
X158887982Y-91500000D01*
X158985188Y-91988687D01*
X159262007Y-92402975D01*
X159676295Y-92679794D01*
X160129791Y-92770000D01*
X159676295Y-92860206D01*
X159262007Y-93137025D01*
X158985188Y-93551313D01*
X158887982Y-94040000D01*
X158985188Y-94528687D01*
X159262007Y-94942975D01*
X159676295Y-95219794D01*
X160164982Y-95317000D01*
X160215018Y-95317000D01*
X160703705Y-95219794D01*
X161117993Y-94942975D01*
X161394812Y-94528687D01*
X161460000Y-94200965D01*
X161525188Y-94528687D01*
X161802007Y-94942975D01*
X162216295Y-95219794D01*
X162704982Y-95317000D01*
X162755018Y-95317000D01*
X163243705Y-95219794D01*
X163657993Y-94942975D01*
X163934812Y-94528687D01*
X164032018Y-94040000D01*
X163934812Y-93551313D01*
X163657993Y-93137025D01*
X163243705Y-92860206D01*
X162790209Y-92770000D01*
X163243705Y-92679794D01*
X163657993Y-92402975D01*
X163934812Y-91988687D01*
X164032018Y-91500000D01*
X163934812Y-91011313D01*
X163657993Y-90597025D01*
X163243705Y-90320206D01*
X162790209Y-90230000D01*
X163243705Y-90139794D01*
X163657993Y-89862975D01*
X163934812Y-89448687D01*
X164032018Y-88960000D01*
X163934812Y-88471313D01*
X163657993Y-88057025D01*
X163243705Y-87780206D01*
X162755018Y-87683000D01*
X162704982Y-87683000D01*
X162216295Y-87780206D01*
X161802007Y-88057025D01*
X161525188Y-88471313D01*
X161472426Y-88736565D01*
X161472426Y-87960000D01*
X161453111Y-87857350D01*
X161392445Y-87763073D01*
X161299880Y-87699825D01*
X161190000Y-87677574D01*
X159190000Y-87677574D01*
X159087350Y-87696889D01*
X158993073Y-87757555D01*
X158929825Y-87850120D01*
X158907574Y-87960000D01*
X158907574Y-89960000D01*
X158926889Y-90062650D01*
X158987555Y-90156927D01*
X159080120Y-90220175D01*
X159190000Y-90242426D01*
X160067321Y-90242426D01*
X159676295Y-90320206D01*
X159262007Y-90597025D01*
X158985188Y-91011313D01*
X158887982Y-91500000D01*
X138762000Y-91500000D01*
X138762000Y-91356514D01*
X139474257Y-90644257D01*
X139561400Y-90513839D01*
X139578008Y-90430343D01*
X139598163Y-90422015D01*
X139801301Y-90219231D01*
X139911374Y-89954145D01*
X139911625Y-89667114D01*
X139802015Y-89401837D01*
X139599231Y-89198699D01*
X139334145Y-89088626D01*
X139047114Y-89088375D01*
X138781837Y-89197985D01*
X138578699Y-89400769D01*
X138486556Y-89622674D01*
X138284145Y-89538626D01*
X137997114Y-89538375D01*
X137731837Y-89647985D01*
X137528699Y-89850769D01*
X137418626Y-90115855D01*
X137418375Y-90402886D01*
X137441903Y-90459829D01*
X137418000Y-90580000D01*
X137418000Y-93197483D01*
X137409231Y-93188699D01*
X137144145Y-93078626D01*
X136857114Y-93078375D01*
X136591837Y-93187985D01*
X136388699Y-93390769D01*
X136278626Y-93655855D01*
X136278375Y-93942886D01*
X122012068Y-93942886D01*
X122061374Y-93824145D01*
X122061625Y-93537114D01*
X121952015Y-93271837D01*
X121749231Y-93068699D01*
X121484145Y-92958626D01*
X121197114Y-92958375D01*
X120931837Y-93067985D01*
X120728699Y-93270769D01*
X120618626Y-93535855D01*
X120618375Y-93822886D01*
X120621365Y-93830121D01*
X120345743Y-94105743D01*
X120258600Y-94236161D01*
X120228000Y-94390000D01*
X120228000Y-94899486D01*
X120148817Y-94820303D01*
X120151374Y-94814145D01*
X120151625Y-94527114D01*
X120042015Y-94261837D01*
X119839231Y-94058699D01*
X119574145Y-93948626D01*
X119287114Y-93948375D01*
X119021837Y-94057985D01*
X118818699Y-94260769D01*
X118708626Y-94525855D01*
X118708375Y-94812886D01*
X110329041Y-94812886D01*
X110329180Y-94654237D01*
X110171335Y-94272223D01*
X109879315Y-93979692D01*
X109590825Y-93859901D01*
X109877777Y-93741335D01*
X110170308Y-93449315D01*
X110328819Y-93067577D01*
X110329180Y-92654237D01*
X110171335Y-92272223D01*
X109993338Y-92093914D01*
X110021143Y-92082397D01*
X110090608Y-91840213D01*
X109290000Y-91039605D01*
X108489392Y-91840213D01*
X108558857Y-92082397D01*
X108587922Y-92092766D01*
X108409692Y-92270685D01*
X108251181Y-92652423D01*
X108250820Y-93065763D01*
X108408665Y-93447777D01*
X108700685Y-93740308D01*
X108989175Y-93860099D01*
X108702223Y-93978665D01*
X108409692Y-94270685D01*
X108251181Y-94652423D01*
X108250820Y-95065763D01*
X108408665Y-95447777D01*
X108700685Y-95740308D01*
X108881946Y-95815574D01*
X108528000Y-95815574D01*
X108425350Y-95834889D01*
X108331073Y-95895555D01*
X108267825Y-95988120D01*
X108245574Y-96098000D01*
X96837000Y-96098000D01*
X96837000Y-90652302D01*
X107880856Y-90652302D01*
X107908638Y-91207368D01*
X108067603Y-91591143D01*
X108309787Y-91660608D01*
X109110395Y-90860000D01*
X109469605Y-90860000D01*
X110270213Y-91660608D01*
X110512397Y-91591143D01*
X110699144Y-91067698D01*
X110671362Y-90512632D01*
X110512397Y-90128857D01*
X110270213Y-90059392D01*
X109469605Y-90860000D01*
X109110395Y-90860000D01*
X108309787Y-90059392D01*
X108067603Y-90128857D01*
X107880856Y-90652302D01*
X96837000Y-90652302D01*
X96837000Y-89879787D01*
X108489392Y-89879787D01*
X109290000Y-90680395D01*
X110090608Y-89879787D01*
X110021143Y-89637603D01*
X109497698Y-89450856D01*
X108942632Y-89478638D01*
X108558857Y-89637603D01*
X108489392Y-89879787D01*
X96837000Y-89879787D01*
X96837000Y-82868000D01*
X108245574Y-82868000D01*
X108245574Y-84392000D01*
X108264889Y-84494650D01*
X108325555Y-84588927D01*
X108418120Y-84652175D01*
X108528000Y-84674426D01*
X110052000Y-84674426D01*
X110154650Y-84655111D01*
X110248927Y-84594445D01*
X110312175Y-84501880D01*
X110334426Y-84392000D01*
X110334426Y-82868000D01*
X110315111Y-82765350D01*
X110254445Y-82671073D01*
X110161880Y-82607825D01*
X110052000Y-82585574D01*
X109698105Y-82585574D01*
X109877777Y-82511335D01*
X110170308Y-82219315D01*
X110328819Y-81837577D01*
X110329180Y-81424237D01*
X110274907Y-81292886D01*
X132418375Y-81292886D01*
X132527985Y-81558163D01*
X132730769Y-81761301D01*
X132995855Y-81871374D01*
X133282886Y-81871625D01*
X133548163Y-81762015D01*
X133751301Y-81559231D01*
X133861374Y-81294145D01*
X133861625Y-81007114D01*
X133858635Y-80999879D01*
X138979132Y-75879382D01*
X139140769Y-76041301D01*
X139405855Y-76151374D01*
X139692886Y-76151625D01*
X139958163Y-76042015D01*
X140161301Y-75839231D01*
X140271374Y-75574145D01*
X140271625Y-75287114D01*
X140162015Y-75021837D01*
X139959231Y-74818699D01*
X139694145Y-74708626D01*
X139407114Y-74708375D01*
X139141837Y-74817985D01*
X138938699Y-75020769D01*
X138935696Y-75028000D01*
X138860000Y-75028000D01*
X138706161Y-75058600D01*
X138575743Y-75145743D01*
X133290303Y-80431183D01*
X133284145Y-80428626D01*
X132997114Y-80428375D01*
X132731837Y-80537985D01*
X132528699Y-80740769D01*
X132418626Y-81005855D01*
X132418375Y-81292886D01*
X110274907Y-81292886D01*
X110171335Y-81042223D01*
X109879315Y-80749692D01*
X109590825Y-80629901D01*
X109877777Y-80511335D01*
X110170308Y-80219315D01*
X110328819Y-79837577D01*
X110329180Y-79424237D01*
X110171335Y-79042223D01*
X109993338Y-78863914D01*
X110021143Y-78852397D01*
X110090608Y-78610213D01*
X109290000Y-77809605D01*
X108489392Y-78610213D01*
X108558857Y-78852397D01*
X108587922Y-78862766D01*
X108409692Y-79040685D01*
X108251181Y-79422423D01*
X108250820Y-79835763D01*
X108408665Y-80217777D01*
X108700685Y-80510308D01*
X108989175Y-80630099D01*
X108702223Y-80748665D01*
X108409692Y-81040685D01*
X108251181Y-81422423D01*
X108250820Y-81835763D01*
X108408665Y-82217777D01*
X108700685Y-82510308D01*
X108881946Y-82585574D01*
X108528000Y-82585574D01*
X108425350Y-82604889D01*
X108331073Y-82665555D01*
X108267825Y-82758120D01*
X108245574Y-82868000D01*
X96837000Y-82868000D01*
X96837000Y-77422302D01*
X107880856Y-77422302D01*
X107908638Y-77977368D01*
X108067603Y-78361143D01*
X108309787Y-78430608D01*
X109110395Y-77630000D01*
X109469605Y-77630000D01*
X110270213Y-78430608D01*
X110512397Y-78361143D01*
X110699144Y-77837698D01*
X110671362Y-77282632D01*
X110512397Y-76898857D01*
X110270213Y-76829392D01*
X109469605Y-77630000D01*
X109110395Y-77630000D01*
X108309787Y-76829392D01*
X108067603Y-76898857D01*
X107880856Y-77422302D01*
X96837000Y-77422302D01*
X96837000Y-76649787D01*
X108489392Y-76649787D01*
X109290000Y-77450395D01*
X110090608Y-76649787D01*
X110021143Y-76407603D01*
X109497698Y-76220856D01*
X108942632Y-76248638D01*
X108558857Y-76407603D01*
X108489392Y-76649787D01*
X96837000Y-76649787D01*
X96837000Y-75062886D01*
X113228375Y-75062886D01*
X113337985Y-75328163D01*
X113540769Y-75531301D01*
X113805855Y-75641374D01*
X114092886Y-75641625D01*
X114358163Y-75532015D01*
X114561301Y-75329231D01*
X114671374Y-75064145D01*
X114671455Y-74971242D01*
X114695855Y-74981374D01*
X114982886Y-74981625D01*
X115248163Y-74872015D01*
X115451301Y-74669231D01*
X115561374Y-74404145D01*
X115561625Y-74117114D01*
X115452015Y-73851837D01*
X115249231Y-73648699D01*
X115232000Y-73641544D01*
X115232000Y-73486514D01*
X116379697Y-72338817D01*
X116385855Y-72341374D01*
X116672886Y-72341625D01*
X116938163Y-72232015D01*
X117141301Y-72029231D01*
X117251374Y-71764145D01*
X117251523Y-71592886D01*
X137568375Y-71592886D01*
X137677985Y-71858163D01*
X137880769Y-72061301D01*
X138145855Y-72171374D01*
X138368577Y-72171569D01*
X138368375Y-72402886D01*
X138477985Y-72668163D01*
X138680769Y-72871301D01*
X138945855Y-72981374D01*
X139232886Y-72981625D01*
X139498163Y-72872015D01*
X139701301Y-72669231D01*
X139811374Y-72404145D01*
X139811446Y-72322000D01*
X140819121Y-72322000D01*
X140738626Y-72515855D01*
X140738375Y-72802886D01*
X140847985Y-73068163D01*
X141008000Y-73228457D01*
X141008000Y-75635439D01*
X141001837Y-75637985D01*
X140798699Y-75840769D01*
X140688626Y-76105855D01*
X140688375Y-76392886D01*
X140797985Y-76658163D01*
X141000769Y-76861301D01*
X141265855Y-76971374D01*
X141552886Y-76971625D01*
X141818163Y-76862015D01*
X142021301Y-76659231D01*
X142131374Y-76394145D01*
X142131625Y-76107114D01*
X142022015Y-75841837D01*
X141819231Y-75638699D01*
X141812000Y-75635696D01*
X141812000Y-73295221D01*
X141868163Y-73272015D01*
X142071301Y-73069231D01*
X142181374Y-72804145D01*
X142181625Y-72517114D01*
X142101006Y-72322000D01*
X143302512Y-72322000D01*
X143238626Y-72475855D01*
X143238375Y-72762886D01*
X143347985Y-73028163D01*
X143438000Y-73118335D01*
X143438000Y-75851502D01*
X143418699Y-75870769D01*
X143308626Y-76135855D01*
X143308375Y-76422886D01*
X143417985Y-76688163D01*
X143620769Y-76891301D01*
X143885855Y-77001374D01*
X144172886Y-77001625D01*
X144438163Y-76892015D01*
X144641301Y-76689231D01*
X144751374Y-76424145D01*
X144751625Y-76137114D01*
X144642015Y-75871837D01*
X144439231Y-75668699D01*
X144242000Y-75586802D01*
X144242000Y-73284144D01*
X144368163Y-73232015D01*
X144571301Y-73029231D01*
X144632068Y-72882886D01*
X145838375Y-72882886D01*
X145918000Y-73075594D01*
X145918000Y-75900000D01*
X145932686Y-75973830D01*
X145898626Y-76055855D01*
X145898375Y-76342886D01*
X146007985Y-76608163D01*
X146210769Y-76811301D01*
X146475855Y-76921374D01*
X146762886Y-76921625D01*
X147028163Y-76812015D01*
X147231301Y-76609231D01*
X147341374Y-76344145D01*
X147341625Y-76057114D01*
X147232015Y-75791837D01*
X147029231Y-75588699D01*
X146764145Y-75478626D01*
X146722000Y-75478589D01*
X146722000Y-73453727D01*
X146968163Y-73352015D01*
X147171301Y-73149231D01*
X147281374Y-72884145D01*
X147281383Y-72872886D01*
X148268375Y-72872886D01*
X148377985Y-73138163D01*
X148418000Y-73178248D01*
X148418000Y-75990000D01*
X148448600Y-76143839D01*
X148470665Y-76176862D01*
X148458626Y-76205855D01*
X148458375Y-76492886D01*
X148567985Y-76758163D01*
X148770769Y-76961301D01*
X149035855Y-77071374D01*
X149322886Y-77071625D01*
X149588163Y-76962015D01*
X149791301Y-76759231D01*
X149901374Y-76494145D01*
X149901625Y-76207114D01*
X149792015Y-75941837D01*
X149589231Y-75738699D01*
X149324145Y-75628626D01*
X149222000Y-75628537D01*
X149222000Y-73414804D01*
X149398163Y-73342015D01*
X149601301Y-73139231D01*
X149711374Y-72874145D01*
X149711392Y-72852886D01*
X150778375Y-72852886D01*
X150887985Y-73118163D01*
X150888000Y-73118178D01*
X150888000Y-75850000D01*
X150911853Y-75969918D01*
X150888626Y-76025855D01*
X150888375Y-76312886D01*
X150997985Y-76578163D01*
X151200769Y-76781301D01*
X151465855Y-76891374D01*
X151752886Y-76891625D01*
X152018163Y-76782015D01*
X152221301Y-76579231D01*
X152331374Y-76314145D01*
X152331625Y-76027114D01*
X152222015Y-75761837D01*
X152019231Y-75558699D01*
X151754145Y-75448626D01*
X151692000Y-75448572D01*
X151692000Y-73411332D01*
X151908163Y-73322015D01*
X152111301Y-73119231D01*
X152221374Y-72854145D01*
X152221625Y-72567114D01*
X152112015Y-72301837D01*
X151909231Y-72098699D01*
X151644145Y-71988626D01*
X151357114Y-71988375D01*
X151091837Y-72097985D01*
X150888699Y-72300769D01*
X150778626Y-72565855D01*
X150778375Y-72852886D01*
X149711392Y-72852886D01*
X149711625Y-72587114D01*
X149602015Y-72321837D01*
X149399231Y-72118699D01*
X149134145Y-72008626D01*
X148847114Y-72008375D01*
X148581837Y-72117985D01*
X148378699Y-72320769D01*
X148268626Y-72585855D01*
X148268375Y-72872886D01*
X147281383Y-72872886D01*
X147281625Y-72597114D01*
X147172015Y-72331837D01*
X146969231Y-72128699D01*
X146704145Y-72018626D01*
X146417114Y-72018375D01*
X146151837Y-72127985D01*
X145948699Y-72330769D01*
X145838626Y-72595855D01*
X145838375Y-72882886D01*
X144632068Y-72882886D01*
X144681374Y-72764145D01*
X144681625Y-72477114D01*
X144609270Y-72302000D01*
X144640000Y-72302000D01*
X144793839Y-72271400D01*
X144924257Y-72184257D01*
X145799697Y-71308817D01*
X145805855Y-71311374D01*
X146092886Y-71311625D01*
X146358163Y-71202015D01*
X146561301Y-70999231D01*
X146671374Y-70734145D01*
X146671625Y-70447114D01*
X146562015Y-70181837D01*
X146359231Y-69978699D01*
X146094145Y-69868626D01*
X145807114Y-69868375D01*
X145541837Y-69977985D01*
X145338699Y-70180769D01*
X145228626Y-70445855D01*
X145228375Y-70732886D01*
X145231365Y-70740121D01*
X144473486Y-71498000D01*
X144030879Y-71498000D01*
X144111374Y-71304145D01*
X144111625Y-71017114D01*
X144002015Y-70751837D01*
X143799231Y-70548699D01*
X143534145Y-70438626D01*
X143247114Y-70438375D01*
X142981837Y-70547985D01*
X142778699Y-70750769D01*
X142668626Y-71015855D01*
X142668598Y-71048000D01*
X138904561Y-71048000D01*
X138902015Y-71041837D01*
X138699231Y-70838699D01*
X138434145Y-70728626D01*
X138147114Y-70728375D01*
X137881837Y-70837985D01*
X137678699Y-71040769D01*
X137568626Y-71305855D01*
X137568375Y-71592886D01*
X117251523Y-71592886D01*
X117251625Y-71477114D01*
X117142015Y-71211837D01*
X116939231Y-71008699D01*
X116674145Y-70898626D01*
X116387114Y-70898375D01*
X116121837Y-71007985D01*
X115918699Y-71210769D01*
X115808626Y-71475855D01*
X115808375Y-71762886D01*
X115811365Y-71770121D01*
X114545743Y-73035743D01*
X114458600Y-73166161D01*
X114428000Y-73320000D01*
X114428000Y-73651815D01*
X114352000Y-73727683D01*
X114352000Y-72547200D01*
X114558163Y-72462015D01*
X114761301Y-72259231D01*
X114871374Y-71994145D01*
X114871625Y-71707114D01*
X114762015Y-71441837D01*
X114559231Y-71238699D01*
X114294145Y-71128626D01*
X114007114Y-71128375D01*
X113741837Y-71237985D01*
X113538699Y-71440769D01*
X113428626Y-71705855D01*
X113428375Y-71992886D01*
X113537985Y-72258163D01*
X113548000Y-72268195D01*
X113548000Y-74305439D01*
X113541837Y-74307985D01*
X113338699Y-74510769D01*
X113228626Y-74775855D01*
X113228375Y-75062886D01*
X96837000Y-75062886D01*
X96837000Y-66338527D01*
X110752600Y-66338527D01*
X110388725Y-66488877D01*
M02*
