G04 #@! TF.FileFunction,Legend,Top*
%FSLAX46Y46*%
G04 Gerber Fmt 4.6, Leading zero omitted, Abs format (unit mm)*
G04 Created by KiCad (PCBNEW 4.0.7-e2-6376~58~ubuntu16.04.1) date Fri Jul  6 10:04:11 2018*
%MOMM*%
%LPD*%
G01*
G04 APERTURE LIST*
%ADD10C,0.150000*%
%ADD11C,0.200000*%
%ADD12C,0.115000*%
%ADD13C,0.120000*%
%ADD14C,0.050000*%
%ADD15C,0.010000*%
G04 APERTURE END LIST*
D10*
X158930000Y-109250000D02*
X158890000Y-109250000D01*
X158930000Y-108810000D02*
X158930000Y-109250000D01*
X153610000Y-108810000D02*
X158930000Y-108810000D01*
X153610000Y-109020000D02*
X153610000Y-108810000D01*
X153610000Y-111310000D02*
X153610000Y-109020000D01*
X147190000Y-91390000D02*
X148310000Y-91390000D01*
X147190000Y-81390000D02*
X147190000Y-91390000D01*
X148320000Y-81390000D02*
X147190000Y-81390000D01*
D11*
X153264762Y-111500476D02*
X153312381Y-111357619D01*
X153312381Y-111119523D01*
X153264762Y-111024285D01*
X153217143Y-110976666D01*
X153121905Y-110929047D01*
X153026667Y-110929047D01*
X152931429Y-110976666D01*
X152883810Y-111024285D01*
X152836190Y-111119523D01*
X152788571Y-111310000D01*
X152740952Y-111405238D01*
X152693333Y-111452857D01*
X152598095Y-111500476D01*
X152502857Y-111500476D01*
X152407619Y-111452857D01*
X152360000Y-111405238D01*
X152312381Y-111310000D01*
X152312381Y-111071904D01*
X152360000Y-110929047D01*
X153217143Y-109929047D02*
X153264762Y-109976666D01*
X153312381Y-110119523D01*
X153312381Y-110214761D01*
X153264762Y-110357619D01*
X153169524Y-110452857D01*
X153074286Y-110500476D01*
X152883810Y-110548095D01*
X152740952Y-110548095D01*
X152550476Y-110500476D01*
X152455238Y-110452857D01*
X152360000Y-110357619D01*
X152312381Y-110214761D01*
X152312381Y-110119523D01*
X152360000Y-109976666D01*
X152407619Y-109929047D01*
X153312381Y-109024285D02*
X153312381Y-109500476D01*
X152312381Y-109500476D01*
X154974762Y-111874286D02*
X155022381Y-111731429D01*
X155022381Y-111493333D01*
X154974762Y-111398095D01*
X154927143Y-111350476D01*
X154831905Y-111302857D01*
X154736667Y-111302857D01*
X154641429Y-111350476D01*
X154593810Y-111398095D01*
X154546190Y-111493333D01*
X154498571Y-111683810D01*
X154450952Y-111779048D01*
X154403333Y-111826667D01*
X154308095Y-111874286D01*
X154212857Y-111874286D01*
X154117619Y-111826667D01*
X154070000Y-111779048D01*
X154022381Y-111683810D01*
X154022381Y-111445714D01*
X154070000Y-111302857D01*
X155022381Y-110874286D02*
X154022381Y-110874286D01*
X154022381Y-110636191D01*
X154070000Y-110493333D01*
X154165238Y-110398095D01*
X154260476Y-110350476D01*
X154450952Y-110302857D01*
X154593810Y-110302857D01*
X154784286Y-110350476D01*
X154879524Y-110398095D01*
X154974762Y-110493333D01*
X155022381Y-110636191D01*
X155022381Y-110874286D01*
X154736667Y-109921905D02*
X154736667Y-109445714D01*
X155022381Y-110017143D02*
X154022381Y-109683810D01*
X155022381Y-109350476D01*
D10*
X133380000Y-75030000D02*
X133380000Y-75010000D01*
X132950000Y-75030000D02*
X133380000Y-75030000D01*
X133380000Y-75030000D02*
X133380000Y-75060000D01*
X132950000Y-81280000D02*
X132950000Y-75030000D01*
X136170000Y-75020000D02*
X136170000Y-75060000D01*
X136610000Y-75020000D02*
X136170000Y-75020000D01*
X136610000Y-81280000D02*
X136610000Y-75020000D01*
D11*
X117329048Y-114642381D02*
X117329048Y-113642381D01*
X117567143Y-113642381D01*
X117710001Y-113690000D01*
X117805239Y-113785238D01*
X117852858Y-113880476D01*
X117900477Y-114070952D01*
X117900477Y-114213810D01*
X117852858Y-114404286D01*
X117805239Y-114499524D01*
X117710001Y-114594762D01*
X117567143Y-114642381D01*
X117329048Y-114642381D01*
X118900477Y-114547143D02*
X118852858Y-114594762D01*
X118710001Y-114642381D01*
X118614763Y-114642381D01*
X118471905Y-114594762D01*
X118376667Y-114499524D01*
X118329048Y-114404286D01*
X118281429Y-114213810D01*
X118281429Y-114070952D01*
X118329048Y-113880476D01*
X118376667Y-113785238D01*
X118471905Y-113690000D01*
X118614763Y-113642381D01*
X118710001Y-113642381D01*
X118852858Y-113690000D01*
X118900477Y-113737619D01*
X119329048Y-114261429D02*
X120090953Y-114261429D01*
X120567143Y-114642381D02*
X120567143Y-113642381D01*
X120805238Y-113642381D01*
X120948096Y-113690000D01*
X121043334Y-113785238D01*
X121090953Y-113880476D01*
X121138572Y-114070952D01*
X121138572Y-114213810D01*
X121090953Y-114404286D01*
X121043334Y-114499524D01*
X120948096Y-114594762D01*
X120805238Y-114642381D01*
X120567143Y-114642381D01*
X121567143Y-114642381D02*
X121567143Y-113642381D01*
X121805238Y-113642381D01*
X121948096Y-113690000D01*
X122043334Y-113785238D01*
X122090953Y-113880476D01*
X122138572Y-114070952D01*
X122138572Y-114213810D01*
X122090953Y-114404286D01*
X122043334Y-114499524D01*
X121948096Y-114594762D01*
X121805238Y-114642381D01*
X121567143Y-114642381D01*
D12*
X151672381Y-98883095D02*
X151519048Y-98664048D01*
X151409524Y-98883095D02*
X151409524Y-98423095D01*
X151584762Y-98423095D01*
X151628571Y-98445000D01*
X151650476Y-98466905D01*
X151672381Y-98510714D01*
X151672381Y-98576429D01*
X151650476Y-98620238D01*
X151628571Y-98642143D01*
X151584762Y-98664048D01*
X151409524Y-98664048D01*
X152044762Y-98861190D02*
X152000952Y-98883095D01*
X151913333Y-98883095D01*
X151869524Y-98861190D01*
X151847619Y-98817381D01*
X151847619Y-98642143D01*
X151869524Y-98598333D01*
X151913333Y-98576429D01*
X152000952Y-98576429D01*
X152044762Y-98598333D01*
X152066667Y-98642143D01*
X152066667Y-98685952D01*
X151847619Y-98729762D01*
X152263810Y-98883095D02*
X152263810Y-98576429D01*
X152263810Y-98620238D02*
X152285715Y-98598333D01*
X152329524Y-98576429D01*
X152395238Y-98576429D01*
X152439048Y-98598333D01*
X152460953Y-98642143D01*
X152460953Y-98883095D01*
X152460953Y-98642143D02*
X152482857Y-98598333D01*
X152526667Y-98576429D01*
X152592381Y-98576429D01*
X152636191Y-98598333D01*
X152658096Y-98642143D01*
X152658096Y-98883095D01*
X152942857Y-98883095D02*
X152899048Y-98861190D01*
X152877143Y-98839286D01*
X152855238Y-98795476D01*
X152855238Y-98664048D01*
X152877143Y-98620238D01*
X152899048Y-98598333D01*
X152942857Y-98576429D01*
X153008571Y-98576429D01*
X153052381Y-98598333D01*
X153074286Y-98620238D01*
X153096190Y-98664048D01*
X153096190Y-98795476D01*
X153074286Y-98839286D01*
X153052381Y-98861190D01*
X153008571Y-98883095D01*
X152942857Y-98883095D01*
X153249523Y-98576429D02*
X153359047Y-98883095D01*
X153468571Y-98576429D01*
X153819047Y-98861190D02*
X153775237Y-98883095D01*
X153687618Y-98883095D01*
X153643809Y-98861190D01*
X153621904Y-98817381D01*
X153621904Y-98642143D01*
X153643809Y-98598333D01*
X153687618Y-98576429D01*
X153775237Y-98576429D01*
X153819047Y-98598333D01*
X153840952Y-98642143D01*
X153840952Y-98685952D01*
X153621904Y-98729762D01*
X154651428Y-98883095D02*
X154498095Y-98664048D01*
X154388571Y-98883095D02*
X154388571Y-98423095D01*
X154563809Y-98423095D01*
X154607618Y-98445000D01*
X154629523Y-98466905D01*
X154651428Y-98510714D01*
X154651428Y-98576429D01*
X154629523Y-98620238D01*
X154607618Y-98642143D01*
X154563809Y-98664048D01*
X154388571Y-98664048D01*
X154870476Y-98883095D02*
X154958095Y-98883095D01*
X155001904Y-98861190D01*
X155023809Y-98839286D01*
X155067618Y-98773571D01*
X155089523Y-98685952D01*
X155089523Y-98510714D01*
X155067618Y-98466905D01*
X155045714Y-98445000D01*
X155001904Y-98423095D01*
X154914285Y-98423095D01*
X154870476Y-98445000D01*
X154848571Y-98466905D01*
X154826666Y-98510714D01*
X154826666Y-98620238D01*
X154848571Y-98664048D01*
X154870476Y-98685952D01*
X154914285Y-98707857D01*
X155001904Y-98707857D01*
X155045714Y-98685952D01*
X155067618Y-98664048D01*
X155089523Y-98620238D01*
X155637142Y-98883095D02*
X155637142Y-98576429D01*
X155637142Y-98423095D02*
X155615237Y-98445000D01*
X155637142Y-98466905D01*
X155659047Y-98445000D01*
X155637142Y-98423095D01*
X155637142Y-98466905D01*
X155790476Y-98576429D02*
X155965714Y-98576429D01*
X155856190Y-98883095D02*
X155856190Y-98488810D01*
X155878095Y-98445000D01*
X155921904Y-98423095D01*
X155965714Y-98423095D01*
X151606667Y-99381429D02*
X151606667Y-99688095D01*
X151409524Y-99381429D02*
X151409524Y-99622381D01*
X151431429Y-99666190D01*
X151475238Y-99688095D01*
X151540952Y-99688095D01*
X151584762Y-99666190D01*
X151606667Y-99644286D01*
X151825714Y-99644286D02*
X151847619Y-99666190D01*
X151825714Y-99688095D01*
X151803809Y-99666190D01*
X151825714Y-99644286D01*
X151825714Y-99688095D01*
X152198095Y-99447143D02*
X152044762Y-99447143D01*
X152044762Y-99688095D02*
X152044762Y-99228095D01*
X152263809Y-99228095D01*
X152658095Y-99688095D02*
X152439048Y-99688095D01*
X152439048Y-99228095D01*
X153359048Y-99666190D02*
X153315238Y-99688095D01*
X153227619Y-99688095D01*
X153183810Y-99666190D01*
X153161905Y-99644286D01*
X153140000Y-99600476D01*
X153140000Y-99469048D01*
X153161905Y-99425238D01*
X153183810Y-99403333D01*
X153227619Y-99381429D01*
X153315238Y-99381429D01*
X153359048Y-99403333D01*
X153621905Y-99688095D02*
X153578096Y-99666190D01*
X153556191Y-99644286D01*
X153534286Y-99600476D01*
X153534286Y-99469048D01*
X153556191Y-99425238D01*
X153578096Y-99403333D01*
X153621905Y-99381429D01*
X153687619Y-99381429D01*
X153731429Y-99403333D01*
X153753334Y-99425238D01*
X153775238Y-99469048D01*
X153775238Y-99600476D01*
X153753334Y-99644286D01*
X153731429Y-99666190D01*
X153687619Y-99688095D01*
X153621905Y-99688095D01*
X153972381Y-99381429D02*
X153972381Y-99688095D01*
X153972381Y-99425238D02*
X153994286Y-99403333D01*
X154038095Y-99381429D01*
X154103809Y-99381429D01*
X154147619Y-99403333D01*
X154169524Y-99447143D01*
X154169524Y-99688095D01*
X154388571Y-99381429D02*
X154388571Y-99688095D01*
X154388571Y-99425238D02*
X154410476Y-99403333D01*
X154454285Y-99381429D01*
X154519999Y-99381429D01*
X154563809Y-99403333D01*
X154585714Y-99447143D01*
X154585714Y-99688095D01*
X154979999Y-99666190D02*
X154936189Y-99688095D01*
X154848570Y-99688095D01*
X154804761Y-99666190D01*
X154782856Y-99622381D01*
X154782856Y-99447143D01*
X154804761Y-99403333D01*
X154848570Y-99381429D01*
X154936189Y-99381429D01*
X154979999Y-99403333D01*
X155001904Y-99447143D01*
X155001904Y-99490952D01*
X154782856Y-99534762D01*
X155396190Y-99666190D02*
X155352380Y-99688095D01*
X155264761Y-99688095D01*
X155220952Y-99666190D01*
X155199047Y-99644286D01*
X155177142Y-99600476D01*
X155177142Y-99469048D01*
X155199047Y-99425238D01*
X155220952Y-99403333D01*
X155264761Y-99381429D01*
X155352380Y-99381429D01*
X155396190Y-99403333D01*
X155527619Y-99381429D02*
X155702857Y-99381429D01*
X155593333Y-99228095D02*
X155593333Y-99622381D01*
X155615238Y-99666190D01*
X155659047Y-99688095D01*
X155702857Y-99688095D01*
X155921904Y-99688095D02*
X155878095Y-99666190D01*
X155856190Y-99644286D01*
X155834285Y-99600476D01*
X155834285Y-99469048D01*
X155856190Y-99425238D01*
X155878095Y-99403333D01*
X155921904Y-99381429D01*
X155987618Y-99381429D01*
X156031428Y-99403333D01*
X156053333Y-99425238D01*
X156075237Y-99469048D01*
X156075237Y-99600476D01*
X156053333Y-99644286D01*
X156031428Y-99666190D01*
X155987618Y-99688095D01*
X155921904Y-99688095D01*
X156272380Y-99688095D02*
X156272380Y-99381429D01*
X156272380Y-99469048D02*
X156294285Y-99425238D01*
X156316189Y-99403333D01*
X156359999Y-99381429D01*
X156403808Y-99381429D01*
X151409524Y-100493095D02*
X151409524Y-100186429D01*
X151409524Y-100033095D02*
X151387619Y-100055000D01*
X151409524Y-100076905D01*
X151431429Y-100055000D01*
X151409524Y-100033095D01*
X151409524Y-100076905D01*
X151606667Y-100471190D02*
X151650477Y-100493095D01*
X151738096Y-100493095D01*
X151781905Y-100471190D01*
X151803810Y-100427381D01*
X151803810Y-100405476D01*
X151781905Y-100361667D01*
X151738096Y-100339762D01*
X151672381Y-100339762D01*
X151628572Y-100317857D01*
X151606667Y-100274048D01*
X151606667Y-100252143D01*
X151628572Y-100208333D01*
X151672381Y-100186429D01*
X151738096Y-100186429D01*
X151781905Y-100208333D01*
X152351429Y-100186429D02*
X152351429Y-100646429D01*
X152351429Y-100208333D02*
X152395238Y-100186429D01*
X152482857Y-100186429D01*
X152526667Y-100208333D01*
X152548572Y-100230238D01*
X152570476Y-100274048D01*
X152570476Y-100405476D01*
X152548572Y-100449286D01*
X152526667Y-100471190D01*
X152482857Y-100493095D01*
X152395238Y-100493095D01*
X152351429Y-100471190D01*
X152833333Y-100493095D02*
X152789524Y-100471190D01*
X152767619Y-100427381D01*
X152767619Y-100033095D01*
X153205714Y-100493095D02*
X153205714Y-100252143D01*
X153183809Y-100208333D01*
X153139999Y-100186429D01*
X153052380Y-100186429D01*
X153008571Y-100208333D01*
X153205714Y-100471190D02*
X153161904Y-100493095D01*
X153052380Y-100493095D01*
X153008571Y-100471190D01*
X152986666Y-100427381D01*
X152986666Y-100383571D01*
X153008571Y-100339762D01*
X153052380Y-100317857D01*
X153161904Y-100317857D01*
X153205714Y-100295952D01*
X153621904Y-100471190D02*
X153578094Y-100493095D01*
X153490475Y-100493095D01*
X153446666Y-100471190D01*
X153424761Y-100449286D01*
X153402856Y-100405476D01*
X153402856Y-100274048D01*
X153424761Y-100230238D01*
X153446666Y-100208333D01*
X153490475Y-100186429D01*
X153578094Y-100186429D01*
X153621904Y-100208333D01*
X153994285Y-100471190D02*
X153950475Y-100493095D01*
X153862856Y-100493095D01*
X153819047Y-100471190D01*
X153797142Y-100427381D01*
X153797142Y-100252143D01*
X153819047Y-100208333D01*
X153862856Y-100186429D01*
X153950475Y-100186429D01*
X153994285Y-100208333D01*
X154016190Y-100252143D01*
X154016190Y-100295952D01*
X153797142Y-100339762D01*
X154410476Y-100493095D02*
X154410476Y-100033095D01*
X154410476Y-100471190D02*
X154366666Y-100493095D01*
X154279047Y-100493095D01*
X154235238Y-100471190D01*
X154213333Y-100449286D01*
X154191428Y-100405476D01*
X154191428Y-100274048D01*
X154213333Y-100230238D01*
X154235238Y-100208333D01*
X154279047Y-100186429D01*
X154366666Y-100186429D01*
X154410476Y-100208333D01*
D11*
X138192381Y-74780238D02*
X137716190Y-75113572D01*
X138192381Y-75351667D02*
X137192381Y-75351667D01*
X137192381Y-74970714D01*
X137240000Y-74875476D01*
X137287619Y-74827857D01*
X137382857Y-74780238D01*
X137525714Y-74780238D01*
X137620952Y-74827857D01*
X137668571Y-74875476D01*
X137716190Y-74970714D01*
X137716190Y-75351667D01*
X138192381Y-74446905D02*
X137525714Y-73923095D01*
X137525714Y-74446905D02*
X138192381Y-73923095D01*
X138192381Y-73542143D02*
X137192381Y-73542143D01*
X137192381Y-73304048D01*
X137240000Y-73161190D01*
X137335238Y-73065952D01*
X137430476Y-73018333D01*
X137620952Y-72970714D01*
X137763810Y-72970714D01*
X137954286Y-73018333D01*
X138049524Y-73065952D01*
X138144762Y-73161190D01*
X138192381Y-73304048D01*
X138192381Y-73542143D01*
X137192381Y-78670476D02*
X137192381Y-78099047D01*
X138192381Y-78384762D02*
X137192381Y-78384762D01*
X138192381Y-77860952D02*
X137525714Y-77337142D01*
X137525714Y-77860952D02*
X138192381Y-77337142D01*
X138192381Y-76956190D02*
X137192381Y-76956190D01*
X137192381Y-76718095D01*
X137240000Y-76575237D01*
X137335238Y-76479999D01*
X137430476Y-76432380D01*
X137620952Y-76384761D01*
X137763810Y-76384761D01*
X137954286Y-76432380D01*
X138049524Y-76479999D01*
X138144762Y-76575237D01*
X138192381Y-76718095D01*
X138192381Y-76956190D01*
X139081905Y-80732381D02*
X139081905Y-79732381D01*
X139320000Y-79732381D01*
X139462858Y-79780000D01*
X139558096Y-79875238D01*
X139605715Y-79970476D01*
X139653334Y-80160952D01*
X139653334Y-80303810D01*
X139605715Y-80494286D01*
X139558096Y-80589524D01*
X139462858Y-80684762D01*
X139320000Y-80732381D01*
X139081905Y-80732381D01*
X140129524Y-80732381D02*
X140320000Y-80732381D01*
X140415239Y-80684762D01*
X140462858Y-80637143D01*
X140558096Y-80494286D01*
X140605715Y-80303810D01*
X140605715Y-79922857D01*
X140558096Y-79827619D01*
X140510477Y-79780000D01*
X140415239Y-79732381D01*
X140224762Y-79732381D01*
X140129524Y-79780000D01*
X140081905Y-79827619D01*
X140034286Y-79922857D01*
X140034286Y-80160952D01*
X140081905Y-80256190D01*
X140129524Y-80303810D01*
X140224762Y-80351429D01*
X140415239Y-80351429D01*
X140510477Y-80303810D01*
X140558096Y-80256190D01*
X140605715Y-80160952D01*
X141591905Y-80732381D02*
X141591905Y-79732381D01*
X141830000Y-79732381D01*
X141972858Y-79780000D01*
X142068096Y-79875238D01*
X142115715Y-79970476D01*
X142163334Y-80160952D01*
X142163334Y-80303810D01*
X142115715Y-80494286D01*
X142068096Y-80589524D01*
X141972858Y-80684762D01*
X141830000Y-80732381D01*
X141591905Y-80732381D01*
X142734762Y-80160952D02*
X142639524Y-80113333D01*
X142591905Y-80065714D01*
X142544286Y-79970476D01*
X142544286Y-79922857D01*
X142591905Y-79827619D01*
X142639524Y-79780000D01*
X142734762Y-79732381D01*
X142925239Y-79732381D01*
X143020477Y-79780000D01*
X143068096Y-79827619D01*
X143115715Y-79922857D01*
X143115715Y-79970476D01*
X143068096Y-80065714D01*
X143020477Y-80113333D01*
X142925239Y-80160952D01*
X142734762Y-80160952D01*
X142639524Y-80208571D01*
X142591905Y-80256190D01*
X142544286Y-80351429D01*
X142544286Y-80541905D01*
X142591905Y-80637143D01*
X142639524Y-80684762D01*
X142734762Y-80732381D01*
X142925239Y-80732381D01*
X143020477Y-80684762D01*
X143068096Y-80637143D01*
X143115715Y-80541905D01*
X143115715Y-80351429D01*
X143068096Y-80256190D01*
X143020477Y-80208571D01*
X142925239Y-80160952D01*
X144091905Y-80732381D02*
X144091905Y-79732381D01*
X144330000Y-79732381D01*
X144472858Y-79780000D01*
X144568096Y-79875238D01*
X144615715Y-79970476D01*
X144663334Y-80160952D01*
X144663334Y-80303810D01*
X144615715Y-80494286D01*
X144568096Y-80589524D01*
X144472858Y-80684762D01*
X144330000Y-80732381D01*
X144091905Y-80732381D01*
X145520477Y-80065714D02*
X145520477Y-80732381D01*
X145282381Y-79684762D02*
X145044286Y-80399048D01*
X145663334Y-80399048D01*
X146591905Y-80732381D02*
X146591905Y-79732381D01*
X146830000Y-79732381D01*
X146972858Y-79780000D01*
X147068096Y-79875238D01*
X147115715Y-79970476D01*
X147163334Y-80160952D01*
X147163334Y-80303810D01*
X147115715Y-80494286D01*
X147068096Y-80589524D01*
X146972858Y-80684762D01*
X146830000Y-80732381D01*
X146591905Y-80732381D01*
X147496667Y-79732381D02*
X148115715Y-79732381D01*
X147782381Y-80113333D01*
X147925239Y-80113333D01*
X148020477Y-80160952D01*
X148068096Y-80208571D01*
X148115715Y-80303810D01*
X148115715Y-80541905D01*
X148068096Y-80637143D01*
X148020477Y-80684762D01*
X147925239Y-80732381D01*
X147639524Y-80732381D01*
X147544286Y-80684762D01*
X147496667Y-80637143D01*
X149091905Y-80732381D02*
X149091905Y-79732381D01*
X149330000Y-79732381D01*
X149472858Y-79780000D01*
X149568096Y-79875238D01*
X149615715Y-79970476D01*
X149663334Y-80160952D01*
X149663334Y-80303810D01*
X149615715Y-80494286D01*
X149568096Y-80589524D01*
X149472858Y-80684762D01*
X149330000Y-80732381D01*
X149091905Y-80732381D01*
X150044286Y-79827619D02*
X150091905Y-79780000D01*
X150187143Y-79732381D01*
X150425239Y-79732381D01*
X150520477Y-79780000D01*
X150568096Y-79827619D01*
X150615715Y-79922857D01*
X150615715Y-80018095D01*
X150568096Y-80160952D01*
X149996667Y-80732381D01*
X150615715Y-80732381D01*
X151591905Y-80732381D02*
X151591905Y-79732381D01*
X151830000Y-79732381D01*
X151972858Y-79780000D01*
X152068096Y-79875238D01*
X152115715Y-79970476D01*
X152163334Y-80160952D01*
X152163334Y-80303810D01*
X152115715Y-80494286D01*
X152068096Y-80589524D01*
X151972858Y-80684762D01*
X151830000Y-80732381D01*
X151591905Y-80732381D01*
X153115715Y-80732381D02*
X152544286Y-80732381D01*
X152830000Y-80732381D02*
X152830000Y-79732381D01*
X152734762Y-79875238D01*
X152639524Y-79970476D01*
X152544286Y-80018095D01*
D10*
X156190000Y-79130000D02*
X156190000Y-75830000D01*
X138690000Y-79130000D02*
X156190000Y-79130000D01*
X138690000Y-75820000D02*
X138690000Y-79130000D01*
X156190000Y-75830000D02*
X156190000Y-72540000D01*
X138690000Y-75830000D02*
X156190000Y-75830000D01*
X138690000Y-72540000D02*
X138690000Y-75830000D01*
X156190000Y-72540000D02*
X138690000Y-72540000D01*
D11*
X154096905Y-80732381D02*
X154096905Y-79732381D01*
X154335000Y-79732381D01*
X154477858Y-79780000D01*
X154573096Y-79875238D01*
X154620715Y-79970476D01*
X154668334Y-80160952D01*
X154668334Y-80303810D01*
X154620715Y-80494286D01*
X154573096Y-80589524D01*
X154477858Y-80684762D01*
X154335000Y-80732381D01*
X154096905Y-80732381D01*
X155287381Y-79732381D02*
X155382620Y-79732381D01*
X155477858Y-79780000D01*
X155525477Y-79827619D01*
X155573096Y-79922857D01*
X155620715Y-80113333D01*
X155620715Y-80351429D01*
X155573096Y-80541905D01*
X155525477Y-80637143D01*
X155477858Y-80684762D01*
X155382620Y-80732381D01*
X155287381Y-80732381D01*
X155192143Y-80684762D01*
X155144524Y-80637143D01*
X155096905Y-80541905D01*
X155049286Y-80351429D01*
X155049286Y-80113333D01*
X155096905Y-79922857D01*
X155144524Y-79827619D01*
X155192143Y-79780000D01*
X155287381Y-79732381D01*
X136551905Y-108224762D02*
X136694762Y-108272381D01*
X136932858Y-108272381D01*
X137028096Y-108224762D01*
X137075715Y-108177143D01*
X137123334Y-108081905D01*
X137123334Y-107986667D01*
X137075715Y-107891429D01*
X137028096Y-107843810D01*
X136932858Y-107796190D01*
X136742381Y-107748571D01*
X136647143Y-107700952D01*
X136599524Y-107653333D01*
X136551905Y-107558095D01*
X136551905Y-107462857D01*
X136599524Y-107367619D01*
X136647143Y-107320000D01*
X136742381Y-107272381D01*
X136980477Y-107272381D01*
X137123334Y-107320000D01*
X137551905Y-108272381D02*
X137551905Y-107272381D01*
X138123334Y-108272381D01*
X138123334Y-107272381D01*
X138551905Y-108224762D02*
X138694762Y-108272381D01*
X138932858Y-108272381D01*
X139028096Y-108224762D01*
X139075715Y-108177143D01*
X139123334Y-108081905D01*
X139123334Y-107986667D01*
X139075715Y-107891429D01*
X139028096Y-107843810D01*
X138932858Y-107796190D01*
X138742381Y-107748571D01*
X138647143Y-107700952D01*
X138599524Y-107653333D01*
X138551905Y-107558095D01*
X138551905Y-107462857D01*
X138599524Y-107367619D01*
X138647143Y-107320000D01*
X138742381Y-107272381D01*
X138980477Y-107272381D01*
X139123334Y-107320000D01*
X139313810Y-108367619D02*
X140075715Y-108367619D01*
X140313810Y-108272381D02*
X140313810Y-107272381D01*
X140694763Y-107272381D01*
X140790001Y-107320000D01*
X140837620Y-107367619D01*
X140885239Y-107462857D01*
X140885239Y-107605714D01*
X140837620Y-107700952D01*
X140790001Y-107748571D01*
X140694763Y-107796190D01*
X140313810Y-107796190D01*
X141218572Y-107272381D02*
X141456667Y-108272381D01*
X141647144Y-107558095D01*
X141837620Y-108272381D01*
X142075715Y-107272381D01*
X143028096Y-108272381D02*
X142694762Y-107796190D01*
X142456667Y-108272381D02*
X142456667Y-107272381D01*
X142837620Y-107272381D01*
X142932858Y-107320000D01*
X142980477Y-107367619D01*
X143028096Y-107462857D01*
X143028096Y-107605714D01*
X142980477Y-107700952D01*
X142932858Y-107748571D01*
X142837620Y-107796190D01*
X142456667Y-107796190D01*
X124599524Y-111112381D02*
X124266190Y-110636190D01*
X124028095Y-111112381D02*
X124028095Y-110112381D01*
X124409048Y-110112381D01*
X124504286Y-110160000D01*
X124551905Y-110207619D01*
X124599524Y-110302857D01*
X124599524Y-110445714D01*
X124551905Y-110540952D01*
X124504286Y-110588571D01*
X124409048Y-110636190D01*
X124028095Y-110636190D01*
X125599524Y-111017143D02*
X125551905Y-111064762D01*
X125409048Y-111112381D01*
X125313810Y-111112381D01*
X125170952Y-111064762D01*
X125075714Y-110969524D01*
X125028095Y-110874286D01*
X124980476Y-110683810D01*
X124980476Y-110540952D01*
X125028095Y-110350476D01*
X125075714Y-110255238D01*
X125170952Y-110160000D01*
X125313810Y-110112381D01*
X125409048Y-110112381D01*
X125551905Y-110160000D01*
X125599524Y-110207619D01*
X115892381Y-108056190D02*
X114892381Y-108056190D01*
X114987619Y-107627619D02*
X114940000Y-107580000D01*
X114892381Y-107484762D01*
X114892381Y-107246666D01*
X114940000Y-107151428D01*
X114987619Y-107103809D01*
X115082857Y-107056190D01*
X115178095Y-107056190D01*
X115320952Y-107103809D01*
X115892381Y-107675238D01*
X115892381Y-107056190D01*
X115797143Y-106056190D02*
X115844762Y-106103809D01*
X115892381Y-106246666D01*
X115892381Y-106341904D01*
X115844762Y-106484762D01*
X115749524Y-106580000D01*
X115654286Y-106627619D01*
X115463810Y-106675238D01*
X115320952Y-106675238D01*
X115130476Y-106627619D01*
X115035238Y-106580000D01*
X114940000Y-106484762D01*
X114892381Y-106341904D01*
X114892381Y-106246666D01*
X114940000Y-106103809D01*
X114987619Y-106056190D01*
X115496667Y-96479048D02*
X115496667Y-96002857D01*
X115782381Y-96574286D02*
X114782381Y-96240953D01*
X115782381Y-95907619D01*
X115782381Y-95574286D02*
X114782381Y-95574286D01*
X115782381Y-95002857D01*
X114782381Y-95002857D01*
X115496667Y-94574286D02*
X115496667Y-94098095D01*
X115782381Y-94669524D02*
X114782381Y-94336191D01*
X115782381Y-94002857D01*
X115782381Y-93193333D02*
X115782381Y-93669524D01*
X114782381Y-93669524D01*
X114782381Y-92669524D02*
X114782381Y-92479047D01*
X114830000Y-92383809D01*
X114925238Y-92288571D01*
X115115714Y-92240952D01*
X115449048Y-92240952D01*
X115639524Y-92288571D01*
X115734762Y-92383809D01*
X115782381Y-92479047D01*
X115782381Y-92669524D01*
X115734762Y-92764762D01*
X115639524Y-92860000D01*
X115449048Y-92907619D01*
X115115714Y-92907619D01*
X114925238Y-92860000D01*
X114830000Y-92764762D01*
X114782381Y-92669524D01*
X114830000Y-91288571D02*
X114782381Y-91383809D01*
X114782381Y-91526666D01*
X114830000Y-91669524D01*
X114925238Y-91764762D01*
X115020476Y-91812381D01*
X115210952Y-91860000D01*
X115353810Y-91860000D01*
X115544286Y-91812381D01*
X115639524Y-91764762D01*
X115734762Y-91669524D01*
X115782381Y-91526666D01*
X115782381Y-91431428D01*
X115734762Y-91288571D01*
X115687143Y-91240952D01*
X115353810Y-91240952D01*
X115353810Y-91431428D01*
D10*
X114110000Y-87250000D02*
X116650000Y-87250000D01*
X114110000Y-100470000D02*
X116650000Y-100470000D01*
X116650000Y-113690000D02*
X114100000Y-113690000D01*
X116650000Y-113680000D02*
X116650000Y-113690000D01*
X116650000Y-74030000D02*
X116650000Y-113680000D01*
X114110000Y-74030000D02*
X116650000Y-74030000D01*
D11*
X115892381Y-83082381D02*
X114892381Y-83082381D01*
X114892381Y-82844286D01*
X114940000Y-82701428D01*
X115035238Y-82606190D01*
X115130476Y-82558571D01*
X115320952Y-82510952D01*
X115463810Y-82510952D01*
X115654286Y-82558571D01*
X115749524Y-82606190D01*
X115844762Y-82701428D01*
X115892381Y-82844286D01*
X115892381Y-83082381D01*
X115892381Y-82082381D02*
X114892381Y-82082381D01*
X114940000Y-81082381D02*
X114892381Y-81177619D01*
X114892381Y-81320476D01*
X114940000Y-81463334D01*
X115035238Y-81558572D01*
X115130476Y-81606191D01*
X115320952Y-81653810D01*
X115463810Y-81653810D01*
X115654286Y-81606191D01*
X115749524Y-81558572D01*
X115844762Y-81463334D01*
X115892381Y-81320476D01*
X115892381Y-81225238D01*
X115844762Y-81082381D01*
X115797143Y-81034762D01*
X115463810Y-81034762D01*
X115463810Y-81225238D01*
X115892381Y-80606191D02*
X114892381Y-80606191D01*
X114892381Y-80272858D02*
X114892381Y-79701429D01*
X115892381Y-79987144D02*
X114892381Y-79987144D01*
X115606667Y-79415715D02*
X115606667Y-78939524D01*
X115892381Y-79510953D02*
X114892381Y-79177620D01*
X115892381Y-78844286D01*
X115892381Y-78034762D02*
X115892381Y-78510953D01*
X114892381Y-78510953D01*
D10*
X99700000Y-100470000D02*
X114110000Y-100470000D01*
X99700000Y-87250000D02*
X114110000Y-87250000D01*
X99700000Y-113690000D02*
X99700000Y-74030000D01*
X114110000Y-113690000D02*
X99700000Y-113690000D01*
X114110000Y-74030000D02*
X114110000Y-113690000D01*
X99700000Y-74030000D02*
X114110000Y-74030000D01*
D11*
X110760476Y-108484762D02*
X110903333Y-108532381D01*
X111141429Y-108532381D01*
X111236667Y-108484762D01*
X111284286Y-108437143D01*
X111331905Y-108341905D01*
X111331905Y-108246667D01*
X111284286Y-108151429D01*
X111236667Y-108103810D01*
X111141429Y-108056190D01*
X110950952Y-108008571D01*
X110855714Y-107960952D01*
X110808095Y-107913333D01*
X110760476Y-107818095D01*
X110760476Y-107722857D01*
X110808095Y-107627619D01*
X110855714Y-107580000D01*
X110950952Y-107532381D01*
X111189048Y-107532381D01*
X111331905Y-107580000D01*
X111760476Y-108532381D02*
X111760476Y-107532381D01*
X111998571Y-107532381D01*
X112141429Y-107580000D01*
X112236667Y-107675238D01*
X112284286Y-107770476D01*
X112331905Y-107960952D01*
X112331905Y-108103810D01*
X112284286Y-108294286D01*
X112236667Y-108389524D01*
X112141429Y-108484762D01*
X111998571Y-108532381D01*
X111760476Y-108532381D01*
X112712857Y-108246667D02*
X113189048Y-108246667D01*
X112617619Y-108532381D02*
X112950952Y-107532381D01*
X113284286Y-108532381D01*
X110760476Y-110484762D02*
X110903333Y-110532381D01*
X111141429Y-110532381D01*
X111236667Y-110484762D01*
X111284286Y-110437143D01*
X111331905Y-110341905D01*
X111331905Y-110246667D01*
X111284286Y-110151429D01*
X111236667Y-110103810D01*
X111141429Y-110056190D01*
X110950952Y-110008571D01*
X110855714Y-109960952D01*
X110808095Y-109913333D01*
X110760476Y-109818095D01*
X110760476Y-109722857D01*
X110808095Y-109627619D01*
X110855714Y-109580000D01*
X110950952Y-109532381D01*
X111189048Y-109532381D01*
X111331905Y-109580000D01*
X112331905Y-110437143D02*
X112284286Y-110484762D01*
X112141429Y-110532381D01*
X112046191Y-110532381D01*
X111903333Y-110484762D01*
X111808095Y-110389524D01*
X111760476Y-110294286D01*
X111712857Y-110103810D01*
X111712857Y-109960952D01*
X111760476Y-109770476D01*
X111808095Y-109675238D01*
X111903333Y-109580000D01*
X112046191Y-109532381D01*
X112141429Y-109532381D01*
X112284286Y-109580000D01*
X112331905Y-109627619D01*
X113236667Y-110532381D02*
X112760476Y-110532381D01*
X112760476Y-109532381D01*
X110808095Y-106532381D02*
X110808095Y-105532381D01*
X111189048Y-105532381D01*
X111284286Y-105580000D01*
X111331905Y-105627619D01*
X111379524Y-105722857D01*
X111379524Y-105865714D01*
X111331905Y-105960952D01*
X111284286Y-106008571D01*
X111189048Y-106056190D01*
X110808095Y-106056190D01*
X111712857Y-105532381D02*
X111950952Y-106532381D01*
X112141429Y-105818095D01*
X112331905Y-106532381D01*
X112570000Y-105532381D01*
X113522381Y-106532381D02*
X113189047Y-106056190D01*
X112950952Y-106532381D02*
X112950952Y-105532381D01*
X113331905Y-105532381D01*
X113427143Y-105580000D01*
X113474762Y-105627619D01*
X113522381Y-105722857D01*
X113522381Y-105865714D01*
X113474762Y-105960952D01*
X113427143Y-106008571D01*
X113331905Y-106056190D01*
X112950952Y-106056190D01*
X111331905Y-103580000D02*
X111236667Y-103532381D01*
X111093810Y-103532381D01*
X110950952Y-103580000D01*
X110855714Y-103675238D01*
X110808095Y-103770476D01*
X110760476Y-103960952D01*
X110760476Y-104103810D01*
X110808095Y-104294286D01*
X110855714Y-104389524D01*
X110950952Y-104484762D01*
X111093810Y-104532381D01*
X111189048Y-104532381D01*
X111331905Y-104484762D01*
X111379524Y-104437143D01*
X111379524Y-104103810D01*
X111189048Y-104103810D01*
X111808095Y-104532381D02*
X111808095Y-103532381D01*
X112379524Y-104532381D01*
X112379524Y-103532381D01*
X112855714Y-104532381D02*
X112855714Y-103532381D01*
X113093809Y-103532381D01*
X113236667Y-103580000D01*
X113331905Y-103675238D01*
X113379524Y-103770476D01*
X113427143Y-103960952D01*
X113427143Y-104103810D01*
X113379524Y-104294286D01*
X113331905Y-104389524D01*
X113236667Y-104484762D01*
X113093809Y-104532381D01*
X112855714Y-104532381D01*
X111341905Y-90360000D02*
X111246667Y-90312381D01*
X111103810Y-90312381D01*
X110960952Y-90360000D01*
X110865714Y-90455238D01*
X110818095Y-90550476D01*
X110770476Y-90740952D01*
X110770476Y-90883810D01*
X110818095Y-91074286D01*
X110865714Y-91169524D01*
X110960952Y-91264762D01*
X111103810Y-91312381D01*
X111199048Y-91312381D01*
X111341905Y-91264762D01*
X111389524Y-91217143D01*
X111389524Y-90883810D01*
X111199048Y-90883810D01*
X111818095Y-91312381D02*
X111818095Y-90312381D01*
X112389524Y-91312381D01*
X112389524Y-90312381D01*
X112865714Y-91312381D02*
X112865714Y-90312381D01*
X113103809Y-90312381D01*
X113246667Y-90360000D01*
X113341905Y-90455238D01*
X113389524Y-90550476D01*
X113437143Y-90740952D01*
X113437143Y-90883810D01*
X113389524Y-91074286D01*
X113341905Y-91169524D01*
X113246667Y-91264762D01*
X113103809Y-91312381D01*
X112865714Y-91312381D01*
X110818095Y-93312381D02*
X110818095Y-92312381D01*
X111199048Y-92312381D01*
X111294286Y-92360000D01*
X111341905Y-92407619D01*
X111389524Y-92502857D01*
X111389524Y-92645714D01*
X111341905Y-92740952D01*
X111294286Y-92788571D01*
X111199048Y-92836190D01*
X110818095Y-92836190D01*
X111722857Y-92312381D02*
X111960952Y-93312381D01*
X112151429Y-92598095D01*
X112341905Y-93312381D01*
X112580000Y-92312381D01*
X113532381Y-93312381D02*
X113199047Y-92836190D01*
X112960952Y-93312381D02*
X112960952Y-92312381D01*
X113341905Y-92312381D01*
X113437143Y-92360000D01*
X113484762Y-92407619D01*
X113532381Y-92502857D01*
X113532381Y-92645714D01*
X113484762Y-92740952D01*
X113437143Y-92788571D01*
X113341905Y-92836190D01*
X112960952Y-92836190D01*
X110770476Y-97026667D02*
X111246667Y-97026667D01*
X110675238Y-97312381D02*
X111008571Y-96312381D01*
X111341905Y-97312381D01*
X111865714Y-96312381D02*
X111960953Y-96312381D01*
X112056191Y-96360000D01*
X112103810Y-96407619D01*
X112151429Y-96502857D01*
X112199048Y-96693333D01*
X112199048Y-96931429D01*
X112151429Y-97121905D01*
X112103810Y-97217143D01*
X112056191Y-97264762D01*
X111960953Y-97312381D01*
X111865714Y-97312381D01*
X111770476Y-97264762D01*
X111722857Y-97217143D01*
X111675238Y-97121905D01*
X111627619Y-96931429D01*
X111627619Y-96693333D01*
X111675238Y-96502857D01*
X111722857Y-96407619D01*
X111770476Y-96360000D01*
X111865714Y-96312381D01*
X110770476Y-95026667D02*
X111246667Y-95026667D01*
X110675238Y-95312381D02*
X111008571Y-94312381D01*
X111341905Y-95312381D01*
X112199048Y-95312381D02*
X111627619Y-95312381D01*
X111913333Y-95312381D02*
X111913333Y-94312381D01*
X111818095Y-94455238D01*
X111722857Y-94550476D01*
X111627619Y-94598095D01*
X110818095Y-82082381D02*
X110818095Y-81082381D01*
X111056190Y-81082381D01*
X111199048Y-81130000D01*
X111294286Y-81225238D01*
X111341905Y-81320476D01*
X111389524Y-81510952D01*
X111389524Y-81653810D01*
X111341905Y-81844286D01*
X111294286Y-81939524D01*
X111199048Y-82034762D01*
X111056190Y-82082381D01*
X110818095Y-82082381D01*
X112341905Y-82082381D02*
X111770476Y-82082381D01*
X112056190Y-82082381D02*
X112056190Y-81082381D01*
X111960952Y-81225238D01*
X111865714Y-81320476D01*
X111770476Y-81368095D01*
X110818095Y-84082381D02*
X110818095Y-83082381D01*
X111056190Y-83082381D01*
X111199048Y-83130000D01*
X111294286Y-83225238D01*
X111341905Y-83320476D01*
X111389524Y-83510952D01*
X111389524Y-83653810D01*
X111341905Y-83844286D01*
X111294286Y-83939524D01*
X111199048Y-84034762D01*
X111056190Y-84082381D01*
X110818095Y-84082381D01*
X112008571Y-83082381D02*
X112103810Y-83082381D01*
X112199048Y-83130000D01*
X112246667Y-83177619D01*
X112294286Y-83272857D01*
X112341905Y-83463333D01*
X112341905Y-83701429D01*
X112294286Y-83891905D01*
X112246667Y-83987143D01*
X112199048Y-84034762D01*
X112103810Y-84082381D01*
X112008571Y-84082381D01*
X111913333Y-84034762D01*
X111865714Y-83987143D01*
X111818095Y-83891905D01*
X111770476Y-83701429D01*
X111770476Y-83463333D01*
X111818095Y-83272857D01*
X111865714Y-83177619D01*
X111913333Y-83130000D01*
X112008571Y-83082381D01*
X110818095Y-80082381D02*
X110818095Y-79082381D01*
X111199048Y-79082381D01*
X111294286Y-79130000D01*
X111341905Y-79177619D01*
X111389524Y-79272857D01*
X111389524Y-79415714D01*
X111341905Y-79510952D01*
X111294286Y-79558571D01*
X111199048Y-79606190D01*
X110818095Y-79606190D01*
X111722857Y-79082381D02*
X111960952Y-80082381D01*
X112151429Y-79368095D01*
X112341905Y-80082381D01*
X112580000Y-79082381D01*
X113532381Y-80082381D02*
X113199047Y-79606190D01*
X112960952Y-80082381D02*
X112960952Y-79082381D01*
X113341905Y-79082381D01*
X113437143Y-79130000D01*
X113484762Y-79177619D01*
X113532381Y-79272857D01*
X113532381Y-79415714D01*
X113484762Y-79510952D01*
X113437143Y-79558571D01*
X113341905Y-79606190D01*
X112960952Y-79606190D01*
X111341905Y-77130000D02*
X111246667Y-77082381D01*
X111103810Y-77082381D01*
X110960952Y-77130000D01*
X110865714Y-77225238D01*
X110818095Y-77320476D01*
X110770476Y-77510952D01*
X110770476Y-77653810D01*
X110818095Y-77844286D01*
X110865714Y-77939524D01*
X110960952Y-78034762D01*
X111103810Y-78082381D01*
X111199048Y-78082381D01*
X111341905Y-78034762D01*
X111389524Y-77987143D01*
X111389524Y-77653810D01*
X111199048Y-77653810D01*
X111818095Y-78082381D02*
X111818095Y-77082381D01*
X112389524Y-78082381D01*
X112389524Y-77082381D01*
X112865714Y-78082381D02*
X112865714Y-77082381D01*
X113103809Y-77082381D01*
X113246667Y-77130000D01*
X113341905Y-77225238D01*
X113389524Y-77320476D01*
X113437143Y-77510952D01*
X113437143Y-77653810D01*
X113389524Y-77844286D01*
X113341905Y-77939524D01*
X113246667Y-78034762D01*
X113103809Y-78082381D01*
X112865714Y-78082381D01*
D10*
X159970000Y-72430000D02*
X160190000Y-72210000D01*
X159970000Y-72430000D02*
X159760000Y-72220000D01*
X159970000Y-72440000D02*
X159970000Y-71740000D01*
X157420000Y-71790000D02*
X157420000Y-72490000D01*
X157420000Y-71800000D02*
X157630000Y-72010000D01*
X157420000Y-71800000D02*
X157200000Y-72020000D01*
D11*
X131310000Y-109941429D02*
X132071905Y-109941429D01*
X131690953Y-110322381D02*
X131690953Y-109560476D01*
X132452857Y-109322381D02*
X133071905Y-109322381D01*
X132738571Y-109703333D01*
X132881429Y-109703333D01*
X132976667Y-109750952D01*
X133024286Y-109798571D01*
X133071905Y-109893810D01*
X133071905Y-110131905D01*
X133024286Y-110227143D01*
X132976667Y-110274762D01*
X132881429Y-110322381D01*
X132595714Y-110322381D01*
X132500476Y-110274762D01*
X132452857Y-110227143D01*
X133500476Y-110227143D02*
X133548095Y-110274762D01*
X133500476Y-110322381D01*
X133452857Y-110274762D01*
X133500476Y-110227143D01*
X133500476Y-110322381D01*
X133881428Y-109322381D02*
X134500476Y-109322381D01*
X134167142Y-109703333D01*
X134310000Y-109703333D01*
X134405238Y-109750952D01*
X134452857Y-109798571D01*
X134500476Y-109893810D01*
X134500476Y-110131905D01*
X134452857Y-110227143D01*
X134405238Y-110274762D01*
X134310000Y-110322381D01*
X134024285Y-110322381D01*
X133929047Y-110274762D01*
X133881428Y-110227143D01*
X134786190Y-109322381D02*
X135119523Y-110322381D01*
X135452857Y-109322381D01*
X144074286Y-110441429D02*
X144836191Y-110441429D01*
X144455239Y-110822381D02*
X144455239Y-110060476D01*
X145788572Y-109822381D02*
X145312381Y-109822381D01*
X145264762Y-110298571D01*
X145312381Y-110250952D01*
X145407619Y-110203333D01*
X145645715Y-110203333D01*
X145740953Y-110250952D01*
X145788572Y-110298571D01*
X145836191Y-110393810D01*
X145836191Y-110631905D01*
X145788572Y-110727143D01*
X145740953Y-110774762D01*
X145645715Y-110822381D01*
X145407619Y-110822381D01*
X145312381Y-110774762D01*
X145264762Y-110727143D01*
X146121905Y-109822381D02*
X146455238Y-110822381D01*
X146788572Y-109822381D01*
X160993810Y-87372381D02*
X160993810Y-86372381D01*
X162041429Y-87277143D02*
X161993810Y-87324762D01*
X161850953Y-87372381D01*
X161755715Y-87372381D01*
X161612857Y-87324762D01*
X161517619Y-87229524D01*
X161470000Y-87134286D01*
X161422381Y-86943810D01*
X161422381Y-86800952D01*
X161470000Y-86610476D01*
X161517619Y-86515238D01*
X161612857Y-86420000D01*
X161755715Y-86372381D01*
X161850953Y-86372381D01*
X161993810Y-86420000D01*
X162041429Y-86467619D01*
X162422381Y-87324762D02*
X162565238Y-87372381D01*
X162803334Y-87372381D01*
X162898572Y-87324762D01*
X162946191Y-87277143D01*
X162993810Y-87181905D01*
X162993810Y-87086667D01*
X162946191Y-86991429D01*
X162898572Y-86943810D01*
X162803334Y-86896190D01*
X162612857Y-86848571D01*
X162517619Y-86800952D01*
X162470000Y-86753333D01*
X162422381Y-86658095D01*
X162422381Y-86562857D01*
X162470000Y-86467619D01*
X162517619Y-86420000D01*
X162612857Y-86372381D01*
X162850953Y-86372381D01*
X162993810Y-86420000D01*
X163422381Y-87372381D02*
X163422381Y-86372381D01*
X163803334Y-86372381D01*
X163898572Y-86420000D01*
X163946191Y-86467619D01*
X163993810Y-86562857D01*
X163993810Y-86705714D01*
X163946191Y-86800952D01*
X163898572Y-86848571D01*
X163803334Y-86896190D01*
X163422381Y-86896190D01*
D10*
X158320000Y-91390000D02*
X148320000Y-91390000D01*
X158320000Y-81390000D02*
X158320000Y-91390000D01*
X148320000Y-81390000D02*
X158320000Y-81390000D01*
D11*
X158742381Y-85179524D02*
X158742381Y-84608095D01*
X159742381Y-84893810D02*
X158742381Y-84893810D01*
X159218571Y-84274762D02*
X159218571Y-83941428D01*
X159742381Y-83798571D02*
X159742381Y-84274762D01*
X158742381Y-84274762D01*
X158742381Y-83798571D01*
X159742381Y-83370000D02*
X158742381Y-83370000D01*
X159456667Y-83036666D01*
X158742381Y-82703333D01*
X159742381Y-82703333D01*
X159742381Y-82227143D02*
X158742381Y-82227143D01*
X158742381Y-81846190D01*
X158790000Y-81750952D01*
X158837619Y-81703333D01*
X158932857Y-81655714D01*
X159075714Y-81655714D01*
X159170952Y-81703333D01*
X159218571Y-81750952D01*
X159266190Y-81846190D01*
X159266190Y-82227143D01*
X153937143Y-106266667D02*
X154413334Y-106266667D01*
X153841905Y-106552381D02*
X154175238Y-105552381D01*
X154508572Y-106552381D01*
X154841905Y-106552381D02*
X154841905Y-105552381D01*
X155413334Y-106552381D01*
X155413334Y-105552381D01*
X155746667Y-105552381D02*
X156318096Y-105552381D01*
X156032381Y-106552381D02*
X156032381Y-105552381D01*
X97340952Y-68852381D02*
X97340952Y-67852381D01*
X97579047Y-67852381D01*
X97721905Y-67900000D01*
X97817143Y-67995238D01*
X97864762Y-68090476D01*
X97912381Y-68280952D01*
X97912381Y-68423810D01*
X97864762Y-68614286D01*
X97817143Y-68709524D01*
X97721905Y-68804762D01*
X97579047Y-68852381D01*
X97340952Y-68852381D01*
X98721905Y-68804762D02*
X98626667Y-68852381D01*
X98436190Y-68852381D01*
X98340952Y-68804762D01*
X98293333Y-68709524D01*
X98293333Y-68328571D01*
X98340952Y-68233333D01*
X98436190Y-68185714D01*
X98626667Y-68185714D01*
X98721905Y-68233333D01*
X98769524Y-68328571D01*
X98769524Y-68423810D01*
X98293333Y-68519048D01*
X99150476Y-68804762D02*
X99245714Y-68852381D01*
X99436190Y-68852381D01*
X99531429Y-68804762D01*
X99579048Y-68709524D01*
X99579048Y-68661905D01*
X99531429Y-68566667D01*
X99436190Y-68519048D01*
X99293333Y-68519048D01*
X99198095Y-68471429D01*
X99150476Y-68376190D01*
X99150476Y-68328571D01*
X99198095Y-68233333D01*
X99293333Y-68185714D01*
X99436190Y-68185714D01*
X99531429Y-68233333D01*
X100007619Y-68852381D02*
X100007619Y-68185714D01*
X100007619Y-67852381D02*
X99960000Y-67900000D01*
X100007619Y-67947619D01*
X100055238Y-67900000D01*
X100007619Y-67852381D01*
X100007619Y-67947619D01*
X100912381Y-68185714D02*
X100912381Y-68995238D01*
X100864762Y-69090476D01*
X100817143Y-69138095D01*
X100721904Y-69185714D01*
X100579047Y-69185714D01*
X100483809Y-69138095D01*
X100912381Y-68804762D02*
X100817143Y-68852381D01*
X100626666Y-68852381D01*
X100531428Y-68804762D01*
X100483809Y-68757143D01*
X100436190Y-68661905D01*
X100436190Y-68376190D01*
X100483809Y-68280952D01*
X100531428Y-68233333D01*
X100626666Y-68185714D01*
X100817143Y-68185714D01*
X100912381Y-68233333D01*
X101388571Y-68185714D02*
X101388571Y-68852381D01*
X101388571Y-68280952D02*
X101436190Y-68233333D01*
X101531428Y-68185714D01*
X101674286Y-68185714D01*
X101769524Y-68233333D01*
X101817143Y-68328571D01*
X101817143Y-68852381D01*
X102674286Y-68804762D02*
X102579048Y-68852381D01*
X102388571Y-68852381D01*
X102293333Y-68804762D01*
X102245714Y-68709524D01*
X102245714Y-68328571D01*
X102293333Y-68233333D01*
X102388571Y-68185714D01*
X102579048Y-68185714D01*
X102674286Y-68233333D01*
X102721905Y-68328571D01*
X102721905Y-68423810D01*
X102245714Y-68519048D01*
X103579048Y-68852381D02*
X103579048Y-67852381D01*
X103579048Y-68804762D02*
X103483810Y-68852381D01*
X103293333Y-68852381D01*
X103198095Y-68804762D01*
X103150476Y-68757143D01*
X103102857Y-68661905D01*
X103102857Y-68376190D01*
X103150476Y-68280952D01*
X103198095Y-68233333D01*
X103293333Y-68185714D01*
X103483810Y-68185714D01*
X103579048Y-68233333D01*
X100007619Y-70552381D02*
X100007619Y-69885714D01*
X100007619Y-69552381D02*
X99960000Y-69600000D01*
X100007619Y-69647619D01*
X100055238Y-69600000D01*
X100007619Y-69552381D01*
X100007619Y-69647619D01*
X100483809Y-69885714D02*
X100483809Y-70552381D01*
X100483809Y-69980952D02*
X100531428Y-69933333D01*
X100626666Y-69885714D01*
X100769524Y-69885714D01*
X100864762Y-69933333D01*
X100912381Y-70028571D01*
X100912381Y-70552381D01*
X99507620Y-71728571D02*
X99650477Y-71776190D01*
X99698096Y-71823810D01*
X99745715Y-71919048D01*
X99745715Y-72061905D01*
X99698096Y-72157143D01*
X99650477Y-72204762D01*
X99555239Y-72252381D01*
X99174286Y-72252381D01*
X99174286Y-71252381D01*
X99507620Y-71252381D01*
X99602858Y-71300000D01*
X99650477Y-71347619D01*
X99698096Y-71442857D01*
X99698096Y-71538095D01*
X99650477Y-71633333D01*
X99602858Y-71680952D01*
X99507620Y-71728571D01*
X99174286Y-71728571D01*
X100745715Y-72157143D02*
X100698096Y-72204762D01*
X100555239Y-72252381D01*
X100460001Y-72252381D01*
X100317143Y-72204762D01*
X100221905Y-72109524D01*
X100174286Y-72014286D01*
X100126667Y-71823810D01*
X100126667Y-71680952D01*
X100174286Y-71490476D01*
X100221905Y-71395238D01*
X100317143Y-71300000D01*
X100460001Y-71252381D01*
X100555239Y-71252381D01*
X100698096Y-71300000D01*
X100745715Y-71347619D01*
X101174286Y-72252381D02*
X101174286Y-71252381D01*
X101745715Y-72252381D01*
X101745715Y-71252381D01*
X160472381Y-73896666D02*
X159996190Y-74230000D01*
X160472381Y-74468095D02*
X159472381Y-74468095D01*
X159472381Y-74087142D01*
X159520000Y-73991904D01*
X159567619Y-73944285D01*
X159662857Y-73896666D01*
X159805714Y-73896666D01*
X159900952Y-73944285D01*
X159948571Y-73991904D01*
X159996190Y-74087142D01*
X159996190Y-74468095D01*
X159472381Y-73563333D02*
X160472381Y-72896666D01*
X159472381Y-72896666D02*
X160472381Y-73563333D01*
X156922381Y-74491905D02*
X156922381Y-73920476D01*
X157922381Y-74206191D02*
X156922381Y-74206191D01*
X156922381Y-73682381D02*
X157922381Y-73015714D01*
X156922381Y-73015714D02*
X157922381Y-73682381D01*
X98580000Y-117072381D02*
X98246666Y-116596190D01*
X98008571Y-117072381D02*
X98008571Y-116072381D01*
X98389524Y-116072381D01*
X98484762Y-116120000D01*
X98532381Y-116167619D01*
X98580000Y-116262857D01*
X98580000Y-116405714D01*
X98532381Y-116500952D01*
X98484762Y-116548571D01*
X98389524Y-116596190D01*
X98008571Y-116596190D01*
X99389524Y-117024762D02*
X99294286Y-117072381D01*
X99103809Y-117072381D01*
X99008571Y-117024762D01*
X98960952Y-116929524D01*
X98960952Y-116548571D01*
X99008571Y-116453333D01*
X99103809Y-116405714D01*
X99294286Y-116405714D01*
X99389524Y-116453333D01*
X99437143Y-116548571D01*
X99437143Y-116643810D01*
X98960952Y-116739048D01*
X99770476Y-116405714D02*
X100008571Y-117072381D01*
X100246667Y-116405714D01*
X100627619Y-117072381D02*
X100627619Y-116072381D01*
X101008572Y-116072381D01*
X101103810Y-116120000D01*
X101151429Y-116167619D01*
X101199048Y-116262857D01*
X101199048Y-116405714D01*
X101151429Y-116500952D01*
X101103810Y-116548571D01*
X101008572Y-116596190D01*
X100627619Y-116596190D01*
X101960953Y-116548571D02*
X102103810Y-116596190D01*
X102151429Y-116643810D01*
X102199048Y-116739048D01*
X102199048Y-116881905D01*
X102151429Y-116977143D01*
X102103810Y-117024762D01*
X102008572Y-117072381D01*
X101627619Y-117072381D01*
X101627619Y-116072381D01*
X101960953Y-116072381D01*
X102056191Y-116120000D01*
X102103810Y-116167619D01*
X102151429Y-116262857D01*
X102151429Y-116358095D01*
X102103810Y-116453333D01*
X102056191Y-116500952D01*
X101960953Y-116548571D01*
X101627619Y-116548571D01*
X115724762Y-72940476D02*
X115772381Y-72797619D01*
X115772381Y-72559523D01*
X115724762Y-72464285D01*
X115677143Y-72416666D01*
X115581905Y-72369047D01*
X115486667Y-72369047D01*
X115391429Y-72416666D01*
X115343810Y-72464285D01*
X115296190Y-72559523D01*
X115248571Y-72750000D01*
X115200952Y-72845238D01*
X115153333Y-72892857D01*
X115058095Y-72940476D01*
X114962857Y-72940476D01*
X114867619Y-72892857D01*
X114820000Y-72845238D01*
X114772381Y-72750000D01*
X114772381Y-72511904D01*
X114820000Y-72369047D01*
X115677143Y-71369047D02*
X115724762Y-71416666D01*
X115772381Y-71559523D01*
X115772381Y-71654761D01*
X115724762Y-71797619D01*
X115629524Y-71892857D01*
X115534286Y-71940476D01*
X115343810Y-71988095D01*
X115200952Y-71988095D01*
X115010476Y-71940476D01*
X114915238Y-71892857D01*
X114820000Y-71797619D01*
X114772381Y-71654761D01*
X114772381Y-71559523D01*
X114820000Y-71416666D01*
X114867619Y-71369047D01*
X115772381Y-70464285D02*
X115772381Y-70940476D01*
X114772381Y-70940476D01*
X118274762Y-73004286D02*
X118322381Y-72861429D01*
X118322381Y-72623333D01*
X118274762Y-72528095D01*
X118227143Y-72480476D01*
X118131905Y-72432857D01*
X118036667Y-72432857D01*
X117941429Y-72480476D01*
X117893810Y-72528095D01*
X117846190Y-72623333D01*
X117798571Y-72813810D01*
X117750952Y-72909048D01*
X117703333Y-72956667D01*
X117608095Y-73004286D01*
X117512857Y-73004286D01*
X117417619Y-72956667D01*
X117370000Y-72909048D01*
X117322381Y-72813810D01*
X117322381Y-72575714D01*
X117370000Y-72432857D01*
X118322381Y-72004286D02*
X117322381Y-72004286D01*
X117322381Y-71766191D01*
X117370000Y-71623333D01*
X117465238Y-71528095D01*
X117560476Y-71480476D01*
X117750952Y-71432857D01*
X117893810Y-71432857D01*
X118084286Y-71480476D01*
X118179524Y-71528095D01*
X118274762Y-71623333D01*
X118322381Y-71766191D01*
X118322381Y-72004286D01*
X118036667Y-71051905D02*
X118036667Y-70575714D01*
X118322381Y-71147143D02*
X117322381Y-70813810D01*
X118322381Y-70480476D01*
X159335476Y-71159524D02*
X159335476Y-71040476D01*
X159395000Y-70921428D01*
X159454524Y-70861905D01*
X159573571Y-70802381D01*
X159811667Y-70742857D01*
X160109286Y-70742857D01*
X160347381Y-70802381D01*
X160466429Y-70861905D01*
X160525952Y-70921428D01*
X160585476Y-71040476D01*
X160585476Y-71159524D01*
X160525952Y-71278571D01*
X160466429Y-71338095D01*
X160347381Y-71397619D01*
X160109286Y-71457143D01*
X159811667Y-71457143D01*
X159573571Y-71397619D01*
X159454524Y-71338095D01*
X159395000Y-71278571D01*
X159335476Y-71159524D01*
X158045476Y-70742857D02*
X158045476Y-71457143D01*
X158045476Y-71100000D02*
X156795476Y-71100000D01*
X156974048Y-71219048D01*
X157093095Y-71338095D01*
X157152619Y-71457143D01*
X154374524Y-71457143D02*
X154315000Y-71397619D01*
X154255476Y-71278571D01*
X154255476Y-70980952D01*
X154315000Y-70861905D01*
X154374524Y-70802381D01*
X154493571Y-70742857D01*
X154612619Y-70742857D01*
X154791190Y-70802381D01*
X155505476Y-71516667D01*
X155505476Y-70742857D01*
X151715476Y-71516667D02*
X151715476Y-70742857D01*
X152191667Y-71159524D01*
X152191667Y-70980952D01*
X152251190Y-70861905D01*
X152310714Y-70802381D01*
X152429762Y-70742857D01*
X152727381Y-70742857D01*
X152846429Y-70802381D01*
X152905952Y-70861905D01*
X152965476Y-70980952D01*
X152965476Y-71338095D01*
X152905952Y-71457143D01*
X152846429Y-71516667D01*
X149592143Y-70861905D02*
X150425476Y-70861905D01*
X149115952Y-71159524D02*
X150008810Y-71457143D01*
X150008810Y-70683333D01*
X146635476Y-70802381D02*
X146635476Y-71397619D01*
X147230714Y-71457143D01*
X147171190Y-71397619D01*
X147111667Y-71278571D01*
X147111667Y-70980952D01*
X147171190Y-70861905D01*
X147230714Y-70802381D01*
X147349762Y-70742857D01*
X147647381Y-70742857D01*
X147766429Y-70802381D01*
X147825952Y-70861905D01*
X147885476Y-70980952D01*
X147885476Y-71278571D01*
X147825952Y-71397619D01*
X147766429Y-71457143D01*
X144095476Y-70861905D02*
X144095476Y-71100000D01*
X144155000Y-71219048D01*
X144214524Y-71278571D01*
X144393095Y-71397619D01*
X144631190Y-71457143D01*
X145107381Y-71457143D01*
X145226429Y-71397619D01*
X145285952Y-71338095D01*
X145345476Y-71219048D01*
X145345476Y-70980952D01*
X145285952Y-70861905D01*
X145226429Y-70802381D01*
X145107381Y-70742857D01*
X144809762Y-70742857D01*
X144690714Y-70802381D01*
X144631190Y-70861905D01*
X144571667Y-70980952D01*
X144571667Y-71219048D01*
X144631190Y-71338095D01*
X144690714Y-71397619D01*
X144809762Y-71457143D01*
X141555476Y-71516667D02*
X141555476Y-70683333D01*
X142805476Y-71219048D01*
X138031190Y-71199048D02*
X137971667Y-71318095D01*
X137912143Y-71377619D01*
X137793095Y-71437143D01*
X137733571Y-71437143D01*
X137614524Y-71377619D01*
X137555000Y-71318095D01*
X137495476Y-71199048D01*
X137495476Y-70960952D01*
X137555000Y-70841905D01*
X137614524Y-70782381D01*
X137733571Y-70722857D01*
X137793095Y-70722857D01*
X137912143Y-70782381D01*
X137971667Y-70841905D01*
X138031190Y-70960952D01*
X138031190Y-71199048D01*
X138090714Y-71318095D01*
X138150238Y-71377619D01*
X138269286Y-71437143D01*
X138507381Y-71437143D01*
X138626429Y-71377619D01*
X138685952Y-71318095D01*
X138745476Y-71199048D01*
X138745476Y-70960952D01*
X138685952Y-70841905D01*
X138626429Y-70782381D01*
X138507381Y-70722857D01*
X138269286Y-70722857D01*
X138150238Y-70782381D01*
X138090714Y-70841905D01*
X138031190Y-70960952D01*
X136215476Y-71318095D02*
X136215476Y-71080000D01*
X136155952Y-70960952D01*
X136096429Y-70901428D01*
X135917857Y-70782381D01*
X135679762Y-70722857D01*
X135203571Y-70722857D01*
X135084524Y-70782381D01*
X135025000Y-70841905D01*
X134965476Y-70960952D01*
X134965476Y-71199048D01*
X135025000Y-71318095D01*
X135084524Y-71377619D01*
X135203571Y-71437143D01*
X135501190Y-71437143D01*
X135620238Y-71377619D01*
X135679762Y-71318095D01*
X135739286Y-71199048D01*
X135739286Y-70960952D01*
X135679762Y-70841905D01*
X135620238Y-70782381D01*
X135501190Y-70722857D01*
X133665476Y-71648095D02*
X133665476Y-72362381D01*
X133665476Y-72005238D02*
X132415476Y-72005238D01*
X132594048Y-72124286D01*
X132713095Y-72243333D01*
X132772619Y-72362381D01*
X132415476Y-70874286D02*
X132415476Y-70755238D01*
X132475000Y-70636190D01*
X132534524Y-70576667D01*
X132653571Y-70517143D01*
X132891667Y-70457619D01*
X133189286Y-70457619D01*
X133427381Y-70517143D01*
X133546429Y-70576667D01*
X133605952Y-70636190D01*
X133665476Y-70755238D01*
X133665476Y-70874286D01*
X133605952Y-70993333D01*
X133546429Y-71052857D01*
X133427381Y-71112381D01*
X133189286Y-71171905D01*
X132891667Y-71171905D01*
X132653571Y-71112381D01*
X132534524Y-71052857D01*
X132475000Y-70993333D01*
X132415476Y-70874286D01*
X131125476Y-71648095D02*
X131125476Y-72362381D01*
X131125476Y-72005238D02*
X129875476Y-72005238D01*
X130054048Y-72124286D01*
X130173095Y-72243333D01*
X130232619Y-72362381D01*
X131125476Y-70457619D02*
X131125476Y-71171905D01*
X131125476Y-70814762D02*
X129875476Y-70814762D01*
X130054048Y-70933810D01*
X130173095Y-71052857D01*
X130232619Y-71171905D01*
X128585476Y-71648095D02*
X128585476Y-72362381D01*
X128585476Y-72005238D02*
X127335476Y-72005238D01*
X127514048Y-72124286D01*
X127633095Y-72243333D01*
X127692619Y-72362381D01*
X127454524Y-71171905D02*
X127395000Y-71112381D01*
X127335476Y-70993333D01*
X127335476Y-70695714D01*
X127395000Y-70576667D01*
X127454524Y-70517143D01*
X127573571Y-70457619D01*
X127692619Y-70457619D01*
X127871190Y-70517143D01*
X128585476Y-71231429D01*
X128585476Y-70457619D01*
X126055476Y-71648095D02*
X126055476Y-72362381D01*
X126055476Y-72005238D02*
X124805476Y-72005238D01*
X124984048Y-72124286D01*
X125103095Y-72243333D01*
X125162619Y-72362381D01*
X124805476Y-71231429D02*
X124805476Y-70457619D01*
X125281667Y-70874286D01*
X125281667Y-70695714D01*
X125341190Y-70576667D01*
X125400714Y-70517143D01*
X125519762Y-70457619D01*
X125817381Y-70457619D01*
X125936429Y-70517143D01*
X125995952Y-70576667D01*
X126055476Y-70695714D01*
X126055476Y-71052857D01*
X125995952Y-71171905D01*
X125936429Y-71231429D01*
X122440000Y-72561904D02*
X122392381Y-72657142D01*
X122392381Y-72799999D01*
X122440000Y-72942857D01*
X122535238Y-73038095D01*
X122630476Y-73085714D01*
X122820952Y-73133333D01*
X122963810Y-73133333D01*
X123154286Y-73085714D01*
X123249524Y-73038095D01*
X123344762Y-72942857D01*
X123392381Y-72799999D01*
X123392381Y-72704761D01*
X123344762Y-72561904D01*
X123297143Y-72514285D01*
X122963810Y-72514285D01*
X122963810Y-72704761D01*
X123392381Y-72085714D02*
X122392381Y-72085714D01*
X123392381Y-71514285D01*
X122392381Y-71514285D01*
X123392381Y-71038095D02*
X122392381Y-71038095D01*
X122392381Y-70800000D01*
X122440000Y-70657142D01*
X122535238Y-70561904D01*
X122630476Y-70514285D01*
X122820952Y-70466666D01*
X122963810Y-70466666D01*
X123154286Y-70514285D01*
X123249524Y-70561904D01*
X123344762Y-70657142D01*
X123392381Y-70800000D01*
X123392381Y-71038095D01*
X120566667Y-73719048D02*
X120566667Y-73242857D01*
X120852381Y-73814286D02*
X119852381Y-73480953D01*
X120852381Y-73147619D01*
X120852381Y-72242857D02*
X120376190Y-72576191D01*
X120852381Y-72814286D02*
X119852381Y-72814286D01*
X119852381Y-72433333D01*
X119900000Y-72338095D01*
X119947619Y-72290476D01*
X120042857Y-72242857D01*
X120185714Y-72242857D01*
X120280952Y-72290476D01*
X120328571Y-72338095D01*
X120376190Y-72433333D01*
X120376190Y-72814286D01*
X120328571Y-71814286D02*
X120328571Y-71480952D01*
X120852381Y-71338095D02*
X120852381Y-71814286D01*
X119852381Y-71814286D01*
X119852381Y-71338095D01*
X120328571Y-70576190D02*
X120328571Y-70909524D01*
X120852381Y-70909524D02*
X119852381Y-70909524D01*
X119852381Y-70433333D01*
X160228333Y-114862857D02*
X160228333Y-114267619D01*
X160585476Y-114981904D02*
X159335476Y-114565238D01*
X160585476Y-114148571D01*
X159335476Y-113136666D02*
X159335476Y-113731904D01*
X159930714Y-113791428D01*
X159871190Y-113731904D01*
X159811667Y-113612856D01*
X159811667Y-113315237D01*
X159871190Y-113196190D01*
X159930714Y-113136666D01*
X160049762Y-113077142D01*
X160347381Y-113077142D01*
X160466429Y-113136666D01*
X160525952Y-113196190D01*
X160585476Y-113315237D01*
X160585476Y-113612856D01*
X160525952Y-113731904D01*
X160466429Y-113791428D01*
X157688333Y-114852857D02*
X157688333Y-114257619D01*
X158045476Y-114971904D02*
X156795476Y-114555238D01*
X158045476Y-114138571D01*
X157212143Y-113186190D02*
X158045476Y-113186190D01*
X156735952Y-113483809D02*
X157628810Y-113781428D01*
X157628810Y-113007618D01*
X155148333Y-114852857D02*
X155148333Y-114257619D01*
X155505476Y-114971904D02*
X154255476Y-114555238D01*
X155505476Y-114138571D01*
X154255476Y-113840952D02*
X154255476Y-113067142D01*
X154731667Y-113483809D01*
X154731667Y-113305237D01*
X154791190Y-113186190D01*
X154850714Y-113126666D01*
X154969762Y-113067142D01*
X155267381Y-113067142D01*
X155386429Y-113126666D01*
X155445952Y-113186190D01*
X155505476Y-113305237D01*
X155505476Y-113662380D01*
X155445952Y-113781428D01*
X155386429Y-113840952D01*
X152608333Y-114852857D02*
X152608333Y-114257619D01*
X152965476Y-114971904D02*
X151715476Y-114555238D01*
X152965476Y-114138571D01*
X151834524Y-113781428D02*
X151775000Y-113721904D01*
X151715476Y-113602856D01*
X151715476Y-113305237D01*
X151775000Y-113186190D01*
X151834524Y-113126666D01*
X151953571Y-113067142D01*
X152072619Y-113067142D01*
X152251190Y-113126666D01*
X152965476Y-113840952D01*
X152965476Y-113067142D01*
X150068333Y-114852857D02*
X150068333Y-114257619D01*
X150425476Y-114971904D02*
X149175476Y-114555238D01*
X150425476Y-114138571D01*
X150425476Y-113067142D02*
X150425476Y-113781428D01*
X150425476Y-113424285D02*
X149175476Y-113424285D01*
X149354048Y-113543333D01*
X149473095Y-113662380D01*
X149532619Y-113781428D01*
X147528333Y-114852857D02*
X147528333Y-114257619D01*
X147885476Y-114971904D02*
X146635476Y-114555238D01*
X147885476Y-114138571D01*
X146635476Y-113483809D02*
X146635476Y-113364761D01*
X146695000Y-113245713D01*
X146754524Y-113186190D01*
X146873571Y-113126666D01*
X147111667Y-113067142D01*
X147409286Y-113067142D01*
X147647381Y-113126666D01*
X147766429Y-113186190D01*
X147825952Y-113245713D01*
X147885476Y-113364761D01*
X147885476Y-113483809D01*
X147825952Y-113602856D01*
X147766429Y-113662380D01*
X147647381Y-113721904D01*
X147409286Y-113781428D01*
X147111667Y-113781428D01*
X146873571Y-113721904D01*
X146754524Y-113662380D01*
X146695000Y-113602856D01*
X146635476Y-113483809D01*
X141702381Y-114973809D02*
X142702381Y-114640476D01*
X141702381Y-114307142D01*
X142702381Y-113973809D02*
X142035714Y-113973809D01*
X141702381Y-113973809D02*
X141750000Y-114021428D01*
X141797619Y-113973809D01*
X141750000Y-113926190D01*
X141702381Y-113973809D01*
X141797619Y-113973809D01*
X142035714Y-113497619D02*
X142702381Y-113497619D01*
X142130952Y-113497619D02*
X142083333Y-113450000D01*
X142035714Y-113354762D01*
X142035714Y-113211904D01*
X142083333Y-113116666D01*
X142178571Y-113069047D01*
X142702381Y-113069047D01*
X139210000Y-114401904D02*
X139162381Y-114497142D01*
X139162381Y-114639999D01*
X139210000Y-114782857D01*
X139305238Y-114878095D01*
X139400476Y-114925714D01*
X139590952Y-114973333D01*
X139733810Y-114973333D01*
X139924286Y-114925714D01*
X140019524Y-114878095D01*
X140114762Y-114782857D01*
X140162381Y-114639999D01*
X140162381Y-114544761D01*
X140114762Y-114401904D01*
X140067143Y-114354285D01*
X139733810Y-114354285D01*
X139733810Y-114544761D01*
X140162381Y-113925714D02*
X139162381Y-113925714D01*
X140162381Y-113354285D01*
X139162381Y-113354285D01*
X140162381Y-112878095D02*
X139162381Y-112878095D01*
X139162381Y-112640000D01*
X139210000Y-112497142D01*
X139305238Y-112401904D01*
X139400476Y-112354285D01*
X139590952Y-112306666D01*
X139733810Y-112306666D01*
X139924286Y-112354285D01*
X140019524Y-112401904D01*
X140114762Y-112497142D01*
X140162381Y-112640000D01*
X140162381Y-112878095D01*
X136660000Y-114401904D02*
X136612381Y-114497142D01*
X136612381Y-114639999D01*
X136660000Y-114782857D01*
X136755238Y-114878095D01*
X136850476Y-114925714D01*
X137040952Y-114973333D01*
X137183810Y-114973333D01*
X137374286Y-114925714D01*
X137469524Y-114878095D01*
X137564762Y-114782857D01*
X137612381Y-114639999D01*
X137612381Y-114544761D01*
X137564762Y-114401904D01*
X137517143Y-114354285D01*
X137183810Y-114354285D01*
X137183810Y-114544761D01*
X137612381Y-113925714D02*
X136612381Y-113925714D01*
X137612381Y-113354285D01*
X136612381Y-113354285D01*
X137612381Y-112878095D02*
X136612381Y-112878095D01*
X136612381Y-112640000D01*
X136660000Y-112497142D01*
X136755238Y-112401904D01*
X136850476Y-112354285D01*
X137040952Y-112306666D01*
X137183810Y-112306666D01*
X137374286Y-112354285D01*
X137469524Y-112401904D01*
X137564762Y-112497142D01*
X137612381Y-112640000D01*
X137612381Y-112878095D01*
X134082381Y-114470476D02*
X134082381Y-114946667D01*
X134558571Y-114994286D01*
X134510952Y-114946667D01*
X134463333Y-114851429D01*
X134463333Y-114613333D01*
X134510952Y-114518095D01*
X134558571Y-114470476D01*
X134653810Y-114422857D01*
X134891905Y-114422857D01*
X134987143Y-114470476D01*
X135034762Y-114518095D01*
X135082381Y-114613333D01*
X135082381Y-114851429D01*
X135034762Y-114946667D01*
X134987143Y-114994286D01*
X134082381Y-114137143D02*
X135082381Y-113803810D01*
X134082381Y-113470476D01*
X131542381Y-115006190D02*
X131542381Y-114387142D01*
X131923333Y-114720476D01*
X131923333Y-114577618D01*
X131970952Y-114482380D01*
X132018571Y-114434761D01*
X132113810Y-114387142D01*
X132351905Y-114387142D01*
X132447143Y-114434761D01*
X132494762Y-114482380D01*
X132542381Y-114577618D01*
X132542381Y-114863333D01*
X132494762Y-114958571D01*
X132447143Y-115006190D01*
X132447143Y-113958571D02*
X132494762Y-113910952D01*
X132542381Y-113958571D01*
X132494762Y-114006190D01*
X132447143Y-113958571D01*
X132542381Y-113958571D01*
X131542381Y-113577619D02*
X131542381Y-112958571D01*
X131923333Y-113291905D01*
X131923333Y-113149047D01*
X131970952Y-113053809D01*
X132018571Y-113006190D01*
X132113810Y-112958571D01*
X132351905Y-112958571D01*
X132447143Y-113006190D01*
X132494762Y-113053809D01*
X132542381Y-113149047D01*
X132542381Y-113434762D01*
X132494762Y-113530000D01*
X132447143Y-113577619D01*
X131542381Y-112672857D02*
X132542381Y-112339524D01*
X131542381Y-112006190D01*
X130012381Y-114482381D02*
X129536190Y-114815715D01*
X130012381Y-115053810D02*
X129012381Y-115053810D01*
X129012381Y-114672857D01*
X129060000Y-114577619D01*
X129107619Y-114530000D01*
X129202857Y-114482381D01*
X129345714Y-114482381D01*
X129440952Y-114530000D01*
X129488571Y-114577619D01*
X129536190Y-114672857D01*
X129536190Y-115053810D01*
X129488571Y-114053810D02*
X129488571Y-113720476D01*
X130012381Y-113577619D02*
X130012381Y-114053810D01*
X129012381Y-114053810D01*
X129012381Y-113577619D01*
X129964762Y-113196667D02*
X130012381Y-113053810D01*
X130012381Y-112815714D01*
X129964762Y-112720476D01*
X129917143Y-112672857D01*
X129821905Y-112625238D01*
X129726667Y-112625238D01*
X129631429Y-112672857D01*
X129583810Y-112720476D01*
X129536190Y-112815714D01*
X129488571Y-113006191D01*
X129440952Y-113101429D01*
X129393333Y-113149048D01*
X129298095Y-113196667D01*
X129202857Y-113196667D01*
X129107619Y-113149048D01*
X129060000Y-113101429D01*
X129012381Y-113006191D01*
X129012381Y-112768095D01*
X129060000Y-112625238D01*
X129488571Y-112196667D02*
X129488571Y-111863333D01*
X130012381Y-111720476D02*
X130012381Y-112196667D01*
X129012381Y-112196667D01*
X129012381Y-111720476D01*
X129012381Y-111434762D02*
X129012381Y-110863333D01*
X130012381Y-111149048D02*
X129012381Y-111149048D01*
X127462381Y-115024762D02*
X126462381Y-115024762D01*
X126462381Y-114358096D02*
X126462381Y-114167619D01*
X126510000Y-114072381D01*
X126605238Y-113977143D01*
X126795714Y-113929524D01*
X127129048Y-113929524D01*
X127319524Y-113977143D01*
X127414762Y-114072381D01*
X127462381Y-114167619D01*
X127462381Y-114358096D01*
X127414762Y-114453334D01*
X127319524Y-114548572D01*
X127129048Y-114596191D01*
X126795714Y-114596191D01*
X126605238Y-114548572D01*
X126510000Y-114453334D01*
X126462381Y-114358096D01*
X127462381Y-112929524D02*
X126986190Y-113262858D01*
X127462381Y-113500953D02*
X126462381Y-113500953D01*
X126462381Y-113120000D01*
X126510000Y-113024762D01*
X126557619Y-112977143D01*
X126652857Y-112929524D01*
X126795714Y-112929524D01*
X126890952Y-112977143D01*
X126938571Y-113024762D01*
X126986190Y-113120000D01*
X126986190Y-113500953D01*
X126938571Y-112500953D02*
X126938571Y-112167619D01*
X127462381Y-112024762D02*
X127462381Y-112500953D01*
X126462381Y-112500953D01*
X126462381Y-112024762D01*
X126938571Y-111262857D02*
X126938571Y-111596191D01*
X127462381Y-111596191D02*
X126462381Y-111596191D01*
X126462381Y-111120000D01*
D13*
X123715000Y-107815000D02*
X123715000Y-111345000D01*
X117245000Y-107815000D02*
X117245000Y-111345000D01*
X123650000Y-106490000D02*
X123650000Y-107815000D01*
X123715000Y-107815000D02*
X123650000Y-107815000D01*
X123715000Y-111345000D02*
X123650000Y-111345000D01*
X117310000Y-107815000D02*
X117245000Y-107815000D01*
X117310000Y-111345000D02*
X117245000Y-111345000D01*
D14*
X124483566Y-93796600D02*
G75*
G03X124483566Y-93796600I-240966J0D01*
G01*
X149210800Y-95015800D02*
X149210800Y-93060000D01*
X149210800Y-93060000D02*
X145934200Y-93060000D01*
X145908800Y-105760000D02*
X149210800Y-105760000D01*
X149210800Y-105760000D02*
X149210800Y-103804200D01*
X135748800Y-105760000D02*
X138415800Y-105760000D01*
X135748800Y-93060000D02*
X138415800Y-93060000D01*
X123709200Y-105760000D02*
X125715800Y-105760000D01*
X123709200Y-103804200D02*
X123709200Y-105760000D01*
X123709200Y-93060000D02*
X125690400Y-93060000D01*
X123709200Y-94990400D02*
X123709200Y-93060000D01*
D10*
X134480000Y-76110000D02*
X134480000Y-74210000D01*
X133380000Y-76110000D02*
X133380000Y-74210000D01*
X133680000Y-76784000D02*
X134180000Y-76784000D01*
X133930000Y-76784000D02*
X133680000Y-76534000D01*
X134180000Y-76534000D02*
X133930000Y-76784000D01*
X136170000Y-76100000D02*
X136170000Y-74200000D01*
X135070000Y-76100000D02*
X135070000Y-74200000D01*
X135370000Y-76774000D02*
X135870000Y-76774000D01*
X135620000Y-76774000D02*
X135370000Y-76524000D01*
X135870000Y-76524000D02*
X135620000Y-76774000D01*
D13*
X118100000Y-92860000D02*
X118100000Y-94660000D01*
X121320000Y-94660000D02*
X121320000Y-92210000D01*
X157190000Y-91960000D02*
X155390000Y-91960000D01*
X155390000Y-95180000D02*
X157840000Y-95180000D01*
X121560000Y-117990000D02*
X121560000Y-115330000D01*
X118960000Y-117990000D02*
X121560000Y-117990000D01*
X118960000Y-115330000D02*
X121560000Y-115330000D01*
X118960000Y-117990000D02*
X118960000Y-115330000D01*
X117690000Y-117990000D02*
X116360000Y-117990000D01*
X116360000Y-117990000D02*
X116360000Y-116660000D01*
X158860000Y-95370000D02*
X164060000Y-95370000D01*
X158860000Y-90230000D02*
X158860000Y-95370000D01*
X164060000Y-87630000D02*
X164060000Y-95370000D01*
X158860000Y-90230000D02*
X161460000Y-90230000D01*
X161460000Y-90230000D02*
X161460000Y-87630000D01*
X161460000Y-87630000D02*
X164060000Y-87630000D01*
X158860000Y-88960000D02*
X158860000Y-87630000D01*
X158860000Y-87630000D02*
X160190000Y-87630000D01*
X159770000Y-98650000D02*
X161770000Y-98650000D01*
X159770000Y-105250000D02*
X161770000Y-105250000D01*
X164070000Y-100950000D02*
X164070000Y-102950000D01*
X157470000Y-100950000D02*
X157470000Y-102950000D01*
X135730000Y-108820000D02*
X135730000Y-111480000D01*
X140870000Y-108820000D02*
X135730000Y-108820000D01*
X140870000Y-111480000D02*
X135730000Y-111480000D01*
X140870000Y-108820000D02*
X140870000Y-111480000D01*
X142140000Y-108820000D02*
X143470000Y-108820000D01*
X143470000Y-108820000D02*
X143470000Y-110150000D01*
D10*
X152910000Y-84660000D02*
X152410000Y-84660000D01*
X152910000Y-87560000D02*
X152910000Y-84660000D01*
X152410000Y-87560000D02*
X152910000Y-87560000D01*
X152410000Y-84660000D02*
X152410000Y-87560000D01*
D13*
X104500000Y-86690000D02*
X108750000Y-86690000D01*
X108750000Y-86690000D02*
X108750000Y-85670000D01*
X108750000Y-85670000D02*
X107150000Y-85670000D01*
X107150000Y-85670000D02*
X107150000Y-84390000D01*
X107150000Y-84390000D02*
X110040000Y-84390000D01*
X104500000Y-74570000D02*
X108750000Y-74570000D01*
X108750000Y-74570000D02*
X108750000Y-75590000D01*
X108750000Y-75590000D02*
X107150000Y-75590000D01*
X107150000Y-75590000D02*
X107150000Y-76870000D01*
X99837800Y-84970000D02*
X99837800Y-76290000D01*
X104500000Y-99920000D02*
X108750000Y-99920000D01*
X108750000Y-99920000D02*
X108750000Y-98900000D01*
X108750000Y-98900000D02*
X107150000Y-98900000D01*
X107150000Y-98900000D02*
X107150000Y-97620000D01*
X107150000Y-97620000D02*
X110040000Y-97620000D01*
X104500000Y-87800000D02*
X108750000Y-87800000D01*
X108750000Y-87800000D02*
X108750000Y-88820000D01*
X108750000Y-88820000D02*
X107150000Y-88820000D01*
X107150000Y-88820000D02*
X107150000Y-90100000D01*
X99837800Y-98200000D02*
X99837800Y-89520000D01*
X104500000Y-113140000D02*
X108750000Y-113140000D01*
X108750000Y-113140000D02*
X108750000Y-112120000D01*
X108750000Y-112120000D02*
X107150000Y-112120000D01*
X107150000Y-112120000D02*
X107150000Y-110840000D01*
X107150000Y-110840000D02*
X110040000Y-110840000D01*
X104500000Y-101020000D02*
X108750000Y-101020000D01*
X108750000Y-101020000D02*
X108750000Y-102040000D01*
X108750000Y-102040000D02*
X107150000Y-102040000D01*
X107150000Y-102040000D02*
X107150000Y-103320000D01*
X99837800Y-111420000D02*
X99837800Y-102740000D01*
D10*
X118045000Y-101290000D02*
X118045000Y-100290000D01*
X119395000Y-100290000D02*
X119395000Y-101290000D01*
X150775000Y-94460000D02*
X150775000Y-93460000D01*
X152125000Y-93460000D02*
X152125000Y-94460000D01*
X119395000Y-97420000D02*
X119395000Y-98420000D01*
X118045000Y-98420000D02*
X118045000Y-97420000D01*
X133255000Y-78860000D02*
X133255000Y-77860000D01*
X134605000Y-77860000D02*
X134605000Y-78860000D01*
X134945000Y-78850000D02*
X134945000Y-77850000D01*
X136295000Y-77850000D02*
X136295000Y-78850000D01*
X152585000Y-94460000D02*
X152585000Y-93460000D01*
X153935000Y-93460000D02*
X153935000Y-94460000D01*
X119395000Y-103020000D02*
X119395000Y-104020000D01*
X118045000Y-104020000D02*
X118045000Y-103020000D01*
D13*
X153435000Y-75585000D02*
X151435000Y-75585000D01*
X153435000Y-72785000D02*
X153435000Y-75585000D01*
X151435000Y-72785000D02*
X153435000Y-72785000D01*
X151435000Y-75585000D02*
X151435000Y-72785000D01*
X150935000Y-75585000D02*
X148935000Y-75585000D01*
X150935000Y-72785000D02*
X150935000Y-75585000D01*
X148935000Y-72785000D02*
X150935000Y-72785000D01*
X148935000Y-75585000D02*
X148935000Y-72785000D01*
X148435000Y-75585000D02*
X146435000Y-75585000D01*
X148435000Y-72785000D02*
X148435000Y-75585000D01*
X146435000Y-72785000D02*
X148435000Y-72785000D01*
X146435000Y-75585000D02*
X146435000Y-72785000D01*
X145935000Y-75585000D02*
X143935000Y-75585000D01*
X145935000Y-72785000D02*
X145935000Y-75585000D01*
X143935000Y-72785000D02*
X145935000Y-72785000D01*
X143935000Y-75585000D02*
X143935000Y-72785000D01*
X143435000Y-75585000D02*
X141435000Y-75585000D01*
X143435000Y-72785000D02*
X143435000Y-75585000D01*
X141435000Y-72785000D02*
X143435000Y-72785000D01*
X141435000Y-75585000D02*
X141435000Y-72785000D01*
X140935000Y-75585000D02*
X138935000Y-75585000D01*
X140935000Y-72785000D02*
X140935000Y-75585000D01*
X138935000Y-72785000D02*
X140935000Y-72785000D01*
X138935000Y-75585000D02*
X138935000Y-72785000D01*
X155945000Y-78880000D02*
X153945000Y-78880000D01*
X155945000Y-76080000D02*
X155945000Y-78880000D01*
X153945000Y-76080000D02*
X155945000Y-76080000D01*
X153945000Y-78880000D02*
X153945000Y-76080000D01*
X150940000Y-78880000D02*
X148940000Y-78880000D01*
X150940000Y-76080000D02*
X150940000Y-78880000D01*
X148940000Y-76080000D02*
X150940000Y-76080000D01*
X148940000Y-78880000D02*
X148940000Y-76080000D01*
X148440000Y-78880000D02*
X146440000Y-78880000D01*
X148440000Y-76080000D02*
X148440000Y-78880000D01*
X146440000Y-76080000D02*
X148440000Y-76080000D01*
X146440000Y-78880000D02*
X146440000Y-76080000D01*
X145940000Y-78880000D02*
X143940000Y-78880000D01*
X145940000Y-76080000D02*
X145940000Y-78880000D01*
X143940000Y-76080000D02*
X145940000Y-76080000D01*
X143940000Y-78880000D02*
X143940000Y-76080000D01*
X143440000Y-78880000D02*
X141440000Y-78880000D01*
X143440000Y-76080000D02*
X143440000Y-78880000D01*
X141440000Y-76080000D02*
X143440000Y-76080000D01*
X141440000Y-78880000D02*
X141440000Y-76080000D01*
X140930000Y-78880000D02*
X138930000Y-78880000D01*
X140930000Y-76080000D02*
X140930000Y-78880000D01*
X138930000Y-76080000D02*
X140930000Y-76080000D01*
X138930000Y-78880000D02*
X138930000Y-76080000D01*
X157380000Y-112020000D02*
X155380000Y-112020000D01*
X157380000Y-109220000D02*
X157380000Y-112020000D01*
X155380000Y-109220000D02*
X157380000Y-109220000D01*
X155380000Y-112020000D02*
X155380000Y-109220000D01*
X159880000Y-112020000D02*
X157880000Y-112020000D01*
X159880000Y-109220000D02*
X159880000Y-112020000D01*
X157880000Y-109220000D02*
X159880000Y-109220000D01*
X157880000Y-112020000D02*
X157880000Y-109220000D01*
D15*
G36*
X132363685Y-81363158D02*
X117123685Y-81363158D01*
X117123685Y-74144211D01*
X132363685Y-74144211D01*
X132363685Y-81363158D01*
X132363685Y-81363158D01*
G37*
X132363685Y-81363158D02*
X117123685Y-81363158D01*
X117123685Y-74144211D01*
X132363685Y-74144211D01*
X132363685Y-81363158D01*
G36*
X104637590Y-71610625D02*
X104711664Y-71673231D01*
X104758724Y-71789716D01*
X104772857Y-71929208D01*
X104756357Y-72098630D01*
X104705195Y-72205366D01*
X104616875Y-72251777D01*
X104488905Y-72240230D01*
X104455357Y-72230203D01*
X104411470Y-72219758D01*
X104387030Y-72234524D01*
X104376356Y-72288980D01*
X104373765Y-72397602D01*
X104373714Y-72438245D01*
X104373714Y-72673094D01*
X104512359Y-72654498D01*
X104626751Y-72651583D01*
X104703355Y-72685450D01*
X104748741Y-72765500D01*
X104769480Y-72901138D01*
X104772857Y-73027306D01*
X104769960Y-73170071D01*
X104759499Y-73253588D01*
X104738815Y-73291014D01*
X104718429Y-73296857D01*
X104686660Y-73279981D01*
X104669697Y-73220235D01*
X104664079Y-73103942D01*
X104664000Y-73081735D01*
X104649955Y-72923434D01*
X104610743Y-72811695D01*
X104550752Y-72756913D01*
X104525337Y-72753127D01*
X104457084Y-72778241D01*
X104411881Y-72855351D01*
X104385864Y-72992601D01*
X104380437Y-73058516D01*
X104366331Y-73198524D01*
X104344648Y-73274996D01*
X104315059Y-73296857D01*
X104298582Y-73285552D01*
X104286003Y-73246377D01*
X104276845Y-73171443D01*
X104270633Y-73052861D01*
X104266892Y-72882743D01*
X104265147Y-72653199D01*
X104264857Y-72463746D01*
X104264857Y-71973393D01*
X104390696Y-71973393D01*
X104407910Y-72039503D01*
X104464807Y-72117563D01*
X104538822Y-72133210D01*
X104609437Y-72086081D01*
X104634983Y-72043538D01*
X104658915Y-71933458D01*
X104637178Y-71835018D01*
X104578187Y-71769537D01*
X104521007Y-71754714D01*
X104442652Y-71785587D01*
X104396603Y-71865054D01*
X104390696Y-71973393D01*
X104264857Y-71973393D01*
X104264857Y-71630636D01*
X104364643Y-71633462D01*
X104471494Y-71626034D01*
X104542717Y-71610504D01*
X104637590Y-71610625D01*
X104637590Y-71610625D01*
G37*
X104637590Y-71610625D02*
X104711664Y-71673231D01*
X104758724Y-71789716D01*
X104772857Y-71929208D01*
X104756357Y-72098630D01*
X104705195Y-72205366D01*
X104616875Y-72251777D01*
X104488905Y-72240230D01*
X104455357Y-72230203D01*
X104411470Y-72219758D01*
X104387030Y-72234524D01*
X104376356Y-72288980D01*
X104373765Y-72397602D01*
X104373714Y-72438245D01*
X104373714Y-72673094D01*
X104512359Y-72654498D01*
X104626751Y-72651583D01*
X104703355Y-72685450D01*
X104748741Y-72765500D01*
X104769480Y-72901138D01*
X104772857Y-73027306D01*
X104769960Y-73170071D01*
X104759499Y-73253588D01*
X104738815Y-73291014D01*
X104718429Y-73296857D01*
X104686660Y-73279981D01*
X104669697Y-73220235D01*
X104664079Y-73103942D01*
X104664000Y-73081735D01*
X104649955Y-72923434D01*
X104610743Y-72811695D01*
X104550752Y-72756913D01*
X104525337Y-72753127D01*
X104457084Y-72778241D01*
X104411881Y-72855351D01*
X104385864Y-72992601D01*
X104380437Y-73058516D01*
X104366331Y-73198524D01*
X104344648Y-73274996D01*
X104315059Y-73296857D01*
X104298582Y-73285552D01*
X104286003Y-73246377D01*
X104276845Y-73171443D01*
X104270633Y-73052861D01*
X104266892Y-72882743D01*
X104265147Y-72653199D01*
X104264857Y-72463746D01*
X104264857Y-71973393D01*
X104390696Y-71973393D01*
X104407910Y-72039503D01*
X104464807Y-72117563D01*
X104538822Y-72133210D01*
X104609437Y-72086081D01*
X104634983Y-72043538D01*
X104658915Y-71933458D01*
X104637178Y-71835018D01*
X104578187Y-71769537D01*
X104521007Y-71754714D01*
X104442652Y-71785587D01*
X104396603Y-71865054D01*
X104390696Y-71973393D01*
X104264857Y-71973393D01*
X104264857Y-71630636D01*
X104364643Y-71633462D01*
X104471494Y-71626034D01*
X104542717Y-71610504D01*
X104637590Y-71610625D01*
G36*
X105273696Y-72668131D02*
X105332694Y-72700735D01*
X105366431Y-72761517D01*
X105384635Y-72868188D01*
X105389714Y-73020895D01*
X105389714Y-73284035D01*
X105194611Y-73289169D01*
X105060760Y-73284627D01*
X104977258Y-73259067D01*
X104940611Y-73229222D01*
X104887562Y-73129986D01*
X104896721Y-73044447D01*
X105007732Y-73044447D01*
X105007863Y-73101444D01*
X105054055Y-73157439D01*
X105123921Y-73187320D01*
X105135714Y-73188000D01*
X105212354Y-73161830D01*
X105243252Y-73135161D01*
X105270064Y-73068923D01*
X105232012Y-73023452D01*
X105135714Y-73006571D01*
X105052343Y-73018497D01*
X105007732Y-73044447D01*
X104896721Y-73044447D01*
X104897782Y-73034540D01*
X104962561Y-72955929D01*
X105073190Y-72907199D01*
X105161931Y-72897714D01*
X105251003Y-72889479D01*
X105276953Y-72858020D01*
X105248039Y-72793210D01*
X105247648Y-72792591D01*
X105191228Y-72758915D01*
X105085582Y-72762988D01*
X104989903Y-72765869D01*
X104932506Y-72744393D01*
X104926089Y-72707215D01*
X104958709Y-72676499D01*
X105048285Y-72649026D01*
X105164777Y-72646982D01*
X105273696Y-72668131D01*
X105273696Y-72668131D01*
G37*
X105273696Y-72668131D02*
X105332694Y-72700735D01*
X105366431Y-72761517D01*
X105384635Y-72868188D01*
X105389714Y-73020895D01*
X105389714Y-73284035D01*
X105194611Y-73289169D01*
X105060760Y-73284627D01*
X104977258Y-73259067D01*
X104940611Y-73229222D01*
X104887562Y-73129986D01*
X104896721Y-73044447D01*
X105007732Y-73044447D01*
X105007863Y-73101444D01*
X105054055Y-73157439D01*
X105123921Y-73187320D01*
X105135714Y-73188000D01*
X105212354Y-73161830D01*
X105243252Y-73135161D01*
X105270064Y-73068923D01*
X105232012Y-73023452D01*
X105135714Y-73006571D01*
X105052343Y-73018497D01*
X105007732Y-73044447D01*
X104896721Y-73044447D01*
X104897782Y-73034540D01*
X104962561Y-72955929D01*
X105073190Y-72907199D01*
X105161931Y-72897714D01*
X105251003Y-72889479D01*
X105276953Y-72858020D01*
X105248039Y-72793210D01*
X105247648Y-72792591D01*
X105191228Y-72758915D01*
X105085582Y-72762988D01*
X104989903Y-72765869D01*
X104932506Y-72744393D01*
X104926089Y-72707215D01*
X104958709Y-72676499D01*
X105048285Y-72649026D01*
X105164777Y-72646982D01*
X105273696Y-72668131D01*
G36*
X105836085Y-72651876D02*
X105918627Y-72660260D01*
X105942504Y-72667113D01*
X105954316Y-72702778D01*
X105922415Y-72743617D01*
X105870250Y-72767315D01*
X105840171Y-72764498D01*
X105762666Y-72763916D01*
X105710448Y-72831024D01*
X105683739Y-72965406D01*
X105680000Y-73065443D01*
X105677652Y-73191624D01*
X105667229Y-73261466D01*
X105643659Y-73291136D01*
X105607429Y-73296857D01*
X105572799Y-73291349D01*
X105551349Y-73265568D01*
X105539959Y-73205633D01*
X105535512Y-73097659D01*
X105534857Y-72973769D01*
X105534857Y-72650680D01*
X105723028Y-72649223D01*
X105836085Y-72651876D01*
X105836085Y-72651876D01*
G37*
X105836085Y-72651876D02*
X105918627Y-72660260D01*
X105942504Y-72667113D01*
X105954316Y-72702778D01*
X105922415Y-72743617D01*
X105870250Y-72767315D01*
X105840171Y-72764498D01*
X105762666Y-72763916D01*
X105710448Y-72831024D01*
X105683739Y-72965406D01*
X105680000Y-73065443D01*
X105677652Y-73191624D01*
X105667229Y-73261466D01*
X105643659Y-73291136D01*
X105607429Y-73296857D01*
X105572799Y-73291349D01*
X105551349Y-73265568D01*
X105539959Y-73205633D01*
X105535512Y-73097659D01*
X105534857Y-72973769D01*
X105534857Y-72650680D01*
X105723028Y-72649223D01*
X105836085Y-72651876D01*
G36*
X106472117Y-72393845D02*
X106492510Y-72414098D01*
X106505064Y-72462261D01*
X106511666Y-72550124D01*
X106514203Y-72689475D01*
X106514572Y-72843286D01*
X106513911Y-73031519D01*
X106510670Y-73158972D01*
X106502964Y-73237436D01*
X106488906Y-73278699D01*
X106466610Y-73294550D01*
X106442000Y-73296857D01*
X106383090Y-73278667D01*
X106369429Y-73253314D01*
X106358719Y-73228069D01*
X106325886Y-73253314D01*
X106244815Y-73291045D01*
X106142960Y-73288876D01*
X106087552Y-73266536D01*
X106033226Y-73194766D01*
X106000356Y-73078166D01*
X105991942Y-72968681D01*
X106115429Y-72968681D01*
X106123575Y-73080222D01*
X106155996Y-73134864D01*
X106224662Y-73147231D01*
X106259214Y-73144309D01*
X106316813Y-73129800D01*
X106343642Y-73090135D01*
X106351108Y-73004243D01*
X106351286Y-72974240D01*
X106337323Y-72846755D01*
X106293840Y-72778764D01*
X106290827Y-72776773D01*
X106215791Y-72761226D01*
X106155659Y-72807073D01*
X106120500Y-72903298D01*
X106115429Y-72968681D01*
X105991942Y-72968681D01*
X105989853Y-72941509D01*
X106002627Y-72809570D01*
X106039589Y-72707120D01*
X106065835Y-72675987D01*
X106137406Y-72652077D01*
X106241801Y-72654727D01*
X106242736Y-72654878D01*
X106369429Y-72675437D01*
X106369429Y-72532576D01*
X106375724Y-72438532D01*
X106401069Y-72397377D01*
X106442000Y-72389714D01*
X106472117Y-72393845D01*
X106472117Y-72393845D01*
G37*
X106472117Y-72393845D02*
X106492510Y-72414098D01*
X106505064Y-72462261D01*
X106511666Y-72550124D01*
X106514203Y-72689475D01*
X106514572Y-72843286D01*
X106513911Y-73031519D01*
X106510670Y-73158972D01*
X106502964Y-73237436D01*
X106488906Y-73278699D01*
X106466610Y-73294550D01*
X106442000Y-73296857D01*
X106383090Y-73278667D01*
X106369429Y-73253314D01*
X106358719Y-73228069D01*
X106325886Y-73253314D01*
X106244815Y-73291045D01*
X106142960Y-73288876D01*
X106087552Y-73266536D01*
X106033226Y-73194766D01*
X106000356Y-73078166D01*
X105991942Y-72968681D01*
X106115429Y-72968681D01*
X106123575Y-73080222D01*
X106155996Y-73134864D01*
X106224662Y-73147231D01*
X106259214Y-73144309D01*
X106316813Y-73129800D01*
X106343642Y-73090135D01*
X106351108Y-73004243D01*
X106351286Y-72974240D01*
X106337323Y-72846755D01*
X106293840Y-72778764D01*
X106290827Y-72776773D01*
X106215791Y-72761226D01*
X106155659Y-72807073D01*
X106120500Y-72903298D01*
X106115429Y-72968681D01*
X105991942Y-72968681D01*
X105989853Y-72941509D01*
X106002627Y-72809570D01*
X106039589Y-72707120D01*
X106065835Y-72675987D01*
X106137406Y-72652077D01*
X106241801Y-72654727D01*
X106242736Y-72654878D01*
X106369429Y-72675437D01*
X106369429Y-72532576D01*
X106375724Y-72438532D01*
X106401069Y-72397377D01*
X106442000Y-72389714D01*
X106472117Y-72393845D01*
G36*
X107478976Y-72658539D02*
X107476615Y-72714693D01*
X107475172Y-72719344D01*
X107396662Y-72958734D01*
X107332795Y-73131067D01*
X107280178Y-73239583D01*
X107235416Y-73287520D01*
X107195115Y-73278116D01*
X107155883Y-73214611D01*
X107114324Y-73100241D01*
X107105576Y-73072014D01*
X107035978Y-72843286D01*
X106965775Y-73060664D01*
X106913293Y-73201252D01*
X106865712Y-73274255D01*
X106819161Y-73278787D01*
X106769772Y-73213961D01*
X106713675Y-73078890D01*
X106685710Y-72996488D01*
X106634345Y-72837713D01*
X106604059Y-72735554D01*
X106593729Y-72677533D01*
X106602230Y-72651173D01*
X106628437Y-72643999D01*
X106653919Y-72643714D01*
X106698805Y-72662247D01*
X106735048Y-72726813D01*
X106768572Y-72843286D01*
X106798393Y-72951570D01*
X106825715Y-73024048D01*
X106840312Y-73042857D01*
X106863125Y-73011246D01*
X106897583Y-72929418D01*
X106927085Y-72843286D01*
X106970282Y-72731653D01*
X107013877Y-72660234D01*
X107039419Y-72643714D01*
X107076699Y-72676765D01*
X107121559Y-72766208D01*
X107158362Y-72870500D01*
X107227880Y-73097286D01*
X107293293Y-72870500D01*
X107335402Y-72741655D01*
X107373416Y-72670916D01*
X107415376Y-72644842D01*
X107428941Y-72643714D01*
X107478976Y-72658539D01*
X107478976Y-72658539D01*
G37*
X107478976Y-72658539D02*
X107476615Y-72714693D01*
X107475172Y-72719344D01*
X107396662Y-72958734D01*
X107332795Y-73131067D01*
X107280178Y-73239583D01*
X107235416Y-73287520D01*
X107195115Y-73278116D01*
X107155883Y-73214611D01*
X107114324Y-73100241D01*
X107105576Y-73072014D01*
X107035978Y-72843286D01*
X106965775Y-73060664D01*
X106913293Y-73201252D01*
X106865712Y-73274255D01*
X106819161Y-73278787D01*
X106769772Y-73213961D01*
X106713675Y-73078890D01*
X106685710Y-72996488D01*
X106634345Y-72837713D01*
X106604059Y-72735554D01*
X106593729Y-72677533D01*
X106602230Y-72651173D01*
X106628437Y-72643999D01*
X106653919Y-72643714D01*
X106698805Y-72662247D01*
X106735048Y-72726813D01*
X106768572Y-72843286D01*
X106798393Y-72951570D01*
X106825715Y-73024048D01*
X106840312Y-73042857D01*
X106863125Y-73011246D01*
X106897583Y-72929418D01*
X106927085Y-72843286D01*
X106970282Y-72731653D01*
X107013877Y-72660234D01*
X107039419Y-72643714D01*
X107076699Y-72676765D01*
X107121559Y-72766208D01*
X107158362Y-72870500D01*
X107227880Y-73097286D01*
X107293293Y-72870500D01*
X107335402Y-72741655D01*
X107373416Y-72670916D01*
X107415376Y-72644842D01*
X107428941Y-72643714D01*
X107478976Y-72658539D01*
G36*
X107879059Y-72656364D02*
X107963055Y-72698126D01*
X108012859Y-72785759D01*
X108035340Y-72928804D01*
X108038572Y-73046158D01*
X108038572Y-73287312D01*
X107841826Y-73289079D01*
X107719050Y-73282031D01*
X107619585Y-73262064D01*
X107583290Y-73245665D01*
X107533586Y-73170093D01*
X107525238Y-73069178D01*
X107526830Y-73064662D01*
X107651145Y-73064662D01*
X107654027Y-73131759D01*
X107708376Y-73172963D01*
X107794702Y-73177593D01*
X107836032Y-73165975D01*
X107884456Y-73115466D01*
X107893429Y-73075261D01*
X107864385Y-73026198D01*
X107796572Y-73004420D01*
X107718969Y-73011193D01*
X107660555Y-73047787D01*
X107651145Y-73064662D01*
X107526830Y-73064662D01*
X107557780Y-72976884D01*
X107587400Y-72945901D01*
X107669473Y-72912002D01*
X107774998Y-72897716D01*
X107776025Y-72897714D01*
X107859660Y-72889929D01*
X107887888Y-72860392D01*
X107886178Y-72834214D01*
X107856667Y-72790363D01*
X107780313Y-72772267D01*
X107729303Y-72770714D01*
X107628698Y-72761621D01*
X107587481Y-72731521D01*
X107585000Y-72716286D01*
X107610093Y-72678393D01*
X107692102Y-72656699D01*
X107754003Y-72650934D01*
X107879059Y-72656364D01*
X107879059Y-72656364D01*
G37*
X107879059Y-72656364D02*
X107963055Y-72698126D01*
X108012859Y-72785759D01*
X108035340Y-72928804D01*
X108038572Y-73046158D01*
X108038572Y-73287312D01*
X107841826Y-73289079D01*
X107719050Y-73282031D01*
X107619585Y-73262064D01*
X107583290Y-73245665D01*
X107533586Y-73170093D01*
X107525238Y-73069178D01*
X107526830Y-73064662D01*
X107651145Y-73064662D01*
X107654027Y-73131759D01*
X107708376Y-73172963D01*
X107794702Y-73177593D01*
X107836032Y-73165975D01*
X107884456Y-73115466D01*
X107893429Y-73075261D01*
X107864385Y-73026198D01*
X107796572Y-73004420D01*
X107718969Y-73011193D01*
X107660555Y-73047787D01*
X107651145Y-73064662D01*
X107526830Y-73064662D01*
X107557780Y-72976884D01*
X107587400Y-72945901D01*
X107669473Y-72912002D01*
X107774998Y-72897716D01*
X107776025Y-72897714D01*
X107859660Y-72889929D01*
X107887888Y-72860392D01*
X107886178Y-72834214D01*
X107856667Y-72790363D01*
X107780313Y-72772267D01*
X107729303Y-72770714D01*
X107628698Y-72761621D01*
X107587481Y-72731521D01*
X107585000Y-72716286D01*
X107610093Y-72678393D01*
X107692102Y-72656699D01*
X107754003Y-72650934D01*
X107879059Y-72656364D01*
G36*
X108501398Y-72651222D02*
X108560200Y-72662169D01*
X108577578Y-72688702D01*
X108575743Y-72708310D01*
X108531785Y-72759746D01*
X108462050Y-72772434D01*
X108378435Y-72787781D01*
X108326748Y-72838494D01*
X108300479Y-72936745D01*
X108293127Y-73088214D01*
X108288253Y-73211721D01*
X108272074Y-73276699D01*
X108240998Y-73296781D01*
X108238143Y-73296857D01*
X108211363Y-73283981D01*
X108194782Y-73237029D01*
X108186277Y-73143513D01*
X108183725Y-72990947D01*
X108183715Y-72976697D01*
X108183715Y-72656536D01*
X108385736Y-72651221D01*
X108501398Y-72651222D01*
X108501398Y-72651222D01*
G37*
X108501398Y-72651222D02*
X108560200Y-72662169D01*
X108577578Y-72688702D01*
X108575743Y-72708310D01*
X108531785Y-72759746D01*
X108462050Y-72772434D01*
X108378435Y-72787781D01*
X108326748Y-72838494D01*
X108300479Y-72936745D01*
X108293127Y-73088214D01*
X108288253Y-73211721D01*
X108272074Y-73276699D01*
X108240998Y-73296781D01*
X108238143Y-73296857D01*
X108211363Y-73283981D01*
X108194782Y-73237029D01*
X108186277Y-73143513D01*
X108183725Y-72990947D01*
X108183715Y-72976697D01*
X108183715Y-72656536D01*
X108385736Y-72651221D01*
X108501398Y-72651222D01*
G36*
X109016261Y-72674550D02*
X109105308Y-72766188D01*
X109149391Y-72891024D01*
X109172500Y-73006571D01*
X108968393Y-73006571D01*
X108845685Y-73011477D01*
X108781997Y-73028457D01*
X108764286Y-73059723D01*
X108795158Y-73123413D01*
X108867584Y-73163049D01*
X108951277Y-73164856D01*
X108974884Y-73155523D01*
X109061295Y-73141437D01*
X109092813Y-73154936D01*
X109123068Y-73187811D01*
X109096012Y-73226225D01*
X109074851Y-73243118D01*
X108955378Y-73292638D01*
X108825570Y-73280460D01*
X108709306Y-73208884D01*
X108708208Y-73207792D01*
X108636634Y-73094895D01*
X108615743Y-72965809D01*
X108639117Y-72842147D01*
X108764286Y-72842147D01*
X108789673Y-72882469D01*
X108872671Y-72897388D01*
X108894310Y-72897714D01*
X108984942Y-72887393D01*
X109010849Y-72857758D01*
X109010079Y-72854949D01*
X108962748Y-72791669D01*
X108890490Y-72762071D01*
X108818222Y-72767452D01*
X108770859Y-72809110D01*
X108764286Y-72842147D01*
X108639117Y-72842147D01*
X108639812Y-72838472D01*
X108703113Y-72730817D01*
X108799920Y-72660781D01*
X108888296Y-72643714D01*
X109016261Y-72674550D01*
X109016261Y-72674550D01*
G37*
X109016261Y-72674550D02*
X109105308Y-72766188D01*
X109149391Y-72891024D01*
X109172500Y-73006571D01*
X108968393Y-73006571D01*
X108845685Y-73011477D01*
X108781997Y-73028457D01*
X108764286Y-73059723D01*
X108795158Y-73123413D01*
X108867584Y-73163049D01*
X108951277Y-73164856D01*
X108974884Y-73155523D01*
X109061295Y-73141437D01*
X109092813Y-73154936D01*
X109123068Y-73187811D01*
X109096012Y-73226225D01*
X109074851Y-73243118D01*
X108955378Y-73292638D01*
X108825570Y-73280460D01*
X108709306Y-73208884D01*
X108708208Y-73207792D01*
X108636634Y-73094895D01*
X108615743Y-72965809D01*
X108639117Y-72842147D01*
X108764286Y-72842147D01*
X108789673Y-72882469D01*
X108872671Y-72897388D01*
X108894310Y-72897714D01*
X108984942Y-72887393D01*
X109010849Y-72857758D01*
X109010079Y-72854949D01*
X108962748Y-72791669D01*
X108890490Y-72762071D01*
X108818222Y-72767452D01*
X108770859Y-72809110D01*
X108764286Y-72842147D01*
X108639117Y-72842147D01*
X108639812Y-72838472D01*
X108703113Y-72730817D01*
X108799920Y-72660781D01*
X108888296Y-72643714D01*
X109016261Y-72674550D01*
G36*
X104010228Y-71635883D02*
X104094524Y-71709069D01*
X104140954Y-71840467D01*
X104143725Y-71856414D01*
X104142829Y-72018899D01*
X104088609Y-72146576D01*
X103989712Y-72229405D01*
X103854784Y-72257344D01*
X103802534Y-72252604D01*
X103704043Y-72202651D01*
X103638126Y-72096675D01*
X103611888Y-71946605D01*
X103611715Y-71932089D01*
X103612927Y-71924286D01*
X103750601Y-71924286D01*
X103754217Y-72025772D01*
X103773440Y-72096903D01*
X103773513Y-72097022D01*
X103831522Y-72132213D01*
X103911269Y-72124873D01*
X103972470Y-72083818D01*
X103997967Y-72015256D01*
X104005301Y-71913232D01*
X104004127Y-71893318D01*
X103988103Y-71798785D01*
X103951615Y-71754819D01*
X103906887Y-71742571D01*
X103825728Y-71746729D01*
X103785329Y-71766156D01*
X103761376Y-71826421D01*
X103750601Y-71924286D01*
X103612927Y-71924286D01*
X103636312Y-71773752D01*
X103708411Y-71667800D01*
X103825472Y-71617254D01*
X103879701Y-71613200D01*
X104010228Y-71635883D01*
X104010228Y-71635883D01*
G37*
X104010228Y-71635883D02*
X104094524Y-71709069D01*
X104140954Y-71840467D01*
X104143725Y-71856414D01*
X104142829Y-72018899D01*
X104088609Y-72146576D01*
X103989712Y-72229405D01*
X103854784Y-72257344D01*
X103802534Y-72252604D01*
X103704043Y-72202651D01*
X103638126Y-72096675D01*
X103611888Y-71946605D01*
X103611715Y-71932089D01*
X103612927Y-71924286D01*
X103750601Y-71924286D01*
X103754217Y-72025772D01*
X103773440Y-72096903D01*
X103773513Y-72097022D01*
X103831522Y-72132213D01*
X103911269Y-72124873D01*
X103972470Y-72083818D01*
X103997967Y-72015256D01*
X104005301Y-71913232D01*
X104004127Y-71893318D01*
X103988103Y-71798785D01*
X103951615Y-71754819D01*
X103906887Y-71742571D01*
X103825728Y-71746729D01*
X103785329Y-71766156D01*
X103761376Y-71826421D01*
X103750601Y-71924286D01*
X103612927Y-71924286D01*
X103636312Y-71773752D01*
X103708411Y-71667800D01*
X103825472Y-71617254D01*
X103879701Y-71613200D01*
X104010228Y-71635883D01*
G36*
X105294023Y-71666568D02*
X105294107Y-71666634D01*
X105369509Y-71755736D01*
X105389714Y-71866205D01*
X105389714Y-71990571D01*
X105188866Y-71990571D01*
X105075471Y-71992255D01*
X105020683Y-72001769D01*
X105010545Y-72025807D01*
X105029043Y-72067227D01*
X105068340Y-72116542D01*
X105129392Y-72130335D01*
X105209558Y-72121577D01*
X105313132Y-72116093D01*
X105369464Y-72135508D01*
X105368742Y-72174175D01*
X105343958Y-72198933D01*
X105234820Y-72246574D01*
X105097381Y-72255402D01*
X105072534Y-72252312D01*
X104978189Y-72204858D01*
X104913227Y-72109400D01*
X104881172Y-71985742D01*
X104885549Y-71853686D01*
X104899591Y-71815471D01*
X105006501Y-71815471D01*
X105008427Y-71857021D01*
X105078608Y-71879018D01*
X105135714Y-71881714D01*
X105239215Y-71872638D01*
X105273843Y-71845691D01*
X105272650Y-71838949D01*
X105218887Y-71769215D01*
X105136937Y-71741354D01*
X105074374Y-71757492D01*
X105006501Y-71815471D01*
X104899591Y-71815471D01*
X104929881Y-71733038D01*
X104970779Y-71680493D01*
X105075040Y-71606603D01*
X105178611Y-71602140D01*
X105294023Y-71666568D01*
X105294023Y-71666568D01*
G37*
X105294023Y-71666568D02*
X105294107Y-71666634D01*
X105369509Y-71755736D01*
X105389714Y-71866205D01*
X105389714Y-71990571D01*
X105188866Y-71990571D01*
X105075471Y-71992255D01*
X105020683Y-72001769D01*
X105010545Y-72025807D01*
X105029043Y-72067227D01*
X105068340Y-72116542D01*
X105129392Y-72130335D01*
X105209558Y-72121577D01*
X105313132Y-72116093D01*
X105369464Y-72135508D01*
X105368742Y-72174175D01*
X105343958Y-72198933D01*
X105234820Y-72246574D01*
X105097381Y-72255402D01*
X105072534Y-72252312D01*
X104978189Y-72204858D01*
X104913227Y-72109400D01*
X104881172Y-71985742D01*
X104885549Y-71853686D01*
X104899591Y-71815471D01*
X105006501Y-71815471D01*
X105008427Y-71857021D01*
X105078608Y-71879018D01*
X105135714Y-71881714D01*
X105239215Y-71872638D01*
X105273843Y-71845691D01*
X105272650Y-71838949D01*
X105218887Y-71769215D01*
X105136937Y-71741354D01*
X105074374Y-71757492D01*
X105006501Y-71815471D01*
X104899591Y-71815471D01*
X104929881Y-71733038D01*
X104970779Y-71680493D01*
X105075040Y-71606603D01*
X105178611Y-71602140D01*
X105294023Y-71666568D01*
G36*
X106757283Y-71615674D02*
X106845136Y-71642433D01*
X106892769Y-71687231D01*
X106895572Y-71702592D01*
X106873292Y-71737251D01*
X106798177Y-71745363D01*
X106760451Y-71742914D01*
X106661471Y-71741160D01*
X106592734Y-71752108D01*
X106586332Y-71755215D01*
X106566370Y-71794558D01*
X106599218Y-71838394D01*
X106667703Y-71872024D01*
X106734137Y-71881714D01*
X106847568Y-71908850D01*
X106923006Y-71978387D01*
X106948734Y-72072522D01*
X106919679Y-72163591D01*
X106849974Y-72216033D01*
X106738236Y-72246057D01*
X106613114Y-72247704D01*
X106561715Y-72238041D01*
X106456880Y-72198480D01*
X106422991Y-72153400D01*
X106457312Y-72101778D01*
X106511006Y-72080124D01*
X106531626Y-72097667D01*
X106580679Y-72123415D01*
X106669066Y-72135571D01*
X106679999Y-72135714D01*
X106766628Y-72127289D01*
X106801127Y-72094555D01*
X106804857Y-72063143D01*
X106786070Y-72008420D01*
X106718140Y-71990791D01*
X106704074Y-71990571D01*
X106580904Y-71966750D01*
X106494332Y-71905842D01*
X106450846Y-71823681D01*
X106456934Y-71736102D01*
X106519084Y-71658937D01*
X106558652Y-71635686D01*
X106653644Y-71611808D01*
X106757283Y-71615674D01*
X106757283Y-71615674D01*
G37*
X106757283Y-71615674D02*
X106845136Y-71642433D01*
X106892769Y-71687231D01*
X106895572Y-71702592D01*
X106873292Y-71737251D01*
X106798177Y-71745363D01*
X106760451Y-71742914D01*
X106661471Y-71741160D01*
X106592734Y-71752108D01*
X106586332Y-71755215D01*
X106566370Y-71794558D01*
X106599218Y-71838394D01*
X106667703Y-71872024D01*
X106734137Y-71881714D01*
X106847568Y-71908850D01*
X106923006Y-71978387D01*
X106948734Y-72072522D01*
X106919679Y-72163591D01*
X106849974Y-72216033D01*
X106738236Y-72246057D01*
X106613114Y-72247704D01*
X106561715Y-72238041D01*
X106456880Y-72198480D01*
X106422991Y-72153400D01*
X106457312Y-72101778D01*
X106511006Y-72080124D01*
X106531626Y-72097667D01*
X106580679Y-72123415D01*
X106669066Y-72135571D01*
X106679999Y-72135714D01*
X106766628Y-72127289D01*
X106801127Y-72094555D01*
X106804857Y-72063143D01*
X106786070Y-72008420D01*
X106718140Y-71990791D01*
X106704074Y-71990571D01*
X106580904Y-71966750D01*
X106494332Y-71905842D01*
X106450846Y-71823681D01*
X106456934Y-71736102D01*
X106519084Y-71658937D01*
X106558652Y-71635686D01*
X106653644Y-71611808D01*
X106757283Y-71615674D01*
G36*
X108156339Y-71640774D02*
X108172967Y-71688344D01*
X108181362Y-71783011D01*
X108183714Y-71937362D01*
X108183715Y-71940375D01*
X108182750Y-72090688D01*
X108177547Y-72181701D01*
X108164638Y-72226681D01*
X108140558Y-72238894D01*
X108107249Y-72233039D01*
X108010789Y-72229592D01*
X107951125Y-72243329D01*
X107847320Y-72251305D01*
X107800805Y-72234980D01*
X107738395Y-72193048D01*
X107701112Y-72139258D01*
X107682623Y-72055179D01*
X107676592Y-71922381D01*
X107676270Y-71872643D01*
X107679346Y-71737551D01*
X107691318Y-71661302D01*
X107715152Y-71630411D01*
X107730143Y-71627714D01*
X107766254Y-71649379D01*
X107782524Y-71722838D01*
X107784572Y-71788638D01*
X107798505Y-71959289D01*
X107838432Y-72075945D01*
X107901548Y-72131790D01*
X107927540Y-72135714D01*
X108006147Y-72103881D01*
X108054952Y-72007688D01*
X108074429Y-71846093D01*
X108074857Y-71811528D01*
X108080543Y-71696600D01*
X108100270Y-71640032D01*
X108129286Y-71627714D01*
X108156339Y-71640774D01*
X108156339Y-71640774D01*
G37*
X108156339Y-71640774D02*
X108172967Y-71688344D01*
X108181362Y-71783011D01*
X108183714Y-71937362D01*
X108183715Y-71940375D01*
X108182750Y-72090688D01*
X108177547Y-72181701D01*
X108164638Y-72226681D01*
X108140558Y-72238894D01*
X108107249Y-72233039D01*
X108010789Y-72229592D01*
X107951125Y-72243329D01*
X107847320Y-72251305D01*
X107800805Y-72234980D01*
X107738395Y-72193048D01*
X107701112Y-72139258D01*
X107682623Y-72055179D01*
X107676592Y-71922381D01*
X107676270Y-71872643D01*
X107679346Y-71737551D01*
X107691318Y-71661302D01*
X107715152Y-71630411D01*
X107730143Y-71627714D01*
X107766254Y-71649379D01*
X107782524Y-71722838D01*
X107784572Y-71788638D01*
X107798505Y-71959289D01*
X107838432Y-72075945D01*
X107901548Y-72131790D01*
X107927540Y-72135714D01*
X108006147Y-72103881D01*
X108054952Y-72007688D01*
X108074429Y-71846093D01*
X108074857Y-71811528D01*
X108080543Y-71696600D01*
X108100270Y-71640032D01*
X108129286Y-71627714D01*
X108156339Y-71640774D01*
G36*
X109149711Y-71629177D02*
X109151737Y-71629843D01*
X109238792Y-71672463D01*
X109256799Y-71713424D01*
X109208915Y-71743797D01*
X109107579Y-71754714D01*
X109004397Y-71765608D01*
X108941603Y-71808209D01*
X108913464Y-71850319D01*
X108880189Y-71924672D01*
X108889100Y-71985191D01*
X108923760Y-72044275D01*
X108980009Y-72111043D01*
X109046067Y-72128194D01*
X109109272Y-72119914D01*
X109203171Y-72114955D01*
X109253509Y-72136737D01*
X109248498Y-72177357D01*
X109226529Y-72198541D01*
X109120255Y-72250925D01*
X108994832Y-72247518D01*
X108960854Y-72239375D01*
X108856108Y-72178542D01*
X108790717Y-72075582D01*
X108765465Y-71949840D01*
X108781138Y-71820665D01*
X108838520Y-71707402D01*
X108936145Y-71630410D01*
X109033954Y-71606993D01*
X109149711Y-71629177D01*
X109149711Y-71629177D01*
G37*
X109149711Y-71629177D02*
X109151737Y-71629843D01*
X109238792Y-71672463D01*
X109256799Y-71713424D01*
X109208915Y-71743797D01*
X109107579Y-71754714D01*
X109004397Y-71765608D01*
X108941603Y-71808209D01*
X108913464Y-71850319D01*
X108880189Y-71924672D01*
X108889100Y-71985191D01*
X108923760Y-72044275D01*
X108980009Y-72111043D01*
X109046067Y-72128194D01*
X109109272Y-72119914D01*
X109203171Y-72114955D01*
X109253509Y-72136737D01*
X109248498Y-72177357D01*
X109226529Y-72198541D01*
X109120255Y-72250925D01*
X108994832Y-72247518D01*
X108960854Y-72239375D01*
X108856108Y-72178542D01*
X108790717Y-72075582D01*
X108765465Y-71949840D01*
X108781138Y-71820665D01*
X108838520Y-71707402D01*
X108936145Y-71630410D01*
X109033954Y-71606993D01*
X109149711Y-71629177D01*
G36*
X109696734Y-71623150D02*
X109781402Y-71702603D01*
X109839202Y-71806222D01*
X109852857Y-71880065D01*
X109849630Y-71943238D01*
X109828040Y-71976118D01*
X109770222Y-71988599D01*
X109658311Y-71990571D01*
X109653286Y-71990571D01*
X109543985Y-71995807D01*
X109471496Y-72009313D01*
X109453714Y-72022414D01*
X109485339Y-72081998D01*
X109562446Y-72120680D01*
X109658388Y-72125534D01*
X109664156Y-72124469D01*
X109758329Y-72118026D01*
X109819080Y-72136051D01*
X109831434Y-72171036D01*
X109809218Y-72197176D01*
X109696981Y-72247439D01*
X109564472Y-72255093D01*
X109544429Y-72251775D01*
X109434938Y-72206169D01*
X109370754Y-72117152D01*
X109345723Y-71974899D01*
X109344857Y-71933153D01*
X109349151Y-71841221D01*
X109457685Y-71841221D01*
X109482796Y-71872420D01*
X109569744Y-71881642D01*
X109583375Y-71881714D01*
X109670299Y-71874635D01*
X109701809Y-71847534D01*
X109700933Y-71818214D01*
X109659880Y-71765138D01*
X109585206Y-71741818D01*
X109512015Y-71754688D01*
X109485588Y-71778754D01*
X109457685Y-71841221D01*
X109349151Y-71841221D01*
X109350496Y-71812442D01*
X109373864Y-71736885D01*
X109424633Y-71679512D01*
X109440465Y-71666634D01*
X109527355Y-71613977D01*
X109604114Y-71591441D01*
X109605400Y-71591429D01*
X109696734Y-71623150D01*
X109696734Y-71623150D01*
G37*
X109696734Y-71623150D02*
X109781402Y-71702603D01*
X109839202Y-71806222D01*
X109852857Y-71880065D01*
X109849630Y-71943238D01*
X109828040Y-71976118D01*
X109770222Y-71988599D01*
X109658311Y-71990571D01*
X109653286Y-71990571D01*
X109543985Y-71995807D01*
X109471496Y-72009313D01*
X109453714Y-72022414D01*
X109485339Y-72081998D01*
X109562446Y-72120680D01*
X109658388Y-72125534D01*
X109664156Y-72124469D01*
X109758329Y-72118026D01*
X109819080Y-72136051D01*
X109831434Y-72171036D01*
X109809218Y-72197176D01*
X109696981Y-72247439D01*
X109564472Y-72255093D01*
X109544429Y-72251775D01*
X109434938Y-72206169D01*
X109370754Y-72117152D01*
X109345723Y-71974899D01*
X109344857Y-71933153D01*
X109349151Y-71841221D01*
X109457685Y-71841221D01*
X109482796Y-71872420D01*
X109569744Y-71881642D01*
X109583375Y-71881714D01*
X109670299Y-71874635D01*
X109701809Y-71847534D01*
X109700933Y-71818214D01*
X109659880Y-71765138D01*
X109585206Y-71741818D01*
X109512015Y-71754688D01*
X109485588Y-71778754D01*
X109457685Y-71841221D01*
X109349151Y-71841221D01*
X109350496Y-71812442D01*
X109373864Y-71736885D01*
X109424633Y-71679512D01*
X109440465Y-71666634D01*
X109527355Y-71613977D01*
X109604114Y-71591441D01*
X109605400Y-71591429D01*
X109696734Y-71623150D01*
G36*
X105948442Y-71654092D02*
X106015087Y-71714789D01*
X106028737Y-71769463D01*
X106038542Y-71873714D01*
X106042302Y-71999643D01*
X106040509Y-72130211D01*
X106031294Y-72204037D01*
X106010018Y-72236896D01*
X105972043Y-72244565D01*
X105970286Y-72244571D01*
X105931086Y-72237254D01*
X105909191Y-72204635D01*
X105899702Y-72130711D01*
X105897715Y-72007575D01*
X105893570Y-71871343D01*
X105878770Y-71791795D01*
X105849763Y-71753395D01*
X105838354Y-71747801D01*
X105753625Y-71740586D01*
X105694970Y-71796097D01*
X105660664Y-71916859D01*
X105651054Y-72021558D01*
X105639736Y-72153033D01*
X105619671Y-72223564D01*
X105587607Y-72244571D01*
X105587554Y-72244571D01*
X105561118Y-72230103D01*
X105544903Y-72178578D01*
X105536844Y-72077818D01*
X105534857Y-71933862D01*
X105536419Y-71782893D01*
X105542981Y-71691085D01*
X105557363Y-71645060D01*
X105582381Y-71631438D01*
X105598357Y-71632387D01*
X105684038Y-71628462D01*
X105742130Y-71614515D01*
X105842539Y-71612424D01*
X105948442Y-71654092D01*
X105948442Y-71654092D01*
G37*
X105948442Y-71654092D02*
X106015087Y-71714789D01*
X106028737Y-71769463D01*
X106038542Y-71873714D01*
X106042302Y-71999643D01*
X106040509Y-72130211D01*
X106031294Y-72204037D01*
X106010018Y-72236896D01*
X105972043Y-72244565D01*
X105970286Y-72244571D01*
X105931086Y-72237254D01*
X105909191Y-72204635D01*
X105899702Y-72130711D01*
X105897715Y-72007575D01*
X105893570Y-71871343D01*
X105878770Y-71791795D01*
X105849763Y-71753395D01*
X105838354Y-71747801D01*
X105753625Y-71740586D01*
X105694970Y-71796097D01*
X105660664Y-71916859D01*
X105651054Y-72021558D01*
X105639736Y-72153033D01*
X105619671Y-72223564D01*
X105587607Y-72244571D01*
X105587554Y-72244571D01*
X105561118Y-72230103D01*
X105544903Y-72178578D01*
X105536844Y-72077818D01*
X105534857Y-71933862D01*
X105536419Y-71782893D01*
X105542981Y-71691085D01*
X105557363Y-71645060D01*
X105582381Y-71631438D01*
X105598357Y-71632387D01*
X105684038Y-71628462D01*
X105742130Y-71614515D01*
X105842539Y-71612424D01*
X105948442Y-71654092D01*
G36*
X107421846Y-71635281D02*
X107507277Y-71706870D01*
X107551748Y-71830693D01*
X107558059Y-72001082D01*
X107511240Y-72139557D01*
X107473497Y-72187605D01*
X107393015Y-72228806D01*
X107281985Y-72243301D01*
X107172480Y-72230977D01*
X107096574Y-72191721D01*
X107094144Y-72188939D01*
X107062953Y-72120485D01*
X107038047Y-72012581D01*
X107036280Y-71998883D01*
X107171625Y-71998883D01*
X107179613Y-72076316D01*
X107182301Y-72085101D01*
X107231998Y-72127396D01*
X107313881Y-72130285D01*
X107378711Y-72104348D01*
X107410708Y-72043168D01*
X107415520Y-71922188D01*
X107414997Y-71914404D01*
X107404085Y-71815313D01*
X107380280Y-71768920D01*
X107328633Y-71755379D01*
X107294714Y-71754714D01*
X107223254Y-71761684D01*
X107189575Y-71796637D01*
X107175556Y-71880636D01*
X107174368Y-71894601D01*
X107171625Y-71998883D01*
X107036280Y-71998883D01*
X107031491Y-71961772D01*
X107038987Y-71797849D01*
X107096356Y-71684142D01*
X107201682Y-71623272D01*
X107286649Y-71613200D01*
X107421846Y-71635281D01*
X107421846Y-71635281D01*
G37*
X107421846Y-71635281D02*
X107507277Y-71706870D01*
X107551748Y-71830693D01*
X107558059Y-72001082D01*
X107511240Y-72139557D01*
X107473497Y-72187605D01*
X107393015Y-72228806D01*
X107281985Y-72243301D01*
X107172480Y-72230977D01*
X107096574Y-72191721D01*
X107094144Y-72188939D01*
X107062953Y-72120485D01*
X107038047Y-72012581D01*
X107036280Y-71998883D01*
X107171625Y-71998883D01*
X107179613Y-72076316D01*
X107182301Y-72085101D01*
X107231998Y-72127396D01*
X107313881Y-72130285D01*
X107378711Y-72104348D01*
X107410708Y-72043168D01*
X107415520Y-71922188D01*
X107414997Y-71914404D01*
X107404085Y-71815313D01*
X107380280Y-71768920D01*
X107328633Y-71755379D01*
X107294714Y-71754714D01*
X107223254Y-71761684D01*
X107189575Y-71796637D01*
X107175556Y-71880636D01*
X107174368Y-71894601D01*
X107171625Y-71998883D01*
X107036280Y-71998883D01*
X107031491Y-71961772D01*
X107038987Y-71797849D01*
X107096356Y-71684142D01*
X107201682Y-71623272D01*
X107286649Y-71613200D01*
X107421846Y-71635281D01*
G36*
X108727697Y-71625731D02*
X108757041Y-71670579D01*
X108728214Y-71714828D01*
X108654621Y-71745921D01*
X108591735Y-71753094D01*
X108538845Y-71757424D01*
X108508127Y-71779062D01*
X108492327Y-71834218D01*
X108484192Y-71939104D01*
X108481414Y-71999643D01*
X108473230Y-72130821D01*
X108459667Y-72204988D01*
X108435536Y-72237704D01*
X108399771Y-72244571D01*
X108365284Y-72238444D01*
X108344203Y-72210639D01*
X108333284Y-72147024D01*
X108329285Y-72033464D01*
X108328857Y-71935566D01*
X108328857Y-71626561D01*
X108428643Y-71630260D01*
X108532572Y-71625118D01*
X108601000Y-71612222D01*
X108685920Y-71609960D01*
X108727697Y-71625731D01*
X108727697Y-71625731D01*
G37*
X108727697Y-71625731D02*
X108757041Y-71670579D01*
X108728214Y-71714828D01*
X108654621Y-71745921D01*
X108591735Y-71753094D01*
X108538845Y-71757424D01*
X108508127Y-71779062D01*
X108492327Y-71834218D01*
X108484192Y-71939104D01*
X108481414Y-71999643D01*
X108473230Y-72130821D01*
X108459667Y-72204988D01*
X108435536Y-72237704D01*
X108399771Y-72244571D01*
X108365284Y-72238444D01*
X108344203Y-72210639D01*
X108333284Y-72147024D01*
X108329285Y-72033464D01*
X108328857Y-71935566D01*
X108328857Y-71626561D01*
X108428643Y-71630260D01*
X108532572Y-71625118D01*
X108601000Y-71612222D01*
X108685920Y-71609960D01*
X108727697Y-71625731D01*
G36*
X107128278Y-67049982D02*
X107152973Y-67189096D01*
X107176797Y-67301480D01*
X107195353Y-67366856D01*
X107198316Y-67372956D01*
X107242371Y-67405720D01*
X107333687Y-67453143D01*
X107439857Y-67499662D01*
X107657572Y-67587946D01*
X107919004Y-67412545D01*
X108039955Y-67333420D01*
X108138289Y-67272847D01*
X108198475Y-67240244D01*
X108208314Y-67237143D01*
X108244972Y-67261075D01*
X108319079Y-67325005D01*
X108417257Y-67417131D01*
X108461777Y-67460724D01*
X108687363Y-67684305D01*
X108501439Y-67950596D01*
X108315515Y-68216886D01*
X108400290Y-68425515D01*
X108449952Y-68542338D01*
X108492778Y-68633728D01*
X108515372Y-68673609D01*
X108563928Y-68698891D01*
X108663710Y-68728802D01*
X108794162Y-68757294D01*
X108809197Y-68760028D01*
X108944271Y-68785280D01*
X109053689Y-68807899D01*
X109115525Y-68823325D01*
X109118072Y-68824230D01*
X109136755Y-68864119D01*
X109151215Y-68955006D01*
X109160916Y-69077244D01*
X109165322Y-69211185D01*
X109163897Y-69337182D01*
X109156107Y-69435586D01*
X109141415Y-69486751D01*
X109136214Y-69489915D01*
X109090145Y-69498351D01*
X108991940Y-69518041D01*
X108860456Y-69545186D01*
X108821148Y-69553415D01*
X108533295Y-69613857D01*
X108430808Y-69864954D01*
X108328322Y-70116051D01*
X108508016Y-70375987D01*
X108687709Y-70635923D01*
X108461950Y-70859676D01*
X108357750Y-70960048D01*
X108272167Y-71037119D01*
X108218540Y-71079098D01*
X108208813Y-71083429D01*
X108167760Y-71064496D01*
X108083259Y-71014255D01*
X107971644Y-70942543D01*
X107941030Y-70922152D01*
X107819649Y-70842484D01*
X107740171Y-70798599D01*
X107684904Y-70784862D01*
X107636158Y-70795640D01*
X107599257Y-70813295D01*
X107518035Y-70850296D01*
X107464965Y-70865714D01*
X107464926Y-70865714D01*
X107442292Y-70834305D01*
X107399024Y-70749443D01*
X107341132Y-70625180D01*
X107274629Y-70475567D01*
X107205524Y-70314655D01*
X107139829Y-70156494D01*
X107083555Y-70015136D01*
X107042713Y-69904631D01*
X107023314Y-69839031D01*
X107022517Y-69831571D01*
X107048691Y-69789017D01*
X107114806Y-69723313D01*
X107153410Y-69690891D01*
X107300220Y-69533006D01*
X107386370Y-69351725D01*
X107414149Y-69159758D01*
X107385849Y-68969817D01*
X107303761Y-68794611D01*
X107170175Y-68646853D01*
X106987382Y-68539251D01*
X106942912Y-68522931D01*
X106735120Y-68487746D01*
X106539294Y-68516022D01*
X106365048Y-68598687D01*
X106221995Y-68726670D01*
X106119750Y-68890898D01*
X106067926Y-69082300D01*
X106076138Y-69291803D01*
X106085138Y-69332347D01*
X106137356Y-69469353D01*
X106229279Y-69595539D01*
X106298194Y-69665560D01*
X106467925Y-69826711D01*
X106258244Y-70336190D01*
X106182777Y-70514257D01*
X106113900Y-70666999D01*
X106057367Y-70782383D01*
X106018929Y-70848377D01*
X106008262Y-70859103D01*
X105951904Y-70850422D01*
X105874249Y-70811135D01*
X105825515Y-70782615D01*
X105781966Y-70775164D01*
X105726778Y-70794031D01*
X105643127Y-70844467D01*
X105536346Y-70916580D01*
X105418880Y-70994161D01*
X105323015Y-71052538D01*
X105265277Y-71081801D01*
X105258156Y-71083429D01*
X105218418Y-71059241D01*
X105142928Y-70994975D01*
X105046015Y-70903070D01*
X105016650Y-70873733D01*
X104920358Y-70773369D01*
X104847815Y-70691937D01*
X104811263Y-70643377D01*
X104809143Y-70637441D01*
X104827970Y-70596861D01*
X104878056Y-70512265D01*
X104949806Y-70399618D01*
X104975111Y-70361251D01*
X105141080Y-70111658D01*
X105037931Y-69862758D01*
X104934783Y-69613857D01*
X104645177Y-69553415D01*
X104507431Y-69524969D01*
X104397779Y-69502888D01*
X104335017Y-69490938D01*
X104328357Y-69489915D01*
X104316321Y-69454924D01*
X104307009Y-69363829D01*
X104301792Y-69233085D01*
X104301143Y-69162731D01*
X104300799Y-69011417D01*
X104305436Y-68947717D01*
X104446286Y-68947717D01*
X104446286Y-69401724D01*
X105008714Y-69505000D01*
X105112797Y-69719932D01*
X105193720Y-69902896D01*
X105233241Y-70045182D01*
X105231091Y-70165898D01*
X105187002Y-70284151D01*
X105103026Y-70415815D01*
X104952803Y-70625599D01*
X105106242Y-70781942D01*
X105190459Y-70864679D01*
X105253874Y-70921308D01*
X105279341Y-70938170D01*
X105317036Y-70919431D01*
X105397994Y-70870168D01*
X105505443Y-70800628D01*
X105516714Y-70793143D01*
X105670575Y-70699478D01*
X105779506Y-70654835D01*
X105850185Y-70657211D01*
X105879572Y-70684286D01*
X105923094Y-70719134D01*
X105932453Y-70720571D01*
X105955345Y-70689523D01*
X105998470Y-70606804D01*
X106054934Y-70488056D01*
X106117842Y-70348919D01*
X106180301Y-70205033D01*
X106235414Y-70072038D01*
X106276289Y-69965576D01*
X106296030Y-69901285D01*
X106296857Y-69893908D01*
X106272591Y-69852238D01*
X106211710Y-69784262D01*
X106183425Y-69756717D01*
X106041394Y-69578523D01*
X105960200Y-69378021D01*
X105936869Y-69167469D01*
X105968427Y-68959125D01*
X106051900Y-68765248D01*
X106184315Y-68598095D01*
X106362698Y-68469924D01*
X106509908Y-68410949D01*
X106739209Y-68376108D01*
X106949571Y-68403150D01*
X107135789Y-68482697D01*
X107292657Y-68605372D01*
X107414969Y-68761797D01*
X107497519Y-68942595D01*
X107535102Y-69138387D01*
X107522512Y-69339797D01*
X107454543Y-69537447D01*
X107325989Y-69721960D01*
X107269132Y-69778597D01*
X107159505Y-69878726D01*
X107332539Y-70301365D01*
X107408348Y-70481578D01*
X107464874Y-70602329D01*
X107507258Y-70672494D01*
X107540640Y-70700950D01*
X107563429Y-70700028D01*
X107648839Y-70671322D01*
X107722988Y-70669875D01*
X107807310Y-70700632D01*
X107923241Y-70768538D01*
X107958558Y-70791177D01*
X108071973Y-70862239D01*
X108161907Y-70914446D01*
X108211126Y-70937868D01*
X108213860Y-70938286D01*
X108252568Y-70914308D01*
X108322920Y-70852562D01*
X108381425Y-70795048D01*
X108521293Y-70651811D01*
X108370647Y-70420590D01*
X108297469Y-70299039D01*
X108243907Y-70192469D01*
X108220324Y-70121795D01*
X108220000Y-70116512D01*
X108233673Y-70046653D01*
X108268751Y-69935352D01*
X108316326Y-69805826D01*
X108367487Y-69681290D01*
X108413326Y-69584960D01*
X108439533Y-69544464D01*
X108488177Y-69521946D01*
X108588583Y-69492023D01*
X108721133Y-69460371D01*
X108753851Y-69453496D01*
X109036429Y-69395636D01*
X109047119Y-69173446D01*
X109057809Y-68951255D01*
X108920119Y-68925931D01*
X108727249Y-68890485D01*
X108591712Y-68861817D01*
X108499844Y-68831677D01*
X108437979Y-68791815D01*
X108392452Y-68733981D01*
X108349598Y-68649927D01*
X108306908Y-68555738D01*
X108249528Y-68424860D01*
X108206395Y-68317021D01*
X108184868Y-68250931D01*
X108183715Y-68242544D01*
X108203197Y-68194416D01*
X108254986Y-68104324D01*
X108329092Y-67989279D01*
X108353596Y-67953291D01*
X108523477Y-67706902D01*
X108366731Y-67547189D01*
X108209984Y-67387476D01*
X107970451Y-67548167D01*
X107846976Y-67624707D01*
X107737557Y-67681455D01*
X107662589Y-67708062D01*
X107653726Y-67708857D01*
X107567960Y-67693341D01*
X107445451Y-67653923D01*
X107313254Y-67601293D01*
X107198422Y-67546145D01*
X107131429Y-67502430D01*
X107098673Y-67444546D01*
X107061547Y-67336433D01*
X107027183Y-67199516D01*
X107021688Y-67172692D01*
X106966375Y-66892428D01*
X106752911Y-66881376D01*
X106619560Y-66879157D01*
X106539697Y-66899500D01*
X106495726Y-66957123D01*
X106470049Y-67066747D01*
X106461412Y-67125217D01*
X106433519Y-67296626D01*
X106399316Y-67413169D01*
X106346968Y-67492342D01*
X106264636Y-67551640D01*
X106140485Y-67608558D01*
X106132057Y-67612030D01*
X106001278Y-67661064D01*
X105886995Y-67695761D01*
X105815353Y-67708466D01*
X105747830Y-67688170D01*
X105643059Y-67634853D01*
X105521680Y-67559257D01*
X105499929Y-67544300D01*
X105265430Y-67380525D01*
X104947074Y-67698881D01*
X105119613Y-67958356D01*
X105200300Y-68083694D01*
X105248461Y-68180622D01*
X105264182Y-68268046D01*
X105247550Y-68364871D01*
X105198653Y-68490002D01*
X105122814Y-68651443D01*
X105078023Y-68735523D01*
X105028962Y-68793677D01*
X104959603Y-68834707D01*
X104853920Y-68867415D01*
X104695885Y-68900602D01*
X104654929Y-68908384D01*
X104446286Y-68947717D01*
X104305436Y-68947717D01*
X104308058Y-68911714D01*
X104335357Y-68850215D01*
X104395136Y-68813512D01*
X104499832Y-68788199D01*
X104661882Y-68760868D01*
X104676202Y-68758447D01*
X104824684Y-68725548D01*
X104927489Y-68676685D01*
X105000980Y-68596541D01*
X105061520Y-68469797D01*
X105099304Y-68362378D01*
X105120972Y-68289636D01*
X105125038Y-68231753D01*
X105105732Y-68169756D01*
X105057284Y-68084674D01*
X104978076Y-67963779D01*
X104900744Y-67844269D01*
X104842024Y-67747403D01*
X104811440Y-67689127D01*
X104809143Y-67680942D01*
X104833984Y-67640597D01*
X104898216Y-67567693D01*
X104986399Y-67477213D01*
X105083096Y-67384140D01*
X105172869Y-67303461D01*
X105240280Y-67250158D01*
X105266389Y-67237143D01*
X105312349Y-67256715D01*
X105399928Y-67308563D01*
X105511977Y-67382381D01*
X105537480Y-67400037D01*
X105655860Y-67477747D01*
X105757261Y-67535418D01*
X105822808Y-67562504D01*
X105829699Y-67563323D01*
X105893502Y-67549466D01*
X105997153Y-67513242D01*
X106086372Y-67476287D01*
X106284060Y-67388860D01*
X106331520Y-67122502D01*
X106356883Y-66986743D01*
X106379599Y-66876608D01*
X106395151Y-66813860D01*
X106396230Y-66810786D01*
X106434505Y-66786616D01*
X106531208Y-66771851D01*
X106692391Y-66765709D01*
X106747773Y-66765429D01*
X107082067Y-66765429D01*
X107128278Y-67049982D01*
X107128278Y-67049982D01*
G37*
X107128278Y-67049982D02*
X107152973Y-67189096D01*
X107176797Y-67301480D01*
X107195353Y-67366856D01*
X107198316Y-67372956D01*
X107242371Y-67405720D01*
X107333687Y-67453143D01*
X107439857Y-67499662D01*
X107657572Y-67587946D01*
X107919004Y-67412545D01*
X108039955Y-67333420D01*
X108138289Y-67272847D01*
X108198475Y-67240244D01*
X108208314Y-67237143D01*
X108244972Y-67261075D01*
X108319079Y-67325005D01*
X108417257Y-67417131D01*
X108461777Y-67460724D01*
X108687363Y-67684305D01*
X108501439Y-67950596D01*
X108315515Y-68216886D01*
X108400290Y-68425515D01*
X108449952Y-68542338D01*
X108492778Y-68633728D01*
X108515372Y-68673609D01*
X108563928Y-68698891D01*
X108663710Y-68728802D01*
X108794162Y-68757294D01*
X108809197Y-68760028D01*
X108944271Y-68785280D01*
X109053689Y-68807899D01*
X109115525Y-68823325D01*
X109118072Y-68824230D01*
X109136755Y-68864119D01*
X109151215Y-68955006D01*
X109160916Y-69077244D01*
X109165322Y-69211185D01*
X109163897Y-69337182D01*
X109156107Y-69435586D01*
X109141415Y-69486751D01*
X109136214Y-69489915D01*
X109090145Y-69498351D01*
X108991940Y-69518041D01*
X108860456Y-69545186D01*
X108821148Y-69553415D01*
X108533295Y-69613857D01*
X108430808Y-69864954D01*
X108328322Y-70116051D01*
X108508016Y-70375987D01*
X108687709Y-70635923D01*
X108461950Y-70859676D01*
X108357750Y-70960048D01*
X108272167Y-71037119D01*
X108218540Y-71079098D01*
X108208813Y-71083429D01*
X108167760Y-71064496D01*
X108083259Y-71014255D01*
X107971644Y-70942543D01*
X107941030Y-70922152D01*
X107819649Y-70842484D01*
X107740171Y-70798599D01*
X107684904Y-70784862D01*
X107636158Y-70795640D01*
X107599257Y-70813295D01*
X107518035Y-70850296D01*
X107464965Y-70865714D01*
X107464926Y-70865714D01*
X107442292Y-70834305D01*
X107399024Y-70749443D01*
X107341132Y-70625180D01*
X107274629Y-70475567D01*
X107205524Y-70314655D01*
X107139829Y-70156494D01*
X107083555Y-70015136D01*
X107042713Y-69904631D01*
X107023314Y-69839031D01*
X107022517Y-69831571D01*
X107048691Y-69789017D01*
X107114806Y-69723313D01*
X107153410Y-69690891D01*
X107300220Y-69533006D01*
X107386370Y-69351725D01*
X107414149Y-69159758D01*
X107385849Y-68969817D01*
X107303761Y-68794611D01*
X107170175Y-68646853D01*
X106987382Y-68539251D01*
X106942912Y-68522931D01*
X106735120Y-68487746D01*
X106539294Y-68516022D01*
X106365048Y-68598687D01*
X106221995Y-68726670D01*
X106119750Y-68890898D01*
X106067926Y-69082300D01*
X106076138Y-69291803D01*
X106085138Y-69332347D01*
X106137356Y-69469353D01*
X106229279Y-69595539D01*
X106298194Y-69665560D01*
X106467925Y-69826711D01*
X106258244Y-70336190D01*
X106182777Y-70514257D01*
X106113900Y-70666999D01*
X106057367Y-70782383D01*
X106018929Y-70848377D01*
X106008262Y-70859103D01*
X105951904Y-70850422D01*
X105874249Y-70811135D01*
X105825515Y-70782615D01*
X105781966Y-70775164D01*
X105726778Y-70794031D01*
X105643127Y-70844467D01*
X105536346Y-70916580D01*
X105418880Y-70994161D01*
X105323015Y-71052538D01*
X105265277Y-71081801D01*
X105258156Y-71083429D01*
X105218418Y-71059241D01*
X105142928Y-70994975D01*
X105046015Y-70903070D01*
X105016650Y-70873733D01*
X104920358Y-70773369D01*
X104847815Y-70691937D01*
X104811263Y-70643377D01*
X104809143Y-70637441D01*
X104827970Y-70596861D01*
X104878056Y-70512265D01*
X104949806Y-70399618D01*
X104975111Y-70361251D01*
X105141080Y-70111658D01*
X105037931Y-69862758D01*
X104934783Y-69613857D01*
X104645177Y-69553415D01*
X104507431Y-69524969D01*
X104397779Y-69502888D01*
X104335017Y-69490938D01*
X104328357Y-69489915D01*
X104316321Y-69454924D01*
X104307009Y-69363829D01*
X104301792Y-69233085D01*
X104301143Y-69162731D01*
X104300799Y-69011417D01*
X104305436Y-68947717D01*
X104446286Y-68947717D01*
X104446286Y-69401724D01*
X105008714Y-69505000D01*
X105112797Y-69719932D01*
X105193720Y-69902896D01*
X105233241Y-70045182D01*
X105231091Y-70165898D01*
X105187002Y-70284151D01*
X105103026Y-70415815D01*
X104952803Y-70625599D01*
X105106242Y-70781942D01*
X105190459Y-70864679D01*
X105253874Y-70921308D01*
X105279341Y-70938170D01*
X105317036Y-70919431D01*
X105397994Y-70870168D01*
X105505443Y-70800628D01*
X105516714Y-70793143D01*
X105670575Y-70699478D01*
X105779506Y-70654835D01*
X105850185Y-70657211D01*
X105879572Y-70684286D01*
X105923094Y-70719134D01*
X105932453Y-70720571D01*
X105955345Y-70689523D01*
X105998470Y-70606804D01*
X106054934Y-70488056D01*
X106117842Y-70348919D01*
X106180301Y-70205033D01*
X106235414Y-70072038D01*
X106276289Y-69965576D01*
X106296030Y-69901285D01*
X106296857Y-69893908D01*
X106272591Y-69852238D01*
X106211710Y-69784262D01*
X106183425Y-69756717D01*
X106041394Y-69578523D01*
X105960200Y-69378021D01*
X105936869Y-69167469D01*
X105968427Y-68959125D01*
X106051900Y-68765248D01*
X106184315Y-68598095D01*
X106362698Y-68469924D01*
X106509908Y-68410949D01*
X106739209Y-68376108D01*
X106949571Y-68403150D01*
X107135789Y-68482697D01*
X107292657Y-68605372D01*
X107414969Y-68761797D01*
X107497519Y-68942595D01*
X107535102Y-69138387D01*
X107522512Y-69339797D01*
X107454543Y-69537447D01*
X107325989Y-69721960D01*
X107269132Y-69778597D01*
X107159505Y-69878726D01*
X107332539Y-70301365D01*
X107408348Y-70481578D01*
X107464874Y-70602329D01*
X107507258Y-70672494D01*
X107540640Y-70700950D01*
X107563429Y-70700028D01*
X107648839Y-70671322D01*
X107722988Y-70669875D01*
X107807310Y-70700632D01*
X107923241Y-70768538D01*
X107958558Y-70791177D01*
X108071973Y-70862239D01*
X108161907Y-70914446D01*
X108211126Y-70937868D01*
X108213860Y-70938286D01*
X108252568Y-70914308D01*
X108322920Y-70852562D01*
X108381425Y-70795048D01*
X108521293Y-70651811D01*
X108370647Y-70420590D01*
X108297469Y-70299039D01*
X108243907Y-70192469D01*
X108220324Y-70121795D01*
X108220000Y-70116512D01*
X108233673Y-70046653D01*
X108268751Y-69935352D01*
X108316326Y-69805826D01*
X108367487Y-69681290D01*
X108413326Y-69584960D01*
X108439533Y-69544464D01*
X108488177Y-69521946D01*
X108588583Y-69492023D01*
X108721133Y-69460371D01*
X108753851Y-69453496D01*
X109036429Y-69395636D01*
X109047119Y-69173446D01*
X109057809Y-68951255D01*
X108920119Y-68925931D01*
X108727249Y-68890485D01*
X108591712Y-68861817D01*
X108499844Y-68831677D01*
X108437979Y-68791815D01*
X108392452Y-68733981D01*
X108349598Y-68649927D01*
X108306908Y-68555738D01*
X108249528Y-68424860D01*
X108206395Y-68317021D01*
X108184868Y-68250931D01*
X108183715Y-68242544D01*
X108203197Y-68194416D01*
X108254986Y-68104324D01*
X108329092Y-67989279D01*
X108353596Y-67953291D01*
X108523477Y-67706902D01*
X108366731Y-67547189D01*
X108209984Y-67387476D01*
X107970451Y-67548167D01*
X107846976Y-67624707D01*
X107737557Y-67681455D01*
X107662589Y-67708062D01*
X107653726Y-67708857D01*
X107567960Y-67693341D01*
X107445451Y-67653923D01*
X107313254Y-67601293D01*
X107198422Y-67546145D01*
X107131429Y-67502430D01*
X107098673Y-67444546D01*
X107061547Y-67336433D01*
X107027183Y-67199516D01*
X107021688Y-67172692D01*
X106966375Y-66892428D01*
X106752911Y-66881376D01*
X106619560Y-66879157D01*
X106539697Y-66899500D01*
X106495726Y-66957123D01*
X106470049Y-67066747D01*
X106461412Y-67125217D01*
X106433519Y-67296626D01*
X106399316Y-67413169D01*
X106346968Y-67492342D01*
X106264636Y-67551640D01*
X106140485Y-67608558D01*
X106132057Y-67612030D01*
X106001278Y-67661064D01*
X105886995Y-67695761D01*
X105815353Y-67708466D01*
X105747830Y-67688170D01*
X105643059Y-67634853D01*
X105521680Y-67559257D01*
X105499929Y-67544300D01*
X105265430Y-67380525D01*
X104947074Y-67698881D01*
X105119613Y-67958356D01*
X105200300Y-68083694D01*
X105248461Y-68180622D01*
X105264182Y-68268046D01*
X105247550Y-68364871D01*
X105198653Y-68490002D01*
X105122814Y-68651443D01*
X105078023Y-68735523D01*
X105028962Y-68793677D01*
X104959603Y-68834707D01*
X104853920Y-68867415D01*
X104695885Y-68900602D01*
X104654929Y-68908384D01*
X104446286Y-68947717D01*
X104305436Y-68947717D01*
X104308058Y-68911714D01*
X104335357Y-68850215D01*
X104395136Y-68813512D01*
X104499832Y-68788199D01*
X104661882Y-68760868D01*
X104676202Y-68758447D01*
X104824684Y-68725548D01*
X104927489Y-68676685D01*
X105000980Y-68596541D01*
X105061520Y-68469797D01*
X105099304Y-68362378D01*
X105120972Y-68289636D01*
X105125038Y-68231753D01*
X105105732Y-68169756D01*
X105057284Y-68084674D01*
X104978076Y-67963779D01*
X104900744Y-67844269D01*
X104842024Y-67747403D01*
X104811440Y-67689127D01*
X104809143Y-67680942D01*
X104833984Y-67640597D01*
X104898216Y-67567693D01*
X104986399Y-67477213D01*
X105083096Y-67384140D01*
X105172869Y-67303461D01*
X105240280Y-67250158D01*
X105266389Y-67237143D01*
X105312349Y-67256715D01*
X105399928Y-67308563D01*
X105511977Y-67382381D01*
X105537480Y-67400037D01*
X105655860Y-67477747D01*
X105757261Y-67535418D01*
X105822808Y-67562504D01*
X105829699Y-67563323D01*
X105893502Y-67549466D01*
X105997153Y-67513242D01*
X106086372Y-67476287D01*
X106284060Y-67388860D01*
X106331520Y-67122502D01*
X106356883Y-66986743D01*
X106379599Y-66876608D01*
X106395151Y-66813860D01*
X106396230Y-66810786D01*
X106434505Y-66786616D01*
X106531208Y-66771851D01*
X106692391Y-66765709D01*
X106747773Y-66765429D01*
X107082067Y-66765429D01*
X107128278Y-67049982D01*
G36*
X105355199Y-114583441D02*
X105534350Y-114610785D01*
X105588000Y-114623533D01*
X105877865Y-114723601D01*
X106144993Y-114862376D01*
X106386300Y-115036774D01*
X106598702Y-115243710D01*
X106779115Y-115480100D01*
X106924453Y-115742860D01*
X107031632Y-116028905D01*
X107046467Y-116082000D01*
X107078873Y-116250391D01*
X107096474Y-116444947D01*
X107099254Y-116649574D01*
X107087191Y-116848177D01*
X107060269Y-117024662D01*
X107047646Y-117077066D01*
X106945334Y-117371283D01*
X106805269Y-117640578D01*
X106629928Y-117882409D01*
X106421788Y-118094235D01*
X106183328Y-118273515D01*
X105917024Y-118417708D01*
X105641031Y-118519722D01*
X105467491Y-118558606D01*
X105269418Y-118583156D01*
X105064189Y-118592492D01*
X104869185Y-118585735D01*
X104722091Y-118566223D01*
X104424939Y-118485241D01*
X104148481Y-118363979D01*
X103895786Y-118204847D01*
X103669923Y-118010251D01*
X103473962Y-117782600D01*
X103310972Y-117524300D01*
X103257878Y-117417660D01*
X103190626Y-117262507D01*
X103142573Y-117123383D01*
X103110928Y-116986528D01*
X103092901Y-116838184D01*
X103085699Y-116664595D01*
X103085274Y-116566909D01*
X103085903Y-116509656D01*
X103314304Y-116509656D01*
X103317966Y-116721791D01*
X103341623Y-116922283D01*
X103367999Y-117038966D01*
X103467716Y-117310442D01*
X103605150Y-117557882D01*
X103776891Y-117778251D01*
X103979529Y-117968513D01*
X104209654Y-118125633D01*
X104463857Y-118246576D01*
X104738728Y-118328305D01*
X104837004Y-118346736D01*
X104962551Y-118357616D01*
X105115299Y-118356961D01*
X105278043Y-118345922D01*
X105433578Y-118325649D01*
X105560952Y-118298341D01*
X105827325Y-118200556D01*
X106081115Y-118058881D01*
X106268977Y-117918662D01*
X106338044Y-117860932D01*
X106188826Y-117710375D01*
X106112288Y-117635995D01*
X106056430Y-117590321D01*
X106011812Y-117567054D01*
X105968992Y-117559895D01*
X105963153Y-117559819D01*
X105859309Y-117543174D01*
X105751298Y-117499704D01*
X105663361Y-117439237D01*
X105611091Y-117390132D01*
X105611091Y-117463430D01*
X105608868Y-117506811D01*
X105594251Y-117528442D01*
X105555318Y-117535892D01*
X105495637Y-117536728D01*
X105380182Y-117536728D01*
X105380182Y-116945777D01*
X105281350Y-116857290D01*
X105599546Y-116857290D01*
X105849901Y-117093100D01*
X105938629Y-117175723D01*
X106015703Y-117245703D01*
X106074852Y-117297486D01*
X106109808Y-117325518D01*
X106116082Y-117328909D01*
X106144883Y-117316953D01*
X106183535Y-117292747D01*
X106245647Y-117224850D01*
X106295547Y-117123117D01*
X106330793Y-116998849D01*
X106348946Y-116863344D01*
X106347565Y-116727905D01*
X106328844Y-116619914D01*
X106278606Y-116502054D01*
X106202760Y-116409089D01*
X106109157Y-116345487D01*
X106005647Y-116315716D01*
X105900083Y-116324244D01*
X105846626Y-116345484D01*
X105736525Y-116428004D01*
X105658420Y-116542212D01*
X105614356Y-116684644D01*
X105606461Y-116752509D01*
X105599546Y-116857290D01*
X105281350Y-116857290D01*
X105055300Y-116654903D01*
X104957968Y-116696146D01*
X104909742Y-116712539D01*
X104848036Y-116724907D01*
X104765145Y-116734038D01*
X104653366Y-116740718D01*
X104504996Y-116745736D01*
X104462319Y-116746798D01*
X104064000Y-116756206D01*
X104064000Y-117536728D01*
X103810000Y-117536728D01*
X103810000Y-115851091D01*
X104064000Y-115851091D01*
X104064000Y-116520728D01*
X104397315Y-116520728D01*
X104521661Y-116519201D01*
X104633689Y-116515010D01*
X104723220Y-116508739D01*
X104780078Y-116500972D01*
X104789861Y-116498208D01*
X104832435Y-116476041D01*
X104846863Y-116457799D01*
X104829968Y-116437210D01*
X104784304Y-116390668D01*
X104715201Y-116323364D01*
X104627991Y-116240488D01*
X104528003Y-116147232D01*
X104526130Y-116145500D01*
X104409920Y-116039132D01*
X104321383Y-115961046D01*
X104255186Y-115907221D01*
X104205998Y-115873637D01*
X104168489Y-115856270D01*
X104163871Y-115855504D01*
X104525603Y-115855504D01*
X104525819Y-115855720D01*
X104546148Y-115874462D01*
X104593379Y-115918479D01*
X104660738Y-115981444D01*
X104741449Y-116057031D01*
X104752008Y-116066929D01*
X104834419Y-116141652D01*
X104905763Y-116201610D01*
X104959022Y-116241239D01*
X104987176Y-116254976D01*
X104988690Y-116254531D01*
X105005652Y-116223298D01*
X105010728Y-116183805D01*
X104992330Y-116088295D01*
X104943729Y-115990649D01*
X104885958Y-115921411D01*
X104839970Y-115887959D01*
X104782488Y-115868116D01*
X104698249Y-115857218D01*
X104669391Y-115855232D01*
X104593719Y-115851838D01*
X104542214Y-115851941D01*
X104525603Y-115855504D01*
X104163871Y-115855504D01*
X104137326Y-115851102D01*
X104135813Y-115851091D01*
X104064000Y-115851091D01*
X103810000Y-115851091D01*
X103810000Y-115620182D01*
X103957918Y-115620182D01*
X103867728Y-115527819D01*
X103812909Y-115476794D01*
X103767293Y-115443250D01*
X103747732Y-115435455D01*
X103709578Y-115455895D01*
X103659822Y-115512183D01*
X103602652Y-115596769D01*
X103542260Y-115702103D01*
X103482834Y-115820634D01*
X103428566Y-115944813D01*
X103383643Y-116067089D01*
X103367036Y-116121451D01*
X103330654Y-116303627D01*
X103314304Y-116509656D01*
X103085903Y-116509656D01*
X103086821Y-116426186D01*
X103091138Y-116318988D01*
X103099705Y-116232678D01*
X103114005Y-116154619D01*
X103135520Y-116072173D01*
X103148346Y-116028970D01*
X103260541Y-115734881D01*
X103409151Y-115467885D01*
X103569718Y-115259063D01*
X103893177Y-115259063D01*
X104082852Y-115436904D01*
X104272528Y-115614744D01*
X104566582Y-115624575D01*
X104704825Y-115630881D01*
X104807221Y-115640107D01*
X104884080Y-115653718D01*
X104945716Y-115673180D01*
X104964546Y-115681170D01*
X105074286Y-115749786D01*
X105166409Y-115843685D01*
X105228726Y-115949514D01*
X105240248Y-115983233D01*
X105260239Y-116099972D01*
X105262241Y-116226586D01*
X105246796Y-116342755D01*
X105229131Y-116399588D01*
X105193534Y-116484783D01*
X105273771Y-116560483D01*
X105323341Y-116604886D01*
X105358571Y-116632121D01*
X105367095Y-116636182D01*
X105370893Y-116614189D01*
X105374257Y-116552597D01*
X105377020Y-116457991D01*
X105379011Y-116336952D01*
X105380061Y-116196064D01*
X105380182Y-116126975D01*
X105380182Y-115617769D01*
X105501409Y-115624748D01*
X105622637Y-115631728D01*
X105629060Y-115949124D01*
X105635484Y-116266521D01*
X105729888Y-116204047D01*
X105841055Y-116154061D01*
X105973993Y-116130197D01*
X106111401Y-116133959D01*
X106222182Y-116161279D01*
X106349552Y-116233843D01*
X106452502Y-116342589D01*
X106528602Y-116483087D01*
X106575419Y-116650910D01*
X106590560Y-116832455D01*
X106578704Y-117011285D01*
X106540640Y-117160255D01*
X106472620Y-117289860D01*
X106391753Y-117389161D01*
X106279005Y-117508375D01*
X106378002Y-117591372D01*
X106434102Y-117636881D01*
X106474954Y-117667200D01*
X106488546Y-117674776D01*
X106506642Y-117657491D01*
X106541503Y-117612357D01*
X106574348Y-117565547D01*
X106709406Y-117325586D01*
X106802447Y-117066529D01*
X106853491Y-116788304D01*
X106864250Y-116578455D01*
X106847172Y-116306623D01*
X106793920Y-116057716D01*
X106701947Y-115822999D01*
X106583121Y-115615396D01*
X106405865Y-115384948D01*
X106200758Y-115191058D01*
X105967120Y-115033246D01*
X105704270Y-114911033D01*
X105484091Y-114841546D01*
X105356412Y-114818976D01*
X105200043Y-114807193D01*
X105031178Y-114806116D01*
X104866009Y-114815661D01*
X104720732Y-114835746D01*
X104675909Y-114845669D01*
X104509970Y-114897963D01*
X104337115Y-114970520D01*
X104174054Y-115055375D01*
X104037495Y-115144560D01*
X104018998Y-115158877D01*
X103893177Y-115259063D01*
X103569718Y-115259063D01*
X103591953Y-115230146D01*
X103806723Y-115023829D01*
X104051238Y-114851100D01*
X104323274Y-114714124D01*
X104592935Y-114622355D01*
X104758161Y-114590345D01*
X104951010Y-114573202D01*
X105155388Y-114570907D01*
X105355199Y-114583441D01*
X105355199Y-114583441D01*
G37*
X105355199Y-114583441D02*
X105534350Y-114610785D01*
X105588000Y-114623533D01*
X105877865Y-114723601D01*
X106144993Y-114862376D01*
X106386300Y-115036774D01*
X106598702Y-115243710D01*
X106779115Y-115480100D01*
X106924453Y-115742860D01*
X107031632Y-116028905D01*
X107046467Y-116082000D01*
X107078873Y-116250391D01*
X107096474Y-116444947D01*
X107099254Y-116649574D01*
X107087191Y-116848177D01*
X107060269Y-117024662D01*
X107047646Y-117077066D01*
X106945334Y-117371283D01*
X106805269Y-117640578D01*
X106629928Y-117882409D01*
X106421788Y-118094235D01*
X106183328Y-118273515D01*
X105917024Y-118417708D01*
X105641031Y-118519722D01*
X105467491Y-118558606D01*
X105269418Y-118583156D01*
X105064189Y-118592492D01*
X104869185Y-118585735D01*
X104722091Y-118566223D01*
X104424939Y-118485241D01*
X104148481Y-118363979D01*
X103895786Y-118204847D01*
X103669923Y-118010251D01*
X103473962Y-117782600D01*
X103310972Y-117524300D01*
X103257878Y-117417660D01*
X103190626Y-117262507D01*
X103142573Y-117123383D01*
X103110928Y-116986528D01*
X103092901Y-116838184D01*
X103085699Y-116664595D01*
X103085274Y-116566909D01*
X103085903Y-116509656D01*
X103314304Y-116509656D01*
X103317966Y-116721791D01*
X103341623Y-116922283D01*
X103367999Y-117038966D01*
X103467716Y-117310442D01*
X103605150Y-117557882D01*
X103776891Y-117778251D01*
X103979529Y-117968513D01*
X104209654Y-118125633D01*
X104463857Y-118246576D01*
X104738728Y-118328305D01*
X104837004Y-118346736D01*
X104962551Y-118357616D01*
X105115299Y-118356961D01*
X105278043Y-118345922D01*
X105433578Y-118325649D01*
X105560952Y-118298341D01*
X105827325Y-118200556D01*
X106081115Y-118058881D01*
X106268977Y-117918662D01*
X106338044Y-117860932D01*
X106188826Y-117710375D01*
X106112288Y-117635995D01*
X106056430Y-117590321D01*
X106011812Y-117567054D01*
X105968992Y-117559895D01*
X105963153Y-117559819D01*
X105859309Y-117543174D01*
X105751298Y-117499704D01*
X105663361Y-117439237D01*
X105611091Y-117390132D01*
X105611091Y-117463430D01*
X105608868Y-117506811D01*
X105594251Y-117528442D01*
X105555318Y-117535892D01*
X105495637Y-117536728D01*
X105380182Y-117536728D01*
X105380182Y-116945777D01*
X105281350Y-116857290D01*
X105599546Y-116857290D01*
X105849901Y-117093100D01*
X105938629Y-117175723D01*
X106015703Y-117245703D01*
X106074852Y-117297486D01*
X106109808Y-117325518D01*
X106116082Y-117328909D01*
X106144883Y-117316953D01*
X106183535Y-117292747D01*
X106245647Y-117224850D01*
X106295547Y-117123117D01*
X106330793Y-116998849D01*
X106348946Y-116863344D01*
X106347565Y-116727905D01*
X106328844Y-116619914D01*
X106278606Y-116502054D01*
X106202760Y-116409089D01*
X106109157Y-116345487D01*
X106005647Y-116315716D01*
X105900083Y-116324244D01*
X105846626Y-116345484D01*
X105736525Y-116428004D01*
X105658420Y-116542212D01*
X105614356Y-116684644D01*
X105606461Y-116752509D01*
X105599546Y-116857290D01*
X105281350Y-116857290D01*
X105055300Y-116654903D01*
X104957968Y-116696146D01*
X104909742Y-116712539D01*
X104848036Y-116724907D01*
X104765145Y-116734038D01*
X104653366Y-116740718D01*
X104504996Y-116745736D01*
X104462319Y-116746798D01*
X104064000Y-116756206D01*
X104064000Y-117536728D01*
X103810000Y-117536728D01*
X103810000Y-115851091D01*
X104064000Y-115851091D01*
X104064000Y-116520728D01*
X104397315Y-116520728D01*
X104521661Y-116519201D01*
X104633689Y-116515010D01*
X104723220Y-116508739D01*
X104780078Y-116500972D01*
X104789861Y-116498208D01*
X104832435Y-116476041D01*
X104846863Y-116457799D01*
X104829968Y-116437210D01*
X104784304Y-116390668D01*
X104715201Y-116323364D01*
X104627991Y-116240488D01*
X104528003Y-116147232D01*
X104526130Y-116145500D01*
X104409920Y-116039132D01*
X104321383Y-115961046D01*
X104255186Y-115907221D01*
X104205998Y-115873637D01*
X104168489Y-115856270D01*
X104163871Y-115855504D01*
X104525603Y-115855504D01*
X104525819Y-115855720D01*
X104546148Y-115874462D01*
X104593379Y-115918479D01*
X104660738Y-115981444D01*
X104741449Y-116057031D01*
X104752008Y-116066929D01*
X104834419Y-116141652D01*
X104905763Y-116201610D01*
X104959022Y-116241239D01*
X104987176Y-116254976D01*
X104988690Y-116254531D01*
X105005652Y-116223298D01*
X105010728Y-116183805D01*
X104992330Y-116088295D01*
X104943729Y-115990649D01*
X104885958Y-115921411D01*
X104839970Y-115887959D01*
X104782488Y-115868116D01*
X104698249Y-115857218D01*
X104669391Y-115855232D01*
X104593719Y-115851838D01*
X104542214Y-115851941D01*
X104525603Y-115855504D01*
X104163871Y-115855504D01*
X104137326Y-115851102D01*
X104135813Y-115851091D01*
X104064000Y-115851091D01*
X103810000Y-115851091D01*
X103810000Y-115620182D01*
X103957918Y-115620182D01*
X103867728Y-115527819D01*
X103812909Y-115476794D01*
X103767293Y-115443250D01*
X103747732Y-115435455D01*
X103709578Y-115455895D01*
X103659822Y-115512183D01*
X103602652Y-115596769D01*
X103542260Y-115702103D01*
X103482834Y-115820634D01*
X103428566Y-115944813D01*
X103383643Y-116067089D01*
X103367036Y-116121451D01*
X103330654Y-116303627D01*
X103314304Y-116509656D01*
X103085903Y-116509656D01*
X103086821Y-116426186D01*
X103091138Y-116318988D01*
X103099705Y-116232678D01*
X103114005Y-116154619D01*
X103135520Y-116072173D01*
X103148346Y-116028970D01*
X103260541Y-115734881D01*
X103409151Y-115467885D01*
X103569718Y-115259063D01*
X103893177Y-115259063D01*
X104082852Y-115436904D01*
X104272528Y-115614744D01*
X104566582Y-115624575D01*
X104704825Y-115630881D01*
X104807221Y-115640107D01*
X104884080Y-115653718D01*
X104945716Y-115673180D01*
X104964546Y-115681170D01*
X105074286Y-115749786D01*
X105166409Y-115843685D01*
X105228726Y-115949514D01*
X105240248Y-115983233D01*
X105260239Y-116099972D01*
X105262241Y-116226586D01*
X105246796Y-116342755D01*
X105229131Y-116399588D01*
X105193534Y-116484783D01*
X105273771Y-116560483D01*
X105323341Y-116604886D01*
X105358571Y-116632121D01*
X105367095Y-116636182D01*
X105370893Y-116614189D01*
X105374257Y-116552597D01*
X105377020Y-116457991D01*
X105379011Y-116336952D01*
X105380061Y-116196064D01*
X105380182Y-116126975D01*
X105380182Y-115617769D01*
X105501409Y-115624748D01*
X105622637Y-115631728D01*
X105629060Y-115949124D01*
X105635484Y-116266521D01*
X105729888Y-116204047D01*
X105841055Y-116154061D01*
X105973993Y-116130197D01*
X106111401Y-116133959D01*
X106222182Y-116161279D01*
X106349552Y-116233843D01*
X106452502Y-116342589D01*
X106528602Y-116483087D01*
X106575419Y-116650910D01*
X106590560Y-116832455D01*
X106578704Y-117011285D01*
X106540640Y-117160255D01*
X106472620Y-117289860D01*
X106391753Y-117389161D01*
X106279005Y-117508375D01*
X106378002Y-117591372D01*
X106434102Y-117636881D01*
X106474954Y-117667200D01*
X106488546Y-117674776D01*
X106506642Y-117657491D01*
X106541503Y-117612357D01*
X106574348Y-117565547D01*
X106709406Y-117325586D01*
X106802447Y-117066529D01*
X106853491Y-116788304D01*
X106864250Y-116578455D01*
X106847172Y-116306623D01*
X106793920Y-116057716D01*
X106701947Y-115822999D01*
X106583121Y-115615396D01*
X106405865Y-115384948D01*
X106200758Y-115191058D01*
X105967120Y-115033246D01*
X105704270Y-114911033D01*
X105484091Y-114841546D01*
X105356412Y-114818976D01*
X105200043Y-114807193D01*
X105031178Y-114806116D01*
X104866009Y-114815661D01*
X104720732Y-114835746D01*
X104675909Y-114845669D01*
X104509970Y-114897963D01*
X104337115Y-114970520D01*
X104174054Y-115055375D01*
X104037495Y-115144560D01*
X104018998Y-115158877D01*
X103893177Y-115259063D01*
X103569718Y-115259063D01*
X103591953Y-115230146D01*
X103806723Y-115023829D01*
X104051238Y-114851100D01*
X104323274Y-114714124D01*
X104592935Y-114622355D01*
X104758161Y-114590345D01*
X104951010Y-114573202D01*
X105155388Y-114570907D01*
X105355199Y-114583441D01*
G36*
X136907596Y-85743193D02*
X137215158Y-85793156D01*
X137482020Y-85881833D01*
X137722205Y-86015727D01*
X137949734Y-86201338D01*
X137998891Y-86249165D01*
X138194402Y-86473745D01*
X138342034Y-86713148D01*
X138447423Y-86979691D01*
X138516205Y-87285693D01*
X138534447Y-87419437D01*
X138555569Y-87602000D01*
X135439500Y-87602000D01*
X135439500Y-87725655D01*
X135459498Y-87891233D01*
X135513890Y-88080179D01*
X135594271Y-88268949D01*
X135692236Y-88434001D01*
X135692537Y-88434422D01*
X135877914Y-88641698D01*
X136097516Y-88799634D01*
X136343656Y-88906592D01*
X136608652Y-88960940D01*
X136884818Y-88961041D01*
X137164469Y-88905261D01*
X137420447Y-88802051D01*
X137558475Y-88712410D01*
X137706466Y-88584715D01*
X137845178Y-88437297D01*
X137949166Y-88298292D01*
X138048443Y-88143583D01*
X138237580Y-88239060D01*
X138426718Y-88334536D01*
X138338046Y-88499169D01*
X138234890Y-88654338D01*
X138092935Y-88819150D01*
X137930390Y-88975277D01*
X137765465Y-89104390D01*
X137689071Y-89152372D01*
X137432720Y-89265866D01*
X137141191Y-89340773D01*
X136831351Y-89374887D01*
X136520071Y-89365998D01*
X136309796Y-89332887D01*
X136011495Y-89236275D01*
X135740647Y-89082878D01*
X135499380Y-88874143D01*
X135326480Y-88664627D01*
X135156860Y-88379072D01*
X135043462Y-88083133D01*
X134983271Y-87782381D01*
X134973270Y-87482390D01*
X135006357Y-87221000D01*
X135466970Y-87221000D01*
X138049883Y-87221000D01*
X138028573Y-87133687D01*
X137934714Y-86875383D01*
X137790942Y-86651183D01*
X137603376Y-86465319D01*
X137378138Y-86322022D01*
X137121348Y-86225521D01*
X136839127Y-86180049D01*
X136648441Y-86179653D01*
X136370780Y-86225562D01*
X136119298Y-86327224D01*
X135899921Y-86480694D01*
X135718574Y-86682029D01*
X135605237Y-86874123D01*
X135553038Y-86987113D01*
X135510566Y-87086314D01*
X135487243Y-87149562D01*
X135466970Y-87221000D01*
X135006357Y-87221000D01*
X135010442Y-87188734D01*
X135091773Y-86906985D01*
X135214245Y-86642715D01*
X135374842Y-86401499D01*
X135570549Y-86188909D01*
X135798348Y-86010519D01*
X136055225Y-85871900D01*
X136338162Y-85778627D01*
X136644143Y-85736271D01*
X136907596Y-85743193D01*
X136907596Y-85743193D01*
G37*
X136907596Y-85743193D02*
X137215158Y-85793156D01*
X137482020Y-85881833D01*
X137722205Y-86015727D01*
X137949734Y-86201338D01*
X137998891Y-86249165D01*
X138194402Y-86473745D01*
X138342034Y-86713148D01*
X138447423Y-86979691D01*
X138516205Y-87285693D01*
X138534447Y-87419437D01*
X138555569Y-87602000D01*
X135439500Y-87602000D01*
X135439500Y-87725655D01*
X135459498Y-87891233D01*
X135513890Y-88080179D01*
X135594271Y-88268949D01*
X135692236Y-88434001D01*
X135692537Y-88434422D01*
X135877914Y-88641698D01*
X136097516Y-88799634D01*
X136343656Y-88906592D01*
X136608652Y-88960940D01*
X136884818Y-88961041D01*
X137164469Y-88905261D01*
X137420447Y-88802051D01*
X137558475Y-88712410D01*
X137706466Y-88584715D01*
X137845178Y-88437297D01*
X137949166Y-88298292D01*
X138048443Y-88143583D01*
X138237580Y-88239060D01*
X138426718Y-88334536D01*
X138338046Y-88499169D01*
X138234890Y-88654338D01*
X138092935Y-88819150D01*
X137930390Y-88975277D01*
X137765465Y-89104390D01*
X137689071Y-89152372D01*
X137432720Y-89265866D01*
X137141191Y-89340773D01*
X136831351Y-89374887D01*
X136520071Y-89365998D01*
X136309796Y-89332887D01*
X136011495Y-89236275D01*
X135740647Y-89082878D01*
X135499380Y-88874143D01*
X135326480Y-88664627D01*
X135156860Y-88379072D01*
X135043462Y-88083133D01*
X134983271Y-87782381D01*
X134973270Y-87482390D01*
X135006357Y-87221000D01*
X135466970Y-87221000D01*
X138049883Y-87221000D01*
X138028573Y-87133687D01*
X137934714Y-86875383D01*
X137790942Y-86651183D01*
X137603376Y-86465319D01*
X137378138Y-86322022D01*
X137121348Y-86225521D01*
X136839127Y-86180049D01*
X136648441Y-86179653D01*
X136370780Y-86225562D01*
X136119298Y-86327224D01*
X135899921Y-86480694D01*
X135718574Y-86682029D01*
X135605237Y-86874123D01*
X135553038Y-86987113D01*
X135510566Y-87086314D01*
X135487243Y-87149562D01*
X135466970Y-87221000D01*
X135006357Y-87221000D01*
X135010442Y-87188734D01*
X135091773Y-86906985D01*
X135214245Y-86642715D01*
X135374842Y-86401499D01*
X135570549Y-86188909D01*
X135798348Y-86010519D01*
X136055225Y-85871900D01*
X136338162Y-85778627D01*
X136644143Y-85736271D01*
X136907596Y-85743193D01*
G36*
X119279558Y-84624684D02*
X119300695Y-84647538D01*
X119329504Y-84689944D01*
X119367707Y-84755390D01*
X119417027Y-84847365D01*
X119479188Y-84969358D01*
X119555911Y-85124857D01*
X119648920Y-85317351D01*
X119759938Y-85550329D01*
X119890686Y-85827279D01*
X120042888Y-86151690D01*
X120218267Y-86527051D01*
X120404793Y-86927312D01*
X120572306Y-87287064D01*
X120732125Y-87630226D01*
X120882218Y-87952438D01*
X121020551Y-88249339D01*
X121145091Y-88516567D01*
X121253805Y-88749760D01*
X121344661Y-88944558D01*
X121415625Y-89096599D01*
X121464665Y-89201521D01*
X121489747Y-89254965D01*
X121492609Y-89260937D01*
X121469430Y-89271984D01*
X121396878Y-89280307D01*
X121289066Y-89284505D01*
X121253143Y-89284750D01*
X121001289Y-89284750D01*
X120640082Y-88522978D01*
X120278875Y-87761207D01*
X119261399Y-87760978D01*
X118243923Y-87760750D01*
X117883067Y-88522750D01*
X117522212Y-89284750D01*
X116991119Y-89284750D01*
X117043467Y-89183519D01*
X117065873Y-89137733D01*
X117112663Y-89040202D01*
X117181145Y-88896619D01*
X117268625Y-88712679D01*
X117372413Y-88494073D01*
X117489815Y-88246495D01*
X117618139Y-87975638D01*
X117754694Y-87687196D01*
X117896785Y-87386862D01*
X117953559Y-87266786D01*
X118485000Y-87266786D01*
X118515318Y-87271675D01*
X118600548Y-87276047D01*
X118732102Y-87279706D01*
X118901392Y-87282457D01*
X119099831Y-87284105D01*
X119262875Y-87284500D01*
X119477561Y-87283830D01*
X119669548Y-87281950D01*
X119830249Y-87279046D01*
X119951077Y-87275310D01*
X120023443Y-87270931D01*
X120040750Y-87267333D01*
X120027981Y-87234783D01*
X119992399Y-87154510D01*
X119938084Y-87035214D01*
X119869121Y-86885591D01*
X119789591Y-86714341D01*
X119703578Y-86530160D01*
X119615164Y-86341748D01*
X119528431Y-86157802D01*
X119447464Y-85987021D01*
X119376343Y-85838101D01*
X119319153Y-85719742D01*
X119279976Y-85640642D01*
X119262894Y-85609498D01*
X119262533Y-85609381D01*
X119245707Y-85642058D01*
X119206512Y-85722952D01*
X119149094Y-85843223D01*
X119077601Y-85994032D01*
X118996179Y-86166538D01*
X118908977Y-86351901D01*
X118820140Y-86541281D01*
X118733816Y-86725839D01*
X118654152Y-86896734D01*
X118585295Y-87045126D01*
X118531393Y-87162176D01*
X118496591Y-87239044D01*
X118485000Y-87266786D01*
X117953559Y-87266786D01*
X118041722Y-87080328D01*
X118186811Y-86773289D01*
X118329361Y-86471437D01*
X118466679Y-86180465D01*
X118596072Y-85906068D01*
X118714849Y-85653937D01*
X118820317Y-85429766D01*
X118909783Y-85239249D01*
X118980555Y-85088078D01*
X119003642Y-85038580D01*
X119084593Y-84868318D01*
X119145978Y-84748910D01*
X119192619Y-84672578D01*
X119229334Y-84631545D01*
X119260945Y-84618033D01*
X119264371Y-84617893D01*
X119279558Y-84624684D01*
X119279558Y-84624684D01*
G37*
X119279558Y-84624684D02*
X119300695Y-84647538D01*
X119329504Y-84689944D01*
X119367707Y-84755390D01*
X119417027Y-84847365D01*
X119479188Y-84969358D01*
X119555911Y-85124857D01*
X119648920Y-85317351D01*
X119759938Y-85550329D01*
X119890686Y-85827279D01*
X120042888Y-86151690D01*
X120218267Y-86527051D01*
X120404793Y-86927312D01*
X120572306Y-87287064D01*
X120732125Y-87630226D01*
X120882218Y-87952438D01*
X121020551Y-88249339D01*
X121145091Y-88516567D01*
X121253805Y-88749760D01*
X121344661Y-88944558D01*
X121415625Y-89096599D01*
X121464665Y-89201521D01*
X121489747Y-89254965D01*
X121492609Y-89260937D01*
X121469430Y-89271984D01*
X121396878Y-89280307D01*
X121289066Y-89284505D01*
X121253143Y-89284750D01*
X121001289Y-89284750D01*
X120640082Y-88522978D01*
X120278875Y-87761207D01*
X119261399Y-87760978D01*
X118243923Y-87760750D01*
X117883067Y-88522750D01*
X117522212Y-89284750D01*
X116991119Y-89284750D01*
X117043467Y-89183519D01*
X117065873Y-89137733D01*
X117112663Y-89040202D01*
X117181145Y-88896619D01*
X117268625Y-88712679D01*
X117372413Y-88494073D01*
X117489815Y-88246495D01*
X117618139Y-87975638D01*
X117754694Y-87687196D01*
X117896785Y-87386862D01*
X117953559Y-87266786D01*
X118485000Y-87266786D01*
X118515318Y-87271675D01*
X118600548Y-87276047D01*
X118732102Y-87279706D01*
X118901392Y-87282457D01*
X119099831Y-87284105D01*
X119262875Y-87284500D01*
X119477561Y-87283830D01*
X119669548Y-87281950D01*
X119830249Y-87279046D01*
X119951077Y-87275310D01*
X120023443Y-87270931D01*
X120040750Y-87267333D01*
X120027981Y-87234783D01*
X119992399Y-87154510D01*
X119938084Y-87035214D01*
X119869121Y-86885591D01*
X119789591Y-86714341D01*
X119703578Y-86530160D01*
X119615164Y-86341748D01*
X119528431Y-86157802D01*
X119447464Y-85987021D01*
X119376343Y-85838101D01*
X119319153Y-85719742D01*
X119279976Y-85640642D01*
X119262894Y-85609498D01*
X119262533Y-85609381D01*
X119245707Y-85642058D01*
X119206512Y-85722952D01*
X119149094Y-85843223D01*
X119077601Y-85994032D01*
X118996179Y-86166538D01*
X118908977Y-86351901D01*
X118820140Y-86541281D01*
X118733816Y-86725839D01*
X118654152Y-86896734D01*
X118585295Y-87045126D01*
X118531393Y-87162176D01*
X118496591Y-87239044D01*
X118485000Y-87266786D01*
X117953559Y-87266786D01*
X118041722Y-87080328D01*
X118186811Y-86773289D01*
X118329361Y-86471437D01*
X118466679Y-86180465D01*
X118596072Y-85906068D01*
X118714849Y-85653937D01*
X118820317Y-85429766D01*
X118909783Y-85239249D01*
X118980555Y-85088078D01*
X119003642Y-85038580D01*
X119084593Y-84868318D01*
X119145978Y-84748910D01*
X119192619Y-84672578D01*
X119229334Y-84631545D01*
X119260945Y-84618033D01*
X119264371Y-84617893D01*
X119279558Y-84624684D01*
G36*
X122549000Y-89284750D02*
X122104500Y-89284750D01*
X122104500Y-84490500D01*
X122549000Y-84490500D01*
X122549000Y-89284750D01*
X122549000Y-89284750D01*
G37*
X122549000Y-89284750D02*
X122104500Y-89284750D01*
X122104500Y-84490500D01*
X122549000Y-84490500D01*
X122549000Y-89284750D01*
G36*
X123850750Y-89284750D02*
X123406250Y-89284750D01*
X123406250Y-84490500D01*
X123850750Y-84490500D01*
X123850750Y-89284750D01*
X123850750Y-89284750D01*
G37*
X123850750Y-89284750D02*
X123406250Y-89284750D01*
X123406250Y-84490500D01*
X123850750Y-84490500D01*
X123850750Y-89284750D01*
G36*
X129555577Y-86949851D02*
X129424558Y-87405384D01*
X129309578Y-87802864D01*
X129209673Y-88145423D01*
X129123879Y-88436188D01*
X129051232Y-88678289D01*
X128990769Y-88874856D01*
X128941526Y-89029018D01*
X128902540Y-89143904D01*
X128872846Y-89222644D01*
X128851482Y-89268368D01*
X128837482Y-89284204D01*
X128836688Y-89284274D01*
X128817679Y-89264181D01*
X128784057Y-89202580D01*
X128734846Y-89097138D01*
X128669070Y-88945521D01*
X128585751Y-88745395D01*
X128483915Y-88494425D01*
X128362585Y-88190280D01*
X128220785Y-87830623D01*
X128106260Y-87538024D01*
X127982816Y-87222647D01*
X127865943Y-86925585D01*
X127757709Y-86651998D01*
X127660185Y-86407047D01*
X127575442Y-86195892D01*
X127505549Y-86023691D01*
X127452577Y-85895607D01*
X127418596Y-85816798D01*
X127405875Y-85792250D01*
X127391054Y-85820907D01*
X127354927Y-85903453D01*
X127299599Y-86034752D01*
X127227176Y-86209665D01*
X127139761Y-86423056D01*
X127039461Y-86669786D01*
X126928380Y-86944719D01*
X126808624Y-87242717D01*
X126690489Y-87538109D01*
X126527714Y-87944526D01*
X126386651Y-88293386D01*
X126266520Y-88586518D01*
X126166541Y-88825748D01*
X126085936Y-89012905D01*
X126023925Y-89149816D01*
X125979729Y-89238309D01*
X125952569Y-89280211D01*
X125945923Y-89284359D01*
X125926696Y-89267845D01*
X125900174Y-89215074D01*
X125864867Y-89121594D01*
X125819287Y-88982955D01*
X125761945Y-88794705D01*
X125691353Y-88552393D01*
X125635473Y-88356062D01*
X125566529Y-88112091D01*
X125484109Y-87820336D01*
X125391978Y-87494131D01*
X125293899Y-87146806D01*
X125193638Y-86791694D01*
X125094959Y-86442126D01*
X125001628Y-86111434D01*
X124992192Y-86078000D01*
X124912267Y-85794904D01*
X124837243Y-85529424D01*
X124768963Y-85288066D01*
X124709272Y-85077339D01*
X124660015Y-84903750D01*
X124623036Y-84773809D01*
X124600179Y-84694022D01*
X124593627Y-84671680D01*
X124590188Y-84643216D01*
X124609938Y-84627123D01*
X124664736Y-84620919D01*
X124766441Y-84622122D01*
X124821185Y-84624055D01*
X125066528Y-84633375D01*
X125522394Y-86252625D01*
X125609788Y-86562697D01*
X125692383Y-86855059D01*
X125768514Y-87123864D01*
X125836516Y-87363268D01*
X125894725Y-87567425D01*
X125941477Y-87730489D01*
X125975106Y-87846615D01*
X125993947Y-87909957D01*
X125997084Y-87919500D01*
X126011969Y-87899942D01*
X126048002Y-87826046D01*
X126103167Y-87702597D01*
X126175451Y-87534382D01*
X126262837Y-87326186D01*
X126363311Y-87082795D01*
X126474857Y-86808997D01*
X126595461Y-86509576D01*
X126682199Y-86292312D01*
X126831925Y-85917019D01*
X126960409Y-85597445D01*
X127069179Y-85330031D01*
X127159766Y-85111221D01*
X127233698Y-84937456D01*
X127292505Y-84805179D01*
X127337718Y-84710832D01*
X127370864Y-84650857D01*
X127393474Y-84621697D01*
X127402224Y-84617499D01*
X127419462Y-84630558D01*
X127446098Y-84672145D01*
X127483668Y-84745875D01*
X127533711Y-84855363D01*
X127597765Y-85004223D01*
X127677367Y-85196071D01*
X127774054Y-85434522D01*
X127889365Y-85723191D01*
X128024838Y-86065692D01*
X128105763Y-86271359D01*
X128226609Y-86578348D01*
X128340769Y-86867223D01*
X128446102Y-87132645D01*
X128540468Y-87369274D01*
X128621727Y-87571771D01*
X128687739Y-87734797D01*
X128736363Y-87853013D01*
X128765460Y-87921078D01*
X128773011Y-87936000D01*
X128784787Y-87908456D01*
X128812295Y-87825341D01*
X128853883Y-87692155D01*
X128907903Y-87514402D01*
X128972704Y-87297585D01*
X129046638Y-87047206D01*
X129128054Y-86768768D01*
X129215302Y-86467773D01*
X129266478Y-86290077D01*
X129742502Y-84633375D01*
X129984077Y-84624163D01*
X130225653Y-84614952D01*
X129555577Y-86949851D01*
X129555577Y-86949851D01*
G37*
X129555577Y-86949851D02*
X129424558Y-87405384D01*
X129309578Y-87802864D01*
X129209673Y-88145423D01*
X129123879Y-88436188D01*
X129051232Y-88678289D01*
X128990769Y-88874856D01*
X128941526Y-89029018D01*
X128902540Y-89143904D01*
X128872846Y-89222644D01*
X128851482Y-89268368D01*
X128837482Y-89284204D01*
X128836688Y-89284274D01*
X128817679Y-89264181D01*
X128784057Y-89202580D01*
X128734846Y-89097138D01*
X128669070Y-88945521D01*
X128585751Y-88745395D01*
X128483915Y-88494425D01*
X128362585Y-88190280D01*
X128220785Y-87830623D01*
X128106260Y-87538024D01*
X127982816Y-87222647D01*
X127865943Y-86925585D01*
X127757709Y-86651998D01*
X127660185Y-86407047D01*
X127575442Y-86195892D01*
X127505549Y-86023691D01*
X127452577Y-85895607D01*
X127418596Y-85816798D01*
X127405875Y-85792250D01*
X127391054Y-85820907D01*
X127354927Y-85903453D01*
X127299599Y-86034752D01*
X127227176Y-86209665D01*
X127139761Y-86423056D01*
X127039461Y-86669786D01*
X126928380Y-86944719D01*
X126808624Y-87242717D01*
X126690489Y-87538109D01*
X126527714Y-87944526D01*
X126386651Y-88293386D01*
X126266520Y-88586518D01*
X126166541Y-88825748D01*
X126085936Y-89012905D01*
X126023925Y-89149816D01*
X125979729Y-89238309D01*
X125952569Y-89280211D01*
X125945923Y-89284359D01*
X125926696Y-89267845D01*
X125900174Y-89215074D01*
X125864867Y-89121594D01*
X125819287Y-88982955D01*
X125761945Y-88794705D01*
X125691353Y-88552393D01*
X125635473Y-88356062D01*
X125566529Y-88112091D01*
X125484109Y-87820336D01*
X125391978Y-87494131D01*
X125293899Y-87146806D01*
X125193638Y-86791694D01*
X125094959Y-86442126D01*
X125001628Y-86111434D01*
X124992192Y-86078000D01*
X124912267Y-85794904D01*
X124837243Y-85529424D01*
X124768963Y-85288066D01*
X124709272Y-85077339D01*
X124660015Y-84903750D01*
X124623036Y-84773809D01*
X124600179Y-84694022D01*
X124593627Y-84671680D01*
X124590188Y-84643216D01*
X124609938Y-84627123D01*
X124664736Y-84620919D01*
X124766441Y-84622122D01*
X124821185Y-84624055D01*
X125066528Y-84633375D01*
X125522394Y-86252625D01*
X125609788Y-86562697D01*
X125692383Y-86855059D01*
X125768514Y-87123864D01*
X125836516Y-87363268D01*
X125894725Y-87567425D01*
X125941477Y-87730489D01*
X125975106Y-87846615D01*
X125993947Y-87909957D01*
X125997084Y-87919500D01*
X126011969Y-87899942D01*
X126048002Y-87826046D01*
X126103167Y-87702597D01*
X126175451Y-87534382D01*
X126262837Y-87326186D01*
X126363311Y-87082795D01*
X126474857Y-86808997D01*
X126595461Y-86509576D01*
X126682199Y-86292312D01*
X126831925Y-85917019D01*
X126960409Y-85597445D01*
X127069179Y-85330031D01*
X127159766Y-85111221D01*
X127233698Y-84937456D01*
X127292505Y-84805179D01*
X127337718Y-84710832D01*
X127370864Y-84650857D01*
X127393474Y-84621697D01*
X127402224Y-84617499D01*
X127419462Y-84630558D01*
X127446098Y-84672145D01*
X127483668Y-84745875D01*
X127533711Y-84855363D01*
X127597765Y-85004223D01*
X127677367Y-85196071D01*
X127774054Y-85434522D01*
X127889365Y-85723191D01*
X128024838Y-86065692D01*
X128105763Y-86271359D01*
X128226609Y-86578348D01*
X128340769Y-86867223D01*
X128446102Y-87132645D01*
X128540468Y-87369274D01*
X128621727Y-87571771D01*
X128687739Y-87734797D01*
X128736363Y-87853013D01*
X128765460Y-87921078D01*
X128773011Y-87936000D01*
X128784787Y-87908456D01*
X128812295Y-87825341D01*
X128853883Y-87692155D01*
X128907903Y-87514402D01*
X128972704Y-87297585D01*
X129046638Y-87047206D01*
X129128054Y-86768768D01*
X129215302Y-86467773D01*
X129266478Y-86290077D01*
X129742502Y-84633375D01*
X129984077Y-84624163D01*
X130225653Y-84614952D01*
X129555577Y-86949851D01*
G36*
X131439000Y-89284750D02*
X130994500Y-89284750D01*
X130994500Y-85824000D01*
X131439000Y-85824000D01*
X131439000Y-89284750D01*
X131439000Y-89284750D01*
G37*
X131439000Y-89284750D02*
X130994500Y-89284750D01*
X130994500Y-85824000D01*
X131439000Y-85824000D01*
X131439000Y-89284750D01*
G36*
X133620985Y-85824322D02*
X133877138Y-85825244D01*
X134105739Y-85826694D01*
X134300065Y-85828600D01*
X134453397Y-85830893D01*
X134559012Y-85833501D01*
X134610191Y-85836353D01*
X134614000Y-85837391D01*
X134597387Y-85865855D01*
X134549578Y-85942990D01*
X134473618Y-86063990D01*
X134372551Y-86224048D01*
X134249421Y-86418360D01*
X134107273Y-86642117D01*
X133949151Y-86890514D01*
X133778101Y-87158745D01*
X133643616Y-87369329D01*
X132673232Y-88887875D01*
X133611866Y-88896284D01*
X134550500Y-88904694D01*
X134550500Y-89284750D01*
X131910070Y-89284750D01*
X131983362Y-89165687D01*
X132014353Y-89116304D01*
X132076007Y-89018913D01*
X132164815Y-88879029D01*
X132277269Y-88702164D01*
X132409859Y-88493834D01*
X132559079Y-88259552D01*
X132721418Y-88004833D01*
X132893370Y-87735191D01*
X132954326Y-87639640D01*
X133125962Y-87370369D01*
X133286835Y-87117488D01*
X133433785Y-86886000D01*
X133563650Y-86680909D01*
X133673271Y-86507216D01*
X133759487Y-86369925D01*
X133819136Y-86274039D01*
X133849057Y-86224560D01*
X133852000Y-86218828D01*
X133821589Y-86215247D01*
X133735711Y-86212011D01*
X133602400Y-86209244D01*
X133429688Y-86207072D01*
X133225609Y-86205619D01*
X132998195Y-86205010D01*
X132963000Y-86205000D01*
X132074000Y-86205000D01*
X132074000Y-85824000D01*
X133344000Y-85824000D01*
X133620985Y-85824322D01*
X133620985Y-85824322D01*
G37*
X133620985Y-85824322D02*
X133877138Y-85825244D01*
X134105739Y-85826694D01*
X134300065Y-85828600D01*
X134453397Y-85830893D01*
X134559012Y-85833501D01*
X134610191Y-85836353D01*
X134614000Y-85837391D01*
X134597387Y-85865855D01*
X134549578Y-85942990D01*
X134473618Y-86063990D01*
X134372551Y-86224048D01*
X134249421Y-86418360D01*
X134107273Y-86642117D01*
X133949151Y-86890514D01*
X133778101Y-87158745D01*
X133643616Y-87369329D01*
X132673232Y-88887875D01*
X133611866Y-88896284D01*
X134550500Y-88904694D01*
X134550500Y-89284750D01*
X131910070Y-89284750D01*
X131983362Y-89165687D01*
X132014353Y-89116304D01*
X132076007Y-89018913D01*
X132164815Y-88879029D01*
X132277269Y-88702164D01*
X132409859Y-88493834D01*
X132559079Y-88259552D01*
X132721418Y-88004833D01*
X132893370Y-87735191D01*
X132954326Y-87639640D01*
X133125962Y-87370369D01*
X133286835Y-87117488D01*
X133433785Y-86886000D01*
X133563650Y-86680909D01*
X133673271Y-86507216D01*
X133759487Y-86369925D01*
X133819136Y-86274039D01*
X133849057Y-86224560D01*
X133852000Y-86218828D01*
X133821589Y-86215247D01*
X133735711Y-86212011D01*
X133602400Y-86209244D01*
X133429688Y-86207072D01*
X133225609Y-86205619D01*
X132998195Y-86205010D01*
X132963000Y-86205000D01*
X132074000Y-86205000D01*
X132074000Y-85824000D01*
X133344000Y-85824000D01*
X133620985Y-85824322D01*
G36*
X141741875Y-86344067D02*
X142658581Y-85480783D01*
X143575287Y-84617500D01*
X143894185Y-84617500D01*
X144026013Y-84618635D01*
X144128570Y-84621699D01*
X144189176Y-84626179D01*
X144199854Y-84629878D01*
X144174651Y-84653370D01*
X144107591Y-84715860D01*
X144003275Y-84813060D01*
X143866306Y-84940682D01*
X143701286Y-85094437D01*
X143512818Y-85270037D01*
X143305503Y-85463195D01*
X143091250Y-85662815D01*
X142870344Y-85869190D01*
X142664340Y-86062724D01*
X142477784Y-86239067D01*
X142315223Y-86393868D01*
X142181207Y-86522779D01*
X142080282Y-86621449D01*
X142016997Y-86685529D01*
X141995875Y-86710509D01*
X142017028Y-86738134D01*
X142077817Y-86807532D01*
X142174231Y-86914352D01*
X142302261Y-87054240D01*
X142457900Y-87222847D01*
X142637137Y-87415821D01*
X142835963Y-87628809D01*
X143050371Y-87857460D01*
X143154750Y-87968425D01*
X143375935Y-88203624D01*
X143584224Y-88425669D01*
X143775496Y-88630129D01*
X143945633Y-88812574D01*
X144090512Y-88968573D01*
X144206014Y-89093694D01*
X144288019Y-89183507D01*
X144332406Y-89233580D01*
X144339015Y-89241977D01*
X144339903Y-89262318D01*
X144307277Y-89275248D01*
X144231888Y-89282216D01*
X144104485Y-89284671D01*
X144065937Y-89284750D01*
X143767470Y-89284750D01*
X142754672Y-88208278D01*
X141741875Y-87131807D01*
X141733520Y-88208278D01*
X141725166Y-89284750D01*
X141249750Y-89284750D01*
X141249750Y-84617500D01*
X141487364Y-84617499D01*
X141724979Y-84617499D01*
X141741875Y-86344067D01*
X141741875Y-86344067D01*
G37*
X141741875Y-86344067D02*
X142658581Y-85480783D01*
X143575287Y-84617500D01*
X143894185Y-84617500D01*
X144026013Y-84618635D01*
X144128570Y-84621699D01*
X144189176Y-84626179D01*
X144199854Y-84629878D01*
X144174651Y-84653370D01*
X144107591Y-84715860D01*
X144003275Y-84813060D01*
X143866306Y-84940682D01*
X143701286Y-85094437D01*
X143512818Y-85270037D01*
X143305503Y-85463195D01*
X143091250Y-85662815D01*
X142870344Y-85869190D01*
X142664340Y-86062724D01*
X142477784Y-86239067D01*
X142315223Y-86393868D01*
X142181207Y-86522779D01*
X142080282Y-86621449D01*
X142016997Y-86685529D01*
X141995875Y-86710509D01*
X142017028Y-86738134D01*
X142077817Y-86807532D01*
X142174231Y-86914352D01*
X142302261Y-87054240D01*
X142457900Y-87222847D01*
X142637137Y-87415821D01*
X142835963Y-87628809D01*
X143050371Y-87857460D01*
X143154750Y-87968425D01*
X143375935Y-88203624D01*
X143584224Y-88425669D01*
X143775496Y-88630129D01*
X143945633Y-88812574D01*
X144090512Y-88968573D01*
X144206014Y-89093694D01*
X144288019Y-89183507D01*
X144332406Y-89233580D01*
X144339015Y-89241977D01*
X144339903Y-89262318D01*
X144307277Y-89275248D01*
X144231888Y-89282216D01*
X144104485Y-89284671D01*
X144065937Y-89284750D01*
X143767470Y-89284750D01*
X142754672Y-88208278D01*
X141741875Y-87131807D01*
X141733520Y-88208278D01*
X141725166Y-89284750D01*
X141249750Y-89284750D01*
X141249750Y-84617500D01*
X141487364Y-84617499D01*
X141724979Y-84617499D01*
X141741875Y-86344067D01*
G36*
X146647250Y-84617500D02*
X146647250Y-89284750D01*
X146171000Y-89284750D01*
X146171000Y-85062000D01*
X145818353Y-85062000D01*
X145657491Y-85062021D01*
X145554027Y-85056888D01*
X145501912Y-85038800D01*
X145495098Y-84999960D01*
X145527537Y-84932570D01*
X145593181Y-84828830D01*
X145613268Y-84797558D01*
X145728451Y-84617499D01*
X146187850Y-84617499D01*
X146647250Y-84617500D01*
X146647250Y-84617500D01*
G37*
X146647250Y-84617500D02*
X146647250Y-89284750D01*
X146171000Y-89284750D01*
X146171000Y-85062000D01*
X145818353Y-85062000D01*
X145657491Y-85062021D01*
X145554027Y-85056888D01*
X145501912Y-85038800D01*
X145495098Y-84999960D01*
X145527537Y-84932570D01*
X145593181Y-84828830D01*
X145613268Y-84797558D01*
X145728451Y-84617499D01*
X146187850Y-84617499D01*
X146647250Y-84617500D01*
G36*
X131288629Y-84412023D02*
X131403038Y-84454469D01*
X131499943Y-84536999D01*
X131567526Y-84660561D01*
X131581381Y-84710501D01*
X131578658Y-84827877D01*
X131531520Y-84948429D01*
X131452200Y-85046644D01*
X131404545Y-85079273D01*
X131256758Y-85125895D01*
X131117675Y-85110172D01*
X130991287Y-85032678D01*
X130975450Y-85017550D01*
X130905513Y-84936412D01*
X130874142Y-84859381D01*
X130867500Y-84767831D01*
X130892221Y-84624093D01*
X130958509Y-84515695D01*
X131054549Y-84443584D01*
X131168527Y-84408711D01*
X131288629Y-84412023D01*
X131288629Y-84412023D01*
G37*
X131288629Y-84412023D02*
X131403038Y-84454469D01*
X131499943Y-84536999D01*
X131567526Y-84660561D01*
X131581381Y-84710501D01*
X131578658Y-84827877D01*
X131531520Y-84948429D01*
X131452200Y-85046644D01*
X131404545Y-85079273D01*
X131256758Y-85125895D01*
X131117675Y-85110172D01*
X130991287Y-85032678D01*
X130975450Y-85017550D01*
X130905513Y-84936412D01*
X130874142Y-84859381D01*
X130867500Y-84767831D01*
X130892221Y-84624093D01*
X130958509Y-84515695D01*
X131054549Y-84443584D01*
X131168527Y-84408711D01*
X131288629Y-84412023D01*
D13*
X155945000Y-75585000D02*
X153945000Y-75585000D01*
X155945000Y-72785000D02*
X155945000Y-75585000D01*
X153945000Y-72785000D02*
X155945000Y-72785000D01*
X153945000Y-75585000D02*
X153945000Y-72785000D01*
X153440000Y-78880000D02*
X151440000Y-78880000D01*
X153440000Y-76080000D02*
X153440000Y-78880000D01*
X151440000Y-76080000D02*
X153440000Y-76080000D01*
X151440000Y-78880000D02*
X151440000Y-76080000D01*
D10*
X154540000Y-101275000D02*
X155540000Y-101275000D01*
X155540000Y-102625000D02*
X154540000Y-102625000D01*
X147168095Y-106152381D02*
X147168095Y-106961905D01*
X147215714Y-107057143D01*
X147263333Y-107104762D01*
X147358571Y-107152381D01*
X147549048Y-107152381D01*
X147644286Y-107104762D01*
X147691905Y-107057143D01*
X147739524Y-106961905D01*
X147739524Y-106152381D01*
X148168095Y-106247619D02*
X148215714Y-106200000D01*
X148310952Y-106152381D01*
X148549048Y-106152381D01*
X148644286Y-106200000D01*
X148691905Y-106247619D01*
X148739524Y-106342857D01*
X148739524Y-106438095D01*
X148691905Y-106580952D01*
X148120476Y-107152381D01*
X148739524Y-107152381D01*
X134402381Y-81328095D02*
X133402381Y-81328095D01*
X133402381Y-81090000D01*
X133450000Y-80947142D01*
X133545238Y-80851904D01*
X133640476Y-80804285D01*
X133830952Y-80756666D01*
X133973810Y-80756666D01*
X134164286Y-80804285D01*
X134259524Y-80851904D01*
X134354762Y-80947142D01*
X134402381Y-81090000D01*
X134402381Y-81328095D01*
X134402381Y-79804285D02*
X134402381Y-80375714D01*
X134402381Y-80090000D02*
X133402381Y-80090000D01*
X133545238Y-80185238D01*
X133640476Y-80280476D01*
X133688095Y-80375714D01*
X136192381Y-81388095D02*
X135192381Y-81388095D01*
X135192381Y-81150000D01*
X135240000Y-81007142D01*
X135335238Y-80911904D01*
X135430476Y-80864285D01*
X135620952Y-80816666D01*
X135763810Y-80816666D01*
X135954286Y-80864285D01*
X136049524Y-80911904D01*
X136144762Y-81007142D01*
X136192381Y-81150000D01*
X136192381Y-81388095D01*
X135287619Y-80435714D02*
X135240000Y-80388095D01*
X135192381Y-80292857D01*
X135192381Y-80054761D01*
X135240000Y-79959523D01*
X135287619Y-79911904D01*
X135382857Y-79864285D01*
X135478095Y-79864285D01*
X135620952Y-79911904D01*
X136192381Y-80483333D01*
X136192381Y-79864285D01*
X121728095Y-92132381D02*
X121728095Y-92941905D01*
X121775714Y-93037143D01*
X121823333Y-93084762D01*
X121918571Y-93132381D01*
X122109048Y-93132381D01*
X122204286Y-93084762D01*
X122251905Y-93037143D01*
X122299524Y-92941905D01*
X122299524Y-92132381D01*
X123299524Y-93132381D02*
X122728095Y-93132381D01*
X123013809Y-93132381D02*
X123013809Y-92132381D01*
X122918571Y-92275238D01*
X122823333Y-92370476D01*
X122728095Y-92418095D01*
X120832381Y-100996666D02*
X120356190Y-101330000D01*
X120832381Y-101568095D02*
X119832381Y-101568095D01*
X119832381Y-101187142D01*
X119880000Y-101091904D01*
X119927619Y-101044285D01*
X120022857Y-100996666D01*
X120165714Y-100996666D01*
X120260952Y-101044285D01*
X120308571Y-101091904D01*
X120356190Y-101187142D01*
X120356190Y-101568095D01*
X119832381Y-100139523D02*
X119832381Y-100330000D01*
X119880000Y-100425238D01*
X119927619Y-100472857D01*
X120070476Y-100568095D01*
X120260952Y-100615714D01*
X120641905Y-100615714D01*
X120737143Y-100568095D01*
X120784762Y-100520476D01*
X120832381Y-100425238D01*
X120832381Y-100234761D01*
X120784762Y-100139523D01*
X120737143Y-100091904D01*
X120641905Y-100044285D01*
X120403810Y-100044285D01*
X120308571Y-100091904D01*
X120260952Y-100139523D01*
X120213333Y-100234761D01*
X120213333Y-100425238D01*
X120260952Y-100520476D01*
X120308571Y-100568095D01*
X120403810Y-100615714D01*
X151163334Y-92582381D02*
X150687143Y-92582381D01*
X150687143Y-91582381D01*
X152020477Y-92582381D02*
X151449048Y-92582381D01*
X151734762Y-92582381D02*
X151734762Y-91582381D01*
X151639524Y-91725238D01*
X151544286Y-91820476D01*
X151449048Y-91868095D01*
X120812381Y-98596666D02*
X120336190Y-98930000D01*
X120812381Y-99168095D02*
X119812381Y-99168095D01*
X119812381Y-98787142D01*
X119860000Y-98691904D01*
X119907619Y-98644285D01*
X120002857Y-98596666D01*
X120145714Y-98596666D01*
X120240952Y-98644285D01*
X120288571Y-98691904D01*
X120336190Y-98787142D01*
X120336190Y-99168095D01*
X120812381Y-97644285D02*
X120812381Y-98215714D01*
X120812381Y-97930000D02*
X119812381Y-97930000D01*
X119955238Y-98025238D01*
X120050476Y-98120476D01*
X120098095Y-98215714D01*
X153183334Y-92582381D02*
X152850000Y-92106190D01*
X152611905Y-92582381D02*
X152611905Y-91582381D01*
X152992858Y-91582381D01*
X153088096Y-91630000D01*
X153135715Y-91677619D01*
X153183334Y-91772857D01*
X153183334Y-91915714D01*
X153135715Y-92010952D01*
X153088096Y-92058571D01*
X152992858Y-92106190D01*
X152611905Y-92106190D01*
X154040477Y-91915714D02*
X154040477Y-92582381D01*
X153802381Y-91534762D02*
X153564286Y-92249048D01*
X154183334Y-92249048D01*
X120642381Y-103956666D02*
X120166190Y-104290000D01*
X120642381Y-104528095D02*
X119642381Y-104528095D01*
X119642381Y-104147142D01*
X119690000Y-104051904D01*
X119737619Y-104004285D01*
X119832857Y-103956666D01*
X119975714Y-103956666D01*
X120070952Y-104004285D01*
X120118571Y-104051904D01*
X120166190Y-104147142D01*
X120166190Y-104528095D01*
X119642381Y-103051904D02*
X119642381Y-103528095D01*
X120118571Y-103575714D01*
X120070952Y-103528095D01*
X120023333Y-103432857D01*
X120023333Y-103194761D01*
X120070952Y-103099523D01*
X120118571Y-103051904D01*
X120213810Y-103004285D01*
X120451905Y-103004285D01*
X120547143Y-103051904D01*
X120594762Y-103099523D01*
X120642381Y-103194761D01*
X120642381Y-103432857D01*
X120594762Y-103528095D01*
X120547143Y-103575714D01*
X152283334Y-102232381D02*
X151950000Y-101756190D01*
X151711905Y-102232381D02*
X151711905Y-101232381D01*
X152092858Y-101232381D01*
X152188096Y-101280000D01*
X152235715Y-101327619D01*
X152283334Y-101422857D01*
X152283334Y-101565714D01*
X152235715Y-101660952D01*
X152188096Y-101708571D01*
X152092858Y-101756190D01*
X151711905Y-101756190D01*
X152759524Y-102232381D02*
X152950000Y-102232381D01*
X153045239Y-102184762D01*
X153092858Y-102137143D01*
X153188096Y-101994286D01*
X153235715Y-101803810D01*
X153235715Y-101422857D01*
X153188096Y-101327619D01*
X153140477Y-101280000D01*
X153045239Y-101232381D01*
X152854762Y-101232381D01*
X152759524Y-101280000D01*
X152711905Y-101327619D01*
X152664286Y-101422857D01*
X152664286Y-101660952D01*
X152711905Y-101756190D01*
X152759524Y-101803810D01*
X152854762Y-101851429D01*
X153045239Y-101851429D01*
X153140477Y-101803810D01*
X153188096Y-101756190D01*
X153235715Y-101660952D01*
M02*
